<?xml version="1.0" encoding="utf-8"?>
<svg xmlns="http://www.w3.org/2000/svg" viewBox="0 0 509.2 203.4">
	<title>Cyrillic text depicting the phrase “Comrades, for the sake of your health, preserve cleanliness.”</title>
	<path d="m290.4 27-.5.4zm84 19.3c.3 1 .2 2.1-.7 2.7-.4.5-1.5 0-1.6.7l-.1 4.3c1.4 1 3.3.8 4.6-.1a6.4 6.4 0 0 0 3.3-4c.6-2.5.3-5 .3-7.5l-.2-5-7.7.1.2 8.8m-228.7-32.5-.3 34 7.9.5-.3-34.5 9.8-.5-.2-6.8-27.2-.4.5 7.9zm84.2 33.3.7-4.9h6.8l.4 4.6s6.7.5 7.3 0c1-.8-6.2-41-6.2-41l-10.7-.1-5.9 41.3m13.8-10.8h-4.9l2.5-17.7m-38.2 28.7h16.5c3-.9 5.5-3.6 5.5-6.8 0-2.3.1-4.5.3-6.7 0-2.3-.2-5-2.4-6.3-2.3-.3 0-1.9.6-2.8 1.2-1 1.4-2.4 1.5-3.8.5-4 .6-8.2-1.2-11.8a6 6 0 0 0 -5.8-3.1h-14.6l-.3 41m7.9-16.6c2 .2 4.5-1 6.2.5 1 1.6.5 3.6.6 5.4.2 2-.8 4.2-3.2 3.8-1.4 0-4.3.7-3.6-1.8v-8zm-.5-7.6v-9.4c2-.2 4.2-.5 6.2.2 1.5 1.3 1 3.5 1.2 5.3.3 2-1.1 4-3.3 4.1-1.4.2-2.8 0-4.1-.2zm135.2 23.6v7.6h7l-.3-14.3-2.8-.4-.3-33.7h-7.3l.3 33.7h-6.9v-33.8l-7.7-.2.4 34h-7.3v-34l-7.4.1v41.5zm-46.9-18.9h.5v19.4h8l-.1-41.5h-7.4l-7.6 21.4.5-21.3h-7.6l-.2 41.4h7.7s5.8-16.2 6.2-19.4m-34.2 2.4c3.7 0 7.8.8 11-1.2 2.5-1.4 3.2-4.2 3.1-6.7 0-3.8 1-7.8-.2-11.5-.9-2.6-3.4-4.3-6.1-4.7-5-1-10.2-.3-15.2 0l.1 41.1h7.6zm0-7v-10c1.9 0 4-.5 5.6.4 1.3 2.9 1.8 6.2.4 9.1-1.8 1-4 .4-6 .4zm107 3.7h.5l.1 20 7.2-.4.4-41.1h-7.3l-7.5 21.5.2-21.2h-7.3l.1 41h7zm-184.1-21.3c-12.6.1-12.6 5.6-12.5 13v19.3c-.4 8.8 4.7 11.3 11.5 11.3 6.4-.3 11-2.3 10.9-11.1l-.2-19.4s3-13.3-9.7-13.1zm2.7 13-.2 19.3c0 4-1.7 3.8-3.5 3.8s-3.8-1.5-3.8-3.6l.3-19.4c.2-4.7 1.2-5.7 3.5-5.7s3.5 1.1 3.7 5.7zm60.6 95.4h-5.2c-.3-.5-.8-1-.8-1.7.2-1.5.3-3.1.7-4.7 0-.3 0-.8.5-.6a166.8 166.8 0 0 1 10 .2c.4 0 1.2-.2 1 .4v5.7c-.4.2-.8.6-1.3.6h-5zm239.3 15c-1.5.2-4.5.4-4.2-1.8.8-2.3 2-4.4 2.3-6.8.6-3 1.2-6 2-8.9-1.4-1.9-2.9-3.8-3.2-6-.5-2.5-.1-5 .1-7.5 0-2.5-.2-5 .2-7.5.9-3 3.8-5.3 7-4.9 3.6.2 7.2 0 10.8.2 1.6 1.8.6 4.2.4 6.3-.6 5.6-.2 11.2-.3 16.8l-.1 16.3c2 1.7-.3 4.5-2.4 3.7-2-.3-4.6 1.2-6-.6-.4-2.2.9-4.4.8-6.6.3-3.3 0-6.5.2-9.8-1-.3-1.2 2-1.3 2.8-.4 4-1.2 8-1.6 12 .3 2.6-2.7 2.5-4.4 2.3zm5.5-25.7c1.8.1 2.3-2.1 2.1-3.6.2-1.6-.1-4.4-2.5-4-1.7 1-.8 3.7-1 5.3.1.8 0 2.7 1.4 2.3zm-24.7 25.8-6.4-.1c-1.1-2.1.4-4.3.5-6.5.6-3 .1-6.2.2-9.4l-.1-19-1.6-8c1.1-1.4 3 0 4.4-.3h5.3c1 1.4.5 3-.2 4.4-.8 3.5-.5 7.1-.9 10.7.3 2 3.1.3 4.5.7 1.8 0 3.7.8 4.8 2.2a7 7 0 0 1 1.2 5.3v15.3c-1 1.4-1.5 3.3-3.3 3.8-1.6 1-3.4 1-5.2.9zm3.4-7.8c2-.2 1.8-2.8 1.8-4.2v-5.3c-.7-1.8-3.7-2.2-4 .2v8c.6.6 1.2 1.5 2.2 1.3zm-25 7.7h-6.7c-1.3-1.4-.3-3.4-.1-5 .5-2.2.7-4.5.6-6.8l-.3-23.8-1.4-6.2c.5-2 2.7-1.6 4.2-1.5l9.3.1c1.5 1 3.5 1.7 4 3.8 1.1 1.9 1 4.1 1 6.3v7.8c-.7 1.4-3.3 2.8-1.3 4.4a7 7 0 0 1 1.8 5.4l.4 9c-1 2-1.3 4.5-3.4 5.6-1.4 1.3-3.4.8-5.1 1h-3zm2.8-7.9c2.3.2 1-2.8 1.3-4.2-.2-1.8.6-4-1-5.2-.6-1.2-2.8-2.2-2.3-.1v9c.4.7 1.3.8 2 .5zm0-18.8c2-.5 1.4-3 1.3-4.5.2-1.9-1.9-2.7-3.3-1.8-.2 1.5-1.2 3.6.2 4.8.5.5 1 1.4 1.8 1.5zm-21.4 26.8c-2 .7-4-.4-5.5-1.7a7.6 7.6 0 0 1 -2.2-4.4c-.5-2.8-1-5.6-.8-8.5v-20.9c.6-1.8.7-4.2 2.6-5.1 1-1 2.2-2.5 3.8-2.2h3.9c1.4 1 3.4 1.7 4.1 3.6.8 1 1.5 2.2 1.3 3.5v30.2c-1 1.5-1.5 3.4-3 4.4-1.2 1-2.7 1.2-4 1.1zm0-8.7c1.5 0 .8-1.8 1-2.8v-17.8c0-2-3.2-2.2-2.9 0-.6 2.3 0 4.7-.1 7.1l.4 12.8c.2.7.9 1.2 1.6.7zm-28.6 9c-2.2 1.2-2.3-2.1-1.8-3.4.5-4.5 1-9 .7-13.4-.1-6.8-.1-13.6-.5-20.4-.2-1.8-1.4-3.7-.5-5.5 1.4-1 3.6-.2 5.3-.5 2 .3 4-.4 5.8.5a9.3 9.3 0 0 1 5.1 6c.8 2.5 1.7 5 1.7 7.5.7 3.4-.3 6.9-.7 10.3-.3 1.3-1.2 2.5-1.7 3.7a8.3 8.3 0 0 1 -3.8 3.3c-1.6.8-5 .3-4 3 .8 2.5 1.7 5.2 4 6.5 1.4 1.5-.8 3-2.2 2.3-2.2 0-4.4-.3-6.5 0-.3 0-.6 0-1 .2zm7.3-18.5c1.7-1 1.4-3.3 1.8-5l-.5-6c-.4-2.3-3.9-2-3 .5v9c.5.4.6 2.4 1.7 1.5zm-20.5 18.8c-2-.1-4-.7-5.4-2.3-1.6-1.2-2-3.2-2.4-5-1-4-.5-8-.7-11.9l-.2-15.5c.7-2 .7-4.3 2.3-5.9 1.3-1.3 3.1-2.5 5-2.4 2-.4 3.9 0 5.4 1.3 1.3.9 1.8 2.4 2.5 3.7.9 2.3.4 4.8.6 7.2.2 5.9.6 11.7.6 17.5l-.6 7.6c-1 1.6-1.5 4-3.6 4.5-1.1.5-2.2 1.4-3.5 1.2zm-.2-9c2 0 1.1-2.8 1.5-4.2l-.4-16.7c-.4-1.5-3-2.4-3-.2-.5 2.1 0 4.3 0 6.4l.4 14c.2.6.9 1 1.5.8zm-43.8 9.1c-2 .7-4-.4-5.8-1-2-.4-2.4-3.1-3-4.8v-5.6c.6-1.7 2.6-2.2 3.8-.8.5 1.3.2 3.9 2.5 3.1 2 .8 2.8-1.4 2.8-3l-.3-8.2c-.7-2-4.3-.2-4.5-2.8-.7-2 1-3.5 2.8-3.8 1.2-1 1.5-3.2.3-4.2-1.9-1.5-3.6.7-4.7 2-1.5 1.5-2.7-.8-2.5-2.2l.6-8.8a4.6 4.6 0 0 1 4.5-2.7c2 .2 4.4-.5 6.1 1a8 8 0 0 1 4 4.8c.2 1.8-.1 3.6 0 5.4 0 1.7 0 3.4-1.4 4.5-1.7 1.6-.1 3.3 1 4.5.9 1 .8 2.3.8 3.6v11.6c-1 1.9-1.2 4.4-3.1 5.6-1 1-2.5 1.7-4 1.7zm-41.2.3h-7.6c-1.9-1.6.5-3.9 0-5.8v-30c-.2-2.2-1.3-4.3-.6-6.4 1.6-1.1 3.7-.1 5.5-.5h10.2c1.5 2 .5 4.5.7 6.8 0 2.3 0 4.6-.2 7-2 .7-3.2-1.3-4.2-2.5-1.2-.6-3-.9-3.9.2-.8 1.2-.8 4.1 1.2 3.7l6.3.5c1.4 1 2.2 3.4.5 4.6-1.7 1-3.7.5-5.6.7-1.8-.5-2.6 1-2.1 2.6l-.3 11.3c2.5 1.2 5.5 0 7.1-2.1 2-1.3 2.9 1.9 2.3 3.4v5.7c-2 1.5-4.6.7-6.8.8zm-39.9.4c-1.5-.2-4.2.8-4.5-1.6.4-2.1 2-3.9 2-6.1 1-5 2-10 2.8-15.1.3-2.5 0-5 .1-7.5a14.9 14.9 0 0 1 -3-5.6c-.6-2-1-4.5 0-6.5 1.5-1.7 4-.4 6-.7 1.9-.4 3.8.4 2.8 2.5-.6 1.8-2 3.7-.7 5.5.2 1.3 2.3 3.7 3.4 2.3-.1-2.4.3-5-1-7-.8-1.4-.4-3.7 1.4-3.4h6.4c2.2 1.2 0 3.4-.3 5 0 1.8-.2 4.3.5 5.7 1.7-1.2 3.4-3 2.9-5.2.1-1.8-2.2-3.6-.8-5.3.8-.5 1.8-.1 2.7-.2h5.2c.6 1.6 1.8 3.3 1.1 5.2-.6 3.1-2.4 5.8-3.6 8.7-.1 2 .5 4 .6 6a127 127 0 0 0 3.5 18.8c.7 1.2 2.4 4.1-.1 4.3h-7c-1.6-2.3-1-5.3-1.5-7.9-.8-4.7-.9-9.5-1.5-14.3-1.3-2.3-2.7 1.2-2 2.5.2 4.6 0 9.3.6 13.8 0 1.8 1.3 4 .7 5.5-2.4 1-5 .2-7.5.8-2.6 0-2-2.6-1.2-4.1.7-3.6.4-7.2.6-10.8 0-2.5.3-5 0-7.4-2.1-1.7-2 2.4-2 3.7-.6 5.6-1 11.2-2 16.8-.6 2.3-2.8 1.7-4.6 1.6zm-49.2-.5c-1.8-.5-4.9 1.1-5.5-1.2 0-1.8.6-3.6.6-5.4v-13.2l-.2-15.3-1-7.5 15.4-.5c2.2 1 .6 3.5.8 5.3v8c-1.6 1.5-2.8-.5-3.6-1.6-1.4-1-3.7-1.2-4 1l.3 23.9 3 5.8c-1.5 1.5-3.7.3-5.5.7zm-17.6.4c-2.6 0-5.2.2-7.7 0-2.2 0-.3-3-.5-4.4.2-2.8 0-5.7 0-8.5v-18.6l-.7-11.1c4.3-.2 8.5.1 12.8-.3.8-.1 1.7-.2 2.5.2 1 .2 1.3.7 1 1.7 0 4 0 8.2-.2 12.3-1.7.7-2.8-.7-3.5-2-.3-1.2-1.3-1-2.1-1h-1.8c-1.5 1-1.4 3.2-.7 4.3l7.3.5c.9.4 1.5 1 1.3 2v2.2c-1 .6-2 1.2-3.2 1h-5.3v14a14.2 14.2 0 0 0 4.6 0c1.4-.5 2.7-3.5 4.1-2 1 2 .3 4.3.6 6.4.5 1.7-.6 3.6-2.5 3.3zm-38-17.6h.1l-.1-1-.2-1-.3-.4-.3-.3v1.1l.6 1.6zm-1 1.9.8-.2.4-1.2h-1.4l-.3.7-.3.8z"/>
	<path d="m162.8 130.1-15 .2c-1.2-1.8.3-4 .2-5.9.5-3.6.1-7.2.1-10.9l-.4-18.6c-.2-2.1-1.4-4.4-1.3-6.4.8-1.8 2.7-1.4 4.4-1.4h5c1.4 1.7-.4 4.1-.4 6-.3 2.6 0 5.2-.2 7.7v19c.6 1 .6 3 2.2 2.6 1.7.2 1.8-2.5 1.7-3.7l-.4-25.2c-.2-2-1.3-3.9-.8-5.8.5-1.6 2.8-.3 4.1-.5 1.6.2 3.3 0 4.7.4 1.2 1.4-.4 3.3-.4 4.8-.3 2.9 0 5.8-.1 8.6l.1 19.1c0 1.7.8 3 2.6 2 1.9-1 .4-4 .8-5.8v-21.8c-.3-2.3-1.6-4.6-1.2-6.8.5-1.7 2.9-.4 4.2-.7 1.6.1 3.3 0 4.7.3.9 1.4-.2 3.2-.2 4.8-.4 2.6-.7 5.1-.5 7.7l.5 23.4c0 2.2 1.7 5 .6 6.7-2.4.3-4.8 0-7.3.2zm-35.3.6c-1.8-.1-5.8.8-5.2-2.3a88 88 0 0 0 2-14 887 887 0 0 0 1.6-25.8c.7-1.1 1.9-2.2 3.3-1.7h8c2.3 2.3 1.7 5.7 2.2 8.6l3 26.1c.5 2.4.9 5 2 7.2.3 1.6-1.9 1.7-3 1.6h-6.6c-.6-1.9 2-3.7.5-5.3-1.2-1.7-4-1-4.4.9-.4 1.5 2.1 3.8 0 4.8h-3.4zm5.3-13.3h2c-.5-5.5-1-10.9-1.7-16.2-1-1.7-1.5 1.6-1.4 2.4-.1 4-.3 8-.7 12-.7 1.2 0 2.1 1.4 1.8zm-25.2 13.6-6.9.2c-1.9-.6-1.7-2.6-1-4 .7-1.9.8-3.9.7-5.8l-.1-25.4-1.4-6.4c.2-1.4 1-2.4 2.4-2h12.2c1.4 1.3 3.5 2.1 3.6 4.3.7 2.1 1.5 4.4 1.2 6.7l-.3 7.2c-.7 1.4-3.4 3-1.2 4.4 1.2 2 1.8 4.4 2 6.7l-.1 8c-.6 2-1.4 4.2-3.3 5.4-1.1.9-2.6.4-4 .6zm3-27.2c1.3-1 .4-3 .6-4.4 0-2.2-3-2-3.3 0-.7 1.8.1 3.6 1.5 4.7.4.4 1 .1 1.1-.3zm-.8 19.6c2-.6 2.2-2.8 2-4.5-.4-2-.4-4.4-2-5.8-.6-.9-2-1.7-1.5-.1v9.2c.5.3.8 1.2 1.5 1.2zm389.2 10c-1.5-.2-2.3-2.1-1.6-3.3.4-1 1.1-1.9.7-3-.5-1.5-1.3-3-1.1-4.8.2-1-.2-2.2.6-3 .6-.6 1.3-1 1.8-1.6.8-.5 1.8 0 2.6.3.9.6 1.3 1.5 1.8 2.4.5 1.1 1.1 2.3 1.2 3.6 0 .8-.5 1.6-.7 2.3l-2 4.8c-.6.9-1.5 1.4-2.3 2zm-463-2.1c-1.4.1-2.5-1-3.7-1.4-.2-2 0-4.2-.1-6.2l-.3-6.3c.7-1 1.7-1.3 2.8-.7.2-2 0-4.3.1-6.4 0-5.3.2-10.6 0-15.8l-1.2-6.2c.8-1.7 2.5-1.3 4-1.3l13.4.1c1 1.6 1.9 3.2.7 4.9-.8 1.4-.6 2.9-.6 4.4l.2 25.7 1.6 7.7c-3 .8-6 .7-9.1 1-1.9-1.3-.7-3.4-.4-5.1.6-2 .3-4 .4-6.1v-20.1c-.8-.6-2-2-1.6-.1l-1 26.6c-.5 1.2-.4 3-1.7 3.7-1.1.6-2.2 1.8-3.6 1.6zm312.5 3.1c-2.5.2-1.3-3-1.6-4.6.2-2-.6-4.2 1.2-5.5 2.1-1.9 1-5 1.6-7.6.7-9 .3-18 .2-27-.5-2.3-.4-3.8 2.3-3.2l13.6-.5c2.3 1.1.5 3.4.2 5.3-.5 4.6 0 9.4-.1 14.2v17c1.4 1.4 3.3 2.7 2.5 5l-.2 6.1c-2.1 1-3-.9-4-2.5-.7-2.3-3-1.9-4.9-2.3-2 0-4.3.1-6.3.7-2 1-2.4 3.7-4 4.9h-.3zm9.1-13.1c2.5.2.8-3.2 1.3-4.8l-.2-19.6c-2.3-.7-1.7 2.6-2 4 .2 6.6-.5 13-1 19.5.5 1.1.9 1 2 .9zm-133.4 9c-2.2.3-3.8-1.5-5.8-2.2-1.1-2.6-3-5-2.4-8v-26.4c1.3-2 1.4-5 4-5.5 1.7-1.2 3.4-1.7 5.3-.7a6 6 0 0 1 5.1 4.3c1.3 3 .8 6.5 1.3 9.7v23.8c-1.5 1.8-2.6 4.2-5 4.7-.8.5-1.6.5-2.5.5zm-.2-9c2 0 1.3-3.3 1.4-4.8-.2-5.5 0-11-.5-16.5-1.2-1.9-3.1 0-2.7 2 .4 6.4-.2 13 1 19.4z"/>
	<path d="m59.1 130.3c-1.4-.1-3.8.8-4-1.5.2-1.7 1.2-3.3 1.6-5 1.5-3.8 1.9-7.9 2.7-11.9-.9-1-2.7-1.6-2.9-3v-17.9c1-1.5 1.4-3.5 3.3-4 1.8-1.3 4-.9 6-.9h8c2 1.2 1 3.7 1 5.5-.8 6-.4 12-.5 18.1a228.3 228.3 0 0 0 .2 11.7c.4 2.6.8 5.2 1.4 7.8a8.5 8.5 0 0 1 -5.2.7c-1.5-.3-4.2.3-5-.6 1-3.4.7-7 1-10.5l.1-6.3c-1.6 1-1 3.2-1.5 4.8l-1.4 12c-1.2 1.3-3.2.9-4.8 1zm6-26c2.4.1 1.6-3.3 1.5-5 .3-1.6-.8-3.2-2.6-2.2-1.7 1.1-.4 3.7-.7 5.4 0 1.1.6 2.2 1.7 1.9zm-56 32.1c-2.2-.9-2.4-3.6-2.9-5.6.2-2 0-4.4 1.1-6.2 1.8-1.2 2.2-3.3 2-5.3.3-6.3 1-12.6 1-19 0-2.9.3-5.8-.2-8.7-.8-1.5-1-4 1.1-4.4l10 .2c1.8 0 3.6-.4 5.5-.6 1.8 1.6 1.4 4 .6 6-.6 2.4-.7 4.8-.6 7.1l.4 24a6 6 0 0 1 2.4 5.5l.4 4.8c-1.5 1.5-4.3 1.4-5-.9-.4-1.1-1-2.8-2.5-2.4h-8.1c-1.4 1.3-2.4 3-3.4 4.5a5 5 0 0 1 -1.8 1zm9.3-13.7c1.9-1.6 1-4.3 1-6.5-.2-5.3-.1-10.7-.2-16-.2-1.4-1.6-1.6-1.3 0-.5 6.5-.4 13-1 19.5-.4 1.2 0 3.2 1.5 3zm403.6 67.7h-4.2c-1-2.5 1-4.8.8-7.3.2-5.1 0-10.3.1-15.4v-7.3c-1.2-2.3-2.8 1.4-4.3.9-1.9-1.1-.6-3.8-1-5.6l-.1-7.8c2-1.2 4.5-.3 6.8-.7l9-.1c2.2.7 1.6 3.3 1.6 5l-.2 9c-1.7 1.3-3.2-3.2-4.6-1-.6 2.2.2 4.4 0 6.6l.5 17.4c.3 1.9 2.6 4.6.4 6-1.6.7-3.2 0-4.8.3zm37.4.3c-1.1 0-2.2-.4-3.3-.6l-1.9-2.5v-5.2l1.6-2.5 1.9-1 3.2 1 1.4 3.4v4.3a14.6 14.6 0 0 1 -2.9 3.1zm-17.8-.2c-1.9-.1-4.6.8-5.8-1-.3-2 1.6-3 2.9-3.9 1.8-1.6 4.2-3.2 4.6-5.8-.9-2.1-4.5-1-5-3.5-1.7-3.3-2.3-7-2.4-10.6-.4-4.5-.3-9.1-1.5-13.5-.3-1.6-2.3-4.3 0-5.1h5.4c1.3 0 2.7-.3 2.3 1.5.2 6 .3 11.9.7 17.8.1 1.8 2.7 2.3 2.4.2.2-2.7 0-5.4 0-8.2 0-3.5-1-6.9-1.2-10.4.2-1.8 2.5-.6 3.7-1 1.5 0 3-.2 4.4 0 2.1 1.3.8 4 .8 6-.5 6.7-.3 13.4-1.4 20.1a76.3 76.3 0 0 1 -3.3 15.7c-.3 1.6-2.2 1.5-3.4 1.7zm-63 .3h-2.9c-1.2-2 .3-4.1.4-6.2.5-5.7.2-11.4.2-17.2v-7.4c-2-1.2-3 3.4-4.7 1.4-.7-1.7-.1-3.6-.5-5.4 0-2.3-.2-4.5-.3-6.8 1.4-2 4-1 6-1.3l10.4-.3c1.8 1.3 1.2 3.8 1.3 5.8l.2 8h-2.5c.2-2.2-3.7-1.7-2.8.5l.8 24.7c1.6.9 1.7 4.5-.7 4a31 31 0 0 1 -4.9.3zm21.8.5c-2.3.4-4.4-1-5.8-2.6-1-1.5-1.6-3.2-2.1-5-.5-2.6 0-5.4-.2-8.2 0-3.6.2-7.3-.2-11 0-2.5.5-5 .5-7.5 0-3 .5-6.2 2.8-8.2a8 8 0 0 1 10.9-.2c2.3 2 3.1 5.3 3.2 8.4.6 8 .2 16 .4 24-.3 2.3-.8 4.6-1.9 6.7a9.3 9.3 0 0 1 -7 3.7h-.3zm.8-9c2-.3 1.3-2.7 1.3-4.1.3-5.7.1-11.5.3-17.2.4-2.4-4-2.8-3.4-.2.2 6.2-.4 12.4 0 18.6.1 1-.1 3.9 1.8 2.9zm-39.4 8.9c-2 .3-4.1.1-5.8-1.1-2.4-1.4-3.6-4.1-4-6.8-.8-2.7-1-5.5-1-8.2 0-3.6-.4-7.2-.3-10.8l1.5-11a9.7 9.7 0 0 1 6.5-6 10 10 0 0 1 7.5.8c1.4.8.8 2.6 1 3.8v9c-2.1 1.5-3.6-1.4-5.2-1.9-2-.4-4.2 1-4 3.2-.8 4.9 0 9.8 0 14.7.3 2 1.2 4.5 3.4 5 2 .3 3.2-1.8 4.5-3 2.3-.5 2.2 2.5 2.1 4l.3 5.9c-1.7 1.1-3.3 2.8-5.5 2.4zm-30.5.1c-1.7 0-5.1.7-4.9-2 .6-3 1.5-5.8 1.4-8.8l-.5-26.9c-.5-1.6-2.3-4.9.2-5.5 2.2.1 4.5-.4 6.7 0 2.2.7 1 2.9.6 4.4-.4 2.8-.2 5.7-.6 8.5-.2 1 0 3.2 1 1.4l2.4-5.1a7.1 7.1 0 0 0 1.1-5.9c-.6-1.1-1.8-3.3.4-3.6h7.7c1.3 2-1 4-.6 6.1v29.3c.1 1.8.6 3.5 1.3 5 1 2-.8 3.6-2.6 3l-6-.2c-2-1.2.5-3.5.1-5.2l.5-14.5c-2.2-.3-1.6 2.9-2.8 4-.7 1.9-1.6 3.7-2 5.7.1 2.7-.3 5.6 1.3 8 .5 2.8-3 2.4-4.7 2.3zm-80.5-.2c-1.6 0-3.5.6-4.7-.7-.6-1.2.3-2.5.5-3.8.6-2.3.1-4.7.3-7l-.2-18.4c-1.5-1.5-2.3 1.7-3.8 1.4-1.8-1.2-1-3.9-1.2-5.7l-.2-7.6c1.8-1.5 4.3-.6 6.4-.9h9.3c2 .9 1.2 3.3 1.3 5l.1 8.5c-1.8 1.8-3.3-3-4.8-1-.7 1.8.3 3.6 0 5.3a621.3 621.3 0 0 0 .4 19.4c.3 1.7 2.5 4.3.2 5.4-1.2.3-2.4 0-3.6.1zm67.5.7c-2-.1-5 .8-5.7-1.7-.3-2 1.8-3.2 2.2-5 .7-3 0-6 .6-9 .4-1.3-.7-2.3-2-2h-6c-2-1.2-2.3-3.8-2.6-5.9-.3-3.7-.3-7.5-.5-11.2 0-1.7 0-3.4-1-5-1-1.5-.1-4.3 2.1-3.7 2.2.4 4.4 0 6.5.4 1.2 1.5-.2 3.8.2 5.6l-.1 9c.9 2.4 4 .2 3.2-1.8 0-2.6.2-5.2 0-7.9-.2-1.7-2.4-3.8-.5-5.2 2-1 4.3 0 6.5-.3 1.9-.4 3.8 1.2 2 2.8-1 1.2-.6 2.8-.7 4.3v28.7l1.4 7c-1.5 1.4-3.7.6-5.6.9zm-44.2-.2a213.1 213.1 0 0 1 -11.3-.3c-2-1.3-.4-3.7 0-5.4.3-2.6-.1-5.2 0-7.8l-.5-25c-.5-1.5-1.7-4.4.9-4.5h6.2l7.6-.1c2.1.9 1.6 3.5 1.5 5.4l-.2 8.5c-2.5.7-3.3-2.5-5.2-3-1.9-.7-5 1.3-3.4 3.4.9 2 3.3 1.1 5 1.3 1.9-.3 4.4.5 4.1 2.8.3 2.3-2.3 2.7-4 2.5-1.5.2-3.6-.1-4.8.4v13c.1 1.3 1.7 1.1 2.8 1h2c1-1.1 2.8-3.7 4.4-1.8.8 1.5.2 3.2.3 4.8v3.5c-1.1 2-3.6 1.1-5.4 1.3zm-51.4.4c-1.7.2-5.2 1-4.8-1.8 1-2 1.2-4 1-6.1 0-8.9.4-17.7-.1-26.6-.2-2.7-.6-5.5-1-8.3 1.7-1.8 4.6.7 6.7-.4 2.4-.5-1.4-.2-2.2-1-1.8-.8-2.9-3.4-1.5-5 2-1.8 4.7.1 7-.2 2.4-.3 5-1.1 7.3 0 2.5 1.7.1 4.8-2.1 5.3-.6.3-4 1-1.6.9 2.4.4 5.1-1.1 7.2.6.2 2.2-1.5 4.2-1 6.4l.2 28.8c-.2 2.2 1.8 4.8.7 6.7-2 1.1-4.4.3-6.6.7-2.3.8-2-1.5-1.7-3 .4-5.1.5-10.3.8-15.4 0-1.1-1.1-2.5-1.3-.6-1.1 2.6-2.2 5.2-3.5 7.7 0 2.8-.6 6 .9 8.6 1 2.4-1.8 3-3.6 2.7zm3.5-28.4c1.8-2.1 2.6-4.8 3.9-7.3.5-2.2 0-4.5-.4-6.8-.7-1.3-3.8-1-2.6 1-.1 2.1-1.6 4-1.3 6.3v7c.1 0 .3 0 .4-.2zm2-17.8c2 .5 2.6-2.1.5-2.4-1.9-.3-3.3 2.9-.4 2.4zm-30.2 46.4h-4.3c-1-2.1.5-4.3.5-6.5 1.8-10.5 2-21.2 3-31.7.4-1.7-.5-4.1 1.3-5.1 2.5-1.3 5.3 0 8-.4 1.7-.3 3.7.6 3.7 2.6l1.1 12c.7 7.5 1.4 15 2.7 22.4l1.5 5.8c-1.8 1.4-4.1.4-6.1.8-1.6.6-4.5.2-3.3-2.1 1.2-1.7.7-4.4-1.6-4.6-2.5 0-3.2 2.9-2 4.6 1 3-2.7 2-4.4 2.2zm6.2-14c2.5-.1.8-3.5 1.2-5-.3-3.7-.4-7.4-1-11-1.2-1.7-1.8 1.8-1.6 2.7 0 4.2-.4 8.4-.4 12.6.2.8 1 1.2 1.8.8zm-47.9 15c-3.3.8-6.7-1.5-7.7-4.7-.8-1.6-1.1-3.5-.9-5.3v-9.8h-3.7c.4 4.7.2 9.5.9 14.2.6 1.6 2 4.8-.6 5.3h-8c-1.1-2.4.6-4.8.7-7.2.5-3.2 0-6.4.1-9.6l-.4-21.8c-.4-1.6-2.2-4.5.4-5h5.6c2-.7 3.6 1.2 2.3 3-1.5 2.9-.5 6.2-.9 9.2-.5 2.4 3.2 2.9 3.2.4.6-2.4.1-4.9.5-7.3.6-1.9 1.6-3.9 3.5-4.8 1.5-1.5 3.7-1.6 5.7-1.5 3 .5 5.7 2.4 6.7 5.2 1.4 2.6.8 5.6 1 8.3l.5 21c-.6 2.5-.6 5.3-2.4 7.4-1.3 2.1-3.8 3.1-6.2 3h-.5zm.2-8.8c2.5 0 1.6-3.4 1.8-5l-.5-18c-.9-2.4-4-.5-3.6 1.6-.2 2.1.1 4.3 0 6.4l.4 13.8c.2.8 1 1.4 2 1.2zm-40.3 8.9c-1.3.2-3.8.1-3.6-1.7l.2-12.5c.8-1 1.8-.2 2.5-.4.6-5.6.3-11.3.5-17-.1-2.2.3-4.5-.4-6.7-.2-1.9-2.2-4.3.1-5.6 1.5-.3 3.2 0 4.7-.1h11.8c1.9 1 .2 3.2 0 4.9-.5 2.2-.1 4.6-.2 7l.4 26.9c.2 1.2 1.9 2.7.9 3.8-.4 1-1.4.9-2.2.8h-6c-1.3-.6-2.1-1.4-1-2.8.6-1.2.8-2.6.7-4v-24.6c-.5-2-2.2-.2-1.7 1-.3 8.3-.5 16.5-1.1 24.7-.4 1.4 0 3.2-1.3 4.1-1.1 1.3-2 2.8-4 2.2h-.2zm-18.4.1h-6.6c-1.2-2 .1-4.3.4-6.4.5-3 0-6 .2-9l-.1-17.7-1.5-9.5c0-1.7 1.6-1.5 2.8-1.4h13.7c1.4 1.6.6 3.9.8 5.8l.1 5.9c-.2 2.2-2.7 2-3.4.2-.6-1-1.4-2.2-2.8-2-.7.1-1.7-.3-2 .6-1.2 1.2-.4 3-.5 4.4 0 1.5 2.2.6 3.3 1 1.3.3 3-.2 4 .7.9 1.2 2.7 2 2.8 3.6v18.5c-.7 1.4-1 3.4-2.6 4-1 .8-2.1 1.4-3.4 1.3zm2.9-8.6c1.7.3 1.3-1.6 1.3-2.7v-7.5c-1.5-.8-3.8 0-3.2 2 0 2.5-.3 5 .2 7.3.1 1 1 1.2 1.7.9zm-20.8 8.8c-3 .8-6-1-7.2-3.7a9.4 9.4 0 0 1 -1.6-5.9v-27c.1-2 1.5-3.8 2.8-5.3 2.1-2 5.4-2.2 8-1.3 2.1 1 2.9 3.4 4.4 5 1.2 2 .6 4.6.9 6.9a177.2 177.2 0 0 1 0 24.5c-.8 1.8-1 4.1-3 5.1a5.5 5.5 0 0 1 -4.3 1.8zm-.4-9.2c1.7-.7 1.2-2.8 1-4.2.2-5.8 0-11.6 0-17.4-1.9-2-3.4 1.5-2.8 3.2l.3 17c.4.5.6 1.5 1.5 1.3zm-16.6 10.4c-2.8 0-5.5-1.2-7.5-3a17.7 17.7 0 0 1 -4.4-7.8c-1.2-3.2-2-6.5-1.9-10 .2-2.8 0-5.7 0-8.5a71.2 71.2 0 0 1 1.8-9.2c1.4-3.4 4.4-6.7 8.3-7a7 7 0 0 1 7.2 4 10 10 0 0 1 1.3 6.6c0 2.6-.3 5.8-2.8 7.3a6.4 6.4 0 0 1 -5.7.3c-1.9-1-1.2-3.4.7-3.8.8-1.7-1.9-2-2.2-.3-1.4 2.6-.6 5.6-.4 8.3.3 3 .5 5.9 1.5 8.6.7 2 2.9 4.4 5 3 1.5-1.2 4-.8 3.5 1.5l.4 8.6c-1.6.5-3 1.7-4.8 1.4zm107.1 2.6c-2.3-1-1.8-3.7-1.5-5.6-.3-2 0-4 1.8-5.1.6-1.9.7-4 1-5.9l1-18.5c0-3-.3-5.8-.6-8.8-.5-1.3-1.6-3.9.6-4.3l16-.1c2 1.5-.2 4-.2 6-.2 3 0 6.1 0 9.2l.1 21.7c.9 1 2.8 1.7 2.6 3.4v6.3c-1 1.9-3.8 1.4-4.1-.7-.7-1.9-2.7-2.7-4.5-2.7-2.5.2-5-.2-7.3.3-2.3.7-2 4.1-4.4 4.7h-.5zm9.4-13.1c2.4-.7.5-4 1.2-5.7l.1-17.5c-.3-1.6-2-1.2-1.9.3-.2 2.4.1 4.8-.1 7.1-.2 4.7-.7 9.4-1 14 0 1 .5 2.5 1.7 1.8z"/>
</svg>
