<?xml version="1.0" encoding="utf-8"?>
<svg xmlns="http://www.w3.org/2000/svg" viewBox="0 0 1212 1220">
	<path d="m160 1205.4-4.5-.3-9.8-1.2-9.7-1.1-.6-1-.5-.8h-7.4l-8-2.9-8-2.9-8.2-4-8.1-4-2.8-2-2.7-2.2-4-1.2-4-1.2-1-1.8-1.2-1.8h-1.5l-13.5-13.6-13.5-13.6v-2l-1.4-1.2-1.5-1.1-3.6-6.9-3.6-6.9-1.3-1.3-1.4-1.3-.7-3.8-.7-3.7-1.7-2.6-1.8-2.5-.6-1.8-.6-1.7h-2.1v-3h1.8l.6-2.4.6-2.4.6-1.6.6-1.6h-3.1l-1.3 2.2-1.2 2.3-.9-4.5-.8-4.5v-3l.1-3-1-4.5-1-4.5-.3-18.2-.3-18.2 1.2-2.3 1.3-2.3v-3.7l.1-3.7 1.3-1.2 1.2-1.2-.3-3.8-.4-3.9h2l.7-2.3.8-2.2.7-2.5.8-2.5 1.3-3.5 1.2-3.5 2.3-5.2 2.3-5.1 1.3-.9 1.3-.8 2.8-4 2.7-4.1v-2l3.6-3.5 3.5-3.4 3.5-5.2 3.4-5.1 3.2-2.6 3.3-2.6 2.5-2 2.5-2 4.8-4 4.8-4h1.9l1.4-1.4 1.4-1.4 8.1-4.1 8.2-4.1h2.2l2.5-2 2.6-2h4.2l1-1 1-1 9.4-1.9 9.5-2 2.6-1 2.6-1 17.6-1.1 17.7-1.3 1.4 1.2 1.5 1.2 4.8.4 4.8.3 6.4 1 6.4 1.1 5 2.5 4.9 2.6h3.3l2.2 1.3 2.2 1.2 4 2.2 4 2.2 1.8 1 1.8 1 3.4 1.2 3.3 1.2 4.2 3.4 4.1 3.3 1 .9 1.1.8 2.2 1.2 2.2 1.2v2.8l2.3 1.2 2.2 1.2 2.2 2.4 2.2 2.3 3 .6 3.1.7.6 2.6.6 2.6.4 1.5.4 1.5 3 3.3 3 3.3v2l2-1.1 2-1v-5.8l-.6-1.6-.6-1.6h-1.8v3.7l-.6.6-.6.6-1.4-.6-1.4-.5v-5.4l1.3-1.8 1.3-1.7 5 .3 4.9.3-.3 3.2-.3 3.3h4l1.5 1.6 1.6 1.5v4.6l-1.8 1.6-1.8 1.7-3.7.2-3.7.3.6 1.8.6 1.9 2 4.3 1.9 4.4 1 .6.9.6v3l1.8 2 1.8 1.9 2.3 7.7 2.3 7.8 1.3 2 1.2 2 1.3 8.8 1.2 8.7 1 .6.8.5-.6 5-.7 5 2.8-.3 2.8-.3 1.1-2 1.1-2 1-.7 1-.8h3.3l3.1 5.5 3.1 5.5h2l1.9 2.1 2 2.1 1.6 5 1.6 5-1.8 1.4-1.8 1.3h-.7l-.7.1-3.5-3-3.5-3.1-1.1-3.4-1.2-3.5h-4.8v-1.8l-3.4-2.1-3.3-2.1h-2l.8 4 1 4-1 1.8-.8 1.7-.1 7.3-.2 7.2h1.7l3-1.5 3-1.5 3-.6 3-.6 2.3 2.2 2.1 2.1-.7 3.2-.7 3.2-3.4 7.8-3.4 7.8.4 6 .4 6 1.1 1.1 1.2 1.2v6.2l-1.6 5-1.7 4.9-2 2.2-2 2.3.7.7.6.7 5-5.3 5-5.3v-1.8h3v2.8l-2.2 2.7-2.3 2.8-6.7 7-6.6 6.9-2.4-.4-2.3-.3.2-3.4.1-3.4 1-.6.8-.6 2.5-4 2.4-4 1.6-4.2 1.7-4.2-1.6-6.3-1.5-6.3v-9l2.8-6 2.7-6 .9-2 .8-2 .3-2 .3-2-1.7-.3-1.7-.3-4.4 3-4.4 3-1.8 2.7-1.8 2.7-1.3 5-1.3 5 1.2 1.9 1.2 2-3.4 3-3.4 3-.5 4.3-.4 4.2 1 .7 1.2.7v4.9h-2.9l-.3-2.7-.3-2.8-3 4.4-3 4.4-2.3 4.1-2.2 4.1-2 1.6-1.8 1.6-3.2 5.1-3.2 5.2h-1.6l-.5 2-.5 2-2.5 1-2.4.9-2.4 3-2.4 3-6.2 4.8-6.2 4.8-4.4 3.3-4.4 3.2-10.9 5.4-10.9 5.4-6.5 2-6.5 2-7 1.2-6.9 1.1-1.5.9-1.6.8-10 .5-10 .5-4.5-.4zm27.5-11 9-1.5 4.3-1.4 4.3-1.5 4-2 3.8-2h3.3l4.2-2.2 4.1-2.2 7-4 7-4 4-3.2 4-3.2 2.3-2 2.2-2v-1.6l3.5-2.3 3.5-2.2 3-4.3 3.1-4.2 1.6-3.3 1.6-3.4 2.3-1 2.4-1.1.6-2 .6-1.9-.6-.5-.6-.6-2 2.4-2 2.4-1.8 2-2 2-.8 1.7-.9 1.6-6 6.4-6 6.3-6 5-6 5.1-5 3.3-5 3.2-13 6.4-13 6.3-4.5.5-4.5.6-7 1-7 1.2-8.9.8-8.8.8-11.2-1.2-11.1-1.3-3.5-1.1-3.5-1.1h-4.7l1.2 1.5 1.2 1.5h4l2 1.1 2.2 1.2 8.6 1.3 8.5 1.2 11.5-.4 11.5-.5 9-1.5zm-61.5-5.3v-.9l-3.3-1.5-3.2-1.5-5.5-1.8-5.5-1.9-.5-.7-.5-.7-7.6-3.9-7.6-3.8-5.2-3.8-5.1-3.8v-2l-1 .7-.9.6-1-2-1.2-2.1h-2l1.7 3 1.8 3 3.1 1.4 3.1 1.5 1.9 2 1.8 2.1h2.7l2 2 2 2 6.5 3.5 6.4 3.5h3l1.3 1.2 1.3 1.3 4.5 1.6 4.5 1.7h1.3l1.2.2zm49.5 0v-.2l6.5-.4 6.5-.4 13.8-4.6 13.8-4.5 6.7-4 6.7-3.9 4-2.5 4.2-2.5 4.4-3.8 4.3-3.8 7.4-7.5 7.5-7.5 6.2-9.5 6.2-9.5 1.4-4 1.3-4 1.6-2.5 1.7-2.5 1-3 1-3 1.7-5.5 1.6-5.5 1.1-6 1.1-6 .4-6.4.4-6.4-1-13.6-1-13.6-1.5-5.5-1.5-5.5-1.2-4-1.2-4-.6-1-.7-1-1.3-4-1.3-4-2-3.5-2-3.5-3.4-6.2-3.4-6.1-2.7-2.7-2.7-2.7-3.3.6-3.4.5.6-4.2.7-4.3-2.6-2.4-2.5-2.3-.4.4-.3.4-.6 5.2-.6 5.2 1 .6.9.6v3.9h-1.8l-6.4 6-6.3 6h-2.5v-2.9l2.2-1.5 2.2-1.6.2-2.7.1-2.8.2-1.3.1-1.3 2 1.1 2.2 1.2 1.4-.6 1.4-.5v-1.9l-3.3-.6-3.2-.7-3.3 3.7-3.2 3.7h-6.3l-1.3-1.8-1.3-1.8 1-1.8 1-1.9-7.3-.2-7.3-.2-5 .2-5 .2-1.5-1-1.4-.9 1.7-1.9 1.7-1.9v-2.3h-5.7l-2.1-2.3-2.2-2.3-.1-5.8-.2-5.8 1-.7 1-.6 3-5.5 3-5.5 3.5-.3 3.6-.3 1.6 1.6 1.6 1.6v4.5l-2 4.3-2.1 4.2.3 1.7.3 1.7 3-.3 3-.4 1.5-1.4 1.4-1.4h-5.4l.3-2.3.3-2.2 4 .2 3.9.3.7 1.2.8 1.3-.6 2.2-.5 2.3h7l1.2-1.5 1.2-1.5h2.8l.2 1.7.1 1.8.3 4.3.3 4.2-3 1.5-2.9 1.5v2l1.6.7 1.5.6 3-2.8 2.8-2.8.6-2.7.6-2.8 1.7-1.5 1.7-1.6 2.4-.9 2.4-.8-7.3-5-7.2-4.9-4.7-2.7-4.6-2.7-6-2.4-6-2.5-5.4-1.6-5.3-1.6h-7.9v3.8l-3.6 12.8-3.5 12.9-1.5 3.3-1.4 3.3v1.7l4.8 1.2 4.7 1.1 3 1.4 3 1.3 5.6 2.5 5.5 2.5 4 2.6 3.9 2.6 1.3 1 1.2 1.1 3 1 3 1v4l3 1.7 3 1.7v2.4l1.3 1.3 1.4 1.3 4.1 6.6 4.2 6.6v2.2l1.3 1.3 1.2 1.3 2.3 7.7 2.2 7.8v4.9l.8.5.8.5-.2 12.4-.3 12.5-1.5 3.7-1.6 3.7v4.3l-5.8 10.1-5.7 10.1-3 3.8-3 3.8-6 6.1-6 6.1-3.5 2-3.4 2-2.6 1.7-2.5 1.8-2 .9-2 1-7.3 2.1-7.2 2.3-.6.9-.6 1-3.8-.7-3.7-.6-3.7 1.5-3.6 1.5-.5-1-.6-.9h-11.4l-7-1.4-7-1.4-7.4-2.6-7.5-2.5-5.5-3.8-5.5-3.8-3.8-3.2-3.8-3.2-2-.6-1.9-.6-2-3.2-2-3.2-2-2.8-1.9-2.8-2.1-1.5-2.1-1.5.6-1 .6-1-3.4-6.6-3.3-6.5-2-.9-2-.8h1.2l1.3-.1v-5.9l-1-.6-1-.6.5-1 .6-.9-1-1.8-1-1.9-.3-8.7-.3-8.8-2-1.5-2-1.5 1.2-.5 1.3-.5v-2.6l1-.4 1.1-.3.3-1.5.3-1.5.6-1.5.5-1.5 2.2-8.3 2.1-8.4 3.6-4.6 3.5-4.6 1.5-3.8 1.5-3.8h1.6l1.1-2.8 1.2-2.8 2.5-1.8 2.5-2 2.3-2 2.4-2.1 4.9-3.3 4.8-3.3 4.5-3 4.5-2.9h3.5l4.3-2 4.2-1.8 4.5-.7 4.5-.7 2.5-.2 2.5-.3 4-.2 4-.1 3.2-6.8 3.2-6.7v-7.4l.2-7.3-1.6-1.9-1.7-1.8 3.8-1 3.8-1 .9.8.8.8-1 2.7-1.1 2.8.6.9.5.9h3.4l3.3-5.9 3.2-5.9v-1.8l-7.6-1.4-7.6-1.3-14.7 1-14.6 1.1-6.5 1.7-6.5 1.6-2 .9-2 .8-6.6 2.5-6.6 2.6-3.4 2-3.4 2-3 1.7-3 1.6-5.5 4.1-5.5 4-3.3 3-3.2 3v1.5l2.6 3.1 2.6 3.1-.6 1.7-.7 1.6-1.1-1.1-1.2-1.2h-2.6v2.8l5.2 5.1 5.2 5.1h3.6v-1.6l-1.1-1.1-1.1-1.1.6-1.1.7-1.1h3l1.6 1.5 1.5 1.6-.6 2.2-.6 2.2-1.5 2-1.5 1.8-3.7-1.1-3.8-1.1-5-5-5.1-5-1.1-2.3-1.1-2.3-.6-1.8-.6-1.9-3.9 5.4-3.9 5.3-2 2.1-2.2 2.1v2.3h-2l-3 6.5-3.1 6.5.6 2 .6 2h-3l-2 4.6-2.1 4.7 1.1 1.3 1.1 1.4-2 1.7-2 1.8-2.1 11-2.1 11.2v4.9l1.2 1.2 1.3 1.3-1.1.7-1 .7-.7 2.4-.6 2.3 1 11.7 1 11.6 1.8 6 2 6 2.2 6 2.3 6 .7.5.6.5.7 3.8.7 3.7 3 3 2.9 3v3h3.9l.7 1.1.7 1.1-1.3.8-1.2.7 1.2 2.4 1.3 2.3 1 1.3 1.2 1.4 4.2 4.5 4.1 4.4h2.2v3h2.8l.5 1.3.5 1.4 5.7 3.9 5.7 3.9 4.1 2.7 4.2 2.7 6.5 3.6 6.5 3.5 7.2 3 7.3 2.9 10.2 2 10.3 2 3 .4 3 .3 10-.2 10-.2v-.2zm-30.6-8.9-.1-1.7.2-2.5.2-2.5 1-1.8.9-1.7h2.9v-8.8l1.5-1.2 1.5-1.3.8.7.7.8v4.1l.2 4.2-1.1.8-1.1.7 1.6 1.3 1.5 1.2.7 1.8.7 1.8-1.5 3-1.6 2.9h-8.9zm15.1-.3v-1l1.1-7 1.2-6.9-1.2-1.4-1.2-1.4 1.5-.5 1.4-.6-.4-4-.4-4.1h2l2.5 1.2 2.5 1.1v4.6l-1 2.4-.9 2.5 1.5 7.2 1.5 7.3-1 1-1 1-1-.7-1.1-.7v-3.9h-1.8l-.6 2.5-.6 2.5h-3zm-24.6-3.5-1.7-2.6 1.1-4.6 1.2-4.7.6-4.2.6-4.3 1.2-1 1.2-1 3.4 1.8 3.4 1.7 1 1.7 1 1.6-2.8 3.7-2.8 3.6-2.4 1.1-2.4 1.1v3.7h2v-2h3v4.1l-1.4 1.5-1.5 1.4h-3.1zm40.2 1.8-.5-.8-1-6.4-1-6.3-1.7-1.8-1.6-1.8.4-1.7.3-1.8h5.5l5.5-.1.8 4 .8 4 1.5 5.1 1.4 5.2-.6 1.6-.6 1.7-1-.4-1.1-.3-1.8-5.5-1.8-5.4v-1.7l-.1-1.8h-2l.7 4.8.7 4.7v2.4l.1 2.4-1.2.4-1.1.4zm14.7-1.4-2.2-1 .6-3.2.6-3.1 1.4-.8 1.3-.8v-4.4l-.9-1.4-.8-1.3-.7 1-.7 1.2h1.3l-1.2 1.5-1.2 1.5h-1.6l-.6-2.4-.6-2.5 1-2.5 1-2.6h3.7l2.2 2 2.3 1.9 1.4 4.7 1.4 4.7v6.6l-2 1-1.9 1.1h-.8l-.8-.1zm-66-2.4-3.1-1.3-.7-1-.6-1.1 1.1-3.6 1.2-3.6 2.3.6 2.4.6.6-5.5.7-5.5 2.5-.6 2.4-.7 1.2 1.2 1.2 1.2-1 .7-1 .7-2 3.8-2 3.8 1.8 1 1.8 1-.6 3.2-.6 3.2-.5 1.8-.5 1.7h-1.7l-1.7-.2zm76-7.1-2.5-5.8-1.5-3.3-1.6-3.3.4-.3.4-.4 2.3-.6 2.2-.7v5.9l1.7 1.3 1.6 1.4-.7-3-.7-3-.5-1.7-.5-1.6 3-2.1 3-2.1h4l.6-2 .6-1.9 2.2-.7 2.1-.7 1.4 2.2 1.4 2.1h1.8v-3l-1.2-2-1.2-2 .6-.5.6-.6 2.1 1.3 2.1 1.3.6 1.7.5 1.6 2.9 2.9 2.9 2.8 1 2.8 1 2.8-1.6.6-1.7.7-.4-1.2-.4-1.2-.9.5-.8.6.6 3 .6 3-2.4-.3-2.4-.3.3-1.8.3-1.8-1.1-1.4-1.2-1.4.6-1 .7-1-3-1.5-3-1.6-.3-1.2-.4-1.2-1.2.8-1.2.7v3.2l1.7 1.9 1.6 1.8h-4.1l-1.7.6-1.7.7.2-1.4.2-1.4v-1.8l-.2-1.7h-3.8l-.5 2-.6 2.2 1.4 4.5 1.4 4.5 1.7 1.9 1.7 1.8-1.7 2.6-1.6 2.5h-5zm-98-9.7-.5-1.5.4-2.2.3-2.2 2.7-2 2.7-2 2.5 1.7 2.6 1.6v2.5l-3.7 2.8-3.6 2.7h-2.8l-.5-1.4zm-24.3-7.9v-1.3l1.5-2.1 1.6-2.2-5 .6-5.1.6v-2.3l4.6-2.9 4.6-2.8 5.8-5.7 5.8-5.7 3 3 3 3.1h3.1l.6 1 .6 1-1.6 3-1.6 3h-4l-6.6 5.5-6.7 5.5h-3.6zm16-14.6v-1l-1-.6-1.1-.7-.6.5-.5.6.7 1 .6 1.1h1.9zm141 14v-2l-1.2-.3-1.2-.4.7-1.8.7-1.9 1.8 1.7 1.9 1.6h1.3v-2.7l-4.2-4.1-4.2-4.2h-1.6v1.9l1 .6 1 .6v3l-1.6-.3-1.7-.3-1-1.6-1-1.6.7-2.7.7-2.7 1.4-.5 1.4-.6 3.3 2.4 3.3 2.3 2.2 2.5 2.3 2.5 1 3.2 1.1 3.2-1 2-1.2 2.1h-5.9zm-32.5-3.1.6-1h1.9v2h-3.1zm40.5-4.3v-1.3l-2-1.6-1.9-1.7.6-2 .5-2.1-3-.6-3.1-.6-1.6-2.4-1.5-2.3v-1.1h4.7l3 2.2 2.8 2.2.7 1 .7 1.1 1.6-2.1 1.5-2.2 3.5 3.2 3.5 3.2v2.5l-3.2 3-3.2 2.9h-3.6zm-174-10.2-1.2-1.5.6-2.2.6-2.3 5.5-4 5.4-4v-.8l.1-.7h-1.6l-5.7 3-5.8 3h-2.7l-2.2-1.8-2.3-1.8 1.4-2.1 1.3-2.2 2.3-1 2.2-1 .7 1 .6 1-1.2 1.4-1.2 1.5h3.2l4.5-2.6 4.4-2.6v-1.6l-3-.7-3.2-.7.6-2.3.6-2.2-4.3 2-4.2 2-1.8 1.5-1.7 1.5-2-1.8-2-1.8v-1.3l3.3-1 3.2-.9v-2l-3.5.3-3.5.2-1.4-.9-1.3-.8 1.1-2.2 1.2-2.1h4.8l.5 1.3.4 1.2 3.7-2 3.6-1.8v-1.5l-7.4.5-7.3.6-2.2-2.2-2.2-2.2 1.1-1.4 1.2-1.4 5.4-2 5.5-2.1h8.5l2.2 2 2.2 2.1-.7 1.2-.7 1.1.2 3.1.2 3.1-3.5 1.7-3.5 1.7v2h2.8l.6-1.6.6-1.5 2.2.3 2.3.3v5.5l3.3 2.3 3.2 2.2-.6 3.3-.6 3.2h4.2l1.6 2.5 1.7 2.6-1.4 2.6-1.4 2.5-2.3.9-2.3.9-3.7 2.5-3.7 2.5h-4.3zm12-7.2 1.4-1.3h-3.4l-3.5 2.6-3.4 2.6v2l3.8-2.3 3.7-2.2zm-17-34.2 5.4-1.8-2.7-.7-2.7-.6-3 1.5-2.9 1.5h-3.1v2h3.5zm185.7 35.5-4.7-3.4-3-1.2-3-1.3.6-2 .7-2.2 1.4-.8 1.4-.8-.6-2-.6-1.9h1.9l.6-1.8.5-1.7 1-1.5.8-1.5 1.1-2.2 1.2-2.3v-3h4v-1.8l-1.5-1.2-1.5-1.2v-2.8h4.9l4.3 2.9 4.3 2.8 4.2 2.7 4.2 2.6-.5 1.5-.6 1.5-2.3.6-2.4.6-5.4-1.6-5.5-1.6h-4.2v2.7l1.8 1.6 1.8 1.6 4.4 2 4.5 2 1.2 2 1.2 1.9-1.5 2-1.5 2.2h-3.4l-5-2.5-5-2.4-.3.4-.4.4 1.5 1.5 1.5 1.5 2.6.7 2.7.6 1 1.8.9 1.9v4.9l-1.6.6-1.6.6h-1.3zm5.5-2.8-1.2-1.2-.7.8-.7.7 1.4.9 1.4.9.5-.5.5-.4zm3.7-9.2-.5-.5-3.7-2.5-3.8-2.6h-1.7l-.5 1.2-.4 1.3 4.6 1.6 4.6 1.7h1l.8.2zm-.4-25.6-3-1.9-1.3-1-1.2-1.2v-4.8l2.1-1.2 2.2-1.1 4.4.6 4.5.6 4.4 2 4.4 1.9v7.1h-9.5l-2 .5-2 .4zm13-3 .7-1.1-.5-.6-.5-.5-3.9-.8-3.8-1-2.3.7-2.2.5v2.6l1.2.5 1.3.5 4.7.1 4.7.1zm-204-3.1-.8-1.2-7.8.6-7.8.5-1.1-1.3-1.1-1.4 1.2-2.3 1.2-2.3 1.5-1.8 1.5-1.7h3.1l3.1-.2-5-1.7-4.8-1.7-1.5-2.3-1.5-2.2 1.4-1.4 1.4-1.3 2-.2 2-.2 2 .1 2 .1 1.4 1 1.5.8-1.3 1.5-1.2 1.5 1 .6 1 .7 2.6-.7 2.5-.6v-.8l-1.2-2-1.2-2 1-1 1-1 2.6 1.2 2.6 1.3 1.1 1.8 1.1 1.7-1 2-1 1.8-3.2 1.1-3.3 1.2 2 1.4 2 1.4 1.3 1.1 1.2 1v4.8l-.6 1.6-.6 1.6h-1.8zm-2.3-7.5-1-1.7-.7 1.3-.8 1.2 1.4.9 1.3.8.4-.4.4-.4zm207.8-1.4-1.5-1 1.5-1 1.5-1h4.5v-2.8l-3.1-1.1-3.2-1.1h-12.7v3.9l1.5.8 1.4.8-.8 1.4-.9 1.4-2.6-2-2.5-1.8v-2.7l-.1-2.8h-4v-1.8l8.5-.7 8.5-.7 4.6 1.1 4.6 1.2 2.3 1.5 2.3 1.5.4 2.3.5 2.4-1 1.6-.8 1.6h-7.4zm-206.5-17-2-.7-6.3-.8-6.3-.7.4-1.2.4-1.1 2.6-.3 2.7-.3v-1.7l-3.5-1.2-3.5-1.2v-1.4l1.2-1.2 1.2-1.2h6.7l.5 1.5.6 1.5h10l-.4-1.2-.4-1.2-2.5-.7-2.4-.8-5.8-1.6-5.7-1.6v-2.9h5.3l-2.7-2.7-2.7-2.6.9-.9.8-.8 5 1 4.9 1 4.5.7 4.4.6 2 1.9 2 1.8-1.2 1.2-1.2 1.2-5-1.8-5-1.8-1 .4-1.1.3 5.6 2.8 5.5 2.9v1.6l-1.7.6-1.6.7 1.1 1.1 1.2 1.2v2.5l-2 1.1-2 1-1.8-.9-1.8-1-1.3.9-1.3.8 3.6 1.2 3.6 1.1.6 1 .7 1.1-1.4.9-1.4.9h-.5l-.5-.1-2-.8zm194.8.3-5.2-.4.2-4 .1-3.8 1-.4 1.1-.4 7.5.3 7.5.3h1.2l1.3.1v2l-2.8 1.1-2.7 1.1 2.2.9 2.3.8v3.1l-4.3-.2-4.2-.2zm-8.1-14.2-1.3-.8.3-3.4.3-3.4 4.8-1.6 4.8-1.6 1.1-1.1 1.2-1.2h4.6v-1.8l-1.2-.4-1.2-.4-2.5 1.2-2.5 1.3-.4-.4-.5-.5 1.3-1.5 1.4-1.6 3-1.6 3-1.5 1.7 2.3 1.9 2.4v4.6l-3 .6-3.1.6-1.9 3.6-1.8 3.7-2.4 1.1-2.3 1.2-2 .5-2 .6zm-180.8-14.3-3.7-3.3h-9.2l-.3-1.8-.3-1.7h5.1v-1.8l-1.5-.6-1.5-.5v-3.2l1.5-.5 1.4-.6 2.3 2.6 2.3 2.5 7 1.4 7 1.4v2.8l-2.8.3-2.7.3v1.8l1 .6 1 .6v2.9h-2.9zm175.6-.7v-.9l1.5-1.2 1.5-1.2v-1.6l-2-.5-2-.5v-2.2h6.9l2-2.2 2.1-2.2v-2.1l2.5-1.8 2.4-1.7.7 1.2.7 1.1-1.6 1.2-1.7 1.2v3.2l3.2-1 3.3-.9h1.5v4h-7l-2.2 1.3-2.2 1.2-3.3 3.3-3.3 3.2h-3zm-8-10.3v-1.3l3.2-2 3.2-2 .3-1.2.4-1.2-3.5.6-3.6.6v-2l2.2-2 2.3-1.9 4.7-3.2 4.6-3.2h2.2v3h-2v2l3.1-.7 3.1-.6-.3 1.5-.4 1.5-8.3 6.6-8.3 6.7h-2.9zm-160.3-4-3.8-2.3-.8 1.4-.8 1.3-3.8-1.8-3.7-1.7-.5-1.4-.6-1.4 2.3-2.5 2.3-2.4h2.3l1.1 1.1 1.1 1.1 4.5.3 4.5.3 3.6 2.7 3.6 2.7v2l-1.4 1.4-1.5 1.4h-4.6zm18-22-3.9-4.3-1.8-3.9-1.8-4 .4-1.1.5-1.2 2.5-1.4 2.5-1.3 6.5 6.9 6.4 6.8v3.3l-1.6 2.2-1.5 2.2h-4.1zm5.3-2.4v-.5l-1.1-2.2-1.1-2.2-2.1-2.3-2-2.2h-1.7v2.7l3.1 3.6 3.2 3.7h1.7zm6.7-3-.7-.7v-3.4l-2-2.4-2-2.3-2.2-3.4-2.1-3.5 2.4-1.8 2.4-1.9h1.6l2 1 1.9 1v2.9l1.9.6 1.8.5 1.7 3.9 1.8 3.8-.4 2.9-.3 2.9-3.5.3-3.6.3zm4.3-5.4v-1h-2.1l.6 1 .6 1h.9zm8.3-.6-1.2-.5.6-1.5.5-1.4-1.2-3-1.2-3h-3.5l-1.6-1.8-1.7-1.9v-5.3l2.8-1.1 2.7-1.1 2.9-.2 2.9-.1 1.1 3.3 1.2 3.4 2 1.6 2.2 1.7.7 2.5.8 2.5 1 .8 1.2.9-1.8-.6-1.7-.5v2.8l-2.2 1.5-2.2 1.6h-1.6l-1.5-.2zm5.7-7v-2.4l-1.5-.6-1.6-.5-.6.5-.5.6.6 2.6.6 2.5h3zm-5-8.4v-1h-.9l-.6 1-.6 1h2.1zm13.7 11.3-.5-.8-.7-3.8-.7-3.8-2.4-1-2.3-.8-1.1-4.2-1.1-4.2.9-.9 1-1 3.8.4 3.8.3.7 3.5.8 3.5-1 .3-.9.4v3.5l2.6 2.8 2.5 2.7-.3 1.7-.3 1.6-2.2.3-2.1.3zm7.1-5-1.1-2.8v-7.2l-.1-7.3 1-1 1-1 2.7 1 2.7 1v3.1l1.3.5 1.3.5.2 6 .2 6-1 2-1 1.9h-6l-1.2-2.8zm5.2-5v-2.8l-1-1.5-.9-1.4-.6.6-.6.6.6 3.6.7 3.6h1.8v-2.8zm7.7 6-2.8-1.5.7-1.6.8-1.7.4-5.9.4-5.9-1.3-.8-1.3-.7 1.3-1.6 1.3-1.6h5.4l1.9 1.4 1.8 1.3.1 4.9.1 4.9.8 1.2.8 1.2-1.6 3-1.5 3-2 1-1.9 1.1-.3-.1-.3-.1zm5.3-6.8v-1.5h-2v3h2zm-1-8v-1.5h-2v3h2zm-86 201.7v-.9l-2-1.8-2-1.9-1.1 1.1-1 1 2.2 1.7 2.3 1.6h1.6zm-6.5-7.1.5-1-2.5-2-2.5-1.9v-2.2h-4.1l1.3 1.8 1.3 1.8 2 2.1 2 2.1.7.1.7.1.6-1zm116-9.6 6-1.5 6.5-2.6 6.5-2.7 1.6-1.7 1.5-1.8 3-1.5 3.1-1.6 7.7-7.3 7.6-7.3v-1.7l2-2.5 2-2.6v-2.7l2-2 1.9-1.9 1.2-4.3 1.2-4.3 1.3-3 1.3-3.2.7-6.4.8-6.4-.1-9.5v-9.5l-2.3-7.5-2.3-7.5-.7-.5-.7-.5-.7-3.4-.6-3.5-1.6-1.7-1.6-1.7-1.6-3-1.7-3.1-3.5-4.3-3.5-4.2-4.5-4.4-4.5-4.4-2.7-1-2.8-1v-1.6l-4.2-2.2-4.3-2.3-6.2-2.3-6.2-2.4-3.2-.5-3-.6h-.7l-.7-.1h-1.1l-1.2.2-.6 3.3-.6 3.4-1.9 3.9-1.9 3.9-.6 2.2-.7 2.2 2.5.7 2.6.6v6.9l1.6-1.5 1.5-1.6h3.5l1.2 1.2 1.2 1.2v4.6l2.3-1.5 2.3-1.5 3 2.8 3 2.8 1-.3 1-.3 2.6 2.5 2.6 2.4-.5 2.3-.6 2.3 2-1.8 2-1.7h5.3l1.2 2.5 1.1 2.6-2.1 4-2.2 4v3l-1.5.5-1.4.6-3.6-1.2-3.5-1.2-1-1.9-1-1.9h-4.2l.4-1.8.5-1.9-2.3.5-2.4.4v-2.8h-2.7l-2.8.1-1-4.3-.9-4.2h-1.5l-1.5 2.1-1.5 2.2-1.5-.6-1.6-.6-1.2-2.6-1.1-2.5h-1.7l-2.4 1-2.4.8-1.2 6.4-1.1 6.3-.4 5.1-.4 5.2-.5 1-.6 1 2.2-.5 2.3-.5 1.4 1.7 1.4 1.7-1.1 2.9-1.1 2.9h1.8l.6-2.4.6-2.5 1.2-.4 1.3-.5 1.3.8 1.3.8-1.2 3.2-1.1 3.3v5.3l-1.2 1.2-1.2 1.2h-2.2l-2.1-2-2-1.9-4-.3-3.8-.3-.3-2.3-.3-2.2h-3.8v-2h-3.9l-.8-1.3-.8-1.2h-3l-.5-3-.5-3-.8 1.2-.8 1.3h-5.5l-1.9-1.4-1.8-1.3.7-1.8.6-1.8-1.3 1.1-1.4 1.2-3.1-1.2-3.2-1.2v-3.4l3.4-5 3.4-5.1.4-1.2.4-1.2 3.2 2.3 3.2 2.4v3.6h1.5l1.4-1 1.4-.8 2.4 1 2.3 1.1v6.1l1.2-1.2 1.2-1.2h5.1l1.3 2 1.3 2 1-.5.9-.6v-8.5l1.5-5.4 1.5-5.5.6-3.3.7-3.2-3.2.6-3.2.7-2-1.8-1.9-1.8v-2.8l3.8-5.2 3.9-5.2 2.5-1.4 2.6-1.3 2 1 2 1.1 2.6-6 2.7-6.2-.8-.8-.9-.9-3.2-.6-3.2-.6v6.2h-2.9l-.3-2.8-.3-2.7-3.5.1-3.5.1-5 1-5 1-2 1-2 1.1-6.9 2.8-6.8 2.8-.5 1.2-.5 1.3-3.1.6-3.2.7-3.3 3.4-3.2 3.4v2h-2.8l-2.6 3-2.6 3.2v2.3l-4.1 4.5-4 4.5-1.8 3.5-1.8 3.5-2.3 7.5-2.2 7.5-.9 1-.9 1.1.5 13.5.4 13.4 2 6.5 2 6.5 1.6 4.5 1.6 4.5 1.8 2 1.7 2 1.2 2.8 1.2 2.7h1.8l.6 2.3.6 2.4 4.8 4.4 4.9 4.4 6.1 4.8 6.1 4.7h2.2l7.7 3.6 7.6 3.6 6 1.3 6.1 1.4 11.5-.4 11.5-.4zm-5-20.5-.6-1h-4l-.5-1.4-.6-1.5 3.6-3.5 3.6-3.4v-7.2h1.1l2.3 1.5 2.3 1.5-.4 2.4-.5 2.4 1 1.8 1 1.8-1.3 2.6-1.4 2.6-2.5 1.2-2.5 1.1zm3.5-6.6v-1.5l-1 .6-1 .6v3l1-.6 1-.6zm-15.3 1-.7-.7v-3.7h1.5l1.8-3 1.7-3.2v-3l-2.3.6-2.2.6h-5.5v3.1l1.5.5 1.5.6v2.8h-3.1l-2-1-1.9-1v-5.5l2-2.5 2-2.5v-2.5h-2l-2 2.2-2 2.1-.6 1.9-.5 1.8h-2.7l-.5-1.3-.4-1.2 2.4-3.2 2.4-3.1-.7-2.6-.6-2.6h1.2l4.2 2.1 4.2 2.2.8 1.3.8 1.4h2.8l1.3 1.2 1.3 1.3 2.9 1 2.9 1 1 1.6 1 1.6-3.6 3.7-3.7 3.6-.6 2.5-.6 2.5h-2.5l-.6-.7zm-25.7-16.5-2.4-2 1.4-2.4 1.5-2.3 2.8-4 2.7-4.2h1.7l1.7 1.8 1.6 1.9-3 6.6-3.2 6.7h-2.3zm79.2-.4.5-2.5-2.5.7-2.5.6.6-1.7.7-1.8-3 .7-3.1.7.3-1.9.3-1.8-2.7.3-2.8.3-2-1.1-2-1v-2h2.7l1.4-2.8 1.4-2.7 2-3.2 2.2-3.1 1.3.8 1.4.8-1.2 1.4-1 1.4.8 1.4 1 1.5v5l2.3-3.7 2.2-3.8h2.6l.5 1.5.6 1.5h2.8v2h4v3.1l-3.2 6-3.3 5.9h-2.7zm-.2-11v-1.3l1.3-.5 1.2-.5-1.2-.1-1.2-.1-1.1 2-1 2h2v-1.4zm-85.1 5.8-.2-.8v-2.5l-.2-2.5-1.6-.3-1.6-.3-.6 2-.5 2.1h-4.2l1-2.5 1-2.5h-2l-.6 1-.6 1h-4.5l-1.5-3.4-1.6-3.4 4.3-4.6 4.2-4.6h4.2l.6 1.3.5 1.3-1.6 4.3-1.5 4.4v1.7h1.8l2-3.5 2.1-3.5h2l.7 2.6.6 2.5 2.2-2 2.2-2.1 2 1.4 1.8 1.4-3 3.8-2.9 3.9-1 2-1 1.8-1.3.5-1.2.4zm64-6v-.8l-2.6-1.3-2.7-1.2h-2.7l-.5-1.4-.5-1.4-1.9-.5-1.8-.5-1-1.8-1-1.9 4.3-5 4.3-4.8 3.5 1.7 3.6 1.7-.6 1.7-.6 1.7-2 2.8-2 2.8.8.7.6.7 3-3.4 2.9-3.4v-1.7h2.7l1.3 2.5 1.3 2.5-1.9 3.7-1.9 3.8-1.4 1.8-1.4 1.7h-1.7v-.8zm-87-5.8-1.2-1.6-1 1-1.1 1.1h-3.6v-3.2l2.8-3.7 2.9-3.6 2.7-4.8 2.8-4.7h2.9l.5 1.5.6 1.5h2.8v2.6l-3.5 5.8-3.5 5.8v1.6l-1.4 1-1.3 1.2zm115.1-.5v-2h1.8l1.6.6 1.6.6v2.8h-5zm-52.6-5.5-.6-1.5 1.2-1.5 1.2-1.4-.5-1.8-.4-1.8-1.4 3.3-1.3 3.2-1.8.6-1.8.5-1-.6-1-.6v-1.8l2-.6 2-.7 4-8.4 4.1-8.4h1.8l.6 1 .6 1-2 3.7-1.8 3.8-.8 2.5-.7 2.5 2.4-2.6 2.3-2.7 3.2-.6 3.2-.5.6 1.9.6 1.9-2.3 3.5-2.3 3.5-2.3 1.2-2.2 1.2v1.7h-5.1zm37.3-32.2-.7-.6v-3.7h2.8l1.2 1.5 1.2 1.4-.7 1-.6 1.1h-2.6zm-98.8-3.2-2.2-1.8 1.6-2.4 1.7-2.3v-1.6h-3.6l-1.7 2-1.7 2h-1.8l-1.1-1.4-1.2-1.4 1.3-2.8 1.3-2.9 3.3-5.3 3.3-5.2h2l3.4 1.5 3.5 1.4.6 3 .6 3 2 .6 1.8.6v2.8l-1.2 2.5-1.1 2.6-2.7 1.2-2.8 1.2.5 1.2.5 1.2-2 1.1-2 1zm2.2-13.1 1.9-1v-5h-2.3l-1.3 1.8-1.3 1.7v1.8l-.1 1.7h1.1zm-58.4 110.5-1.5-1-4.6-9.8-4.6-9.8-.6-2.4-.6-2.5h-2.8v2l1 1.8 1 1.7 2.4 5.5 2.4 5.6 1.5 1.3 1.6 1.3 1.2 3.6 1.1 3.7 1.6 1.3 1.7 1.3.4-1.2.4-1.2zm219.7-7.6 2.6-2v-2.6l3-5.6 3-5.7v-2h-2.6l-4.4 9.3-4.4 9.2-1 .7-1.1.8h2.2l2.7-2zm-234.1-21-.6-2-.5.5-.4.5.5 1.6.6 1.5h.9zm246.4-5.2 2.2-5.2 1.1-8.5 1.2-8.5.5-8.8.5-8.8-.7-6.6-.7-6.6-.9 1.4-.9 1.4v25.8l-1 6.6-1.2 6.6-1.6 5.5-1.6 5.5-1 1.2-.8 1.3.6 1.5.5 1.5h1.7l2.1-5.2zm-248.5-2-1-2.2-.6-6-.5-6-.7-5.8-.6-5.7h-2.8l-.4.8-.5.7 1.3 5 1.3 5 .7 5.5.7 5.5 1.6 4 1.6 3.9.4-1.3.4-1.3zm-3.7-36 .6-3.3-.2-1-.2-.9.7-6 .7-6 1.6-8.5 1.6-8.5 2-6 1.8-5.9 2.5-4.5 2.4-4.6v-3.4l1-.6 1-.6v-4.4l-3 5.4-3 5.4v2l-1.4 1.6-1.4 1.6-2.5 8-2.5 8-.7 4.5-.7 4.5-1 1.7-.9 1.8-.4 11.5-.4 11.5h1.9l.6-3.3zm125.5-9.9v-.8h-2.9l-1 1.9-1 1.8.6.7.6.6 1.9-1.7 1.8-1.6zm131-7.2v-1.3l-.6-4.7-.7-4.6h-2.7l-.1 1.3-.1 1.2v2l.7 3.8.6 3.7h2.9zm-155.2-3.1 1.2-2.6v-2.4l-2.5 2.8-2.5 2.8.5 1 .6.9h1.6zm66.4-6.2 1.8-1.6v-3.7h-1.6l-2.2 1.6-2.2 1.5v3.9h2.3zm85.8-4.7v-.5l-1.1-2.8-1-2.8-1.4-5-1.4-5-1.5-3-1.6-3v-1.7l-3-6.3-2.8-6.3-3.6-3.5-3.6-3.6v-2.1h-2.1l.6 2.3.7 2.2 2.4 3.2 2.4 3.2v2l2.4 2.8 2.4 2.8 4 10.6 4.2 10.5v2.4l1.2 2 1.3 2h1.5zm-107-11.6v-1h-2.1l.6 1 .6 1h.9zm-12.6-7.3.5-2.1-.4-.4-.5-.5-1.5 1.3-1.5 1.2v3.7l1.4-.5 1.4-.5zm-11.4-2.3v-1.6l-1.2.4-1.2.4-.4 1.2-.4 1.2h3.2zm2.7-6 .5-1.5-.6-.7-.7-.6-1 1.4-.9 1.5v1.5h2l.7-1.5zm69.3-16.6 2-2.2v-1.6h-2.9l-1.5 2.2-1.6 2.2v1.6h2zm-158.5-12.8 6.5-6.5 1.2-1 1.3-1 4.5-3.5 4.5-3.5.3-.8.4-.7h1.8l5.2-3.3 5.3-3.3 8.5-3.6 8.5-3.6 7.5-1.7 7.5-1.8 6.5-1.8 6.5-1.9 9.5-.2 9.5-.2 15.1 2.2 15.1 2 5.4 1.8 5.4 1.7 1 .7 1 .7 4 1.3 3.8 1.3 7.6 4 7.6 4.1 1 1.1 1 1.1 3.7 2.7 3.7 2.7h1.8l2.3 2.5 2.3 2.5h4l-4.3-3.7-4.2-3.8-6.7-4.8-6.6-4.7-6-2.9-6-2.8-2.5-1.2-2.5-1.1-3.1-2-3.1-1.8-8.4-2-8.4-2.1-12.3-1.6-12.4-1.6-1.6.5-1.7.5-9.5.2-9.5.2-9.8 2.4-9.9 2.3-8.6 3.6-8.7 3.6-3.9 1.6-3.8 1.6-8.2 5.6-8.1 5.6-2.8 2.5-2.8 2.4-5.9 5.5-5.8 5.5-3 4.7-3.1 4.6.6.7.7.6 2.3-2.8 2.3-2.8zm101.3 5.8 1-1.3 1-4 1.2-4-.8-.7-.7-.7-2.5 1.2-2.4 1.2-1.9 3.3-1.9 3.2.6 1.5.5 1.5h4.9zm37.1-1.4 3.2-1.6 1.1-2.4 1.1-2.4-.7-.8-.8-.7-3.1 3.6-3.2 3.6-2 1.1-2 1.1h1.6l1.6.1zm-11.2-8 .6-1.6-1.3-.8-1.4-.8 1.4-1.7 1.3-1.6-1.1-1.1-1.1-1.1-1 2.7-1.1 2.7v4.9h3.1zm2.9-13.9 1.6-2.5-.6-1.5-.5-1.5h-2.8l-1.1 2.5-1.2 2.6v2.9h3zm728 205-.5-1.5.5-1.4.5-1.4 3-1.2 2.8-1.2.6-3 .7-3-.7-15.2-.7-15.3 1-2 1.2-2.1 3.1-1.6 3.2-1.6h4.3l1.2 1.2 1.2 1.2v3.7l-1.6 3-1.5 3-1.2-.4-1.2-.4-.3-2.7-.3-2.7-1.7.3-1.7.4.2 16.3.2 16.3.5.5.5.5 4.8-3.6 4.8-3.5 3.6-2.8 3.7-2.8-.5-5-.5-5 2.1-5.4 2.2-5.4 4.2-4.4 4.1-4.4 3.8-1 3.8-1.2 2.5 1.1 2.4 1.1.7 2.5.6 2.5-3.2 5.6-3.1 5.5h-1.4l-1.7 3-1.7 3 1.4-.7 1.4-.8 5.5-4.8 5.6-4.8v-2.5l2.4-2.3 2.5-2.3 1.7.6 1.6.6-.5 2.8-.5 2.7-.6 2-.6 2 1 1.4.9 1.5 15.3.9 15.3.9 13-1.2 13-1.3 7.8.1 7.7.1 8.3 1.2 8.2 1.2 2.3.8 2.2.9v2.7l-1.7 1.5-1.8 1.6-3.4.4-3.4.5-6.1-1.3-6.1-1.3-11 .4-11 .4h-24l-14.2-.7-14.2-.8-2.9-2.7-2.9-2.7-3.2 3-3.2 3.1-8.2 4-8 4h-2.4l-1.8 2-1.8 2h-2.8l-.6 1.4-.5 1.6-4 2-3.9 2-3.7 3.8-3.7 3.8-2.2 1.2-2.2 1.1h-3.9zm40-30.7 3.5-3.2 1.7-3.6 1.6-3.5 1.3-1.3 1.3-1.3v-4.9h-3.3l-3.3 2-3.4 2.2-1 2-1.1 2-1.5 4.6-1.4 4.7v3.5h2zm-621 27-.5-2 1.4-4.2 1.5-4.1v-5.5l-.1-5.5-.7-1.7-.7-1.7-3.8-2.5-3.8-2.6h-2.4l-5-4.2-4.8-4.3-3.9-4-3.8-3.8v-2.7h2.8l3 2.5 3 2.5h2l2.4 2.8 2.4 2.9 2.8.7 2.8.7 2.4 2.4 2.5 2.5h2.4l1.5 1.3 1.5 1.2 2.3 2.9 2.2 2.9v9.6l-1.6 3.8-1.6 3.8-1.9 4.3-1.9 4.2h-1.8l-.5-2.1zm446.1-15.5-1.7-.4v-.6l3-6.8 3.2-6.8-1.9-3.4-1.8-3.5-.6-.4-.7-.4-5.5 2.5-5.5 2.6-4.4-.7-4.3-.7-3.3-3.3-3.2-3.2v-5.8l1.4-2 1.5-1.9 1.8 1.1 1.8 1.1.3 3 .3 3 2.3 1.3 2.4 1.2 4-.7 3.9-.6 3.1-2 3.2-1.8 1-4.3 1.1-4.3 2.4-2.9 2.3-2.9 1.6.6 1.6.6v7.2l3.7-2.8 3.8-2.8 1-1 1-1 5.5-6.5 5.5-6.5 1.3-1.3 1.2-1.3 1.7.3 1.8.3.3 1.8.4 1.8-3.1 5.9-3 5.9.5 1.5.6 1.6h-3.8l-5.4 8.1-5.5 8.1-1.8 2.9-1.9 2.8.7 1 .6 1.1h3.7l.4-1 .3-.9 3.8 1.2 3.7 1.2v2.6l-1.7 1.7-1.7 1.7-7.3-.1-7.3-.1-.7 2.6-.6 2.6-1 1.3-1 1.3-1.6.8-1.6.8zm14-29.1 3.3-5.2h-1.7l-4.1 3-4.2 3v1.8l.6 1.7.6 1.6 1-.4 1.1-.3zm139.6 26.3-.5-1.6.5-.5.6-.6 1 .7 1.1.6v2.9h-2zm-46.4-4.1-1.6-.5-2-3.4-1.9-3.5-4 2.1-3.9 2.2-6.5-.6-6.5-.5-2.4 1.9-2.3 1.9h-4l-1.5-1.5-1.5-1.5-.8-2.8-.7-2.7-1.4.3-1.4.4-3.3.1-3.3.1-.9-1.4-.9-1.4 1.7-2.8 1.6-2.8 3.2-1.5 3.2-1.5h7.4l-.8-1.7-.8-1.8-.4-5.7-.4-5.8 2.1-3.4 2.1-3.4 2.3-1.4 2.2-1.5 6.8-1.8 6.8-1.8 1.6 1.6 1.6 1.6-1.2 4-1.2 4.1.7 3.5.6 3.5-.6 3.3-.6 3.3-4 6.2-4 6.1v2.1h7.5l4.1-2 4.2-1.8 1.7-5.4 1.8-5.3 1.4-3 1.5-3 4.2-3.7 4.1-3.7h3.5l3.6-.1 2.3 1.6 2.3 1.7 1.4 3.3 1.4 3.3v4.2l-2.1 4.6-2.1 4.7-1.4 1.4-1.4 1.4-1.4 2.6-1.4 2.7-3 2.2-3 2.2-3.3.4-3.4.5-1.6-.4zm10-8.6 3-3.3 2-2.3 1.8-2.2 1.3-4.5 1.3-4.5-1.7-2.5-1.6-2.5-2.5-.6-2.4-.6-1.1.7-1.1.7.5 1.4.5 1.3-1 3.3-1.2 3.3-2.3 3.2-2.4 3.2v2.5l1.2 3.3 1.2 3.3h1.4zm-40.5 1.6 1.6-.6v-3.1l-1.7-1.9-1.6-1.8h-1.7v6.7l.7.6.6.7h.5zm10.1-10.9 2.6-4.4 1-3.6 1-3.7-.5-.5-.6-.6-1.9 2.4-1.9 2.4-3 3.5-3.2 3.5v1.6l1 2 1 1.9h2zm0-17.4 1.6-3.5-.5-1.3-.5-1.3h-3.2l-2.5 1.6-2.5 1.7-1.5 2.8-1.4 2.8v7.8l.7.7.7.7 3.9-4.3 3.8-4.3zm-153.5 30.4-1.3-1.6 1.3-7 1.3-7-.6-.5-.6-.7-5.1 3.3-5 3.3-3.7-.6-3.5-.6-1.9-1.7-1.8-1.6-.6-3-.7-2.9-4.4.2-4.4.3-1.1-1.1-1-1 .9-2 1-1.8.7-4.2.7-4.3-1.6-.6-1.6-.6v-2.6l1.6-.6 1.6-.6h6.8v1.9l-1.5 1.5-1.5 1.5v2l4.5.6 4.4.7 1.6-1.6 1.6-1.6 2 1 2 1-.7 4.3-.7 4.2-1.4 1.7-1.5 1.7.4 1.8.3 1.8 1.7.3 1.7.3 2.6-1.7 2.6-1.7 2.7-5.1 2.7-5.1.2-4.7.2-4.7 1.1-2 1.1-2.2 2.1.3 2.1.3 1.8 5.5 1.8 5.5v5.6l.1 5.6-1.9 5.4-1.9 5.5-.7 4.5-.7 4.4-1 1.3-1 1.2h-2.6zm-428.5-8.4-.5-1 1-.6 1-.6v3.1h-.9zm187-6.3.8-3.3.2-4.5.3-4.5v-4.1l.2-4.1 4.2-.7 4.3-.7 2.7 3 2.8 3.1v7.7l-2.5 2.7-2.4 2.6-1 .1-1.1.1-1.3.2-1.2.2.2 1 .2.9.6 1.7.7 1.8h-8.4zm10.3-12.2-.3-3.1-2.3-.3-2.2-.3v6.7l1.2 1.2 1.2 1.2 1.3-1.2 1.4-1.1zm156.4 14.2-1.1-1.1.9-1.7 1-1.7.9-7.8 1-7.9-1-1.7-.9-1.8v-2.1h10.7l2 2.3 2 2.2.7 2.7.6 2.8-1.4 3.4-1.5 3.5-3.5 1.5-3.6 1.5v1.9l1.5.6 1.5.5v2.9l-1.6.6-1.6.6h-5.4zm11.1-15.4.6-3.5-.6-1.5-.5-1.4h-3.8l-.7 3.5-.6 3.5.6 1.5.5 1.5h3.8zm162.7 14.3-2.5-1.3.3-2 .4-1.9 1.5-1.8 1.6-1.7h3.8l-.3 4.7-.3 4.6-1 .4-1 .3zm-420.5-2.7-2-.9-2.8-2.5-2.9-2.5.9-1.3.8-1.3 1-4 1-4 2.7-1.4 2.7-1.5 2.8 1 2.8 1 1.9 3.7 1.8 3.8-.6 3.4-.7 3.5-2.1 2-2.2 2h-1.5l-1.6-.1zm-45.5-2-2.5-2v-17.1l2.2-1.5 2.3-1.5-.2 6.4-.2 6.4 1.3 3.2 1.3 3.2h1.6l2.2-3.6 2.2-3.5 1.7.3 1.6.3.3 3.2.3 3.1-2 .6-1.9.7-2.2 2-2.3 1.9h-3.2zm83.9 1.4-1.6-.4v-6.7l.1-6.7-.8-2.3-.9-2.3 2.2-.6 2.1-.5v-3.8h1.7l.6.7.7.6-1 1.3-1.1 1.2 1.3.9 1.3.8h7.8l1 1.8 1.2 1.9-2.2 1.5-2.3 1.5v3.9l2.5.9 2.5 1v2.8l-1.2 1-1.3 1-5.5.4-5.5.5zm86.3-1-1.2-.5-1.5-2.8-1.5-2.9v-7.8l2.3-2.1 2.3-2.2h6.4l2 2.6 2.1 2.7v9l-2.6 2.3-2.5 2.4h-2.2l-2.2-.2-1.3-.5zm41.6-7 .5-6.8-1.6 1.3-1.6 1.4-1-.7-1.1-.6v-3.7l1.4-1.1 1.4-1.2 5-.6 4.8-.5 1.8 1.7 1.7 1.8-.3 2.5-.3 2.6-2.5.6-2.5.6-.3 2.2-.3 2.2 1.5.6 1.6.6v2.6l-1.6.6-1.6.6h-5.6zm39.5 4.7-2.3-1v-6l3.3-2 3.2-2 1-.4 1-.3-1.2-1.3-1.2-1.3-.7 1.6-.6 1.7h-3.8v-3.9l1.6-1.5 1.5-1.6h4.5l1.8 1.3 1.9 1.4.5 5.1.5 5.2h2.6l.6 1 .7 1.2-2 1.9-2.1 1.9h-4.3l-4.3-.1-2.3-1zm211.2-3-.6-1h3.1v2h-1.9zm7.5-8v-1h2v2h-2zm-461.6-3.6-1.5-3.6.5-1.4.5-1.4h2.9l1.6.6 1.6.6v5.6l-.6 1.6-.6 1.6h-2.9zm572.1-3.4-6-.7-3.5-1.3-3.5-1.3-.7-1.1-.7-1 1.3-.8 1.4-.8 5.3 1.7 5.4 1.7h10.9l10.8-.2 5.7-1 5.6-1.1 11.5-2.2 11.5-2.1 9.5-2.8 9.5-2.8 7.2-3.3 7.3-3.4v-2.6l1 .6 1 .6 5.8-3.5 5.8-3.5 4.2-4.2 4.2-4.2 1.6-4.9 1.6-4.9-1.1-3.1-1.1-3.2-1.7-1.8-1.6-1.8h-5.1l-2.2-2.1-2.3-2.1-8.6-1.8-8.5-1.7-4.2-3-4-2.8-2.1-2.7-2-2.8h-2.7l-3.6 1.5-3.5 1.5-3.3 1.4-3.2 1.3-5.1-1-5.1-1-5.4 2.1-5.4 2.1h-10l-9.9-.1-1.6-1-1.6-1-3.2 1.6-3.1 1.6h-3.2l-1.6-1.5-1.5-1.6.5-2.4.4-2.5h-1.6l-2.1 3-2.1 3h-2.6l-3.7 4-3.7 4h-2.3l-2 1.9-2.1 1.9-5.8 3-5.8 3.1-2.6-1-2.6-1-1.2-1.5-1.1-1.6-4 2.3-3.9 2.3-2.8 3-2.8 3-7.1 14-7 14.1-3 4.3-3 4.3-2.3 1-2.3 1.1-6.5-3-6.4-3.2-4.8-5-4.8-4.8-.9-1.5-.8-1.5.5-1.5.6-1.4 4.2-2 4.2-2.1 6-2.7 6-2.7 10.3-5.1 10.3-5.2 2.6-4.5 2.7-4.5 6.4-12.5 6.4-12.5-2.9 2.5-2.8 2.5-1.6 1.5-1.6 1.5-3.6 3.2-3.6 3.3-6.6 3.5-6.5 3.4-4 1.2-4 1.2-1.1-1-1.1-1.1 2.6-4.4 2.6-4.4 2.6-2.5 2.6-2.4 3.4-5 3.3-5 2.7-2.8 2.6-2.9 1.1 1.1 1 1-2.1 3-2.2 3v2l-3 2.8-3 2.8v1.5l-3.7 3.4-3.8 3.5 1 1 1 1 6.3-3.6 6.3-3.7 11-10.7 10.7-10.5 4.5-5.5 4.5-5.5 2.7-4 2.7-4.1v-1.4h-7.2l.6-2.5.6-2.5.6-2.5.6-2.5h-5.3l-.6-2.5-.6-2.6 1.8-2 1.8-2 6 .3 6 .3.7 2.8.8 2.9-.6 1.4-.5 1.4h-4.8v5.9l1 .6 1 .7 2.3-2.8 2.2-2.8 1.1-2 1.1-2.1 2.1-4 2.2-4 4-4.4 4-4.4v-1.3l5.6-5.7 5.6-5.7h3.6l.5 1.4.6 1.5-1 3.2-.8 3.2-6.2 7.4-6 7.5.7 2.6.7 2.7-.2 1.9-.3 1.8 2.1 2 2.1 1.9v2.7l-1.2 1-1.3 1h-12l-1.4-1.2-1.4-1-1.1 1.7-1.1 1.8-7.3 11.2-7.4 11.2-.5 1.5-.6 1.5-1.2 1.5-1.2 1.5-5.2 10-5.2 10-.8 1-.9 1-.6 2.3-.7 2.2h1.8l3.1-2.6 3.2-2.7v-4.7h3v-1.9l6.6-7.8 6.6-7.8 4-2.8 4.1-2.7h4.3l1.2 1.2 1.2 1.2v2.3l-2.7 4-2.8 4.2-8 6.5-8 6.5-1.7 1.5-1.8 1.6v4h2.1l3.8-1.9 3.9-1.8 1.3-1.1 1.4-1.1 9.3-7.6 9.2-7.7v-1.6l4.3-2.5 4.2-2.5 6.6-6.7 6.7-6.8 1.6.6 1.6.6v4.6l-3.8 4.7-3.7 4.8-3.3 4-3.4 4h3.1l10.3-7.4 10.3-7.4 3.6-3.5 3.5-3.4 2.2-1.2 2.2-1.2 1 .6 1 .6v5.7l-4 3.6-4 3.6v5h4l2.5-1.6 2.5-1.6v-2.8h3.1l2.1-2 2.2-2 4-1.1 4.1-1 10.5-4.1 10.5-4 5.2-2.5 5.2-2.5 4-.5 4.1-.6v3.3h-2.2l-4.7 3.3-4.6 3.3-7 3.3-7 3.4-2 1-2 1-8.7 4.4-8.8 4.4v2.9l2.8-.6 2.7-.6 4-1 4-1 3.7-1.9 3.7-1.9h4.9l.6 1.6.6 1.6v5.3l4.5 2.8 4.5 2.9 3.9.5 3.8.5 2.7-1.7 2.7-1.8.5 2 .5 2 6.5 1.3 6.4 1.3 4 3.8 4 3.8.6 3 .6 3.1h1.5l5.4-3 5.4-3h3.1l2 1.5 1.9 1.6-2-.3-2-.3-2.3 2.6-2.2 2.7v2.9l-4 2.8-4 2.8v1.7h-2.6l-7.4 7.3-7.4 7.2-3 1.7-3.1 1.7-7.2 3.5-7.2 3.6h-1.1l-4 2.5-4 2.5h-2.4l-10 3-10.1 3.2-3.5 1.3-3.5 1.4h-9l-5.8 1.6-5.8 1.5-11.2-.2-11.2-.1-6-.7zm-81.4-15.6 1.4-1.7 6.2-12.6 6.1-12.6-.9-.3-.8-.3-12.1 6-12.1 6.1h-2.6l-1.7 2-1.8 1.8 1.2 2.2 1.1 2 6 4.5 6.1 4.5h2.6zm54.9-60.8 2.5-2.2 2.4-2.7 2.4-2.7h-3.5l-4.4 4.4-4.4 4.4v1.2h2.5zm49.5-5.6.6-1-1.5.6-1.6.6v.8h1.9zm-600.7 73.7-3.8-1-.6-2-.6-2 1.3-.8 1.4-1 3.3.6 3.2.6v-4.1h2.6l1.5 3.3 1.5 3.4-1 2.1-1 2.2-2-.1-2.1-.2zm16.4-1-2.2-2.3v-5.5l-1.8-1-1.8-1-1.4-3.6-1.4-3.6-1.7.4-1.8.5-.6-4-.7-3.9-2 .7-2 .6.4-1.9.4-1.8 1.6.1 1.6.2-.5-1.4-.5-1.4h1.7l1.5 1.3 1.6 1.2 4.2 6.4 4.2 6.3v2.8l2.8 3 2.7 3.2.6 2.1.6 2.2-.5 1.3-.4 1.2h-2.5l-2.1-2.3zm33.3.3-.7-1.2-2.4.6-2.4.6-2-2-2-2v-2.9l1.9-.6 1.9-.6 4.6 2.3 4.6 2.2v2.4l-1.4 1.1-1.4 1.2zm-60.4-8.5-2.4-2.4-.2-1.8-.1-1.8-2-4-2.1-4 .8-2 .8-2 .5-2.8.6-2.7h6.5l1.5 1 1.5 1-1 1-1 1-2.2.3-2.2.3-.6.6-.6.6 1.5 3.1 1.6 3-.6 2.6-.6 2.5h1.8l1.2-1.2 1.2-1.2.6.6.6.6.8 3.7.8 3.7-.5 1.4-.5 1.4h-1.8l-1.6-.1-2.4-2.4zm370-18.9-2.1-3.3v-1.8l2.3-5.5 2.3-5.5 1.7-3.1 1.6-3.2 1.6-.6 1.7-.6h1.8v3.1l-1.5.5-1.4.6-.7 3.6-.7 3.7-1.3 2-1.4 2v4.5h3.3l4.6-2.7 4.6-2.7 5-3.5 5-3.5 5-4 5-4 1.2-1.1 1.2-1 3.3-2.7 3.3-2.7 5.3-4.2 5.4-4.2 2.5-5.4 2.5-5.3 5.6-5 5.5-5 3.8-2 3.8-2h2l5.7-5.8 5.6-5.8 1.3-3.6 1.2-3.6-.7-1.2-.8-1.2-4 3.7-4.2 3.7h-3.2l-3.3-.2-1.5-.1-1.5-.1-5 1.8-5 1.9-1.2 1.2-1.3 1.2-5.7 1.1-5.8 1.2-5.5 2-5.5 2-2 2-2.1 1.8h-10.9l-5 1.6-5 1.6-5.3 2.6-5.3 2.7-1-1.5-.9-1.5v-2l2.4-1.7 2.3-1.7 7-1.7 6.8-1.7 7.5-2.7 7.5-2.8 3.5-.7 3.5-.6 4.3-1.7 4.3-1.7-.5-1.7-.4-1.8.8-.5.8-.5v-21.4l1.4-.8 1.2-.8.8 1.2.8 1.2-.6 1.7-.5 1.8h2.1v4h2l.6-2.8.7-2.7 1.8-1.8 1.8-1.7h3.1v4h-3v8.5l.6 2 .5 2.1 3.3 1.2 3.2 1.2h1.4v-7.6l2.8-2.7 2.8-2.7h5.1l1.5 1.7 1.5 1.8.6 1.7.6 1.6 2-.5 2-.5.3-2.2.3-2.1 5.5-.5 5.5-.6 5-2.3 5-2.3 12.3-6.7 12.3-6.6 1.7-1 1.7-1 5.8-3.4 5.8-3.3 5.2-1.4 5.2-1.4h5.5v3.5l-1.4 1.8-1.4 1.7-5.6 1.5-5.6 1.5-3.7 2.3-3.8 2.3-13.5 6.6-13.5 6.6-2 .7-2 .8 2.5.7 2.5.7 4.8-.5 4.7-.5v2.9l-1.1 1.1-1.1 1.1.5 3.9.6 3.8.3 2.4.3 2.3-1.7 1.1-1.7 1.1-2.3-1.3-2.4-1.2-2.4.9-2.5 1-1.1-.5-1.1-.4.5-6.8.5-7-1.4-1.3-1.3-1.4-1.8 1.5-1.8 1.5v7.7l1 2 1.1 2-1.2 1.5-1.3 1.5-4.7-.6-4.8-.7-2 2.4-2 2.3-2 2.4-2.1 2.4v1.3l-4.3 4.4-4.4 4.5-1.3 5-1.4 5-3.3 6.1-3.3 6.2v2.3l2-.6 2.2-.7 5.1-2.5 5.2-2.5 7-4.3 7-4.4 4-2.2 4-2.2.5-.6.5-.6 9-6.5 9-6.4 3.8-3 3.8-3.1 3.2-2.7 3.2-2.8h-3.5v-3.9l1-.6 1-.6v-5.9l-2.8.2-2.7.2.2-3.3.1-3.3.5-.6.5-.5h13.3l1 1 1.1 1-.7 3.1-.7 3.1-1.1.1-1.2.1-1.3-.1-1.2-.2v5.1h5v2l2.5-1.2 2.5-1.1v-6.5l.6-1.6.6-1.6 3.3-2 3.4-2.1 3 1.5 2.8 1.5.7 2.3.6 2.3v8.2l-1.9 1.7-1.9 1.7-3.6.6-3.7.6-1.6 3-1.6 3.2-4 5.2-4 5.3h-1.5l-3.8 4-3.8 4h-3.6v-3.5l3-3.2 3-3.2 1.8-1.3 1.8-1.3 3.8-5.3 3.8-5.2h-3.2l-4.7 5-4.7 5-1.5 2.2-1.6 2.3-.6.5-.6.5-5.2 6-5.2 6.2v1.4l-5.4 6.8-5.5 6.9-2.6 4.3-2.6 4.4-2 4.2-2 4.3-2 1-2 1-1-.5-.9-.6v-4.5l8-14 8-13.9 3.6-4.8 3.5-4.9-.4-.5-.5-.4-12.6 9-12.6 9.2-2.7 1-2.8 1-3 2.2-3 2.2-5.5 2.7-5.5 2.8-3.7 1.4-3.7 1.5-3.5 5.3-3.4 5.3-3.6 4-3.7 4-2 2.3-2 2.3-2.2-1.4-2.2-1.4-.3-2.3-.4-2.2 2.2-5.1 2.2-5.2 2.9-4.7 2.8-4.7.7-2.6.6-2.5-1.6-.6-1.6-.6-4.4 3.6-4.5 3.6-.6 2-.6 2h-2.8l-5.3 5-5.2 5h-1.3l-4.4 3.5-4.3 3.5-1.2 1-1.2 1-2.6 1.2-2.5 1.1v1.5l-3.2.7-3.2.7-1.4 1.4-1.3 1.4h-2.7l-2.1-3.4zm56.2-12.7 1.8-2 3.5-4.9 3.4-4.7v-1.4h-3.7l-3.5 5.3-3.5 5.2-.5 2.3-.6 2.2h1.4zm15-21.6.6-1.8 2.6-4.3 2.5-4.3v-2.4l-1.2 2-1.1 2-2.1 2.2-2.1 2.2-1 1.3-1 1.3-1.4 1.8-1.3 1.7h5zm-4.4-8 1.2-2.6-.4-.4-.5-.4-1.6 1.6-1.6 1.6v2.9h1.7zm-4.5-39.9.6-1.6-.6-2.4-.6-2.4h-2.8v6.6l.7.6.6.7h1.5zm64.6.2v-.5l-1-.6-.9-.5-.6 1-.6 1h3.1zm44.3 73 .7-1.8v-.8h3v2l-2.2 1-2.1 1.2zm155.7-3.6v-1h2v2h-2zm-742-1.5v-1.5h4.2l-1.2 1.5-1.2 1.5h-1.8zm587.5-3.5-.6-1h2.1v2h-.9zm140.5-24.6v-1.6l1.2.4 1.2.4.4 1.2.4 1.2h-3.2zm-76-9.3v-1l1-.6 1-.6v2l-1 .6-1 .6zm-497-14-1.3-1 1.3-3 1.2-3-.3-9.3-.4-9.3h10.8l2 2.8 2.1 2.7-.1 4-.2 4-1.8 2.5-1.8 2.4h-2.7l-2.8.1v2.8l1.4 1.2 1.5 1.1-.6 1.5-.5 1.4h-6.3l-1.4-1zm9-13.9v-1.8l1-1 1-1-1.3-1.9-1.4-1.8-1.1.7-1.2.7v7.9h3zm-156.3 7.5-.5-1.3 1-5.4.8-5.5-.1-3-.2-3 .2-3.1.1-3.1 3.2-.7 3.2-.6 1 1 1 1-1.7 3-1.7 2.8v3.3l1.8-.3 1.7-.3.3-2.7.3-2.7 1.5-1.2 1.5-1.2 1.6 1.5 1.5 1.6-1.2 3.7-1.2 3.6 1.6 1.8 1.6 1.8v3.4l-1.2 2.2-1.1 2.2-1.6 1.2-1.6 1.2h-5.6l-5.7.1zm11-5.5 1.2-1.5-1-1.8-1-1.9h-3.8l-.6 1-.6 1 .6 3 .6 2.9 1.7-.6 1.7-.6zm35 4.7-2.7-2v-11l2.6-2.6 2.5-2.5 3.2.6 3.2.6 1.3 1.7 1.2 1.7v11.1l-.8 1.1-.7 1.1-2.2 1.2-2.2 1.1h-2.6l-2.7-2.1zm-20.7-.2-2.5-1.3-1.3-3.9-1.3-3.9 1-2.8 1-2.9 1.4-1.4 1.5-1.4 2.6-.7 2.5-.6 3 3 3.1 3v8l-.6 1.7-.6 1.6-2.9 1.4-2.8 1.5h-1.6zm37.4-5.6.6-7-.9-.5-1-.6.6-2 .6-2h4.6l4.6.2 2-.7 2.1-.6 1.3 1.5 1.3 1.6-1.2 1.5-1.3 1.5.7 6.5.7 6.5-1.5.6-1.4.6-2.1-1.2-2.1-1 .6-2.5.6-2.5h-3.4l.5 2.2.6 2.2-1 1.3-1.1 1.3h-5.1zm21.6 5.4-1.3-1.6 1-4.3 1-4.3-1-2.3-.8-2.4.5-1.1.4-1.2h7.1l7-.1-.1 4.6-.2 4.7.8 3 .8 3.2-1.7 1.6-1.6 1.7h-1.9l-1.6-1.7-1.7-1.7-1 1.7-.9 1.7h-3.7zm8.8-4.3.4-1.2h-4.2v3.1l1.7-.3 1.6-.3zm16.6 4.2-3-1.5-1.2-3.3-1.2-3.2v-3.5l1.1-2.5 1.2-2.5 2.8-1.1 2.9-1.2 2.5.6 2.4.6 1 1.9 1 1.8.7 4 .6 3.8-2.2 2.8-2.2 2.7-1.7 1-1.7.9zm175.6.6-1.5-1h-9l-1-.8-1-.7v-16.6l2.3-.6 2.3-.6 1 1 .9.9-1 3.4-1 3.5v5.5h4l.1-3.2.2-3.3v-3.6l.2-3.5h5l-.4 6.3-.3 6.3 1.7 1.9 1.7 1.9-.4 1.7-.3 1.7-1 .4-1 .3-1.5-1zm-113.6-1-3.2-1-.6-2.2-.6-2.3v-5.6l1.5-3 1.5-2.8 2-1 1.9-1.1 3.4 1.6 3.5 1.7 1 3.7 1.2 3.7v3.5l-3 2.9-2.8 2.9h-1.4l-1.3-.2-3.1-.9zm18.2-.6-.6-1.6 1.1-3.8 1.2-3.8-1.6-3-1.5-3.1 1.4-1.2 1.4-1.2 4.6.6 4.5.5 1.4 1.8 1.4 1.9-.5 1.6-.4 1.6.8 2.4 1 2.4-1 2.1-1 2.1-3.8 1.2-3.7 1.1h-4zm63.4.6-1.3-.8-.2-8.1v-8.2l.7-1.2.7-1.2 3.1 1.2 3.1 1.2 1.5-.6 1.4-.5 2.3.6 2.4.6 1.2 2.6 1.1 2.6-.6 5-.7 4.9-1.9 1-2 1-2.8-.6-2.9-.6-1.8 1-2 1zm11-7.5 1.2-1.4-.7-2.1-.7-2.1-1.6.3-1.7.3-.3 1.8-.4 1.8.6 1.5.5 1.4h1.9zm-51.8 5.4-2-2-.6-3.7-.5-3.7.5-2.2.6-2.1 3-1.5 3-1.5 2.7.7 2.6.7 1.3 2.5 1.3 2.4-.6 4.4-.5 4.5-1.7 1.8-1.6 1.8h-5.7zm16.7.5-1-1.3.3-1.8.3-1.8 2.7-.3 2.7-.3.3-5.7.3-5.7 3.4-.3 3.4-.3 2.4.6 2.5.6-1.6 2.4-1.6 2.4v8.1l1.5.6 1.5.6v2.7l-1.8.4-1.7.5h-6.3l-6.2-.1zm66.4 1-1.3-.6v-2l1.6-1.3 1.6-1.1.5-4.8.6-4.7-2.2-.6-2.1-.5v-2.9l2-1.1 2.1-1.1 1.7 1.3 1.7 1.3.7 1 .8 1v6l.6 2.2.6 2.2 2 .6 1.8.6v2.8l-2 1-1.9 1.1h-3.8l-3.8-.2-1.2-.5zm22-2.8-2.7-2.3v-10l1.7-2.7 1.7-2.6h4.7l2.5 2 2.5 2 1.3 3 1.2 3-.6 2.6-.7 2.6-2.4 2.4-2.4 2.4h-4zm18 1.2-1.1-1.3 1-5.4 1.1-5.4-1.2-2-1.3-2 1.2-.7 1.2-.7h6.5l6.6.2.1 8.8.2 8.7h-7.3l-3 .6-3 .6zm8.4-4.4-.6-.6-1.3.5-1.3.5 2 .1 1.8.1zm.3-7.8v-.5l-1-.6-1-.6v2.1h2zm13.3 12.7-.9-.3.2-8.8v-8.7l5-.6 4.9-.6 2.8.5 2.8.5-.7 5.4-.7 5.5 1.4 2.4 1.3 2.4-1.3 1.3-1.2 1.2h-12.8zm21.2-1.7-2.5-2.5v-2.9l1.5-1.2 1.5-1.2v-2.9h-2v-3.9l2.2-1.5 2.2-1.6h4.6l2 2 2 2v9h2.9l.6 1 .6 1-1.1 2-1.1 2-3.2-.1-3.2-.2-2.2.7-2.3.7zm5.5-11.7v-1h-2.1l.6 1 .6 1h.9zm14.8 12.3-.4-.8v-8.5l.1-8.5 6-.3 6-.2 1.1.7 1.2.8.7 4.3.7 4.2h-6.2v-2h-1.9l-.3 5.3-.3 5.2-3.2.3-3.1.3zm24.4-1-1.2-.5-1.5-2.9-1.5-2.9.4-3.2.4-3.3.6-1.5.6-1.5 2.1-1.3 2-1.3 2.9.6 2.8.6 1.6 1.8 1.7 1.9.6 3.6.6 3.7-1.3 2.3-1.2 2.4-2.5 1-2.4 1.2h-1.7l-1.7-.2zm-296.2-3.8-1.2-1.5 1.2-1.5 1.2-1.5h11.6l.5 1.3.4 1.2-.9 1.8-.9 1.7h-10.7zm172-16v-1.5h4v1.8l-1.6.6-1.6.6h-.8zm344.4-27-.6-1.3 1.2-2.1 1-2.1h2.9l.6 2 .7 2.1-1.2 1.4-1.2 1.5h-2.9zm-558.7-42.3-2.9-.4.8-2.1.8-2.2.2-11 .1-11 5.3-.3 5.2-.3 2 1.7 1.8 1.7v11.7l-1.6 1.6-1.6 1.6-3 .6-2.8.5v2.7l1 .6 1 .6v3.7l-1.8.4-1.7.3zm8.3-15.2 1-2v-2.7l-1.4-1.9-1.3-1.9-1.2 2.3-1.2 2.2.6 3 .7 2.9h1.8zm84 6.9-1.5-1-6 .2-5.8.3-.4-1.2-.4-1.1 2-1.9 2-1.9 1.6-3.7 1.5-3.6v-4.9l1.6-.6 1.6-.6h6.7l.6 1 .7 1-1.2 1.5-1.2 1.4.6 4.8.5 4.8.3 2.9.3 2.9-1 .3-1 .4zm-115.7-1.6-.6-1.5 1.3-2.4 1.3-2.4-1-8.6-.9-8.6.6-1 .7-1 2.4-.1 2.4-.2 5.1.2 5.2.2.5 2.2.6 2.1-1.3 1.9-1.3 1.9-3-2.6-3-2.5h-1.3v6.8l3.2.6 3.2.6 1.8 1.7 1.8 1.6v7.5l-3 2.6-3.2 2.6h-10.8zm12.7-6.3v-1.8l-.6-1.6-.6-1.6h-3.8l-.6 1-.6 1 .6 2.9.6 2.8 2.4-.5 2.5-.4zm30 5.8-2-2.2v-3.5l1-.6 1-.6-.6-3.9-.6-3.8 3-1.6 3.2-1.7 2.9 1.5 2.8 1.5.7 2.3.6 2.3v5.5h2.8l.5 1.4.6 1.4-1.3 1.7-1.2 1.7-5.7.4-5.6.4-2-2.2zm20.5 1.4-.5-.5v-4.7h2l-.6-3-.6-3 .6-2.3.6-2.4 2.7-1.2 2.8-1.1 3.3.4 3.3.3.6.6.6.7-1.2 1.3-1.1 1.4.6 4.9.7 4.9 1 1.2.9 1.2-.6 1-.7 1-7-.1-7-.2zm8.8-12.1.5-2-1.5-.5-1.5-.6h-.8v5h2.8zm12 12.1-1.1-.7.9-4.8.8-4.7-1-2.6-.9-2.5v-2.9h16v.7l-1 5.2-1 5.1 1.2 2.5 1.1 2.6-.9.8-.9.9-6 .6-6 .6zm8.7-6.3v-.9h-2v3.1l1-.6 1-.6zm37.3 4.5-.6-1.5 1.2-1.2 1.1-1.1v-6.1l-.8-1.3-.9-1.3-1.1 2.6-1.2 2.5h-1.8l-1.1-1.4-1.2-1.4.7-2.6.6-2.6 3.7-1 3.6-1h5.5v4h-2v2.8l3 .7 3 .7 1 2 1.1 1.9-.6 1.8-.6 2-3.3 1.5-3.4 1.6h-5.3zm22.7-.4-2-2v-2.9l1.6-1.6 1.7-1.6 2.6.6 2.6.7.7 1.1.8 1.2v3.4l-1.6 1.5-1.5 1.6h-2.9zm224.7-59.7-1.7-1.7 1.4-1.5 1.4-1.6.6-10 .6-9.9.3-.1.2-.2 4-.6 4.2-.7 1.6 1.3 1.5 1.2 1 3.7 1 3.7-1.2 5.3-1.2 5.3-1.4-.2-1.5-.2-2.3-.7-2.2-.6v3l1.5.6 1.5.5v3l-2 1-1.9 1.1h-3.7zm10.3-14.5v-1.3l-.6-2.3-.6-2.2h-1.6l-.5 1.4-.6 1.4.6 2.1.5 2.1h2.8v-1.3zm-343 11.2-3.5-.5v-14l-.7-1.1-.7-1.1 2.4-1.3 2.4-1.3 1.6.7 1.7.6-.5 2.3-.6 2.2-.7 4.2-.7 4.3 1.8.6 1.7.7.9-1.4.9-1.4-.6-3.5-.6-3.5-.5-1.7-.4-1.8 2.6-1.2 2.6-1.2 1.6 1.7 1.6 1.6-1 1.3-1.2 1.4.3 4.8.4 4.8 1 1 1.2 1.2v2.5l-4.8-.2-4.7-.2zm-42-2.2-2.5-2.3-1.3-2.2-1.2-2.3v-12.8l1.6-.6 1.6-.6h3l-.5 4.3-.4 4.2 1 4.3 1 4.2h2.3l2.2-3 2.3-3h2.8l.5.9.5.8-.9 3.2-.9 3.1-1.5 1.5-1.5 1.5-2.8.6-2.8.5zm21.2.2-2.1-2-.6-3.4-.7-3.4.7-2.4.7-2.3 1.6-1.8 1.5-1.7h6.6l2 2.6 2.1 2.7v7.5l-.6 1.7-.6 1.6-2.9 1.4-2.8 1.5h-2.7zm40 .7-1.2-1.4 2.5-1.7 2.5-1.6v-8l-2.5-1-2.5-1v-1.6l1.2-1.2 1.2-1.2h4.5l1.5 1.6 1.6 1.5v11.9h2.8l1.1 1.4 1.2 1.4-1 .6-.8.6-5.4.6-5.5.6zm20.4-1.4-2.7-2.7.8-1.5.7-1.6.1-3.5.2-3.5.8-1.9.8-1.8 4 .6 4.1.7 1.3 1 1.3 1.1v7.8l2 .6 2 .6v3l-1.4 1.4-1.4 1.4-2.8-.1-2.9-.2-2.1.7-2 .7zm21.4.5-2-.8-.6-1.5-.6-1.5 1.2-1.5 1.1-1.4 2.7-.3 2.7-.3.3-4.6.3-4.7 4.4-.7 4.5-.6 1 .6 1.1.7-1.5 2.3-1.6 2.4.6 4.5.7 4.6h1.7v3l-.8.1-.7.1-6.2.2-6.2.2zm20-.3-1.1-1.4 1.1-2.1 1.2-2.2-.4-3.7-.5-3.6-.7-1.6-.7-1.6 2.3-.6 2.2-.6 1.7 1.5 1.7 1.5.5-1.6.6-1.5h7.3l-.7 2.3-.7 2.2-.5 2.6-.5 2.6 1.7 3.3 1.7 3.2-.9.8-.8.7-6.7.6-6.6.6zm23-1.4-3-3v-7.6l1.6-2.2 1.5-2.2 2-1 1.9-1 3.5 1.5 3.6 1.5-.3 2.2-.3 2.3-4.3-.3-4.2-.2v7h4.3l1.1-1.6 1.2-1.5 1.7.7 1.7.6v2.9l-2.5 2.4-2.4 2.5h-4.3zm41.4 2.1-1.2-.7.3-8.3.3-8.3.5-.6.6-.5 6-.2 6-.3 1.2.8 1.3.7-1.3 1.6-1.3 1.6v8.5l1.1.3 1.1.4v3.9l-1.3.3-1.2.4-5.5.6-5.5.5zm45.3-.3-1.9-1.1-1.4-3.4-1.4-3.3v-6.8l1.9-2.1 1.8-2.2h7.2l1.5 1.6 1.6 1.5.1 1.2.1 1.2.2 4.4.2 4.3-2.7 2.9-2.7 2.9h-2.7zm18.6-.4-2.2-1.6.3-6.9.3-7 2.4-2 2.4-2h4.5l2 2 2 2v2.5l-2.2 1.4-2.1 1.3-1.8-2.3-1.7-2.4-.7 2.8-.7 2.7.6 2.5.6 2.5h2.8l.6-2.5.6-2.5h2.9l1.1 2 1 2-1 2-1 1.8-1.6 1.6-1.5 1.6h-5.5zm66.7.4-2.5-.8-2.8-.6-2.9-.6.8-2.7.9-2.7v-11.5h5.4l.6 1 .6 1 2.5-1.6 2.4-1.6 1.4 1.1 1.4 1.2.5 5.7.5 5.7.3 1.9.4 1.9-3 1.8-3 1.8h-.5l-.5-.1zm3-7.5v-1.4l-1 .6-1 .6v1.9h2zm43.3 7-.6-1.6-3.8.6-3.7.6-1.4-.5-1.4-.6-.2-8.4v-8.4l1.1-1 1.2-.9 6.5.7 6.5.6-.3 5.7-.4 5.6 1 1.9 1 1.8-2.4 2.8-2.4 2.8zm-1.3-11v-4.4h-3.1l-1.5 1.4-1.4 1.5v4.8l2.3 1 2.2 1 .8-.4.7-.4zm-194.3 10.3-.5-1.4.9-1.4.9-1.4v-6.7l-1.6 1.3-1.6 1.3-1.4-2-1.5-1.9.3-1.5.3-1.4 2.5-1.3 2.5-1.3h9.1l1.2 1.2 1.2 1.2v4.1l-1 1.5-1 1.5-2-1.3-2-1.2v6.3l1.6 1.8 1.6 1.8-.7 1-.6 1.1h-7.7zm46.7.5-1-.7-.7-1.7-.6-1.7-2.5-.7-2.5-.6-.6-2-.7-1.9-.2-4-.3-3.9h4.8l.3 1.3.4 1.2.6 2.8.7 2.8.9-.6 1-.6.6-3.5.7-3.6 2.2 2.4 2.3 2.3.6 6.1.7 6.1-2.3.7-2.3.6h-1l-1-.8zm55.9.1-1.3-.5v-3.7l1-.6 1.1-.7-.6-4.2-.7-4.1-1-1.2-1-1.2.7-1.1.7-1h4.6l4.7.3 2.7-.8 2.6-.7 1.3 2.3 1.2 2.3-2.7 2-2.6 2.2v2.4l2.5 1 2.5 1v3.8l-1.4 1-1.3 1.2-6 .4-5.8.4zm21.5-3-1.5-2.8-.7-3.6-.7-3.7 2.7-3 2.6-3.2h4.9l2 1 1.8 1 1.1 4 1.1 4.1-.7 2.2-.7 2.2-2.6 2.2-2.6 2.3h-5.1l-1.6-2.8zm105.9.1-2.6-2.6-.3-4.1-.3-4.2 1.8-2.8 1.8-2.7h7.6l2.3 2.5 2.3 2.4-.6 5.2-.6 5.2-1.7 1.8-1.7 1.9h-5.4zm63.8 1-1.6-1.6 1-1.2.9-1.1.4-3.8.4-3.8-2.3.5-2.2.6-1-2-1-1.9.5-1.5.6-1.6 2.4-.6 2.4-.6v-4.8h4.1l1 2.9 1 2.9 2 .5 1.9.5.4 1.4.3 1.3 1.1 4.7 1.2 4.7-.7 1.6-.6 1.7-2.6 1-2.6 1-2.7.3-2.8.4zm8-12.4-.6-1h-1.9v2h3.1zm167.3 13.2-1.8-.3v-1.6h-4.3l-4.2.2-1.4.9-1.4.9-1.6-2.1-1.6-2-1.9 1.3-1.8 1.4-5.2-.6-5.1-.6-1-.9-1-.9.3-6.3.4-6.4-1.2-.7-1.1-.7 1.2-1.4 1.1-1.4h14.6l-.1 6.7-.2 6.8 2.6.3 2.5.3 1.7-1.9 1.7-1.8.6-5 .7-4.9 1.1-.7 1.1-.8h7.4l1 2 1.1 1.9-1 .6-1 .6.2 4.7.2 4.7 1.3 2.1 1.3 2.1-.6 1.6-.6 1.5-1.1.4-1.2.4-1.8-.4zm-3.8-8.8v-1.4l-1 .6-1 .6.5 1 .6.9h.9zm-213.7 7.4-2.2-1-.6-1.7-.7-1.6-.5-4.3-.4-4.2 3-3 3-3h5l1.5 1.6 1.6 1.5v4.7l-1.6.6-1.5.6-2-1-1.8-1h-2.1v7h4.1l1.5-1.5 1.5-1.4 1.4.5 1.5.6v5.5l-2.5 1.1-2.6 1.2h-1.7l-1.7-.1-2.2-1zm20.4 0-1.6-1.3-1-2.8-1.1-2.8v-5.9l3.1-3 3.2-3h3.6l2.7 2.3 2.7 2.3-.7 2.2-.7 2.2h-4.5l-1.2-1.2-1.3-1.3-.8 1.3-.8 1.3.5 2.5.4 2.4h1.3l2.5-1.5 2.5-1.4h1.3l1.2-.1v5.8l-2.5 1.6-2.4 1.6h-4.7l-1.7-1.3zm62.7-1.2-.6-1.4 1.1-2 1.1-2v-2.9l-.2-2.8-.5 1.3-.5 1.2h-3.8l-.6-2.4-.6-2.4 1.2-2.1 1-2.1h8.8l1.5-.6 1.4-.5 1.7 1.6 1.6 1.6v7.2l-3-.6-3-.6v2.4l1.5 2.9 1.5 2.8v2.8h-9.1zm40.7.5-1.5-1 1.2-2.7 1.3-2.7-1.2-5.5-1.1-5.5 1.4-.8 1.3-1 2 .6 2 .5h3.6l2.4 2.4 2.5 2.5-.6 1.5-.6 1.4 1.2 2.2 1.2 2.2-1.2 2.8-1.2 2.8-3 .6-3 .6h-5.3l-1.4-1zm25.8-1-2.3-1.8 1.3-3.2 1.3-3.1h4.8l1.5 1.6 1.6 1.5v3.8l-1.6 1.5-1.5 1.6h-2.7zm16.6.5-1.9-1.4 1.6-2.3 1.5-2.4-.4-7.5-.4-7.5 1-1.5 1-1.5 1.8 1.1 1.8 1.1.3 3.2.3 3.2 1.7-.3 1.7-.3.3-4.3.3-4.2h2.8l1.5 2.2 1.6 2.2v3.7l-3 3-3 2.9h-3l-1.2 2.6-1.2 2.6 1.7 1 1.7.9v3.7l-1.6.6-1.6.6h-3.4zm-61.3-1.6-3.2-2v-9.8l1.8-2.1 1.7-2.2 3.6-.5 3.6-.6 2.8 3.6 2.7 3.5-.7 4-.7 4-1.7 2-1.8 2.1h-4.8l-3.2-2zm128 1-2.2-1v-2.9l1-.6 1-.6v-6.9l-1-.6-1-.6v3.2l-1.6.6-1.6.6-.9-1.4-.9-1.4v-4.4l1.6-1.5 1.5-1.6h11.1l-.5 1.8-.5 1.7-.6 1.6-.7 1.7 2.8.7 2.8.7 1.8 1.9 1.8 2-.6 2-.7 2-2.1 1.3-2.2 1.4-3 .5-3 .6-2.2-1zm38.6-.3-2-.7.7-5 .7-5.1-1.2-3-1.3-3 1.2-1.2 1.2-1.2 6.7-.2 6.7-.1 1.2 1 1.2 1-1.1 2.4-1.1 2.4 1.3 5.5 1.3 5.6-.9.8-.9 1-5.8.3-5.8.3zm-683.2-10.6-2-2.1 1.3-2.6 1.2-2.6 2 1.7 1.9 1.8v2.3l-1.3 1.8-1.3 1.7zm459.4-15.9-1.1-.4v-4.7l2-1 1.9-1.1h7l.6 2 .6 2-1 2-1.1 1.9-3.9-.2-3.8-.1zm97.1-21.8-1.2-.6v-3.7l.9-.5.8-.6.8-9.1.7-9.2-1.3-.8-1.3-.8.4-.4.5-.4 5.2-.5 5.2-.5 2 2.2 2 2.1.7 4.5.5 4.4-2.4 2.8-2.4 2.7h-5.2v4h2.1l-.3 2.3-.3 2.2-3 .2-3 .2zm9.6-17.1-.3-3.8h-3l-.3 2.3-.4 2.3.6 1.5.5 1.4h3.2zm116.3 15.3-1.2-1.4 1.1-4.3 1.2-4.3.1-6.6.2-6.5-.8-1.6-.8-1.6 4.2-.6 4.2-.5 2.4.9 2.4.9 1.3 3 1.3 3.1-1 4.7-.8 4.7v5l-.4 1.3-.5 1.3-1.5-1.5-1.5-1.5v-2.1h-4v2.9l1.7 1 1.6.9-.6 1.6-.6 1.6h-4l-1.4.5-1.4.6zm10.5-16 .6-2.5-.7-2-.6-2-2 1.2-2 1.2-.5 1.7-.5 1.8 1.3 1.4 1.3 1.5h1.2l1.3.1zm-484 14.7-.8-.8-5.6-.5-5.7-.5.3-6.2.4-6.1-1-2-1.2-2 1.3-1 1.2-1h14.4l.5 1.4.5 1.4h-1.8v10.5l1.4 2.4 1.4 2.5-.5 1.3-.5 1.3h-3.5l-.7-.7zm-2.5-10.3v-5h-4v8.8l1.3.5 1.2.5.8.1.7.1zm-217.1 9.2-.1-.7-.2-5.5-.2-5.5-.8-2.7-.8-2.6 2.9-.5 2.8-.5 5.5.1 5.5.2.3 2.2.3 2.2-2 1-2.1 1.2v3.9h1.9l1.5 1.6 1.6 1.5v1.4l-.9 1.3-.8 1.4-7.2.3-7.1.4zm7.1-5.3v-.9h-2v3.1l1-.6 1-.6zm21.5 5.4-4-.3-2.1-.5-2.2-.5-.6-1.6-.6-1.5 1.6-3 1.6-3.1-1.1-1.1-1.1-1.1v-3.5l2.2-1.5 2.2-1.6h3.7l2 2 2.1 1.9.5 4.5.6 4.6h2.7v3l.3.6.2.7-2 1.1-2 1.2zm38.5 0-1.5-.6-1.8-2-1.7-2v-8.2l1.3-2.5 1.2-2.5 2.5-.8 2.5-.9 2.7 1 2.8 1.2v5.1l-1.6.6-1.7.6-2-1.2-1.9-1.2-.3.3-.3.3-.6 3.2-.7 3.2 2 1 2 1.1 1.5-2.1 1.5-2.2 1.5.6 1.6.6v3.8l-1.8 1.5-1.7 1.6-2 .5-2 .5zm17 0-.2-.3v-8.7l-.2-8.8 6.8-.1 6.7-.1.8 1.6.8 1.6-.4 1.3-.5 1.2h-3.8v3.8l2.7 2 2.8 2-1.1 1.9-1.2 1.8-2.8-.2-2.8-.2-3.8.8-3.8.9zm-42.1-1.2-.1-.6-.2-6.5-.2-6.5-.4-1.5-.5-1.4 7-.8 7-.7 1.5 1.4 1.4 1.5-1.2 1.2-1.2 1.2v10.4l1.2.4 1.2.4-.7 1.1-.7 1.1h-14zm8.1-4.7v-1.4h-3v2.7l.6.6.7.6.8-.5.9-.5zm73.8 5-.8-.7v-3.7h2.1l-.3-4.8-.4-4.7-.8-1.7-.8-1.8 1.8-.7 1.9-.6.8-1.4.8-1.3h7.6l1.8 2 1.8 2-.6 6-.7 6 1 .5 1 .6v3.9h-8.5l-3.5.6-3.5.6-.8-.8zm10.2-7v-2.4l-1.5 1.5-1.5 1.5v2.1h3zm-2.6-5 .6-1.6v-.8h-3v4h1.8zm36.1 10.2-2.4-2.4-1.1-4.3-1.2-4.3.9-4 .8-3.9 1.7-1 1.7-1.2 1 1 1 1-1 3.7-1.2 3.7.9 4.3.9 4.3 2.3.3 2.2.3v-2.6l2-2.5 1.8-2.4 1.6 1.3 1.6 1.3v4l-3 2.9-2.8 2.9h-5.3zm24.5 1.7-1.5-.5-1.7-2.2-1.8-2.1v-8.2l2-2.7 2.1-2.6h5l2 1 2 1.2 1.4 3.2 1.4 3.3-.6 2.4-.6 2.4-2.5 2.8-2.6 2.7h-1.5l-1.6-.2zm38-.7-1-1.6 2.4-1.6 2.5-1.6.6-2.5.7-2.6-.6-1.8-.6-1.8-2-.5-2.1-.6.4-1.3.5-1.3 2.7-1 2.8-1 2 2.5 2 2.4-.7 3.4-.6 3.3 2.5 2 2.6 2v4.9h-12.8zm91 .7-1.5-.4-2.2-1.1-2.2-1.1-1.2-3.4-1.1-3.5.6-3 .6-3.2 1.7-1.8 1.6-1.8h5.3l2.2 1.6 2.2 1.5v2.4l-2 1.2-2 1.3-.5-1-.6-1h-3.9v6.8l1.4.5 1.5.6 2.3-1.9 2.4-1.8 1 .6 1.1.7v8.5h-2.6l-2.6-.2zm-214-2-2.2-1.9-.5-4.7-.6-4.8 2.3-2.4 2.3-2.5h4.5l1.7.6 1.6.6 1.4 2.9 1.5 2.8v5.2l-1.1 2.2-1.2 2.2-1.1.7-1.1.8h-5.3l-2.2-1.8zm144.4.3-1.2-1.3-.6-2-.6-2 2-2.6 2.1-2.7h-3.1v-3.9l2.2-1.5 2.2-1.6h4.6l2.1 2.1 2.1 2.1-.5 3.2-.4 3.1.4 1.3.5 1.2h2.6l.6 1.5.5 1.4-1.3 1.4-1.4 1.3-5.8.2-5.9.1zm18.2-.2-1.6-1.4v-2.5l1.2-1.2 1.2-1.2h4.4l.6-3.1.6-3.2-1-1.3-1.2-1.3.7-1 .6-1.1h9.4l1.2.8 1.3.8-1.5 2-1.4 1.9v4.2l-.1 4.2 1.7 1 1.7 1-1.3 1.5-1.3 1.6h-5.4l-1.2-1.2-1.2-1.2-2 1.2-2 1.2h-1.9l-1.5-1.6zm23.6.7-1.4-.8 1-3.4.8-3.4-.2-2.5-.1-2.5-.8-1.8-.7-1.8.5-.5.5-.6 7.2-.3 7.1-.4.6 1.5.5 1.4-1.1 1.4-1.2 1.4.6 2.9.7 2.8 1 2.3 1.2 2.2-1 1-1 1-6.4.5-6.5.4zm6.8-11.7v-1.4l-1 .6-1 .6v1.9h2zm39.1 11.7-1.4-.9 1.2-3.2 1.1-3.3v-4.7l-2 1.2-2 1.3-1-1.5-1-1.5.2-2.5.3-2.5 5.2-.7 5.2-.8 2.6 1 2.5 1v7l-1.3.1-1.2.1-1.8-.1-1.7-.2v2.9l1.8 3.1 1.7 3.1-1.5 1-1.5 1h-4zm61.1-1.7-3.2-2.4v-10l2.5-2.4 2.4-2.5h4l1.6.6 1.6.6 1.3 2.7 1.3 2.6-.2 5-.2 4.9-2.3 1.8-2.2 1.8h-3.3l-3.3-2.6zm-44.9 0-.6-1.5 1.2-1.2 1.1-1.1v-6.7l-1.1-2-1.1-2.2 1.2-.7 1.2-.8h13.8v2.8h-2.2l.7 4.7.7 4.8 1 1.2 1 1.3-.6 1.5-.5 1.5h-15.2zm28-.4-.5-2h-2.4l-1.7-1.3-1.7-1.2-.5-6.3-.6-6.2h2.6l1.5 1 1.5.9.1 3.1.2 3.1.6.7.7.6 1-1.4 1-1.5-.5-2.8-.5-2.7h1l2 1.9 2 1.9.4 4 .4 4.2 1 1.8.8 1.7-.4 1.2-.5 1.3h-7zm37.3 0-2.6-2.1v-9.6l2-2.6 2-2.6 2-.6 2.1-.7 2.4 1.6 2.5 1.6v5.1l-1.5.6-1.6.5-1.9-1.7-2-1.7-1.1 2.5-1.2 2.6.6 1.6.7 1.5 1.4.6 1.4.6 2.2-2.2 2.1-2.1 1.5 1.2 1.4 1.1v1.8l-2.4 2.5-2.3 2.6h-5zm23.9 1-6-.5.4-1.5.5-1.5.4-4.8.4-4.8-1.3-1.5-1.2-1.5 1-1 1.1-1.1h10.7l1.6.1 1.7.1.6 1.5.5 1.5-.5 1.4-.5 1.4-2 .5-1.9.5v3.2l2.5 1 2.5 1v4.9l-2 1-1.9 1.1-.3-.2-.3-.1-6-.6zm2.5-6v-1h-2v3.1l1-.6 1-.6zm16.4 5.2-1.1-.7-1.2-2.2-1.1-2.2v-8l2.5-2.6 2.6-2.5h3.8l2.6 2.3 2.6 2.2.5 4 .5 4-2 3.2-2 3.3h-6.6zm17-.8-.7-1.5 1.2-2.5 1.1-2.5v-5.8l-1-.6-1-.6v-3.6l4.1-1.2 4.1-1.3 4.4 1.3 4.4 1.3v2.2l-1.1 1.1-1.1 1.1.5 4.4.6 4.3.3 2.5.3 2.5-7.8.2-7.8.2zm7.8-10.7.5-1.2-.4-1.3-.5-1.2-.9.6-.9.5v3.9h1.8zm34.8 11.3-1.3-.8 1.2-3.2 1.1-3.3v-6.3l-1.2-1.2-1.2-1.2.8-.7.8-.8 7.9-.4 7.9-.3v3.1l-1 .6-1 .6v9.9h2v3.9l-1.8.4-1.7.5h-11.1zm9.5-8.5v-5l-1.7-.3-1.6-.3-.7 3-.6 2.8.7 2.7.6 2.7 1.7-.3 1.6-.3zm13.3 7.7-1.8-1.3.3-7 .4-6.9.4-.4.4-.3 2.2-1.2 2.2-1.1 2.5 1 2.5.9 1 2 1.1 2v7l2 .6 2 .6v2l-1.3 1.4-1.3 1.3-5.4.3-5.3.4zm6.2-12.2v-1h-3v2h3zm38.5 12.6-2-1.4 1.3-2.6 1.2-2.7v-3.9h-5v-5.6l1.2-1.2 1.2-1.2h10.1l1 .8 1.2.7.6 2.3.6 2.4-.6 1.4-.6 1.5-3-.7-3-.6.7 2.8.7 2.9 1.5 1.1 1.4 1.1v2.3l-2.6 1-2.5 1h-1.5l-2-1.4zm19.6.6-1.3-1 .7-2 .6-2.2h2.9v-7.9l-2.1-1.5-2.2-1.5.6-1.5.6-1.6h4.2l2 1 1.9 1v12l2.5 1 2.5 1v1.9l-.8.5-.8.5-5 .6-4.9.6zm18.9-1.8-1.2-1.4 1.1-1.4 1.2-1.4-1-5.8-1-5.9.7-.6.7-.6 6.7-.6 6.6-.6 1.2 1.4 1.1 1.4-1 2-1.1 2v5.9l1.5 1.2 1.5 1.2v2.7l-1.8 1-1.7.9h-12.4zm42.5-.2-.8-1.7v-15l7.7-.3 7.6-.3-.4 5.8-.5 5.8 1.6 2.4 1.5 2.3-.9.8-.8.7-7.1.7-7.2.6zm8.6-7.3.5-3.4-.8-1.8-.9-1.8-1 .6-.9.6v10l1.2-.3 1.3-.5zm33.1 7.2-1.3-.8 1-4.6 1-4.6-1-2.7-1-2.7.5-1.4.6-1.4 7.7.3 7.8.3-.4 1.5-.4 1.5-.5 3.9-.4 3.8 1.3 2.4 1.3 2.4-1.2 1.2-1.1 1.1-6.3.3-6.3.4zm-537.8-12.5-1.6-2.5.4-2.3.3-2.3 2.1-.3 2.1-.3 1.2 3 1.3 3-.7 2-.6 2.1h-2.9zm437.8-9.7.3-1h2l.3 1 .4 1.1h-3.4zm-508-28-2.2-.8v-1.7l1-1 1-1 .2-10.7v-10.7h8.9l2 1 1.8 1 .6 3.8.7 3.7.4 1.6.4 1.6-2.6 2.6-2.7 2.7h-3.7l-.6 1.5-.5 1.6 1.6 1.8 1.6 1.7-1.2 1.2-1.2 1.2h-1.7l-1.5-.1zm8.8-18.2v-3.8l-1.8.3-1.7.3-.3 4-.3 3.8 1.3.8 1.2.8.8-1.2.8-1.2zm73 17.4-1.4-1 1-1.3 1.1-1.3.6-9.2.7-9.2-1-.6-1.1-.7.4-1.1.4-1.2 4.4-.2 4.4-.1 2.2 1 2.2 1.1 1.2 3.4 1 3.4-.6 2.7-.6 2.7-2.1 2.3-2.1 2.2h-4.7v3.8l1.5.6 1.5.5-.6 1.6-.6 1.5h-6.3l-1.4-1zm10.8-17 .3-4.3-2.3.4-2.3.3-.3 2.8-.3 2.9.5 1.5.6 1.4 1.7-.3 1.8-.3zm137.5 16.2-2.3-.4v-1.7l1.5-3.6 1.5-3.6-.2-2.7-.2-2.8.2-5.1.2-5.1 4-.7 4-.6 2 1 2 1 .9 3.5 1 3.5-1 3.5-1 3.4-1.5 1.6-1.5 1.5-2.5-.6-2.4-.6v3l1.5 1.2 1.5 1.2v2.6l-1.6.6-1.6.6-1.1-.1-1.2-.2zm9.5-17.1.3-4.4-2.3.4-2.3.3-.3 2.8-.3 2.9.5 1.5.6 1.4 1.7-.3 1.8-.3zm368.2 12.8-1.4-.9 1.4-2.6 1.4-2.5v-9.5l.1-9.4 4.8-.6 4.7-.7 2 2.3 1.8 2.4.6 4.3.6 4.4-2 2.9-2.1 2.9h-4.6l-.6.7-.7.7 2.2 2.3 2.2 2.4-1.4 1-1.5.9h-6zm11-17.2v-3.8l-1.5-.5-1.5-.6-1.5 1.2-1.5 1.2v4.4l1.6 2.2 1.6 2.3 1.4-1.2 1.4-1.1zm-720.8 15.2-2.3-1-1.5-3.6-1.5-3.7.6-2.6.6-2.6 2.1-2.3 2.1-2.2h5.6l2.1 2.2 2 2.3.6 2.2.6 2.3-.6 3.5-.7 3.4-2.2 1.6-2.1 1.5h-1.6l-1.5-.1-2.3-1zm20.5-.4-2.9-1.3-.9-1.4-.9-1.4v-9.4l2.6-2 2.7-2.1h4.7l2 2 2 2v1.8l-1.6 1.3-1.6 1.3-2-1.3-2-1.3-1 1-1 1 .7 3 .7 3.2.9.6 1 .6 1.8-2.3 1.8-2.2 1.6.6 1.7.6v1.9l-1.7 2-1.8 2-2 .5-2 .5zm16.8.4-.7-1 .6-3.8.6-3.7-1-3.5-1-3.5 1.7-1.2 1.7-1.3 2.4 1.6 2.5 1.6.9-1.6.9-1.6h6.4l1.4.9 1.3.8-1.2 2.3-1.2 2.2.6 3.7.5 3.6.3 2.5.3 2.5-8.2.3-8.1.3zm25.5-.7-2.5-1.7-.7-1-.8-1.1v-7.4l1-2.5 1-2.5 2.5-.7 2.5-.6 2.4.6 2.4.6 1.7 3.6 1.7 3.6-.6 3.4-.7 3.3-2.6 2-2.6 2.1h-2.3zm21.4 1-1-.8v-5l.1-5h-5l-.3-2.6-.3-2.6 1.3-1 1.3-1.1 6-.4 6-.3 1.5 2.7 1.5 2.8-1.1 1.7-1.2 1.8-2.2-.3-2.2-.2.6 3.2.7 3.3.2 2 .2 2-2.5.3-2.5.2zm125-.6-1.9-1-1.3-1.6-1.3-1.6.4-5.2.4-5.3 1.8-2 1.8-2h6.4l1.7 1.9 1.7 1.9v13.1l-1.1.6-1 .7-2.9.8-2.8.8-1.9-1zm6.6-6.7v-1h-4v2h4zm-93.8 5.7-.9-1.2-.6-1.8-.7-1.8 1.5-1.6 1.6-1.5-.7-3.3-.6-3.3 2.3-1.6 2.3-1.6h3.6l2 2 2 2v6.9l2.1 2 2 2-.5 1.9-.7 2h-13.7zm7.8-11.1v-.5l-1-.6-.9-.5-.6 1-.6 1h3.1zm31.5 11.4-.6-1 1.1-2 1.1-2.1v-14.9h3.1l.5 2 .5 2h1.1l2.2-2.6 2.3-2.7 1.2.8 1.2.7-.6 2.4-.6 2.4.6 4 .7 4h4.6l.6 2 .7 2.1-1.8 2-1.7 1.9h-2.3l-1.9-1.4-1.8-1.3-.6-4.4-.6-4.4-1.8-.3-1.7-.3v7l1 .6 1 .6v3.9h-6.9zm64.2 0-1.7-1.1 1-1.9 1-1.9v-8.9l-1.2-.4-1.2-.4.7-1.7.6-1.7h4.8l1.5 1.8 1.6 1.7.4 2 .5 2 .8-3 .8-3 1.1-.7 1.1-.8h5.7l-.7 2.3-.7 2.2-.4 4.2-.4 4.2 1 .6 1 .6v3.6l-6.1.7-6.2.6h-3.2zm19.8-1-1.5-1.7v-4.5l3 .4 3 .4.5-1.4.5-1.4v-3.8l-1.2-1.9-1.2-2 .4-.4.5-.4 5.7-.7 5.8-.7.6 1.6.6 1.7-1.6 1.8-1.6 1.8v6.6l1.7 1.9 1.7 1.8-1 .9-.9.9-6.7.5-6.7.5zm9.8-5 .5-2h-1.8v4h.8zm12.9 5.8-1.2-1.2v-3.5l1.6-1 1.6-.8-1.3-3.6-1.3-3.6 1.3-1.5 1.3-1.6h3l-.7 3-.7 3h5.4l-.5-1.3-.4-1.2.9-1.8.9-1.7h2.8l.6 4.8.6 4.7 1 3 1 3-1.8 1.2-1.7 1.3h-11.2zm100.8-1.8-1.2-3-3 2.5-3 2.5h-3.6l-3.1-3.5-3.1-3.6v-4l1.4-3.4 1.4-3.3 2.2-1.2 2.2-1.2 2.2.6 2.1.5 1.9 3.1 1.8 3.1-.6 2.3-.6 2.3 2 1.7 1.9 1.8 1.7-.4 1.8-.3 1.3-4.5 1.2-4.5.6-2.8.5-2.7h10v3.9l-1 .6-1 .6v8l1.5 2.3 1.5 2.3-.6 1.7-.6 1.6h-2.8l-.6-1-.6-1h-9.8l-.6 1-.6 1h-1.6zm11.8-7 .2-3.5-1.5 2-1.5 1.9v3.8l1.3-.4 1.2-.5zm-18 .4-.7-.6-1.8.6-1.7.7 1.4 1 1.5.8 1-1 .9-.9zm-52.4 7.9-.9-.3v-8.7l.2-8.8 6.7-.5 6.8-.5 1 .7 1.2.6-1.4 4.1-1.3 4.1 1.1 2.5 1.2 2.6v3.9l-.8.1-.7.2-6.1.1-6.1.2-1-.3zm8.6-9.3v-5h-2.9l-.7 3.5-.6 3.5.6 1.5.5 1.5h3.1zm80 8.4-2.5-1.6-1.3-2.6-1.2-2.6v-5.1l2-3.1 1.8-3.1 2.9-.6 2.8-.5 2.3 2 2.2 2.1v3.6l-2.2.7-2.1.6-1.3-1.7-1.3-1.7-1 .7-1.1.6v6.7l1.4 1.2 1.5 1.2 1.8-2.1 1.7-2.1h3.3l.6.6.6.6-1 2.2-1 2.3-2.9 1.6-2.8 1.7h-.7zm21.4-.8-1.9-1.5 1.3-1.2 1.2-1.3v-3l-.1-3.1-.9-2-.9-2v1.7l-.1 1.7-1.1.7-1.1.7-.9-1.4-.9-1.4v-3.3l4-1.6 4-1.6h5l1.6 2.5 1.6 2.4-.4 1.8-.3 1.8-3.3.3-3.2.3v3.1l1.7 3 1.8 2.9-1.5 1-1.5.9h-2.1zm18.6.7-1.5-.5-1.3-1.6-1.2-1.6v-4.4l1.5-1.2 1.6-1.3-1.8-2-1.8-1.9 2.8-2.4 2.8-2.4h3.9l2 2 2 2v8.8l2 .5 2 .5v4.3l-1.3.3-1.2.4-4.5.5-4.5.5zm3.8-13.7.4-1.8-1.4.4-1.3.5-.3 1.7-.4 1.8 1.4-.4 1.3-.5zm14.7 13.4-.6-1 1-2 1.1-1.9v-7l-1-.6-1-.6v-3.7l1.6-.6 1.6-.6h7.7l1.5 1.6 1.6 1.5v6l1 1.9 1 1.9-2.6 3-2.6 3.1h-9.7zm20-1-.7-1 1.2-1.5 1.2-1.5-.5-3.7-.5-3.8-.7-2.2-.7-2.2 2.3-.5 2.4-.6 5.5-.2 5.5-.3-.3 7.3-.2 7.2h2v2.8l-1.6.6-1.6.6h-12.7zm24.8.3-1.3-.5v-2.8h2.1l-.3-3.3-.3-3.2-2.2.3-2.2.3-.7-2.7-.7-2.7 1-1.6 1-1.6 6.7-.3 6.6-.3 1.1 2.4 1.1 2.4-1.2 2.3-1.2 2.2-1.8-.5-1.9-.5-.5 1.3-.4 1.3 1.4 2.7 1.4 2.7v2.8h-3.2l-3.3-.2zm19.7-1-2.2-1.9-.5-4.5-.5-4.5 2.7-3.2 2.7-3.2h5.4l1.8 1.3 1.9 1.4.3 5.7.3 5.8-1.6 2.4-1.5 2.4h-6.6zm22.8.8-4.8-.7-1-1-1.2-1.2.7-2.1.6-2.1h5.8l.7-3.6.7-3.6-1.3-.8-1.3-.8.6-1.6.6-1.6h10.1l.7 1.6.6 1.6-1 .7-1.1.6-.3 2.5-.2 2.5.1 2.8.2 2.7h3v2.9l-2 1-1.9 1.1-1.8-.1-1.8-.2zm16.8-.7-1.6-1.4v-1.5l1.3-1.3 1.2-1.2v-9.4l3.7-1.8 3.8-1.9 3 .7 3.1.7-.7 3.1-.7 3.2.2 3.4.2 3.4 1.6 1.2 1.5 1.1-1.7 1.7-1.6 1.7h-3.2l-1.8-1.5-1.7-1.6-1.5 1.6-1.6 1.5h-2zm8-4.6-.4-1.3-.1 2-.1 1.8.6-.6.6-.6-.5-1.3zm.9-7.4v-1.9l-1.8-.3-1.7-.3-.6 1.6-.7 1.7 1.4.9 1.4.9 1-.3 1-.4zm16 12.9-5-.4-1-1-.9-.9 1.2-1.2 1.2-1.2v-8.7l-1-2-1-2 1.5-.5 1.5-.6 2.5.6 2.6.7.6 3 .5 2.9h1.8v-5l2.4-1.5 2.3-1.5 1.7.6 1.6.6v2.4l-1 1-1.2 1.2 1.5 5.7 1.4 5.6-1.4 1.5-1.4 1.4-2.7-.2-2.7-.2zm59.6-.2-1.4-.9.6-1.8.5-1.9 2.2-8 2.2-8 1-1.2 1-1.3h3.8l2 3.2 2 3.3v7.4l1 2.6 1 2.6 1.6.6 1.6.6 1-1.4.9-1.4-.3-6.5-.3-6.5 2.6-.3 2.6-.3 1.5 3.2 1.6 3.1 1.8-3 1.8-3.2h5.4l.5 1.3.5 1.4-.9 1.4-.9 1.4v7.5l1.2 2 1.2 2-1 .9-1 1-12.4.2-12.5.3-1.3-.8-1.3-.8-2.7.7-2.7.6-1.5.4-1.5.5-1.4-1zm9.7-4.9.4-1.2h-4.2v3.1l1.7-.3 1.6-.3zm-48.5 3.7-1-1 1.3-2.7 1.4-2.7v-4.4l-.9-.5-.9-.6-1.2 1.5-1.2 1.5h-2.8v-5.9l1.6-1.5 1.5-1.6h7.7l1.6.6 1.6.6v2.6l-1.5.6-1.5.5v3.1h5.7l1.2 2.6 1.2 2.6-.6 1.9-.6 1.8-3.7 1-3.7 1h-2l-2.1.1-1-1zm84.5-1.2-2.6-2.4-.7-3.1-.7-3.2 1.2-3.4 1.1-3.4 2.4-1.6 2.4-1.6h2.7l2.7 2.8 2.7 2.8v11.1l-2.3 2.1-2.3 2.2h-4.1zm37.8-.3-.6-1.7 1.1-1.3 1.2-1.4-.6-5.8-.6-5.7.7-1.1.7-1h7l7 .1v6l.1 6 .7 1.9.7 1.7 1-.6 1.1-.7 2.5.6 2.4.6v2.8l-1.6.6-1.6.6h-20.6zm28-5.1-4-.4-1.3-1.1-1.3-1v-4.8l1.8-.5 1.7-.5 5.8-.7 5.7-.6 1.5 1.2 1.5 1.2v4l-1.4 1.3-1.4 1.4-2.3.4-2.4.4zm-551.4-44.3-2.3-1v-3l1.5-.5 1.5-.6v-17.4l-1.1-1.1-1.1-1.1.6-1.1.7-1.1 4.2.6 4.2.5 2 .4 2.2.5 1.1 2.5 1.2 2.6v5l-1.5 3-1.6 3-3 .6-2.9.5v4.6l1.3.5 1.2.4-1.4 1.6-1.3 1.7h-1.7l-1.6-.1-2.3-1zm9.8-14.4 1.1-2.4-1.3-2.7-1.4-2.8-1 .2-1 .1-.8 2.3-.8 2.4 1 2.6 1 2.7h2.1zm365 11.6-2.3-1.8.8-2.3.7-2.3 3.5.5 3.4.6.6-1.6.6-1.6-1.8-5.3-1.8-5.4-1.9-1.6-1.8-1.7v-2.8l-.8.5-.9.5.5 3 .4 3-1.5.7-1.5.5.5 2 .5 1.9h-2.4l1.3 1.6 1.3 1.6-1.5.9-1.4.9h-15v-18l1.5-1 1.4-.9 6.6.5 6.5.5 3.3.4 3.2.4v-2.9h1.8l.6 1.6.6 1.6 5.3-.7 5.2-.6 1.8-.5 1.7-.5.6 1.5.6 1.6-3 2.9-3.2 2.9v8.1l-1.6.9-1.5.9-.6 4.2-.6 4.2-2.8 1.4-2.8 1.5h-1.9zm-11-13.3 1.1-2-.3-1.6-.3-1.7-1.8 1.8-1.7 1.7v3.9h2zm21-5.5v-1.4l-1 .6-1 .6.5 1 .6.9h.9zm-71.6 18.1-.6-1.5 1.1-1.4 1.1-1.4v-8.2l.1-8.4-.3-2-.3-2 5.3-.3 5.2-.3 1.4 1.3 1.3 1.3 1.2 2.4 1.3 2.3-.7 4.4-.6 4.4-3 1.5-2.8 1.5h-3.3l.6 2.3.7 2.2.2 1.5.2 1.5-3.8.3-3.7.3-.6-1.6zm11-15.1.7-3.7-1-1-1-1-1.6 1.3-1.5 1.2v5.5l.7.6.6.7h2.5zm-524.2 11.8-2.2-1.7-.8-4.5-.8-4.5-1.7-.3-1.7-.3v5.1l2 2 2.2 2.2-.6 1.4-.5 1.4h-8l-.6-1-.7-1 1.2-1.5 1.2-1.4-.4-7-.4-7 .8-1.5.9-1.5 1.4.5 1.5.6v2.8h3v-2.8l3-1.2 3-1.3.7.7.7.6-1.2 1.2-1.2 1.2v7.1l.6 2.2.6 2.1 2.4.6 2.4.6v4.9l-1.6 1.5-1.5 1.6h-1.4zm31.4.5-1.9-1.4 1.3-2.2 1.2-2.3-.5-3.7-.5-3.6-.7-2.3-.8-2.3 3.4.3 3.4.3 1.1 2.4 1.2 2.3 1.7-2.6 1.7-2.6h5.8l-.6 6.5-.6 6.5 1.3 1.6 1.4 1.6-1.5.9-1.4.9h-10.3l-1.4.5-1.4.5-1.8-1.3zm-16.8-1.2-2.6-1.5-.7-3-.7-3 .7-3.9.6-3.8 2.5-1.2 2.5-1.1h3.5l2 1.5 2.1 1.4.6 4.7.5 4.8-1 2.2-1 2.2-2.5 1-2.4 1.2h-1.4zm36.9.1-.6-1.5 1-3.1 1.1-3-1-4.3-1.1-4.1.4-.4.4-.4h12.8l1.3.2-.6 4.4-.6 4.3 1 .7 1.2.7v7l-4.8-.2-4.7-.1-2.6.7-2.6.7zm6.3-11.9v-2.2l-1 1.5-1 1.5v1.5h2zm20.8 12.6-2.8-.4v-2.9l1-.6 1-.6v-8.8h-2v3h-2.9l-.6-2-.6-1.9 1.3-2 1.3-2.1h13.5l.6 2.5.6 2.5-1.3 1.6-1.3 1.5-2.3-.6-2.3-.5v6.8l1.5.6 1.5.5v2.9l-1.6.6-1.6.6-.1-.1-.2-.2zm19.4-.1-1.2-.8-1-3.5-1-3.4v-7.2l1.8-1.6 1.9-1.7h6.1l2.5 3 2.5 3-.5 4.2-.6 4.3-2 2.3-2 2.2h-5.2zm7.8-5.8v-1.6l-1.3 1-1.3 1.2-1.2-1.2-1.2-1.2v3.4h5zm11.5 4.6-.7-1 1.1-1.4 1-1.3.5-3.6.5-3.6-.9-.6-.9-.5-.6 1-.6 1h-2.9v-5l2.3-1.4 2.2-1.4 4.8.3 4.8.2.5.5.5.6.2 2.8.2 2.9-2.6-.2-2.7-.1-.6 3.1-.6 3.2 2.1 1.6 2.2 1.6-.7 1.2-.7 1.1h-7.9zm21.8-.6-.6-1.5 1.2-1.2 1.1-1.1v-7.5l-1-.6-.9-.5-.6 2-.6 2h-2.7l-.5-1.4-.6-1.4.6-2.4.6-2.3 1.1-.7 1.1-.8h9.3l.5 1.4.6 1.5-1.4 1.1-1.4 1.1.5 1.4.6 1.4 2.8.6 2.8.6.7 2.6.6 2.6-2.2 2.3-2.2 2.4h-8.8zm37.8.7-1.4-1 1.7-3.4 1.6-3.6-1-4.3-.9-4.2.2-.2.2-.2 7.5-.3 7.5-.4-.3 6.3-.4 6.3 1.3 1.5 1.2 1.5-.9.8-.9.9-7 .6-7 .6zm10.1-5.2.4-1.2-.6-4-.5-4.2h-3v1.8l.2 1.7.1 3.5.2 3.5h2.8zm210.8 5.1-1.5-1h-19l-6-.3-6-.2.4-1.5.5-1.5.4-4.8.4-4.8-1.2-1.4-1.2-1.4.7-1 .6-1.1h5.7l.6 1.5.5 1.5h-1.9v2.9l3.1 1.7 3.2 1.6-.7-4.5-.7-4.4 2-.5 1.9-.6 1.3.9 1.4.8-.3 6.6-.4 6.5h5.1l1.5-2.2 1.6-2.2v-7.6l2-2 2.1-2.1 3.7.3 3.7.3.3 1.9.4 2-1.6.8-1.6.9v7.1l1.6 2.8 1.7 2.8-.6 1.6-.6 1.6h-1.6zm-3-7.5v-2.4l-1.5.5-1.5.6v3.8h3zm84.5 7.5-.7-1.1.7-3.7.7-3.7-1 1-1 1-.4 2-.3 2-3.4.3-3.3.3.8-3.3.8-3.3-.2-3.5-.3-3.5-.2-2-.2-2 7.2-.2 7.3-.3-.5 6.2-.5 6.1 1 1.2 1 1.2-.5 1.5-.6 1.4-2.9 1.7-2.9 1.7zm-255.2-1.5-2.1-1.5-1.2-3.6-1.2-3.5.6-3.3.6-3.3 2.6-1.1 2.5-1.2h3.7l2.3 1.8 2.2 1.9.1 5 .1 5.1-2.4 2.6-2.4 2.6h-3.3zm18.4-1.3-2.7-2.8v-9.4l2.6-2 2.7-2.1h4.3l2.2 2 2.2 2v1.8l-1.5 1.2-1.6 1.3-2.5-1.2-2.5-1.1h-.7l-.6 1.6-.6 1.6.6 2.4.6 2.4h3.3l1.3-2 1.2-2 1.5.6 1.5.6v4.9l-2.2 1.5-2.2 1.6h-4.2zm19.2 2.4-.1-.1-.2-8.7-.1-8.7 1.5-.3 1.5-.3h12l-.3 2-.4 2v8.3l1.1 2 1.1 2-1.2.8-1.3.8-6.7.2-6.8.1h-.1zm25.8-.3-1.7-.4v-2.4l1-3.8 1.1-3.9-.4-.5-.5-.5-2 1.1-2 1-.6-1.5-.6-1.6v-3.5l1.8-1.6 1.9-1.7h9.9l1.2 1.2 1.2 1.2v6.6h-5v5.3l1.7 1.2 1.7 1.3-1.3 1.6-1.3 1.6-2.2-.1-2.1-.1-1.7-.5zm18.7-.8-.6-1.5 1-1.3 1.1-1.3.7-4.2.7-4.2h-3.1l-.5 2-.5 2h-3l-.7-3-.7-3 1.2-1.5 1.2-1.5h10.8l.7 1.2.8 1.2-1.2.4-1.2.4v3.8h3.7l1.8 2 1.7 2-.6 2.4-.6 2.6-3 1.5-2.9 1.5h-6.2zm41.1.1-2-1.5 1.3-2 1.2-2v-5.8l-1.6-2.3-1.7-2.3 1.4-.9 1.4-.9 4.9.4 4.9.5 1.2 1.3 1.3 1.3.6 5.7.6 5.7-1.6 1.5-1.5 1.6h-4.4l-2 .6-2 .5-2-1.5zm62.2-1.4-1.7-1.9v-4l1.4-1.8 1.4-1.9-1.2-1.8-1-1.8 1-1.7 1-1.7 1.7-1 1.6-1 3.5 1.7 3.6 1.7v8.9l2 2 2.2 2-1.1 2-1.2 2.1h-2l-2-1-1.8-1-.6 1-.6 1h-4.6zm23 .7-1.8-1 1-1.3 1-1.2.3-3.4.3-3.4h-2.5l-2.5-.1-.3-2.4-.4-2.3 1-1 1.1-1.1 5.7-.8 5.6-.8 1.4.6 1.4.5v8l-3-.5-3-.6v6.2l1.7 1.2 1.6 1.2-.6 1.7-.6 1.6h-5.6zm60.5.2-1.3-.8.7-5.1.7-5.2-1.3-3-1.3-3.2 1.2-.8 1.3-.7 7.3-.2 7.3-.2.5 1.4.5 1.4-.9 1.4-.9 1.4v6.4l1 2.5 1 2.6-2 1-1.9 1h-4.1v-1.9l-2.7 1.5-2.8 1.4h-1zm200.2-.2-.6-1-7.2.3-7 .3-.4-1.6-.3-1.5 3.6-3.8 3.5-3.7.1-2.2.2-2.2v-2.5l.2-2.5 5.2-.3 5.1-.3.6 1.9.6 1.9-1.5 2.9-1.5 2.9v3l3.2-.2 3.3-.2 3-.9 3-.8.6-3.3.7-3.2-1.4-.6-1.4-.5v-2.6l5-1.1 5-1 2.5 1 2.5 1.2v1.6l-2 1.4-2 1.3.2 4.7v4.7l1.5.8 1.4.8-.7 1.7-.6 1.7-7.9-.3-7.8-.3-.7-.7-.7-.7h-2.5l-.6 2.5-.6 2.5h-2.9zm-3.4-8.4v-1.5h-2v3h2zm-237.9 7.6-1.3-.8 1.2-2.3 1.2-2.2-.5-4.2-.5-4.1-.4-2-.3-1.9 3.2-.7 3.3-.6 1.7 1.2 1.8 1.3-1.8 2-1.7 1.9v2.3h5.7l1.6 1.8 1.7 1.9v4.2l-2.2 1.5-2.2 1.6h-9.1zm149.9 0-1.5-.4-1.7-1.5-1.8-1.5-.6-3.4-.6-3.4 1.6-4.4 1.7-4.4 3-.6 2.8-.6 2.5 1.8 2.5 1.8.5 1.3.5 1.2-.5 1.5-.6 1.4-3.4 1.3-3.4 1.2v3.6h2.8l.6-1.5.5-1.5h4.1v3.6l-1.5 2-1.4 2.2-2.4.4-2.3.4zm-64.5-2.6-2.5-2.4v-8.5l2.7-2.8 2.7-2.8h4.2l3.3 3 3.3 2.9-.7 1.1-.7 1.1 1.8 1.3 1.7 1.3-1.5 2.2-1.6 2.2-3.6 2-3.6 1.9h-3zm80.2 1.9-.7-.7 1.1-1.4 1.2-1.3-.5-5-.5-4.8-1.6-1.6-1.6-1.7.5-1.4.6-1.4 7.4.5 7.4.4v-2h3.5l1.8 1.4 1.7 1.3-.5 1.5-.6 1.4-3 1.8-2.9 1.7v1.7l-.6 1.5-.5 1.5 2.5.6 2.6.6v3.9l-1.2.7-1.2.8-7.1.3-7.1.4zm23.7-.3-.9-.6-1.3-1.7-1.3-1.7 1.4-2.8 1.5-2.8-.5-2.5-.4-2.5 1.3-1.8 1.4-1.8h3.4l3.5.1 3.3.1 3.2.2v.8l-1.5 1.5-1.5 1.5v6l2.5.9 2.5 1v2.5l-1.5 1.8-1.4 1.9-6.4.3-6.5.3zm82.8-1.3-1.2-1.2v-4.6h3v-3h-2v-6.2l2.3-1.9 2.2-1.8h9l1.5.9 1.5 1-1.3 1.2-1.2 1.2v8.6h2v3.7l-1.8 1.6-1.9 1.7h-10.9zm-25.6-16.7-.6-1 1-.5.9-.6.5 1 .6.9-1 .5-.9.6zm-227.3-25.1-2.3-1v-1.6l1.3-1.2 1.2-1.3.2-10.7.1-10.7 4-.6 4-.5 2 .7 2 .8 1.2 2.1 1.2 2.2.3 5.4.3 5.3-2.4 1.6-2.3 1.5h-3l-.7 1-.6 1.2 1 1 1.2 1.2v3.4l-1.6.6-1.6.6h-1.6l-1.7-.1-2.3-1zm9.5-14.2 1.2-1.2v-4.4l-1.5-1.2-1.4-1.2-1 .7-1.1.6v6.6l.7.6.6.7h1.3zm-251.2 9.7-2-1.5h-8.6l.3-9.3.2-9.2h15l-.3 2-.4 2-.2 4-.2 4 1.4 3.2 1.5 3.1-.6 1.6-.6 1.6h-3.6l-2-1.5zm18.8.1-.5-1.4-3.5.1-3.4.1-1.2-1.2-1.2-1.2 1.4-2.4 1.3-2.5-.7-3.3-.6-3.3-.6-2.8-.7-2.8 5 .2 4.8.1 2.1-.7 2.1-.7 1.7 1.8 1.7 1.7-1 1-1.1 1.1v8l1.7 1.9 1.8 1.9-2 1.4-1.9 1.4h-3.5l.5 1.5.6 1.5h-2.2zm-132.7-1.4-1.7-1.9v-3.3l1.7-2.6 1.8-2.6-1.3-.5-1.2-.4v-3.5l1.8-1.6 1.9-1.7h5l1.6 1.8 1.7 1.9v8.5l2 .5 2 .5v3.6l-1.8.8-1.7.8-3 .2-3 .2-2 .6-2 .7zm-22.4-.7-.5-1.6 1.2-4.3 1.2-4.4-.6-2-.7-2 .7-2.6.6-2.6h2l2 2.5 1.9 2.4 1.3-.5 1.4-.5.6-2.5.6-2.4h2.9l.7 1.1.6 1.1.3 7.6.2 7.7.4 2 .4 2h-7l.2-1.5.1-1.5.7-3.2.7-3.1-2.1-1.2-2.1-1-1 .5-1 .6v5.5l1.1 1.1 1.2 1.2-.6 1.5-.6 1.6h-6.1zm43.9-.8-2.2-2.3v-9.4l2.3-2.5 2.2-2.4 2.2-.7 2.3-.6 2.6 2.6 2.5 2.6-.3 1.1-.4 1.2-1.7 1-1.6 1-1.9-1.7-1.9-1.7-.6.7-.7.6v6.5l1.4 1.1 1.4 1.2 2-2.2 2-2.1 1.1.7 1.1.6v2.8l-2.2 2-2.2 2.1h-5.3zm22 0 .5-2.2.3-1 .2-1v-2.9l-.2-2.8-1.5 1.2-1.4 1.2-1-.7-1.1-.6v-5.7l1.2-1 1.3-1 5.2-.3 5.1-.3 1.6 1.3 1.6 1.3v4.3l-1 1.5-.9 1.4-2-1.8-2.1-2v6.5l1.6 2.4 1.6 2.4-.7 1-.6 1.1h-8.1zm38.5.8-1.7-1.2v-3.3l2-1 2-1.1-1.7-3.5-1.7-3.5 2.4-2.5 2.4-2.6 5 .3 5.1.3-.4 6.8-.3 6.7 1.3 1.6 1.2 1.5-.9.8-.9.9-6 .5-6 .5zm8.3-12v-1.6l-1.7.3-1.6.3-.5 1.3-.4 1.2h4.2zm-25.5 10-2.5-2.4v-10l2.6-2 2.7-2.1h4.2l1.2.8 1.2.8 1.6 3.8 1.7 4-.6 3-.6 3.2-3 1.7-2.8 1.7h-3.3zm80.9 1.6-1-.6v-6.5l.1-6.5-.5-2-.5-2h7l1.3 2.8 1.4 2.8 1.6-3.3 1.7-3.3 2-.3 2.2-.3 1.2 1.5 1.2 1.5-1 2-1.1 2v6.2l1 2 1.1 2-1 1.3-1 1.3h-14.9zm24.7 0-1.3-.8 1.1-2.1 1.1-2v-7.8l-1.4 1.8-1.3 1.7h-3.3l-.6-2-.6-2 .6-2 .6-1.9 4.3-.6 4.4-.7 1.8.4 1.9.4-.3 3.2-.2 3.2h4.9l.4.8.4.7.7 2.8.6 2.7-2.4 2.5-2.5 2.5h-7.6l-1.4-.9zm37.7.3-.6-.5.4-6.2.5-6.2.5-6.2.6-6.3h7.6l.6 1.5.5 1.5h-2.9l-.6 2.5-.6 2.6.5.6.6.5 1.6-.6 1.5-.5 1-2.6 1-2.5h2l.8 1.8 1 1.7-.8 2-.7 2 1.3 3.7 1.3 3.6-.6 2.1-.5 2-3.3 2-3.2 2.1h-9zm11-7.6.3-2.8h-5.1l-.5 1.5-.6 1.5.6 1.6.6 1.5 2.2-.3 2.3-.3.3-2.8zm12.7 4.7-3.7-3.5.7-4.6.7-4.7.4-1.2.5-1.2 2.6-1.2 2.7-1.2 3.3 1.8 3.3 1.8 1.1 3.3 1.1 3.3-.6 3.4-.7 3.4-2.6 2-2.6 2.1h-2.6zm20.6 1-2-2.6-.6-2.9-.6-2.9 2-4.6 2-4.5h6.6l1 .8 1.1.7 1.7 2.5 1.7 2.4v8.5l-2.5 2.6-2.6 2.5h-5.8zm8.9-5v-1.5h-3.9l-.5.9-.5.8.6.7.6.6h3.7zm32.2 6.6-1.3-.8-.2-8.9-.2-8.9 6-.6 6-.6 1.5.8 1.5.7v9.4l-.1 9.3-2.5-.2-2.4-.2-1.5-.2-1.5-.2-2 .6-2 .7zm6.8-5.2v-2l-1 .6-1 .6v2.9h2zm193.5 5.1-.6-1h-10.9l-.7-1.2-.8-1.3-.2-6.5-.1-6.5-.4-1.9-.4-2 2.5-.6 2.5-.7 5.8.5 5.9.5.5 1.5.6 1.5-1.1 1.8-1.2 1.9v6.9l2.2 1.5 2.2 1.5-1.2 2.6-1.2 2.5h-2.9zm-3.2-8.1.6-2.1-1-2.4-.9-2.4h-2l-1 2-1 2 .6 2.5.6 2.5h3.6zm-218.9.5.3-7.6 1.4-.9 1.3-.8.8 1.2.8 1.2v3.5h3.8l.6-2.5.6-2.5h2l1 2.1 1.2 2.1-.5 2-.5 2 1 3 1 3-1 1-1 1-2.1-.7-2.2-.7.7-3.4.6-3.4h-5.2v8h-4.9zm42.6 4-2.2-3.5.5-4.6.5-4.5 1.4-1.4 1.3-1.4 3.1-.6 3.1-.6 2.7 2.9 2.7 2.8.5 2.3.6 2.2-1.3 3.3-1.3 3.2-2 1.7-2 1.8h-5.4zm65.3 2.4-2.2-1-1.2-5.4-1.2-5.3 1.7-2.5 1.6-2.6 2.8-1.4 2.7-1.4 2.2.9 2.2.8 1 2 1.1 2v6l-1.1.7-1.1.6 1.2.8 1.2.8-.7 2.1-.7 2.2-2.5 1-2.4.9h-1.2l-1.2-.1zm18.6-.4-1.4-1.7 1.3-.4 1.2-.5v-8.8l-1-2-1.2-2.1.9-.8.8-.8 4-.6 4-.6 1.9 1.5 1.9 1.4.8 5.3 1 5.3-1.2 2.1-1.1 2.2-2.8.5-2.8.6-2.4.6-2.4.6zm105.4 1-1.3-.6v-3.6l2.5-1.6 2.5-1.6v-4.1l-1-2-1-1.9h-2.8l-.6-1.5-.5-1.4 2.2-1.6 2.1-1.5h3.4l1.3 1.7 1.4 1.6.5 6.1.5 6.1 2.7-.3 2.8-.3v5l-3.8 1-3.7 1h-6l-1.3-.6zm61.3-3.2-.6-3.8 1-3.5 1-3.4-.5-3.6-.6-3.6 2.2-.6 2.3-.6 1.3 1 1.3 1.1 2.4-.6 2.4-.6 1.4-.5 1.4-.6 1.3 2.8 1.2 2.7-1.5 1.2-1.6 1.1 1 3 .8 2.8.6 2.8.7 2.8 1-.7 1-.6-.4-1.1-.4-1.2 1.4-1.3 1.3-1.3v-4.5l-1.6-2.3-1.6-2.3 1.3-1.3 1.4-1.3 2-.3 2-.2 2.6.7 2.6.7 4.3-1 4.2-1.2.5.4.4.5-1.5 3.7-1.6 3.7v4.4l1.4 2 1.5 1.9 1.7-1.7 1.7-1.7.5-5 .5-5.1h2l-.6-2.8-.6-2.8 1-1.4.8-1.5 2.1 1.3 2.2 1.3 1.3-1 1.3-1.2 1.6 1.6 1.6 1.6v2.8l3.7-.2 3.7-.2.4 1.6.3 1.6-3 1.3-3 1.2-1-.7-1.1-.6v2.2l1.5.5 1.4.6v3.1l.1 3.2.3 3 .2 3-8.8.3-8.9.3-1.4-1.2-1.4-1.1-1.7.7-1.8.7-16 .5-16 .4-.3 1-.4.9h-2.5zm32.2-10.8-.3-1.7-1.8-1-1.8-1.2-1 1.5-.9 1.5 1.7 1.3 1.7 1.2h2.7zm18.2-1.9v-1.5h-3v3h3zm-192.7 13.8-2.1-1.8-.7-3.2-.6-3.1 1-4 1.1-4 4.2-.6 4.2-.7 2 2 2 2 .6 6.1.6 6.1-1.3 1-1.2 1-3.8.5-3.8.5zm14.7.3-1.2-1.5.4-2.3.3-2.3 3.3-1 3.3-1-.6-3-.6-3-.5-1.6-.5-1.7 2.3-.6 2.3-.6h6l1.5 1 1.4.9-1.4 2.6-1.4 2.6v6.9l1.9 1.3 1.8 1.4-.6 1.7-.6 1.6h-15.9zm23-.5-1-1.8 1-1 1-1-.9-5.9-1-5.9 1.5-1.6 1.4-1.6 5.8.5 5.7.5 2.9 2 2.8 2-.7 6-.6 6-1.5 1.4-1.5 1.5-7 .4-6.9.3zm66-.9-2.9-2.7-.7-4.7-.6-4.8 3-2.9 3.1-2.9 2.1-.5 2.1-.5 3 3 2.9 3.1v9.8l-1.8 1.9-1.7 1.9-2.8 1-2.7 1zm18.7 1-.5-.7.1-5.3v-5.2l-1-1.1-1.1-1.1 1-2.4 1.1-2.4 1.6-.4 1.6-.4 6 .2 6 .1-.2 3-.2 2.8 1.7 1.3 1.7 1.2-1.8 2-1.8 2 1.6.5 1.5.6v3.2l-1.4 1.5-1.5 1.4h-14l-.4-.7zm-210.5-5.2-2.2-2v-2.8l1.3-1 1.2-1h6.2l6.3-.2 1 2.1 1.2 2-1.6 1.8-1.6 1.8-2.9-.5-2.9-.4-.6 1.1-.7 1.1h-2.5zm172.3-16-.6-1 .6-2 .6-2h2.7l1.2 1.5 1.2 1.5-.6 1.5-.5 1.5h-4zm-669.5-4.8v-1.9l2-1.8 2-1.8v-1.7l3.5-5 3.5-5v-2l-31 .3-31 .5-1.9 1.6-1.8 1.6h-2.6l-1.2-1.7-1.2-1.7-9.5.3-9.6.2-1.7-1.7-1.7-1.7.7-3.6.6-3.6.5-7 .4-7 .5-1.3.4-1.2h-1.5l-1 2.8-1 2.8-3.7 1.7-3.6 1.8-2.6-.7-2.5-.6-1.5-2.1-1.5-2.1v-4.7l1.4-2.8 1.5-2.8 2.3-1.5 2.3-1.5 2.6-.6 2.7-.7 1.3 1.6 1.2 1.5 1.6.9 1.6.8-.1-4-.2-3.8 1.2-2.5 1.1-2.5h19l4.6-4.8 4.7-4.9 3.7-1.7 3.8-1.8 3.9-.5 3.8-.6 2 1.8 2 1.8v10.7h14.3l3.3-3.5 3.3-3.5 5.2.8 5.3.7.6 2.5.6 2.5 7 .2 6.9.2 6.7-6.9 6.7-6.9 4.1-1.1 4.2-1.1 1.5 1.2 1.5 1.3-.5 3.9-.5 3.9-1.9 1.3-1.8 1.4h-.8l-.9.1.7-3 .7-3h-4l-3.1 3.7-3.1 3.8v1.5h14.6l3.7-7.5 3.7-7.5h5v5.5l-2.6 3.9-2.6 3.8.8.8.9.8 2 .4 2 .3.3 2.3.4 2.3-1 1.2-.8 1.2.3 2.5.3 2.5v7.6l.2 7.7 2.1 2 2.2 2 1.5-1.1 1.5-1.2 3.1-4.5 3.2-4.5 5-7.5 5.2-7.5v-2.5h2v-2.9l-5.6 5.2-5.6 5.2-2.1 1.2-2.2 1.2h-2.1l-2.2.1-.6-1.6-.6-1.6v-4.6l4.5-5.8 4.5-5.8v-1.6h2.1l4.2-2.8 4.2-2.9 2.9-.7 2.8-.7 2 1.7 1.8 1.7v9l-2.9 6.1-2.9 6.1-5 7-5.1 7-1 1.2-1.1 1.2v1.9l-2.4 1.6-2.5 1.6-2.4 3.2-2.5 3.3-.7 2.2-.6 2.3h3.3l1-3 1.2-2.8 2.5-.6 2.6-.5 4-3.3 4-3.3 4-3.8 4.2-3.7h2.3v2l-3.2 3.7-3.3 3.7-3 2.8-3 2.8-3 2.8-3 2.8-4.7 3.7-4.6 3.7h-3.2l-1.5-2.1-1.5-2.2-3.6 1.7-3.7 1.8-1.7-1.6-1.8-1.6h-22.2l-2 1-1.9 1v2l-1.9 2.8-1.9 2.7-3.7 5.7-3.7 5.8h-4.9zm-86.6-42.3 2.6-3v-4.5l-1.2-1.2-1.2-1.2h-3.5l-2 2.6-2.1 2.7v5.6l1.8 1 1.7 1h.7l.6.1 2.6-3zm8-4.8.6-1-1-.6-1-.6v3.1h.9zm125.8-3.8-1.3-.5 1.2-1.4 1.1-1.4h-3l-.5 2-.5 2h2.1l2.2-.2zm-39.7-2.3.6-1h-4.6l1.5 1 1.5 1h.4zm-55.8-2.6-.6-.6-1.3.5-1.3.5 2 .1 1.8.1zm58 0-.6-.6-1.3.5-1.3.5 2 .1 1.8.1zm40 0-.6-.6-1.3.5-1.3.5 2 .1 1.8.1zm16.9-3.2 2.9-2.8 3.2-4 3.3-3.9v-1.5h-1.5l-5.6 5.8-5.5 5.7-.7 1.8-.6 1.7h1.6zm-71.4.1-1.2-.5-1.3.5-1.2.5h5zm-34.2-5.3h1.6l1.3-3.6 1.3-3.6-1-1-1-1-3.7 1.3-3.7 1.4-3.1 3-3.2 3 3 .6 3 .7 2-.4 2-.4zm120-7.5v-1.5h-5v1.7l.7.6.6.7h3.7zm-215.7 41.9-1.2-.5.6-1.5.5-1.4h2.8l2-3.3 2-3.2v-3.2l1.6-3.4 1.5-3.4 1-1.7.9-1.8v-4l1.6-2.5 1.6-2.5h2l1.5 1.8 1.3 1.7 2.6 5 2.6 4.9 1.3 1.3 1.4 1.3h.8l1.8-6.3 1.9-6.2 1-1.4 1-1.3 2.3-.9 2.3-.8 1.5.5 1.5.6v2.8h-4.7l-4.7 14.4-4.7 14.4-1.5.6-1.6.6h-.6l-.6-1.6-.6-1.6 1.7-3.5 1.6-3.5-1.9-3.7-1.9-3.6-.6-.5-.6-.5-1.7-3.3-1.7-3.3-1.1.3-1.1.4-3.1 9.5-3.1 9.5-1.8 2.7-1.7 2.7h-2.3l-2.2-.2zm34.1-.8-.6-1.5.7-1 .6-1.1h12.9l.7 1 .6 1.2-.8.8-.9.8-6.3.6-6.2.7zm-43.8-6.5-1.7-1.9-.5-5.3-.5-5.4 2-7 1.9-7 3.2-9 3.1-9 2.6-5.3 2.5-5.2-1.1-1.4-1.1-1.4 1.9-.5 2-.5 6-12.3 6.2-12.4 2.4-2.4 2.3-2.4 1.6.6 1.6.6v4l-1.7 3.6-1.7 3.5-1-.1-1.1-.1h-1.1l-1.1.2-1.9 4.3-1.8 4.2-1.8 2.4-1.8 2.4v2l1.5-1.3 1.5-1.2v-2.1l2.6-3.4 2.5-3.3 3.6-1.5 3.5-1.5h5.4l1.2 1.2 1.2 1.2v5.3l2.6-.5 2.7-.5-.7 3.7-.7 3.6h2.3l3.9-2.8 3.9-2.7v-11.5l2.8-3.1 2.9-3.2 2.6.7 2.7.6v4.5l-2.4 4.1-2.4 4.2.7 1 .6.8 1.8.7 1.7.7.6 1.5.6 1.5-.6 2.5-.6 2.4-3.4 3.7-3.5 3.8-.5 1.9-.5 2 3-.7 2.9-.6v3l-2.6 1-2.5 1h-4l-.5-1.5-.6-1.5.6-2.4.6-2.4 3.5-5.3 3.6-5.2-.5-1.4-.5-1.3h-4l-2.5 2.3-2.4 2.2-1.4 1-1.3 1.1-3 1-3 1-2.3-.4-2.2-.3v-1.9h2v-4h-3.4l-3.3 1.2-3.3 1.2-1-1-1.2-1.2 3.9-1.8 3.8-1.9.3-2.3.3-2.2h-7l-2.6 2.5-2.5 2.6v1.8l-1.3 1.3-1.2 1.3-1.8 5.5-1.8 5.5-1 12-1 12-2.1 7.8-2.1 7.8-3.9 5.4-3.9 5.5-1.9 1-1.9 1h-.8zm6-5.4 2.1-2.2 2.7-5.8 2.7-5.8 1-11.7 1-11.7 2-8.3 2-8.4-.4-.4-.4-.5-3.8 7.7-3.7 7.7-3.9 12-4 12.2-.9 6-1 6v5.5h2.7l2-2.3zm231.2-21.2-1-2.4 2.8-5.8 2.9-5.8 1.6-2.5 1.7-2.5 3.6-5.6 3.6-5.6v-2.1l2.7-3 2.8-3 1.2-1.5 1.2-1.5 1.8-3.4 1.8-3.4 3.8-4.5 3.7-4.6v-2.3h-7.9l-2.3-.9-2.4-.9-1.8-4-1.8-4 1-2.9.9-2.8 2.6-1.5 2.6-1.5 1.8 1.8 1.8 1.8v9.9h8.1l1-1 1-1 1.8.6 1.8.7-.5 3.3-.6 3.4-4.2 6.3-4.3 6.2-2.2 2.5-2.3 2.5-.5 2.5-.6 2.5.9 1.3.8 1.4 6.4.4 6.4.5.3 1 .4.9h3.4l1.2-1.2 1.2-1.2v-3.4l1.4-1.2 1.5-1.1-.5-1.4-.6-1.4 1.9-2.5 1.8-2.5h.7l.8-.1 2 2 2 2-.6 4.3-.7 4.2-1.3 2.7-1.4 2.7-5.5 1.1-5.6 1.2-6.7-.5-6.7-.5-3-.7-3-.7-1.4 5-1.3 5-4.4 7-4.4 6.9-3.5 1.9-3.5 1.9v1.2l-2.5 1.1-2.6 1.2zm11.2-11.2v-1.3h1.8l.6-1.8.6-1.7.6-1.5.7-1.5-2.5 2.5-2.4 2.5-2.2 3.1-2.1 3.1.6.7.6.6 1.9-1.7 1.8-1.6zm43-23.3v-1h-2.1l.6 1 .6 1h.9zm-392 16-2.8-2.9-.7-4.8-.6-4.8 1.6-3.9 1.6-3.8 2.7-4.2 2.6-4.1 2.5-2.3 2.6-2.3 3-2.7 3-2.7 2.7-1.8 2.8-1.7 1.6-3.3 1.7-3.2 2.8-8 2.9-7.9-.6-.5-.5-.6-3 3.5-3 3.5-3.6 3.8-3.5 3.7h-2.8v-2l4-4 4-4v-2.5l4.3-4.9 4.3-4.9 2.2 1.2 2.2 1.2.6 2.6.7 2.6-2.3 6.1-2.3 6.1-.4 2.7-.5 2.8h2.2l4-2.6 3.8-2.5 1.2-3 1.2-2.9 3.2-3 3.1-3.2 2.8-1.4 2.8-1.5 1 .6.9.6v3.5l-6.1 6-6.1 5.9-3.3 7-3.3 7-3.6 10.6-3.6 10.6v3.3h2.8l3.1-3.5 3.1-3.6v-2.2l2.5-3.3 2.5-3.3v-3l2-1.1 2.1-1.1 2.1.3 2.1.3 1 1.6 1 1.7-2.3 5.3-2.3 5.4-1.8 1.6-1.9 1.6v4.1l-1.1.8-1.1.7h-4.3l-4.3.2-2 1.8-1.9 1.7h-3.1l-1.2-1.5-1.2-1.5h-2.8v-2.9l1-.6.8-.5 3.3-9.8 3.2-9.7 1.7-4 1.8-4 .6-1.8.6-1.8-2.3.7-2.2.6-3.2 2.4-3.2 2.4-1.5 3.3-1.5 3.2-2.7 6-2.7 6-.5 4.8-.5 4.8-1.7 1-1.8.8-1.7 4.3-1.7 4.3-1.5 1.8-1.6 1.7h-2.8l-2.8-3zm6-6 1-1.9v-2.7l-3-.2-3-.2v3.9l.6 1.5.6 1.6h2.7zm2.4-7.3 1.3-1.3 1.8-3.4 1.7-3.3 2-5.5 1.8-5.5-.4-.4-.4-.5-2.4 1.6-2.5 1.6-3 4.3-3 4.2-1.7 3.2-1.6 3.2v2l2.3.4 2.2.4.3.2.3.1zm62.5 11.7-1.3-1.6 2.2-4 2.3-3.8h-2.1v-1.8l2.4-.6 2.4-.6.6-1.7.7-1.7-1.7-1.3-1.8-1.3h-3.2l-1.7 2-1.8 2.1.6 2 .7 2-2.6-.7-2.6-.6v2.2h-6.7l-.6-3.6-.6-3.6 1.6-3.9 1.5-3.9h4l-.6 2.3-.6 2.2-.6 2.8-.7 2.7h3.2l3-3.8 3.1-3.7 1.1-4 1.1-4 1.5-3 1.6-2.9 1.1-1.1 1.1-1.2 2.3-1.2 2.2-1.2.6 1.6.7 1.6-1.2 2.6-1.2 2.7-3 3.8-3 3.8.6 2 .6 2h3.8l1 1.8 1 1.9-.6 2.1-.5 2.2h2.6l4.7-5 4.7-5 1.2-3 1.2-3h3.8v2.5l-2 4-2 4v3.5h1.8l1.8-2.8 1.8-2.7.7-5.4.8-5.4-3-5.6-3-5.5.3-2 .3-2 4-2.2 4-2 3.4-3.2 3.3-3.2h3.2l3.3-2.3 3.3-2.2v-5.5h4v5.3l-4.4 4.3-4.4 4.3-4.4 2.6-4.3 2.7-3.2 2.2-3.3 2.1v3.4l1 .6 1 .6v4.8l1 .6 1 .6v10.4l-1.8 3-1.7 3-2 3.2-2 3.1-2.8.6-3 .6-1-.7-1.2-.7-2.5.3-2.5.3-5.3 5.4-5.2 5.4h-1.8zm109.6-2.4-.7-1 4.3-7.3 4.2-7.2 2.4-3.7 2.3-3.8v-1.3l2.3-3.1 2.2-3.1 4-7.7 4-7.7 1.7-.4 1.7-.5 1.2 1.4 1.1 1.4-4.5 6.7-4.5 6.8-7.2 12.5-7.2 12.5-2.1 3.2-2.2 3.3h-2.4zm-163-7-.6-1 1.6-.6 1.6-.6.5.5.6.6-.7 1-.6 1.1h-1.9zm34.5-.4v-1.6h3.2l-.4 1.2-.4 1.2-1.2.4-1.2.4zm53.3-.1-.5-1.6.5-.6.6-.5 1.6.5 1.5.6v3.1h-3.1zm95.6-1.2-1-2.6.7-3.1.6-3.1 6-10 6.1-10.2 3.3-2.2 3.3-2.3 3.5 2.1 3.4 2.1.6 1.6.6 1.6v4l-2 4.2-1.9 4.2-6 6.6-6.1 6.6-3.4 1.6-3.4 1.6h-3.2zm11.9-6.8 6-5.6 2.7-5.5 2.6-5.5-.3-1.7-.3-1.7-2.6-.3-2.6-.3-2.9 3.8-2.9 3.7-2.2 3.6-2.2 3.5-2 4.3-2.1 4.4v2.8h2.7zm25.9 6.7-1.7-1.9v-6l2-2.7 2.1-2.6h4.9v-3h-1.9l-.6 1-.6 1h-2.9v-2.9l1.6-1.5 1.5-1.6h3.8l1.6 3 1.5 2.9v5.6l-2 4.2-1.8 4.1-2 1.1-2 1.1h-1.9zm5.3-3.8 1-2.5v-3.9h-3l-.6 2.8-.6 2.7-.3 1.2-.4 1.1.6.6.6.6h1.7zm8 4.6-1.5-1 1.3-2 1.2-2v-9l1.8.3 1.7.3.3 2.7.3 2.6 2-.5 1.9-.5v-3.9l1.1-.7 1.1-.7.8 1.3.8 1.3-1 3-.8 3.2v1.5h8.1l-.6-4.3-.6-4.2 1-1.5 1-1.4 3.5.1 3.5.1 1 .6.9.6-.3 5.7-.3 5.8-.7 1.8-.7 1.7h-2.8l-.6-2.5-.6-2.5h-1l-2 2.5-2 2.5h-2.7l-1-1.7-1-1.8-1.9 1.8-2 1.8-1.1-1.5-1.3-1.5.6-1 .6-.9-1.5-1.2-1.5-1.2-1.5 3.6-1.5 3.6h-.5l-1.5-1zm25-10.6v-1.4h-2.9l-.7 1.1-.7 1.1 1.4.8 1.3.9.8-.5.8-.5zm24 10.7v-.8l2-4.6 2-4.6-.2-3.6-.2-3.5 2-1.5 1.9-1.4h1.2l1.1-.1.4 1.2.5 1.3-1.9 6-1.8 6v4.5h2.1l-.6 1-.6 1h-7.9zm13-1.2-1.1-2 1.2-1.5 1.2-1.5 1.8 1.7 1.8 1.6 1-.7 1.1-.6v-2.7l-3-1.2-3-1.2v-7.8l1.6-1.5 1.5-1.6 2.5-.6 2.5-.6 2 2.2 1.9 2.3.1 1.6.1 1.6-.2 2.4-.2 2.4-2.5 4.1-2.6 4.1-1.1.7-1.1.8h-4.4zm8.5-10.6 1.2-1.6-.5-1.9-.4-1.8h-2.8v2.5l-.6 2.3-.6 2.2h2.5zm7.3 12-2.8-.4v-1.9l1.8-.5 1.7-.6 1.3-4 1.2-4v-6.6l1.2-1.2 1.2-1.2h3.4l.5 1.4.5 1.3-1.9 5.8-1.9 5.8v3.5l1.3.5 1.2.5-1.5 1.1-1.5 1h-1.5l-1.5-.2zm-133.8-55.3-3.4-.6-.6-3-.6-3v-4.4l.1-4.5 2.1-.3 2.1-.3-.1 6.3-.1 6.3 5.4.3 5.4.3-.6-7-.6-7.1h3.9l.5 2.3.6 2.2-.8 6.5-.8 6.5-4.5.1-4.5.2zm-18.8-2.1-2.2-1v-11.8l4.5-.4 4.6-.3 1.9.7 2 .7-.3 5.5-.2 5.5-.5.4-.5.4-3.5.6-3.5.6zm7.8-6v-3h-7v6h7zm29.8.8-.6-5.3.5-1.2.5-1.2 1.8-.6 2-.6 3.6.7 3.6.7 1 2.8 1 2.9 1.6-.9 1.7-.8 31.2-.2 31.3-.2v2.9l-13.3.7-13.2.7-19.7-.4-19.8-.3-1 2.8-.9 2.7h-10.8zm7.6 2.6 1.6-.6v-6.9l-3.3.3-3.2.3-.3 2.9-.4 2.9 1.4.8 1.3.9h1.3zm-41.7-28.3.6-5.8-1.2-.7-1.1-.7-.6 1.5-.6 1.5-1.3-.5-1.3-.5-.7 1-.6 1.1h4.8l.6.7.7.6-1.1 1.4-1.1 1.3h-4.1l-2-1.7-1.9-1.8-1.1 1.6-1.2 1.5h-4.2l-4.2-.2-.7-.7-.7-.6-2 1-1.9 1-2.4-.5-2.3-.6-1-2-1-1.8 1-3 1-3 9.6-.6 9.6-.7 1 1 1 1 2.3-1.1 2.4-1.1 1.8 1.6 1.9 1.7h1.3v-2.8l4.1-.4 4-.4 2 2.4 1.9 2.5v4.8l-3.5 2-3.5 2.1v3.8h-4.8zm6.8-4.6v-1.8l-1.1-.4-1.2-.4-.6 1.6-.6 1.7.6 1 .6 1 1.1-.5 1.2-.4zm-29.5.5v-1h-3.9l-.6 1-.6 1h5.1zm-115.5 8-.7-1.2-4.4.7-4.4.6-.7-1.6-.6-1.7 1.7-2.8 1.6-2.8v-5.2l4.1.3 4.2.3.8 1.5.8 1.5 1.6 3.5 1.5 3.4-2.4 2.4-2.4 2.4zm208-.3-1.7-1.3 1.6-1.3 1.6-1.3v-6.7l-1-.6-1-.6v-3.8h10v1.9h1.9l.6-1.8.6-1.7 3-2.4 3-2.4 1.7 1.6 1.6 1.6-1.7 1.9-1.7 1.8 1.2 1.2 1.2 1.2h2.4l1-1.3 1-1.3 8-.1 8-.2 1.2 1.5 1.3 1.4 1-1.5 1.2-1.4 8.2-.7 8.3-.7 1.4 1.2 1.5 1.3 1.2-.7 1.1-.7 4.8-.5 4.7-.4.6 1.6.7 1.6 2.5-1.7 2.5-1.6 2.4 1.5 2.4 1.6.6-1.4.5-1.5h8l1.5 1.5 1.5 1.5h1.2l1.5-1.5 1.5-1.5h4.7l1.2 1.5 1.2 1.5-.6 1.6-.6 1.6-2-.5-2-.5-1 3.4-1.1 3.4-.7-.2-.7-.2-4.2 1.4-4.1 1.3-.5 2-.6 1.9-2.3-.4-2.3-.3-.3-2.8-.3-2.7h-1.9l-2.7 1.2-2.6 1.2-2-2.3-1.8-2.3v-4.7l-1.6.6-1.6.6.6 2.8.5 2.8-2 .6-2 .7-1.3-1.1-1.3-1.1.5-2.6.5-2.6-2 .4-1.8.3v7l-9.5-.4-9.5-.3-1.4-.8-1.4-.7-2.8 1-2.8 1.1-.3 2-.3 2.1h-5l.3-5.3.4-5.2h-2l.5 2.5.5 2.4-2.7.7-2.8.7-2.9-1.8-3-1.7-1.8 1.7-2 1.7-2.6-.6-2.6-.7-1.1-3-1.1-2.9h-1.5l-1 3.8-1.1 3.7-.7 1-.8 1-1.6 1.2-1.6 1.3zm17.5-9.8v-2l-1.3.3-1.2.5-.3 1.6-.3 1.7h3.1zm22 .7v-1.5l-1-.6-1-.6v4.1h2zm45-1.2v-1.3h-3v2.7l.6.6.7.6.8-.5.9-.5zm-270.3 8.7-1.9-1.1-1.4-3.4-1.4-3.3 1-2.5.9-2.4 2.2-2.1 2.3-2.1h4.4l.5 2.9.6 2.8 2.7-.5 2.7-.5 2.5 2.9 2.4 2.9-.6-2.6-.6-2.7 2.3-.6 2.2-.5 4.8.4 4.8.4 1.3 1 1.2 1 1-1 1-1 7.5.3 7.4.3-.3 3.7-.4 3.8h1.8l1-1 1-1 1.3 1.4 1.2 1.4-1.3.8-1.2.8-2.5.3-2.6.3-3.5.1-3.5.2-4-.1-4-.1-11 .8-11 .7-2.3-1-2.3-1-1.1 1.2-1.2 1.2h-2.1zm70-1.7-.6-.8.2-8.2.2-8.3 6 .3 6 .3.3 2.2.3 2.3-3.8-.3-3.8-.2v13l-2.2.3-2.1.3zm59.4-.1-1.4-.9 1-4.8.8-4.9 2.1-.3 2.2-.3 1.6 1.6 1.6 1.6v4.9h2.8l1.1-1.4 1.2-1.4-.7-2.6-.6-2.6h18.2v3.5l2 1.3 2.1 1.3-.3 2.2-.3 2.2-4.9.3-4.8.3.6-3.5.7-3.6h-2l-1.6-.6-1.7-.7.4 4 .3 3.8-2.3.3-2.2.3v-2.2l-1.8 1-1.8 1-5.5.5-5.4.5zm42.8-.3v-.3l-.2-8.5-.1-8.5 5.6-.3 5.6-.3.7 2.2.7 2.1-1 1-1.2 1.2-1.9-1.8-1.9-1.7-.7 1.1-.7 1.2v12.7h-4.8zm-6.9-6.9v-1h3v2h-3zm20-16.6-1.2-1.4.5-2 .5-2-.9-.5-.8-.6-2 1.2-1.9 1.3-2.5-1.7-2.5-1.6-3 1.5-3 1.5-2.6-.7-2.6-.6v-9.6l3-.7 3.1-.7 1.8 1.6 1.7 1.6 1.2-1.2 1.2-1.2 8.7-.3 8.7-.2 1.3 1 1.4 1.2 3.3-1.8 3.4-1.9 1.6 1.3 1.6 1.3v3.8h-5v3h5v2.9l-2 .6-2.1.7-2.5-1.7-2.6-1.7-1.6 1.5-1.7 1.4-1.7.6-1.8.6v3.9l-1.4.5-1.5.6zm6-9.5v-1.9h-1.9l-.5 1-.6.8.6 1.6.6 1.6.9-.6.9-.5zm-11.1 0-1.3-.8-.8.5-.8.5.5 1 .6.8 1.5-.6 1.6-.6zm3.7-1.6-.6-.6-.6.6-.6.6.8 1.2.8 1.3.4-1.3.4-1.2zm-51 7.2-.7-2.6.6-1 .6-.9h2.8l.6 1 .7 1.1-.6 2.5-.6 2.4h-2.8zm-79.1.8-2-.4-2.3-3.2-2.2-3.3v-4.7l2-3.2 2-3.3 2.2-.5 2.1-.6 2.9.6 2.8.6 2.5 2.8 2.4 2.9h1.1v-2.9l2.6-2 2.7-2.1h5.3l1.9 1.4 1.8 1.3-.6 1.7-.7 1.7-3.6-.7-3.7-.7-1.2 1.6-1.2 1.6.5 3 .4 3.1 2.5.6 2.4.7 1.2-1.2 1.1-1.1h2.6v3.7l-2.5 1.1-2.6 1.2h-4l-3-3-3-3h-1.9v3.1l-1.3 1.3-1.3 1.4-3 .5-2.9.4zm6.6-6.7 1.2-2.5-.7-2.5-.6-2.6h-3.8l-1.6.6-1.6.6v7.5l.7.6.6.7h4.7zm-32.9 5.2-1.1-1.1 1-2 1.1-2-.6-5.3-.6-5.3 2-.6 2.1-.7 1.4 1.2 1.4 1.2 1.1 3.4 1.2 3.4h1.8l.6-4 .7-4 2.4-.6 2.4-.7 1 1 1 1-.3 7.9-.3 7.9-2 .3-1.9.4-1.2-1.7-1.2-1.6-.7 1-.6 1.1h-3l-.9-2.3-.9-2.2v2.7l-.1 2.8h-4.6zm56.7 0v-.3l-.4-8.7-.3-8.8h6l-.5 1.8-.6 1.7-.7 2.3-.6 2.2h3l1.7-3.6 1.7-3.5 1.4-.6 1.4-.5 1.3 1 1.3 1 1.4-.8 1.5-1h6l2.3 1.6 2.3 1.6-.2 2.7-.2 2.6.7 3.3.8 3.2h1.5l2.8-7 2.9-7.1.7-.5.7-.4 1.6.6 1.5.6 1.2 3.6 1.2 3.7 1.9 3.3 1.8 3.3v3l-3.2-.3-3.3-.3v-4l-2.6-.3-2.5-.3-1.2 2.6-1.2 2.5h-2.9l-.6-1-.6-1-1.8 1-1.8 1-8.6-.2-8.5-.1-.6-2.9-.5-2.8h-3.2l.3 2.8.3 2.7-2.3.3-2.2.3v-.3zm16.3-9.3-.4-5.7-1.1 1.1-1.1 1.1h-3.6v4.5l2 3.3 2 3.4 1.3-1 1.2-1zm8.6 4.2.3-1.7h-4.1v4.1l1.7-.3 1.8-.3zm14.2-4.2v-1.5h-1.9l-.5.9-.5.8.6.7.6.6h1.7zm-15.2-2.3-.3-1.7-1 .2-1 .2-.3 1.5-.3 1.6h3.2zm45 11.1v-.8l-.2-6-.1-6-2.2.2-2.3.3v-4l2.3-.5 2.3-.6 5 .3 4.9.3.3 2.3.3 2.2-1.3.1-1.3.1-1.5.2-1.5.1v12l-2.2.3-2.3.3zm55.4-.5-1.2-1.2v-7.1l1-1.4.8-1.4 2 .5 2 .5 1.6-1 1.7-.9 1.5 1.3 1.5 1.2 1.1-1.1 1.2-1.2h4l1.8 1.7 1.8 1.6 2.3-1 2.2-1.2 2.3-.6 2.3-.7 1.3 1.1 1.3 1-.2 4.6-.2 4.6-.6.6-.6.6h-8.4l-8.4.2-1.7-1.4-1.7-1.5.5-2.2.6-2.3-.9-.5-.9-.6-1 1.3-1.1 1.3.2 3 .2 2.9-3.5.3-3.5.3zm21.8-4.8v-2h-2v4h2zm12.3 3.4-.6-1.5 1.1-1.1 1-1 1.6.5 1.6.6v4.1h-4zm-74.8-37.4-.7-1h-24l-24 .2-.5-.6-.5-.5.5-1.6.6-1.5 7.8-.1 7.8-.1 2.5-.8 2.5-.9-27.5.2-27.5.2-.3-1.6-.3-1.6 1.8-.7 1.8-.7h18l2.2-1.5 2.4-1.5 1.3 1.3 1.3 1.4 19.2-.1 19.1-.1 1 .6 1 .7-.6 1.6-.6 1.7h-12.1l.6.6.6.7 17.3-.3 17.3-.2h2l2-.2 2.8.2 2.7.2v4.8l-6.3.5-6.2.5-2.1.7-2.2.7zm12-9-.6-1h2.1v2h-.9zm-137.2-18.3-1.1-2.3.8-4 .7-3.9.6-1.5.6-1.5 1-7.5.8-7.5-.7-6.5-.7-6.5 1.5-1.3 1.6-1.2h12.4l1.6.6 1.6.6v11.8l.1 11.6.8 4 .9 4v-20.6l2.5-2.4 2.5-2.3 3.7.6 3.7.6 1.3 3 1.3 3 .1-3.2.1-3.2 1.7-1 1.8-.8 8 .8 8 .8h6.7l6.7.1 1 1.7.9 1.6.6-2.1.7-2.2 2.7-.1 2.7-.2 2.5-.3 2.5-.3 2.2.4 2.2.5.6 2.1.7 2.2.7-1.1.6-1 2.8-1.1 2.7-1 2.4.9 2.4.9.7 1 .6 1.1h1.9v-2.7l2.5-1.1 2.4-1.1 5.3.6 5.3.6 1 1.5 1.2 1.5 3-2.2 3-2.2 2.7.7 2.8.7 1.9 3 1.9 3.2v-5.5l2.7-1 2.7-1.1 2.6.6 2.5.6 2.2 2 2.1 2 1-1.6.9-1.6 4.2-1 4.2-1 2 1.1 2 1.1-.7 4.5-.6 4.4h4.2l2.4 2.6 2.5 2.7v7.6l2.8-.2 2.7-.2v7l-9.9 1-9.9.8-1.5-1-1.5-.9.2-8 .2-7.9.6-2.2.5-2.3h-5.1l-1.2 2.2-1.1 2.1 1.2 5.4 1.2 5.3-.7 3-.7 3.1-2.5 1-2.4.9h-7.6l-1.2-1.5-1.2-1.5h-2.6l-.6 1.5-.5 1.5h-7.2l-2.5-2.5-2.5-2.5.1-7.3.2-7.2v-1.3l-.2-1.2h-5.3l.6 10.6.6 10.5-1.6.6-1.5.6-2.7-1-2.6-.9.4-10.2.3-10.2h-2l-1.6-.6-1.5-.6-.3 11.4-.3 11.3-6 .3-6.2.3-1.3-1.6-1.3-1.6-.1-6.4-.1-6.3 2.3-3.1 2.3-3.1-1.6-.6-1.5-.6-1.7.8-1.8.7-1.3-.2-1.4-.2.4 10.3.3 10.3-2.6.9-2.7.9-1.4-.6-1.5-.5.3-10.7.4-10.6-2 .3-1.9.3-1.4-2-1.5-1.9-.7 5.5-.6 5.4-1.5 9-1.5 9-1 1.2-1.1 1.3h-5.8l-.7-1.1-.6-1 1.4-1.5 1.4-1.4-.7-5.3-.7-5.2-1.2-7-1.2-7-.4-1.5-.5-1.4-1 1.4-1 1.5.3 11.5.3 11.5-7.8.2-7.9.3-.5-2-.6-2-1.4 2-1.4 2h-6.8l-1.5-1.5-1.5-1.5h-2v6.6l-1.4 1.9-1.3 1.8-1.7-.6-1.8-.7-1.1-3-1.1-3h-4.6l-1.5 1.5-1.5 1.5-.6 2-.6 2h-4.6l-1-2.3zm46.4-12.4-.5-1.8v6l.5-1.2.5-1.3zm-32.8-8.7v-5.1l-.8-4-.7-4-.7 7-.7 7v8l1.5-2 1.5-1.9v-5zm25 1v-6.1l-.9 1.5-1 1.5v3.9l-2.6 2.7-2.5 2.6 2.5-.4 2.6-.5v2.3l1-.6 1-.6v-6.2zm7.8-5.3-.4-2.8v10l.4-2.2.4-2.3zm435.4 7.4-1.1-1.7 1-2 1.1-2v-19l2.3.3 2.2.3.3 3.8.3 3.8 1.2-.4 1.2-.4.3-2.1.3-2.2 2.9-2 2.8-2h2.2v4l-2 1-2 1v3.8l.1 3.7.8 1.8.7 1.8 2.4 1.2 2.5 1.3.3 1.6.3 1.7-2.1 2.1-2.2 2.2-1.6-.8-1.7-.7-2 .1-2 .1-3.6.6-3.5.7-1.3-1.5zm9.9-6.2v-2.3l-.6-1.6-.6-1.6h-2.8v5.1l1 2 1.1 2 1-.6.9-.6zm16.7 5.6-2.8-1.8-1.5-2.2-1.5-2.2-.6-5.2-.5-5.3 2-4.6 2.1-4.6 2.3-.6 2.3-.6h3.7l2.8 2.8 2.8 2.8.7 5 .7 5.1-1.1 4-1.1 4-2.5 2.7-2.4 2.6h-2.6zm6-8.6 1.4-4-1.2-4.2-1.1-4.2-1.6-.6-1.6-.6-1.4 1.5-1.5 1.5v4.3l-.2 4.3 1.4 3.3 1.4 3.3 1.5-.3 1.5-.3zm17.6 9.6-7.1-.6-.4-.5-.3-.5.3-12.8.4-12.7h3.8l1.6 2.5 1.7 2.6.7 3.2.7 3.2.8-4.4.7-4.5 2.2-1.8 2.1-1.7h1.1l1.2-.1 1.2 1.5 1.2 1.5-1 1.3-1.2 1.4.3 8 .2 8 1.8 2 1.7 2-1.8 1.6-1.9 1.7-1.4-.2-1.4-.1zm54.3-.7-.6-1.6v-.7l2.6-2.4 2.6-2.4 1.3-6.4 1.4-6.4-.6-3.7-.5-3.7 2.6-.7 2.7-.6 3.6.5 3.5.6.5.5.5.4-1.3 2.4-1.2 2.3.2 8.5.2 8.5 1 .3.9.4v4.7l-1 .5-.8.6-5.2-1.2-5.2-1.2-1.9 1.2-1.9 1.2h-2.8zm12-7.8.6-3.4-1-1.7-.8-1.6-1.3 4-1.2 4.1.6 1 .6 1h1.8zm-50.4 7.7-1.2-.5v-2.1l1.6-1.8 1.5-1.7-.7-8.6-.7-8.6h-1.7v-2.8l2.3-.6 2.2-.6h10.4l1.5 1.6 1.6 1.5v1.4l-.7 2.3-.6 2.4-1.8-.5-1.9-.5v8.6l-1.5.5-1.4.6-.6-1-.6-.9h-2l.3 3.2.3 3.3 2.1.3 2.1.3 1.7-2.7 1.8-2.6 1 1 1 1v3.2l.1 3.2-1.4.9-1.4.9h-6l-6-.2-1.2-.5zm10.6-20.3h1.1l-.6-1.6-.6-1.5-2 .3-2.2.3-.3 3-.4 3 2-1.8 1.9-1.7zm21.4 20-2.3-1 .7-4.8.6-4.9-1.7-.7-1.8-.6-1.3 1.1-1.4 1.1v4.3l1.5 1.9 1.4 1.9-.5.8-.5.9h-7l-.5-1.5-.6-1.5 1.2-1.5 1.2-1.5-.3-10.2-.4-10.3h4l.3 5.3.3 5.2h6l-.7-5.5-.7-5.5h6.1l.6.8.4.7-1 9-1 8.9 1.2 2.4 1 2.4-.5 2-.6 1.8h-.7l-.7-.1-2.3-1zm32.5.3-1.7-.4v-2.6l1.9-5.4 1.9-5.5.7-4.5.7-4.4 1.4-2.3 1.4-2.2h1.7l1.5 3.3 1.6 3.2 1 4.8 1.2 4.7v4.9l1.5 1.5 1.5 1.5v2.9l-1.5.6-1.5.5-2.5-.9-2.5-1v-5.2l-1.3.5-1.2.4.3 1.7.3 1.7-1.2 1.5-1.1 1.4-1.2-.1-1.1-.1zm7.3-12.8v-1.5h-2v3h2zm54.3 12.5-2.2-.9-1-2-1-2 .5-1.5.6-1.6h3.7l.6 1 .6 1 1-.5.9-.6v-2.7l-2-.5-2-.5v-3.2h3v-1.1l-2.5-4.5-2.5-4.5v-2.6l3.1-.7 3.2-.6 1.4 1.1 1.3 1.2-.6 3.5-.7 3.5 1-.7 1.1-.6.7-3 .7-3 1.8-1 1.9-1h4.1v1.6l-1.9 4-1.9 3.9-2.2 7.5-2.1 7.5-2.5 2.3-2.5 2.2h-.7l-.7-.1-2.2-1zm122.3-.6-1.6-1.4v-3l2.3-1.5 2.3-1.5 1.3-5 1.3-5.1.2-5.7.1-5.7 4.5-.3 4.5-.2 1.5 1 1.4.9-1.2 3.4-1.2 3.3v14.4l1.5.8 1.4.8.3 2.5.3 2.5-6.6-.3-6.7-.4-2 1.1-2 1.1zm11.2-9.3.3-3.4-1-1-1-1-1 4-1 3.8-.1.8v.8l1.7-.3 1.8-.3zm151.6 9.4-.6-1.5h-9.3l-1.4-.9-1.3-.9-.2-13-.1-13.2 1.3-.5 1.4-.5h7.3l3.3 2 3.2 2v3.5l-.9 3-.9 3.2 1 1.6.9 1.7h1.5l.2-6.6.2-6.7 1.5-1.8 1.6-1.7 8.7.3 8.7.3 1.8.7 1.7.7v6.9l-1.1-.7-1.2-.7.7 6 .8 5.8.1 4.5.2 4.5-12 .5-11.8.5-.5 1.3-.4 1.2h-3.9zm-2.4-9 1.2-1.5-.6-1.5-.5-1.5h-4.1v4.7l.7.6.6.7h1.5zm-.6-12.2.7-1.6-1-1-1-1-1 .7-1.1.7v3.9h2.8zm-323.4 20.7-1.5-1 .4-10.5.3-10.5h-4.2v-1.5l3-1.4 3-1.3 1.6 1.3 1.5 1.2-.2 1.6-.1 1.6v2.8l.2 2.7h3.6l1-1 1.1-1.1-.5-4.5-.5-4.4h5.3v1.3l.2 1.2.2 9.5.3 9.5.4 2.5.4 2.5h-7l.1-2 .1-2 .4-3.5.4-3.5-2.3-.3-2.2-.3-.9 2.3-.8 2.3 1 2.2 1 2.2-.6 1.5-.6 1.6h-2.6zm24.2.2-1.2-.8 1-5.8 1.1-5.7-.3-1.7-.3-1.7h-4.9l-.8-3.3-1-3.4 1.6-2.3 1.5-2.3 6.3-.4 6.3-.4 1.3 1 1.3 1-.3 5-.3 5.1h-4l-.6-2.5-.7-2.5-.1 7.3-.1 7.3 1.5 1.6 1.6 1.5-.3 1.7-.3 1.6-3.5.3-3.5.2zm59.7-1.1-2.4-2 1.8-1.8 1.7-2v-13.7l-1.2-3.3-1.2-3.4 1.4-1 1.5-.9 5.8.1 5.8.2 1.5 1.4 1.4 1.4v7.7l-1.5 1.2-1.5 1.2-.9-2.3-1-2.4-.5-1.8-.5-1.7h-4.1l.4 9 .5 9 1.5 1.6 1.6 1.5v1.6l-2.5 1.1-2.6 1.2h-2.7zm23.5-.2-2-1-1.7-2.9-1.7-2.8-.6-5.9-.6-5.8 2.8-4.8 2.9-4.7h6l2.2 1.5 2.1 1.5 1 3.3 1 3.2.3 3 .2 3-.2 3.5-.1 3.5-2.3 2.7-2.2 2.7-2.5.5-2.5.5zm4.8-6.6 1.8-1.6v-7.8l-1.4-3.4-1.5-3.5h-1.6l-1.8 1.4-1.7 1.3v8.4l1.4 3.4 1.5 3.5h1.4zm13.4 6.4-1.7-1.2 1.5-3.6 1.5-3.5-.8-7.5-.8-7.4-.3-1-.2-1v-1.2l.2-1.3h10.6l2.1 1.5 2.1 1.5 1.2 3.6 1.2 3.6-2 2.7-1.9 2.6-3.1 1-3.2 1v4.5l1.2 2 1.2 1.8-1.3 1.6-1.3 1.6h-4.4zm11-17.3.7-1.7-1-1.6-1-1.6-2.2-.3-2.1-.3v7.1h5.1zm11.2 15.3-2.7-2.2-1-2.8-1.1-2.8v-9.9l2-3.5 2-3.4 1.4-.5 1.3-.5 1.4.9 1.4.8-1.4 2.3-1.5 2.3-1.3 2.7-1.4 2.6 1.2 4.6 1.1 4.5 1.3 1 1.2 1.1 1.7-.6 1.6-.6.6-2.5.6-2.4-.5-4.7-.6-4.7-.7-2.8-.6-2.7h4.2l1.5 3.5 1.4 3.4v13.2l-2.9 3-2.8 3h-4.8l-2.7-2.3zm39.6.8-.6-1.5 1-2.8 1.1-2.7 2.1-8 2.1-8 1-1.2 1.1-1.3h2.7l2 6.8 2 6.7.6 3.5.8 3.5 1.5 2.3 1.5 2.4-1.4.9-1.4.9h-5.7l-1.1-3-1.1-3h-1.7l.3 2.7.3 2.8-3.3.3-3.2.3zm9-12.6-.5-1-1 .7-1 .5.7 1 .5 1 1-.7 1-.5zm32 13.3-.9-.7.3-12.7.4-12.8h3.4l2.2 1.6 2.3 1.6-.2 1.1-.1 1.2v3.4l.2 3.4.5-.5.5-.5.1-2.9.2-2.9 1.4-3.2 1.4-3.3h2.8l1.2 2.3 1.2 2.2.2 8.2.2 8.3 1.2 1.4 1.1 1.3-.6 1.7-.6 1.6h-4.2l-4.1.2-4.5.3-4.6.4zm45-1-1.7-1.6-1.3-3.3-1.4-3.2v-11.2l1.5-3 1.5-2.8 1.8-1 1.7-1 4-.1 4-.2 1.2.1 1.3.1v8.8l-.6 1.6-.6 1.6h-2.7l-1.7-3.5-1.6-3.5h-2.7l-1 2-1.1 1.9v10.6l1.4 1.8 1.3 1.7h1.1l2-3.5 2.1-3.5h3l1 2 1.1 1.9-1 2.4-.9 2.4-2.7 2.2-2.7 2.1h-4.6l-1.7-1.7zm19.4 1.1-1.6-.4-.6-1.5-.5-1.4 1-2.7 1-2.7-.2-7.2-.2-7.1.7-1.2.7-1.1h2.9v7h2.7l1-3.2.8-3.1 2.9-1 2.8-1 .9 1 1 1-2 1.9-1.8 2-.5 2.8-.6 2.8 1.1 2.9 1.1 2.9h3.7l.8 2.3 1 2.2-1.4 2-1.3 2-4.8.1-4.9.1-2 .6-2 .5zm7.5-7.5.4-1.3-.5-1.7-.4-1.8h-3.8v4.7l.7.6.6.7h2.5zm-47.8 4.8-3-2.4-.3-8.4-.4-8.4 2.7-3.2 2.7-3.2h6.7l2.7 3.5 2.6 3.5.6 4.5.5 4.5-1.3 4.5-1.3 4.6-2.8 1.4-2.8 1.5h-3.6zm8.3-10 .3-6-1.2-2.3-1.2-2.3h-2.8l-1.4 3.3-1.3 3.2.7 4 .8 4.2.7 1.2.8 1.2 2.1-.3 2.2-.3zm-741.4-22.2-.6-4.5 1.5-8.2 1.6-8.2v-12.9l1-.8.8-.9 6.4.3 6.4.3-.3 11-.4 11 1.2 4.4 1.1 4.4-.5 2.3-.6 2.4h-4l-.6-2.5-.6-2.5h-6.6l-.6 2.3-.6 2.2v4.5h-3.9zm10-13.3.6-1-1-.6-1-.6v3.1h.9zm-287.2 9.9-1.3-.9.6-9.3.6-9.2-1.6-2.6-1.7-2.5 1.1-.4 1.2-.4v-9.7l2.6-1.7 2.7-1.7 5 .2 5 .2 1.8 1.6 1.7 1.5.6 4.2.7 4.1-1.3 4.3-1.2 4.3h-1.4l-2.7 3.6-2.8 3.6-.6 5.7-.6 5.6-3.5.3-3.5.2zm21.5-2-2.8-3 1-3.2 1.2-3.2v-4.8l1.5-2.3 1.5-2.3-1.5-1.3-1.5-1.2v-3.3l2.5-2.8 2.6-2.7 2.7.6 2.7.7 2.7 1.9 2.7 1.8.3 3.3.3 3.2h2l.3-6 .2-6 1.2-2.3 1.1-2.2h11.2l1.3.9 1.3.8-1.2 2.6-1.2 2.5 1.2 3.3 1.1 3.2v19.1l-2.7 2.8-2.7 2.8h-3.8l-2.8-1.7-2.9-1.6-.5-2.1-.6-2.1v-5.4h-3.3l.6 5.4.5 5.4-1 1-1.2 1.2h-11.2zm28.4-13.8v-3.2h-2l-.6 3.4-.6 3.5.7 1.1.8 1.2.8-1.3.9-1.4zm11.9 14.8-2.4-2-.5-8.3-.6-8.3.7-4 .7-4 2.7-2.2 2.6-2.3h3.8l2.5 2.4 2.4 2.5.7 9.5.7 9.5-.7 2.8-.7 2.8-1.5 1.8-1.6 1.7h-6.5zm5.9-12v-4.9l-.9-1.3-.9-1.4v4l-.2 4-.3 2-.4 1.9.5.8.5.8.9-.5.8-.5zm17.9 12.3-.7-.8.6-4.8.7-4.8-3.1.6-3.2.6-.8-2.3-1-2.4-.5-8.2-.6-8.3h5.6l4.7-.6 4.6-.7v-2.6h4.2l.5 1.8.4 1.8 7.1.2 7.1.1 1.2 1.3 1.3 1.3-.8 6-.8 6 .5 5.7.6 5.6-.7 2.6-.6 2.6h-14.8l-.5-1.3-.4-1.2.8-2.3.9-2.3-.6-5.5-.7-5.4h-1.6l-.7 1.2-.7 1.2-.1 7.5-.1 7.6-3.5.3-3.6.3-.7-.7zm21.2-4.7v-1.2l-.9-2-.9-2v3.3l-.1 3.2h2v-1.3zm-1-16v-2.2l-.8 1.5-1 1.4.5.8.5.8h.9v-2.3zm11.1 16.5v-4.9l1.4-4.7 1.4-4.7-1-3.2-1-3.2-1-1.2-1-1.3.6-1.5.5-1.5h10.6l2.5-.3 2.5-.2-.2 5.5-.3 5.5-1 2.1-1.2 2.2 1.2 3.8 1.2 3.9 1.5 2.3 1.4 2.3-.6 2-.6 1.9h-6.8l-.5-1.2-.4-1.3-1.4 1.3-1.3 1.2h-6.6v-4.8zm24.7-5.6.6-10.5-2.7-1-2.6-1v-8l2.3-.7 2.4-.5 3.9.3 3.9.3-.3 5.3-.3 5.2h5.1l1.6 2.5 1.6 2.5-.4 6.5-.4 6.5-1.2 1.2-1.2 1.2-6.5.4-6.4.4zm37.5 9.2-1-1 .8-3.5.8-3.5-.2-10.9-.3-10.9h.6l.6-.2 5.5-.2 5.5-.3 2 .4 2 .4-.2 14.5-.1 14.5-.6.7-.7.6-6.9.2-6.9.1-1-1zm44.3.3-2-.9-1.2-1.4-1.2-1.4-.5-15.2-.6-15.1 1.7-1.6 1.6-1.7 2.4-.9 2.4-.9h3.6l2.3 2 2.3 2-.6 3.4-.5 3.4 1.1 1.2 1.2 1.3-3-.7-3-.7-.3-1-.4-.9h-2.3l.1 9.3.1 9.2.2 1.4.1 1.4 2-1.8 2-1.7 1.5.5 1.5.6v7.9l-1.3 1-1.4 1.2-2.9.5-2.9.4zm16.9-.4-1.1-1.3-.8-4-.8-3.9.2-8.5.2-8.5 2.1-2.2 2.1-2.3h6.4l2.1 2.3 2.2 2.3v22.1l-2.6 2.7-2.7 2.6h-6.2zm5.3-14.9-.5-1.3-.1 2-.1 1.8.6-.6.6-.6zm96.8 15.5-2-.5-1.7-2.1-1.8-2.2.1-8v-8l.7-4.5.7-4.5 4.5-2.2 4.5-2.2h.6l.6-.1 1.1 2.5 1.2 2.6v4.8l-1 .7-1.2.6-1-1-1.2-1.2h-1.7v15l2.6-.6 2.6-.7.9 1.4.9 1.4v5.4l-2.2 2-2.2 2.1-1.5-.1-1.6-.1-2-.5zm-85.2-2-.6-1.5 1.3-7 1.2-7-.7-4.6-.6-4.7-.5-1.6-.5-1.7 3.2-1 3.2-1.2h8.2l1.1.8 1 .7v15l-.1 15-7.8.2-7.8.1zm9.4-15-.5-1.8v6l.5-1.2.5-1.3zm33.6 14-2.4-2.3.6-5.8.7-5.7.4-1.7.5-1.8h2.7l.6-1.5.5-1.5h-3.6l-1.1-2.5-1.1-2.4 1.5-1.5 1.5-1.5 3.3-.7 3.4-.6 2 .7 2 .6 1 3.2 1 3.2-.2 12-.1 12-5.4.1-5.4.2zm22.3 1.4-1.8-1.3 1.1-5.9 1.1-5.9v-8.5l-2.6.6-2.5.6.3-4.8.3-4.9 6.8-.3 6.9-.3 1.4 1.2 1.5 1.2-.3 3.6-.3 3.6-2.3.3-2.4.4.3 9.7.3 9.7-.8 1.2-.7 1.2h-4.5zm34.2.6-1.6-.4-.5-1.2-.4-1.2.9-9 .9-9-.6-4.1-.6-4 1.3-1.1 1.3-1 5.4-.6 5.5-.6 1.3 1 1.3 1.1v4.8l-1.2 4.3-1.1 4.3 1.7 7.3 1.6 7.4-1.1 1.3-1.1 1.4-5.7-.1-5.6-.1zm18.7-.2-.5-1-.2-14.8-.1-14.8 7.2-.3 7.3-.3 1.4 1.2 1.4 1.1-.5.8-.5.9-.1 13-.1 13.1-1.1.7-1 .7-6.3.3-6.3.3zm20.1-1-1.4-1.6 1-6.5 1-6.5.1-3.5v-3.5l-.7-4.2-.8-4.1 2.2-1.2 2.1-1.1 1.5 1.1 1.4 1.2 3.6-.6 3.6-.7 1.3 1.1 1.4 1.2-.6 4.6-.6 4.7-1.5 1.7-1.5 1.8 2.6 7.7 2.7 7.6-1 1.2-1 1.2h-14zm25.6.4-2.2-1.6.5-9.5.4-9.6-1.9.5-1.9.5-.5-1.5-.6-1.5v-6.6l1.8-3.1 1.7-3.1 1.7-.6 1.8-.5.9.5 1 .6-.6 2-.5 2h4.1l1.1 2 1.1 2-.3 3.1-.3 3.1 3.5 1.2 3.5 1.1.7 5.8.8 5.9-1.5 3.4-1.4 3.4-2.6 1-2.6 1h-5.5zm-343.9-65.8-2.2-2.2-1.6-4-1.7-3.9.6-4 .7-3.9 2-2.7 1.9-2.8 2.5-.6 2.5-.6 2 1 1.8 1 2.7 5.4 2.7 5.4-1.4 4.9-1.4 4.8-3.3 2.2-3.4 2.3h-1.1l-1.1-.1zm7.2-6.1 1.6-2.4-.3-3.8-.3-3.8-3.3-1-3.3-1-1 1-1 1-.5 3.5-.6 3.4 1 2.7 1.2 2.8h5zm45.7 4.4-3-3-.7-3.9-.6-3.9 1-4 1.1-4 2.7-2.1 2.6-2.1h3.3l2.2 1.6 2.2 1.5 1.8 3.7 1.7 3.7v2l-.2 2-.2 2.4-.1 2.3-3.4 3.4-3.4 3.4h-4zm9.2-4.5 1.6-2.5-.6-3.8-.6-4-.8-1.2-.8-1.2-3 .7-3.2.7-1.1 2-1.1 2 .5 3.5.6 3.5 1.2 1.4 1.1 1.4h4.6zm12.3 6.7-3.7-.3v-23.8h8.8l1.6.6 1.5.6 1.1 3.4 1.2 3.5-1.3 1.5-1.2 1.5 1.7 3.2 1.8 3.2-1 2.6-1 2.7-2.9.8-2.8 1zm6-5.9.6-1.6-2.2-1.9-2.3-1.8h-2.9v5.8l.7.6.6.7h4.8zm.3-12v-.3h-4.1l.6 1 .6 1 1.4-.7 1.5-.5zm43.7 15.2-2.6-3.3-.7-2.6-.6-2.6.6-4.4.7-4.4 2.4-2.6 2.4-2.6h6.2l2.5 2.7 2.4 2.6 1.2 3.9 1.1 3.8-1.1 3.8-1.2 3.9-2 1.7-1.9 1.8-3.4.8-3.4.7zm7.9-2.3 1-.7 1.2-3.3 1.1-3.3-.5-2.8-.6-2.9-3-.6-3-.6-.8.5-.7.4-1.2 4.3-1.2 4.3 1 2.8 1 2.7h4.6l1-.8zm26.7 4.5-.7-1.2-.7-5.8-.7-5.8-.7-.7-.6-.6-1 1.4-.9 1.5v6.5h-4v-6.9l-1-.6-1.1-.7-.6.6-.6.5-1.1 5.3-1.2 5.2-1.2.4-1.2.4v-6.6l1.4-7.8 1.4-7.8.6-.6.5-.5 1.6.6 1.5.6.6 3 .7 3 .8.6.8.5 2-4 2.1-4.1h2l1.1 2.3 1.2 2.2.8 6.5.8 6.5.6 3.1.7 3.1-1.6.6-1.5.6-.8-1.2zm-187-1-1-1.2 1.6-10 1.6-10 2.6-.3 2.6-.3 1.3 3 1.2 3.1h1.9l1-3 1.1-3h3.5l1.2 4.3 1 4.2 1 6.5 1 6.4-.9 1-.9.9-1.4-.6-1.4-.5-.7-5.6-.7-5.6h-2v5.6l-1.2 1.2-1.2 1.2h-2.6v-8h-1.3l-1.3 1.8-1.3 1.7v2.7l-.1 2.6-.6 1.6-.6 1.6h-2.6l-1-1.3zm51.2.1-2-1-3.4-3.6-3.3-3.5.4-5.4.5-5.3 2.3-2.5 2.3-2.5h3.8l3 1.6 3 1.5-.4 1.2-.4 1.2-4.9 1-4.9 1.2.1 3 .2 3 1.7 2.7 1.7 2.6h5.7l.6 2 .6 2-.6 1-.6 1h-3.4zm9.5-1.6v-2.7l-.5-8-.5-8 .9-1.4.9-1.4 1 .7 1.2.7v5.8l2 1.1 2.1 1.1 1.5-1.2 1.4-1.1v-5.5l.6-.6.6-.6 1.4.6 1.4.5v4.4l-2 3.3-2 3.3 2.5 4.9 2.5 5v2h-2.1l-1.3-1.3-1.2-1.2-1.3-3.3-1.4-3.2-.9-.6-.9-.6-1.4 1.2-1.5 1.2v7.8h-3v-2.8zm61.9 1.2-2.6-1.4-2.7-4-2.6-4v-8.2l3-2.9 2.8-2.9h4.6l1.9 1.5 1.9 1.4-.7 1.6-.6 1.6-3.4-.6-3.4-.7-1.1 2-1.1 2v5.9l2 2.2 1.8 2.3h2.9l1.6 1.8 1.7 1.9v2.3l-1.7-.1-1.8-.1-2.6-1.4zm10 1.4v-.3l-.6-11.8-.5-11.9 1.8.4 1.9.3.5 5.5.5 5.5 3.3-3.2 3.2-3.1v-5.1h3.3l-.6 5.1-.6 5.1-1 1.3-1.1 1.2 2.5 4.4 2.5 4.4v1.5h-3.7l-1.9-4.3-1.9-4.2-2.2-.3-2.2-.3-.3 4.7-.3 4.7-1.3.5-1.2.4v-.4zm67.4-.5-2.3-.4-.2-4.2-.2-4.2-.1-3.5-.1-3.5-.2-1.7-.2-1.7-2.8-.3-2.7-.3v-4h10l.3 3.8.3 3.7h3.8l3.5 3.4 3.6 3.3v5.1l-1.8 2-1.7 2.1-3.5.4-3.5.5zm7.6-6.7.3-2-1.8-1.3-1.8-1.3h-3.7v7.1l3.2-.3 3.3-.3zm42.6 6.4-2-.8-1.5-1.6-1.3-1.7-.7-4.7-.8-4.7 1.3-3.6 1.3-3.6 2.7-2.7 2.6-2.6h4.6l1.9 1.8 1.9 1.7 2.1 4.6 2.2 4.5-.9 4.5-.8 4.4v.8l-.1.7h-2.3l-1.6 1.4-1.6 1.3-2.5.6-2.5.5zm7-6.2 1.5-2.2v-8.4l-1.6-1.3-1.7-1.4-2.6.4-2.6.3-.7 1.2-.8 1.1v8.6l1 2 1 1.9h4.9l1.5-2.2zm12 6.3-3-.6-.3-11.2-.2-11.2 1.7-1 1.8-.8 3.2-.1h3.2l2.8 2.6 2.8 2.6 1.4-.3 1.4-.3 1.9-2.1 1.9-2.2 1.5 2.3 1.6 2.2h3.8v3l-2.7.6-2.7.7 4 1.4 3.9 1.3 1.8 2.1 1.7 2.1v4.4l-2 2.2-2 2.2h-8.5l-1.5-1-1.5-1 .2-5.8.3-5.8-1.4-1.9-1.3-1.8-1.7.6-1.6.7-.7 1.6-.6 1.6 1.7 3 1.8 3-1.2 2.7-1 2.7-3.4 1.2-3.2 1.2-.5-.1-.4-.1zm7.2-5.7.6-1.7-1.9-1.3-1.9-1.3-1.2-1-1.2-1.1h-1.2v6.8l.7.6.6.7h4.8zm16.1-1.6 1.2-1.2v-2.5h-4v5h1.6zm-18.3-10.3v-1l-2.3-.3-2.2-.3v3.2l2.3-.3 2.2-.3zm-39.8 14.8-3.7-2.8-2-4.2-2-4.1.6-2.6.6-2.6 2.8-3 2.8-3h5.8l1.9 1.4 1.8 1.3-.6 1.7-.6 1.6h-4.2l-3 1.7-2.9 1.7v3.1l2 3.3 2 3.2h2.7l2.1 2.3 2.2 2.3-.7.7-.6.7h-3.4l-3.6-2.8zm72.5 1.8-1-.7v-14.3l-2.2-3-2.2-3.2.6-1.4.5-1.5h9.6l1.4 1 1.4.8-.6 1.6-.6 1.6h-3.2v18.8l-1.3.5-1.4.5zm15.3.2-2-.5-.7-1.2-.8-1.1v-12.3l-1.5-1.2-1.4-1.2 2.1-2.9 2.2-2.9h2.6v1.6l3 1 3 1.2v5l2.9 2.4 2.8 2.4.5 1.5.5 1.4-1.4 2.8-1.4 2.8-2.5 1-2.5.9-1.7-.1-1.7-.1zm6.3-6 .3-2-2.3-.7-2.3-.6h-1.6v6.1l2.8-.3 2.7-.3zm-147.7-33.2.4-1.3 1.3-.4 1.4-.5-.5 1.4-.4 1.3-1.3.4-1.4.5zm-44.7-3-6-.5-1.3-.8-1.2-.8v-2.9l2.2-.3 2.1-.3.4-1.1.4-1.1-2-.6-2-.5-.7-1.7-.7-1.7 1.4-1 1.4-.9 10.5.5 10.5.5h.3l.2.1v2.9l-2 1.1-2 1v2.8l2 .5 2 .5v3.3l-1.3.3-1.2.4-3.5.4-3.5.4zm5.3-4.6 2.2-.6v-3l-3.2.6-3.2.6-.4.4-.4.5.7 1 .6 1.1h1.4zm17.5 3-.6-1.6 1.6-1 1.7-.9v-2.4l-2-1.3-2-1.2v-3l2.4-.6 2.5-.6 6.6.5 6.7.4 1 1.4.8 1.4-.2 2.5-.3 2.5-3.6.3-3.6.3.5 2.5.4 2.4h-11.2zm25.8.3-1.1-1.1v-1.6l2.6-1 2.7-1-2.2-2.3-2.1-2.3v-2.4l2.3-.1 2.2-.1 9-.3 9-.3 1.3 1 1.2 1 1.4-1.1 1.4-1.2.6 1 .6 1-2.2.7-2.1.6-1.1 1-1.1.9-2 1.4-2 1.3 2.8.7 2.7.7v2.8l-1.3.8-1.2.7-10.2.2-10.1.2zm-4.3-40-1.7-3.2v-27.6l1.5-.6 1.5-.5.6.6.7.6-.3 5-.2 5h2.1v-11h2.9l.5 1.8.5 1.7.1 9 .2 9-.1 4.8-.1 4.7h-4v-12.1l-.8.5-.7.4.1 4.4.2 4.4.7 3.2.7 3.2h-2.7zm-182.2.7-1.6-1.4v-27.8l.6-1.6.6-1.6h6.6l1.5 2.3 1.6 2.2 1.6-2.3 1.5-2.2h4.8l1.5 2.3 1.5 2.3.5 2.5.4 2.4.2-3.2.1-3.1.6-1.6.6-1.6h6.6l.6 1.5.5 1.5-1.8 1-1.8 1-.7 3.7-.6 3.8 1.7 1.3 1.7 1.2h2.6v-13.9l1.1-.7 1.2-.7.9 1.6.9 1.7 2-1.3 2-1.2 1 1.5 1 1.5-.3 14-.3 14-1.8.3-1.7.3v-4.1h-2v3.7l-5.2.7-5.3.7-1.6-2-1.7-2.1.5-6.8.4-6.7-.9-2.4-.9-2.5-.6 9.4-.7 9.3-1.7 1.9-1.6 1.8h-2.4l-1.8-2-1.8-2-3 2.5-2.9 2.5h-2.7zm31.4-9.3v-5l-2 .6-2 .5v2.6l-.6 3-.7 3.2h5.3zm-15.1-4.1-.1-4.5-.8-2.5-.8-2.5v8.5l-.2 8.5 1-1.5 1-1.5zm144.5 14-.9-.8-3-.4-3-.3-.5-6-.6-6-.8 5-.8 5-1.6 1.8-1.5 1.7h-3l-2.3-2.8-2.4-2.7v3.6l-1.7-.3-1.8-.3v-29.8l1-.4 1.2-.4 1 2.3 1 2.3 1.3-2.7 1.3-2.8h4.6l1.5 1.6 1.6 1.4.6 2.7.6 2.7.3 1 .4 1-.1-4.8-.1-4.7.6-.6.6-.6 1.8.7 1.8.8h2.4l2.5.2 1.2 4.5 1.2 4.5.1-4.8.1-4.7h3v4.5l.9 1.4.9 1.3 1.2-3.6 1.2-3.6h3.6l1.3 1.6 1.4 1.7.3 10.3.4 10.4-.6 3.5-.7 3.6-2.4 1.1-2.5 1.1-2-2.3-2-2.3v1.8l-3 1.8-3.2 1.7h-1.4l-1-1zm-12.6-12.8-.3-4.7h-2l-.3 4.9-.3 4.8.6 1.7.6 1.6 1-1.8 1-1.7zm27.1-1.5v-8.2l-.9 2-.9 2v5.6l-.1 5.6.7.6.6.7h.7zm-15.9 2.8v-2.4l-1-.6-1-.6v7.1l1-.6 1-.6zm6-2v-3.5h-2v7h2zm-7-15.8-1-1.1v11.1l.8.7.7.8.3-5.3.3-5.2zm-11 5.8v-2.5h-2v5h2zm-103.1 22.2-.1-1.2-.4-14.7-.4-14.7 1-.6 1-.7 1.5 1.2 1.4 1.2 1-.6 1-.6 1.5.6 1.6.6v2.8h1.8l.6-2.4.6-2.5 2-.6 2.1-.7 1.6 1.3 1.5 1.3 1 2.6 1 2.5-.1 11-.1 10.9-1.5 2.3-1.5 2.3h-4.7l-1.1-2.5-1.2-2.5h-1.8l-.6 2.3-.6 2.4-4 .1-4 .2zm4.8-6.9-.5-1.3-.1 2-.1 1.8.6-.6.6-.6zm12.3-2v-2l-1 .7-1 .6v4l1-.6 1-.6zm-6.2-6.5.2-8.8-1 1.5-1 1.5v14.5h1.7zm6.2-2v-3.8l-1-1.5-1-1.5v10.5h2v-3.8zm32.3 17.6-1.3-1.3v-5.6l-2-.1-2-.2-1.3-.1-1.2-.1v7l-1.9.3-1.9.4-.7-1.2-.7-1.2.5-9.4.5-9.4h-5.3v-2.6l2-1.4 2-1.4v-3.6l1.3-1.3 1.3-1.3h26.2l.7.7.7.7.7 5.3.7 5.3.6-4.9.6-4.8 1.5-1.5 1.5-1.5 2.1.7 2.2.7 1 2.5.9 2.4v16h2.8l.6-2.3.6-2.2v-14.4l1.6-1.5 1.4-1.6h2.4l1.3.8 1.3.9-.3 15.4-.3 15.4h-10.7l-.5-.8-.5-.9 1-1 1.2-1.2v-2.8l-1.2.4-1.2.4-.8 3.2-.9 3.2h-3.8l-1.5-.6-1.6-.6v-3.8h-1.8l-1.2 3-1.3 3.2-3.1-.7-3.1-.7h-3l-2.5.7-2.5.6-1.3-1.2zm7.8-9.4-.3-5-.5-.5-.5-.5-1.9 2.4-1.9 2.3v5.5l.7.7.7.7 2-.3 2-.3zm16.9.6.9-3-.8-.5-.8-.5.2-5.6.2-5.5-.8-.6-.9-.5v20.4l.5-.5.6-.5zm-11.3-1.3-.5-1.3-.1 2-.1 1.8.6-.6.6-.6zm-16.2-1.8 1.5-2.9v-2.1h-2l-1.6 2.5-1.6 2.5.6 1.5.5 1.5h1zm10.5-9v-2h-2v-4.1l-.9.5-.9.6-.6 2.6-.7 2.7 1.3.8 1.3.9h2.5zm91.6 19.3-.6-1.4v-19.4l.7-4.7.5-4.6 4-.4 3.8-.4 1 1 1 1 1.3-1.2 1.3-1.2 1.2 1.2 1.2 1.2v11.4l1.8.6 1.7.6 1.1.5 1.2.6.7-7.6.7-7.5 1-.6 1-.7.9 1.4.8 1.3.3-.4.3-.5 1.3-2.2 1.2-2.3v-3.2l2 .5 1.8.5.6-2.2.5-2 1.8 1.7 1.7 1.7-.1 18.2-.2 18.3v.8l-.1.7h-3v-2h-2.8l-.5 1.3-.4 1.2-2.2-1.3-2.1-1.2v2h-3.8l-.4-1.2-.5-1.3-1.7 1.8-1.7 1.7h-4.9l-1-2.6-1-2.5v-25l-1 .6-1 .6v27l-.4.8-.5.8h-8zm18.3-9.5.1-1.8h-2l-.6 3.4-.6 3.5.8 1.3.9 1.3.6-3 .7-3zm8.8 0-.4-2.3v8l.4-1.7.4-1.8zm-21.7-14v-4l-1 .7-1 .6v8l1-.6 1-.6zm21.7-1.5-.5-1.8v6l.5-1.2.5-1.3zm6.3-2v-2.3l-1 .6-1 .6v5l1-.6 1-.6zm28.8 26.7-1.3-2h-1.5v3h-2.9l-.6-1-.7-1.1-1.4 1.2-1.5 1.2-1.1-1.1-1.1-1.1-.5-13-.5-13 1.2-1.5 1.1-1.4 3.2-.6 3-.6 1.5 1.1 1.4 1.2 2.3-2.2 2.3-2.1 2.6 2.4 2.7 2.6v7l1 .6 1 .6v-8.9l1.6-1.3 1.6-1.3 1.4 2 1.5 1.9.5-2.3.6-2.2h2.1l1.9 1.7 1.8 1.6 1.5-1.9 1.5-1.9 1 1.5 1 1.5v5l1.5-3.3 1.4-3.2h2.1v2.1l1-.6 1-.6-.5-.9-.5-.9 2-.6 2-.6 3.3.6 3.2.7 1.2 1 1.1.9.6-1 .6-.9h13.2l13.2.1 1.3 1.3 1.3 1.3v11h2l2 2 2 2v10.6l-1.6 2.2-1.4 2.2h-5.6l-1.5-1.8-1.6-1.7v-11.3l-.3-11.2-.6-1-.6-1h-4.8l-.8 1.3-.7 1.2-.2 12-.1 12-.2.8-.1.7h-3l-.6-2.6-.7-2.6-.2-10.1-.2-10.2-.2-1.3-.1-1.2h-3l-2 1.7-2 1.7v5.6l2.5 1 2.5 1v1.8l-2.5 1.6-2.4 1.6v6.8l2.5 1.6 2.5 1.6v3.1l-3.7-.3-3.7-.3-.7-2.5-.7-2.5-.1-11.7-.1-11.7-.8-.5-.8-.5-1.1.7-1.2.7-.3 13.4-.2 13.3-1.4.6-1.4.5-.9-1.4-.9-1.4v-23.1l-1.2-1.2-1.2-1.2h-1.6v28h-4v-7.4l-1 1-.8.9-.4 2.5-.3 2.5-1.8.3-1.7.3v-8.6l-1 1.5-1 1.5v5.2l-5.2.6-5.3.5-1-1.4-1.2-1.4.3-8.2.4-8.3-1 2-.9 2v6.1l-.1 6-1.8 1.7-1.9 1.7h-3.3zm4.3-19-.5-5.5-.7 3-.7 3v7l-.2 7.2.8.7.7.8.6-5.4.5-5.3zm73.9 13v-2h-2v4h2zm-80.1-10.8-.2-11.7-2 6.4-2 6.4 1.3 5.3 1.3 5.4h1.7zm24.8-1.4-.5-1.3-.1 2-.1 1.8.6-.6.6-.6zm-209.3 9.7-.6-1.4.7-1 .6-1.1h2.4l2.9-1.5 2.8-1.5.9.6.9.5v3.6l-1.8 1.6-1.9 1.7h-6.3zm165.6-19.5v-1h2v2h-2zm99-2.4v-1.4l-1.5-1.2-1.5-1.2v-1.4l3-1 3-1.2.5 1.8.6 1.8-.7 2.6-.6 2.6h-2.8zm-94-6.6v-1h3.1l-.6 1-.6 1h-1.9z"/>
</svg>
