<?xml version="1.0" encoding="utf-8"?>
<svg xmlns="http://www.w3.org/2000/svg" viewBox="0 0 640.9 435.2">
	<title>A facsimile of a stamped government pass with signatures, in Cyrillic.</title>
	<path d="M433.5 398.9l.3-.2h.2l.1.3h-1l.4-.2zm46.8 0l.3-.2h.2l.2.3h-1l.3-.2zm3 0l.3-.2h.1l.2.3h-1l.3-.2zm30.6-.2l.3-.3.6.3.6.3h-1.8zm42.8-.1a2 2 0 011-.4h.4l.6.8h-2.5zm10.8 0l.5-.5.4-.3 1.4.7v.5h-2.4zM128 396.3l-.2-.3-10-.6-4.4-.7a68.3 68.3 0 01-6.7-1.2h-.7l-1-1h-1.9l-.6-.6-1-.5-5.3-2-2.9-1.2-1-.3-.6-1-1.4-.6-1.8-1c-.5-.5-1.6-1-2.5-1.1l-.7-.2-.6-1.3-3-1.5-1-1.2a6.1 6.1 0 00-1.7-1.3l-1.2-1a11 11 0 00-1.6-1.5l-.6-.4-.3-.7-.3-.8-.8-.4-.8-.5-.8-1a9.1 9.1 0 00-2-2l-1-.8v-.3c0-.2-.7-1-1.3-1.8l-1.2-1.8L66 364l-1.2-1.4v-.7l-1.5-2.3c-1.7-2.4-2.2-3.5-2.2-4.3v-.5l-.8-1.1-1-2-1-2.5-1-1.8v-1.2l-.3-.5-.7-1.6-.5-1.3-.3-.3v-1.4l-.8-2v-1.8l-.6-1.1-.3-3.8-.3-3.7.5-1-.5-.5v-18.6l.5-2.5c.3-1.4.6-3 .8-3.4.3-1 .4-1.7.6-3.2v-1l1-.5.1-1.1.2-1.1h.4V293l.8-2 1-2.4.3-.8v-.4l.6-.5.5-.4v-.4c0-.4.6-1.4 2-3.4l.8-1h1v-1.5l.3-.4 1-.6.7-.1.2-.5.1-.5-.2-.3v-.3l.5-1 1-1.3.7-1 .2-.5.6-.3.6-.2v-.7l1-.7c1-.7 1.4-1.2 3-2.8l1-1c.1 0 1-.7 1.7-1.5 2.6-2.7 3-3 3.5-3.1l1.6-1.1 1.1-1h.5c.6 0 1.3-.4 1.6-1.1l.3-.6 1.5-.3.7-.6 1-1 .3-.5 3-1 1.4-1.1h.4l1.2-.3 1.7-.7a64 64 0 004.8-2l1.8-.5 1.4-.5 1 .3.1-.3.2-.3 4.4-1.3.3-.8h1l.3-.3.5-1.4.2-1h.7l.6.8-.3.8-.3.8h2.3l.1-1 .1-1 .7-1 .4.4.3.4v1.8h.2l.3.2 1.8-.8.2-1.4c.1-1 .2-2.1.1-2.8v-1.4l.4-.6h.7v.9a89.9 89.9 0 01.2 4.3l.1.9 1.1.3.7-1v-.8l-.3-.8.7-.4.5.6.5.6v.7l-.3.8h1.4l-.2-5-1-.8.7-1 .8.3.8.2.7.8-.3.3a5 5 0 00-.4 1.5v2.5l.2 1.2h.7c.5 0 1 0 1.2-.2l.4-.1.4-1 .4-1 1 .3v1.6h.4l.5.2.4-.4c.2-.2.5-.6.6-1l.3-.5h.8v.8l1.4 1.6 2.4.2 3.7.4h1.2l.3.4.8.3h.5l.2-.7-.5-1.2.3-.5.3-.5h1l1.6 1.5.3 1.2.3 1.2h.4c.1 0 .4 0 .5-.2l.1-.3-.8-1.3V247l.6.2c.3 0 .7.3 1 .4l.3.3v.5l.1 1.2.2.6h.2c.3 0 1.3-1 1.3-1.3v-.3l-1-.3v-.2l.2-.2-.6-.8-.7-.7v-1.3l.7.2v.6c0 .3.3.7.5.8l.3.3v-2.5l-.4-.3-.4-.3.3-.5.2-.5v-.3l-.2-.4.3-.3.3-.4h1.3l.3.7-.8 2.3.5.8-.3 2.2.8.9.8.8-.4.6-.4.6 1.1 1.4 2 .3 1.5 1 2.3 1.6.6.5 2.5-.1.8.6 2 1.5 1.2.9.3-.3.4.3c.4.4 2.4 1.5 3.5 2l.8.4.6 1 .5.9h.8l1.2 1.9 2.3 1 .3.5c.2.3.5.5.6.5l1.2 1 1.7 1.9a37.4 37.4 0 016.1 7c.5.5 1 1 1 1.2l.8 1.6 2 3c.4.8.7 1 2 2l.4.6v2l1 1 1 1.3v1l1.2 2.2v1l.5 1 .5 1 1.1 2.5 1 2v2.6l.5.8.4.8.4 3 .3 2.9 1 2v5.3l.2 4a520 520 0 01-.4 7.8l-.2 2.8-.2.5c-.2.3-.4 1.3-.6 2.3l-.3 1.8.3.5.3.6-.3.9-.2 1-1 1v2.6l-.6.6-.6.6-.4 1.6c-.2.8-.5 1.7-.7 1.9a9 9 0 00-.7 1.8 22.5 22.5 0 01-3 6.7 6 6 0 01-.9 1.5l-1 1.3a38 38 0 01-4 6l-.4 1-.8.3-1.4 2.5-1 .9-1 .9-.8 1.4-1.4.9-1.3.8.1.2.2.3-.2.4v.4l-1.3.7c-.6.4-2 1.3-2.8 2.2a44.5 44.5 0 01-10 7.3l-1 .4-.3.5-.3.6h-.5l-1.5.6-1.4.7c-.5 0-3.3 1.4-4.7 2.4l-1 .8v.4l.2.3h-.3l-1.3.2c-.6 0-1.5.3-2 .5l-1 .4-.5-.2-.5-.1v.5l-5 .3-2 .5-2.2.7c-.4.2-5.8 1-7 1h-1l-1 .7-3 .2-.2-.3zm4.6-5c6.6-.2 8.3-.4 10.8-1.5l1.8-.4 1.2-.1.2-.2 1.6-.6 2-.5 1.1-.8.8-.5h1.3l2.3-1a44.8 44.8 0 0010.8-6l1-.3 1.6-1.7 2-.6 3.8-4a114.2 114.2 0 008.3-9.2l.5-1 .6-.2.5-.1 1-1.4a26 26 0 002-3.8c1.2-2.5 2.6-5 3-5.4a42 42 0 002.7-6.5 47.5 47.5 0 012-5.8l.5-1.2-.2-.7-.2-.8.6-1 .5-1v-1.8l.5-.7.4-.7v-4.5l.2-.3.2-.3v-9l-.2-.7-.2-1-.2-2.5-.2-2.6-1-1.7.2-.8.1-1-.4-.6-.5-.6v-3.5l-.8-2.1a34 34 0 01-1.2-3.5l-.4-1.3-.6-1.2a6 6 0 01-.6-1.4l-1.5-3.1-1.4-2.8-1.5-2.2a43.5 43.5 0 00-3.9-5.3l-.8-.8v-.8l-.3-.8h-.3c-.3 0-1.5-1-1.5-1.4a4 4 0 00-.6-1.1l-.7-1h-.6l-.7-.2-.3-.8-.4-.8-1-.3-1-.3v-.4l-2-2-2.8-2.8-1-1h-.8l-2-2-1.4-.3-1.5-1.4-1.8-.8c-1-.5-2-1-2.3-1.4l-.6-.5-1.4-.3-3-2.1h-1.7l-2.3-1v-.6l-1.6-.8-3.8-.2-.8-.4c-.5-.2-1.4-.6-2-.7l-1.3-.4-1.2.7-1.4-1.4h-.9c-.5 0-1.4 0-2-.2l-1.4-.3-2 .5-1.5-.6-7-.2-3.2.3a50.7 50.7 0 00-11.5 2.4c-2.9.5-5.4 1.4-8.3 2.8l-2 .9-1 .6-.6.7H96l-1.2.7-1 .6-.5.7-.5.6h-1.2l-.6.7c-.4.4-.7.7-.9.7-.2 0-1.2.7-2.4 1.7l-2.2 1.7-1.8.7-.8.8a22 22 0 01-1.9 1.4l-1 .8-.4.8c-.3 1-.9 1.5-2 2l-.7.3-.3.7c-.2.4-1 1.3-2 2-.9.9-2 2-2.4 2.8l-1.5 1.8-.7.6-.8 1.7-.8 2-.4.6-.4.3v1.2l-.6.7-.9 1.6-.2.8-1.2.5-.3 1c-.2.6-.5 1.4-.8 1.8-.3.3-.5.8-.5 1l-.5 1.4-.6 1v2.3l-.2.3-1 2-.6 1.6-.3 2-.7 3.2-.3 1v4l-1 1.8v1.6l.5.4-.2.2v.2l1.4 1.7.3-.5.2-.5.2-1.7a44.4 44.4 0 01.8-6 99 99 0 001.5-6.6c.7-2.8 2.7-8.2 4-11l.5-1v-1.1l.8-1 .8-1 1-2 1-1.6a21 21 0 013-3.7l2.1-2.8 1-1.7 2-2 4.2-4 2.2-2 2.7-1.7a103.6 103.6 0 0115.2-8.2h.4l.6-.7 1.5-.4 4-1 3.2-1 .7-.3 2.5.2v-.4l2.5-.2c1.3-.2 5.3-.3 9-.3l6.4-.1 1.8.3 3.2.6 3.6.7 2.4.3.6.5 1 .5 2.3.7 2 .7h2.3l.5.5.5.7s.5.4 1.1.5c1.3.4 4.2 1.9 4.2 2.2l1.3.7 1.4.6v.3s.2.3.5.4c.4 0 1.7.9 3 1.8l2.4 1.7 2.7 2.4a140.8 140.8 0 0111.7 12.6 35.2 35.2 0 014 6l.5 1.3.6 1 .5 1 .6 1.4a59.3 59.3 0 015.4 18.2l.7 3.5v5.3l.1 5.3-.3 2.2-1.4 8a46 46 0 01-2 6.9 33.9 33.9 0 01-4 9c-2.5 5.8-5 9-10.8 15a67.4 67.4 0 01-21.3 15.5l-1.6.8c-.6.3-1.4.7-1.7 1-.3.3-.9.5-1.3.7l-.7.3-.7-.2-.6-.1-.8.5a3 3 0 01-1 .6h-.3v.8h-2.5a49.5 49.5 0 01-7 1l-2.6.3h-5.5a58 58 0 01-35.3-9 316 316 0 01-8.2-5.6l-1.9-1.5-3.8-3.7a23 23 0 00-2.9-2.7h-.2l.3.6c.4.7.2.9-.5.5l-.6-.3v-.3c0-.2-.3-.7-.8-1.2l-.7-.8v-1h.5v-.6l-.3-.1-.4-.2-.9.8-1-.3v-3.4l-1.4.3v-1h.8l-.5-.8h-1l-.2-1.3-.3-1.3-.5-1-1.2-1.6-.7-1-.6-2-.7-2-.4-.5-.5-.6-.4-1.5-.5-1.5-.8-1 .2-.4.1-.5-.4-.4c-.2-.2-.5-.6-.6-1l-.3-.6v-2l-.3-1.7-.4-1.2-.5-2.3-.2-2.4c-.6-6-.7-9.4-.3-9.8l.1-.2-.4-.7c-.5-1-.6-1-1.4-.3l-.6.5v4.8l.5.6.4.6-.8.6.3 5.9.5.8.5.9-.2 1.7v1.7l.3 1.3 1 3.9.6 2.6.6 1.4.6 1.7c0 .3.7 1.7 1.5 3.4l1.5 3 .5.5.5.5 1.7 4 1.5 1.4v.4c0 .4 1.8 3.2 2.5 3.7l2 2.4c.8 1 2 2.5 2.7 3 .7.7 1.2 1.3 1.2 1.5 0 0 .6.7 1.4 1.3a44.5 44.5 0 014.2 3.4 180.4 180.4 0 014.4 3h.3l.2-.7.2-.6h.2c.3 0 2 1.8 2 2v.3h-1l-.2-.4-.6-.4H89v.9h.4l1.2.8c.3.4 1.3.9 2 1.3a6 6 0 012 1c.3.3.8.4 1.4.5l1 .3 1.3 1.3 2.3 1 2-.2v.7l.6.5.8.4h1.8l.7.4 1.1.4 1.1.4.8.4 5.3.3 1.4.4 1.5.4h3.4l3.5.3.2.2 1.6-.2 6.4-.2zM87 377.8v-.4h.8v.8H87zm-1.2-.8l-.2-.4.6-.6.2.4.2.5-.6.6zm-2-1.7l-.3-.3.3-.3.3-.3.3.6.3.5h-.4c-.3 0-.5 0-.6-.2zm-1.3-1l-.4-.5v-.3l.2-.3.5.2.5.3v.4c0 .2 0 .4-.2.5h-.2zm-1.6-1.4c0-.1-.3-.7-.8-1.2-.4-.5-.8-1-.8-1.2v-.2h.7l1.8 2-.2.5c0 .4-.7.5-.7 0zm43 14.6l.2-.2 7.2-.1.4-.3.4-.2 3.1.4 1.4-.3a9 9 0 002-.6l.5-.3h.6a7 7 0 001.8-.4l1.1-.4h3.7l.1-.3.1-.2 1-.1 2-.4.8-.2.5-1 .5.2.6.2.4-.4a6 6 0 012-1c.7-.3 1.6-.7 1.8-1l1.7-1a35 35 0 003.8-2.1c3.6-2.4 5.4-3.5 6-3.8.8-.4 2.8-2.1 5-4.3l2-2 .1-.4.2-.5.5-.1.5-.2 1.4-1.6a41.6 41.6 0 004.6-6.2 132.8 132.8 0 004.1-6.6c.3-.3 1.1-2 2-3.6l1.2-3-.2-.7v-.7l.2-.4c1-1 1.8-3.2 2.3-6.4l.6-2.4.5-3 .5-3 .3-1.2v-11.8l-.2-4.4-.4-1-.5-1v-1.3l-.7-2.7a29 29 0 00-1.8-6.2c-.6-1.2-1.4-3.2-2-5l-.6-1.8-1-1.7-3.8-5.7-2.6-4-1-1a133 133 0 01-4-4.3l-2.9-3.1-1.6-1.3c-1-.7-2-1.7-2.6-2.2l-1-1-2.5-1.1v-.3c0-.2-.4-.4-.5-.4l-1.4-.5-1.2-.5-.5-.7-.5-.7-3.9-1.6-1.4.6-.8-.4-1.3-1-.7-.7h-.6l-1.8-.5-2-.7-.8-.2-1.8-2h-2l-2.3-1.2-2.4-.1-.3-.3-.3-.2-2.7-.2-3.3-.2c-.8 0-8.5.2-11.2.4h-2l-1.7.5-3.5.9-1.8.3-.6-.2-.6.7-2 .4-2 1.2-1 .2a25.3 25.3 0 00-6.8 2.8c-.5 0-2.8 1.5-3.2 2l-.4.6h-1.3l-.9.8-1 .8-1 .7-1 .6c-.3 0-.7.4-1.2 1l-1 .9h-1l-.6 1.3-3 2-1.4 1.4-1.5 1.7a58.3 58.3 0 00-5.2 5.4c0 .3-1.5 2.4-2.6 3.8l-1.2 1.4-.6 1.7-.6 1.6-.6 1c-.4.5-.7 1-.7 1.4 0 .3-.3 1-.7 1.7l-.6 1.3v1.2l-.9.9-.6 1.9a53.7 53.7 0 00-3.4 16l-.2 1.8 1 2.3-1 .6-.2.8-.3.8.4 1 .4 1.2-.3.8-.3.8.2 1.5a49.4 49.4 0 001 6c.4 3 .8 4.5 1.2 5.4.2.4.3 1 .3 1.4 0 1 1 4.3 2 6.2l.6 1 .2 1 .2 1L69 351l.3 1c.2.6.5 1.4.8 1.7l.8 1.7.3 1 1.2.8.3.8.3.8.6.6 1.6 2a10 10 0 001.7 1.8l.6.3v.8l2.1 2 2.1 2.5a70.3 70.3 0 008.6 7 15 15 0 003.5 2.3c.2 0 .5.2.7.5l.5.5 2.7 1.2 3 1.5c1 .6 3 1.4 4.6 1.9l2.2.8c.7.4 3.2 1 4.3 1h.8l.5.5 3.6.6a62.7 62.7 0 007.2.8zm-14-4.1l-1-.3-.4-.8-.4-.8.3-1 .8-1.3.4-.5h1v.3l.3.2-1 1.6.4.7.3.7 1-.2 1-2 .6-2.4.5-2.3v-2.4l-.4-.2-.4-.1-.6.6c-.4.3-.8.9-1 1.3l-.3.7-.3.2h-.4l-.2-.2-.3-.4.8-1.6.7-1.6.8-.4c1-.5 1.7-.5 2.7 0l.7.4.5 1 .4 1.2v1l-.7 2-.4 1.2v.4l-2.3 4.4-.8.5c-.8.5-1.2.5-2.4 0zm11 0l-.3-.2.3-1.5.3-1.4-.2-.7v-.7l.1-.7.3-.7.2-2 .2-2 1-.1.5.5-.3 2-.4 2.6-.2.7h1l.2-.4.2-1c0-.2.2-1 .5-1.5l.7-1.7.2-.6h1.5l.1.5.2.4-.3.8-.3.8v2.9l-.4 1.8-.5 2.2v.4l-1.3-.2V382l.2-1.6h-.4l-.3.2-.4 1-.3 1-.6.6-.5.4h-1l-.2-.2zm18-1.2l-.6-3.2-.5-3.8-.3-1-.9.2v4.5l.4.7.4.7-.4.4c-.5.6-.7.5-1.3-.5l-.5-.8.1-6.4 1.5-.1.6.5h1.2l.3.7.2.6v2.2l.4.6.4.7v.7l.3 1.8.3 1-.5.5c-.2.3-.6.5-.8.5h-.3zm5.1-.5l-.4-.1-.5-1c-.3-.6-.6-1.4-.6-2l-.6-2.8-.2-1.7v-1.2l.7-.7.7-.6h2l.4.3.6 1.3.7 1.3-.2 1.3v1.2l-.9 1.2h-.7l.1-1.6.2-1.5-.5-1-.4-1h-.4s-.4.2-.6.5l-.3.3.1 1.7.2 1.7.4.5.4 1v.4l.5.4.5.5.5-.2.5-.1.4.6-1.6 1.5h-.4zm-41.9-3.2l-.3-.1.8-1v-2l.1-2.1.8-1.3c.5-.8 1-1.7 1.4-2l.5-.7 1.1-.5 1.1-.5 1.6.7.1.7.2.8-.6 1.4c-.3.8-.7 1.6-1 1.9l-.4.5.1.5.1.5-.9 2.3-1.2.6-1.3.5h-1zm3.7-2.4c.7-.4.7-.7-.3-1l-.8-.4-.4.5a2 2 0 00-.3.8v.3h.6c.4 0 1 0 1.2-.2zm1.6-3.6c.2-1 .4-2 .3-2.2v-.3h-1l-.4.5c-.5.5-1.8 3-1.8 3.2v.3h.6c.3 0 .7 0 1 .2.2.2.5.2.6.2h.3l.4-2zm24.8 4.5l-.2-.8v-.7l.4-.1.4-.2 1 .9-.4.4c-.3.5-1 .8-1.2.5zm-36-2l-.5-.4v-2.7l2.2-3 .4-1.1.4-1.2 1.4-1.8.5.2c.2 0 .5.3.6.6l.1.4-.2.3-1 1.3-1 1-.6 1.4-.9 2-.2.7.2.3.2.4 1.3-1.8 1.8-3 .5-1 .6-.2.6-.2h.4l.4.3v1.6l-.6.3c-.8.3-1.8 1.2-1.8 1.5 0 .2-.3.8-.8 1.4a8 8 0 00-1 1.8l-.3.9-.7.2a4 4 0 01-1 .2h-.6zm66-3.4a4 4 0 01-1.2-.8l-.7-.5v-.8l-2.4-1.7-.4-1-.4-.8v-1.8l.4-.3.4-.3h.5l.4.2.1 1.4v1.4l.3.3.3.2.6-.1 1-.4.3-.2-.4-1c-.3-.3-.5-.7-.7-.7l-.6-.4-.5-.3.3-.6.3-.6h.7l2.5 3.8.7.5c.4.3 1 1 1.4 1.6l.7 1v.4c0 .2-.4.4-.7.5l-.8.4-1 .5-.5.2zm1.8-2c0-.3-.2-.8-.5-1.2l-.6-.8h-.7l-.2.5v.5l.1.7.3.7h1.6zm-73.4.7l-.4-.5.1-1 .2-1h-.6v-.7l.6-.1.6-.2-.2-.5v-.5l1-1.2 1.2-1.3.3-1 .2-1 .6-.4c.7-.5 1-.5 1.4 0l.4.4v1l-1.3 1.4-1.3 1.3-.2.6-.2.7.2.2h.1l1.2-1 1.2-1.1.5-1 .5-.8 1.4-.6.3.2h.3v1l-.7.6a5 5 0 00-1 1.4l-.5.8h-.3a4 4 0 00-1.2.9l-1 .8-.6 1c-.6 1-1.5 2-2 2-.2 0-.5-.1-.8-.4zm64.4-1.5l-.2-.2.1-.5.2-.5h.3l.6.2.4.3v.4l-.3.4h-.5zm-45.9-1.2l-.5-.5.2-.2.2-.2.5.3.4.3.2.8h-.3zm57.7-.6c-.3-.1-1.4-1.2-2.4-2.3l-2-2v-.7l-.3-.7 1.6-2.4 2.3.3 1.7 1.7c1 1 1.8 2 2 2.6l.4.7v.4c0 .2-.4.4-.5.4h-.3l-1.9-3-1.5-1h-1.5v.7l-.2.6 2.3 3h1c1.8.4 2 .6 1 1.5-.7.6-1 .6-1.7.2zm-44.7-1l-3-.2-1.9-.5-.9.5-.3-.4-.3-.4-1.5-.4-1.6-.5-2 .4-.8-.6.1-.3.1-.4-2.6-1.2a17.7 17.7 0 00-3.6-1.5 25 25 0 00-4.3-3.2H99l-3.7-3.8-3.7-3.7-1.3-1.8a69.5 69.5 0 01-3-4.4l-.7-1v-1.1l-.8-.7v-.4c0-.3 0-.6-.3-.7l-.8-2.4-.8-2.5a42 42 0 01-2-9l-.3-1.3.2-1 .3-.7.1-4.2.2-4-.5-1 .3-1 .4-.8.2-1.5.1-1.5.6-1.1.7-1v-1.5l.5-.5c.3-.2.5-.6.5-.8l.7-1.6.7-1.3v-1.3l.6-.6 1.5-2 1.4-2c.5-.5 1-1 3.4-4.2l1-1.4 1.2-.8 2.3-2 2.1-1.4 2-1.3 2.5-1.7c1-.5 2.6-1.3 3.6-2l2-1 2-.6 3.5-1.1 1.6-.5 3.7-.2.8-.3 1-.3h2l5 .3 3 .3 3 .6 3.7.9 2 .7c1.7.8 4.5 1.7 5 1.7h.6l2 1.8 2.4.9 1.8 1.6 2.3 2c.7.5 1.6 1.5 4.1 4l2.4 2.6 1 1.4 2.3 3.6 1.5 2 .2.8c.1.3.6 1.6 1.2 2.7l1 2.2 1 2.7.7 2.8.4 2.5.3 2.5v4.2l-.2 4-.2.5-.2 1.5c0 1.8-.3 2.9-.8 4.5l-.8 3-.3 1.4-.7 1.3-.7 1.2.1.4.2.3-1 1-.2 1.5v1.5l-.4.4-1 .7-.8.3-.3 1.2-.3 1.2-1.8.7-1.3 1.7-1.3 1.7-1.3 1-5.2 5-.8.8.4 1.2h-.3s-.4 0-.5-.2l-.3-.3-.6.3-.5.3-.8 1.5-.6.3-.5.3-1-.4-1 .4a34.1 34.1 0 01-6.6 2.6l-1 .5-1.2.2a20.7 20.7 0 00-3.9.9l-1 .3h-3.2l-4 .3h-4zm9.8-1.7a280 280 0 017.3-1.6l2-.5 1-.5 1-.7c.2-.2.5-.3.7-.3l2.3-1 2-1h1l.3-.8 1.5-1 1.5-.8 2.2-2.1c1.2-1.2 2.3-2.2 2.5-2.2.2 0 .2-.3.2-.5v-.4l1-.6 1-.7 2-3.7 1.5-1 .4-1.2 1.1-2a8 8 0 001-1.7 8 8 0 01.8-1.8l1.4-3 1-2.1.2-1.7c1.1-7.3 1.3-12.1.6-18.3l-.3-2-1-2.6v-2l-1.3-1.7a31 31 0 01-3.4-6.8l-.2-.7-2.9-2.8v-.7l-.4-.1-.4-.2-.5-1-.6-1.2-.4-.3c-.2 0-.8-.6-1.4-1-.5-.5-1.5-1.2-2.2-1.6-1.4-.7-2.6-1.6-2.6-2v-.3l-.8-.4-.8-.4-.6.9-.5-.7-.4-1v-.5l-2-.6-1-.8a8 8 0 00-1.7-1.1l-.9-.4h-1.4l-2.4-1.6h-2l-.6-.5-.6-.5-3.2-.2a71 71 0 01-4.4-.3l-1.3-.1-1.4.5-5.2.2-.2.2v.2H118l-1.8 1.3-1.3-.3-3.2 1.6h-1.3l-.2.3v.2h-2l-.6.7-.6.7h-1.5l-1.9 1.2a33.2 33.2 0 00-3 2.2 51.2 51.2 0 00-7.2 7.3l-2.3 2.6-.3 1a10 10 0 01-2 3l-.7.8.4.3c.2 0 .4.4.4.6v.3l-.5.2-.5.3-1 2v1.5l-.5.6a219.2 219.2 0 01-1.3 4.8l-.4 1.8v3l-.2 3-.5 1-.4.8.2.3.4 2c.2 1.8.4 3 1 5.8l.3 1.3-.3.3-.3.4.3.7c.2.3.3.9.3 1v.7l1.4.9-.2.8v1l.5 1 1.6 2.8 1 2v1l1 .5.3 1.5.6.6 1.1.9.6.2v1.3l.7 1.2.7 1.2h.5l1.8 1.5c.7.7 1.5 1.4 2 1.6l1 1c.5.7 1.8 1.5 5.2 3.6l2 1.2 2.7 1 3.8 1.8 1.2.5 3 .4 4 .6 1 .2h3.6l5-.3zm-8.2-1c-.4-.1-1-.3-1-.5l-.3-.2.3-.4.3-.4h.7l.8-.1v-.8l-2-.3-.4-.5-.3-.4.7-.7h2.8l4.2.4 1.3.3.3.4.3.4v.3l-.2.2-3.6-.3-.5.5-.4.5 1.3.3 2 .3h.7l.1.4.2.4-.2.2-.2.2h-6zm-1.6-6l-.2-.6v-.4l.3-.2a4 4 0 011.4-.2h1l.2-.4v-.3l-2-.6-1-1.1v-.7l.4-.3.6-.3-.7-.7.5-.6.5-.5 1.3.2c.8 0 1.8.2 2.3.4l1 .3h2l1.8-.1.1.4.2.4-.3.4-.3.4h-3l-.2 1.4-.4.5-.4.4-1 .2-.4.7 3-.3 1.3.2 1.6.4.1.2-.5.9H122zm4.8-4l.5-.5-.2-.1-.2-.2h-1.4l-1.4-.1v.4l-.2.5h.5l1.2.3h.6zm1-4c0-.2-1.4-.3-3-.3l-2.8-.1-.3-.4-.2-.4.5-.6.5-.5h2.2l1.4.5 5.1.3.4.3.3.3-.9 1h-1.5l-1.6-.2zm-23.2-.8l-1.8-.6-.5-.8a8 8 0 01-.7-1.2v-.4l1.6-2.2h1l.2.5.2.5 1.8-.3 2 .9h1.5l.8-1.6h.8l.8 1v2l-1 .7-2-.3v1.8l-1 .6h-1.9zm3.2-2l-.3-.2-3-.6-.3.3v.4l1.6.6 1.3.5 1-.6zm14.5-4.2l-.2-.2.2-.2.1-.2h1.3l.2-.4.1-.4 1-.3.8-.3.6.2 1.4.3h.7v1l-.9.2-3 .3h-2.2zm-11.3-1.4l-.6-.6-1.2-.1-3.8-.5-2.6-.3v-.7l.1-.7h1.3l3.8.2 2.5.3.2-.7.3-.7 1-.4.5.8.6.7v1.6l-.2 1.7h-1.3zm12.3-4.2l-1-.3-.2-.8-.2-.7.5-.7h1.2l1.8 1 1.6-.1 2.4-.2h.8v1l-1 .5-1 .5-3.8.2-1-.4zm-14.8-.8l-.7-.4v-.7l-.3-.6.2-.7.1-.7h.8l.2.8.3.8.4.2.5.2.6-.3.7-.3-.2-.6a4 4 0 00-.2-.7l-2.6-.3-2.4-.3-1.8.3v.9l.7.6.7.5v.5l-.3.4h-1l-.5-.5c-.3-.2-.8-.8-1-1.3l-.6-1 .4-.6.4-.7 1.5-.7h5.5l2.8 2 .1.9v1l-1 .8-.9.9h-1.6zm2.6-6.1l-.4-.4v-1l-1.4-.1-3.5-.2h-2l-.7.6-.8-.3v-1.6l.4-.3.3-.3h1l3.6.5h2.6l.6-.3 1-.4h.2l.3.8.3.8v2l-.3.3c-.5.4-.7.4-1.2-.1zm13.2-.4l-1-.2-.2-.4c0-.2-.2-.4 0-.6v-.2l5.1-.2v1l-1 .4-.8.5h-.6zm-15.3-4.8l-3.5-.2h-2l-.4-.4-.4-.4.2-.4.2-.4 3.7.3v-.5l-.6-.2c-.4-.1-1-.5-1.4-1l-.7-.6h-.7l-1-.1v-1.5l.2-.4.4-.3.7.4h7.6l.4.5.4.5-.6.8h-2.7l-.5-.3-.4-.3-1.4.6.2.6 1.1.6 2.2.9 1 .3v.2c0 .2.1.3.3.3h.2v-.8h.2c.3 0 1.1.9 1.1 1 0 .2 0 .5-.4.7l-.4.4h-.8zm13.6-.6l-.3-.4 1.6-1.6h3.5l.3-1h1l.2.6.1.7v.6l-.3.7-.6.2-2.9.4H123zm19.8-2.7l-.4-.5.3-.5.3-.5 1.3.2.3.5.3.5-.5.4c-.7.5-1 .4-1.6-.1zm5.1-3.3v-1.6l.5-.7.6-1.1.2-.4v4l-.3.6c-.2.4-.5.7-.7.8h-.3zm-20.5 0v-1l.3-.2.4-.2.7 1v.3l-.3.4h-.4c-.3 0-.6 0-.7-.2zm-25.2-1.4l-.7-.6 1.4-1.4.5.2.5.3.6-.6v-1.2l-.8-.2-.8-.2v-.8l.2-.8h1.6l6.4-.3h.3l1.1.9v.2l-.3.3-1 .2h-1v1l-.7.6-.5.7v.2l2.5.7v1l-4 .3-3-.4-1.6.5zm4-3.6v-.3h-.4l-.8.3-.4.3h1.5zm38.3 2.5l-.8-.4v-.8l.5-.5 1.3-1 .8-.3.8 1.3v1.2l-.5.5c-.6.5-1 .5-2 0zm-17.2-2.2l-.3-.5 1.3-1.5 1.4.6v1l-1 .9h-1zm-22.7-3.8l-1.6-.2-.6-.3-.5-.2v-1.2l1-1 1.4.7v.6l.8.3h5.6l1.3.9v.3l-.2.3h-2.8c-1.5 0-3.5 0-4.4-.2zm37.5-.7l-.8-.8v-.3c0-.4.5-1 .8-1l1 .6.8.7 1-.2.2.5.3.4-.4.4-.3.5h-1.8zm3.3-3l-1-.5-1 .3-1 .3-1.2-.2-.3-.5-.3-.4 1.2-1h6.1l.4.6.4.5-1 1.2h-.7l-1.6-.4zm-20.5-.5c-1 0-2-.2-2.2-.3l-.4-.2-.2-2.2.2-1 .2-.7.5-.2 2.8-.3 2.4-.2 1 .4 1 .3.3.5.2.5v.3l-.3.3-1-.2-2-.5-.8-.4-.7.4c-.3.2-.9.3-1.2.3h-.6l-.3.6-.3.5.2.3.1.2 7.2.4v1l-.5.2-.5.3H128zm-22-2l-.5-.4.2-.3.1-.4 1.8-.6 2.3-1 .5-.3-.3-.4c0-.3-.5-.6-.7-.8l-.4-.2-.6.3-1.7.6-1 .3-.6-.4-.7-.5v-.3c0-.2.2-.6.5-.8l.4-.4h10.4l.7.4.6.5-.2.5-.2.5-3.6-.3-.5.2-.5.2.8.5a8 8 0 003.7 1.2h.8l.5.3.5.4-.6 1-1.4-.1-1.4-.1-1-.5-1-.5-.9.2c-.5 0-1 .3-1.5.6l-.6.4-1.4.3c-1.9.4-2 .4-2.6 0zm46.8.3l-.2-.7v-.5h1v1.2h-.4-.4zm-26.4-5.4l-.8-.8v-1l1.1-1 4.6-.3.4.2 1.1.5.8.3.1.4.2.4-1 .7-.3-.2-1.6-.4c-.7-.1-1.4-.3-1.6-.5l-.3-.2-1.6.7.8.7.8.7-.2.3v.3h-1.7zm2.3-5l-.5-.3.1-.4.2-.4h4l.3.6-.7.7-3 .3zm-4-1.6l-.3-.4.1-.7.2-.6 2.4-.5 1.8.2c1 0 2.4.3 3 .4l1 .3.4.8-.2.2-2-.2-2-.4-1.2.2-1.2.2-.7.5c-.8.6-1 .6-1.3 0zm8-4a4 4 0 01-2-.7s0-.4.2-.7l.3-.5 1.6.2 1.7.2.3.2.3.6v.4l-.6.3c-.7.3-1 .3-1.9 0zm-7-2.2l-.4-.4.2-.5.1-.6.6-.3.6-.3h4l.5.4-.3.4-.3.5h-.9l-1 .3-1.2.9h-1.4l-.4-.4zm6-1c0-.3.2-.6.4-.8l.4-.3h1c1.2 0 1.6.2 1.6.7v.4h-.6l-1.7.3h-1zm45.3 78.7l-.9-.7v-1h.4l1 .4.5.5 1.3-1v-.5c0-.3 0-1-.3-1.3a11 11 0 00-2.9-3.1c-.2 0-.7-.4-1.2-.8l-1-.8h-.8a3 3 0 00-.9.4v.2l.2.8c.2.5.4 1 .4 1.4v.5l-1.3.2-.4-.5-.3-.4-.2-1.2c-.3-1.6-.2-1.8 1-2.5l1-.5h.7l.8.3 1.8 1.2 1.7 1 1.2 1.5 1.3 1.3.3 1.9v1l-.3 1-1.6 1.4h-.7zM90 360.9v-1.6h1.6l.2 1-.4.4-.5.6h-.7zm-14.5-3l-.6-.3-.3-1-.4-2.1-.2-1 .5-.4c1-1 4-2.4 5.5-3l2.4-1 2-1 1-.1 1.1.4.4.9.4 1v2.4l-.3.4-.4.5-1.6.7c-.9.5-2.4 1-3.4 1.4l-1.9.5-1 .8-1 .8-1.7.3zm2.8-2.8a5 5 0 001.3-.6l.4-.3 2-.5 1.8-.4 1.6-1v-2l-1-.4-1.8 1a70.7 70.7 0 00-3.5 1.6h-.5l-.5.7-.6.6h-1l-.2.4-.2.4.3.4c.4.5.7.5 2 0zm-2.7-6.6l-1.2-.8-.6-.6v-1l1.4-1.3 1.5-1.3h1.6l1.4 2.4h.7v-1l-.5-.3v-1l2.3-1.4h1l1 1.6-.3.7-1 1.5-.6.7-1 .4-2 .5-1 .2-.4.5-.5.5h-.5c-.3 0-.9-.1-1.3-.3zm1.6-2v-.3h-.5l.1.2.3.3.1-.3zm100.4 1.3l-1-.6-2.8-2.4.1-.8.1-.7-1.8-1v-.5c0-.2.1-.4.3-.5l.2-.2.6.3.6.4h1.6l.5.3 1.8.8 1.6.8c.4.3 2.3 1 3.5 1.3h.7v.4l-.7 1.3-.8 1-.6.3-.6.3h-2.2zm3-1l.3-.2v-.7l-1-.4-2.3-1.1-1.4-.7-.6.6.3.4a8.8 8.8 0 004.2 2.2h.4zm-109.8-4.4l-.5-.4v-2.7l.6-.6c.6-.7.8-1 4-2.2l2.1-1 1.3.2 1.6.3h.5l.3 1-.7.8.1.6v.7l-.6.5-.7.5h-1.4c-1.6 0-2 .3-2.3 1l-.2.8-1.3.4c-1.6.5-2.2.5-2.8 0zm4.5-3.2c.7-.1 1.6-.5 2-.7l.8-.5-.5-.3-2.2.3-.9.8c-1 .8-.9.9.8.4zm108.5 2.6c-.9-.5-.9-.6-.3-1.2l.4-.5-.3-1.3-1.4-.1c-.8 0-2.2-.3-3.2-.6l-1.9-.5-.3-.3-.3-.4.1-.4c0-.2.4-.4.8-.6l.6-.3 2.6 1.4 5 1 .4.5.5.6v.7c-.3.7-1.3 2-1.7 2.2h-.3zm.2-7l-.2-.3h-2.4l-.5-.3a6 6 0 01-1.2-.8l-1.2-1-.7-.5v-2l1.4-1.2 2.1.2 2.2.2 1.4.6 1.4.7.1.4.2.4h-.2l-.2.3-2.4-1.2-1.6-.2h-2.6v1.4l.8.7.8.7 3.6.4 1.7-.6.2-.7h1v.3l.2.4-.9 1.6h-.7l-1.4.4-.7.2zM76.7 334l-.4-.5 1.4-1.2.6.3.7.6.2.3-.4.5-.4.4h-1.2zm-8.7-4v-2l.5-.2 2.2-1 1.5-.7h-3.8l-.6.2-1.2 1.3-.4-.6-.5-1.3-.2-.7.4-.4.3-.5 6.2-.2.2.5.3.5v.5l-.3.4.6.4.6.5-.5.4a34 34 0 01-4.8 3l-.5-.1zm114.4-2l-1.7-.1-2-1-.9-1.5-.7-1.5.1-.4.2-.5.7.2 4.5.3h3.7l1.2.9v2.2l-.3.3a7 7 0 01-2.9 1.4zm2.4-1.2h.7l.2-.7.2-.7-.4-.4-5-.3v.4l-.3.4.3.4.2.4 2.4.7.5-.1zm-122-2.4l-.3-.3.2-.2h.6l-.2.4-.2.4zm8.5-1.6l-1.2-.6c-.4-.1-.8-.4-1-.6l-.2-.4h-1.2l-.5-.5-.4-.5.1-.6.2-.6 2.7.4 1.7.8 2 1 .2.5v.7l-.2.8H72zm115.3-3.1l-.6-.5-5-.1-.8.3-.6.3-1-.6v-.7l.7-.4.8-.3h5.3l1-.5v-1l.8-.6h.4l.3.3.2 1 .2 1.3-.4 1-.5 1zM75 314a12 12 0 00-2.2-1.2l-1.2-.4h-2.3l-.3-.4-.3-.4-1-.3-1.3-.6-.3-.2v-1.4l.6-.4.5-.3h.8l1 .3-.8-.7-.7-.8-.2-.8-.2-1 .6-.2 1.1.7c2.2 1.3 3.5 2 5.2 2.5l1.8.6h3v.3l-.3.8-.3.7H77c-.3 0-.7 0-1 .2l-.3.3 1 .8 1 .9v1l-.7.8h-1l-1-.8zm102.6-.6l-.6-.3v-.8l-.3-.8.3-.4c0-.3.5-.7 1-1l.6-.4 2.3-.4 3.3-.4h1l.5.4 1 1.2.4.9-.4.6c-.3.7-.6.8-2.5 1.3l-1.3.3-.4-.2-.5-.2-.2-.8a2 2 0 00-.3-1l-.2-.5-1-.1-1 .4-1 .4.3.3 1 .7.4.3-.5.4-.5.4h-.4zm7.4-2l.5-.4v-.3l-.2-.3-1-.1H183l-.4.2.3.5c.3.3 1.2.8 1.6.8.1 0 .4-.1.6-.4zm-8.3-4.7l-.4-.5.6-.4.7-.5 3.5-.3 1.2-.5a7 7 0 001.7-1l.6-.5v-1l-4 .4-3 1H176v-1l.8-.3 2.6-.8 3-.8c.6-.3 1.6-.6 2.2-.7l1.1-.2.5.5.5.4v2.5l-.5.7-.6.8-1 .4c-1 .5-2.9 1-5.3 1.6l-1.8.5h-.5zm-99.4-1c-.7-.4-1.7-1-2.3-1.2l-1-.4-.5-1.2a5 5 0 01-.5-1.7v-.5l1.8-.8.6.3.5.3v.3c0 .2 0 .5-.3.7l-.3.3.7.9.7.9 2.5.8.2-.2.2-.2-.4-.3-.4-.4v-1.2H80l.5.4.7 1.2.2.8-.3.8-.4 1H80c-1.2.3-1 .3-2.6-.6zm4.4-3.6l-1-.2-1.2-1.5-3.7-2-.5-.6-.5-.7.1-.4.8-1.4.6-1 1-.2.6.3a65.3 65.3 0 014.8 3c.3 0 .7.4 1 .7l.5.5-1 1-1-.6-1.6-1-1.9-1.2-1.5-.8v.2l-.3.4v.3l3.5 2.7 1 .5c.7.3 1.4.7 1.6 1l.4.4-.2.4c0 .2-.2.4-.4.4zm89.2-5.6l-.5-.5-.2-.7-.2-.7.8-1.4 1-.2 3-2.7.5-.8.4-.7-.3-.3a1 1 0 010-1.5l.3-.3.6.3 1 .7.2.5v1.6l-1 1.3v2.4l-.8 1.3-.7 1.2-1.6 1h-2zm2.6-1.7v-.6h-.7l-.6-.1v.5c0 .6.2.8 1 .8h.4zm1-1.2l.4-.6-.2-.2-.2-.3-1.2 1.2.1.2.5.2h.4zm-91.7.7l-1.5-.8-1.2-1.2-1.3-1.2-.6-1.5.8-.8.8-.8 1 .3c.6.2 1.3.5 1.7.8l2.4 1.3 1.7 1 .2 2.3-.3.7-.4.8h-1.9zm2.3-1.2v-.3l-2.2-2.3-1-.2-1.3-.5-.5-.2v1l1 .8 1 .9h.6l.4.4c.6.8 1.8 1 2 .4zm2.3-3.7l-1.7-1.5c-.5-.6-1.4-1.4-2-1.8l-1-.8.3-3.2.6-.5 1-.4h.2l2 1.7 3.1 2.8 1.2 1-.4.8h-1.4l-1-1.1-2-2.1-1-1h-1v.4l-.3.4 1.2 1 2.6 2.4 1.3 1v1.2l-.9.2zm78.8.3l-.4-.1v-1l.4-.1.4-.2v-1l2.6-1.4.5-.7.5-.7v-1.1l.2-1.4.2-.3 1.8.6 1.7 2.5-.3.6-.3.5h-1.7l-.4.3c-.2 0-.8.6-1.3 1a21.7 21.7 0 01-3.4 2.7zm-73.6-4.4c-.3-.3-.9-1-1.3-1.7l-2-2.5-1.3-1.3v-1l.5-.4 2.3 2.2h.6v-1L91 278v-.6l.5-.2 1.6 1.9 2.5 2.8.8.8-.2.4v.4h-1l-1-1.1-1-1.4-.3-.2-.4.4-.4.3v.8l1.8 2v1l-.4.2c-.5.2-.4.2-1-.2zm70-1a3 3 0 01-1.2-.3l-.3-.2v-.4c0-.3.2-1 .6-1.8l.5-1.4.8-1 1.2-1.3.4-.4.8-.2 2-.1h1l.6.6v1.7l-.5 1.3-1.9 1H164l1.1 1.8-.5.9h-.6c-.4 0-1 0-1.5-.2zm4.8-4.5l.2-.4-.2-.6-.2-.6-.7.2-.2 1.7h.4zm-11.4 1l-.4-.5.3-.6 1-1.6c1.7-2 2.7-3.2 2.7-3.4l-.5-1-.4-.6.4-.4 2 .2.5.6c.4.3.8.9 1 1.3l.4.7-.2.4v.4h-.5l-1-.3-.5-.3-.6.6-.8 1.2c0 .3-.5.9-.9 1.3l-.7.8-.2.7c-.4 1-.9 1.3-1.6.5zm-58.9-1a2024.3 2024.3 0 00-3.6-4.7l-.4-.6.6-1.2.6.4.6.4.5.9.8 1.3.4.4-.2-1.5v-1.4l-.5-.7-.4-1.2v-.4l1-.5.8 1 1.5 2.5c.4.8 1.2 2 1.8 2.6l1 1.3v.9l-1.3.2-1.9-3h-.2c-.4 0-.3.2.2 1.9l.5 1.4v.4l-.2.3h-1zm52.2-2.2l-.6-.2.2-1 .2-1 .5-1 .6-1-.2-.2-.3-.2-.5.3-.5.4-.5-.3.3-.8.3-.8h.7v.5h1l1.3-1.6 1.5-1.6h.4l1.2.5.7.5v1l-.2 1.2h.3l.6-.2.1-.3h1.2l.4.4.3.3-.8.4-.7.4-1.9 3.2h-.6v-.4l-1-.3v-1c.1-1 .5-2.4 1-3.1v-.5l-1.2.2v1l-.7 1-1.4 2-.7 1.4v1h-.2s-.5 0-.8-.2zM104 275c0-.4-.7-1.4-1.3-2.3l-1-1.6-2.7-.1-.2-.6-.2-.5.7-.5c.3-.3.7-.5 1-.5l1-.6.6-.5 1.4.2.3.4.2.4-.3.7-.4.7.2.6.2.7 2.4 3.3-.2.4-.3.4-1 .2zm5.8-.8l-1-.6-.5-1-1.4-2.5-.8-1.6v-2l.2-.4.4-.4 2.4-.8 1 .6v1l-1.9.3v1.2l.8.3.2-.2.1-.3h1v1l-.8.6-.8.7.2.7.1.8 1.4 1.2h1v-.3l.2-.4v-.5l-.2-.5.3-.2.3-.2.4.4.3.5v1.4l-.8.9-1 .8zm5.7-2.2l-.4-.6v-.6c0-.6-.3-1.6-1.2-4l-.6-1.8 1.1-1 1-.7.6.2c.3 0 .8.4 1.2.7l.5.5.3 1 1 2 .4 1.2.1 1.2.2 1.2h-.8l-1-2.6-1.4-3-.4-.5h-1l-.3.5 1.1 2v2l1 1v1.7l-1 .2zm22.2.3l-.2-.3.4-3.4.4-1a103 103 0 011.3-3.3l.3-.8 1-.6.4.6-.5 1.3a49.5 49.5 0 00-1.8 4.3l-.3 1 1 1v1l-.5.2c-.7.4-1.3.4-1.5 0zm6.2-.1l-.2-.4.7-.5c.8-.6 1-.7 2-.2l.8.3-1.2 1h-2zm-3.4-.5l.4-.7.4-.3-.2-.4v-.3l.8-2 .1-2 .2-2.1h.3c.2 0 .5 0 .6.3l.4.4v1.3l.2 1.2-1 3.4-1.4 1.6h-.8zm-19.8-1.6l-.3-.3.3-1.2 1 .2v1.5h-.4l-.3.2zm10-.6l-.3-.4.2-1 .4-2.2.3-1.2-.8-1.3.5-.2.5-.2v-1.2h-6.8l-.3-.4.3-.3.3-.2 6.3-.1.5-.4 1-.5.5-.2.8 1.2h3.6v.8H136l-2-.1-.2.7-.4.7.3.2h1l.6-.1 2.4.4v.4l-2 .2.1 1.4.1 2.6v1h-1v-1.6l-.5-2-.2-.5h-.3c-.2 0-.6.3-.9.6l-.5.6v2l-.9 1.8h-.8zm14-.7l.1-1.1 1-1.5.3-2.8-1-.4V261.3h1l1.1 1.3-.3.2c-.2 0-.3.3-.3.5v.4h.8l.1.7.2.6-.2.9-.3 1.7v.9l-.9.3-.8.4-.5.5-.6.4zm5.1-3v-.5l.2.4v.3l-.2.3zm7-1.7l.1-.2h1v.5h-1.3zm-31.9-.6v-.5l1.2.2v.5H125zm14.8-2.3l-.4-.2h2v.5h-.6zm14.6-.3v-.2h-.8v.5h.8zm52.4 129.4l-.6-.2v-.8l-.5-.8h-2.2l-2-.1-1.6 1.7-1.7-.2v-.7l.1-.8.5-.7 3-4.5 2.5-4 .8-1.6 1-2.2.5-.4h3.1l.5.3.5.2v1.4l-.4.7c-.4.8-2 5.9-2.3 7.2l-.2 1 1.1.6v1.7l-.3 1.8-.3.3c-.3.4-.6.5-1.5 0zm-1.2-4.8l.8-1.3.4-.5.1-1.1a6 6 0 01.8-3.2l.4-.4v-.6l-.2-.6-.5-.2-.4.7a90.2 90.2 0 01-4 7.4s1.4.6 2 .6c0 0 .4-.3.6-.8zm139.3 4.3v-.5l1-.6.5.4.5.5-.6.3a2 2 0 01-1 .4h-.4zm-98.6-.3l-.2-.2.2-.6.4-1.2 1-2.3.6-2v-1.1l.2-1.3.3-.4.3-.3h3.7l1.3 1v4l-.6 1-.4 1-1 .8-.9.9-.7-.1-1-.3-.5-.2-1 1.6h-1.5zm4.7-2.5a13 13 0 001.4-4.1l.1-1-.3-.2-.2-.2-1.3.4-.5.9-.6.9v1l-.3.9h.4l.5.3-.3.4-.3.3.1.4.2.4h.7zm22.4 1.8h-1l-.5-.8-.6-.7v-1.1l.5-.5.5-.4.5.5c.3.3.7.7.8 1l.4.3h1l.6-1.3-.4-.7-.5-.6h-1.3l.2-1 1.1-.1 1.2-.2.3-.3.4-.6v-.4l-.7-.3-.7.2c-.4 0-.8.2-.9.4v.2h-1.4v-.3l-.3-.2 1-1 .7-1h3l.5.8.7.7-.2 1v1l-.6.4-.4.4.2.8.2.9-.4.8c-.4 1-1.2 1.7-2.2 2l-.7.2zm14.7-.6l-1-.8v-1.6l.1-1.8 1.6-2.7 1.4-1h2l.7.7.6.6v2.9l-.4 1.6-.5 1.6-2 1.3-1.7.2-.8-.8zm2-1.3l.5-.3.8-1.5.2-1.6.2-1.6-.3-.1-.3-.2-.7.2-.6.3-.4.9c-.2.5-.5 1.5-.6 2.3l-.2 1.4.4.2c.4.3.4.3 1 0zm-58.2 1.4l-.8-.4v-.7l-.3-.7.3-2.2.2-2.2.4-.4c.1-.3.6-.8 1-1.2l.6-.8h2l1.6 1.6v2.7l-.5 1-.5 1v1.4h-.3l-.9.7-.7.6h-1.4zm2.2-2l.6-.6 1-3.2-.5-.6c-.5-.8-.8-.7-1.4.2l-.9 1-.3.4v2.7l.1.7h.8zm46.3 2l-.6-.4-.3-1-.2-.8.5-3.2 1.7-2.2 1.3-.7h2.2l.5.4.6.4v2l-.8 1.2v2.6l-.5 1-1.7.9-2 .3zm2.4-1.8l.4-.6v-.5l-.3-.6h-1l-.4.4-.4.4v1.2l.5.2h.6c.1 0 .4-.1.6-.5zm1.4-3.7l.1-.7v-.4l-.3-.4h-.9l-1 .9v1.2h2zm12.2 5.4l-.7-.5-.3-1-.3-1 .1-1.2.2-1.2.4-1 .6-1.2.2-.4 1.2-.4 1-.3 1 .4.7.4.3-.1.4-.1v-2l-.3-.5c-.4-.7-.7-1-1.3-1h-.4l-.8.7-.8.6-.7-.1-.2-1.1 2.3-2h1.1l1 .6 1 .5.4.6.4 1.6.2.9-.4 2-.4 2.2-.6 1.3-1 2-.7.8-1 .5a4 4 0 01-1.4.5h-.5zm3-2.7l1-1.7v-.5l-.4-1-.4-.7h-1.2L297 384l-.2 1.2v1l.5.5c.3.3.7.4 1 .4h.2zm4.3 2.7l-.5-.6.3-.4.3-.5-.5-.8.4-1 .7-2.3.3-1.5.8-.8h1.5v1.5l-.7 1.6c-.4.9-1 1.8-1.2 2-.6.6-.6.8.4 1.2l.8.4.4-.3c.6-.3 1-1 2-4l1-2.6h1.4l.1.6.1.5-.6 1.8a57.9 57.9 0 01-1.3 4l-.3 1.3-1.2.5-1.4-1-.5.5-.5.4h-1.3zm8 .4l-.2-1v-.8l.7-2.1c.4-1.1.7-2.3.7-2.6 0-.7.5-1.8 1-2h.3l1.6.5.5-.3a2 2 0 011-.3h.5l1.6 1.3.8-.6.7-.7h1.4l1 1.4-.3 1.5-.7 3.3-.4 1.8-.5.5-1.2-.2-.3-.4-.3-.5.6-1.2.6-1.3.2-1.2.1-1.2-.3-.2-.3-.2-1 .6-.6 1.2-.8 2.6-.3 1.3-.8 1-1-.2-.3-.4-.3-.5.3-.6c.5-1 .8-2.2 1-3.4l.1-1.2-.3-.3-.4-.3-1 .3v.5c0 .5-.8 2-1.5 3.5l-.2 1c0 .8-.3 1.2-1 1.4h-.5zm14.2-.2l-.5-.2-1-1.6.2-1.8.2-1.7.6-1.2.6-1.2 1-.5 1-.5 2.8.9.6 1-.3 2.6-1 .4-1.9-.4v-.5h1l.2-.4.1-.5v-.8l-.5-1-.2-.2-.7.6-.7.5v1.5l-.5 1-.5 1v1.2l.7.6.6-.2a3 3 0 001.1-.7l.5-.5h.4l.5.2v.4l.1.4-.7.8-.8.8-2.3.3zm15.4 0l-.7-.3-.5-1-.4-.8.5-1.8.6-2.6.2-1 .4-.4.3-.4 1.4-.4.5.5.5.4v1l-.6-.2-.5-.1v1.4l1.6-.3.8.4.8.4.2.4.4 1.2v.7l-.3.4-.4.5h.2l.1.3-.6.5a7 7 0 01-1.4 1l-1 .5h-.6zm2.1-1.8l.4-.6v-1.5l-.4-.2-.4-.1-1.3.8v1c0 1 .2 1 .8 1h.5zm-126.8 1.6l-.7-.1-.2-.7v-4.9l.1-.3.2-.3-.2-.2-.3-.1-.8 1a6 6 0 00-1.4 3.5l-.2 1.3-1 1-.5-.4-.5-.2v-.6l-.2-.6.6-1.5.8-3 .3-1.3 1-1.3h.4l.7.4.3.4.3-.3.3-.2 1-.1h1l1.1 1 .2 1 .2.8h1.4l.4.8.4.5v1.5h-1.7v-1.1l-.6-.2-.4-.1-1 1.3v1.4h.3l1.5-.2 1-.2.2.3.1.4-1.8 1.6h-.8zm10-.1l-.6-.4.3-1.5.3-2v-.2h-.5l-.7 1.5-.7 1.6-1.3 1h-1l-.3-.3-.3-.4.3-.7.3-.6 1.3-.6.5-1.2a5 5 0 00.5-1.7v-.5l.7-1 .7-1 .6-.3.7-.1 1 .2h1l.1.7.3.7-1.3 3.7-.2 1.4-.2 1.3-.4.4c-.4.5-.6.5-1.2 0zm16.1.2l-.2-1v-.5l1-2.4.2-1.3.2-1.2h-1.5l-.4.7c-.2.5-.5.8-.7.8v.7l-.7 2-.6 1.7-.3.2-.7.2h-.5l-.2-1 .6-1.8c.4-1 .8-2.5 1-3.4l.3-1.5 1-.6 1.6.6 1-.8h1.3l1 1.2v1.2c0 .7-.4 1.7-.6 2.3a7 7 0 00-.4 1.5c0 .3-.2 1-.5 1.5l-.5 1h-.7zm14-.1l-1-1.1-.3-1v-2.6l.4-.8.4-.8.8-.3v-1.3l.8-.4 1-.5.7.2c.5 0 1.1.4 1.4.6l.6.3v1.3l.6.5-.5 1.6c-.4 1.6-1.3 3.4-1.8 4l-.3.3-2.3.3zm2.4-2.4l.5-.5.3-1.3.4-1.4-.2-.6-.2-.7h-1.2l-.6.7-.6.6v1.2l-.3 1.2.2.7.2.7h1zm5 2.5l-.4-.1-.3-.7-.4-.6.6-2 1-3.3.3-1.5 2.2-.1v.4l-.6 1.8-1 2.7-.3 1.2.3.4c.4.5.6.5 1.4-.3l.7-.7.6-2 .8-2.4.2-.6.7-.3.7-.2.4.4.3.5v.8l-.8 1.7c-.3.5-.6 1.6-.8 2.4l-.3 1.5-.7 1zm2-6.6v-.4l-.3.2h-.3l.1.4c.3.3.4.3.4-.2zm65.7 6.6l-.2-.8v-.6l.8-.6.8-.6.5-1c.3-.6.7-1.6.8-2.2l.3-1 1.4-1.6 1 .2 1.2.2.7.6-.2.9c0 .5-.4 1.6-.7 2.5l-.7 2.8-.2 1.2h-1.8l-.2-1.7.4-1c.2-.3.5-1.2.5-1.8l.2-1-.2.4c0 .2-.4.7-.7 1.2l-.6.8v.3l.2.2-.9 1.3-.8 1.3-1.4.2zm66.5-13l-.2-.5.4-1.3c.4-1.3 1.4-3 2.2-4l.5-.5.2-1 .1-.7 1.1-1.3a53.3 53.3 0 004.4-6c0-.2 3.2-4.8 5-7.2 2.2-2.7 3.8-5 3.8-5.4v-.2h-.9l-.8.6-2.2 1.8-1.5 1.3H409l-.8.7-.7.6-1 .2-1 .2-1.4.9c-.8.5-1.6 1-1.9 1l-1.3.8-2 1-1.3.4-.8-.3-.7-.3-.4-.6-.4-.6h-.4l-2.4.9-1.9 1h-1v.4l-1 .3-1.4.3-2 .4-1.3.4-1.7-.5-1.6.4-2.6.5h-1l-.4-.5c-.2-.4-.3-1-.3-1.3v-.5l1-1.6h.5c.3 0 1 .2 1.5.5l1 .4 1-.4c.4-.3 1.6-1.1 2.5-2l1.7-1.2v-.7l-.7-.2-1.3-.3-.6-.3-.4-.6-.5-.7.5-.7a7 7 0 011-1.2l.7-1.2.3-1-.3-.3-.3-.3-2.2.5-1.4.7-1.3.8-1-.7.4-.4c.4-.6 2-1.3 4-2l1.5-.6h2.7l.4.7.4.6-.2.7-.2.7-1.4 1.5c-1.3 1.3-1.5 1.7-1.4 2.3v.3l1.3.4.5-.3.4-.2.6.2.6.3.2.4.2.4-.2.6-.2.6-1.9 1.6-2.6 2-.6.4.4.3.4.3h.6c.4 0 1.6-.3 2.7-.7l2.3-.6 1.5-.5a48 48 0 012.2-1l1.1-.5 1.3-1.2v-2l.4-1.5.5-1.6.8-1.3c1-1.8 2-2.8 3-3.3l.7-.4h1.5l.5.7.6.7v1.8l-.3.6c-.8 1.5-2.7 4.2-4 5.5l-1.3 1.4v1l.7.8h1l1-.7 1-.7h1l.7-.6 1.8-1 2.5-1.5 1.7-1 2-1.7 2-1.8h1l1.3-1h1l2.4-2.5.4.2c.2 0 .6.4.8.7l.4.7-2.3 2.5v.3c0 .6.2.5.8-.2a6 6 0 011.4-1.2l1-.5 1 1 1.1 1v1.3l-.4.2h-.7l-.3-.2-.8 2-1 2-.6.3-.6.4-.6 1.3c-.4.7-.9 1.8-1 2.5l-.5 1-1 .9-.4-.3-.4-.2v-1.6l.3-.3c.2-.2.3-.5.3-.7v-.4l.5-.5c.3-.3.6-.6.6-.8 0-.2.4-1 1-1.7a7 7 0 001-1.8c0-.2.3-.4.5-.6l.4-.4v-1.5h-.7l-1 1.2a58 58 0 00-4.7 6l-2.6 3.6-1.8 2.6a8 8 0 01-1.2 2s-.6.7-1 1.6l-.8 1.6v1l-.8.4-.7 1.3c-.6 1.3-1 2.2-2.7 4.3l-.8 1.4-.4.7-.4.4h-1.3l-.3-.5zm-.2-24.5a20 20 0 003-5.3l.2-.7h-.5l-1 .3-.4.3-1.4 2.2v1l-1 1.3v1.5h.2zm32.2 20.8l-.3-.3.2-1.3 1-3.6.8-2.4 1.3-2.6 1.3-3v-.4l1.5-2.4v-.4l.5-1 1-1.7c.2-.6.6-1.2.8-1.3l1.1-1.5.7-1.2h1v-.8h-.8l-.2.4-.2.3-3 1.2-1 .7-2.2 1.8-3.2 2.5a20 20 0 00-2.4 1.7l-.3.4h-1.3v-1.6l1-2 1.1-2v-1l1.2-1.3h1.1l.2 1.3.1 1.2-.6.5-.9 1.2-.3.5h.8l.3-.4c.2-.2.7-.6 1.2-.8.4-.2 1.5-1 2.4-2l1.6-1.3.7-1.5 1-.6 2.8-2.3c1-1 2-1.6 2.2-1.6h.3v-.5c0-.3.1-.7.4-1l.3-.5 2 .4v-.3l.2-.3-.4-.5-.5-.5.4-.6 2.5-3 3-4.2 2-3h1v.6l.2.6-.4 1.3a16 16 0 01-2.4 4.2c-.2 0-.6.8-1 1.5s-.8 1.3-1 1.3l-1.2 1.4a77 77 0 01-3.3 4.3c0 .2-.4 1-1 1.9a15 15 0 00-1.2 2l-.2.6-.6.3-.6.3-.2 1-.2 1-1.2 1.9a11.2 11.2 0 00-1.4 2.9l-.5 1.4a108.2 108.2 0 00-4.4 9.2l-1 2.3.5.5 2.6-2.2h.8v.4l-2.4 2.2-2.3 1.9h-.3zm126.5-6.2l-.6-.3.1-.7c.1-.4.2-1 .4-1.1l.2-.5h-.8l-.6.7-2.2.8c-1.2.4-2.3.8-2.4 1l-.7.2h-.5l-.5-.7c-.8-.8-.8-1 .3-3l1.2-2.6.4-1.2-.6-.5-.9.4-.9.4-3.8.5-1-.4-2-1.2-1-.8v-1c0-.5.1-1.7.3-2.5l.3-1.5-.6-.6-.8.8-.8 1-.6 1.2-1.5 2.4-.7 1.4.4.7.4.6-.7 2-.6.6-.6.6-.8-.7v-.7l.1-.7-1.2.2-.2-.7-.3-.6-1.3-.2-4.5-.4-3.2-.3-1 .3-.3-.3-.3-.4.2-.5.1-.4 1.3-.3 1.4.2c.8 0 2 .2 2.7.4l1.3.2h4.8l.7-.7 1.4-2c1.1-2 3.4-5.2 4-5.8l.6-.5v-1l.7-.3.6-.3.7.6 1 1.4.3.8-.4.7-.4.7v.3l.2.3-.4 1-.4 1v1l.1 1.6.2.5 2 .8h2.1l2-1h4.4l.6.6-1.4 2.7c-.7 1.5-1.4 2.7-1.6 2.8l-.2.2v1c.5 0 3.4-1 5-1.7l1.7-1 1-1.1.7-1.1.8-2.5a169.8 169.8 0 011.8-5.7l.7-2.5.5-1v-2.3l-.2-2.5.2-.2.2-.1v-.5l-.5-2.1-.3-1.8-.6-1.5-.8-2.1-.2-.5h-.3l-.4.3-.2-.7-.2-.7.3-.3.3-.3-1.3-1.4-.4-1.4-.4-1.4.3-.7.6-.8.3-.2.8.7a9 9 0 004.2 2.3l2.1.7 2.1.4h1.6l-.2-.3v-.4l.3-.1.4-.2.5.4-.3.3-.3.4h1l.8.3 1.5-.5 1.2.4 1.8.7.6.2.4-.3.4-.3h.6l.6.3.3-.3.3-.3 1.7.7.5 1 .5 1v2l-.4.9-.4.8h-1l-.2-.3a6 6 0 01-.4-1.7v-1.3l-1-.2-1.5-.5-.6-.3-1 .6h-2.9l-.8.5-.3-.2-.2-.3-1.9-.2-1.8-.1-1.2-.5-1-.5h-2l-.5.3-.5.2v1.2l.4.5.7 1.9.3 1.3v11.4l-1.4 5.5-.4.4a52.7 52.7 0 01-1.4 3.3v.4h1.1l1.2-1h.7l.7.3v1l-1 1c-.4.6-1 1.2-1 1.4a2 2 0 01-.7.7 9 9 0 00-1.9 1.6l-2.3 2-1 .7zm4-4.6l.8-1-.3-.1-.3-.1-1.6 1v1h.3c.1 0 .6-.3 1-1zM531 365l-.4-.5.2-.8c0-.4.4-1 .7-1.5l.5-.7h1l.8.6c.4.3.8.6.8.8l-1 1.4-1.3 1.2h-.8zm-206.3-1l-.2-.2.2-.7c0-.4.3-1 .6-1.2.3-.3.5-.7.5-1 0-.3 1.3-2.6 2-3.3a34 34 0 002.8-4.4l2-3c1-1.6 2.2-3 2.2-3v-.3h-.3l-1.2.8c-3.7 3-5.2 4-8.5 5.6l-1.7.8h-1.4l-1.4.3-1-1.1-.2-1.4-.2-1.3.6-2 .7-1 1.2-2c1-1.7 1.4-2.1 2.6-3.2l1.2-1h1.4v1l-1.3 1.2-1.3 1.3v.4l-1.2 2-1.2 1.9-.4 1.4-.4 1.4.3.5.2.5h1.1l2.5-1.1a43 43 0 004-2.1l1.3-1 1-2.7.8-.5.7-.6 1-1.4a86.8 86.8 0 002-3.3l.7-1 .1-1.3.2-1.3-.3-.2-.3-.2-2.4 1.6h-1.2l-2.2 1.7-3.5 1.5-.3-.2-.2-.6v-.5l1.1-.7 1.5-.8c.6-.2 2.4-1.4 3.3-2.1l.8-.6h1l.4-.5.3-.4 1-.2 1.4-.4.6-.2.7.7.6.7v.3l-.5 1.9-.3 1.5-.9 1.2c-.4.7-1 1.7-1 2.2l-.4 1 .5.4 6-5.8.4-.2.6-.2 1.3-1.4 1.4-1.4h1.1l.4.4c.3.2.5.7.6 1l.2.7-.3 3.4-1.5 2.9-1 1-1 1.4c0 .2-.5.8-1 1.4L342 349l-.4.7h-1l-.2.6-.2.6-3.6 3.5h-1.4v-1l2-1.8c2.2-2.3 4.7-5.3 6.1-7.5l1-1.7.8-1.8.7-2.1v-.4l-.7-.3-.4.3c-.3.2-1 1.3-2 2.4l-2.5 3.2a33.9 33.9 0 00-4 5 8 8 0 01-1.3 1.6l-1 1.2-1 2.2a14 14 0 00-1.5 2.6 5 5 0 01-1 1.6l-.8 1.6a14 14 0 01-1 2l-.8 1.4-.8.5-1.6.7h-.7zm10.2-18.8l.4-.5v-.8l-.6.7c-1 .9-.8 1.5.2.6zm178.3 17.2l-.6-.4v-.8l1-.8c1.4-1.5 5-6.1 6.4-8.4l1.3-2.2v-.8l-.4-.1-.3-.2-1.3.8-3.7 2a51.8 51.8 0 00-5.9 3.3 5 5 0 00-1.3.6l-1.9 1-1.2.3H503l-.4-.4-.4-.4v-2l1-1.8c1.2-2.5 1.7-3 4.1-5.5l2-2h1.3l.4.5.5.5-.2 1c-.3 2-1.4 3.8-3.9 6.2-1 1-1.3 1.2-1.8.6l-.7-.4h-.3l-.3 1-.3 1 .5.4 1.2-.3 1.3-.2 1.2-.7 1.5-.7a3 3 0 001-.6l.6-.6 2.7-1.4a763 763 0 016.2-3.4l1-.6h2l.4 1v1.5l-2 3.5.5.2 1.2-1.2 3.7-3.5 3.1-3.3.7-1 .7-.3.7-.3 1.2 1v1.6l-.6.7-1 1.4-.3.6h-.3l-.7-.4-.3-.4-.7.4-1.5 1.2c-.4.4-.8.8-1 .8 0 0-.6.4-1 .9l-1.4 1.3c-.4 0-1 .6-1.7 1l-1 .7-3.4 3.5c-2 2-3.7 3.9-4 4.3-.5.8-.6.9-1.4.3zm-4.4-13.1l.4-.4v-1.1h-.8l-.6.7-.7.7.1.2.1.3h1.2zm-47 10.5l-.7-.5v-2.5l.7-1.4.8-2.2.2-.7h-.4a26 26 0 00-4.5 1.9c-1.3.8-2.7 1.4-5 2.2l-2.6 1H448l-1-1.5v-1.3l.3-1.1 1.1-2.5.7-1.3 1.1-1.3 1.2-1.4 1.7-1 1.7-.7 1.2.2h1.2l.2.5.1.4-.8 1a29 29 0 01-1.8 2.4l-1 1.2-1-.3v-1.4l2-1.1v-1h-.5c-1.2 0-2.6 1.2-3.7 3.4-.4.8-1 1.6-1 2l-.4.5.2 1.2c0 .7.2 1.3.3 1.5l.2.2 1.4-.5a41.5 41.5 0 008.7-3.6l2-1c1-.5 2-1.1 2.4-1.5l.7-.6.6.3.5.4.1.4.1.5-1 1.5c-.8 1.3-2.5 4.3-2.5 4.7l.5.2.4.2 1-.5 1.6-.7.7-.1 2-1.6a41 41 0 005.5-4.7l1.5-1.4 1.6 1.4v1l-1 .9-1.3 1a6 6 0 00-1.3 1.4c-.5.8-1.4 2-2 2.6l-1.6 2.2-.7 1h-.3s-.4-.1-.6-.5l-.4-.6.1-.5.2-.4-1.8.2-1.6 1-1.5 1.2-1.9.3zm-103-.4l-.6-.3-.4-.8-.5-1 .2-1 .7-2.6.5-1.5 1-1.4c1.1-1.4 2.6-2.8 3-2.8l.8.3.5.4 1.3-1.4c2.3-2.5 5-5.6 6.8-8a181.7 181.7 0 017.3-8.6v-.3l-2.7-.7-1.3.2c-.6 0-1.6.3-2 .5l-.8.3-4.5 4.3-1.7 3v2l1.3 2.5v.2c-.6.7-1.9-.2-3-2l-.9-1.2.5-1.8.5-2 .6-1c1.6-2.2 4-4.3 7-6.2l1.8-1h1.2l.1-.2.2-.2h1l.8-.4.7-.5 1 .2 1 .2 2.6 2.5.1.8.2.7-.5 1.9-.9 3c-.4 1.5-1 3-1.8 3.9l-1 1.8c-.7 1.4-2 3.4-2.5 3.4h-.2v-.5a44.4 44.4 0 003.6-7.5l.3-.7.2-1.4.2-1.3h-1l-1.6 1.8a52 52 0 00-4.7 5.8l-2 2.3c-.9.8-2.6 2.7-4 4.4a110.4 110.4 0 01-6 7c0 .3-.5.8-.9 1.4l-.8 1 .2.4.1.5h1.3l1.5-.7c2-1 3.3-2 7.6-6.2l3.6-3.6v-.3c0-.2.3-.7.7-1.1l.7-.8h.7l.2.3.1.4-.8 1.9-.5.2h-.5l-.2.6a56 56 0 01-6.2 6.8l-2 2-1 .5-2.2 1.2-1 .6h-2.4zm123-.2l-.6-.5.1-1 .2-.7.6-.4a24.5 24.5 0 004.4-5.3l.5-.5v-1.5h-.2l-.4.3-.2.2h-1.3v-1l1.8-1.8.8-.1.7-.2 1.2.8.3.6.3.7-.2.9-.3.8-1.3 2-1.5 2c-.4.2-2.2 2-2.6 2.8l-.3.5 2.3-.3 3.2-2 2-2a33 33 0 003-3.2l1-1.3h1.4v.9l.2.7-.6 1c-.2.6-.7 1.2-.9 1.4l-.4.3-.7 2.2-.7 2.2.1.5.2.4 1.8-.3.2.3.2.3-.5.4-.5.3h-2.2l-.4-.4-.6-1-.2-.7.3-1 .3-1-.5-.4-.5.3-2 1.6-1.6 1.3-3.2 1-2 .3zm-139-3l-.6-.6.5-.4c.7-.5.8-.4 1.6.3l.8.7-.8.2c-1 .4-1 .4-1.6-.2zM305 329.7a5 5 0 01-1.3-1.1l-.4-.6v-1.3l.8-1.4.8-1.7v-.3h-.4c-.2 0-.8.2-1.2.5l-.8.4-.3-.3-.3-.3.8-1.1c.5-.6 1-1.4 1.4-1.7l.5-.4 4 .3.3.4.3.4-1 1.9v.4l.1.3h1.1l.7.7.7.7-.2 1.2-.2 1.3-.4.5-.5.5-1.3.6-1.8.6h-.6zm2.3-2.3l.5-.7v-1H306l-.2.8-.3.8.4.4c.4.5.6.5 1.3-.3zm-77.2 1.7l-.9-.6v-1l-.3-1.8v-1l1.5-2.8 1.7-1.2h2.1l.7.6.8.6v1.3l-.3 2v.9l-1.7 2.5-.7.4-1.4.5-.7.2zm2.5-2l.6-.6.2-1.7.3-1.7-.3-1-1.4.3-.5.8-.6.9-.2 1.5-.2 1.5.3.4.4.3h1zm10.6 2.3l-.5-.3.2-1.6.2-1.5h-.6v.4a7 7 0 01-1.3 2.9h-.3l-.4-.4-.5-.5.2-1.5.2-1.5h-.8l-.2 1c0 .6-.3 1.3-.4 1.6l-.2.6-.8.4-.8.4-.4-.2-.4-.1v-1.2l.5-.5.6-.5.7-1.5c.4-.8.8-1.5 1-1.6l.3-.2v-.8l-.3-.8.5-.7.4-.6h.5l.8.2.4.3v3.8h.1l.8-.8.6-.7.2-1 .3-1 1-1h1.6l.3.6.3.4-.3 1-.7 2-.4.7-1.5-1-.4.3h-.4v.7l1 .9 1 .8v2l-.8.4c-.7.4-.7.4-1.3 0zm5.7-.1l-1-.4.3-1.7 1.1-.2.2.5.1.5 1-.5a8 8 0 001.4-1.1l.6-.7-.2-.2a.7.7 0 00-.5-.3h-.4v-.4l-.3-.4.8-1v-1.1h-1.3l-.2.7c0 .4-.3.9-.4 1l-.3.4.3.4.3.3-1 1h-.8l-.3.7c-.2.3-.4.5-.6.5h-.2v-.7c0-.7.5-2 1-2.3l.2-.5.2-1.2.2-.8 1-.7 1-.7h1l.8.7 1 .6.2 1.4.3 1.4-.4.6-.5.6.1.5v1.2l-.3.7-1.2.8-1.3.8h-.5zm25-.2l-1-1.2-.3-.6.8-4 1-1.2c.5-.7 1.2-1.3 1.5-1.5l.5-.2 1.8.6.5-.3.5-.3 1.1.6v.7c0 .5 0 1-.3 1.3l-.6 2-.4 1.5.3 1 .3.8-1 1-3-.2-.5.3-.5.2zm2.7-2.2l.5-.7.2-1.5.2-1.4-1-1-.7.5-.5.6-.4 1.4-.4 2v.8h1.5zm8.6 2.4l-.5-.3.2-.8.2-.8.3-.2.3-.2-.3-.4-.3-.5-.9-.2-.2.3c-.2 0-.4.8-.6 1.5l-.3 1.3h-1l-1 .2-.2-.4v-.4l1.3-3v-.6c0-.3.1-1.1.4-1.8l.4-1.3.7-.5c.3-.3.8-.5 1-.5h.4l.1.4.2.5-1.2 2h.4c.2.2.8.3 1.2.2h.7v-1l.3-1.3.1-.5.6-.3.5-.3.7.4.7.5-.2.7c0 .5-.5 1.4-.8 2.2l-.7 1.3v1.8l-.4.9-.3.9-.6.3c-.6.3-.6.3-1.2 0zm1.2-2.8v-.3l-.4.3-.2.3h.6zm3.3 2.8l-.5-.4.8-2.6 1.2-4 .3-1.1 1.3-.6.5.3.5.3 1.8-.6 1.1 1v.7h.2c.2 0 .4-.2.6-.5.2-.3.8-.6 1.3-.8l1-.4.5.6.6.6.3 1.4-.3 1-.7 3-.4 2-.3.3a3 3 0 01-1.2.2h-.8l-.2-.4v-.3l1.3-4.2v-1.5h-1l-1 1v.8c0 .4-.3 1.5-.6 2.3l-.4 1.6-.4.3-.4.4h-1.3v-.7l.4-1.6.4-1 .4-3h-1.2l-.5 1c-.6 1.4-1 1.7-1.7 1.9h-.5 1.2l-.2 1.3v1l-.6.6c-.5.6-.8.6-1.5 0zm-71.2-.4l-.5-.5 1.5-4.5.2-.2.3-.1v-2l1-2.1v-.6c0-.8.4-1.6 1.2-2.4l.5-.6h1.3l.1.5.2.4-.7 2-.7 2.5v.4l.8-.1 1.2-.4.3-.3.6-1.8.5-1.8.6-1 .6-.8 1.2-.2.5.4.6.3v.7l-.3.8-1.5 1.3-.3 1.5-.7 1-.7 1 .3 1 .3 1-.3 2.3-.5 2.3-1 .4h-.9l-.2-.5-.2-.6.2-.8.3-2.1.2-1.4-2-.6c-.3.3-1 3-1.4 4.6v.7l-.7.4c-.3.2-.7.4-1 .4h-.4zm46.8.2l-.6-.2-.4-.6-.4-.6V325l.4-1.2.4-1.2 1.3-1.4h2.1l.7.3.7.3.2-.3c.2-.3.3-.8.3-1.2v-.7l-.8-1.6h-1l-.7.8c-.8 1-1 1-1.5.3l-.3-.5.6-1 .6-1h.5c1 0 3.7.7 4 .9l.4.3.1.8.2.8-.3 2-.3 2-.3.6-.5 1.5v.9l-.8 1-.7 1-1.5 1h-.9c-.5 0-1.2-.1-1.5-.3zm1.7-1.6l.8-.2.4-1 .8-1.5.2-.5v-.7l-.3-.8-.7-.2-.7-.2-1.5 1.8-.3 1c-.4 1.5-.3 2.6.3 2.6zm-11.7 1.2l-.2-.4.6-2 .8-3.4.3-1.3.5-.5.6-.5.8.3-.2 1.2-.2 1.3.3.3.3.4h1.2l.3-.3.6-1.5a4 4 0 01.6-1.4l.3-.2 1 .5v1.6h-.3l-.3.3v.4l-.4 1.2-.4.8v2.2l-1 1.4h-1l-.3-.4v-.4l.3-1 .5-.8-.3-.4-.8-.5-.6-.1-.8.8v.7l-.4 1.3-.2.7h-.7l-.8.2zm255.4-8.3l-1-.3-.7.2h-.6l-.6-.4-.6-.5 1.6-1.6 4-1.1 1.2 1.2-.2 1.4-.2 1.4h-.8l-2-.3zm-180.4-45.7l-.5-.4v-.3l.4-.7.4-.4 1.5.9.2-.2c.2 0 .5-.6 1-1.1l.5-1-.2-.7-.8-2-1-2.5-.5-1.4-.7-.7-.7-.7 1-.7h1l1.4.5.3.2-.7.7v1.2l.7 1.5.7 1.4 1.3.8v.4c0 .4-1 3.4-1.4 4l-.2.6-.7.4a7 7 0 01-1.6.5h-.8zm24.3-2.8c-.3-.3-1.9-.5-3.5-.4h-1.5v-.4l-.3-.4.5-.5.5-.5v-5.1l-.3-.3-.3-.3-.6.2c-.3 0-.9.4-1.3.8-1 1-1.2.8-1-.5v-.6l.7-.8h3.6l.6-.4.7.3c.8.3.8.5.2 1.2l-.3.5v.8l.1 1 .2.2 1.4-.6 2.2 1 .4.5.4.5v.6l-.4 1.3-.4 1v.4l-.6.3c-.8.3-.8.3-1 .2zm-.2-2.2l.5-.4V268l-.3-.3-1-.4-.9-.2-.3.3-.4.3v.8c0 .4 0 .9.2 1l.1.5h1.6zM244 271v-3.2l-.7-.6H241l-.2 2 1 1.3-.3.3-.3.2-2.3-.1v-.7l.1-3.3v-2.6l-.8-.7.1-.4.2-.4h1a5 5 0 011.5.3l.4.3-.6.7.2 2h3l-.2-1.1-.4-1.4-.2-.5 2.7-.4.2.2.1.2-.3.6-.3.6.1 2.6c0 1.5.2 3 .3 3.3l.2.7-2.2.2zm56.5.2l-.6-.1-1.3-1.4-.3-1.3c-.2-.7-.3-1.7-.3-2.2v-1l1-1 1-1 .7-.2.7-.1 2.2.6.8 1.3-.2.5v.5h-1.4l-.8-1.6h-1.3l-1 1.4v2l.7 1.9 1.4.3 2-1 .3.3c.1 0 .3.3.3.5v.3l-1.2 1.2h-1c-.7.2-1.4.2-1.7 0zm24-.1c-.6-.3-.7-.5 0-1.2l.2-.5v-5.1l-.7-.3-1 .8-.5-.2-.4-.1v-1l.7-.5h6l.4.3.3.2v.4c0 .3 0 .7-.3 1l-.4.4-.9-.7c-1-.7-1.2-.8-1.4-.3v.4l.3 6.3-.3.2c-.4.2-1.2.2-2-.1zm17-.1l-.5-.4.7-1V264h-.6a3 3 0 00-1 .7l-.6.4-.2-.3-.3-.2.3-1 .3-.7 1-.5.7.3.7.3 2-.2 1.8-.1.1.3.2.3v.8c-.3 1-.3 1-1 .4l-.9-.5h-.7l.2 1.6c0 1 .2 2 .1 2.7v1l.3.7.3.6-.2.2-1.2.4-1 .2zm-93 0v-6.3l-.7-1.1.1-.4.2-.3h2.8v.2l-.4 1-.5 1.7-.2.9 1-.2 1.1-.2 1 .5c.6.3 1.2.7 1.4 1l.4.4-.2 1.7-1.3 1-4.7.3v-.3zm4.2-1.3l.3-.3v-1.1l-.9-1h-1.8v2.4l.1.3h2zm2.1 1v-.3l.3-.3.4-.3V265l-.5-.6-.4-.7.1-.3.2-.4h2.5v.7l-.3 3v2.7l.7 1.3-.2.4H255zm5 0l-.4-.2.3-1 .2-1v-2a19 19 0 00-.4-2.7l-.2-.6h2.4l.2-.4.1-.4-1.5-.8v-.6l-.3-.6.4-.3c.6-.4 1-.5 1.4-.1l.4.2-.6 1 .3.6h.5l1-.1.3-.2-.2-1v-1l1.6.4.6 1-1 .7c-1.3 1.2-1.5 1.3-1.8 1.3 0 0-.6.3-1 .8l-.9.7v3.5h.6l.8-1.1 1.1-1.7.3-.7-.7-1 .2-.3.2-.2h2.8l.2.3.1.2-.3.4-.2.4v2.4l-.2 2.5.4.6.4.6-.4.4-.3.4h-2l-.6-.8.4-.2.4-.1v-3l-.7-.7-2 3v.5l.1 1v.3H260zm17.4.2c-1-.1-1-.2-.5-1l.5-.3v-9.9h-.4a1 1 0 01-.7-.3l-.3-.4.4-.3.3-.3 3.8.3v.5l-.7.2-.6.3v6.9h1l.6-.7c.3-.3.6-.6.7-.5.2.2-.7 1.6-1.4 2.2l-.7.7v1l1 1v.8h-1zm18 0l-.8-.2.1-.4.2-1.1.2-.7-.2-.7v-.7h-2.4l-.6.4-.2 3.2h-1.3v-1.3l.2-3.6v-2.2l.7-.1.6-.1v2.3l.6.6h2.3l.1-.6.2-.7-.3-.8-.4-.8.2-.1 1.2-.3h1.1v.5l-.5 3v2.4l.7 1.6-.3.3c-.3.3-.5.3-1.5 0zm12.4-.2l-.3-.3.2-.2.3-.2v-5.7l-.8-.3-.5.2-.8.3h-.3v-1l.7-.5h5.7l.4.6.4.5-.2.5c-.2.5-.5.5-1.3-.1l-1-.5h-.4v3l-1 .6.4.3.3.2.4 1 .4 1.3v.4l-.3.3h-2zm6.7.2h-.3l.1-3 .1-3-.6-1.2.3-.4.3-.4h.7c.4 0 1 0 1.1.3l.4.2-.3.5-.3.5-.2 1.6-.2 1.7h.2c.5 0 1-.5 2-1.8l.8-1.3-.2-.7v-.7l.6-.3 1.4.3v.5l.1 2v2l-.4.5.5 1.3.4 1.4v.2H318l.2-.7.3-2.1.1-1.4-.5-1-2.2 2.9v.4c0 .3.1.6.3.8l.3.3-.3.8h-.9l-1-.2zm-30-.2l.4-.7.4-.5v-6.7l-.3-.3-.2-.2-.7.5-.7.4v-.2c0-.2.2-.5.5-.7.3-.3.7-.8.8-1.3l.3-.7-1-1.5.4-.3h3.5l.4.5-1 .7v4.8l-.2 4.8 1.3 1.2-.2.2h-3.7zm74.4 0l-.4-.2v-1.2l1.4-1 .6.6.5.6-.4.7-.5.6h-.4zm-22.6-3.6V263l.3-.2 1 .2 1 .4h.2l-1.2 1.4v1l-.3.9-.5.4-.5.5zm-54.5-2.4v-.4l.8-.7v.8l-.8.7zM182 251.4l-.4-.5v-.6l.1-.7h1v1.2h.2l.7-.4.4-.4v-.6l-.4-2.1-.4-2.4v-1l-.7-.4-.7-.6.1-.5.1-.4 1.6-.4h.3l.3.2v1.5l.2 2.2.2.6h.4l.5-1.7.7-.3-.2.8-.5 2.7-.5 2-.7 1-.7 1-1 .3zm-23.2-3l-.7-.3-.9-2 .3-3 .4-.4 1-1 .7-.4.7.2.6.3 1 1.4-.4.6-.3.7h-1l-.6-.7v-1.4h-.5l-.8 1.9.3 1.7.3 1.7.5.2.5.3.4-.2.4-.1.8-2.1h.3l.2.3v1.5l-1.6 1.4h-.4a3 3 0 01-1.2-.5zm5.6.4v-6l-1.5.2v-1l3-.5 1.6.3.2.5.1 1v.6l-.5.3-.4-.6c-.2-.4-.6-.7-.7-.7h-.2V246.6l-.3 1 .8.6v.8h-2zm4.6-.1l-.3-.3.4-1 .4-.7-.5-4.5.4-.4h1.5l.2.3-.9 1.8v1.9h.8l.5-1 .6-1h.5v-.3l-.3-1-.4-.4.4-.3 1.1-.2h.7l.6.6-.3.4-.2.4v4.8l.5.6-.4.3-.4.3-1.3-.8v-1c0-.6 0-1.3-.2-1.6v-.6l-.5.3-.8 1-.4.9.2.6.1.6-.5.3c-.7.4-1.2.3-1.5 0zm9 0l-.8-.2.1-1.7.1-1.7.4-.4.4-.3.5.5.3 2.6.2.3c.2 0 .3.4.3.5v.3l-.5.2h-1zm11.6-.1v-.4l.1-.8c.3-1 .4-2.7.2-3.7l-.2-.8h-1.3l-.2-.8 1-.5 4.2.5.4-.5.5-.4h1.6l1.6.3.3.3.3.2-1.2 1.6.6 1h1.1l1 .4.5.3.5 1 .4.9-1 1-1 .8-1.8-.1c-1 0-2-.2-2-.3l-.4-.2.3-.3.2-.3.2-2.4.2-2.4-.7-.5-1.2 1.6-.3-.3a2 2 0 01-.3-.8l-.2-.5v1.4h-.2l-.7-.4-.5-.5-.2.4-.3.4.2 2c0 1.3.2 2.3.2 2.4v.4l-.4.4h-1.3zm9-.7l.2-.4v-2l-.3-.1-.2-.2-.6.2-.5.2v.6l-.3.7.2.6.1.7h1zm3.4.8l-.3-.8v-.5l.8-.6.5.3.6.3v1l-.4.3-.6.3zm-48-.2h-.4l.3-1.1.3-1-.4-.5-.3-.4h-.5c-.3 0-.5 0-.6-.2l-.2-.2.8-.2.8-.1v-.6l.1-1.4v-.8l1.5-.2v1.9l-.2 1.9.2 1.3.2 1.4-.3.2c-.3.2-1 .2-1.4 0zm-76.2-1.2l-1.2-1.2v-1.2l-.3-.2-.3-.2v-1.2l.3-.2.3-.2-.2-1v-.8l.5-2.3 2-1.1.8.3v.4c0 .2 0 .7-.4 1l-.4.6-.4 3 .5 3.3.3.3.2.4h1.8l.4-.8.4-1.3v-.5l.4-.2.4-.1.2.4.3.4-.4 1-.4 1.3-1.2 1-2.5.4zm7.2 1c-.6-.2-.6-.3 0-1.5l.3-1h.8v1l.5.4v1H85zm4.8-.1l-1-.2.2-3.2-.2-.1-.2-.2-.7 3h-.7l-.3-1.4-.6-2.1-.3-.6-.4 1-.6-.3.3-1.6-1-.6.7-1 1.2-.2 1 .8.1 1.2.2 1.3.6-.2.4-1.4.4-1.5 1.2-.5.6.3.7.3-.2.5c-.3.8-.9 3.3-.9 4v.8l1.2 1.4-.4.3-.4.3-1-.1zm4.4 0c-.2 0-.7-.6-1-1l-.7-1-.2-1-.2-1.2 1.2-2.7.8-.4.8-.4 1.2.3.7 1c.4.6.8 1.4.8 1.9l.2.7-.5 1.5-.4 1.5-1.4 1h-.4c-.2 0-.6 0-.9-.2zm1.4-1.4l.6-.2-.2-2v-2.1l-.5-.3-.3-.4-1 .4-.2.6-.2.7v2.7l.4.4c.5.6.7.6 1.4.2zm6.2 1.5l-.6-.2v-.7l.6-.2V243l-.2-.6-.2-.7-.5 1-.2 2v2.3l-.9 1.2h-1.2l-.7-.8.6-1.4.6.2.7.2.1-1c.2-1 0-2.3-.4-3.3l-.5-.8 1.2-.6 2 .2 2 .2v.3l-.5.8-.4.5-.2 1.7v1.7l.3.6.4 1v.5h-2zm4-.3v-.1l.1-3.3.3-.2.2-.2-.3-1.2-.3-1.2 1-1 .7 1-.2 5 .7.6 1-.2.1-1.6-1.3-1 .1-.2.2-.2h1.5l1 1.4v.9l-1.2 1.2-1 .2c-1.2.3-2.3.3-2.5 0zm41.4-2.8l-.5-.5.1-.3.6-.2h.3l.2.7.2.7-.3.2zm-2.3 0l-.3-.6v-.4h.7l.3.5.3.5-.2.2c-.2.2-.5.2-.8-.2zm-32.9-1.3v-2.1h1.1v1.4l.2 1.4h-1zm17 0l-.2-.4.2-.7.3-.7h.7l.2 2.2h-1zm48.5-.2l-.6-.7-1.2.3v-1.4l.3-.2.3-.2h3.4l1 .6v1.3l-.9.4v-.3c-.2-.5-.7-.4-1.2.2l-.5.6zm7.8-.4l-.4-.6.1-.4.2-.4h2.1v.7l-.6.6c-.7.7-.8.7-1.4 0zm-69.8-.4l-.5-.7.4-.4.3-.4h1.1v.5l.1.4-.5.7-.4.6zm16.8 0l-.3-.3v-1l1-.4.3.2.4.6.2.5-.3.4c-.4.4-.8.5-1.3 0zm-50.3-1v-1.7l-1-.8-.8-.8.3-.3.3-.4H83l.7.6v2.6l-.3.5-.2.5h-.5c-.3 0-.6 0-.7-.2zm190.5-3l-.2-.5.5-.7.4-.7.3-7.2-.9-2 .3-.3.2-.3h3.6l1-.2 2.6 2.3.2 1 .1 1-.6 2.4-1.4 1.2H275v2.4l.6.6.6.5-.6.5-1.5.2-1.5.2zm5.6-5.1l.5-1.7.3-1.5-.3-1-.4-1-1-.5H276l-1 .7v2.7l-.4.3-.3.6c0 .4 1.3 1.6 2 1.8h.3l.7-.1c.4 0 .8-.2 1-.3zm181.4 3l-.9-.2v-1.4h-.4l-.9.4h-.4l-.7-1.3V233l.8-1v-3.3l-.2-.3-.3-.2.4-.5.4-.6h4.5l.6.7.7.8v.7l-.2 1-.3.5 1 1v2.3h1.2l.3.7.3.4-1 .8-.8-.3v-1.1l-.2.6-.2.6h-.2l-.3.2-1-1h-.3c-.4 0-1.5.9-1.5 1.2v.2h1.2v.8h-.4c-.2 0-.7 0-1.2-.3zm1.3-3.1l.5-.1v-1.8l-1.5-.5-.5.3-.4.2v.9c0 .4 0 1 .2 1 .2.2 1.2.2 1.7 0zm.2-3.5l.5-.5v-.4c0-.5-.4-.8-1.3-1l-.6-.2-.7.3v2h.3l.8.3h.5zm29 6.2c0-.4-.3-1-.4-1.2l-.3-.4-.4.5-.5.4-1 .2c-.4 0-1.3.2-1.8 0h-1l-.5-.3-.9-.4-1.4-.8-1.3-.8-.5-1.3-.6-1.2-.2-1.4-.2-1.4.5-1.1.4-1.1 2.4-2.8 1.3-.7 3.4-.3 3.4 1.6v1l-.2.9-.4.3-.5.3-.8-1-.7-.8-1 .3-.6-.6-.5-.5-1.4.3-1.6 2.2v1l-.3.4-.3.3.2.6.2.5h1v.8l-.8.5.2.6c.4 1 .5 1 4 1.4.5 0 1.2.2 1.4.3l.4.2.6-.3.5-.3.4.2h.5l-.2 1v.9l.1.2h.3l.6-.4h.4l.3.3v-1.2l.2-.6.3-.3v-2l-.4-1.2-.4-1.1.1-.4.2-.4h2.3l.6.4.2 1 .2 1.3.7.3.2-.2.5-1.4.5-1.3 1.5-.4 1.3.3-.2.7-.4 3-.3 2 .3.9.4.8.6-.2.6-.1v1.6l-.4.4-.8.4h-.3l.1-.5.2-.6-.9.2-.8.2v-.4l-.3-.4.5-1 .4-.8-.4-.3a3 3 0 01-.6-1l-.3-.6-.2.6a4 4 0 01-.6 1l-.4.4v3l-.2.3-2-.4-.2.4-.2.4h-1l-.6-.4-.5-.5-1.5.9zm5.1-2v-.5l-.4-.1-.4-.2.2-1h-.6v.6l.4 1.3.3.7.3-.1.2-.2zm-49 2.5c-.8-.4-1.3-1.5-1.5-2.8l-.2-1.2h-.8l.7 1-.3.4-.3.3-.2-.8a2 2 0 00-.3-1v-.4h-.9v1l.1 1.2-.8.2-.5-.8-.4-.8v-1.3l.5-.5.6-.5 1.5.5 1.3-1.3v-1.4l-.2-1.3-.4-.4-.4-.5.1-.4.2-.4h2.4l.4.3v1c-.2 1-.5 2-1.4 3l-.6 1 .1.5.2.5h1.2l.3.4.3.3v2.6l.4.4.2.3-1 1zm-7.8-.8l-.9-.8H434l-1.8 1-.2-.2c-.4-.6-.3-.8.5-1.6l.8-.8.6.2 1.3.3h.7l.5-1 .2-4.6-.9-.6-1 .6v1l-.2 2.2-.2 1.4h-.7l.2-2.5.1-2.5-.3-.1a.7.7 0 01-.3-.6v-.4h5.3l.4.9-.8.4v5.4l.8.9 1 .9v1.3h-.4a4 4 0 01-1.3-.8zm82.6.2l-.6-.7v-2.2l.3-1 .3-.8-.3-.7a5 5 0 01-.6-1.7v-1l.4-.5.4-.6h1.6l.4.5c.3.3.5.6.5.8v.3l-.6.3-.5.3v.7l.2.7h1.5c2 .4 2.3.5 3 1.5l.3.8v1.8l-1.7 1h-1l-.6.4-1.4.6h-1zm3.2-2.4l.3-.7v-.3l-.3-.4-1-.3-.9.8v1.5h1.6zm-167 2c-.2 0-.2-.4-.2-.7v-.7l1.6-1.5 1 1 .7-.2 1-.1v-5.5l-.9-.8-.5.3-.4.3-.2 1.5-.2 1.6-.3.3-.3.2.1-2.3v-2.4h4.2l.5.3.4.3-.7.8v5.3l1.4 1v1l-.3.3h-.3l-1.7-1.3-3.4.3-1.4 1h-.2zm139.8-.2v-.4l.2-.3.4.3.4.3-.2.3c-.2.3-.6.2-.8-.2zm6.8-.3l-1-1-.9-3.2.3-.8.2-1 1.4-1.7 1-.2 1.8-.2h1l.8 1c.4.4 1 1.2 1.2 1.8l.5 1v.8c-.3 1-1.4 3.2-1.9 3.6l-.4.3-3 .4zm3.1-1.3l.5-.8.2-1.2.2-1.2-.2-1-.2-.8-1-.2-1-.2-1.3.8v1.2l-.2 1.2.2 2 1 .5 1 .4h.3zm4.2 1.7l-.4-.2v-.8c0-.4 0-.8.2-1l.2-.4 1 .3.7.8.6.8-.4.4-.3.4h-.5c-.3 0-.8-.1-1-.3zm4.4-.1c-.3-.2-.6-.5-.6-.7v-.2l.7-.3.7-.4-.2-.8-.3-2-.2-2-.2-.6h-.3a1 1 0 00-.7.3l-.3.3v1.5l-.2 2.3-.2.8h-.8l.1-1.1c0-.6.2-1.3.4-1.5l.2-.5h-.5v-.4a3 3 0 00-.6-1.3l-.5-1 .1-.3.2-.4h1.2c1.2.3 2.3.3 3.6.2h.5l.3.3.2.2-.4.7-.4.7.2 1.5c.2.8.3 2 .3 2.6v1l.7.4-.3.5-.3.5H516zm-49-.3l-.3-.4.3-.3.2-.3.2.5.2.4-.5.6zm2.3.3l-.7-.2-.8-1.1v-1.1l.3-.3.4-.3v-1.3l-.2-2.1v-1h-1.4l-1.2 1.3-.4-.2-.5-.2.2-.6.8-1.2.6-.6 2 .6.3-.3.3-.2h1.7l.4.5.4.4-.5.6-.6.6v.5l.2.7.2.3 3.5.4.3 1.6.4 1.6-.2.4-1.2.9-1 .4h-1.2l-2-.1zm3.2-2l.3-.3v-1.2l-.4-.2-1-.1h-.6l-.3.3a1 1 0 00-.3.7c0 .3.1.6.3.8l.3.3h1.4zm-223.8 1l-.6-.7.2-1 .1-1 1.1-1 1.5-.5 1.4-.5v-1.3l-.3-.5H250l-1.6 1.6-.4-.3-.4-.4.4-1 .4-1h1.2c.6-.1 1.5-.2 2-.1h1l1 .7v5.2l.4.3c.3 0 .7.5.8.8l.3.6-.3.2a5 5 0 01-1.3.4h-.9l-.6-.4-.6-.6-1 .6c-.5.3-1 .5-1.4.5h-.5zm3-1.3l.7-.5v-1.5l-.3-.1-.4-.2-.8.4-.8.4-.2.4v.4l.1.6.3.7h.3a3 3 0 001-.6zm13.4 1.7l-.7-.2-.4-.1.4-.6.4-.6-.2-3a22 22 0 010-3.3v-.2h5.7l1 .5v2.5l.2 3.5.1 1-.8.2-.8.2-.6-.2.1-1.8.1-1.8-.2-1.2-.2-1.2-1.2-.6-.8.3-.8.3.1 4 .4 1 .3 1c-.2.3-1.7.4-2 .3zm27.7 0l-1.6-.2v-.5l.3-2.3.1-1.7.2-.2.3-.2-.4-.7-.4-1.2v-.4l.4-.2 2-.1h1.5l1.1.8 1 1.6-1.9 1.7h-2l-.3.8-.3 1 .3.6.3.7 1.1-.2c.6 0 1.2-.2 1.4-.3l.2-.1v-1.3l.8-.6.8.6v1.3l-.8.6-.7.7h-1zm3-5l.1-.4-.4-.8-.3-.7H293l-.6.6v.8c0 1 0 1.2 1.5 1.2h1.1zm4.8 4.8l-1-.5-.4-1-.5-1.1.3-3.3 1-1.6h.6c.4 0 .8-.1 1-.3l.4-.2 2.5 1 .5.6.6.6.3 1.2.3 1.2-1 2-2.6 1.8h-.6zm2.6-1.5l.5-.6v-3l-.3-.8-.4-1-1.8-.2-1.2 1.5.1 1.8.1 1.8 1.2 1h1.3zm72.7 1.6l-.7-1-.3-.8.4-1 .4-.8.8-.4c.4-.3 1-.4 1.2-.4h.4v.5l-1.3.6-.2.7-.2.6.3.4c.1.3.4.5.7.5h.4l.7-.5.8-.7v-3.8l-.5-.6c-.6-1-.8-.8-1.8.2l-.7.8-.8-.3v-1.3l1.1-1.1h1c.5 0 1.3 0 1.7.3l.8.2.3.5.3.5.3 5 1 1-.4.7-.5.6-1.7-1.1h-.8l-.7.5-.7.5h-.4zm44.4-.1l-.7-.4.1-.4.2-.4-.3-.6-.3-.7h-1l-.5.7.4.4.4.3v1h-.4a4 4 0 01-1.2.2h-.7l-.4-.3-.3-.4.5-.8 1.1-1.2.6-.5v-1.5l-.3-.4-1-1.3-.6-1 .1-.5v-.4h1.2l1.6.3h.3l-.3.8-.2.7.3.4.4.4.5-.2.4-.1-.2-1-.2-.7.4-.2.4-.2h2.2v.7l-1.2 1.2-1.2 1 .4 2 1.1 1.3 1.2 1.2v.7l-.4.2c-.7.2-1.6 0-2.4-.3zm5.5-.4l-1.3-1.7-.4-1v-2.5l1-1.3.8-1.3 1-.2.7-.2 1 .3 1 .3-.3.9-2.5.3-.3.2-.5 1.6-.3 1.4.3.9.6 1.2.2.3h1.8l.8-.8.2-1 .2-1-.2-1.3v-1.4l.1-.2.3-.1 1.8 1.8v.6l-.3 1.6-.2 1-.7.8c-.4.5-1 1-1.5 1.2l-.7.4H426zm22.8.4l-.2-.4.8-.8.6.3c.3 0 .5.4.5.5 0 .3-.8.8-1.3.8h-.3zm-208.8-.2l-.3-.3.2-1.3c.2-.8.3-2 .3-3s0-2 .2-2.4l.1-1 .7.3c1 .2 1 .3.7 1.5l-.3 1 .2.7 1 .2h.7l.5-.2.4-.2v-.7c0-.4 0-1-.2-1.1l-.3-.4.2-.3.1-.4h2l.6.7-.3 2-.2 2 .3 3.2h-1.5l-.7-.6v-2.8l-.5-.3-2.4.3v.6l.4 1.4.4.7-.3.4-.3.3h-1.4zm43.4 0l-.6-.5v-1.5l1.3-1.5 1-.3c1-.4 1.1-.2 0 .6l-.8.7.1.8.1.9h.8l1.7-1v-2.1h-.4l-.4.3v-.3c0-.2.2-.5.4-.6l.5-.3-.3-1-.2-1h-1.7l-.3.7-.2.7-1-.2v-1l.7-.5 1-.6h2.2l.6.6.7.6.1 1 .2 1-.2.6-.2.5.2 2.2h.7l.2.4.1.4-.6.7h-1l-1.5-.8-.8.4c-.5.3-1 .4-1.4.4h-.4zm33.5-.2a7 7 0 01-1.3-1.5l-.6-1v-2l1.3-2.2 2.5-1.3 1 .4c.3 0 1 .5 1.2.7l.4.4v1.2l-.8.7-1-1c-1-1.3-1.5-1.3-2.3.3l-.4 1 .3 1.3.3 1.4 1.1.8h1.2l.6-.8h1v1l-1 1-2.8.2zm16.5.3l-.5-.2-1.7-2-.2-1.1-.2-1 .2-1.1.2-1.1.7-.7.7-.7 1.8-.6 1 .5a4 4 0 001.2.6h.4l.4.8.5.8.1 1.6.2 1.5-2.6 2.7h-.8l-.8.2zm2.1-1.4l.5-.3.1-1.5.2-1.4-.3-1.1-.3-1.1-1.4-.4-1.4.6-.3 1.4-.3 1.3.2 1 .7 1.3.5.5h1.4zm6 .9l-.9-.8-.8-2.5.2-1.7.2-1.7 1.3-2 1-.7 1.1-.7h2l.6-.7c.3-.3.7-.6 1-.6h.1v1.2l-.7.7-1.3 1-.6.3-.5-.3-1.2.5c-1 .4-1.7 1-1.4 1.2l1.2-.1 1.2-.3 1 .3.7.3.8 1 .8 1.2v2.2l-.5.4-.5.5v.5l-.3.6-.7.5-.8.4h-2.2zm3.5-1l.5-.4.1-1.4.2-1.5-.5-1-.6-.8-.4-.1-1-.2h-.7l-.4.6-.7 1.5-.2.8.3.9.5 1.4.2.6.6.3.6.2.5-.1c.3 0 .8-.4 1-.7zm5.4.9l-1-.8v-.5c0-.2 0-.5-.2-.6l-.2-.1.1-1.6.2-1.5.7-1.2.7-.4 1.7-.5 1-.2 2.1 1.4.4.6.4.7v2.7l-1 1.2-1.2 1.4-.3.2h-2.4zm3.6-1l.5-.7v-3.6l-.5-.6-.6-.5H351l-.4.3-.5.4-.3 1.2-.4 1 .4 1.4.3 1.3.4.3.3.2h2l.3-.8zm17.2 1.5l-.3-.3.3-1.4c.2-.8.3-1.4.2-1.5l-1.5-.3-1.4-.2v2.3l.5.5.4.5-.3.2-.3.3-1.5-.1-.2-2.3-.2-4v-1.7l1.6-.2.4.4.4.3-.4.4-.4.5v1.5l1.3.8 1.5-.5.2-1.7-1-.8.2-.4.2-.4h2.1l1 .5-.4.7-.4.6.2 1.3.1 1.6v2.8l-.4.5-.4.4h-1.2zm12.5 0v-.4l.1-.5.3-.6v-5l-.9-.5.2-.4.2-.4 2.2-.2 3.2.5.5.5.4.5v1l-.2.2h-.3l-1.6-1.2h-2l.2 2.6.1 2.7.3.5.3.8v.2h-3zm8.8 0l-1-1.3-.8-1v-2.2l1.3-2.7 1-.5a6 6 0 011.7-.4c.8 0 2 .6 3 1.7l.7 1 .2.6.1.7v1l-.3 1.2-1.7 1.7-.8.3-.7.2h-2.2zm3.3-2l.5-1v-2.8l-.7-.5-.7-.6h-1.5l-.4.6a5 5 0 00-.5 1.4l-.2.8.7 2.6 1.3.6.5-.2.6-.2.4-1zm12.6 1.9l-.2-3.3v-3.4l-.3-.7 1.2-.4h3.4l1.5.8.3.9.2.8-.2.5c-.2.3-.4.5-.6.5h-.2v.7l.5.5.5.4.1.6.1.7-.4.7-.5.8-.8.2h-4.5zm3.7-1l.6-.4v-1.6l-.6-.3-.7-.3-1.3.4v.8c0 1 .2 1.4.7 1.6.6.2.7.2 1.3-.2zm.2-4.3l.2-1-.4-.2-.3-.2h-1.7v2.4h2zm-88.5 5l-.2-.4v-3.2l.2-3 .2-.4.3-.4 3.7.2 1.1.6.2.6.3.5-.3.5-.3.5.2.8.3 1.8.2 1-.7.5-.6.6-4.3.3zm3.7-.8l.5-.3.4-.8.4-1v-.4l-.8.7-.4-.5-.4-.4-.7.2-1 .2h-.4v.9c0 .4 0 1 .2 1.2l.1.4h1.6zm.1-4.4v-1h-2.3v.8l-.2 1 .7.4 1.8-.1zm149 5v-.4h.4v.8h-.5zm53.5-1.6l-.7-.4v-1.8l.4-.4.4-.4h.5l1.2.2.6.3.5.7.4.6-.3.6c-.5.8-.8 1-1.6 1h-.7zm-88-3l-.3-.4v-1l.4-.5.4-.5.4.2h.4v1.9l-.5.3-.5.2zm-144.3-2v-.3h-.8v-1l.3-.1h1v1.6l-.5.3zm-120.8-2.1l-.3-.2-.2-.7v-.8h1.3l.5.5.4.8v.3h-.4c-.6.3-1 .3-1.3 0zm-44.9-.8v-.7l.8-1.2 2.2-1h.4l.4.3.6-.7a33.7 33.7 0 006-7.3l.2-.6h1.3v.4l-.4 1-1.3 2a46.1 46.1 0 01-3.8 5.2l-.9 1.3-.8 1-1.4.7-1-.1-1-.2-.3.3c0 .2-.4.3-.6.3h-.4zm30.6 0v-.3h-1l-1-.2v.4h-.8v-.4c0-.2.1-.4.3-.5l.2-.2v-1l.8-.6.7-.7h2.4l1.4-1 1-2.2-.2-1-.8-1.3a4 4 0 01-.7-1.3l-.2-.8.2-1.3.3-1.3 2-2 2.2-1 .5.2.6.4 1.3-.2c1.7-.2 1.5-.2 4.2-.2h2.2l1 .4.7.4v1l-1.7.6-.7-.2-2-.4-1.6-.2-1.2.3-1 .3h-3.8l-.4.7a4 4 0 00-.8 1.6l-.2.9 1 1 1.4 1.8.4.7v1.3l-1.5 1.6-2.5 2.4-1 1-.4.7-.4.8h-.4zm11.7 0l-.2-.1.3-.8h1.6l-.3.6-.3.5h-.5c-.2 0-.5 0-.6-.2zm-66-.5c-.4-.1-1-.3-1.3-.6l-.7-.4.1-.8.1-.8h.7l1.3.3h.7v-4.5l-.2-4.7.3-.4.3-.4h1.5l.8 1 .8 1 .1 1 .2.9 1 1c.4.5 1 1 1.1 1h.3v-.4l-.3-1.5-.2-1.2.3-.6 1-1.5.8-.7 2.3-.1 1.4 1.3v1l-1 .4-.5-.2-1.2-.2h-.7l-.6 1.7.1 1.4v1.5l-.7 1 1 .6.1 1.6.2 1.5-.5.7-1.4-.1-1.3-2.7a95.4 95.4 0 00-2.3-4.4l-.2-.7h-.6v6.7l-.7.6c-.7.7-1.2.9-2.2.8zm7.3-5.1c0-.1 0-.3-.2-.4l-.3-.2v.8h.3c.1 0 .2 0 .2-.2zm14.8 5c-.3-.2-.3-1 0-1.2l.3-.1.8.3v1h-.4c-.5.3-.5.3-.7 0zm26.3 0l.1-.4h.7l.2.7h-1zm-32.2-.5l-.2-.3.3-.3.2-.2h.5l.4.3v.3c0 .2-.4.3-.6.4h-.4zm-6.4-.6c-.2-.2-.4-.4-.4-.6v-.2l1-.3.8-.4h.6c1 .2 1 .2 1 .6 0 .5-.5.9-1.6 1l-1 .2zm25.2-.8l-.2-.3.6-2.2 1.6-1.2v-1.5h.5v-.6c0-.3.1-.8.3-1l.3-.6-1-1 .4-.5.2-.5-.2-.4-.3-.4-1.3.3-.4-.4-.5-.4v.4l-.7.8-1.2 1-1.6 1.2-1 .5H136l-1.2-1.5.2-.6.4-2 .2-1.1.7-1 .7-1 1.4-1a12 12 0 012.3-1.4l1.2-.5.2-.2h1.5l.8.3.7.4v2.7h-1.5l.5.5.6.5v1.3l-.7.6h1v-1l1.5.4v-.2l-.4-.8-.3-.6.3-.8c.3-.4.4-1 .4-1.2v-.5l-.2-.2-.3-.2v-1l1.2.2c1.5.2 1.6.2 1.3.6l-.2.3h-1v.3l-.3.2 1 .8v1.3l.1 1.3-1.3 1 1 2-.5 1.6-.3 1.5-1.2.3-.3 1.3a11 11 0 01-.5 1.5l-.5 1.6-.2 1.3h-1.4zm-2.2-9.5l1-.8.3-1.6.7-.3.7-.4v-2.7a93 93 0 00-4 1.5h-.6v.9l-.3.7-.8.3-.8.4.3.3.3.4v.6l-.3.7.2.4.1.4h2.2zm6 9.4c-.2-.1-.2-.5-.2-.8v-.5l.6-.7h1.2l.7-.7.6-.7.3-1 .3-.7-1-2h-.7l.1-1.4.2-1.4.7-1.2.6-1.1 1-.5 1.4-1 .7-.5 4.6.4.8.7 1 .7-.6.9-.4.8-.8.3-1.2-1-.8-.2-.8-.2-1.3 1.3-1.3 1.4-.4-.5.2-.5c.2-.3.3-.8.3-1v-.4H151l-.4.7-.6 1.8-.2 1 .2.2 1.4 1.4 1.1 1.2-2.6 4-.8.2c-.4 0-.8.2-1 0h-.3l-.4 1h-1.1zm344.4-.7l-.4-.5v-.3l1.7.2.2 1h-.5c-.3 0-.7-.2-1-.4zm-373-1.2l-.5-.5v-2.4l1.5-1.7 2 .6.3.6.6 1.3.2.6-1.7 2h-2zm2-1.5l.2-.6v-.5l-.3-.4h-1v.9c0 1.4.4 1.6 1 .6zm26.5.7v-.1l.2-.8h1l-.3.6c-.3.5-.6.6-.9.3zm-2-21.6l-.2-.3.7-1.8 1.1-1.1 1-1.2-.3-.6-.6-1c-.5-.4-.5-.6.3-1.3l.6-.6.7.7.7.6-.3.2-.3.2.6.8-.2 1c0 .7-.2 1.6-.3 2v1l-.5-.4c-.2-.1-.4-.4-.4-.6v-.4l-.5.5c-.3.2-.5.5-.5.6v.2h.8v.4l-.2.3.3.3.3.3h-2v.3c-.4.4-.7.3-.9 0zm101.7-1.2l-.2-.3.5-.5.5-.6.2-3.5.2-3.5-.2-1v-1.2l-.5-.3-.3-.3.5-1h.7c.3 0 1 0 1.2.3l.7.3.7-.5.6-.4 1 .5 1.5 1.3.8.8.1 1.9.2 1.8-.9 1-1.6 1.4-.7.3-1.7-.5-.3.2h-.2v2l1.3 1-.5 1h-3.4zm5.1-5l1-.4.4-2v-.7l-.4-1.3c0-.3-.3-.8-.5-1l-.4-.5H249l-.2.5-.3.5v3.9l.3.6.5.6h.4c.3 0 1-.1 1.3-.3zm212.2 4.8c-.6-.5-.5-.8 0-1.3l1.5-1.4 1-.8v-.4c0-.2 0-.5-.3-.5l-.3-.2.4-.5 1.6.3 2.1-2a63 63 0 007-7.8c2.6-2.8 4-5.3 4.4-7.5l.2-1.2-1.3-.6-2-.7c-1.3 0-5.4-1-5.6-1.2l-.2-.2.1-.3.2-.4 1.7.2 1.6.2 1.6.6h2.2l3 1.8v.6c.2.3.2 1 .2 1.4v.9h-.2a13.4 13.4 0 01-1.7 3.2l-1.5 2.4-.7.3-.6.4-.2.5v.5l-.8.4c-.3.2-.6.5-.6.7l-.8 1.3-.8 1h.2l.3.3 1.8-1.4 2-1.3.2-.4v-.3l.5-.2 1-.5.3-.4h.6l.5.3v.9l-1 1-.9 1.3v.6l-.3.7.3.3.3.3 2-.6.7.3-.2.6-1 .3-1.3.4-2.4-.5-.2-1a2 2 0 00-.3-1c-.3-.1-5 3.5-8 6a78.1 78.1 0 01-4.4 4.3l-.8.8h-.4a.9.9 0 01-.7-.4zm-326.6-1.4l-.3-.4 1-1.2 1.2-2.1.4-1h.5l1.5-2 1.5-2h1l1-1.5-.2-.5-.3-1v-.4l2-1.8-1-1.1.2-.7.2-.7-.3-2-.4-1.7-.3-.3-.4-.2V173l.5-.2.4-.1.7.4.6.4-.3 3 .5 1 .5 1c.1.2 1-1 1.4-1.6l.3-.8 1-.3v-.3l1-1.3 1.1-1.7.3-.6-.2-.3-.2-.3-1.8.2c-1 0-2.2.3-2.6.4l-.6.3-.8-.8.3-.5.2-.4.2.3.2.3.5-.3.5-.3h5.6l.5.5.6.4-.2.4c0 .5-2 2.9-4.5 5.7l-1.7 1.9.2.5c0 .3.3 1 .6 1.4l.5.8-.2.3-.7.5-.5.3v.7l.1 2 .1 1.4h-.4l-.5.2-.2-.6-.3-.6v1.9l-.4.5-.4.5-.8-.8.1-1 .2-1-.4.7-1.2 1.4-.8 1v.3s0 .6.2 1l.3.6-.5.7-.4-.4-.4-.7v-.3h-.4l-.4.3v.3a12 12 0 01-4 3.9c-.3 0-.6-.2-.7-.4zm366.3-1.1c-.3-.2-.6-.7-.7-1l-.3-.5.5-1.3.5-1.4v-9l-.5-1h-.6l-2 2-1 .6-1 .4v.5l-5.5 2.6H491l-.4-.6c-.7-1-.5-1.5 1.7-3.4l1-1 1 .3-.4.6-1 1.3-.6.7.1.3c.3.4.6.3 2.5-.6l1.8-.8 4.5-3.7.6-1 .6-.8v-2.6l.5-1.1c1-2.2 1.5-3 2.2-3.7l.7-.6 2-.2.7.5.2 1 .3 1-.3.8-.2.6-1 .4-.2.7v.8l-2 1.7v.6l-.3.7.4.7.7 1.4.3.7-.5.7c-.7.7-.8 1 0 1h.4l.3 5-.5 2-.6 2 .5.4.4.3v.4l-.3.4h-1l-1 1.6h-.3zm-130-.2l-.3-.3.2-1.2.6-1.7c1.3-2.6 2.7-5 3-5.2.2 0 1-1.5 1-2v-.6l1-1 3-3 4.1-4.4 2.4-2.5h.7l.2.4c.3.8.1 1-2.9 4a68.4 68.4 0 00-9.6 11.8l-.5 1-.4 1.4-.3 1.4-.5.4-.4.4v.6l-.2.7-.9.2zm-220.6-.1l-.2-.7v-.5l-.8-.7.2-.3.2-.3 1.7.3.8-1.2.8-1.1v-2.2h-1.4l-.6.6-.6.6-.5-.3-.7-.8-.4-.6 1-1.6.7-1.6 3.3-2.4.3-1.6 1-.7 1-.8.8-.2 1-.2 1 .6.1.7.2.7-.8 1.6c-1 1.9-2 3.3-2.6 3.8l-.5.3.2 3.5-.7 1.4a18 18 0 00-.8 1.8v.4l-1.7.8c-1.8 1-1.7 1-2 .7zm1.7-8l.8-.6v-1.3h-1l-1.4 2.4h.2c.3.4.5.3 1.4-.4zm4-3.5a8 8 0 001-1.7l.3-.7-.3-.3-.2-.2-.4.2-1 1.2-.8 1v1.3h.8zm42.7 11l-.4-.4.6-1.6.5-1.5-.6-2 .6-1h2l.5-.2c.3-.2.8-.3 1-.3h.6l.5.6.7 1 .2.6-.8 1.5h-.3l-.5-.4-.9-1-.4-.5-1 .2.2 3.4.4.4.4.8v.3l-.5.2-.5.3h-1.9zm7.4 0c-.2-.3-.4-.7-.4-1v-.4l1-.8h1.3l.6.6v1.4l-.6.6h-1.4zm62-.2l-.8-.6-.9-2.5-1-1.1-1 .3.1 1.2.1 1.2 1 1-.8.5-2.3-.3.2-.6.3-.7V186l-1-1 .3-.2.3-.3h1.2a6 6 0 011.5.3h.2l-.4.7-.4 1v.6l1.4.7.2-.2.2-.5c0-.2.2-1 .5-1.4l.4-1 .8-.4.5.3.5.3v1.2l-.6.6h-1l-.6 1.3 1 1.2.5 1.2.5 1.3.3.3c.3.2.4.5.4.7v.3l-.7.3zm251.6.5c0-.2-.6-.3-1.2-.4l-1-.2-.5-1 .4-.3.4-.4 1.4.5 1 1.4-.3.5zm-339.6-.3a.5.5 0 01-.3-.5v-.3l1.6-1v-5l-.9-1 .1-.4c.1-.2.5-.6 1-.8l.6-.5.2.3.3.2.5 7.4 1 .8v.7h-3l-.8.2zm7-.4l-.5-.4v-.7c0-1 .5-2 1.8-4l1.2-1.7-.2-.3v-.3H189l-.2.8-.3.8h-.5l-.2-3 1-.4h2l2.1.3.2.2v1l-2 4 .1 1.5v1.3l-.3.5-.4.6h-.5l-.5.3zm-21.2 0a.9.9 0 01-.2-.4v-.4h1.3l.5-.6v-4.8l-.3-.3-.2-.4h-1l-.4-.5-.3-.5.4-.1a3 3 0 011-.2h.4l.3-.5.3-.5h1l.4.4.3.4v7l.8.3c.4.3.7.5.7.7v.7h-4.7zm7.6-.4l-.6-.6v-1.7l.8-.6.7.6.1.6.1.6h1l.7-.8v-2h-2.2l-1.2-.6-.6-2.1.3-1 .3-1 1.4-1h1.6l2 2 .1 1.8.2 1.8-.3 1.3-.3 1.2-2 2h-1.4zm2.7-5.4l.4-1v-.5c-.3-.6-.9-1.4-1.3-1.4l-.7.4-.4.4v2.9h1.6zm62.7 5.8c-1.3-.3-1.6-.6-2.3-2l-.5-1v-2.5l.6-1 .6-.8 1-.5 1.1-.6h1.4l.8.5 1 .5.5 1.3-.3.8h-1l-1.7-2-1 .3-.9 1.9v1l.3 1.6.3.7 1.2.5 1-.4 1.4-.4h.3v1.6h-.4a6 6 0 00-1.4.3l-1 .4zm16.2-.2l-.7-.4-.6-1.2-.5-1.2.2-1.4c0-.8.3-1.8.4-2.1l.3-.6 2.2-1h2l1.8 1.6.4 1 .4.8-.2 1a5 5 0 01-1.6 3l-.8.7-2.6.3zm3.2-1.5l.6-.7v-3.4l-1.4-1h-.6a2 2 0 00-.9.2l-.3.2-.3 1a11 11 0 00-.2 2v1l1 1.4h1.6zm257 1.8l-.3-.1v-1l.4-.2.4-.2 1 .8-.3.5-.2.4h-.3zm-242.8-.8l-1-.8-.4-1.4c-.4-1.8-.4-2.2.2-3.4l.5-1 1.4-1.2h2.3l.8.6 1 .6.4 1 .5.9v2.7l-.7.9-.6.9-2 1h-1.4zm3.4-1.2l.4-.6v-3.8l-1-1H276l-.7.5-.7.5v2l.2 1.9 1 1h1.7zm3.7 1.6v-.2l.7-1v-6.3h.1l1-.1h1l1 3.2.5.2.5-1 .7-1.8.1-.8 2.3-.1.1.4.2.4-.3.4-.4.4.2 2.4.2 3.3v.8l-4-.1-.8-.6-.5-3-1-2.1v4l.8 1-.2.5v.4h-2zm5.8-1.6l.3-2.1.1-1.3-.4-.3-.4.6-.4.6-.2 1.7v1.7h1zm6.6 1.6c0-.2 0-.5.2-.6l.3-.3v-5.5l-1.7-.2-.7.5c-1 .7-1 .7-1 0v-.7l.8-1 3.5.3 1.2-.4v1l-.5.3v1l-.3 1 .3.2.3.2 1.5-.3 1.2.4 1.2.5.3.7.3.8-.2.5-.2.5-1 .2c-.7 0-1.8.4-2.5.7l-1.3.5H294zm4.7-2.5s0-.3-.2-.5l-.4-.4h-.7c-.4 0-1 0-1.2.2h-.4v1.6l1.4-.4a12 12 0 001.5-.5zm209.4 2.4l-.2-.4.3-.3.3-.3.3.3.3.3-.3.8h-.6zm6.1 0l-.2-.2.3-.3.3-.2.3.2.3.3-.2.3c0 .2-.3.3-.4.3zm-351-.2l-.5-.3 1-1 1 .2v1.3l-1 .2zm156.6 0l-.5-.2.6-1v-4.5l-.3-.2-.2-.1v-1l.7-.3c.3-.2 1-.3 1-.2h.5v2.4l-.2 2.4.6 2.3-.3.4-.3.4h-.6l-1-.3zm5.4 0l-.6-.5-.4-1-.3-.8v-3.2l1.5-2 .8-.3.8-.4 3 1.3 1.6 2.3v2l-.8 1-.8 1-.8.3c-.4 0-1 .3-1.2.4-.2 0-.8.3-1.3.3h-.9zm3-.8l.6-.4.2-.8.3-1.7.2-1-.5-.7-.4-1-.7-.2-.6-.3-1.3.6-.3.7-.3.7v3l.4.4a4 4 0 001.4 1zm9.2.8v-.5l.2-.3c.4-.5.7-.5 1.2 0l.5.5-.5.3-.9.4h-.3zm86 0l-.6-.2v-.7l1-.3.3.3c.3.3.4.9 0 1h-.7zm39 0l-.2-.2.2-.2c.2-.4.8-.4 1 0l.2.2-.6.3-.5.3v-.3zm9.2 0l-.2-.2.4-.3.3-.2.5.5-.2.3c-.2.3-.6.3-.8 0zm12-.2v-.5h1.2l-.2 1h-1zm9.5.3l-.2-.3.3-.5h2l-.3 1h-1.7zm3 0l-.3-.3.2-.2.1-.3h.5c.3 0 .5 0 .6.2h.2l-.3.5c-.3.4-1 .5-1 0zm3.2-.3v-.5h.3c.2 0 .4 0 .5.2h.2l-.2.5v.4h-.8zm-406.8-.2l-.4-.5.4-.6.4-.5h.6c.3 0 .7 0 1 .2l.3.3-.5.5c-.3.3-.7.7-1 .8l-.4.3zm9.2.2l-.6-.3v-1.3h.2l.7-.1.4-.2.4.7.4.6-.2.5v.4h-.4l-1-.3zm46.6 0l-.2-.2.2-.3c.2-.4.8-.3 1 0l.3.3-.4.2c-.5.3-.7.3-.9 0zm9.3 0a.8.8 0 01-.2-.4v-.3l1-.4.2.3.2.3-.3.4c-.4.4-.6.5-.9.2zm2.6 0V191.3l.2-.4h1.3v.6l-.2.6h-1zm184 0l-.3-.2.2-.3.2-.3h1v.5c-.2.5-.6.7-1 .3zm9.1-.1V191l.2-.3.8.3v.7l-.8.3zm5.6 0l-.2-.2.4-.4.5-.4.3.3.3.3-.2.4v.4h-.5a.7.7 0 01-.6-.3zm6.5 0l-.4-.4.3-.3.3-.3.3.2c.3.2.4.8 0 1l-.2.2zm3.2 0l-.4-.1.2-.4.2-.4h.5l.3.8-.2.2-.2.3zm11.8.2a.9.9 0 01-.2-.5v-.4h1.1v.5c-.2.5-.6.7-1 .4zm6.3 0l-.2-.4.3-.3.2-.2.2.3.2.3-.5.5zm12.2 0l-.2-.3.3-.2.3-.1.5.3-.2.2c0 .2-.2.3-.3.3l-.4-.3zm3.2 0l-.2-.5v-.4l1 .2v.7h-.8zm3 0a.7.7 0 01-.3-.4v-.2h1.1v.3c-.2.4-.7.6-.9.3zm9.1 0l-.2-.4.3-.3.2-.2.4.6-.5.5zm12-.1l-.3-.3.4-.2.3-.2.7.5-.3.3c-.5.3-.7.2-.9-.1zm3.1 0l-.2-.3.3-.3.8.4v.2c-.3.4-.7.4-.9 0zm6-.1l-.4-.4.3-.3.4-.2.4.2h.3v.5l-.4.5h-.3zm6 0l-.3-.2.3-.3.3-.2.8.3v.3l-.2.4h-.8zm36.5 0v-.4l.4.2c.3 0 .4.2.4.3v.3h-.8zm-407.6-1l-.4-1 .3-.3 1.2.3 1.2.3.8-.3.8 1.3-.6.8h-2.8zm5.2.7l-.3-.3.3-.6h.5c.3 0 .6 0 .8.3l.3.3-.2.4v.3h-1zm5.8 0l-.3-.4.4-.4.4-.4 1 .3v1l-.6.2c-.5.2-.5.2-.9-.3zm2.7.2h-.3v-.8l1.1-.6.4.4.4.4-.3.4c-.3.4-.7.5-1.3.2zm3 0l-.4-.3.6-1h1l.6.8-.5.4c-.5.4-.6.4-1.2 0zm2.7 0l-.2-.6v-.5l1.1-.6.8.7v1.1h-1.7zm5.7-.1l-.3-.3v-1.3l1.4-.3.3.3c.5.4.5.9 0 1.4-.5.5-1 .5-1.4 0zm3 0l-.5-.4.5-1 1-.2.5.4.5.3-.4.6-.4.6h-.4l-.8-.4zm6 0c-.2-.2-.3-.5-.3-.8v-.4l.4-.2.4-.1.5.2.5.3v.4c0 .4-.5 1-.9 1-.2 0-.4-.2-.6-.4zm5.8 0l-.4-.5.4-.4.3-.4h1l.2.4.1.4-.3.4c-.4.5-1 .5-1.3 0zm205-.7v-5l-.3-.4-.3-.5.5-.4.5-.4h1.4l.7.9-.3.5-.3.5v4.7l.2.2c.2 0 .3.3.3.5v.4H315zm41.3.5v-.5h.9l.1.3-.3.7h-.7zm14.5 0v-.3l1.2.2v.5l-1.2.2zm12.7.3c0-.2.2-.3.3-.3l.4.3.2.2h-.9zm9.2 0l.1-.3h.3c.4.4.3.5-.2.5h-.4zm15.2-.2v-.4h.8v.8h-.8zm3 0v-.2h.8l.2.6h-1zm6 0l.3-.2.6.6h-1.3zm15.7 0l.3-.1.1.3v.2h-.5zm23.8 0l.3-.1c.1 0 .3 0 .4.2v.3h-.8zm30.7 0l.3-.1.1.3v.2h-.5zm-408.9-.2v-.5l1 .2v.3s-.3.3-.6.3h-.4zm37.6 0l-.5-.5.1-.4.2-.4 1.6.2.2.9-1 .5zm6 0l-.5-.1.2-.5.1-.6 1-.3.3.4.4.4-.3.5c-.3.5-.8.6-1.3.3zm2.7 0l-.4-.2.3-.4.3-.5h1.3v1.3l-1 .2zm-17.2-.4v-.6l1 .2v.8h-1zm6.3.3l-.2-.4.1-.1.2-.2.1.2v.8zm5.1-.3l.2-.7.3-.1 1 .7-.5.6h-1zm8.8 0v-.4l1.3-.2-.2 1h-1.2zm5.6.2v-.2l.2-.6h1.3v.8h-.4c-.6.4-.9.3-1 0zm3.2 0l-.2-.5.2-.3.2-.2h1v1h-.4c-.6.4-.7.3-.8-.1zm-6-.3l-.3-.3.5-.3c.6-.5.8-.5 1.3 0l.4.4v.3l-.3.2h-1.5zm14-.2l-.3-.3.6-.6.8.3-.3.9h-.3a.7.7 0 01-.6-.3zm249.1-1.2l-.9-.7v-1.7h-.3l-.6.3-.5.4-.2-.2-.2-.6v-.5l1.7-1.8 2.2-2.6.6-1h1l1-.2 3-2.4.3-1.3.3-1.7 1-2 1-1.6 1.4-1.4 1.5-1.5 1.2-.1c.6-.1 1.6-.2 2.2-.1h1l.7 1.3.6 1.3-.9 3.4-.9 1.7a51 51 0 01-2.4 4l-1.5 2.3-.7.4c-1.2.8-1.3 1.2-.4 1.6l.7.3h2.5l2-.8 2.5-1 .4-.3v-2l1-3.1.8-1.2 1-1.2 1.6-.8h2l.4.7c.4 1 .4 1.3-.3 2.6l-.5 1-1.4 1.4-1.5 1.3v.7h.5a12.3 12.3 0 004.4-1.6c.2 0 1.3-.5 2.5-1.2l2.4-1.2 1.4-.6 1.3-.7h1.4l.2 1-.6.8c-.9 1-1.6 2-1.6 2.5v.4l.7.3.8.2.6-1 2.4-2.5 1.7-1.7 3.4-2 .7.2h.7v.8l-.4.2-1.6.7-1.2.5-1.3 1-3 2.8-1.5 1.5v2l.1 2.2.3.8.3.7h2.1l.1.3.2.3-.7.4-2.5-.2-.6-.3-.5-.3-.2-.6a12 12 0 01-.4-1.8l-.2-1.3h-.3l-1 .6c-.3.3-.7.5-1 .5l-.5.3c0 .2-.6.7-1.2 1l-1 .8h-1v-.7l1.6-2.3a20 20 0 002-2.8l.3-.5-.3-.6c0-.4-.4-.7-.5-.8l-.3-.2-1.4.7-3.7 1.6-2.3 1-3.5.2-1.5.7-2 1-.3.4-1.7.3-1.8.4-.8-.2a7 7 0 01-1.5-.5l-.6-.3h-.6l-.6.3-.8.7c-.4.5-.8.8-1 .8-.2 0-.8.4-1.5 1l-1.3.9h-1l-1 .8h-1.4l-.8-.7zm4-1.5l2.3-1.4 1-.4 1.1-1.6-1.3-2.3v-.5c0-.3 0-.8-.2-1v-.4h-1l-1.4.9-1.9 1.4-.6.5-.5 1.8-.5 2.5v.7l.3.3c.2.2.5.3.8.3h.4zm29.8-4.4c.4-.7.3-.8-.2-.8h-.5l-.2.5v.6c.3.3.6.2 1-.3zm-21-3.6l.8-1.3 1.4-2.5 1-1.8.3-.1v-1.6l-1.3-1 .8-.7v-1l-.7-.2h-.6l-1.3.6c-.7.4-1.4.8-1.4 1l-.9 1-1 1-1 3 .3.3.2.3 1.6-1.1a5 5 0 001.6-1.3l1.3-1.2 1.3-1 .2.2c.3.4 0 .7-2.3 2.7l-2.4 2-2 1-.2.4-.2.4.7 3.7.8.8 1.4-1.5a11 11 0 001.6-2.1zm11-.4l1-1.4.2-.8.1-.8-.9-.7-1 .4-1 1.5a6 6 0 00-1 2l-.4.9h-.3l1 1 .5-.4zm9.8.6l.5-.4v-.7h-.4c-.4 0-1.5.9-1.5 1.3v.2h1zm-17-8.8l-.5-.3c-.2 0-.3 0-.3.3v.2h.8zm-335 17.3l-.3-.4.2-1.8.2-2h.7l.4-.8c.2-.5.6-1 .8-1.2l.4-.3v-.8l.8-1 1.4-1.6.7-.7v-1l.7-.3.7-.4v-1l2.2-2.6.5-.2a7 7 0 001.6-1.2l1-1h.3c.5 0 1 .5 1 1v.4l-1 1a120 120 0 00-8 11l-.8 1-.5 1.8c-.3 1-.7 2-.9 2l-.3.5h-1.4zm10.3-1l-.3-.7.6-2.5.6-2.4.8-1.2.7-1.5a25.5 25.5 0 015.2-7.6l.7-1h.5l.5-.2.4-.8.4-.7 1.2-.5 1.2-.5 1 .3.7.2.2 1-1.3 1.2-2 1.8-.8.6h-1l-1.9 1.8a20.1 20.1 0 00-4.4 6.6l-1 2.2-.2 1.3v1.2l1.4.2.3-.7c.3-.7 2.8-4 3.2-4 .3-.2.3-1 0-1l-1 1-1 1-.3-.1-.2-.2.2-.6.1-.6 2.4-2.6 1-.4 1-.4 1 1.2-.3.5a2 2 0 00-.3 1v.3l-1.4 1.8-2.5 2.8-1 1H89v.7l-.6.4c-.3.2-1 .5-1.6.6l-1 .2zm41.5-1l-.2-.7v-.7l1-1 .7-1-.2-1.1-.9-.6-1.2.8a22 22 0 00-2.2 2l-1 1-2.5.3-.8-.6v-1.1l.5-.7.5-1v-.3h-3.5l-.5.3-1 .8a19 19 0 01-4 2.3l-1-.8-.8-.8-2.3 1H106l-.8-2-1.5.7-2 1h-.6l-1-.6.3-.7 1.5-2 1.2-1.3v-1.4l1-.8.7-.8h1l.2.4.3.4-.3 1-1.5 1.7-1.4 1.6h.4c.5 0 2.7-1.3 4-2.3l1.2-1 1 .2v.4l.1.4-1.2 1.3-1.2 1.4v1.2h.3l2.1-1.2 1.8-1v-.5l.2-.5 3-2.2 1.5-.4.2.4.1.3v.4l-.3.4-.9.5-.9.6v.5l-1 .5-.8.6-.2.7v.7c.1.2 1.7-.7 1.7-1 0 0 .6-.6 1.3-1l1.3-1 1-2.6.8-.5 1-.4h.3l.4.3v1.2l-1.3 1.3v.9h.5l.6.3.7-.3a52 52 0 004-1.3h.6v1.3l-1 .7c-.6.3-1.5 1-2 1.6l-1 .9.1.3.2.2.4-.1.6-.4 1.7-1.2 1.5-1 .6-1.2-.3-.8c-.4-1.2-.4-1.2.4-2.1l.7-.8h1.7l1.2 1-.5.8-.4 1.3v.4l.7.7.6.7.2.7.1.6-1.4 1.7h.4l1.4-.7 2-1.2 1-.5 1-1.1c.6-.6 1.3-1.4 1.7-1.6l.7-.5.4.2.5.2v.7l-1.2 1.2-1.2 1.2v1l-.5.4v1.5h.7l1.5-1.3a13 13 0 002-2.3l.7-1h.6v-.3c0-.5 1.5-3.2 2-3.5l.2-.1.6.6-1 1.7c-.4 1-.9 1.7-1 1.7l-.5.8-.3.7-4 4-1.8.6-1-.5-.2-1.2a4 4 0 00-.4-1.5l-.2-.3-2.2 1.4c-3.2 2-3.8 2.4-4.3 2zm313-1l-1.3-1.1-.4-.6.2-1.3.3-1.2.6-1 .6-1 1.4-.7h3l.1.5.2.3-.3.3-.3.3v-.3l-.3-.3H442v.7l-.7.4-.6.4-.5 1-.6.9.3.3.2.4 1.3-1.5h1v.5l-.5.8-.2.3.3.5.2.6h.8l.2.4.2.4-.8.5h-1.8l-.9-.5zm9.4-.3l-.3-.7v-.3h-3.4v-.5l1.4-.5 2.5-2.5 2.2-.5.5.5-1.2.8-1.2.9v.3c0 .2.1.4.3.5l.3.2 1-.5 1.4-.7a8 8 0 012-.5c1.8-.2 3.3-.7 4-1.4.4-.3 1-.8 1.5-1l.8-.4.4.3c.3 0 .5.3.5.4 0 .2-.6 1-1.3 2l-1.3 1.7.1.2h1.7l1.6-1.1c2.3-1.7 3.8-3.3 5.1-5.4l1.2-1.7.2-2.5.3-2.4.3-.4.4-.4h1v.7a18 18 0 01-2.9 8.3l-.9 1.2a43 43 0 01-5.7 4.3l-1.6.8-1.4.7-.5-.5-.4-.4v-2h-.7l-1.3.5c-1.4.8-2.4 1.2-3.8 1.6l-2 .5-.4.2zm9.8-3.3v-.4h-.3l-.3.5.3.3h.3zm-16.7-.8v-.3l.8-.3v1h-.8zm43-2v-.2l.6-.4c1-.5 1.1-.5 1.1 0v.6h-.4l-1 .3h-.4zM333 170v-.5l1-1.2 1.4-2.4.6-1 1.8-.3-.6-.4v-1.1l.8-1 1.5-2.1a26 26 0 011.8-2.6c.7-.8 1.2-1.6 1.2-1.7 0-.3 1.4-2.4 2.2-3.3l.5-.6h1v-1.3l.6-.7a72.3 72.3 0 014.7-5.3c.7-.8 1.5-2.2 1.2-2.4 0-.1-2 .7-3 1.3a35.1 35.1 0 01-10.4 4.6l-1.5.3h-2.5l-2.3 2.5-1.7.8-2 .8h-.6l-.2-.5-.4-1.3-.2-1 .6-1.4.6-1.5 3.5-3.4 3.7-1.8 2-1.8h1.3l.8 1.3v.7c-.3.7-1.8 3-2.8 4.2l-.6.8.2.4.2.3h1.3c1.2-.2 2.3-.5 4-1.2l3-1.4 2.4-1 2.1-1.4 3.3-2.2 1.1-.8h.5c.3 0 1-.1 1.4-.3l.8-.3.2.2.2.2-.9.6-.8.7-1.3 2.2-1.4 2.3.4.8.4.8v1.2l-.5 1a21 21 0 01-2 2.7c-.8 1-1.5 1.8-1.5 2 0 .2.2.3.5.5l.4.3 5.1-1.7 1-.7 1.1-.7.4-4 .4-1 .4-1.1 1.7-1.6 1-.4.8-.3.7.7.6.6v1.9l-.4.9-1.3 1.9-.8 1-1.4.5 1 .6 1-.2 1.2-.4 2.4-1 2.1-.7.7-.5.7-.6 1.3-.5 1.6-.6h.4l.1-.5c.4-1.2 1-2.2 2-3.5l1.1-1.4 1-.4c.7-.4 1.3-.5 3.1-.4h1.1l.4.9.3.8v.5l-.2.5-1 1c-.7.7-1.7 1.5-2.3 1.8l-1 .7-3 .3-.4 2 .7.8 2-.3 1.3-.6a61 61 0 005.7-3.2c.7-.5 1.7-1 2.1-1l.8-.3 4.3-2.6 1.3.2v1a7 7 0 01-.2 1.2v.4h.5a9 9 0 002-1.2l1.5-1h.5l1 .4.6.4v1.5l-1.8 1.7.2.5.1.5-.3.4-.3.4v3.7l-.5.3-1-.6-.3-.7-.2-.7.2-1.5.5-2.3.3-.8-.2-.3v-.3h-1.3l-1.7 1.2-4.4 3-1.3 1h-.9v-.3l-.3-.3.8-.5c.8-.5 4.2-4 4.2-4.4l.2-.6.2-.4h-.5c-.5 0-3.2 1.4-5 2.6l-1.7.8-1 .6c-.4.4-1.8 1-3 1.7l-2.3 1-2.7.8-.5-.3-.5-.3-.3-.8-.3-1 .1-.4-1-.3-5.9 3-2 .5-3.7.9-1.5.2-2 1-2.5.8-1 .4-1.5.7-1 .3-1.5-.8-.2-.5-.2-.6.3-.5c.2-.3.4-.5.6-.5h.2v-.7l1-1.1c1-1.1 1.7-2.6 1.7-3.4v-.4h-.3a11 11 0 00-3.2 3.7s-.2.5-.6.7c-.7.6-1.8 2-1.8 2.5l-.4 1a527.6 527.6 0 00-3 4.2l-1.6 2.2c-.3.6-1.4 2-2.2 3-1.4 1.6-3 3.8-3.8 5a4 4 0 01-.9.8l-.6.5h-1zm-1.7-19.5l1-.1 2.7-3.3v-1.4a6 6 0 00-.3-1.6l-.2-.2-1 .4-1 .4-.9 1.2a19 19 0 00-1.5 2.4l-.6 1.2v1.2h.5c.3 0 1 0 1.3-.2zm30.3-2.2c1-1.3 1.5-2.4 1.5-3.1v-.5l-.5-.4-1.6.8-.5.8-.6.8v2.7h.8zm-24.5-3.6l.3-1-.5-.2-.5.5-.5.4v.7c.2.9.2.9.6.7l.3-.1zm41.5-.2c.5-.5 1-1.4 1.3-2l.5-1-.4-.1-.3-.2h-.4l-1 .3h-.9l-1.2 1.2-1.2 1.3.4.4 1.7-.7.2.2.2.2-.6 1 .2.2c.3.3.6 0 1.5-.8zm-236.8 22.7V165h-1c-1 .3-1 .3-4.2 0l-2.5-.3-12.7-.1v-1.1l.6-.6 13-.1.7-.4 2.1.3 2.4.4h.7l.5-.3 1 .4.7.3h3.5l2.5.8 2.4-.6.7.5 6.3-.2 1 .5v1h-11l-1.7 1-3 .4-.4-.3-.4-.3v1h-.5zm318-.3h-.4v-.5c0-.4 1.7-3.1 2.1-3.4.2 0 .3-.3.3-.5v-.4l.6-.7 1.4-1.5 1.2-1.6.4-.8.7-.5.7-.5 1.6-3.3.6-.6 1-1.4c.3-.6.8-1.3 3-4.2l1.2-1.8c0-.1.7-1 1.5-1.7l1.5-1.5 2.3-1v-.6l-.4-.2-.4-.1-.6.5a67.2 67.2 0 00-5.7 3.7l-3 1.8-1.2.6h-.9l-2.3.4-6.4 1.5-1.6.3-.9.8-1 .8-1-1v-1l.7-1.3.7-1.3-.2-.2v-.1l-1.8.8-2.9 1.4-1.2.5H448l-.4-1-.6-2v-1l.5-.6c.4-.3.8-.7 1-.7h.2l.7-1.1.7-1.2 1.4-1.2c1.4-1.2 3.7-2.5 4.3-2.5h.4v.3c0 .6-2 3-2.6 3l-1 .8-1.5 1.3-.7.5-.7 1.3-.8 2-.2.8h.5a15.7 15.7 0 004.7-1.8c0-.2.6-.5 1.2-.8l1-.5 1-1a18 18 0 002-2.4l.7-1.4 1.5-1h1.5v1.2l-1.4 1.4-1.3 1.4-1.9 2.8-1.8 2.7.2.3.3.2 1-.1c1.3-.2 4.8-1.1 5.6-1.5l.5-.3.3-.7c.2-.3.3-1 .3-1.3v-.6l.4-.3.4-.7v-.3l1-.3-.7-.6.3-.6 1-1.3 1-.7h1.4l1 1v1.6l-.4 1-.4 1-.5.4-.8.3h-.3l.7-1c.8-1.1.8-1.4.3-2l-.3-.5-1.2.4-.5 1-.6 1v2.5l.6.4.8.4.4-.4 2-1 2.2-1.2a5 5 0 011.2-.8l.5-.2v-.7l.7-.4 1-.4c.4 0 2.1-1.2 3.8-2.7l2-1.5 1 .3.5.3v.7l-2.9 3.5.2 1c0 .5.3 1 .4 1.3l.2.4-.2.3c0 .2-.4.4-.7.5h-.6L478 148l-2 2.6-.4.4-.3.9-.3.9h-1v-.6l-.3-.6.2-.7.1-.8h-.8l-.5.7-1.6 2.2a13 13 0 00-1.5 2.3l-.4.8-.6.5-.7.4-1 1.4a62.1 62.1 0 01-2.7 4l-1 1.5-1.6 2c-.3.5-.8 1-1 1l-.5.3h-.3zm15.7-18.2c.2-.5.5-1 .7-1h.2v-.4l-.2-.6c-.2 0-1 .9-1.6 1.8l-.6.8.2.2.4.2h.4zm63.2 17.6l-.2-1.2v-.5l.6-.6c1-.7 6-6.5 6-7l3.4-3.5 3.3-3.3v-1.4l-2.6 1.4-1-.2v-.5l-.2-.6.7-1.4.7-1.4-.2-.2-.3-.2-1.4 1.3-1.6 1.3-1.4 1a7 7 0 01-1.4 1c-.2 0-.5-.1-.7-.4l-.5-.6.6-1c.3-.7 1-1.7 1.6-2.4l1-1.1.2-.8c.1-.4.5-1.4 1-2.1l.7-1.4v-1.2l-.9.2-1.4.3h-.6v-.8l2.2-1h3l.7.8-.2.7c0 .4-.5 1-.8 1.5-.4.5-.7 1-.7 1.2 0 .2-.3.8-.8 1.4l-.8 1v.7l-1.3 1.3v.7h.3c.2 0 .8-.5 1.4-1.1l1.8-1.5.8-.4 3-3.1h1.1l.2.3v.3l-.3.7c-.2.4-.5.9-.7 1-.8.7-2.8 4-2.8 4.6v.2h1l2.1-1.8a72.6 72.6 0 005.7-5.1l3-2.8 1-1.1h1.1l.3.3.3.4-1 1.3-2 2.3-1 1 .5.5.4.7c0 .5-1 2.2-1.9 3.2l-1.4 2-.7 1 .1.5.2.5 1 .6 3.4-1.7.2-.4.1-.3-.4-.8c-.5-1-.5-1 .5-2.5l.8-1.3 2.1-1.5h2.5l.2.3.3.4v.5c-.2.6-1.6 2.6-2.7 3.6l-.8.8 2.4-.4 3.3-3 2.2-1.1h1.2l1 1-.2.6-.2.7-1 .8-1.6 1-.6.4-.8-.4-1.3.4-.7 1-.6 1v1.3l.6.6h2.4l3.7-1 1.2-1.4c.6-.8 1.8-2 2.5-2.7l1.3-1.2h1.3l.5.6.5.8c0 .5-1.2 2-2.5 3l-1.2.9h-1l-1 1.6-.3.7v.8h.1l.2.3.7-.2.7-.1 1.8-1.8 1.8-1.8 2.8-1.1.5.2.6.3v.8l-1.4 1a15 15 0 01-2.2 1.3l-1 .4v.2c0 .2-.5.9-1 1.6l-1.4 1.3.2.3v.4l.8-.8c.5-.5 1-1 1.4-1.2l.6-.3.8.3v.3c0 .2-.2.7-.5 1l-.6.7v1.2h1l1.5-.8 2.1-1.5.8-.6h1v1.4l-.9 1.2a7 7 0 01-1.4 1.8c-.4.3-1 1.2-1.7 2l-1.2 1.5h-2v-.8l1.1-1.1a5 5 0 001-1.5v-.3h-.5l-1.9-.5-1.4-.5-.5.2-1 .3h-.4l-.4-.4c-.6-.6-.6-1 .2-1.6l.7-.6-.3-.7-.2-.7-1.8.3-.6-1.4v-1.5l-.5-.3-2 .8-4.2.2-.4-.5-.5-.5v-1.7l-.2-1.7h-1.8l-2.2 1.4a19.2 19.2 0 01-5.3 2.8h-.4l-1.4-1.7.2-.8.1-.8 2-3.1-.2-.2-.2-.2-1.5 1.7c-.8.8-2 2-2.4 2.9l-3.2 3.9-3.4 4c-1.3 1.6-3.9 4-4.3 4h-.3v.6l.2.4-1 .8c-1 .9-1.9 1.5-2.3 1.5h-.2zm27-19l1.1-1.5v-1l-.2-.1-.3-.1h-.6l-.6.3-1.4 2-.2.9-.2.8h1zm-11.3 0l.6-.5-.2-.6-.9.8c-.9.9-1 1-.5 1h.4zm18-.5v-.3l-.5-.3-.7.4-.7.5.7.4.4-.2zm-453.9 14.3l.2-1 .3-.2.3-.1.7.2v1.5l-.5.3-.9.3h-.3zm157.4-4.6v-.3l.4-.7v-1l.4-.2.1 2.5h-.3a.7.7 0 01-.6-.3zm211 0l-.5-.3v-.3l.4-.7.3-.3 1 1-.2.5c-.2.5-.4.5-1 0zm39.3 0l-.6-.4.3-.4.3-.5.6.2h.6l.1.5.2.4-.5.2-.4.2zm-21-.3l-.5-.2v-.8h1.4l.2 1-.7.3zm6 .2l-.4-.2v-1h1.2v1l-.3.2zm2.6 0v-1.2h.3c.3 0 .7 0 1 .3l.2.2v.4l-.3.4h-.5zm6.3-.2c-.5-.5-.4-.7.6-2l1.3-2 .4-.7-.6-1.6-.6-1.6-.6-.3-1 .7-1 .7h-.6c-.8 0-1.9-.5-2-1l-.2-.3.7-1.5.6-1.5v-1.3h-.6l-1.6.5h-1l-.4-.2-.4-.4-.3.3-.3.3-1.2-.5-1.5.8-3 3.5-2.4 1-.5-.2c-.2 0-.7-.4-1-.7l-.6-.5-1.3.5c-.7.3-1.7.5-2.2.6h-1l-.8-.6-1.2-1.5-.4-.8.5-1.4.8-2.4.3-1 .6-.7c.3-.4 1.1-1 1.7-1.4l1.1-.8 2.8.3.5.6c.2.3.4.7.4 1v.4l-1.6 2.6-3 2.6h-.6l-.3.5-.3 1v.4l.8.2 4.3-2 .1-.6.2-.7 1-1.1.8-1.2 1.3-1 1.3-1h1.4l.1.6.2.4-.4.5c-.4.6-1.8 1.6-2.8 2.2l-.6.3-.5 1-.6 1.5v.3h.3l2.4-1.8 2-2 .2-1.2.2-1.4.7-.8c1-1.1 1.4-1.5 2-1.5h.4l.3.4.4.4-.8 1.3-.7 1.3.1.4.2.3 2.6.6 1.6-.4c.8-.2 2-.5 2.4-.8l.8-.4.6.4c.6.7.6.8-.2 1.7l-1.4 2.3-.9 1.5.2.3.3.2 1-.4c1.2-.4 1.3-.5 2-2l.3-1.3 2.4-2.1 2.2-.6.6.3.6.3v1.6l-.4.6-.4.7-2.6 1.6-.4.6-.4.6.1.4c.1.3.4.6.8.9l.6.4.1 1 .2 1-.4 1-1.5 2-1.4 1.7-.4.4h-1.2zM500.5 144l1.5-1.8.6-.7v-1.6l-.5-.1-.4-.2-.8.4-.9.3-.5.7a5 5 0 00-.9 1.3l-.2.7.3.5.3.4v.5l-.2.5h.7zm22.6 12.5a1 1 0 01-.2-.6v-.4l1.5.2v.8l-1 .2zm5.8-.2v-.4l.4-.5.5-.4 1 .6-.2.5-.3.5h-1.2zm3.4 0l-.2-.5.3-.2.2-.3.4.3.3.2v.4l-.3.4h-.6zM490 156l-.3-.6v-.2h.4c.2 0 .4 0 .5.3l.2.3-.2.2-.3.3zm8.8 0l-.2-.3.3-.3.3-.2h1v.9h-.6l-.6.2zm9.3 0l-.2-.3.3-.3.2-.3 1 .4-.2.3v.3l-.9.2zm9.1 0l-.2-.4.1-.2.7-.2h.4l.2.4.1.4h-.2c-.2.4-.7.3-1-.1zm-108.7-.5l-.6-.4.4-.4.4-.3 1.1.6v.4l-.4.5h-.3zm54 .3l-.3-.1v-.8h.5l.6.2.2.6h-.3zm9.1 0a.7.7 0 01-.2-.4v-.2h1.1v.3c-.2.4-.6.6-.9.3zm12 0l-.3-.4.3-.2.2-.3.3.2c.2 0 .3.3.3.5v.4h-.4a.7.7 0 01-.5-.3zm11.8 0l-.2-.4.2-.2.3-.3.4.2.5.2v.7h-1zm6.6 0l-.2-.4.2-.1.1-.2 1 .4-.3.2c-.2.4-.6.4-.8 0zm-262.3-.4l-.3-.4.1-1h1.6l.2.5.3.4-.3.4-.4.4h-1zm3.2 0l-.3-.6v-.4l1-.6.4.4c.3 0 .4.4.4.6v.4l-.5.3c-.6.3-.6.3-1 0zm6.1 0l-.5-.4.3-.5.3-.5 1-.1.6.5.5.6-.5.4c-.7.4-1 .4-1.7 0zm24.3 0l-.4-.4.2-.4.1-.4h.8l.7.7-.4.4c-.4.5-.6.5-1 0zm6 0l-.3-.2.5-1h1l.1.5.1.5-.5.2-.5.3zm6.3 0l-.5-.4.4-.6h1.3l.3.9-.4.2c-.5.3-.6.3-1-.1zm3.4 0l-.2-.2.3-.3.3-.3.8.3v.4l-.2.3-.8.2zm5.4 0l-.3-.4.2-.4.1-.4h1l.4.3.3.4-.2.4v.4h-1zm98.6 0l-.2-.2.3-.3.2-.3.5.2.4.2-.3.3c-.4.5-.7.5-1 .2zm24.5 0h-.3v-.7h.4c.2 0 .4 0 .5.2l.1.2-.2.3v.3zm6.3-.2v-.5h.8v1h-.8zm5.6 0l-.4-.2.5-.2.4-.2.3.3.3.3-.2.3c-.2.3-.5.3-1-.2zm3.2.3c0-.2.2-.3.3-.3.3 0 .2.4 0 .5h-.4zm8.7-.1l-.3-.4.2-.1.6-.2h.5l.3.5-1 .5zm9 0l-.4-.4.5-.2.4-.2.6.5-.8.6zm2.5 0l-.2-.2.3-.3.2-.3 1 .2v.8h-.6l-.5.2zm13 0v-.5l.5.3.4.4h-.8zm8.8 0v-.2h.4c.2 0 .4 0 .5.3l.2.2h-1zm3 0v-.2h.7v.3l-.2.2c-.2 0-.4 0-.4-.2zm-219.4-.2l-.3-.3.3-.5.3-.5h.3c.2 0 .5 0 .6.3l.3.3-.2.5-.3.5h-.3a1 1 0 01-.7-.3zm6 0c-.6-.5-.5-.7 0-1.2l.3-.4.8.3v1.6h-1zm3-.1l-.4-.5.5-.4.4-.4.4.2h.4V155.5l-1.3.2zm2.5 0l-.2-.4.3-.4c.4-.5.8-.5 1.5 0l.5.3-.7.9h-1.3zm37.5 0l-.3-.2.1-.4.2-.3h1l.3.8-.3.2c-.5.3-.6.3-1 0zm3 .2a.9.9 0 01-.2-.5v-.4h.5c.3 0 .6 0 .7.2l.2.2-.3.3c-.4.4-.6.5-.9.2zm3.2 0l-.2-.3.8-.7.3.3.3.3-.2.3c-.2.3-.8.4-1 0zm3.1 0v-.2l.2-.3.5-.4h.2v.8h-.3l-.4.2zm3.2 0a.9.9 0 010-.5v-.4h1v.5c-.2.4-.7.7-1 .4zm3-.1c.1-.2.3-.3.4-.3.2 0 .3 0 .4.3v.3h-.8zm12.4 0l-.2-.3v-.2h.8v.2l-.2.4-.3.2v-.2zm21.4 0a.7.7 0 01-.2-.3v-.3h.6l.5.2v.5H356.4zm9 0l-.2-.3.4-.1.5-.2.2.3v.3c-.3.3-.7.4-.9 0zm8.3-.1v-.4l1.4-.4.2.3.3.3-.2.3v.3h-1.7zm3.7-.1v-.5l.4-.2.3-.1h.2c.3.4.2.7-.4 1l-.5.3zm3.2 0l-.4-.3.6-.6 1 .3-.2.5c0 .2-.2.4-.4.5h-.3zm3.6.3l-.2-.4v-.2h.8v.2c0 .2 0 .3-.2.4l-.2.2zm5.7-.2c0-.3.2-.5.3-.5h.3v.4l.2.5h-.9zm12.1 0v-.5l1 .2v.3l-.6.3h-.4zm3 0l.1-.3h.6v.5h-.4l-.4.2v-.3zm9.2 0v-.4h.8v.8h-.8zm-167.8-.3l-.2-.3.2-.2.3-.1h.3v1h-.3s-.3-.2-.3-.4zm14.8.2l-.2-.2.3-.4.2-.4.6.6-.2.3c-.2.4-.6.4-.7 0zm35.2-.1v-.4l1.1-.2c1.3-.2 1.5-.1 1.2.5v.4l-.8-.3-.6-.3-.9.7zm4.6 0l-.4-.2.2-.3.6-.2h.3v.3c0 .2 0 .5-.2.5l-.2.2zm3-.2v-.4l1-.2v1h-1zm25 .3l.3-.1h.1l.2.3h-1zm12.3 0l.2-.3h.2c.4.4.3.5-.2.5h-.4zm12.2 0l.4-.1h.2l.1.3h-1zm81.5 0l-.2-.3.5-.3.3.4.3.4h-.4zm-182.3-.2a.7.7 0 01-.2-.4v-.2h.8v.7h-.2zm29.5-.1v-.3h.5l-.2.3-.2.2zm-27.5-.7V153.5l.2-.1.8.3v.8h-.8zm-39-.3l-.5-.4V152l.7-.4.7-.4 1.2.5.1.6.2.5-.7.7c-.8.8-1.2.8-1.8.2zm-29-.2l-.5-.4-3-.1-.7.3-.9.3h-.3l-.4-1.2 1.6-1.6.1-1.3.1-1.2-.3-.4-.3-.4.2-.2.2-.3 5.2-.1.3.4.2.4-.8.7v2l.6 1.3.6 1.2-.5.5c-.6.6-1 .6-1.5 0zm-1.5-2.2l.3-.2.2-1 .2-.8-.3-.4-.2-.4-1 .2-.4 1-.3 1 .3.8h.4c.3 0 .7 0 .8-.2zm-117 1.8l-.5-.2-.6-.8-.6-1c0-.4-.7-1.2-1-1.2h-.3v.4l.3 1 .3.4-.6.8-1.5.3-1.4-.3-.6-1 1-1.2-.5-1 .2-1.1V147l-.3-.4-.3-.5v-1.3l.4-.3 1.6-.4 1-.2.5.5.5.5-.2.4-.3 1-.2.9h.6l.6-1-.2-.7v-.6l.2-.4.4-.5 1.8-.3 1.5.6.1.4.2.3-1.2 1.2-1.3 1.2v1.3l1.2 1.8 1.5.7v.4c0 .3-.2.7-.4 1l-.4.7h-.5l-1-.3zM313 153l-.5-.4.4-1c.3-.4.6-1 1-1.1.3-.4 2.1-3 2.6-4.2l1.1-1.7a59.1 59.1 0 004.3-7.4l.5-.6v-2h-1v-1l1.3-1.4h1.3l.5.5.5.6v.8a7 7 0 01-.8 1.7 4 4 0 00-.5 1.2c0 .3-.5 1.2-1.9 3.2l-.5.8c0 .5.8 0 2.6-1.8l3.1-3 1.2-1 .8-.1 2-.6 1-.4.5.2.4.3.2.6.2.7-.4.7c-.2.4-.5.8-.7.8h-.3v-1.3l-.4-.1-.4-.2-1 .6-1.5.6-1.9 1.3-1.8 1.3-1.9 2.2a115.9 115.9 0 01-5.2 5.8l-1.3 1.5-.8 1.5c-1 1.8-1.2 2.2-1.8 2.5l-.5.2zm-239.7-.2c-.3 0-.8-.4-1.2-.7l-.6-.6-.3-2.7.2-1.2.2-1.2 2-1h1.6l.8 1 1 .9-.2 1.6-.2 1.6-.8 1.6-1 .5a5 5 0 01-1 .4zm1.8-3l.2-1-1-1.1h-1l-.7.6v.6c0 .4.1 1 .3 1.3l.3.7 1.7-.2zm27.8 2.5c-.5-.8-.5-1 .4-2l.8-1 .2-.8.1-.8-1-1 .3-.3.3-.2 5.3-.3.7.5-.9 1.5v2.4l1 1v.8l-.4.5c-.6.5-1 .5-1.4 0l-.3-.4h-4v.2c0 .2 0 .3-.3.4l-.4.2zm4.3-3v-1.5H106v.6c0 .3-.3.8-.5 1l-.3.7.4.3 1 .2h.6v-1.4zm40 3l-.2-1v-.4h-.3l-.7.4-.3.5-.4-.2-.5-.2.2-.4.1-.3-.3-.6-.2-.5h-1v.4c0 .3 0 .6.2.8l.3.3-.3.8h-1l-.3-.3-.4-.4V149l.1-2.2-.5-2.3.2-.7.2-.7 1.4-.2v3.3l.4-.6c.6-.7 1-.7 1.8.2.8 1 1 1 1 .5v-.4l.6-.1 1.3-.2h.7v.3c0 .2 0 .5-.3.7l-.3.3v6h-1zm-.4-3.7v-.2l-.3.2.3 1.4.1-.7v-.7zm-1.2-1.3l.4-.3-1.2-.4-.5.2h-.5v.5l.4.8.5.4.2-.4zm45.8 5.4l-.2-.3.2-.5c.1-.2.3-1 .3-1.6V149l-.3-.3-1.5.2-.2-.5-.2-.6.2-.3.1-.2h2v-.3l-.4-.3-.4-.1.4-1h2.6l.2.4.1.2-.4.2h-.4v.9h2.7l-.4.6-.4 1v.5h1l1 .9-.4 1.8-.8.8-4.5.2zm3.8-1.6l.2-.2-.2-.3v-.2l-.9.3-.8.2v.5h1.6zm-.9-2c0-.1 0-.3-.2-.4v-.2l-.8.6.1.2s.3.3.5.3h.4zm4.3 3.5v-.4l.3-1 .5-1v-.7a6 6 0 00-.2-1.6l-.2-.7h1.8l2.8-.2h1l.7.4-.7 1.8v2.6l.6.6-.2.3v.3h-1c-.5 0-1 0-1.3-.2l-.5-.1v-.3l.4-.7.3-.3v-2.3l-.7-.3-1 .5-.4 2.2.2.4.3.3-.4.4-.3.4h-1.8zm10.2.2l-1-.1v-1l.5-.3v-3l-.6.4-.7.2-1-1.4.5-.7h3.8l.4.2.3.2-.4.5a2 2 0 00-.4 1v.3l1.4-.3 2 .9.1 1 .3 1-1.6 1.3h-1.3zm2.7-1.7v-.2H210l.2.2.1.3h1.3zm-54.6 1.4c-.5 0-1-.2-1.2-.4l-.3-.2.3-.3.2-.8v-.5l-.3-.1-.4-.2-1.9 1.3v1l-2 .2v-5.2h2.1v.4l-.3 1.3v.8h.2c.2 0 .8-.2 1.2-.5l.8-.5v-.3l.1-.4-2.6-2v-1h.2l1.4-.2h1.2l.4.3.3.4-1 1 .4.2.3.2.6-.5.7-.4.6.5V151.4l.3.2.4.2v.7l-.4.2H157zm11.2 0c-.3-.2-.7-.7-1-1.2l-.6-1v-2l1.5-1.4 1.8-.5 2.6 1.4.3 1 .3 1-.2.6-.2.7-.8.8-.8.8h-2.5zm2.2-1.5l.5-.2v-2l-.7-.4-.7-.3-.9.6-.5 1.4.6.5c.7.6 1 .6 1.7.4zm-91.8 1.2l-.6-.2V151h.5l.1-1 .2-1-.6-1.1-.6-1.1.5-.6h3.3l.3.3v2h.8v-2l.6-.6h3l.3.4.3.4v.4l-.5.4h-.3v3l.5.5.4.5-.2.4v.4H85l-1.3-.1.2-3.2-.3.3-.8 1.5-.4 1-.9.3-.5-1.2c-.3-.7-.6-1.3-.8-1.4l-.3-.1v1.3l.7 1-.3.3-.8.4H79zm11 0c-.4 0-.8-.2-1-.4l-.5-.4-.3-1-.3-1 .1-1.3.2-1.2 1-.7.8-.6H91l1 .4 1 .5.5 1.3-.5.7-.4.8.3.8.3.7-.4.5a5 5 0 01-2.5 1 8 8 0 01-.8 0zm1.8-2l.1-.4-.7-.3-1.5.6.2.3.2.2 1.6-.1zm-1-1.7l.6-.6v-.2h-.5c-.3 0-.7 0-1 .2H89v.9h.3zm85.3 3.7l-.6-.3.8-1.6v-2h-.4l-.7.3-.4.2-1-1.4 1-.8 5-.3.3.3c.6.5.5 1 0 1.7l-.6.6-.5-.3-.6-.4v2.7l.6 1-.7.3c-.9.3-1.4.3-2.2 0zm-81.2-.4v-.4l.7-1.2V148l-.8-.3v-.7l1.8-1.7.8.3v2.3l.6.4 1-.5.1-1 .3-.7 1-.5.7-.6.4.4.4.4-.3 4.6.4.6.3.7-.4.2-.4.3h-1.8l-.8-.5.5-.7.5-.7-.4-.4-.3-.3h-.4a2 2 0 00-1 .3l-.5.4.7 1.3v.3l-.3.3h-2.7zm18 0l-.6-.1-.8-1.3.3-1 .4-1v-1l-.3-.7 1-.6.8-.5h.6l1.5.3 1 .4.3.8.5.7v2.2l1.3 1.3 1-.6.1-2.8-.3-.3c-.4-.4-.4-.6.6-1.4l1-.7.4.4.4.3-.2.8-.2.7.6.7 2-.2v-.3l-.5-.4-.4-.1v-.6l1-.8 1-.7h.3l.5.2v1.8l-.8.7.3.3.3.3v1l.6.9.5.8-.8.7-1.5-.5v-1l-.2-1-1.2.3-1.4.2h-.2l.8 1.2-.6.7h-2l-.6-.2-.6-.3-.3.2-.3.3-4.7.3zm3-1.8c.3-.6.1-.7-1.3-.5h-1.3v.8l1 .5 1.2-.3zm-.4-2.2v-.4h-2v.8h2.2zm22.2 4.2l-1-.1-.3-.3a4 4 0 01-.8-1.2l-.4-1 .4-2.5 1-.7.7-.6 2.5.6.4.5.4 1v.6l-2.5 1-.8-.8.7-.3c.8-.4 1-.6.3-1h-.4l-1 .9v1l.1.8 1.5.8 1.8-1 .8.4v.8h-.2c-.2 0-.6.3-1 .6l-.7.7h-.3zm-8-.6l-.3-.2.6-1.1v-2h-.8l-1-.2-.3-.2v-1.3l.6-.2h5.6v.5l.1.4-.8 1-.5-.2-.5-.1-.3.2-.4.2v1.9l.7.8v.4l-.3.4h-2.3zm191.5-1l-.7-.8v-.5c0-.3 0-1-.3-1.3l-.3-.6.5-.6.4-.5h1.2l.6.6v3.2l1 .2v.8l-.4.2a2 2 0 01-1 .3h-.4zM61.5 150v-.4h.3l.2.3v.2c-.3.4-.5.3-.5-.1zm342.8-.3l-.2-1v-.4l.7-.3.6-.3.4.3.5.3v1l-.5.4-.5.4h-.8zm17.5-.2l-.5-.7v-1.3l.5-1 .7-1.4 1.2-2 .8-1.5.8-.7.8-.6v-.6l1.6-1.6 1.6-1.6 1.6.4a6 6 0 012.2.6l.4.2-.4.5-.5.6v1.2l-.6.6-1.3 1.8-.8 1.2-2.8 2.3-.6-.2 2.6-2.3 1-1.7 1.2-1.8.2-1 .1-1.2h-.3l-.3-.2-1 .4-.9.4-1.2 1-1 1.4c0 .3-.4.7-2 2.9l-1.4 2.5-.6 1.4v1.3h1.7l1-.6 2-.8.6-.2.3-1 1-.3 1.8-2.7 1.7-1.3.8.3v.8l-1 .8-1.2 1.4c0 .3-.5 1.3-.8 2l-.7 1.7h-1v-1.4h-.5c-.2 0-.5 0-.6.4-.2.2-1.2.8-2.3 1.3l-2 1h-1.5zm16.4 0c-.6-.7-.6-1 0-2.3l.6-1 1-1 1.1-1 1.5.2v1.3l-.5.2-.9.5c-.2 0-.5.4-.6.6l-.5 1-.3.6.2.3 1.7-1 1.6-.7.3.3.3.2-.6.4c-.8.6-3.7 2-4 2h-.5zm46.3 0l-.4-.5.2-.4.3-.3h1.3l.2.4.1.4-.2.5-.7.5h-.4zm49.2-.4l-.4-.8v-.3l.4-.2.5-.3 1.7.7v.8l-.5.3-.9.3h-.4zm-89.3-7.2c0-.1 0-.2.2-.2s.3 0 .3.2 0 .3-.3.3c-.2 0-.2-.1-.2-.3zm96.4-.1v-.4l.7-.7c.8-.6 1.4-.8 1.6-.4l.2.2-.9.7-1 .8-.4.2zM63 139.3l.4-.2.6.3h-1.3zm312.4-7.2l-.4-.1v-1l1.2-1.3c2.3-2.8 3.6-4.5 4-5.6.3-.8.8-1.5 2-2.7a15 15 0 002-2.3 94 94 0 015.8-9l1.2-1.8c.4-.5.8-1.4.6-1.4-.3 0-1.6.8-2 1.2-.6.8-4.7 3.2-6 3.6l-.9.2-1-.5v-1.6l.3-.7.3-.6-.4-.4-.3-.4-1.8 1-2 1h-.3v-.6l.6-.5 2.6-1.6 2-1 .6.2.8.5.3.4-.5 1.2c-.3.6-.6 1.3-.6 1.6v.6h1l1-.2.5-.5c.7-.6 1.8-1.4 3.7-2.4l1-.5v-.5l1-.6 1-.5.6-1 1-1.4a52 52 0 003.1-5 59.2 59.2 0 014-6.2l1.2-2 .7-1 1.1-.6h.2c.2 0 .5.8.7 1.5l.5 1.2-.4.8a10 10 0 01-1.2 1.9 33.7 33.7 0 00-4.2 5.7l-.4.8h-.4l-.3.8-.3.7-1 .4-.6.8-1 1.5a94.3 94.3 0 00-4.7 7 8 8 0 00-1 1.7l-.4 1-2.2 2.3-.8 1.7-.7 1.6-1.5 1.6c-.8 1-1.5 1.8-1.5 2 0 .2-.5 1-1.2 1.8l-2.3 2.6-1 1.3v1.5l-1.4 1a9 9 0 01-1.5 1zm-231.7-.3l-1.4-.3H122l-.3-.2c-.5-.5-.5-.5.3-1l.8-.3h9.6c11.6.2 10.6.2 11.4 0h1v-1.5l1 .2c1.2.3 1.6.6 2.1 1.5l.5.8h6l.2.5-.6.3-9 .2zm391.5-2.3v-.3l.7-1.3a44.5 44.5 0 002.3-3.6l.6-1 1.5-.6.2-1 .1-1 1-1a193 193 0 018.3-8.4l1.7-1.6-.8-.2-.7-.2-1.3.5h-5l-1-.5-.3-1 .2-1 .2-1 1.3-1.5c.7-.7 1.2-1.5 1.1-1.5 0-.2-3.8-.7-5-.7H539l-.5.6a47 47 0 01-12.5 9.2l-.6.5-.7.2c-.4 0-1 .4-1.5.7l-.8.6-1.4-.5v-.4l-.2-.5.5-1.2a8 8 0 00.6-1.4l1-1.1 2.5-2.2 2.7-2.2 1.5-1 .6.4.7.3v.8l-.6.7c-.7.8-4 3.2-4.4 3.2-.2 0-.7.4-1.2.8l-1 .9v1h.3c.5 0 2-.8 3-1.4l1.8-1.1 1-.4 3.2-3.3h.8l1.3-1.3a18 18 0 011.5-1.4c.1 0 .6-.4 1-1l.8-.8-1.8-1.8v-4l.5-1c.7-1.1 2.3-3 3.4-3.5l.8-.5h1.4l1.7 1.9v2l-.7 1.3-1 1.7-1 1.7-.8 1.3 1.1 1.2 3 .3 3.3-.6 1 .6v1l-1 .7-2.4 2-1.2 1.3-.2.5-.2.6.3.4.4.3h3.3l1-.4 1.6-.4c.3 0 1 0 1.2-.2l1.8-.4 1.2-.2 1.2-1 1.1-1 .5.7.5.6v1l-2.5 2.4h-1.4l-2.2 2.2v1l-2 1.8h-.9l-1.3 1.3-1.5 1.4-2.2 2.4-2 2.2-1.5 1v.3c0 .6-1 2.2-2.6 4.2-1.7 2.2-2.7 2.8-3 2zm5.5-31.3c.6-.8 1-1.7 1-2l.4-1 .4-.7-.2-.8v-1l-.9-.2-.2.4-.2.3.1.5.2.6-.6-.2-.5-.1-.3.2-.8 1.2-.6 1.2v.7l.3 1.6.3.8h.6zm-103.2 27.2l-.4-.2.2-.6c0-.4.7-1.5 1.4-2.5l1.2-1.8v-1.4l1-.5.8-.5 1-1.5 1-1.4h.3c.2 0 .4 0 .5.3l.2.3-.5.4-.4.5v.5l-.4 1.2a3 3 0 00-.4 1v.2h.7v.5l-1.2-.2-.4.8-.8 1c-.5.4-1.5 2.3-1.7 3.2l-.2.7-1.5.2-.4-.3zm-142-3.6a4 4 0 01-.9-1.3v-.3l.8-.3.5-1.4 1.2.2v1.6l.7 1.2-.6.6c-.3.4-.7.7-.8.7l-1-1zm-109 0v-2.6l.1-.3c.1-.1.5-.4 1-.5l.6-.4.3-1.1.2-1.1.1-3.1v-3.1l-.4-.5c-.5-.6-.5-1 0-1.3l.2-.2 5.5-.4.5.3c.6.4.6.7 0 1.8-.4 1-.4 1-.6 5.3l-.2 3.2 1.4.8.3.8.4.7v1.3l-.4.4c-.2.3-.5.4-.7.4h-.2l-.6-1.3-.5-1.3-.6-.2h-4.5l-.9 2.7-.8.2zm5.2-8v-4.5l-.8-.6-.4.3-.4.3v3.2a63 63 0 01-.4 4.5l-.2 1.3h2.2zm121 7.7v-.4l1-.2-.2 1h-1zm-46-.4l-.4-.6-1.7-1-6.6.3-2.6 1.8-.3-.4-.6-1v-.8l.4-.7.6-.7 1.4-.1 1-3.5-.3-1 .5-1.6.5-2.2v-.5l-1-.6-.9-.6.2-.5.4-1 .2-.1 5.6.7 3.6-.4 1 1-1 .8-1 .8v8l.1.7.2.6h1l1.4 1.7v.4c0 .5-.5 1-.9 1-.2 0-.5-.2-.7-.5zm-3.7-3.2l.3-.3v-4l.1-4-.3-1-.3-.8h-2.3l-.2.8c-.4 1-.6 2-.9 5l-.2 2.7-.3.6-.4.7.3.4.3.3 3.6-.2zm233 2.8c-.9-.7-1-1-.4-1.3.6-.2.6-.2 1 .6.8 1.5.5 1.7-.7.7zm5.1-.3V119.5h1v.7l-.4.2h-.4zm8.6-.4l-.6-.4 1.2-.4.4.3c.4.4.4.7 0 .9h-.4zm2.8.3l-.2-.3.7-.8 1 .2v1l-1.3.2zm6 0v-.3l.2-.3.2-.3 1 .4-.2.3v.3l-.9.2zm8.5-.3v-.6h.3l.3-.2 1 .7-.4.6H527zm-75.4-.3l.6-1 .3-.3.6.3v.9l-.5.3-.8.4h-.3zm19.8.3l-.3-.3V118l.8-1 1.4-2.5a7 7 0 011-1.6l.5-.4.5.3.6.4.7-.8a18 18 0 001.6-2l1-1.3 1-1c.2-.6 1-1.7 1.5-2.3 2-2.4 2.3-3 2.7-3.7l.5-1h.5l.3-.6c.5-1 2-3.4 3.2-4.8 2-2.3 2-2.5 2.8-4l1.5-2.2.6-1h-.2l-.2-.2-1.3 1.3c-2.4 2-5.5 6-6.9 8.6-.4.7-1 1.8-1.5 2.4l-1.6 2.4a7 7 0 01-1 1.5l-1.3 1.8-2.3 3.6-1.4 2.2h-.5v-.5c0-.8.5-2 1.2-2.7l.6-.8v-1l2.7-3.2.1-.7.2-.6.4-.1.3-.2v-.7l.8-.8c.5-.4.8-.8.8-1a22 22 0 012.6-4l.7-1.1.5-1.2 2.3-2.4v-.7l.6-.4a45 45 0 004.4-4l1.5-1.2 1.4-.7 3-1.5 1.3-.7 2.5.2 2.6 1.4.7.6.6.7.3 2-1.4 2.8-2.3 2 .5.5.5.4v.4l-.3.4h-2l-.6.6a54 54 0 01-4.7 3l-1.3.7-3.3.7-.4-.1-.4-.2v-1.1l.3-.2 1.3-.2 1.2-.1 4.2-2.2 2-2c1.2-1 2.1-2 2.1-2.2 0-.2.3-.6.7-1.2l.7-1 .1-3.1-.7-.6h-2.7l-.4.4a4 4 0 01-1.3.6l-.8.2-2 1.5v.4l-1.6 3-1.7 2.5-.8.8c-1 1-2.5 3-2.5 3.4 0 0-.5 1-1.2 1.8l-2.3 3a52.8 52.8 0 01-3.9 5.4 1595.2 1595.2 0 00-6.8 8.6 15.8 15.8 0 00-2.7 4v.2l-.7.2c-.8.3-.7.3-1 0zm14.6 0l-.4-.4.1-.3.2-.2 2.2.3v1h-1.6zm3.4-.1l-.4-.4 1-.3h.3l.4.3-.2.7h-.8zm3.1 0v-.4h.8v.8h-.8zm6 0v-.5h.8v.7l-1 .2zm8.3 0l.5-.4.4-.2.7.2v.8h-1.6zm17.8 0c0-.1.2-.3.4-.3l.3-.2v.9h-.8zm-242.7-.3l-.4-.4.4-.5.3-.5v-1.6l-.4-.4-.5-.4h-1.7l-.2.4v1.7l.3.4.4.4v.4l-.3.4h-2.2l-.2-.3-.2-.4v-.5c.2-.3.3-1.2.3-2.1l.1-1.6-.2-1.4-.2-1.4.8-.8h1.5l.3.4.4.5-1 1.5v1l1 .6h1.7v-2.1l-.3-1.2 1.7-.7 1 .6-.2.6-.2.5v2.7l.1 2.6.3.3.3.7v.5h-.8l-1.2.4h-.4zm41.5-.1a6 6 0 01-1.4-1l-.5-.6v-1.6l-.2-1.6.3-1 .3-1 2.1-1.4h1l1.8.9 1 .7.4.8.4.8-.3.5-.3.4-4.4-.2-.3.4-.4.3v1.2l1 1.3h2l.7-.4.7-.5.5.2.4.2v.7L326 120h-1.5zm2.7-5.4c0-.5-.7-1.2-1.5-1.4l-.7-.2-.4.5-.4.4.3.8h.6l1.4.2h.7zm88.2 5.4l-.4-.5.2-.3.1-.3h1.3l.1.5.2.7v.4h-1zm34.6.3l-.4-.3.2-.4.2-.4h1v1l-.7.3zm8.8-.2l-.2-.3.2-.3.2-.3.8.3v.7l-.9.3zm17.3.2l-.2-.1.3-.4.3-.3 1 .5-.2.3v.2h-.6c-.2 0-.5 0-.6-.2zm2.6 0l-.2-.4.6-.6.4.3.4.5v.3l-1 .2zm3-.2v-.4l.6-.2.6-.2.5.4-.4.4-.3.4h-1zm3.2-.2l-.6-.8-.3-.1.6-.6 1 .8 1 .9-.4.2-.7.2h-.3zm20.5.4l-.2-.3h.6v.5zm-331-.3c-.3 0-.8-.3-1-.5l-.7-.4-.7-1.3-.6-1.2v-5.2l1.4-3.1 2-1.1 2 1 1-.6.3.3c.4.4.5.6.4 2.5v1.3l-.5.6-.5.7-.6-1.3-.5-1.4-.6-1-.7-.5-1 .6-.3.6v7.6l.5 1h1l2-2v-1.5l.2-.4h.7v1.3l-.5 1.4c-.7 1.7-1 2.2-2 2.5l-.8.3zm96.7-.2l-1-1-.3-.3v-1.4l1.2-1.3 3-1v-1.8l-1.7-.2-.7 1.4h-1l-.3-.8.1-.7.2-.6.3-.1 1.3-.6 1-.4 2.2 1 .6 1.2v4.3l1 1.7-.9.8h-1l-1-1-2.4 1.2zm3-2.8v-1h-1l-.8.7-.7.6v.9l1.2.4 1-.7zm14.3 2.4l-.9-1-.4-1.5.2-1.6c.1-1 .3-2 .5-2.2l.3-.5 1.7-1h1.7l.7.3 2 1.6 1.1 1.2-.2 1v1.2l-1.2 1v1l-.2.9-.6.2-2.3.2h-1.6zm3.2-.7l1-.6V116l.2-1.5-1-2-1.4-.4-.6.7-.6.7-.2 1.8-.2 1.8.8.8c1 .8 1 .8 2 .2zm21.2 1.3l-.8-.2-1.2-1.2-.5-1.3-.6-1.2.4-1.3.4-1.3 1-1 1-1h1.4l2 .8.3.7.5.6-.2 1h-1l-.9-.7-1-.8h-.7l-.2.5a8 8 0 00-.4 1.8l-.2 1.4.6 1.8.8.2h.8l1-.3.8-.4.2.2h.3l-.3.7-.3.5-.9.4c-1 .4-1.2.4-2.3 0zm5.5-.1l-.7-.3.5-.4.4-.3v-5.7l-.4-.3-.3-.3.4-.3 1-.2h.5l.3.3.4.4v6.4l.2.5-.5.3c-.7.3-1 .3-1.8-.1zm106 0l-.3-.2.2-.2c0-.2.3-.3.5-.3h.4v1h-.4c-.2 0-.4 0-.5-.2zm6 0l-.2-.5.1-.1.2-.2.3.3.3.3-.6.6zm8.6 0l-.3-.4.3-.2.3-.2.6.6-.3.3-.3.3zm25.5 0l-.2-.2.3-.4.3-.3h.4l.4.3v1h-1zm3-.1l.2-.5h.8l.1 1h-1zm2.7 0v-.3h.8v.8h-.8zm-80.7 0l-.4-.3.2-.3.6-.3h.4v.4l-.2.5-.2.2zm14.4 0a.9.9 0 010-.5v-.4h1v1h-1zm3 0l-.2-.3.3-.3.4-.2.3.2.4.2-.2.3c-.2.3-.9.4-1 0zm5.6-.2v-.3l.8-.3.1.2.2.3-.2.2c0 .2-.3.3-.5.3h-.4zm5.7.2v-.2l.1-.4.2-.3 1 .2v.8h-1zm9 0l-.2-.3.3-.2.3-.2.2.2.1.2-.2.3-.3.2zm5.8 0l-.2-.3.8-.3.6.3v.2c-.4.4-1 .4-1.2 0zm-282.6-.4l-.4-.3v-1.4l1-1 1.4.7.3 1-.7.7c-.8.7-1.2.8-1.6.3zm29.7 0l-.4-.2v-1l.5-.5.6-.5.4.3.5.3v1.2l-1 .7zm17.7-.2c-.5-.5-.5-1.1 0-1.5l.2-.4h1.2l.4.6.5.5-.3.5c-.3.5-.8.8-1.3.8zm142.3 0l-.2-.3.4-.4.4-.4.4.2.5.2v1h-.4c-.7.3-1 .3-1-.2zm6 0v-.3l.4-.5.3.4.4.3-.8.7zm2.6-.1v-.7h1l.2.4.1.3-.3.3a1 1 0 01-.6.3h-.4zm20.4.2l-.3-.4 1-.3.2.3.2.3v.2c-.4.4-.7.4-1 0zm5.7.2v-.2l.6-.7.3.2.3.2-.3.4c-.3.4-.7.4-.9 0zm6-.1v-.5h.8v.3c0 .2-.4.4-.5.5h-.3zm14.2 0v-.4l.4-.1.3-.2.4.2.3.2-.2.3v.3h-1zm15 0l.4-.2c.1 0 .3 0 .3.3v.2h-.9zm-249-.2l-1.6-.1V117l.1-3.2v-1.6l-.4-.5.1-.3.2-.3 1.6-.3.4.2.4.3-.3.9c-.2.4-.3 1.2-.3 1.7v.8l.5-.2.5-.3.6-1.8v-1.2l2-.5.6.8-.3.6-.3.5.2 2.2.2 3v1h-1.3l-2.9-.1zm1.7-1.4l.3-.3v-2.3h-.8l-.2.4v.4h-.9l-.2.7-.3.7.6.7h1.2zm180 1.3v-.5l.6-.4.5.2.5.3v.3l-.2.3-1.2.2zm8.8 0v-.1l.3-.3.4-.3h.2c.2.2.3.5.3.7v.4h-1zm3 0c0-.2.2-.5.4-.6l.3-.4h.5c.5 0 .5 0 .2.9l-.3.5h-1zm3-.1v-.4l.2-.3.3-.3.4.5.5.4-.2.3-.6.3h-.4zm3 .2v-.2l.1-.2.3-.2.5.4v.2c0 .2-.4.3-.5.3zm2.6 0l.1-.4h.4l.5-.2v.9h-1zm3.4-.1v-.5l1 .2v.3l-.6.3h-.4zm11.2 0l-.2-.2.4-.1.4-.2.6.4v.2c-.3.3-1 .3-1 0zm6 0s0-.2.2-.2.3.2.3.3c0 0 0 .3-.3.3-.2 0-.2-.2-.2-.3zm17.4 0l.3-.3.6.7h-1.2zm-317.6-.2l-.5-.4.2-.7.2-.7 1-.2-.2-.8-.2-.7v-1l.2-3v-2.1l-.6-.8v-.6l.2-.6 1-.2 1-.3 1.3.2c1.7.2 1.8.2 3.3 0l1.4-.2.2.4.2.5-1 1v8.8l1 .5v.7l-.6.2-1.6.3h-1.2l-.4-.3-.4-.4 1.2-1.2v-8.5l-.4-.3-.2-.3h-1.2l-.9.8.1 4.2v4.2l1 1-.2.4-.2.2-1.6.2h-1.6l-.5-.2zm44.6-1l-1-1.4v-1.5l-.4-.7-.3-.7.6-1-.5-.3v-.7c0-1 .7-3 1.3-3.6a4 4 0 012.4-1.2h.5l.3.4.4.4 1.6-.3.3.5.3.5v1.5l-.3 1.5h-.7l-1.8-3-1.3-.2-.8 1.7.2 7 .5 1h1.8l.4.7-1 .7H128zm-34.9.9c-.5-.2-.4-.7.3-1.4l.6-.6v-7.6l-.5-1.1-.6-.3-.7-.3.6-.6 6.7.2.6.7v1.3l-.2 1.6v.3h-.4l-.2-.6-.2-.7-.7-.8-.7-.8H95v1.9l-.2 1.8 1.2-.1.1-.6.2-1 .2-.2.8.6-.2 4.9h-.5l-.4-1.7-.8-.6-.8.9.2 1.6c0 .9.2 1.7.3 1.8v.3l.8-.2c1-.3 1.4-.7 1.8-1.7l.4-1 1 .3v3l-1.2.5h-5.8zm17.1 0v-10.1l-.9-1.1.6-.6 2.3-.3 1.2.3 1.2.3 2.3 2.4v1l-.3 1-1.8 1.6-1 .2-1.3.3h-.3l-.2 1-.2 1 .8 1.7.8.4v.7l-.4.2h-2.6v-.1zm4-8.3v-1.7l-.9-.4-.8-.4-.9 1 .2 1.8.1 1.7.6.3 1.6-.7zm4.2 8.2h-.5v-.6l-.3-.5.6-1h1l.3.3.3.7v.5l-1 .7zm-15.5-.4v-.4l.3-.5.4-.5v-7.1l-.4-1.6-.8-.1-.4.7-.5.8v1.4h-.8l.1-.6.2-2v-1.3l6.4-.4.7.7v3.6h-.2l-.3.3-.2-.6-.6-1.5-.3-.8-.4-.2-.4-.1-.2.3-.2.3.1 4 .1 4.2.7.6.6.5-.3.3-.3.4h-3zm2.8-10.6l-.2-.2h-.3l-.4.3h1zm29.5 10.4v-.4l.2-.7.2-.7h1l.6.6v1l-.5.2a2 2 0 01-1 .3h-.3zm10 0l-.3-1v-.8l-.5-.3V109l-1-2 .2-.5h3.6l.4.3.5.5v.3l-1.4-.4.2.3c0 .2.5.5 1 .7l1 .5.3 1 .3 1-.2.7c0 .3-.4.9-.7 1.2l-.5.7-.9-1a6 6 0 00-1-.7v3.6h.4c2 0 2.4.3 2.6 1v.5h-1v1.2h-2.9zm2-8l-.5-1.1-.4-.7-.2.9v.8l.2.4c.1.2.4.3.5.3h.2zm218.2 6.9l-.9-.2-.4-.6-.7-1.8-.3-1.3.4-1c.3-.5.6-1.6.8-2.3l.3-1.3.5-.7 1.4-2.4c.5-1 1-2 1.3-2l.4-.4h.5l.4.2v1.5l-.6.7-1.5 2.5-.9 1.8.5.2h.6l-.8 1-.8 1v3.3l.4.3.4.3 1-.1 1-.2v.3l.2.3-1.5 1.2h-.4zm-233.2-1v-1l.5-.6h.4l.4.3v.8c-.3 1-.7 1.6-1 1.6h-.3v-1zm237.3-1v-.3h.3l.3.5c0 .2 0 .3-.3.3h-.3zm76.8.3l1.2-2.6 1.2-2.4v-.6l-.3-.7.3-.4.2-.5 1.3-.7 2.3-1.4 1-.8h1.6l.6 1-2 1.9-2 1.9-.3 1.6-.4.2-1 .6-.9.3-.4.7-.3.7-1 .7c-.9.7-1 .8-1 .5zm52.3 0a3 3 0 01-1-1l-.6-.7-2.9.3.2-1h1a6 6 0 001.7-.5l.6-.4v-1.2l.3-.2.8-1.3.5-1.1 1.7-1.7 1.7-1.6h.8l1.4.8.6.5-.2 1.7-.6 1.2-.7 1-1.4 1-1.4 1.2h-.3c-.3 0-.7.2-1 .4l-.6.4v1.2l.3.3.3.3-.2.3c-.2.3-.3.3-1 0zm3-4.3c.4-.2 1-1 1.5-1.8l1-1.4-.3-.7v-.6h-.5l-.8.4-.6.4-1 1.8c-1.2 2-1.4 2.3-.8 2.5.4 0 1 0 1.6-.6zm-93 3.3l-.7-.7.1-.4.3-1.2.2-.7-.8-.3-1.4.6-1.3.7-.8 1-1.5-.2-.7.3-.8.3-.8-.8-.7-.7.1-1 .1-1 .8-1.4.7-1.5 2.3-2h2.5l.2.5.2.3v.8l-.3.7-.6.6-.7.7v1l-.9.5-1 .6h-.3l.2-.8.2-.7-.4-.3-.4-.4-.3.5a7 7 0 00-.4 1.6l-.2 1.2h1.7l4.6-2 .5-.4c.3-.3 1-.6 1.4-.8l1-.4.2-.7.4-.7 1.7-1c1-.5 2-1.2 2.1-1.4l.5-.5h4l.1.5.1.5-.7 1.2-1 1.8-.5.5.5-.2 2.1-.4 1.7-.2 1.2-.8 1.7-.4 1.8-.6c.1 0 .4 0 .7.2l.5.2v1.5l-.5 1.2-.4 1.3h.1l.2.3 1.2-.8 1.4-1 .6-.3a5 5 0 011.5-1 5 5 0 001.4-.8l.3-.4h1.3l.2.4.1.5-.4.7c-.3.3-.6 1-.8 1.5l-.4.8.1.4.2.5h1.6l2-.7 1.8-.7 1.2-1.1v-1l2-1.7 1-.4c1.2-.3 2.3-.4 2.6-.1l.1.2-.4.9-.4.9-1 .5-1.4.5c-.2 0-.6.3-1 .6l-.5.7.2.4.1.4 1.3.4.7-.2.6-.1.2.2.1.2-.8.4-.8.5h-1.3l-1.3-.6-1.2-.6-2.5.9-3 .8h-.6l-.7-.6-.6-.5v-2.4h-.2l-1 .5-3 1.6-2.2 1-1 .9-1 .8h-1v-.4c0-.4 1.4-2.2 2-2.7l.6-.4.6-2-.3-.4-.3-.3-2.2.6-3 .9-1.8.2h-1l-1.5 1.3a36.6 36.6 0 01-5.5 3.8l-.9.5zm4.2-2.5l2-1.7 1-1-.4-.7-.2-.7-.5-.2-.4-.3-.6.5a6 6 0 01-1 .8l-.7.2-2.2 3-.3.8-.2.7.6.4 1-.5 2-1.3zm5-5.2l.5-1-.2-.3v-.4h-1.6v2.7h.6zm93.6 7.7l-.9-.5-.3-1a5 5 0 01-.4-1.4v-.7l.4-.7 1.6-2 1-1.4 3.5-1.7h2.7l.4.6.4 1v.5l-1 .8-2.9 1.7-1.6.8-.2-.2v-.1l.2-1.1h1l2.4-1.6v-.6l-.8-.3-2.4.7-.6.7-1.6 1.6-.9 1-.2.8v.8l.1.5.3.6.6.2c.4 0 .8.3 1 .4l.3.3-.3.3c-.4.5-.7.5-1.8 0zm-140.3-.3l2.8-3a53 53 0 003.8-4.2l1.1-1.5-.5-.4-.5-.5-1.4-.2-1.3-.1-1 .8-1.4.8h-.2v-.4c0-.2 0-.4.2-.5l.3-.2v-1h-1.3l-4-2.7-.7-1.4-.6-1.3V97l.5-1.7.4-1.3 1-1.3 2.1-2.2 1-1 2-1 2.7-1.2c.6-.3 1.3-.3 2.8 0h1l1-.7 2 .6.8 1.4c.4.7.7 1.5.7 1.8v.4h.3l.8-.4.4-.4h.4l.4.3v1.8l-1 .8-1 .8-.3 1.4-.4 1.4-1 2.5-1.7 3-.5.5h-.7v-1l.6-.5c.3-.3.5-.6.5-.8l.8-2 .8-1.8v-.3h-.7l-2.3 2.3a26.7 26.7 0 00-2.5 3l-.4.5.6.6.5.5h1.2l1.6 1.3-1 1.2c-2.6 3-6.4 7-7.2 7.5-1 .6-1.5.7-1.5.4zm6.7-14.2l3-2.8v-.8h-.4l-1 .8-.7.8h-.3l-.4-.2a7 7 0 011.8-2c.1 0 1-.6 1.7-1.4l1.5-1.4v-1.4l-.6-1.1-.7-1.1-.5-.2-.4-.1h-1.5a10 10 0 00-4.5 1.3l-1.5.8-1.6 1.6-1.6 1.6-.7 1.3-.7 1.4.3 1.5.4 1.4.5.6.6.6 1.8.8 2.3.8h.4l2.8-2.7zm-1.6-.5l.1-.3 1-.2-.3.4-.6.4h-.3zm113.6 14.5l-.2-.4.1-.2 1.8-.2 1.6-.1v.9h-.8l-1.5.3h-.9zm25.8-.1v-.3l1.2-.6 1.7-.5h.5v.5l-.7.4-1.7.6-1 .2zm-317-.8l-.5-.5.3-.6c.1-.3.4-.5.5-.5h.5l.3.5.2.7-.3.4c-.3.6-.5.6-1 0zm321-.6l-.3-.2.6-.4 1.4-.6.7-.2v.8l-1 .4c-1 .5-1.3.6-1.5.2zm-201-3l-.4-.4.3-.7.3-.7 1.1.2.4.6.3.7-.4.5-.5.4h-1zm49 0v-.2l.2-.1c.7-.3.7 0 .2.4l-.6.3zm1.1-.7l-.2-.2.5-.4 1.2-.8.7-.4v.2c0 .2-1.7 1.9-2 1.9 0 0-.2-.1-.2-.3zm-223.8-8.7l-.4-.3H141v-.7l.7-.6 1-.5h.5l-.2-.7h-1.3l-.7-3.7.3-.8h1l.4.5v2.9l.6.3.2-.3.2-.4v-1.2l-.5-2.7c-.3-1.6-.3-1.8.3-1.5h.4l.4 1.2.5 1.4.3 1.2.2.9-.6.7v1l.1 1-.3.6-.3.5.5.3.4.2v1h-.6l-.8-.1zm3-2.3l-.3-.1v-5.6l-.3-.4-.2-.4.3-.2 1.1-.2h1l.2.5-.4.8-.4.8.1.7.2.7 1.5-1.5V91l-.2-.1-.3-.2.3-.5h2.6l.6.8-.3.4-.3.3v4.9l.2.6h-2.7l-.4-.1.2-.5c.2-.2.3-1 .4-1.7l.2-1.2h-.5l-1 1.7v1.8h-1.6zm-12.3-.8c-.3 0-.5-.2-.5-.2v-4.6l-.4-1-.3-.8.5-.5 5.5.2v1l-.2 2.3v1.5l.2 1 .2 1.2-1.4.3-1-.3.1-.6.3-2.6.1-2-.9-1-.8.3v6h-1.4zm7-15.5l-.3-.3 1-1.4 1 1-.5 1h-1.2zm2-2l-.2-.3H142l.5-.4.4-.5h1.5c.2.4-.2 1-.6 1.2l-.3.2zm1.7-3l-.6-.3.1-.5.1-.5h-1V74c-.2-.2-.2-.8-.2-1.3v-1l.3-.1.3-.2v.3c.1.2.3.3.4.3h.2l.4-1a6 6 0 00.5-1.7l.4-1.7.4-1.1h1c1 .4 1.1.5 1 .9l.2.8.2.5-.2.4-.3.4h-.5c-.3 0-.7.3-.9.5l-.3.3.2 2.3.1 2.3-.3.5-.3.6h-.3l-1-.3zm6.8-.1l-.8-.4-.7-1-.7-1v-2.6l.4-.8.6-1.2.2-.5 1.3-.6 2 .4 1.4 1 .4 1.3.5 1.3-.7.8h-2l-.7-.3-.7-.3-.3.3-.2.2.3.7.2.7h1.2l1.5-1 1 1.3-.2.5-1 1-.5.4-1.8.2zm1.3-5.6v-.2H152v.8h1.3zm10.7 5.3l-.5-.6v-.6l.2-.6 1.4-1.5h1v-.2l-.3-1.2-.3-1-.7-.6-.7-.6.2-.3.2-.3h2.6l.4 1 .4 1 3 1.3.4.6.5.6v.4l-.3.8-.2.5-.2-.3c0-.1-.6-.5-1.2-.7l-1.2-.8-.2-.2-1.4.4v.3c0 .6-2 3.3-2.4 3.3zm-4.5 0l-.3-.2V70l-.5-.1-.9-.4-.4-.2v-1.7h5.7l.3.4.3.4-.6 1.3h-1l-.2.4-.2.3V75l-.4.4-.3.4h-1.2zm-38.6-.3l-.5-.3-.8-1-.7-1.1v-3l.8-2 2-1.5 1 .4c1.4.4 1.7.6 2.4 1.9l.5 1v1l-.3 2-.3 1-1.4 1.6-2 .2zm2-2.8l.4-.8v-.6l-.3-1v-.6l-.5-.2-.4-.1-.8.3-.2.9-.3.9.2.6c.2.7.8 1.5 1.2 1.5h.3zm-7.3 2.5c-.3-.2-1-1.4-2-3.4-.6-1-.7-1-1.4-.5l-.5.4.1 2.4-.3.6-.2.5h-.8c-.4 0-.9-.1-1-.3l-.5-.2V63.6l1.5-.1.7.6.6.6v1.6l.1 1.7.8-.4.7-.5 1-1.7v-1.5l.8-.6 2.3.2.2 2.4-2.2 2.9v1l2.2 4-.2 1.3H116l-.3-.1zm11.3 0l-.3-.4v-.5l.4-1.8.7-3 .2-2 .5-.3c.6-.4 1-.4 1.8.3l.7.5.4-.4 1.2-.5.7-.2.8.8v1.4l1.2 2-.7 1.2.6 1.4V75l-1.6.2-1-2.4h-.6v1l-.5.3-.6.3-.5-.2-.5-.2-.2-.6v-.6h-.4l-.2.3v1.2l-.8.8h-.5c-.2 0-.6-.1-.8-.3zm10.1 0l-.3-.4.3-2.4.2-2.4-.6-.6.2-1.7 1.4-.8 1 .3V70h.1l.6-.6.3-.6.2-1 .1-1h.8v.8c0 .7 0 .7 1 1h.5v-.1l-.6-1-.3-.7.3-.3.2-.2 2.2.3V69l.3.5.3.6-1 .2v.8h-.4l-.2-.2-.5-.8-.5-.6v4.8l-1 .7-.5-.2-.5-.3V74l.3-1.1.3-.5-.2-2.3-.6 1.2-.8 1h-.3v1a4 4 0 01-.6 1.4l-.2.3h-1.2zM339 72c-.7-.6-1.4-1-1.5-1l-.4-.4v-.4l1-1 .2-3.3.3-3.3-.2-1.2-.2-1.3-.5-.3-.5-.2v-1l1.2-.8 1.5-1.2.3-.4h.7l.6 1.3.8-.2c1-.2 3.8-.1 4.5 0l.4.2 2.2 3v3l-.4 1-.4 1-.7.8-.7.7-2.5.8-1.2-.3c-.6-.1-1.2-.4-1.4-.5 0-.1-.4-.3-.7-.3h-.4l.1 2.8.2 2.8-.4.4c-.4.5-.5.5-2-.7zm6.2-7c.3 0 .8-.5 1-1l.6-1v-1.7l-.5-.5-1-1-.6-.2H343l-1.3.6-.4.8-.4.8.1 1 .2 1h-.6v.8h.5V64l.7.7.7.7h2.2l.4-.3zM388 73l-.6-.3-.7.3-.4-.1-.4-.2v-1l1-1.4a11 11 0 011.3-1.8l.4-.3.2.3.2.4v.4l-.2.5.4.4.5.4h1l.8-.7.7-.8.1-.7.2-.7-1-1.6a5 5 0 01-1-2l-.4-.5-.9-1.5-.6-1.4-.6-.6-1.3-1.1-.6-.6.4-.3.3-.4 5.5.3v.3c0 .2-.2.5-.5.7l-.4.4.2.8.1.7.7 1 .7.8v1l.5.6.5.7.1-.6 1-2.5a26 26 0 001.4-4.5l.2-.7.8-.3.7.3.4.7 1 1.8.6 1.2-1 1-1.2 1-.7 1.5-1 2c-.2.2-.5.8-.6 1.3l-.2 1-1 1.6c-1 2-1.9 2.9-2.8 3.2l-.6.3h-2.5zm-67-2.4l-.4-.2-.6-1.8-1.6-1.1v-1l.7-.7.7-.8v-9l-1.6-1-.2-.4-.2-.5.5-.4.5-.4 10.6.3 2.7 1v.8H331v10.5l.6.6.6.7-.3.4-.3.5H330c-.8 0-2 0-2.4.2l-1 .2-.7-1.2.5-.3 1-.6.3-.3.2-9.8h-5.5l-.2.4.1 6.2.2 6.2-.3.9-.6 1h-.2l-.5-.2zm88.6-1.5c-.3 0-1.2-.6-2-1.2l-1.3-1-.6-1.1-.7-1.2-.3-2 .4-1.3.4-1.3.8-1 .8-1 2-1 1.2.4 2.2.5 1 .3 1 1 1 1v1.6l-4.7 2.3-1.6-.4-.3-1.2.2-.3.1-.3h1.3l.2.5.3.4 1.4-1v-1.1l-.4-.3-.3-.3-2.4-.4-1.7 1.6v3l1 1 1 .8h2l1-.7.1-.8.2-.8h.4l1.2.4.8.5.2.6.1.6-.3.6-.3.7-1.9.9-.2.4-.3.5h-.4l-1.3.2h-1.3zm29.3-.6l-.6-.2v-.3l.4-1 .5-.6.2-2.5.2-2.5-.5-.5-1.6 1-.5-.7-.7-1.3-.2-.6.3-.4.2-.5 7-.1.3.4.3.5-1.7 1.4v2.2h.2l1-.4.6-.4h2.2l1.8 1.2 1 2-.5 1-1 1.5-.3.4-.4-.1-.3-.1-.6.5-.7.5h-6l-.6-.3zm6.5-2.3l.5-.3.2-.7.2-.7-.2-.2V64l-2.6.6-.5-.4c-.7-.4-.7-.4-.7.6v.9l.6.6h2zm6.5 2.3l-.2-.3.6-.6.6-.5 1 .6v1H452zm-80-.2c-.4-.2-1-.3-1.5-.3h-.8l-.6-.7 1-1v-6l-1-2V58l.2-.3h12l.2.3c.4.2.3.6-.4 1.3l-.8.7v6l.5.6.6.5-.3.5-.3.4h-4l-.3-.4-.3-.4.7-.5.6-.5.1-3 .2-3-4.9.2.2 5.8 1 .7v.3c0 .4-.5.8-1.2 1l-.5.2zm49 0l-.6-.3v-.3c0-.2.2-.4.4-.6l.4-.3.3-4.6v-1l-.3-1-1-.1v-.5l1.5-1.4c1.8-1.4 2-1.5 2.3-1l.4.3-.2 2-.2 2 1.5.4 1.3-.8v-.1l.5-1 .5-.7v-1.3l.6-.5.5-.5.3.3c.2.2.5.3.8.3h.4l1.2 1.6-.4 1-1 .7-1 .6-.3.7-.4.7.5.9 1.6 2 1 1.3h.7l.1.5.2.4-.3.4-.3.3h-2.7l-.6-.4-.6-.4v-1.2l-.6-1-1-1.2-.7-.5h-.6l-.9.2h-.2v2.8l1.2.8-.5.5-3.3.2zm-64.8-1a9.6 9.6 0 01-1.6-1.7l-.6-.8-.2-1.3V62l.2-1.3.3-1.2.7-1 .6-.8 1.1-.5 1-.6 3.6.4.7.4.7.3.5.8.6.8.4 1.5.4 2v.6l-.7 1.4-.6 1.3-2 1.6h-4l-1-.7zm3.6-2h1l.4-.8.5-1V61l-.7-.7-.6-.6H358l-.9 1-.8 1v2l1 .9c1 1 1.1 1 2.4.7zm-217.9 0v-.5l.2-.2.5.3.6.2-.4.3c-.5.3-.7.3-.9 0zm1.6-8.1v-.3h-1v-1.4c-.3-2.4 0-3.8.7-5.5l.6-1.1-1.6-1.3h-.3c-.5.2-3 1.8-3 2l-.2.3.6 1.3h2l.2.3v.3l-.5 1.2.6.4v.4l-.3.4-2.3.3-2-.8-.9-1.4v-9.6l.2-1 .3-1 1.3-1.5 2.8.2 1 .7 1 1v.2l1.1-.8h2.7l1.8 1.2.6 2.3-.5 1.8-.6 1.9 1 2.3-.3 2c0 1-.2 2-.3 2.2 0 .2-.8.6-1.5 1l-1.3.9h-1v.2l-.3.7-.4.5zm2.8-5.7l.3-.4-.8-2h-1v2.3l.2.2c.5.3 1 .3 1.3-.1zm-6.6-6.6l.4-.7-.6-1h-1v1.3l-.2 1.3 1-.2zm6.4 0l.2-.5-.9-.8-.6.2V45l.2.2.7.2h.3zm38.5 11.6l-1-1h-4.9V54l.1-6v-5l-.2-.8c-.4-1.2-.4-1.2.2-1.5l.4-.3 2.4.4-.2 10.9.4.3.5.3.5-.3v-9.6l-.2-.6-.2-.5V41l.2-.4h3l.2.4.1.4-.4 3.3.1 4 .1 4.2.6 1 .5 1.3v.6c0 .4 0 .9-.2 1v.5h-1zm25.8-.2a4 4 0 01-1-.8l-.7-.7-.2-1.4v-1.4l.6-1 .8-.8 2.1.4.6.6.2 1.8.1 1.7-1 1.6-1 .2zm-138.7-.3v-.2h1v.2l-.6.3h-.4zm122.6 0l-.6-.2-.5-1-.6-.7v-1.2L192 48v-3.6l.3-1.2.5-1.3.7-.7.8-.7h2.5l.6.5c.4.3.8.8 1 1.2l.4.8v9.9l-.4 1-.4 1-.9.6-.9.5h-.8c-.4 0-1-.1-1.3-.3zm2-7.2v-3.5l-.5-.7-.8.3V52l.6.7.6-.6zm-43.6 7h-.7l-.6-.6-.6-.6-.3-1-.4-1.1.1-9.5 1-2 2.5-.6 2 1 1 1.8v7l-.4 3.3-.6.9-.5.8-.9.4a4 4 0 01-.9.4zm-.7-4l.2-.3h-.9l.2.3.2.3zm2-4.2v-3.6l-1.2.2-.2.7-.2.8.1 1.7.1 2.8v1l1.2-.2zm18.5 8a4 4 0 01-1-1l-.6-.6-.3-2c-.3-2.4-.3-2.6-.9-2.6h-.4v4l.8 1.5-.2.3-.3.4-2.4.2-.8-1 .2-.6.2-.7V40.6h2.5l.2.8.1.7-.5 2 .1.6.2.6.8-.2.1-.5.5-2 .4-1.3 1.3-1 2.8.3 1 .7.7 2.3v4.7l-.2 4.7-1 2-.8.5c-1 .4-1.7.4-2.5 0zm2-6.1v-3.1l-.2-1c-.3-1-.3-1-.8-1l-.5.3v3.3l.2 3.9.2.6h1v-3.1zm27 6.3l-.8-.2V54l.3-4 .3-2.2-.3-1.5-.3-3-.2-2V41l2.5-.5.3.5c.5.5.8.5 1.7-.3l.8-.6 1 .7h1.4l.2.5.2.4-.4 1.2-.4 1.3v11.2l-.9.6-2.4-.4-.5-1-.5.6a3 3 0 01-1 .5l-.5.2zm3-4.3v-2.6l-.4-.2-.4-.1-.4.3v4l.3.8.4.8.3-.2.2-.2zm.4-5.3l-.2-.2-.5.3.3.5.3-.2.2-.1zm-.5-1.3l.2-.3-.2-1.2-.2-1.2-.6.2-.4 2 .2.8h.4c.2 0 .5-.1.6-.3zM157.7 55l-.4-.6.5-2 1-1 .3-6.8-.7-3.7.4-.4h6V54l.1.4.1.4-.4.4-.4.4-2-.3-.6-.6.5-2v-7l-.2-.5c0-.2-.3-.4-.4-.4h-.2v6l-.3 1.8-.3 1.9-.9.9-1.6.3zm30.5.4l-.2-1-.4-1.7-.4-1.1.3-.6v-6.2l-.2-1v-1.2l1.2-1.3h1l.3.3.2.3v11l.6 1.7-.2.5-.3.5h-.9zM70 54.9A345 345 0 0170 38v-1.4l1.7-.1c2-.2 3.5-.1 4.5.3l.7.3.6 1 .2 2 .1 2-.3.9-.7 1.2-.4.5.5.9 1 2.6.3 1.7-.2 1-.6 2.2-.5 1-.7.4-.6.4H70zm4.5-4.3l.4-.7-.4-2.5-.4-.4a1 1 0 00-.7-.3H73v2c0 1 0 2 .2 2.3l.1.5 1-.2zm-.3-8l.4-1v-.7l-.6-.3-.5-.3-.4.5c-.4.6-.4.7 0 1.5l.2.7h.2l.7-.6zm7.1 12.2l-.8-.4-1-2.6-.2-9.8 1.5-2.6 1.8-.4 1.8.6 1 1.4.7 5-.3 2a30 30 0 00-.4 3.6v1.6l-.8 1.2-.9.4c-1 .4-1.3.4-2.4 0zm1.6-3.7l.3-3.7v-3.5l-.7-1-.2.5-.3.4v3.6c0 2 .1 3.6.2 3.7.2.3.6.3.7-.1zm5.5 3l-.8-.6-.3-1-.3-1-.3-8.7.4-1.1.3-1.2.6-.3a6 6 0 011.3-.7l.8-.2 2 .4.7.8.5.9.6 3.3-.6 2-2 2-.8.5-.8.4v1.2l.6.6h1l1.2-1.8h.6l.4.8-.3 3.2-1.4 1.3H89zm2-7.8l.6-.8v-.7c0-.4 0-1-.2-1.2v-.4h-.9l-.5 1.5.2 1.2c0 .7.2 1.3.2 1.3l.7-1zm8.4 8.2l-.5-.3.5-1.3.4-1.3-.2-2-.2-2h-1l-.2 4.5.6 1.4-.2.6-.2.5h-2.4l-.3-.2-.3-.2V42.5l-.3-1.2L94 40l.6-.5.6-.5 2.5.2-.2 4 .3.2.3.2.8-1-.2-.6-.3-1.3V40l.3-.4.4-.4h2.2l.5.3v1.4l-.3 2.5-.2 1 .2 2 .3 4.8.2 2.7-.5.2-1.3.4-1 .2-.5-.4zm9.8.2c-.3 0-.7-.3-.8-.4l-.4-.3.1-3 .1-3-.9-1.4-.7.8.2 4.4.2 1 .3 1-.3.4-.4.4h-1.7l-.2-.3-.2-.4v-10l-.8-3.7.2-.2 1.3-.3 1-.2 1 .5v.7l-.4 1.8-.2 1 .5.4.4.4.5-.6v-2.8l-.3-1 .8-.2 1.6-.2h.8l.6.8-.3 1.3-.3 1.4v9l.8 1.5-.3.8-.6.3c-.7.3-.8.3-1.6 0zm5-.5l-.8-.6-.4-1.4-.4-1.4.1-4.3.1-4.3.5-1.2.6-1.2.6-.4.6-.4 2.2.3.6.5c.4.3 1 .9 1 1.3l.5.7-.2 10.3-.8 1.6-2 1.2h-1.5zm2-3.4l.4-.6v-6.8l-.6-.5-.4.2h-.4v3.2a25 25 0 00.1 5c.3.3.6 0 1-.5zM127 54l-.4-.5.1-5.1.1-5.1-.2-2.3a14 14 0 00-.6-3.1l-.3-1 .3-.2.4-.3 4.7-.2 1.6.6.6 1 .6 1 .7 3.2-.4 2.9-.4 2.8-1.7 1.8-.7.2c-.4 0-.8.2-1 .4l-.3.2.2.8.8 1.6.5.9-.5.9h-3.7zm4-8.3l.3-.4V41l-.4-.3-.3-.3-.6.5-.3 5h1zm10 4.6c.1-.2.4-.3.6-.3.2 0 .4 0 .5.3l.2.2H141zm-20.5-3l-.5-.2v-1.5l.3-.3c.4-.3 2.6-1.1 3-1.1h.4l.3.5.3.6-.4 1.5-.5.3a5 5 0 01-1.5.4h-1zm66.6-8.1l-.5-.5.6-1.1 1.4-.4.7.4.7.4.2 1-.7.7h-2z"/>
</svg>
