<?xml version="1.0" encoding="utf-8"?>
<svg xmlns="http://www.w3.org/2000/svg" viewBox="0 0 717 788">
	<path d="m194.6 782.2-.5-.8 1.2-2.4 1.2-2.3 10-6.9.3-1.2.3-1.3-2.1-2.4-2.2-2.4.6 1.1.6 1.2-1.3.4-1.2.5-5.1-.3-5.1-.2-4.1-1.1-4.1-1.2-.6-.9-.6-1-1.2.6-1.3.4-2-1.8-1.9-1.8-3.6.8-3.7-2.8-3.7-2.7-6-5.6-3.7-3.2-3.8-3.1v-2l-3.4-3.9-3.5-3.8-8-16.6-1.6-6-1.5-6.1-.8-13.9 2-11 .4-4 .6-4 1.3-3 1.4-3 2-4.6 2.1-4.5v-1.5l10.8-13.4 2.8-2.3 8.9-6.8 18.3-8.4h3.2v-1.8l15.5-1.6 16.1.4 15.4 4 13.5 6.5 2.4 2 2.5 2 9 8 2.3 2.5 2.2 2.5 2.8 3 7 14 4.2 13 .6 4.6.7 4.6-2.3 2.1-2.2 2.1-.9-.5-.8-.5v-9.4l-1.4-5-1.3-5-6-13-4.4-5 .3 1 .4 1 8.6 17.7 2.7 15.3-.4.3-.4.4-1-.7-1.1-.6v-6.5l-1.6-5.5-1.6-5.4-4-7.4-4-7.5-7.1-8.1-10.2-8.6-14-6.9-8-1.6-8-1.5-8.6.5-8.6.4-8.8 2.4-14.8 7.2-10.8 10.2 1.4 5.6-2-1-2.2-1.2-5.6 6.8-2.7 5.4-2.7 5.3-1.1 5-1.2 5-1 9.4-1.2 9.5 2 .6-.3 2.8-.4 2.7 5.1 14.9 8.1 13.4 5.9 5.3 5.8 5.4 2.9 2.1 2.8 2.1 4.4 2.2 4.3 2.3 12 3.8h6.8v2h-3.7l-15.5-4-7.2-3.7-7.1-3.8-16.1-16.3-1.8-3.6-1.7-3.6h-1.9v1.3l4.4 7.2 2.6 2.9 2.5 2.9 2.5 2.5 2.5 2.4 10.2 8.8 15 6.9 13.8 2.8 7-.2v-3.4l4.4-4.6-5.9-4v-2l2.4-.1 2.4-.2 1.2 4.8h2l-.2-2.8-.3-2.7 4.1.2 4.2.1-.2-1.6-.1-1.6 1.6-.4 1.5-.3 1.2 2.5 1.1 2.6-.5 1.5-.6 1.6-1.7-.6-1.7-.5-6.8 7h2.9l4.5-1 4.4-1.1 3.6-1.6 3.5-1.5 4-2 4-2.1 4.3-3 4.3-2.9 10.8-13.1 2.7-5.4 2.6-5.5 3.6-11.7-.6-.5-.5-.6h-4.3l.8-12h-2.2v-1.8h4.3l4.3.1 1.2 2.6 1.2 2.5v3.1l-4 2.6-2-1.2v2.1h4.1l-.6 4.2-.7 4.2-2.4 6-2.5 5.9-2 3.6-1.8 3.6-6.8 7.5-6.8 7.6-6 3.4-16 7.9-12 2-5.6 2-1.2 3.4 1 1.5 1 1.6 1.8.6 3.9-3.6 3.8-3.5.5.4.4.4-2.1 3.6-2 3.5-1.6.6-1.5.6 1.2 2 1.7-.7 1.7-.6 2.2-2.3 2.3-2.3 1.7-1 1.8-1.1-1.7-1.4-1.8-1.3v-2l12.6-3.2 9.1-5.1 13.8-11.6 3.8-5 3.9-4.9 2.8-6.2 2.9-6.3 1.4-7.2 4.4-4.8h2.5l-.7 4.2-.7 4.3-2.2 8-2.3 4.3-2.3 4.2-3.8 5.3-4 5.2-7.7 8.1-12 8-13.4 7.4h-3.1v3.1l-7.1 4.1.6 2 .6 1.8h-2l-1.2-2-2.7.1-2.7.2-1.7-.7-1.6-.8-1.1 2-1 2 1.7.5 1.7.4-6 1.6-3.5 2.9-3.5 2.8h-2.4zm7.5-5.9 2.4-2.7-3.3 2.3-3.2 2.2v.9h1.7zm12.4-23.3.6-1h-2.1v2h.9zm-69.3-35.3-1.8-3.2-1.3-5.8-1.2-5.7h-1.6l.8 4.3.8 4.2 1.5 4.3 1.6 4.3.5 1 .6 1 1-.6.8-.6zm-5.2-24.5-.1-4.7 1.4-8-2.2 2-1.4 16.8 1.2-.7 1.2-.8zm131 2.3v-3.5h-3v5.7l.7.6.6.7h1.7zm-128-22.8v-.8l-2 1.2v3.4l2-3zm12-21.3 3.5-3.9 5-5 5.2-5 13.4-6.7 12.4-4h22l6.4 1.6 6.4 1.7 4.6 2.1 4.6 2.2 5.2 3.2 5.1 3.3 11.2 11.3v-2.7l-14.8-14.1-13.1-6.5-11.6-4-17.3-1.2-15.7 3.4-10 3.2-2 1.4-7.3 2.4-11.7 12.1-2 2.2-2.1 2.1-2 3-1.9 3-2.2 4.2-2.3 4.2v4.6l7.6-14.3 3.5-3.8zm198 123.8-1-1.9 1.3-1.2 1.2-1.3-8.5.8v-1.6h-2.2l-1.1 3-1.2 3-1.3-.5-1.4-.5h-2.5l.5-5.5.4-5.5-2.4-3h7.2l1.9-1.1 1.8-1.2 3.7.7 3.8.7-.6 2.5-.7 2.6 2.2-1.4 3.9 3.5v3.8l-1 2-1 1.9h3.1l2-1 2-1.1-1-1.3-1.1-1.3.6-1.7.6-1.6h6.8l-1.2 3.2 2.1-1.3 2.2-1.4-1-7 1.2-1.6 1.3-1.6 2.2-1.1 2.2-1.2h6.1v3l-5.1 3.3-1 2-1.1 2 13.2-1.2v1.7l-7.5 4.7 8.4.6 3-1.5 3-1.6h3.1v1.8l-1.3.9-1.2 1h-2.4l-2.4.2-.8 1.3-.9 1.3v-2.2l-4.9.5-4.8.4-.8-1.1-.7-1.2 3.2-3.6v-1.3l-3.7.4-3.8.3-2.7 1.8-2.8 1.8v2.8h-3v1.6l-3.9 1.1-3.8 1.2h-5.4zm2.5-7.2-.6-1h-5.1l.6-1.5.5-1.5h-2.9v5h8.1zm-13.5-.8v-.7l-.9-1.3-.8-1.4-.6 2.1-.5 2.1h2.8zm35.8-6.3 2.4-2.9h-2.8l-2.2 1.6-2.2 1.5v2.9h1.3l1.2-.1zm-89.6 14.4-1.3-.5 1-1.1.9-1.2.3-4.6.4-4.7-6.5.2v2.1l1.5 2 1.5 1.9v1.6h-2.5l-1-2.3-1-2.2h-2l-.3 2.2-.3 2.3h-2.4l-.2-10.7 2.3.5 2.4.4v2.2l2.4-2.4h12.5l1 2 1.1 1.9v4l-4 2.6v3.3l-3.2 1.2h-.6l-.7-.2zm6.8-9.4v-2.9h-2l-1 2.3-.8 2.2 1 1.2 1 1.3 1-.6.8-.5zm160.5 8.1-.6-1 2.8-2.5 2.8-2.4h1.8l1.9-.1 5.8-3.4v-1.6h3.2l5.6-4 7.5-3.6 7.5-3.5 6.5.6.4 1.2.4 1.1-3.2 3.6-3.1 3.6h.7l18-9h5.5v2.8l-3.9 3.3-3.9 3.4-4 3.3-4.2 3.3v1.9h8.5l4.5-1.2v-1.9l1.8-1.8 1.7-1.8 13.9-8.3h2.7l-.6 3.4-14.8 10.6h6.8l4-1.1 4-1 3-1.4 3-1.3 16-6.4 1.7 1.1 1.8 1.1 3.1-1.6 3-1.5.6.5.5.5-.5 1.4-.5 1.5-4.7 3-4.6 3.2h-1.8l-.5.8-.5.9 11.2-1.8 1.6-.8 1.6-.9 10.2-3 1.3.8 1.4.8-2.6 3.2h3.8l1-.8.9-.9 8.5-2.6 4 3.6 10.2-1.4 10.7 2.4 14.6-2.4 4-2.5 4-2.6 9.4-10.1 1.2-2.9 1.1-2.8 1.6 1-.5 2.3-.5 2.2-6.2 8-4.9 3.9-13 6.8-16.2 1.6-1.5-.7-1.5-.6-28 .3-5.5 1.4-1.6-.6-1.7-.6 3.6-4h-1.3l-3.3 1.4-3.4 1.4-5.9 1.2-5.8 1.1-3 1.2-3.5-.3-3.5-.2-.9-.5-.8-.6 8.7-7.5-1.4-1.4-9.6 5-6 2.2-6 2-1.4.6-1.5.5-20.1 1-3.7.1-3.8.2-2.1-2.1 6.6-6.8 11-9.6-5 1.2-21 10.4-5.6 4.3-5.7 4.2h-2.4l.4-1.2.5-1.3 10.5-7.3 8.8-8.6v-2.6h-3.8l-16 8.5-17.5 10-.4 1.3-.5 1.2h-2.9l-.6-1zm70.2-9.5 2.8-2.4h-2l-6 4.8h1.2l1.2.1zm32.3 1.5v-1h-1.5l-3 2h4.5zm-182 6.5v-1.5h.8l.6 1.5.5 1.5h-1.9zm-45-.4v-.9l-3.4-.6-3.5-.7.6-7 2.2-2.2 2.5.7 2.6.6v6.1l.9-.5.9-.6.6 1.5.5 1.4-1.5 1.6-1.5 1.5h-.9zm-1.5-5.1-.7-1.2-2 2 1.4 2.4 2-2zm.5-3v-1h-3.1l1.2 2h1.9zm-76.8 5.5-1.2-2.6v-5.6l3.8-3.4 6-.8.6 2.5.7 2.5-.6 1-.6.9h-1.9v-2.8l-3.2-2.6-.9 1.5-.9 1.4v6.3l1.4 1.1 1.4 1.2 4-5.6.7 1.7.7 1.6-4.2 4.2h-4.7zm50 1-2.2-1.6v-4.9l1.6-1.5 1.5-1.6h3.8l2.3 4.2-1.4 5.3-1.1.7-1.2.8h-1.1l-2.2-1.6zm4.8-2.5v-1h-3v2h3zm-1-4v-1h-3v2h3zm7.5 7-.5-.8 3-2.4v-4.8h-2l-1.2 3h-1.8v-5.8l1.4-1.1 1.4-1.2.7 1 .6 1.1h6l.5 1.5.6 1.5-.7 1.7-.7 1.8-.5-1.3-.5-1.2h-3l1.4 5.5 1.1.7 1.2.8-1 .2-2.7.4-2.8.3zm-48.8-1.8-1.7-1.9v-2.9l2-2.2 2-2.1 2.5 1 2.5 1.2v3.7h-5v2l2.5.2.8-.1.9-.2-.4 1.3-.5 1.3-4 .6zm4.3-5.7v-1.5h-2v3h2zm161.5 6.5-.6-1 1.2-4-1.5.6-1.6.6v-2.2l4-2.4 3.8-2.5 1.4-1.8 1.3-1.8 12.3-10.5 6.2-4 6.3-4.2 3-.2 3.1-.1.8 3.6-4 6.2-4.1 6.3-3.3 3-3.3 3.2-14.6 9.4-.6-.5-.5-.5 1-1.9 1-1.8 8.2-7.6v-1.6l-15 7.9-1 1.8-1 1.9v3.1h8.5l-3 2h-7.4zm29-17.4 3.8-4.6-.4-.5-.5-.5-2.8 2.3-2.8 2.2-2.6 2.5-2.7 2.5-5 5.9 9-5.2zm-11.3 1.3 4.3-2.1 5.2-4 5.2-3.8h3l.6-2 .7-2.2-1.2-1.2-3.6 1.8-3.7 1.7-4.8 3.2-4.9 3.2v2.5h-2.5l-8 7 5.4-2 4.3-2zm-86.5 11.4-.7-.6v-3.7h4l.7 1.6.6 1.6-2.8 1.8h-1.2zm256.4-8.9v-1.9l.6 1.3.5 1.3-1.2 1.2v-1.9zm-422-6.6-.1-3.7 1-.6.9-.5 1.2 2 1.4-.7 1.5-.5v6.2h-1.9l-.6-1-.7-1.1-1.4 1.8-1.3 1.8zm-14.8-2.2.6-1.5-1.6.6-1.5.6 1.4-6.8 1-1 .8-.9v3.4h3v3.1l-1 2-1 1.9h-2.2zm5-1.6 1.1-3 2.6.7 2.5.6.7.3.6.4-1 4h-.9l-2-1-1.9-1v2h-2.8zm41.7-1.4v-1.4l-1.5-1.2-1.6-1.3 1.2-1.1 1-1.1 1.6 2.2 1.5 2.3h3l-2.4 3h-2.8zm5.6-4.8-1.6-2.2v-1.8l1.3.5 1.2.4 2-2.8 2.8 5-1.6 1.5-1.6 1.6h-1zm-68.6-.8v-2h-2v-2h3v-3h-3.8l-2.4-3 .6-1.5.5-1.5h6.1l.2 2.5-.1 1.3-.2 1.2h3.1l-.6 2.6-.7 2.6 2.3-1.2 2.2-1.2.5.5.4.5-1.2 2-1.3 2-4.7 2.2h-1.9zm0-10v-1h-3v2h3zm435.5 11-.6-1 .5-.9.5-.8 6-.6 5.8-.5 7.7-2.8 7.6-2.9 1.2-6.5-1.5-6.3-1.6-6.2-1.6-4-1.7-3.9-1.6 2-1.7 2-5 3.3-4.9 3.3-6.1.8-9 .8-2.6-1-3.9-7.7-5.2 2.4-5.3 2.5-8.4 1.2-7.2-2.4-2.2-4.8h-1.3l-6.5 4.8-4.3 1-4.2 1.1-3-.7-2.9-.8-1.3-2.6-1.2-2.7-4.3 2.4-4.2 2.5-10.1 2.2-3-1.5-3.1-1.6-2.6-6.6-.3-.4-.3-.3-6 4.2-8.4 3h-6l-6.7-4.5-4.8-9-3.1-11-2.2-17.2 2-15.1 2.2-5.7 2-5.6 10-12 4.7-2.9 4.7-3 3.7-.5 3.8-.7 3.5 1.2 3.5 1.1 3.8 4.4 3.8 4.3 3.4 10.8 1.2 9.1-1.6 7-1.7 6.8-2.6 5.6-2.5 5.7 4.3 4.3-.3 3.7-.2 3.7-6.6 9.7v5.4l1.3 1.8 1.4 1.9 5.5-.5 5.5-.4 4.8-2.5 4.9-2.4 1-3.9 1.1-3.9 3.2-2 1.7.6 1.6.6v4l-5.1 6 .6 2 .6 2.1h4.7l5.4-2 5.3-2.1 2-1.7 2.2-1.8 1-3 1-2.9h2.8v10l.9 1.3.7 1.2h10.4l11-4 2.6-3.1 2.6-3.2 1.2.7 1.1.7-.6 5.4-.7 5.3 2.2 1.2 2.2 1.1 5.7-1.6 5.7-1.7 9.6-5.2 2.6-4.3 2.5-4.4 1 .3 1 .4 8.1 19.9.9 13.2-4.2 8.2-1.5-.5-1.5-.6-1.5 1.2-1.4 1.2-2-.7-2.1-.6v1.9l-12.7 2.2h-6.2zm-98.8-37 3.8-2.2 1-.9.8-.8.4-3.2.3-3.3-1.1-.7-1.2-.7 1.5-3.4 1.5-3.3 6.2-14 1.7-6 1.6-5.8.2-12.2-1.8-5.4-1.8-5.3-4.2-4.4-4.3-4.4h-7.3v1.9l-2.8-.1h-2.8l-4.4 3.2-4.5 3.4-7.4 10.4-3 14.2v15.4l2 11.8 1.4 5.2 1.5 5.1 4.7 6.9 3.4 1.1 3.3 1.1 3.8-.8 3.8-.9 3.8-2zm37.7-4.6.6-1.5-2 1.2v1.9h.8zm-26.4-5.4 2-4v-6h-2.1l-1.5 3.5-1.4 3.4v7.1h1zm-272.3 43-1.7-2.4v-2.4l3-1.2 4.5 4.5-3.4.6-.6 3.4zm-43.1-.9-.7-1.1-1 .5-.9.6v-2l-3.3-.6-3.2-.7-2.7-2-2.6-1.8h-2.5l-3.1-3.3-3.1-3.2-8.2-10-1.8-5.3-1.7-5.4v-14.3l4-12 2-3.5 1.8-3.5 6.9-7.2 9.2-6.4 7.4-1.9 7.4-1.8 13.4-1.2 1.2 2 7.2 3.3 7.2 3.4 5.2 5.3 5.2 5.4 6.3 13.1 1 15-3.2 12.7.5.8.5.9 7.5 2.4 1.2 1 1.3 1v-1.4l-1.6-1.7-1.7-1.6 2.4-.8 1.4 1.2 1.5 1.2v3.7l-.9.5-.8.6-6.3-2.3-6.2-2.2-3.2 5-11 10.7-11.1 5.1-1 1.2-2.5.3-16.7 1.4-.7-1zm13-7.8-.5-5.7-1.4-.8-1.4-.7 1-5.6 1-.7 1.1-.7-1.2-2.3-1.3-2.3.4-6-2.4-9v-3.5h-1l-5.4 3.2 2.8-2.4 2.8-2.5-1.3-21.8 2-11 .7-1.8.7-1.7h-5.6l-10.3 3.1-3.7 1.2-4.7 3.3-4.7 3.4-3.5 4.3-3.6 4.4-2.1 4.2-2.2 4.2-1 12.4 2.2 14.6 4.8 9.4 8.7 8.3 7.8 5.2h1.7l-1.2-2.4-1-2.5 1-2.8 3.8-.6 3.9-.6 1.9 1.9h-3.4v3l1.8-.3 1.7-.2.6 2-3.6.6-2.2.5-2.3.4v1.7l3.3 1 3.2 1.1 12.8.2zm-21.6-10.3-1-2 .5-1 .5-.8 3-.7 3-.6 2 .6 2.1.7-.3 2.6-.3 2.7-8.4.6zm8.3-1.5-.3-1h-5.3l-.5 1.3-.4 1.3 6.7-.6zm-8.1-5.5-.8-.5 1.4-6 .7 2.3.7 2.2h1.6l.6-1.6.6-1.5 4 1.2v-1.8l.2-1.8.9 3 .8 3-.7.6-.7.7-8.6.8zm2.8-10.4v-1.4l-2.1-.5-2.1-.6.7-1 .6-1.1h8.9v2.5l-2.7 3.5h-3.3zm-1.5-7.5-3-.7 4.5-1.2v-2.2h-5.1l1.2-2h9.9v1.9l-4 .6-.3 1-.2 1 4.5.6-.5 1-.6.9-3.4-.2zm-4.5-10v-1.1h4.8l1-4 3.2-1.2 3 2.4v3.8h-4.5l-3.8.6-3.7.7v-1.3zm10-3.1v-1h-2v2h2zm-8.5-5-.6-1h10.1v2h-8.9zm4.3-3.7-4.7-.4.5-1.4.6-1.4-2.1.6-2.1.5v-3l4.5-1.2h8.5v1.9l-2.8.3-2.7.4 2.8 1.2 2.7 1.2v2l-.3-.2-.2-.2zm33.9 57.1 4.7-2.7 9.5-10 .7-1.9.6-2-1.8-1.9-1.7-1.9h-1.3l-3.4 7h-4l-3-7.2v-6.3l1.5 2.5 1.3 2.5 2.2-6 .9-1.5.8-1.5h2.3v1.5l1.4 2.8 1.4 2.7 2.6 2.4 2.5 2.4.6-3 .7-2.8 1-3 .5-4.9.4-4.8-1.2-5.7-1.1-5.6-5.2-9.6-9.3-9.4-4.6-2.5-4.6-2.4-1.2 1.2-1 6.6-.9 6.7-1.4 3.4-1.5 3.5h2.9v2.2l-2.1.5-2.2.6 1.8 1.4 1.9 1.3h-5.4l-4 5.8 2.9 2.5.8-.7.7-.7v-3.4h5v6l-8.5 1.6v3.1l5.5-.7 5.5-.6v2l-2 1.2 1 2 1 1.9h-2l-3.7-1.5-3.6-1.5-1 1 1 3.2.9 3.3 7.4.6v1.8l-6.5.6v3l2.6 1.2 2.5 1.2 3.6 4-.7 1-.6 1-3.2 1-3.2.8.3 3.4.2 3.4.4 1.2.5 1.1 7-1.6 4.8-2.8zm-32.7-2.4v-.9h-2v3.1l2-1.2zm22.6-6.4 1.4-1.4-1.8-1-2-1-1.2 1.2v3.7h2.1zm17.4-7.7v-.3l2.8-8-1-1.7-.9-1.8h-2.1l1.2 4.8-1 .4-1 .3-1.2 6.5h3.2v-.3zm-24-27.3 1-1.4-.6-.6-.6-.7h-2.8v4h1.8zm2.8-6.5 1.1-.7.8-2.9.7-2.9-2.8.7-2.7.7-2.8 2.8v3.1h4.5zm-2.7-9.7v-1.4l1.8-1 1.7-.8 1.4.5 1.3.4.9-1.3.9-1.4v-8.4l-5.1-2-1.9 1-1.8 1-2.2 10.1v4.6l.6.6.7.6.8-.5.9-.5v-1.4zm4 1v-.4l-2-1.2v2.1h2zm239.1 63.8-.9-1.8-3.4-22-4.6-21.7-1.2-1.2-1.4 2-1.3 1.8-2 3.5-1.8 3.6-1 1-1.2 1-6.5 8.5h-1.9v-3.2l10-11 6.9-11.8-2-6.5.7-7 .6-7 1.4-3.3 1.3-3.2h3l1 2 1.1 1.9v10.8l-2 5.9-2.2 5.9v3l6.1 27 2 10.9 2.1 10.8v1.8h-2l-.9-1.8zm-6-62.6 1.1-5.2-.3-2.4-.4-2.4-2.2-.8-.7 3.2-.6 3.1v10.9l1-.6.9-.5zm-201.2 58.9-2.3-2.5h1.9l2.4 2.4.6-.7.7-.7-3.6-4h1.8l1.1.8 1.1.7 1.1 2.1 1.1 2-1.1 1.2-1.2 1.2h-1.3zm-89.8-6.2-1.2-2.8 1.7-1.2 1.7-1.3h2.7l-.6 2-.7 2.1 2.1.6 2.1.5v1.8h-2.5l-2 .5-2 .6zm93.8 1.2-1.3-1.6 1.1-2.4 1.2-2.5h2.9l1.1 2 1 2h-1.6l-2.4-2.4-2.2 2.2 2 1.4 2.2 1.3v1.5h-2.8zm-98-10.1-1.2-2.7.4-.3.3-.4 3.4-.6 3.3-.7-.6 1.7-.7 1.7 1.5.6 1.6.5-1.2 1.4-1.1 1.4h-4.5zm106.4-5.5-.7-1-2.8 1v-1.7l3.2-2.6.9 1.5.9 1.4v2.5h-.9l-.6-1zm-109.4-2.7v-1.7l4.5.3 4.6.4-.3 1-.4 1-8.4.6zm317.6 0-.6-1 .6-1.7.7-1.6 3.2.6v4l-1.7.3-1.6.3zm-179.6-4.2v-2l4-4h1.2l-.5 1.5-.6 1.4.8.6.9.5.6-2.2.5-2.2-4.2-4.6h7.3v3.3l-.1 3.2.7 3.3.6 3.2h-2l-.6-1.5-.5-1.5h-5.2l-.5 1.5-.6 1.5h-1.8zm53.5 1.3-2-.5-2.4-2-1.2.8-1.3.7-10.6.2v-2.4l4-1.2 1 .6 1 .7 1.5-1.2 1.3-1.1 1.2 2 6-.2v-1.2l-1.5-2-1.5-1.9v-1.6l7.2-3 6.8.6 6.8.7 1.1.7 1.2.7-.7 1.7-.6 1.7-1.4-1.2-1.4-1.1-1.2 3 2.2 4v1.2h-5v-.9l1-2.4.8-2.4-2-2.8-.5 1.3-.5 1.2h-2.5v3.8l.2 3.7-2.5.2-2.5.1zm1.5-6.8v-1.5h-2l1.2 3h.8zm3-1v-1.6l-2 1.2v1.9h2zm-195 6.5-2.4-.7-.3-1.1-.4-1.2 2.2-1.1 2.2-1.2.8 1.3.9 1.4 1.8-2.8 1 .7 1.2.7v2.8l-2 1-1.9 1.1-.6-.2-2.4-.7zm213.7-.2-1.8-1-1-2.5-.9-2.5 1-2 1-1.9h3.4l-2.4 2.4v1.6h3v-3.2l1.3.4 1.2.5.6 3.3-4.6.2-2-.2 3.7 2.9 3-1.2-1.3 2.2-1.4 2.1h-1zm34.6-.5-.6-1.5 2.1-2.1 2.1.7 2.1.6v2.7l-3.2 1.2h-1.8zm-146.4-.8 1.4-1.6-1.2-11h9.4v14h-3.5l.2-5.7.3-5.7-1.7-.4-1.7-.3-.6 11.6-2 .4-2 .3zm26.7-.2-1.6-1.3v-5l1.6-1.5 1.5-1.6h1l2 1 1.9 1v6.9l-2 1-1.9 1.1h-1zm4.9-2.4-.6-1h-3l1.2 2h3zm-.5-4v-1h-2.9l-1.2 2h4.1zm20.2 6.4-2.2-1.3v-6l2.6-1.1 2.6-1.2 1.6 1 1.7 1.1.6 6.4-1.2 1.5-1.1 1.4h-2.4zm3.2-4.5-.5-.9h-1.9v2.9l1.5-.5 1.5-.6zm8.6 5.2v-1l.8-.5.9-.5-.5-3-.4-3.1h-1.8v2h-2v-1.9l3-3v-1.6l2.5-.1 2.5-.2v1.6l-1 .4-1 .3.6 2.3.6 2.2h1.8v-1.7l.2-1.8 2 5.6-.6.6-.6.7-2.4-2.4h-1.7l.6 5.5-1.8.3-1.7.3zm57.3-.6-.5-1.6 1.2-1.2 1.5 1.3 1.5 1.2v1.8h-3.1zm5-.2-.7-1.8-.6-.5-.7-.5-1.2-6 3.3.3 3.3.4-.2 4.6-.1 4.6-2.4.8zm10.2 0 .6-1.8.2-.7.2-.6h-1.8l-.8-1.4-.9-1.3v-2.4h3v3h4.8l.5 2.2.6 2.2-1 1.3-1.1 1.3h-5zm-60.5-5v-1.1l-1.2-3.2h8.2v.8l-.1.7-1.5 3.8-2.7.1-2.7.2v-1.2zm72.3-.9-.6-1.5 2.4-2.4 2.9 3.9-1.3.8-1.2.8h-1.6zm-251.3-2.3v-3.1l1.3 1 1.2 1 2.8.6 2.8.7-.7 1-.6 1-2.4-.5-2.4-.6v2h-2zm0-6v-1.2l2.6-2.3 2.5-2.4h2.5l2.2 2.2-.6 2-.5 2-2.9-.4-2.9-.5-.5.9-.5.8h-1.9zm105.8-7.5-.8-.7v-2.8l4-1.2v-2.1l-6 1.2v-2l1.5-.6 1.6-.6-1.3-1.5-1.2-1.5-.9 2.4-1 2.3-1.4-4 .4-1.3.5-1.2 2.5-.6 2.5-.7.8 1.4.9 1.3-1 1.6 2 2.2 2.1 2.2v2.8l-2 .5-1.9.5-.6 3zm-99.7-7-2.1-2.7v-2.5l1.5-.6 1.5-.5v4.4l1 1.5.9 1.4 2.5-1.4 2.6-1.3.9.9-1.4 2.2-5.2 1.4zm6.2-4-1.3-.6v-3.6l1.2-3.2h2.7l2 2.1 2 2.2-1 1.8-1 1.9h-1.7l-1.7-.2-1.3-.5zm3.5-3-.3-1.7-1.3-.5-1.2-.4v4.2h3.1zm81.1.5v-.4l-.4-1.5-.3-1.5-.7-1.6-.6-1.7 2.3-1.6 2.2-1.6h2.9l1.3 1.8 1.3 1.7v.7l.1.7-2 .6-2 .7-2 2-2 2.2v-.5zm4.6-6 .7-1-.6-.7-.6-.6-3.4 3.4h3.3zm-83.8.7-1.7-1.3v-3.4l1.4-.5 1.4-.6 2.1 1.2 2.1 1v5h-3.5zm69.3-4.7v-2l1-2 1-1.8-2-1.2-1.2 2.5-1.1 2.6h-1.7v-1.1l1.5-3 1.6-2.9h1l2 1 1.9 1v3.9l-2 1.2v2l2-1.2v3.1h-4zm-58.8-5.8-2.2-3.9 1.5-1.2 1.4-1.2 3.6.8-.3 3-.2 2.9v1.8l-.1 1.7h-1.5zm2.8-2.5v-1.7l-.9-.5-.8-.5-.6.5-.6.6.6 1.4.5 1.4h1.8zm5.2 2.7-1.3-.5 1.7-2.5 1.6-2.5-1.2.7-1.3.8 1-2.8 3.8-.6 2.6 4.2-.6 2-.6 1.9h-2.2l-2.2-.2zm4.8-1.7v-.5l-2-1.2v2.1h2zm33.3.2-3.3-2v-4l2-3.8h4v1.8l-4 1v4.2l1.5.5 1.5.6 3.5-4.3 1.7.6 1.6.7 1 2.6-2.9 4.2h-1.7l-1.7-.2-3.3-2zm6.7-2.3v-1.6h-1.8l-.6 1.5-.5 1.5h2.9zm-35.8.8-1.2-.5v-3.7l-2-1.2.7-1.4.5-1.5h5.6l1.2 3.2v5.8h-1.8l-1.7-.2zm2.8-4.4v-1l-2 1.2v2l2-1.2zm4 2.7v-1.7h2v1.9l-2 1.2zm5-2v-2.4l.6-1.7.7-1.7.8 1.4.8 1.3 2.5-2.5h1.7l-.6 7.5-1-.3-1-.4.2-.9.3-.9h-1.8l-.6 1.5-.5 1.5h-2.1zm138-27.7-1.5-.9-1.9-.5-1.8-.6 1-1.3 1-1.2 1-4.4-1.4-1.2-1.3-1 2.4-3 2.8-3 1.9 1.9-1.2 2.3-1.2 2.2 2.4 10.9-.4.3-.3.3zm-55.6-1.2-.6-.9 1.4-1.6 1.3-1.6-.3-4.9-.4-4.8h3.2v10.9l2 1.2v1.7l-3 .4-3 .5zm-20.9-.7-.5-1 2-1.2v-5.9h-1.6l-1.3 1.3-1.3 1.2.4-2 .3-2 4-.3 3.9-.3-1.3 1.5-1.3 1.6 1.8.6 1.9.7 1.1.9 1.2.9-1 3.9h-2.6l.5-2.1.6-2.2-2.8 1v2.8l-1 .7-1 .8h-1.4l-.6-1zm36.7-.3-1-1.3-1.2-4.2 1.2-3.4 1.8-.9 1.7-1 2.3 2.2 2.2 2-1.2 6.2-1.3.8-1.2.8h-2.3l-1-1.3zm3.2-4.4.6-1.6v-.8h-2.9l-1.2 2 1.2 2h1.7zm8.7 3-2.1-2.7v-2.4l2-1.8 2-1.7 4.8 1.2 1.4 6.4-4.4 3.6h-1.8zm4-4 1-2.7-.5-.5-.6-.5-1.5 1.3-1.5 1.2v3.8h2zm29.5 5.7-.6-1 1-.6 1.2-.7-1.2-4.6-.6-1.5-.5-1.4h5.5l5.6-.1v1.7l-2 1.2v4.8l2 1.2-.5 1-.6.9h-4l.6-3 .7-3h-2l-.4 2.7-.3 2.8-1.7.3-1.6.3zm13.8-.6-.7-1.7 1.7-1.6 1.6-1.7 1.8 1.1 1.7 1.1v3.8l-5.5.6zm-226.6-.9-1.8-1.3v-5l4-3.6 2.5 1.7 2.5 1.6v4.1l-1 2-1 1.9h-3.5l-1.8-1.4zm4.6-5-.6-2.6h-1.6l-1.2 1.5-1.3 1.5 1.8 2 1.9 2 1.8-1.8zm43.1 5.5-.5-1 2-1.2v-5.9h-1.8l-.6 1.7-.7 1.6-2.2-2.2.6-1.5.6-1.6h6.9l3.2 1.2v2l-2.1-.7-2.2-.7.5 4.6.6 4.6h-3.8zm21.2.2-.7-.6 1-1.2 1-1.1-.3-3-.2-2.9 7.5-.6v6.9l1.2 3.2h-4l.6-4.5.5-4.5h-3.3l-1.4 2.2 1.4.8 1.3.9-1.2 2.5-1.2 2.6h-1.6zm11.7-2 1.1-2.3h1.7l-3.2-5h3l3 7.2 1.4-1.1 1.4-1.2.6 1.7.6 1.6v1.4h-5.3l-5.4.1 1.1-2.3zm13-2.3v-5h2.7l-.6 2-.6 1.8 1 .6.8.6-.5 2.5-.4 2.5h-2.3v-5zm5.7 1.7.2-3.2-.4-1.4-.4-1.5 1.8-.4 1.9-.4-.7 3-.6 3 1 2.1 1.2 2.1h-4.1zm20.9 2.7-1.5-.5.3-4.4.4-4.4 1.8-.6 1.7-.5 1.5.5 1.6.6 1.2 7.4-1.7 1.2-1.7 1.3-1-.1-1.1-.1zm3.8-4.9v-3.5h-4l1.2 3.2v3.8h2.8zm67.6 4.8-1.1-.8-1-3 1.4-2.8 1.4-2.7h3l2 1 1.8 1-.6 1.6-.5 1.5-3.7-3.3-1 .7-1.1.6v4l1.5.5 1.5.6 3.2-2.6-.3 2-.4 1.9-2.5.3-2.5.2zm-181.2-2.4-1.3-2 .6-2 .6-1.9 3.8-2 1.4.6 1.4.5 2 4.4-1.6 4.5h-5.6zm4.8-2.3v-2.6l-1-.5-.8-.6-.5 1.2-.4 1.3.5 1.7.4 1.8h1.8zm17 3.9v-.5l1.2-2 1.3-2-1.3-2-1.2-2h3l.2 4.5-.2 2.2h4.9l.6-7.2.9.2.9.3v4.5l.2 4.5h-10.5zm27.8-.6 1.2-1.3v-4.5l-1.8-1-1.7-1h1.9l1.8-.1-.5-1.5-.6-1.4 1-.6.9-.6 2 1.2-.6 1.1-.7 1.1-.2 9.2-2 .3-2 .4 1.2-1.3zm-39.1-2-.6-2.2 1.5-2.2 1.5-2.3 3-1.2-2 2.8-2 2.9.6 2.1.5 2.2h-2zm65.3-1.6v-1l1.5-1.9 1.4-1.9v1.3l.1 1.3-3 3zm260.1-22.3.4-1.2.8.1.7.1v.7l.1.7-1.2.5-1.1.4zm-12.4-2.7-1.8-.5.5-1.6.5-1.7.6-3.6.7-3.7-1.1-.6-1.1-.7v-1.9h7.9l1.5 2.2 1.6 2.2v2.6l-4 4-1-.5-1-.7 1.2 5.2-1.3-.1-1.4-.1zm5.8-8.4.7-2.1-1.9-1.9-1.3 1.5-1.2 1.6.6 1.5.5 1.5h2zm-305.5 7.4v-.8l-.4-12.3 3-.5 3-.4 1.3.4 1.2.5 1.2 4.7-.7 2-.6 2.1-4.7 1.2.2 1.6.1 1.6-1.7.4-1.8.3v-.8zm6.1-9.4v-3l-1.3.3-1.2.5-.3 2.6-.3 2.7h3.1zm174 9.1-1.3-.8 1-10.1-2.1-2.1h8l2.4 2.4v6.6h-1.8l-2.5 2.4-2.4 2.5zm5.4-7.2.5-2.3-1.8-1.8-1 .7-1.1.7v3.6l.7.6.6.7h1.5zm24.6 5.7-1.2-1.5h-5.9v-7.9l-.9-.5-.9-.6-1.2 1.5-1.2 1.4.7 3 .7 3.1h-4.4l.6-1.5.5-1.5h-1.7l-.6 1.5-.5 1.5h-3.6v-10h3.4l.4 2.3.4 2.2.8-2.3.7-2.2 8 .2 7.9.3-1.2 4.8 1.2 3 1.2 2.8-2 2-1.3-1.6zm132-.3-1.5-1.7.6-9.5h2l.4 1.3.3 1.2.7 5.3.6 5.2h-.8l-.8-.2zm92-.6-1.1-1.4 1-.7 1.1-.6v-6.4l-1.4 1.7-1.3 1.8h-1.4l.6-5.1h.8l.7.1h8v5.5l-1.5-1.9-1.4-2-.6 1.6-.6 1.5 1 2.7 1.1 2.7v1.9h-3.8l-1.1-1.4zm-471.5-.6-.7-1 1.9-2.5 1.7-4.8 1.8-4.7h2.4l1.9 5.5 1.8 5.5 1.4-1.1 1.3-1.1v-3.4l-2.5-2.5 1.4-.8 1.4-1 1.2.6 1.2.4 2 4.4.7-2.3.7-2.2h2.4v5l-.1 5.2-5 .4-4.9.5-6 .4.1-1.8.2-1.7h-1.9v2.8l-3.2 1.2h-.7l-.6-1zm127.4 0-1.6-1 .4-2.7.5-2.8-1.1 1.5-1 1.5v1.7l-.1 1.8h-3.9l-.6-1-.7-1 1-1.4 1.1-1.2-1.2-10.7 2.8 1v2.8l.9.6.9.7 7.6-1 19 1.4-.5 1.2-.5 1.3 2.6 1.7 2.5 1.7-1 2-1 1.9h-2l.3-2.1.2-2.2-1.3-.5-1.4-.4.4 2.3.3 2.4-4.5.6v-2.1h2v-6.2l-1.6.6-1.7.6-1.3-1-1.3-1.2-1 .7-1.1.6v3.2l3.2 3.6h-11.7l-.3 1-.4 1.1h-1.4l-1.6-1zm5.6-3.6 1.6-1.6-.4-1.2-.4-1.1h-3.6l-.8 5.5h2zm78 4.1-1-.3-5.4-1.2.6-8 .8-.8 2.1-.6 2.2-.7 2.2 3.5 2.1 3.6-.6 4.3-1 .3-1 .2zm43.8-1-2-1.4-.6-2.1-.5-2 2.1-2.6 2.2-2.5 2.3 1.6 2.2 1.6v4.1l-2.6-.6-2.6-.7.5 1.3.4 1.3 2.2-.2 2.1-.3v2l-1.8 1-1.9.9zm2.7-7v-1.7l-2.4.8-.8 2.4h3.2zm12.6 7.6-.6-1 .6-1.4.5-1.5-1-.6-1-.7-.7 2.6-.6 2.5h-2.9v-10h2.4l-2.4-2.4v-1.6h3v2h4.1l-1.2 2h2.6v5.5l.1 5.5h-2.5zm13.4-.1v-1h2v2h-2zm4.4-4.4.1-5.4h9.7l-1.2 4.3v1.6l-4-1.2v4.9l-3.2 1.2h-1.4zm6.8 4.3.3-1h2l.3 1 .4 1.1h-3.4zm9.5.4-3.7-.4v-6.7l-1.2-3.2h4.1l1 1.8 1 1.7v-1.8l.1-1.7h3.5v5.5l.1 5.5-.5-.2-.6-.1zm1.8-2.3.6-1-3.2-1.2-1.1 1.1.7 1 .6 1.1h1.8zm8.5 1.6v-1.6l2-1.2v-4.8h-1.4l-1.2 1.7-1.2 1.6-.5-.9-.6-.9 1.6-4 4.6.3 4.6.4v4.8h-2v-2h-2.2l1.2 4.8 1.2 3.2h-6.2zm11.7-.4-1.7-1.9v-4.9l2.4-2.4h3.3l1.7 2 1.8 1.9-.7 1-.6 1.1h-5l.7 1 .6 1.2 2-.5 2-.6-.6 1.6-.6 1.5v.8h-3.7zm4.3-6.2v-1h-3v2h3zm30.5 6.7-.4-1.2.4-6.4 2.4-2.4 2.6 1.1 2.5 1.2v3.1l1.6 1.6 1.5 1.6-2.1 2.1-8.1.4zm5.5-2.7v-1h-2.9l-1.2 2h4.1zm-1-4v-1h-2v2h2zm32.2 6-1.2-2v-4.6l2.4-2.4h3.5l1.5 1.6 1.6 1.5v4.8l-2.2 1.5-2.2 1.6h-2.1zm4.5-5.4-.6-1.6h-1.9l-.6 1.7-.7 1.6 2.6 1.6 1.8-1.8zm6 6.8-.6-.6 2.2-4.8-2.2-4.9 4.7.4 4.7.3 1.4.2-1 3-1.1 3.2 2.2 2.2v1.7l-4.5-.6.6-4.5h-3l-.6 4.3-1 .4-1.1.3zm12.9-.2-.6-.5v-7.7l1-.6.9-.6 1 2 1.1 2-2 1.2v1.9h3l.2-2.3.1-2.2v-2.4h1.6l1.4 4.4 2.8 2.8 2.5-.6 2.6-.7-.4 1.3-.5 1.3-2.4.2-2.4.1-.5.2-.5.3-4.2.2-4.1.3zm17.4-1.6v-2.6l-3.2-3.2 1.2-3 3.2.6.8 10.5h-2zm6.2-1.4.2-3.7-.5-1.5-.4-1.5h3l.4 2 .3 2 1.6 1-1 5.5h-3.9zm6.1 1.7.6-2.3-1.7-2.1.9-2.2.8-2.3h2.6l-.1 5.3-.2 5.2-1.7.4-1.8.3zm10 1.4-2.3-.4-1.2-4.9.6-1.5.5-1.5h1.6v2.7l-.1 2.7 3.8.8-1-3.9 1.3-1.8 1.4-1.9v1.5l.2 1.4.6 5-1 1.3-1 1.2-.7-.1-.6-.2-2.2-.4zm21.6-1.4-2-2 .5-2.2.6-2.2v-1.3l2.2-.5 2.2-.6 4.6 4.2v3.4l-3.7 3.3h-2.4l-2-2zm4-3.3.3-1.7-1.2-3.2-1.4 1.4-.4 6 1.1-.4 1.2-.4zm9.9 4.7-1.8-.4v-1.9l2.2.3 2.3.2 1-7h3.4l.7-.8.7-.7h4.6l2 5h4v1.9l-1.2.7-1.2.8-.8-2.4h-2.8v4h-2.3l1.2-6.9-3 .2-2.8.2.6 2.3.5 2.3-1.8 1.4-1.9 1.4h-1l-1-.1zm33.7-1.3-1.9-2 1-2.7.9-2.6 1.2-.4 1.1-.4-.1 3.2-.2 3.2 1.3.4 1.2.5v-4l1.2-3.2h1.6l1 3.1 1.2 3.1-2 3.8h-5.9zm-503.3-.2-1.2-1.2v-6.4l1.5-1.2 1.6-1.3 2.4 1.1 2.5 1.2v4h-5v1.8l2.8 1 2.2-2.2v2.3l-2 1-1.9 1.1h-1.8zm4.2-6.9-.5-.9h-3v1.7l1.2 1.2 1.4-.6 1.4-.5zm18.1 2.5v-5.4h2.7l1 4 1-.6.8-.5-1-1.8.9-.5 1-.6 2.6 1v9.8h-9zm5.6 2.3-.1-.7h-.7l-.8-.2-.3 1.2-.4 1.2 1.1-.4 1.2-.3zm12.7 1.3-1.3-2h-1.6v3h-3l.2-3.3.1-3.2-.7-1.8-.8-1.7h4.1l1 1.6.8 1.7.7-1.2.7-1.1h2.9v2.9l-1.5-.5-1.5-.6v1.9l1.5 1.9 1.4 1.9v1.3l.1 1.2h-2l-1.2-2zm6.3.6-.8-1.1.3-3 .2-3 .2-1.4 2-.6 2.1-.7 1.4 1.2 1.5 1.2v3.4l4 3.4.2-2.5v-1l-.6-2.8-.6-2.7h10l-.1 3.8-.2 3.7.6 1.5.7 1.5-20 .1zm4.4-3.6-.7-1.2-2 2 1.4 2.4 2-2zm-.5-3v-1h-2.1l1.2 2h.9zm21.8 6.8-1.6-1.3-1.2-4 .8-1 .7-1 1.7-1.3 1.6-1.3 2.1 1.8 2.1 1.7v5.2l-2.4 2.4h-2.2zm8.7.3-.5-1 1-.6 1.1-.7-.6-7.3h3l-.3 1.6-.2 1.6 7 4.8-.3 1-.3.9-1.3.4-1.2.4-.6-2-.5-2.2h-2.1l.6.7.7.6-1.1 1.4-1.1 1.3h-2.9zm64.2-3.5.6-4.6h-2.4v3h-2v-4l2.3-.5 2.2-.6 5 .8.6 4.8-1.6-2-1.5-1.9-.2 1-.1.9-.2 7-3.3.6.5-4.5zm175.7 2.8.6-1.6v-6.8h9.1l-.6 3.4-.7 3.4 1.1.6 1.1.7v1.9h-11.2zm6.4-1.2.4-1.2h-3.3v3.2l2.4-.8zm32.1 1.8v-1h2.2l-1.4-5.5-2.3-1.7 1.3-.5 1.2-.5v-4l1.8.4 1.7.3-.3 5.3-.4 5.3 1.2 1.4 1.2 1.5h-6.2zm157 0v-1h2v2h-2zm5.7.3-.7-.6v-3.7h-1.6l-2.2 2.2-.7-2.1-.6-2.1h-1.9v2.4l-2-2 1.2-3.4h3.4l7.4 6.8v3.2h-1.7zm-367.3-3.7-.6-3.5.7-1 .6-1.1h2l-.7 3.5-.6 3.5h2l2.3-2.9-1.1-2.1-1.2-2.2 1.9.4 1.8.3.6 6.8-1.3.8-1.3.9h-4.4zm12.4 2.9-.5-.5.5-2.5.4-2.5 2.5.6 2.5.7-.4-2-.3-1.8-2.5.2-2.5.3 2.3-1.2 2.4-1.2 1.6 1 1.7 1.1.6 8.3h-4l.6-2 .5-2h-3.2l.6 3.3-1 .4-1.1.3zm179.2-6v-1.5h2v3h-2zm-257-1v-1.5h2v3h-2zm-66-23.2-1.6-.4.8-11.9h-2.2v-1.9l4 .2 4 .1 1.7 1.8 1.7 1.9-2 5.4-2.2.3-2.3.4 1.2 3.6-1.6.8zm4.8-9.6.3-2.7h-2.9l-.4 1.8-.5 1.7.5 1.3.4 1.3 1.1-.4 1.2-.4zm78 4 .4-5.4-1-.7-1.2-.7v-1.9l8.2.6 2.8 3.8v3.5l-1.5 1.5-1.6 1.5-3.2-1.2.5 2.1.6 2.2h-4.5zm5.8-2.2.6-1.5-.7-1.8-.6-1.7-1.4 1.8-1.4 1.9.6 1.4.5 1.4h1.9zm232.4 5.3v-2.8h2.6l1.2-2.8 1.2-2.7-.6 2.8-.5 2.9 1.3-.4 1.3-.5v-5.2l-1.7-.4-1.8-.5v-2.2l3.5.2 3.5.3v.5l.1.5-1.4 3.6 1.2 2.5 1.1 2.5v4.4l-2.7-3.5h-5.6l-1.3 1.7-1.3 1.8v-2.8zm-123.7 0-.7-1.3-.6-4-.5-4h-2.9l-.6 2.3-.5 2.3-1.1-3-1.2-2.9 6-1.2 1.6 1 1.6.8-.3 4-.2 4 1 .7 1.1.6v1.9h-1.9zm-244.8-2.2-2.5-2.6v-6l4.2-4.2 3.1.4 3.2.5 1.8.8 1.7.7v-2.9h2.9l2.9-.2-.5 2-.6 2 1.4-.3 1.3-.3 1 4.3.9 4.2-.6.6-.5.6-3.5.8-3.5.7-1.3-.8-1.4-1 1.8-1 1.7-1v-2.7l-3.5-.6-3.5-.7-1-2-1-1.9h-2.8l-.4 2.8-.4 2.7.4 1.8.3 1.7h3.8l1.2-2h2l-1 2-1.1 2-4 2zm17.6-3.9-1-1-.7.6-.6.6.7 1 .6 1.1 2-1.2zm75.6 5.7-.6-.7.5-.8.5-.9h1.9v3h-1.7zm3.3-2.8v-3.4l-.7-1.8-.6-1.7 1 .7 1.2.6 1.4 2.9 1.4 2.8-.9 1.7-.9 1.6h-1.9zm24 2.4-1.5-1 1.3-2 1.2-2v-4.2l-1.3.4-1.2.5-.3 2.6-.3 2.7-1-.5-.9-.6v-3.6l4-3.6-.6-.8-.5-.9h3.7l3 3 2.8 3-2.4 4v3h-1.8l-1.4.5-1.3.5zm5-6.4v-1.6l-2-1.2v4.1h2zm52 6.4v-.9l1.3-.8 1.4-.8.5-2.2.6-2.3-.9-.6-.9-.5v-1.9h1.8l1.2 5h2v2.9l-3.2 1.5-3.1 1.6h-.7zm38.7.4-.6-.6.6-2.9.5-2.8-.6-1.8-.7-1.8-1 1.8-1 1.7-1-.5-1-.6 1-1.8 1-1.7 3.6-.2 3.7-.3-.7 2-.6 2 2 .6 2.1.6v4.7l-3.1 1.1-3.2 1.1h-.4zm4-4.6-.5-1.3-.2 3.8 1.2-1.2zm77.8 4.2-.5-.9 2-1.2v-5.9h-2v2.4l-2.4-2.4h-2.4l-.5 1.4-.6 1.4 2 2 1.8 2-3 1.2-1.9-1-1.8-1-.5 1.3-.4 1.2-1.3-1.1-1.2-1.2 1.4-2.1 1.3-2.2-4.7-3.9 1.3-.4 1.4-.5 10 .6 3.7.1 3.6.2-.5 2-.5 1.8 2.4.4 2.3.3v5h-3l.6-4.5h-2.1v4.8l-4 1zm150 .2-.5-1-2.5.6-2.5.4v-2l1.5-.6 1.5-.5v-5l-1.8-1-1.7-1h1.8l1.7-.1v-4h2.7l-1 11.1 3.6 2.6-1 .7-1.2.6zm71.8-1-.5-1.2.6-1.5.5-1.5h-1.9l-1.2 5-13.8-.4v-3.8l1 .7 1 .6v-6.1h2l-.6 1.4-.5 1.4 1 .7 1.1.6v-5.1h1.9l.6 8.5h3l.6-8.5h1.9v4.5l2-2.2 1.8-2.3 13.7-.8 9.2 1-.2 3.7v3.6l-2-.6.4-5.1-2.1.6-2.2.5-1.3-1-1.3-1.1-3 2.4 4 5.6v1l-7.6.4-7.7.3zm6.8-2.8 1.8-1.6-4-4.2-1.4 1.5-1.4 1.4.5 2.3.6 2.2h2.1zm-445.5.6.6-2.5.4-1.4.5-1.4-1.3-.8-1.2-.8.6-.7.7-.6 1.6.6 1.5.5 2 5.1h2.1l-.6-5.5 3-.6v10l-10.4.6zm63 1.4-1.7-1.6.6-7.3 5.4-.6 1.1 2 1.1 2.2-.3 2-.3 2.2-2.1 1.4-2.2 1.4zm2.5-5.7-.9-.9-.5 1-.6.9 1.2 4.7 1.8-4.7zm22.5 6.5-.5-.8 1-1.4.9-1.5v-4.5h-2l-1.2 3-.9-.6-.9-.5v-3.9h10l.7 1.6.6 1.5-2.3 2.3v-2.4h-2.3l.6 4 .5 4h-3.7zm36.3.1-2.6-.4 1-9.4 1-.7 1.2-.8h3.1l3.4 7.7v1.4l-1.4 1.5-1.5 1.4-.8-.1-.8-.2zm45.1-.7v-1.6h2v-6.1l-4 1.2v-1.8l2.3-1 2.2-1.2h-1.3l-1.2-.1v-2h3.7l-.3 13.5-3.4.6zm10.5.3-.7-1 .7-.7 4.8-1.4-.6 1.7-.7 1.7v.8h-2.9zm5.7.1.4-1.2 1.4.2v.7l.2.7-1.2.5-1.2.4zm5.5.3-.7-.6v-1.7h3v-1.6l-2.3-2.3.6-1.5.6-1.6h3l-.5 1.5-.6 1.5 1 1.3 1 1.2-.9 2.3-.8 2.2h-2.8zm7 0-.7-.6v-8.7h3v6.8l1.2 3.2h-2.9zm43.9-.9-1.6-1.4v-5l5.2-3.4 1.9 2.5 1.9 2.4v4.1l-2.4 2.4h-3.5zm3.7-5-.5-1.4h-1.8v6.5l1.5-1.8 1.4-1.9zm8.9 5.4-1.2-1.2v-6.4l3.2-1.2h1l-1.5 2.3-1.5 2.4.7 1.2.8 1.2 1.6-.7 1.7-.6-.1-1.2-.1-1.1v-1.3l.2-1.2h1.8l.8 5.9-.8 1.5-.9 1.6h-4.5zm12.4.5-3-.5 1.4-.8 1.4-.9v-6.9l2.5-.5 2.6-.6 1.2 1.2 1.1 1.2.4 2.6.3 2.6-2.7 3.3-1.2-.1-1.1-.2zm5-2.4.6-1-1.1-1.1-3.2 1.2 1.2 2h1.8zm-.3-4.4.2-1-1.8-.3-1.7-.3v3.2l3.1-.6zm32 6.5-2.1-.9-.7-2-.6-2 1.7-2.6 1.6-2.5h1.4l2.2 1.6 2.2 1.5v4.8l-1.6 1.5-1.5 1.6h-.2l-.2-.1zm2.2-3 .6-2-1-1.6-.9-1.7-1.2 2.2-1.2 2.3.6 1.4.5 1.4h2zm6-.8.1-4.7.7-.3.7-.2h1.9l1.2 4h1.7l1-4h2v5l.2 5h-9.5zm2.7.6-1.2-1.2v2l.7.7.6.7.5-.5.6-.5zm10.3 3.4-.5-.5v-1.7h3.2l-.8-7h6.7l-.7 2.3-.8 2.2-.1 2.5-.2 2.4-6.2.4zm5.5-5 1.2-2.4-1.3.4-1.2.4-.4 2.4-.3 2.4.3-.5.4-.4zm7.7 5.2-.7-.7v-1.7l7 .4-.3 1-.4 1-4.9.6zm9.3-.3v-1l2-1.2v-4.9l-2-1.2.4-.7.4-.8 4.9.2 4.8.1-.4 1.4-.3 1.4v2l-.1 2 .7 1.8.8 1.7h-5.2l.3-2.3.2-2.2h-3l.6 4.5h-4.1v-1zm24.4-.3-.8-1.2 1.2-.4 1.1-.3-.6-3-.5-2.9 3.6-1.4h6l.1 5.2.2 5.2h-4.8l1.2-4h-1.6l-1.3 2-1.2 2h-2zm6.1-5.8-.6-1h-1.9v2h3.1zm19.4 6.8-.2-.3-.4-10.4 4.4.2 4.5.2.2 5.3.1 5.2h-4.5l1.2-4h-3.2l.6 3.3-1.3.4-1.2.5zm11.5-2-.7-2.2 2.4-.8-1-1.2-1-1.3 1.8-1.8 2-1.7-.8 8.3 2.4-.8.6-4.3h1.9v4h2v4h-8.9zm-467.4.5v-.8l1-1.4.8-1.4-.8-2.8-.9-2.9h7.7l.8 1.3.9 1.2v5.8l-1.3.4-1.2.5-.2-4.7.1-1.8.2-1.7h-2.9v4.5l-.4 2-.5 2-3.3.6zm12.4-1.7-.6-2.4.4-1.8.3-1.7 1.7-1 1.8-1.2 1.7 1.1 1.8 1.1v3.8l-1.5.1-1.5.2-3 .2 3 2 3.7-1.2-.4 1.3-.5 1.4-3 .3-3.2.3zm4.6-4.6v-1h-3v2h3zm18.5 2v-5h9v10h-3.5v-4h-3.1l1.2 4h-3.6zm13.7 3.8-1-1.3-.4-2.1-.3-2 1.4-1.7 1.3-1.7h3.8l3.2 5-3.2 5h-2l.5-3.4.7-3.4-2-1.2-1.2 3.2 1.2 4.8h-1zm82.2-.4.6-1.6v-6.8h8.5v10h-4.3l1-3.7-1.7-.7-1.7-.6.4 2.5.5 2.5h-4zm206.4-2.6.3-4.3-1.4 1.8-1.4 1.7h-1.3v-2.8l1.5-1.2 1.6-1.3-.5-1.4-.5-1.3h5.5l-.4 6 .9.6.9.5v-3.6l3 5.8-.5 1.9-.6 1.8h-7.5l.4-4.3zm5.2 1.2v-2h-1.7l-1.2 1.2.6 1.4.5 1.4h1.8zm180.2 1 1.3-2h1.6l-.3 1.7-.3 1.8-1.8.3-1.8.4zm-288.8-1.4-.6-1.7.6-.6.6-.7 2.4 2.4-2.3 2.3zm160.6-1v-1.2l2.6-3.6 2.4.4 2.3.3 1 1.7 1.1 1.7-1.2 1.2-8.2.6zm5.8-1.8-.4-1.2-2.4-.8v3.2h3.2zm-159 .9-.8-1.9.6-.9.5-.9h4.9v2.9l-2 1.2v-2.1h-1.9l-.3 1.8-.4 1.7zm-80-1.5-.6-2.2 2-1.2.5.6.6.6-2 4.4zm-84.6-1.4.4-1.2 2.4-.8v3.2h-3.2zm66.6-28.3.4-5.5-1.1-1.4-1.2-1.4 1.6-1 3.3.2 3.4.1 1.4 2 1.4 1.9v4.2l-2.4 2.4h-3.4l.2 1.7.1 1.8-2 .3-2.2.3zm6.2-4v-2.5h-3v4.7l.6.6.7.6.8-.5.9-.5zm197.5 2.5v-7l3.5.2 3.4.3 1.6 2.7 1.5 2.8-1 1.7-1.2 1.8-2.1 1-2.2 1 .5 1.2.4 1.3h-4.4zm6.5-1.4v-2.6l-.9-.5-.9-.6-2.4 3 .6 1.5.5 1.5h3.1zm-93.5 6.4-.6-1 1-1.7 1-1.8 4-3.8-1-1.7-.9-1.8 3.2-1.2h5l-.7 3-.6 3 .6 2 .6 1.9 3-1.2-1.2-7.5.8-.4.8-.5 4 .4 4.1.5v4.9l-.1 4.9h-9.8l-1.2 1.7-1.3 1.7-1.6-1.7-1.7-1.7h-3.7l-.6 1.5-.5 1.5h-2zm19.5-5v-1h-2v2h2zm114 4.1v-2.1l5-5.4v2l.1 2 1.8-4v-.8l.1-.8-3.4.6-.8-3.8 1.7.7 1.7.6h5l-1.2 1.5-1.3 1.5 2.6 9.1-1 1-3-1.8-3.1-1.7-2.1 1.8-2.1 2v-2.5zm-399.4-1-.7-1-5.9 1.2-.2-2.8.2-3 .1-3 1.5-1.1 1.5-1.2 2 .5 2 .6 1.2 5.7h1.7v2.8l-1.4 1.1-1.4 1.2zm-1.6-4.1v-1h-1.9l-1.2 2h3.1zm25.8 4.5-.4-.4-16.4-1.1v-2.1l5.3.6.4-1.3.5-1.2h-5l-1.2-3.2v-2.6h9.5l9.4-.2.6 1 .7 1-2.4 3 1.2 3.2 3.1-2.5-.6-5.2 9.3-.6-1 8.6-.8 2.6-9.6-.4-1 .6-1.1.6zm-6.8-7v-2.4l-2-1.2v6.1h2zm194.2 5.5-3.2-2v-3.7l2.4-2.2 2.4-2.3 2.1 1.1 2.1 1.2.2 4.4-.4 3-2.3 2.5zm2.8-6v-2.2l-1.3.4-1.2.5-.3 1.6-.3 1.7h3.1zm78.3 6.5-1.4-1 .9-4 .8-4 2.2-.3 2.3-.4 1.5 1.2 1.4 1.2v3.8h2.1l-.3 2.2-.3 2.3h-7.8zm4.7-3v-1.6l-2 1.2v1.9h2zm7.7 4-.5-.7 1-3 1-2.8-1-1.4-1.2-1.3.7-.6.6-.7h7.7v5.1l-1.6-1.5-1.6-1.6-.9.5-.9.6v4.8l2 1.2v1.9h-4.7zm62.1-.7-1.6-1.3-1.2-5.4 1.6-1.5 1.5-1.6h3.7l1.5 2.4 1.6 2.3-.6 2.2-.5 2.1h-2.8v2h-1.6zm2.7-5.1v-1.7l-1-.3-1-.2-.3 2.4-.4 2.3 1.4-.4 1.3-.5zm42.7 4.7-1.5-1 1-1.9 1-1.8-.4-1.8-.5-1.9 1.7-.6 1.6-.7 2.5 1.1 2.4 1.2v2.9l1.7 1 1.8 1-2.2 3.6h-7.6l-1.5-1zm4.8-2.4v-1h-3.1l1.2 2h1.9zm0-4v-1h-2.1l1.2 2h.9zm25.9 7.3-1.7-.4 1-4-1.6.7-1.6.6v2.8h-3l.2-3.3.1-3.2-.8-3 5.5-.6.2 5.6 1.4-4.9 1-.3 1.2-.4.4 4.8.5 4.8-1.2 1.2zm63.1-.7-2-1-.2-4.1-1.1 2.8-1 2.7h-3.7v-1l2.3-3.7-.7-1.8-.6-1.7-3 2.4v-4.2h2l-.7-1.6-.6-1.5 6.8.6.3 2.5.4 2.4 1.8 2.4 1.8 2.3.8-2.3.7-2.2-1.2-.4-1.1-.4v-2l2.8.4 2.7.3.2 4 .2 1.3.1 1.3 1-.7 1.2-.6-1.2-4.5 4-3.6 1.4 1.4-1.3 2-1.2 2.1.6 3.9.7 3.8-10.1-.4zm-535.3-.7-1.7-1v-5.6l4.1-3.7 3.1 1.2 3.2 1.2.6-1 .7-1.1 9.8.6.6 4.5h-2.1v-2h-2v4.9l2 1.2v1.9h-6v-.9l1-2.6 1-2.7-.6-1-.6-.9-2.7 2.3-1-.7-1.1-.6v4l-1.6 1.5-1.5 1.6h-3.4l-1.8-1zm4.3-5.9v-1h-3v2h3zm64.7 6.4-.6-.6 2.4-4-1.3-.5-1.2-.5v-5.4l5.3.6 5.2.5-.6 3.6 1.1 1.4 1.2 1.4-.7 2-.6 2.1h-9.6zm20.2-.2-.1-.7.1-1.7.2-1.8h-2.1v4h-2l-.2-3.5.4-3.8-2.1.6-2.1.5v-2.8h7.1l-.3 1.3-.3 1.2 1 .3 1 .4 1.3 1 1.2 1v3.6l-1.5.6-1.5.5zm28.1-1.2 1.1-2-1-3-1-2.9 1-.5.9-.6 3.2 1.8 4.5-.8 4.5-.9 2 1.2.8 2.4 1 2.4h2v-5.5l.9 1.5.8 1.5.7 3.6.6 3.6h-5.5l-5.5.1 1.2-4.9.2-1.7.1-1.7h-3v8.5h-3.5v-3.3l-.2-3.2-1.4 3.3-1.4 3.2h-4l1-2zm27.7 1.4-.7-.6v-8.5l1.5-.5 1.4-.6.6.9.5.9-2 1.2.5 1 .6.9h3.9v3.6l-2.4 2.4h-3.3zm3.5-3.5-1.2-1.2-.6.7-.6.6.6 1.7.7 1.7 2.3-2.3zm17.6-1 .5-5.3.2-.3.2-.2 1.7.6 1.6.6-.1 1.2-.1 1.1v1.8l.2 1.7h2.1l-.6-5.5 3-.6v9h-2.5l-2.5-.1-4.2 1.4zm23.8 4.4-.4-.7.3-3.3.2-3.3 2-2 4.8.6.3 2 .4 2 1.5 1.2 1.6 1.2-.6 1.4-.5 1.4h-4.6l-4.6.1zm5.2-3 .4-1.2h-3.2v3.2l2.4-.8zm.2-4.2v-1h-2v2h2zm9.3 7.2-1.3-.8.4-9.5 7 .6 1.6 7.9-1.5 1.5-2.5.5-2.5.6zm4.4-4.7-.1-3.5h-3.6v3.8l1.2 3.2h2.6zm8.2 4.8-1.6-.4-2.6-4.8 1.7-2.6 1.6-2.5h2.6l1.6 1.3 1.6 1.2 1.4 8.5-4.7-.2zm33.1-1.7v-2.4l-.6-3.2-.7-3.2 2.4.4 2.4.3v3.8l1.4.5 1.3.4-.7-2-.6-2.2h3.1l.2 2.5-.1.9-.2.8 1.1 1.3 1 1.3-1.5 1.6-1.6 1.6h-6.9zm6-.6v-1h-2v2h2zm6.2 1.8-1.2-1.2v-5.5l1.6-1.5 1.5-1.6h1.4l2.4 2 2.5 1.8-1 3.3-1 3.4-4.9.6zm3.8-3.9v-2h-2.7l.5 2.5.4 2.5 1-.6.8-.5zm20.2 4-1.2-1.3v-5.2l2.4-2.4h3.3l3.2 3.6-.7 3-.8 2.9-4.9.6zm4.5-5.3-.6-1.6h-1.9l-.5 2.2-.6 2.1.6 1 .5.9 1.6-1.5 1.5-1.5zm56.5 4.8-2.2-1.5v-5l2.4-1.1 2.3-1.1 2.2 1.1 2.1 1.2v5.5l-2.4 2.4h-2.2zm3.3-2.4.6-2-1.2-2h-1.9v6h1.9zm19-1v-4.8h4.2l4.1.1.4 4.9.3 4.8h-3.3l-.5-1.4-.6-1.5 1-.3 1.2-.4-1.4-4.4h-2l.4 4.5-.1 1.8-.2 1.7h-3.5zm36.5 4v-1h2v-4h-2.9l-.7-1.2-.7-1.1 1.7-1.2 1.6-1.2-1.2-3.2 6.2.2-.5 1.9-.6 1.8h2.9l1.2 3.2v4.6l-2 1.2-.2-5.1-.2-1.2-.1-1.1-1.3-.4-1.2-.5v8l-3.2 1.2h-.8zm12-.5-1.2-1.4.7-1 .6-1.1 4.9 1.2v-4l-1.8-1.2-.6 1.6-.6 1.5-2-1.2v-2.7l3-.4 3-.5 1.5 1.1 1.4 1.1-.4 6-.8 1.3-.8 1.2h-5.7zm60.6-.4-1.9-2 1.3-3 1.2-3.1h4.5l1.8 2 1.9 2-1 2.8-1 2.7-5 .6zm3.9-2 .6-2-.6-1.1-.6-1-1 .5-.9.6v4.9h1.9zm34.5 3.2-1.5-.5-1.2-1.5-1.1-1.5 2-5.6 1.4-.6 1.4-.5v2l-1 2-1.2 2.1 2 2 1.4-.8 1.3-.9v-3.6h2v7.5l-4 .4zm-8.3-1-.7-.6v-3.8h1.8l.6 1.7.7 1.6-1.7 1.7zm-228.7-3.4v-1h2v2h-2zm274.3-.7-1.3-.5v-1.8h4v1.9l-.8.4-.7.4zm-414.3-2.8v-1.5h2v3h-2zm227.6-23.2-.6-.6v-3.3l2.4-2 2.3-2.2-.4-9.3 6.9.6.3 6 .2 6 .8 1.7.7 1.8h-1.1l-2.6-1.2-2.5-1.1-3 2-2.8 2.2zm8.4-10.4v-3.9h-1.7l-.7 3.8-.6 3.7v2.7l3-2.4v-4zm139 10.5-1.5-.5v-12.9h7.4l1.1 2 1.1 2.1-.6 4.4-2.3 1-2.2 1v3.5l-.8-.1-.7-.1zm5-8.4v-3h-3v6h3zm-260.4 7.2-.7-1.1 3-5.7 1.7-1.5 1.7-1.4-.7 2.8-.7 2.9 1.3-.4 1.3-.5.3-3.1.3-3.2h-3l-1.2-2h7.3l-.6 2.6-.7 2.5 1.3 3.4 1.2 3.4-.8.8-.9.8-.4-1.2-.5-1.3h-6l-2.5 3.3zm146.4-1.2-1.5-1 1.6-1.3 1.6-1.2-.5-3.6-.4-3.6 5.3-1.4 1.4.9 1.5.8-2.9 3.9v-1.8l-.1-1.7h-2.9l-.5.9-.6.8 2 1.7 1.8 1.7-1.4 5.4-1.5.2-1.4.3zm130-.5v-1.6l1.5-.5 1.4-.6 1.2-3.8h2l-1 2-1.1 1.9.9.5.9.6 1.2-3.2v-3.6l-4-1v-2.4l3.2 1.2h4.4l-.8 7 1.2 1.6 1.3 1.5-2 2-.7-1-.7-1.1h-5.9l-1.2 2h-1.8zm-215.5-.3-.6-.6h-5l-4.9-.1v-9.5h3v4h2v-2.9l2-1.2 14.3-.4 14.3-.3 5.4 1v2.3l2 1.3 2.1 1.3-.6 4.4-6.5.6v-8.1h-1.6l-2.4 2.4v-2.4h-3.1l-.6 1.5-.5 1.6 1.7 2 1.8 1.9-1.4.4-1.4.5-6-.2-13.3 1.2zm1.5-5.8v-2.4l-2.8.6-2.7.7-.3.2-.2.2 1.2 3.2 1.6.4 1.7.3.7-.3.8-.4zm12.4 1.3 1.1-1.8-3.8-2.8-.8.5-.9.5v6l1.6-.3 1.7-.3zm48.8 3.3-2.2-2v-5l4.9-3.1 2 1 2.1 1.2v7.5l-2.4 2.4h-2.2zm4.3-3-.6-1h-3l1.2 2h3zm-.5-3v-1h-2v2h2zm46 7-3.5-.5v-9l6.5-.6 1.2 6 2.8 1v2l-1.7.9-1.8.8-3.5-.5zm1.8-3.8.4-1.4-1.8.4-1.7.3-.5 1.3-.4 1.4 1.8-.4 1.7-.3zm-.8-3.2v-1h-2v2h2zm9.5 7-.4-.6 1-1.4.9-1.5v-3.6l-4 1.2v-5.1h10v4h1.8l2.4-3h4l2.7 3.5v1.7l.1 1.7-2.1 2-2.2 2-1.8-1-1.9-1-1.2-5-3.6 1.2-.6-1.8-.5-1.8.4 4.1.5 4.2-2.5.5-2.5.4-.5-.6zm14.8-4.6.6-.6-.6-1.4-.5-1.4h-1.8v4h1.7zm-442.3 3.7v-1l1-2.5 1-2.6-2-5h-3.2l.4 5 .3 5-2-2.6-1.9-.7-1.8-.7.7-1.8.8-1.7.4-2.2.5-2.2 1.5-.6 1.6-.5 6.7 1.2-.1 5.6-.2 5.6-2.6 2.6h-1.1zm7.7-1-1.7-1.8v-5l4-3.6 2.5 1.7 2.5 1.6v5.7l-3.7 3.3h-2zm3.3-4.7v-1.4h-2v4.1l2-1.2zm65 5.6v-1h2.9l.5-.9.5-.8-1.6-5.7-1.6-5.6 1-1 1.7.6 1.7.7-1 9.4 2.8 5.3h-6.9zm14-.4-.8-1.1.4-6.8 1.5-1 1.6-1 1.7.6 1.6.6 2 5.1h2.1l-.6 4.5h-4.3l-4.3.1-.8-1zm5-3.2v-1.6l-2.4.8-.8 2.4h3.2zm0-3.4v-1h-3v2h3zm20.8 6.3-1.5-1.8-.7-1.9-.6-1.9 3.3-3.7h2.3l4.4 4v3l-4 4h-1.7zm2.9-2.9.6-1.5-2-2-1.2 1.5-1.3 1.5.7 1 .6 1.1h2zm19.5 3.7-1-.7.7-1.3.9-1.4-1-3-.8-3.2v-.1l11-.2 11-.1v1.7l-1.5.6-1.5.5v3l3 3v.9l-4 1-.6-.9-.5-1-2.5.7-2.4.6v-1.1l1.7-1.6 1.7-1.7-1-1.7-1.1-1.6h-3.8l-.3 1.8-.4 1.8.5 1.2.4 1.2v1l-.2 1-3.6.1-3.6.2zm5.8-3.2v-2.1l-3 2.4v1.8h3zm18.4 2.9-.5-.8h1.9l.6-2.5.7-2.6-.7-1-.6-1-1.4 1.2-1.4 1.1v-4.2h7.1l-1.2 4h4l1.2 4-.5.9-.6.9-8.1.8zm6.6-2.3v-1.5h-2v3h2zm16.6-1.8v-5.2l9-.4v5.5l.1 5.4h-9.2v-5.3zm23.9 2-1.5-3.7 1.8-4.6 2.5-1.4 2.4-1.3 2 .4 1.8.3.3 3.5.4 3.5-2.4-2.2-2.4-2.3h-2.4v7.5l2 3 4-4.8 1.4 1.4-1 1.7-1.1 1.7-6.3.6-1.5-3.5zm13 .8-1.7-2.5 1.2-4.9 2-.6 2.1-.7 3.9 3.5v3.8l-1 2-1 1.9h-4zm4-2.5.6-2-.7-1.1-.7-1.2-1.3 1.7-1.3 1.8.6 1.4.5 1.4h1.8zm4.7 3.3.3-1.8 4.5-.6v-2l-1.2-1.9-1.2-2 .4-.4.5-.4 8-.6-.3 2-.4 1.9.2 6.7-1.5-.5-1.4-.6-.6 1-.6.9h-7zm8-3.4-.4-1.9h-1.8v4.9l2.8-1zm18.3 3.9-.4-1.3.4-7 2.3-.3 2.3-.4 1.5 1.2 1.4 1.2v3.8h2v4h-9.1zm5-3.5-.5-1.5v-2.8h-2.1l.6 2 .6 1.8-1 .7-1.1.6.5 1 .6.8 3-1.2zm8.5 3.8v-1l2-1.2v-4.9h-1.9l-1.2 2h-2l.6-4.5h10l.6 4.5h-2.1v-2h-2v6h2v2h-6zm12.2-.3-1.2-1.2v-3.7l1-2 1-1.9h2l-1.2 2.5-1.1 2.6 2.1 2.1 2-1.2-.6-2.6-.5-2.6 2.2 1.1 2.1 1.2v3l-1 2-1 1.9h-4.6zm94.7.9v-.2l-.2-4.7-.3-4.7 1.7-.4 1.7-.5 5 1 .4 4.4.3 4.4-1 .2-3.8.3-3.7.4zm6-5 .2-1.7h-1.9l-.5 2-.5 2.1 1.1-.4 1.2-.4zm19.1 3.3v-2h2v-4.5l-2.7 3.5h-1.3v-6h11v4.7l-.7.6-.6.7-1.3-1.8-1.3-1.7v3.3l-.1 3.2h2v2h-7zm53.2-1.4v-3.1l.5-1.8.4-1.7 1.8 1 1.2-2h7.9v5.8l-1.2.6-1.3.6 2.3-.6 2.2-.5v5.1h-8.4l2.4-2.4v-5.6l-2 1.2-2 1.3v4.3l-2 .5-1.9.5v-3.2zm28.6 1.7 1.1-2-.4-5.8 4.5-.6v2l-2 1.2v4.1l2.5-.4 2.5-.5 1.1 1.3 1.1 1.4h-3.7l-3.9.7-3.8.6zm25.8-.5-1.6-2.2v-2.3l2.3-2.1 2.3-2.2h1.1l2.1 1.9 2.2 1.8v2.1l-2.7.4-2.6.3-1 2.8 2.2-.6 2.1-.5v2.8h-4.9zm4.4-4.8v-1h-3v2h3zm-495.4 2.5.6-3.5-2.4-3h7.7l1.4 1 1.4.8 3-3-2.8-1.8h7.5l-.7 3-.6 3h2.3v-2h2l.6 3.6.7 3.6-2.8 1.8h-7.9l1.6-1.8 1.5-1.7v-2.3l.2-2.2h-1.9l-1.2 2-1.4-.7-1.5-.5v1.7l1 1.5.9 1.4-1 1.3-1.1 1.3h-7.9l.7-3.5zm5.4-2v-3.7l-1.3.4-1.2.5-.6 6.3h3.1zm13 3v-.3l-1.2-3.2-.9.6-.9.5v2.9h3zm6.5.8.8-1.8.4-2.3.5-2.2h-2.2l-.5 1.5-.6 1.5h-1.9v-5.1l10.5.6.6 4.5h-2.1v-2h-2.3l1.2 7h-5.1zm9.1.9-.5-.9 1.2-7.3h2.7l-.5 3.5-.4 3.5h2.9v-7.5l1.5 2 1.4 2 1 1.2 1.1 1.2v3.1h-9.9zm77.9-3.7v-4.5h3.7l-1 1.3-1.2 1.4.4.4.3.4.7 2.8.6 2.7h-3.6v-4.5zm319 2.6 1.7-2-.7-1-.6-1.1h1.9l.4 3 .5 3h-5zm99.5 0-5.5-.6-.6-3.3 9.6-2 17.6 1.1-.3 1.6-.4 1.6-1.7-.1-1.7-.2v2.8l-5.8-.2-5.7-.1zm-441.5-1-.5-1 2-1.2v3.1h-.9zm-7.5-2.1v-2.4l2.4 2.4-2.4 2.4zm26.8 1.4-.8-.7v-5.2l1.1 1.8 1 1.8-.3 1.5-.3 1.6-.8-.8zm363.8-3-.6-1.6v-.8h3v2.9l-.9.5-.9.6zm42.4.5v-1l2 1.2v.9h-2zm-81-2.9v-1h2.1l-1.2 2h-.9zm-232.2-3.7 1.3-.5 1.2 1.2h-1.9l-1.9-.2zm215.7-18.2-.5-1 2-1.2v-8.9h-2v-2.9l3.8.5 3.7.6 1.2.3 1.2.4.9 3.3.8 3.3-1.5 1.2-1.6 1.2h-1.7l-1.6.1 1 4h-5.1l-.6-1zm7.3-8.4.3-2.7h-3.1v6.2l1.3-.4 1.2-.5zm-35.8 6.8v-1.5h-4l-1.5-2.4-1.6-2.4 3.2-6.2h2.5l3.1 2.5.6 1.8.6 1.7h-6l1.2 2h3.6v3l-.2 3h-1.5zm-1-9.6v-.9h-2v3.1l2-1.2zm66.8 5.7.4-5.3-1-.7-1-.6-3.2 1.2v2.8h-2l1.2-2.5 1.1-2.5 2.1-.2 2.1-.1 2.8-.1 2.9-.2 1.9 1.4 1.9 1.3v5.5l-2.4 2.4h-3.5l.5 1.5.6 1.5h-4.9zm5.7-3v-2.6l-1-.3-1-.2-.6 6.7 1.3-.4 1.3-.5zm-298.6 5.8-1.3-1.6v-4.2l-.1-4.1 1-.7 1-.8h1.5l-1.2 7.5 1.1 2.8 1 2.7h-1.6l-1.3-1.6zm150.7-.9-2.6-2.4v-4.8l4-3.6 2.5 1.1 2.5 1.2v6.2l-3.8 4.8zm4.4-3v-1.4l-1.5.5-1.5.6.6.9.5.9h1.9zm126 4.5v-1.5l1.6-2 1.5-2 2.8 3.8-.5 1-.6.8-1.3-.5-1.3-.4-2.2 2.2zm-467.5-3.3-.7-3.3.4-3.5.3-3.4 7.6-1.2 1.2 2 .8 11-1.3.8-1.3.9h-6.4zm6-2.6-.6-1.1h-2.9v3.7l.7.7.7.6 2.8-2.8zm-.7-4.9-.3-1.7-2 .4-.3 1.5-.3 1.6h3.2zm55.3 8.2-2.1-2.7v-3.4l2-1.7 1.8-1.8 6.2 4.6v1.6l-1 2-1 1.9-2 1-1.9 1zm2.3-2 1.6-.6v-2.9l-2 1.1-2 1v2h.8zm42.6 3.6v-.9l1.4-1.1 1.4-1.2-.3-1.7-.4-1.7-1-6.5h3.6l-.5 5.5-.4 5.5 3.2 1.2v1.8h-7zm169.3 0-.8-.6v-12.7l3 .5 3.2.5 2.6-1.6 1.4.5 1.3.5v3l-4-1-1 1.6 2.9 5.5 1.2.7 1.2.8-1.2 3h-4.5l-4.5-.1zm5-2.4.5-1.4-.9-1.4-.8-1.4-2.2 2.2.7 1.6.6 1.7h1.6zm-.3-7.3v-1.3l-2 1.2v1.9h2zm9 8.6-2-2v-4.6l2.4-2.4h4.3l3.3 3.7v3l-1.8 1.5-1.7 1.5-2.4 1.4zm3-4.8v-2.7l-2 3v2.5h2zm19.2 6.1-1.3-.5 2.4-2.8-1.2-7h9.4v10h-5.3l-1.4.4-1.3.4zm6.6-4.1.4-1.2h-2l-1.2 3.2 2.4-.8zm75.8 4-.6-.5 1.1-1.4 1.2-1.3-.6-5.5-.5-5.4 10.3.2v13.8h-3.1v-10.9l-.6-.7-.7-.6-1 .7-1.1.6v10.7l-2 .5-1.9.5-.5-.6zm99.6-.3-2.2-.8v-1.2l1.6-2.3 1.5-2.4-1-.7-1.1-.6v-2.8h9v4h-1.1l-4-2-.5 1.3-.5 1.4 1.1 2.8 1 2.8-.7.8-.8.7zm-480-1-1.2-1.3v-6.5l2.6-.6 2.6-.7 4 4-1.9 5.8-4.8.6zm3.8-3.9v-2h-2v4h2zm8 3.6-1.1-1.5.6-5.4 1.8-1 1.7-1.2 1.8 1.1 1.7 1.1v3.7l-2.5.7-2.5.6 1.7.8 1.7.7 1.2-.8 1.2-.7-1 2.8-5 .6zm4.8-5.8-.4-1.2-2.4-.8v3.2h3.2zm5.6 5.6.6-1.6v-6.6l7-.8.8.5.7.6v4.8l.1 4.7h-3.9l.6-2 .5-2h-3.8v4h-3.2zm12.5 1.2-.4-.5.3-4.5.4-4.5 3.6.2 3.7.2.6 4.3.5 4.2-.4.5-.5.5h-2.7v-5h-3v5h-1.7zm72.2-2-1.4-2.5 1.7-2.6 1.6-2.5h3.8l2.3 2.9-.6 6.6-6.1.6zm5.4-4.6-.6-1h-1.9v2h3.1zm6.9 5.3.5-1.8.7-3.8.6-3.7h2l-.5 2.2-.6 2.2.5 2.3.6 2.3h2.8l-.6-8 2 .6 1.4 6.5-1.5 1.4-1.4 1.5h-7zm12.8.5-1.2-1.2v-6.6l2.3-.9 2.2-.9 2.2 2.5 2.3 2.5-1.5 3-1.6 2.9h-3.5zm3.8-5.9v-2l-1.3.3-1.2.5-.3 1.6-.3 1.7h3.1zm6 5.8v-1.5l4.1-1-.3 1.6-.3 1.7-1.8.3-1.7.3zm12.7.5-.4-.7.5-4.3.4-4.2h3l-.6 1.5-.5 1.5h2l.5-1.5.6-1.5h3.8l1 2.6 1 2.7-2.9 4.5h-8zm7-6-.5-1.7v6l.5-1.2.5-1.3-.5-1.7zm18.3 5.9v-1l2-1.2v-4.8l-2-1.2 1.3-2 1.2-1.9h2.5v10.6l2.4 2.4h-7.4zm12-1-1-2v-5l2-1.1 2-1 4 2v5.1l-1 2-1 1.9h-4zm4-2.2 1.2-2.1-2-2-1.1.6-1.1.7v4.9h2zm6.9 3.7-.1-.6-.2-4.8-.1-4.7h4.4l4.5.1v5.2l.1 5.2h-3.5v-5h-3.1l.3 2.2.3 2.1-1.3.4-1.2.5zm17.1-2.1v-2.4h-3.2l1 4h-2.5l-1.2-8.5.9-.8.8-.9 2 1.1 2 1 .5-1.2.4-1.2 2 2 1.3 9.5h-4zm18.4 1 .6-1.7v-6.7h3.2l-.5 1.5-.6 1.4 1 .6.9.6v-4.1l3.5.6.1 3 .2 3 .7 1.8.7 1.7h-4.2v-4.9l-1.5.5-1.5.6v3.8h-3.2zm47.2-1.2.7-2.8v-2l-.8-1.9-.8-1.8 1.9.4 1.9.3 1 2.2 1 2.3 1.2.4 1.3.5-.3-2-.2-2.2 1.1-.4 1-.4.2 3v3.1l.7 2 .6 2h-11.1zm26.4 1.8v-1l2-1.2v-4.8h-2v2h-2v-5h10l1.2 3-1.2 3.2-1.4-1.1-1.4-1.2-.6 1.7-.7 1.7 2.1 2.1v1.6h-6zm25.6-2.6.6-3.5h-2.2v2.1l-2-1.2v-5l9.5.6.3 3 .2 3-3.2-4 .5 4.3.5 4.2h-4.8zm12 2.8-.6-.6v-6.8l-2.1.6-2.1.7.8-2.6 2.8-.7 2.8-.8 1.4.6 1.5.5-1 1.3-1 1.2 2.5 1.2 2.5 1.1-.6 3.3-1.3.5-1.2.4v-4.1h-2v5h-1.7zm59 0-.5-.6.6-1 .7-1.1.2-2.6.3-2.5-1 1.8-1 1.7-1-.5-.9-.6v-4.8h10l1.2 3-.6 1.7-.7 1.6-2.8-3.8v3.3l-.1 3.2h2.1l-1.2 2h-4.6l-.6-.6zm10.9-1.7-1.6-2.3 1-2.7 1-2.6h4.8l2.4 2.4v2.6h-6v1.9l4 1.2-.5 1-.6.9h-3zm4.5-5.2v-1.6l-2.4.8-.8 2.4h3.2zm69 5.6-2-2v-2.8l1.6-1.3 1.7-1.4-.6 2-.7 2 .9 1.3.8 1.3 1.6-.7 1.7-.6v-4.7h2v7.8l-3.2 1.2h-1.8zm26.5 1-2-.9h1.3l1.2-.1v-2.5l-4.4-2-.4-1.3-.4-1.2h4.3l-.7 1.2-.7 1.1 2.1-.5 2.2-.6v3.8h3v1.6l-2.4 2.4h-.6l-.5-.1zm7.5.1v-1l2-1.2v-4.8l-2-1.2.5-.9.5-.8 7.5 1 .9.8.9.9-.8 1.8-.7 1.8-1.5-2.3-1.5-2.2h-2l.4 4.3.3 4.2-4.5.6zm-379-3.5v-3.4l-1.7.2-1.7.1-.3-1.5-.4-1.6 8.2.8-.5 1.5-.6 1.5v5.8h-3zm78.6-1.3.2-4.8.8.2.9.2.4 1.8.3 1.8 1.2.7 1.1.8h1.4l.6-5.3 2.4-.8-1.2 7.1 1.3 1.5 1.2 1.5h-5.1l-1.5-2.2-1.6-2.2v4.4h-2.6l.2-4.8zm276.9 3.6-.6-.9h4.1v-2.1l-4 1.2v-6.6h2.5l-.2 2.3-.3 2.2h3.9l.7 1 .6 1.2-1.8 1.8-2.2.5-2.2.4zm11 .1-.6-1h2.1v2h-.9zm-65.5-2.9v-3.3l1.3.5 1.2.4-.3 1.9-.4 1.9-.9 1-.9.9zm-376.8 1.2-3.2-.4v-3.8l4.4-.6 4.4-.7 2 1.1 2.1 1.1-.5 1.5-.6 1.5h-2.6l-1.4.3-1.3.4zm95.5-2-.7-.6v-3.6h3v.8l-.1.7-.8 1.8-.7 1.8-.7-.7zm-66-3.3-.5-2h1.6l.5 1.5.6 1.4-.8.6-.9.5zm355.3 1v-1.1l2 1.2v.9h-2zm51-1v-1h2.1l-1.2 2h-.9zm-268.5-3-.7-1.1.5-.6.6-.5 1 .7 1.1.6v1.9h-1.9zm4.5-.4v-1.5h2v1.9l-2 1.2zm-136-19.3-1.7-.4.5-5.3.4-5.3-1-.7-1.2-.7v-1.8l4 .4 4 .3 1.5 1.3 1.5 1.2v4.8l-1.6 1.5-1.5 1.6h-2.7l1 4-1.7-.2zm5-8.9v-2.3h-3v4.7l.6.6.7.6.8-.5.9-.5zm25.6 7-.7-2.6-6.7.4-6.7.3v-3.4h-2l-.3 2-.4 2.1-1.5-.3-1.6-.3v-5l-.2-4.9h4.8l4.9-.2.4.8.5.7-1.2 2-1.2 1.8.6 1.7.6 1.6h3.1v-7h2l-.2 1.2-.3 1.3 2 .6.4-1.8.3-1.8 1.2-.7 1.1-.8h2.4l-.4 8.5.8 3.2.9 3.3h-2l-.6-2.6zm-103.4.4-1.2-1.2v-1.5h2.8l.6-2.6.7-2.6 1.4 1.2 1.5 1.2v3.5l-3.7 3.3h-.9zm141.5.6-.7-.7v-3l5-4.6v-5.6l-2.2-2.2 2-1.2 6.2 1.2v10.8l2 1.2v3.9h-1l-2-1.2-1.9-1.2-6.2 3.1-.5.3zm8.3-10.5v-3.8h-1.7l-.7 3.8-.6 3.7v2.7l3-2.4zm171.7 10.4-.7-.6v-3.5l5.2-3.4-.4-4.6-.3-4.7 8 .6 1 1.2-1.2.4-1.3.5v9.7l2 1.2v3.3l-2.4-2.4h-5.4l-2.4 3h-1.5zm7.8-5.4.7-1-.6-2.5-.7-2.5-1 .6-.9.6v5.9h1.9zm39 5-.7-1 .6-.6.6-.7 2.1 2.1-1 .7-1 .6zm102-.6.6-1.6-1.2-.8-1.2-.7.6-1.7.7-1.6 2.2.3 2.3.3.3 2.3.4 2.3-1.2 1.5-1.2 1.4h-3zm-362.3 0-1.2-.5v-1.7h3.8l-1.3-4.5-1.4-4.5 1-.5.9-.6 2 1.2v3.8l2 1.2v3.8l-1.6 1.5-1.5 1.6h-.7l-.7-.2-1.3-.5zm189.9-1.2-1.1-2v-1h2.9l-1-7.5-.3-1.7-.4-1.6 3.2-.4 3.1-.3 4.2.6-1 9.9 2.6 3-.8.8-8 .6-1.2.9-1.2.8zm6.9-2.1v-1h-2v2h2zm-1-9v-1h-.9l-1.2 2h2.1zm-340 11-1.5-1 1.2-1 1.1-1.2-.9-3-.9-3.2.3-.2.2-.2 9.4-.6 1.2 1.2-2.6 4.2 1.3 2 1.2 2v1h-3.9l-.3-2.8-.4-2.7-1.1 2.7-1.2 2.6-.8.5-.9.6zm14-1-2-2v-2.6l1.6-2.2 1.5-2.2h3.7l2.4 3h1.8v-4.1l10.5.6.6 5.5h-2l-1-1.8-1-1.7v3l-.1 3.1 2.4 2.4h-6.2l.5-4.3.4-4.2-2.2 3.6-2-.6-1.9-.6v4.8l-2.4 2.4h-2.6l-2-2zm4.5-4.8v-3.1l-1 .3-.9.3-1 1.6-1 1.5.7 1.7.7 1.8 1.3-.5 1.2-.4zm256.7 5.6-1.2-1.2v-2.5h2.8l.5 1.3.5 1.2.1-1.2.1-1.1-4-9.4v-.9l4.5.6.6 5.5h2l-.6-5.5 5.5-.6v1.9l-3 2.4v5.4l-5.6 5.4h-1l-1.2-1.2zm36 .4-1.3-.9 1.1-2.9 1.2-2.9-1.2-7.1 8.4.6.8 1.3.8 1.2-.3 1.4-.2 1.4-1.1.4-1.2.4.2-1.8.1-1.8-4.5-.6v2.8l1.2 1.2.6 8.1h-3.3zm72.4 0-.6-1 3-2.4v-6.7l-2.2-1.4-1 1.4-.9 1.4.6-5 2.8-.3 2.9-.3 1.5.6 1.6.6-1.8 1.3-1.9 1.3 3.7 1.8 3.7 1.7v2.6l-1.8 2-1.7 2.1-3.6.6-3.7.7zm6.6-6.4-1.2-1.2-.6.7-.6.6.6 1.7.7 1.7 2.3-2.3zm-398.2 5.3v-1h2v-2.1l-2 1.2v-3l2-1.2v-2.1l-1.8.6-1.7.6 2-1.5 1.9-1.5.7.7.7.8 1 9.5h-4.8zm70.5-.8.8-1.7.4-2.3.5-2.2h-1.8l-2.2 2.2-1.2-2 .5-1.4.6-1.4 8.4.4h.8l.7.2v4h-2v-3h-2.3l.6 4.5.7 4.5h-5.2zm11.3.7-1.8-1v-5.6l1.9-1.7 2-1.7 2 1.2 2 1.3 1.2 4.8-1.7 2-1.7 1.8h-2.2l-1.8-1zm4.2-5.5v-1.3l-2.2-1.4-.8 1.3-.8 1.2.5 2 .5 1.8 2.8-2.2zm11.5 5.6-.5-.9.9-.5 1-.6-.6-7h2.7v6h2v-4.9l1.6-1 1.7-.8 3.4.8 1.7 4 1.7 3.9-.5.9-.5.8h-8.6l-2.4-3.2v1.1l-.1 1.2-1.5.5-1.4.6zm10.5-3v-1h-2v2h2zm0-4v-1h-2v2h2zm102 6.9v-1.2l2.4-7.9-1.3-.8-1.4-.8.7-1 .7-1.2h9.8l.6 1 .7 1.1-1.8 1.3-1.7 1.3 1.1 3.3 1.2 3.3v2.7h-2l-3-6.5.5 3.3.4 3.2h-6.9zm25.5-1.6-1.8-2.6 1-3.6.8-3.6 2 1v2.5l.2 2.5.1 2.3.2 2.2h2.9l.6-3.4.7-3.4-2.2-4v-1.4l1.4 1.1 1.4 1.2 1.4 9.3-3.6 2.6h-3.4zm23 .6.7-2.4-.1-4.7-.2-4.8h3l1.2 2h-2l.4 11.5-1.9.3-1.9.4zm6.4 1.4-.1-.8.2-1.8.1-1.8-1.1-1.5-1.2-1.4h2.2v-6h3.5v14h-3.5zm200.6-.2-.5-1 2-1.2v-6.4l-1.5 2-1.5 1.9-2.1-2.1 1.9-3.8h8.7l.6 6-3-4v3.2l-.1 3.2 2 1.2v1.9h-5.9l-.6-1zm21.4.5v-.6l-.1-5.2v-5.3h2.6l1.2 2.3 1.2 2.4 1.2 1.1 1.1 1.2-.6-6 1.5-.2 1.5-.3.2 10h-5.2l-2.3.6-2.2.6v-.6zm14.5-1.4.5-1.7.7-2.8.6-2.7h-3l-.5 1.3-.5 1.2-.2-3.3 2.2-.5 2.1-.6.9.5.8.5v6.9h2v-4l3 1.2v2.6l-1.2 1-1.3 1-3.3.5-3.3.7zm-409.5 0 1.4-1 .2-7.5 2.2-.8-.2 4.8-.1 4.8-4.9.6zm336.5-.8.6-1.6v-6.8h2.6l.2 7.1.5.6.6.5 1-.7 1.2-.7-2.2-2.6 2.2-1.4-1-2.8h2.7l1 7.5-1.6 1.3-1.6 1.2h-6.8zm11.6 1.1v-.4l1.2-2.6 1.1-2.6-2.3-2.3v2.4h-2v-4h8.1l-1.2 4h3.9l.6 1.5.5 1.5-.5 1.5-.6 1.5h-8.8zm5.6-3.2-.6-.6-1.2 1.2.8 1.2.8 1.3.4-1.3.4-1.2zm30.4 1.2-1-2.5 1.2-2.6 1.2-2.5 5 1.2 1.3 1.7 1.2 1.7v1.2l.1 1.2-1.6 1.5-1.5 1.6h-4.9zm4.5-4.5-.8-1.2-1.6 2.6.6.9.5.9 2-2zm-322.5-.3v-2.7h2.9l.5.9.6.8-4 3.6zm-107.5.3-.7-1.2 2-2 1.4 2.4-2 2zm379.5-8v-1h2v2h-2zm-397.6-15.8-1.2-.7.8-5 .7-4.8-.5-1.9-.4-1.8 3.3.6 3.4.7 2.6 2-.6 6.2-2.2 1-2.3 1 .6 1.7.5 1.8h-3.6zm6.1-8.3v-2.4l-1.8-.3-1.7-.3v4.8l.7.7.7.6 1-.3 1.1-.4zm292.5 8-1.2-.6 1-.7 1.2-.7v-9.9h-1.5l-3.6 2.8 1.7 1.7 1.7 1.6-2.2 2.2-8.7.6v-5.4l.1-5.4h19.5l2 3.8v4.1l-4 4v1.8l-2.4.4-2.5.5-1.1-.7zm7-8.4v-2.5h-3v1.8l1.2 3.2h1.8zm113.8 8.8-1.8-.4v-1.9l.9-.5.9-.6v-8.4l-1-1.2-.9-1.2.9-.6.9-.5 7.4 1.2 1.3 2.5 1.4 2.6-2 4.4-2 .5-2 .6.7 1.1.8 1.2-2.8 1.8-1-.2-1.8-.5zm6.2-8.8v-2.5h-1.9l-.6 1-.7 1.1.6 1.4.5 1.5h2.1zm-274.7 6.3-1-1.3-.5-5.3-.5-5.2h3.5l-.5 4-.6 4 1.3 1.5 1.3 1.6-2 2zm86.4 0-.6-1.6 2.4-3.3 2.5-3.2-1.2-4.7h6.9l.5.6.6.5-1.4 5.4 2 5.4-.7.7-.7.8-2.4-2.4h-4.9l-1.2 1.6-1.2 1.7-.6-1.6zm7.3-8.3v-1.5h-2v3h2zm-280.4 7-.6-1.7 2.4.8.8 2.4h-2zm5.1.7-1.7-.4.6-.9.5-1-1.6-.5-1.6-.6 1.2-1.4 1.2-1.5-2.4-5.2 2-2 2 1.4.7 4 .6 3.9 1.4 1.7 1.4 1.8 2-3v-3.6l-1-2-1-1.9h4.1l3.2 7.5.8-2.3.9-2.4-.6-.9-.5-.9h3.3l-.5 1.4-.6 1.5 1.8 6.2-2.4.8-6 .3-6 .4zm493.4-.1-1.5-1v-5l-.1-5 1.3-.6 1.4-.5h.6l-.5 4.4-.5 4.3 1 .7 1.2.7v2.9h-1.5l-1.4-1zm-473-1-1.3-.8-.1-3.4-.2-3.3 5-2.6 1.7 2.1 1.8 2.1-.6.9-.5.9h-4.9v1.9l4 1.2-.5 1-.6.9h-2.4l-1.3-.9zm3-7.4-1-1-.7.6-.6.6.7 1 .6 1.1 2-1.2zm18.5 6 .7-2.2-.2-6.2h5l5-.2-.5 1.5-.6 1.6-1.2 4.6 1.1.6 1.1.7v2l-4.5-.6.6-5.5h-1.1l-1 3-1.1 3h-4zm11.8 1.1-.4-.7 1-.7 1.2-.7-1.2-7.7h5.2l-.6 1.5-.6 1.6 3 3 3.1 3-.6 1-.6.9h-1.9l-1.2-4h-3.3l2.4 2.4v1.1h-5.2zm13.8.3-1.1-.7.2-4 .3-3.9h5.7l1 2 1.2 2 1.5 1.1 1.5 1.2.7-.4.8-.5-.6-3.5-.5-3.4h10.1v1l-1.2 2-1.2 1.9 1.1 2.4 1.2 2.5-1 1-2-.5-1.9-.5v-3.8h-2v4.2l-2.4-.6-2.3-.6-1.4 1.4-3.3.3-3.2.2zm4.8-3.2v-.9h-3v1.7l.6.6.7.6.8-.5.9-.5zm0-3.9v-1h-1.9l-1.2 2h3.1zm20.3 6.8-1-1.3-1-3 1.5-2.8 1.6-2.7h1.6v2h-2v6h4.2l-1.2-4.8 1.4-.5 1.4-.6 1 5.4-1.5 1.8-1.6 1.7h-3.5zm23.4-.6-1.7-1.9v-4.2l2.2-2 2.2-2.1 2.3 2.2 2.3 2.1v3.7l-4 4h-1.7zm4-3.8.6-2.5-2.2-2.2-1 2.7-1.1 2.8.6.9.5.9h1.9zm6.2 4.9v-4.8l.3-4 1.9-2.3-1-.7-1.1-.6 1.2-2 1.3 1 1.2 1.1 1.7-.6 1.6-.6v2.4l-4 1v3.8h1.8l1-4h3.2l-.5 2.3-.6 2.3 1 2.7 1 2.6-.8.6-1 .5-1.5-.6-1.7-.6.6-2 .6-1.8h-2.1l-.2 2.5.1 1.3.2 1.2h-4.1l-.1-.8zm25.7-.9-1.6-1.4-1.2-4.8 1.4-2.8 1.3-2.8 7.5-1.2 1 1v5.6h-2.8l-1-4h-3.2l-.2 2v5l.2 2h3.8l.6-1.5.5-1.5h2.1v2.7l-3.7 3.3h-3.2zm12.4-.4-2-2v-4.7l1.8-1.7 1.9-1.6 5.3 4.1v4.6l-3.7 3.3h-1.3zm3.4-2.5.5-1.5-.5-1.5-.6-1.5h-1.8l-1.2 4 1.2 2h1.8zm30.7 3.2-1-1 1.2-7.2.8-1 .8-.8 2 4.8v-2.3l.1-2.4 1.3.4 1.2.5.4 1.9.3 1.9 1 1.3 1 1.2h5.1l-1.2-7h4.4l2.4 1.6-.6 7.5-.8.8-17.6.6zm4.9-2.7v-1h-3v2h3zm142.5 3.1-4-.6v-7l1.7-2.5h2.9l-1.2 4h2.1v-3h2l1.2 5h2l-.4 2.2-.3 2.1-2 .4zm1.5-3.7v-1.6l-2.4.8-.8 2.4h3.2zm9.8 4-.7-.6 1.2-6-2 .4-1.8.3-.6-4.2 2.6-1 4.3.5 4.2.4v4.9l-2.1-.6-2.2-.7.5 1.8.6 1.9.3 1.5.4 1.5-4 .6zm9.2-.8v-1.6h3v-5.8l-1.6-.6-1.5-.6 1.2-2 .9.5.8.5.5-2.1.6-2.1 1.3.4 1.3.5-.3 4.7-.4 4.7 3.5 3.9h-4.8l-2.3.6-2.2.6zm11.7.7-1.8-.5 2.4-2.8-1.2-7h10.4v5.5l.1 5.6-1.4-.6-1.4-.5h-1.5l.5-2.5.4-2.5h-2l-.4 2.7-.3 2.6-1 .3-1 .2zm22.9-.2-.6-1 1-.6 1.1-.7-.4-5.4-.5-5.4h12.6l1.2 3.2 5.5-.4h1.1l1.1.2v2.8l-.1 2.7 1.6 4.7-2.9-.4-2.8-.3.3-1.8.3-1.7h-2.1v4h-3.9l-.6-10.3-1.3-.5-1.4-.4.4 5.8.3 5.9-9.3.6zm6.2-9.4.3-1.7h-3.1v4.2l1.3-.4 1.2-.5zm-305 8.1 1.2-1.2v-7.6h3.1l-1.2 4h2.4l4.5 4.9-.6.5-.5.6h-2.7v-2.8l-3.2-1.2 1 4h-5.2zm85.2.3v-.9l1.5-.6 1.5-.5v-3.4l-3.3-3.7h2.4l-.6-3.4 1.8-.4 1.7-.3v14.1h-5zm36.7-3.1.6-4h-2.3v2h-2v-4h8.1l-1.2 4h4.2l1.2 3.2-1.7 1.6-1.6 1.6v-4.4h-3v4h-2.8zm58.9 2.4-1.6-1.4v-2.7l.6-1.6.6-1.7 4-2 3.8 3.4v2.5l-2.8 1-2.7 1 2.2.7 2.3.7-.6 1-.5.8h-3.9zm4.4-5.4v-1h-3v2h3zm6.4 2 .1-5h2.7l1 4h2l1-4h2.3l.2 5 .1 5h-9.4zm13.8 3.8-1.2-1.2v-4.9l1.6-1.8 1.5-1.7 2 .5 2 .6 2.8 5.4-2 2.2-2 2.1h-3.5zm4.8-4.9v-1.9h-2.8l-1 2.8 2.1 2.1.9-.5.8-.5zm115.7 4.8-.5-1.4 1.8-2.8v-3l-2.8 3.6-.6-1.7-.6-1.6v-1.5l7.8-1.3 3.2 1.2v5l-1.5-.5-1.4-.6-.7 1-.6 1 1 1.2 1.2 1.1v1.6h-5.8zm10.8-1-1.6-2.4 1-2.7 1.1-2.7 6.5.6.6 6.6-1.2 1.5-1.1 1.4h-3.8zm6-1.8-.6-.8-1.4.5-1.5.6.5.9.6.8 1.4-.5 1.5-.6zm-1-2.9.6-1h-4.1v2h2.9zm18 1.3-.1-5.4 1.4.6 1.4.5h6.6l-.2 3.5-.3 3.6.9.5.8.5-.5 1-.5.8-9.5-.2zm5.6 2.4-.1-.7h-.7l-.7-.1-.5 1.2-.4 1.1 1.2-.3 1.3-.4zm6.8 1.7-1-1.3.7-1.3.8-1.3v-2l.1-2 2.3-.3 2.3-.4 1.5 1.3 1.5 1.2-1 2.6 1.6 1 1.6.9-.6 1.4-.5 1.5h-8.2l-1.2-1.3zm5-4.2.2-3.2h-2.1l1.2 4h-2.2v3.2l1.3-.4 1.2-.5zm20.7 4.9-.6-.9 1.5-.6 1.5-.5v-5.1h-3v-2l3.4-4h2.9l-.7 3.8-.6 3.7v6.5h-3.9zm12-.7-1.6-1.4v-5.6l5.3-2.4 1.8 1.7 1.9 1.7v4.6l-2.2 1.5-2.2 1.6h-1.6zm16.4-.9v-2.5h-4v4h-1.6v-10l2.8 1h5.5v6.5l.7 1.8.8 1.7h-4.2zm6.5 1.7-.5-.5v-7.5l4.8-1.2 3.2 1.2v4.8h2l1.7-1.9 1.8-1.9h8.9l2.6 2-2.2 2.8h-11.6l-.5 1.4-.6 1.4h-4.5l-4.6-.1zm5.3-5 .3-3.2h-3.1l1.2 4h-2.2v3.1l3.5-.6zm-364.8 2.2v-1.9l-1.2-4.5h2.9l-.4 7.1-.7.6-.6.6zm69-1.3v-1.9l1.3-.4 1.2-.5 8.8.6 2 2-.7 1-.7 1.1h-11.9zm-184-2.7v-1.4h4v1.8l-4 1zm49.3 1-1.3-.6v-1.8h4v3h-.8l-.7-.2-1.3-.5zm376.2-2.4-.6-1h4.1v2h-2.9zm-205-23-.5-.9 2-1.2-.4-8.9h-1.8l.4-1.2.5-1.3h7.6l1.5 2.2 1.4 2.3-.6 2.4-.6 2.5-3.8 1.2-1 3.9h-4zm7-8.5v-1.8l-1.3-.4-1.2-.5v5.4l1.3-.4 1.2-.5zm137.2 8.8-.7-.6 1.1-1.4 1.1-1.3-.4-5.5-.5-5.4 4 .3 4 .4.8 1.3.9 1.4v5.1l-2.4 2.4h-3.8l1 1.3 1.2 1.4-.7.6-.6.7h-4.4zm7.1-9.4-.3-2.4-2 .4-.3 1.6-.4 1.6.6 1.6.7 1.6 2-2zm-246 7.4-1.2-1.5 1.7-1.3 1.7-1.2v-4.1l-1-.7-1-.6v-2.7l6.5-1 1.8 1 1.9 1-1.9 2-1.8 2-.6-3.2h-1.9v4h2v6.8l-2.5.4-2.5.5zm11 1.1-.8-.7v-3.7l2-1.2 2-1.3v-2.8l-1.5-1-1.5-1.2.8-1.3.8-1.2 4-.3 3.8-.2 1.2 2.4 1.2 2.3 1.8-2 1.8-2.2h2.2l1.7 1.8 1.7 1.9v5.4l-1 2-1 1.8-2.3-.4-2.2-.5-2.2-3-1.2 6h-3.1v-3h-6.9l-.6 3.2zm6.1-7.8-.5-.5-2.6 4.4 1.8-1.7 1.8-1.8zm13.1-.6v-1h-.9l-1.2 2h2.1zm136.7 8.4-.7-.7v-4.7l3.8-2 1.2-3.4-1.1-1.3-1.1-1.4h8l-.5 3.6-.6 3.7 1.6.8 1.5.9-1 4h-1.8l-1.2-2h-5.2l-1.1 1.6-1.2 1.5zm95.3-2.2v-1.9l2-1.9 2.2-1.9-.4-2.7-.5-2.8h8.5l-1.1 3-1.2 3 1.4 2.1 1.3 2.1-1.9 1.9-2.6-1.2-2.7-1.2-3.7 3.3h-1.3zm-382.5-6.2v-7h3.4l-.4 5.3 1.2.4 1.3.5v-6l4-1 1.2 2-2.2 2.2v3.5l-5.5.6.1 3.3.2 3.2h-3.3zm6 4.7.7-2.2.4-.4.4-.5 2.9 3.9v.8l.1.7h-5.1l.7-2.3zm10 1.3-4-.5-.2-4.3-.1-4.2 3.8-2 4 2 1.2 5h1.8v2.8l-1.3.9-1.2.9zm1.2-4.6-.6-.6-1 .7-1.1.6 1.2 2 1.1-1 1-1zm21.3 4.6v-1l2-3.8-1.2-3.2-2 1.7-1.8 1.7v-6.4l7.5 1h1.3l1.2.1v5.5l-2.8-3.6-.6 1-.7 1 .7 2.6.6 2.5h2.3l-3 2h-3.5zm40.5.1-.6-1-6.4.7-6.5.6v-3.8l-1.4 1.7-1.3 1.8h-3.3l-1.4-2.2 1.2-.8 1.2-.7-.6-2.6-.7-2.5 4-2.2h6.1l-1.2 9h3.4l.6-1.6.6-1.5-1.1-2.5-1.2-2.4 2-.2h4.8l4.7-.1-.8 2.8v3l.6 2.8.7 2.7h-2.9l-.6-1zm187-1.5-2.6-2.5.7-2.3.6-2.2 1-1.2 1-1.3h3.5l1.7 1.8 1.6 1.9-1.2 6-2 1.1-1.8 1.2zm5.5-2.5v-1h-.9l-1.2 2h2.1zm-2-3.5v-1.6h-2v3h2zm74 7.5v-1h2v2h-2zm4.5.2-.4-.5.9-1.7 1-1.7-1.9-6.2.8-.5.7-.5 4 .6 4 .5v6.2l.4 1.5.5 1.4-9.6 1.2-.4-.4zm-322-1.8-1.5-1.5v-2l1-2.4.8-2.4 1.8-.7 1.7-.6 3.7 3.3v5.4l-2.4 2.4h-3.5zm5.5-1.4v-1l-2-2.2-2-2.1-.6 1.6-.6 1.7.6 1.5.5 1.5h4.1zm18.2 1.8-1.2-1.2v-6.5l2-1.1 2-1 2 1 2.1 1.1-.6 8.4-5 .6zm4.6-4-.3-2.1-1.3-.5-1.2-.4v5.2h3.1zm30.2 2.6-1-2.6 1.2-2.6 1.3-2.7 4.4-.6 1.7 2.7 1.8 2.6-1.8 1.3-1.7 1.3 1.2.4 1.3.4-.8 1.2-.7 1.2h-6zm5.5-4.4.6-1h-3.1v2h1.9zm7.7 5.8-1.2-1.2v-6.5l2-1.1 2-1 2 1 1.9 1 .6 2 .7 2.1-1.2 4.9h-5.6zm4.6-2.3-.3-1-1.3-.1-1.2-.2v1.5l.7.7.7.6.9-.3.8-.3zm0-3.7-.4-1.2-2.4-.8v3.2h3.2zm55.2 4.6-1-2.5v-3.7l1.5-1.2 1.4-1.2 2.3.8 2.3.7.7 1 .8 1.2v5.1l-2.4 2.4h-4.6zm4.2-4.4-.9-2.4-1.3 2.3-1.2 2.4 1.3.8 1.4.8 1.6-1.6zm9.4 3 .7-4h-2.3v2h-2v-4.8l5-1.2 4.8 1.2.5 2.4.4 2.4h-1.6l-1-1.8-1-1.7-.2 1.5-.1 1.5v1l1.2 5.5h-5zm11 2.6-2-1.3.2-3.1v-3.3l.7-1 .6-1h3.6l3.3 3.7v4.9l-2.4 2.4h-2.2l-1.9-1.4zm4.4-4v-.4l-1.2-3.2h-1.8l.2 2 .1 2h2.6zm43.3 4.2-1.1-1.3-.4-3v-1.7l.2-1.7 4.2-2.3 2 1.8 1.9 1.8-.6 7.1-5.2.6zm5.1-1.7.6-.9-4-1v2.8h2.9zm-1-4 .6-1-2-1.2-2 1.2.5 1 .6.9h1.8zm6.6 6.6v-.2l-.3-5.2-.2-5.1h9.5l.5.8.5.9-2 1.2v3.9h1.8l-1 4h-3.5l-.6-.7-.7-.6 1.1-1.4 1.1-1.3h-2.1l-1.1 2-1 2h-2v-.2zm11.6-.6-.6-.9 4-1v-5.3l-1.6-.9-1.5-.9 1.5-1.2 1.6-1.3v-2.7h1.9l.8 1.2.7 1.3-.6 5.5 1.7.6 1.7.7-1.4.8-1.3.8 2.5 2.5v1.6h-8.9zm48.7-.5-.7-1 .2-3 .2-3.1 1.6-1.1 1.5-1.2 4 1 1.2 5.3 1.1.7 1.1.8h1.8l-.7-3.9-.6-4h10.1l.5 1.4.6 1.3-1.3 2.3-1.2 2.3 1.2.4 1.1.4v2.4l-21 .1-.7-1zm4.7-2.1v-1.6h-3v3h3zm12 .5v-1h-3.1l1.2 2h1.9zm-12-5v-1h-2v2h2zm20 5.4-2-2.7v-1.4l1.6-2.2 1.5-2.2h3.8l1.5 1.6 1.6 1.5v5.8l-2 1-1.9 1.1h-2zm4-2.4v-2.7l.2-.8-1.1-.3-1.1-.4v6.2h2zm44 3.5-1.3-1.5v-5.2l2-2 2-1.9 2.6 2.5 2.7 2.5v2.1h-6.1l1.2 2h4.1l-2.4 3h-3.6zm4.2-6.7-1.2-1.2-2.4 2.4h4.8zm20.8 6.7-1.2-1.5.6-3.5.7-3.4 1-.6.9-.6-.3 3.8-.2 3.8 5.5-.4v1.5l-2.4 2.4h-3.4zm11 .6v-1.2l1.5-.5 1.5-.6v-5.9h-1.8l-.6 1.7-.7 1.6-2.2-2.2.7-1.6.6-1.6 9.5.6.6 4.5h-2.1v-2h-2v4.6l2.4 2.4h-2.9l-2.3.6-2.2.6v-1.1zm10.6-.6-.6-1.7.7-1.1.8-1.2-.6-3.2 1.4-1 1.3-1.2 2.4 1.2 2.5 1.3.6 4.4 2-1.2-.6 4.7-9.2.6zm5.4-2.5v-1h-3v2h3zm8.1 3.1-1.3-.9 1-.6 1.2-.7v-8h6.9l.4.8.5.7.4 3.5.3 3.5-3.2.6-.2-7.4-.6-.5-.5-.5-.5.5-.6.5-.1 3-.1 2.8.4 1.4.4 1.5-3 .6zm11.4-4.6v-5.6h2.5v3.6l2.1 2.1-2.4 5.3h-2.2zm6 4.5-.6-1 .7-1.1.6-1-1.3-2.5-1.2-2.4.8-.8 2-.4 1.8-.3.2 10.5h-2.4zm9 0-.5-.8 1-2.8 1-2.7-2-2-1.5 1.9-1.4 1.9v-2.2l-.1-2.3 4.8-1.2 2.3.4 2.4.3.6 5-1.5-1.9-1.5-2-.6 1.5-.5 1.4.6 3 .7 1.1.6 1.1-.6.7-.6.6h-2.7zm10.8-.3-1-1.2-1-4.2.9-1.7 1-1.6.7.5.8.5-.4 2.4-.5 2.4 2.1 1.2 2.2 1.1-.6 1-.6.9h-2.7zm-276.6-.4-.5-.8v-3.8l.2-3.7h2.4l-.4 8-.6.5-.6.6zm4-.6 1-1.2-.2-5-.9-1.3-.8-1.4 1.8.4 1.9.3.6 9.5h-4.3zm6.3.3v-1h2v-2.8l-1.5-.6-1.5-.5v-4.2h2l-.6-2.8-.7-2.7 1.5 1.3 1.5 1.2 1.8-.6 1.7-.7-.7 2.1-.6 2.2h2.6l1.4 3.2 1.4 3.1-1 1.5-1 1.6-1 .3-1 .4.2-3.6-2-.4.6 3.9h-5.1zm198-5v-2h3v4h-3zm73 .5v-1.6h2v3h-2zm-335.6-62-1.2-.6.8-11.2 1-1v5.8l2 3 1.7-1.8 1.7-1.7v-4.7l.1-4.6 6-.4 1.3 1 1.2 1-1 1.3-1.2 1.4.4 3.7.5 3.8.7 1.6.7 1.7-8.6 1-2.5.6-2.5.5-1.1-.5zm9.6-7.6v-3l-2 1.2v4.9h2zm274 6.2-2.5-2 2.2-3.6 2.4-.2 2.4-.3 2.3 2 2.4 2-.7 1-.6 1h-3.5l-2 2zm-560.8-1.5-4.2-2.2-2.4-2.4 1.7-1.7 1.6-1.7 3.8 3.4h4.5l3.7-3.2 3.6-3.2 1.2-2.4 1.3-2.4v-5.5l-1.9-1.7-1.8-1.7-5 2-4.4 5.5 4.3 1.6-.4 1.2-.5 1.3-2.2.3-2.3.4-2.1-2.1 3.6-8.1 6.4-4h3.8l5 4h1.8l1.7-1.5 1.7-1.6 6.7-.3 6.6-.4v1.9l-4.3 1.8-4.4 1.9-3.5 4.2-3.6 4.1-.4 3.7-.5 3.7 1.1.7 1.1.8h2.7l-.6-2.3-.6-2.4 2.3-2 2.2-2 3.4-1.2 2.3 2.9-.6 1.5-.5 1.5 4.9 1.2 2.6-1 2.4-18v-9.3h2.3l-1.2 27.1 12.9-.4v-12.1l-1.6 2.2-1.6 2.3-1.4-1.2-1.4-1.1v-3.8l.2-3.6 1.1-4.4 1.2-4.5 1.4-.4 1.4-.5-.7 4-.8 3.8-.3 3.2-.4 3.3h1l4-9h1.9v3.3l-2.4 17.7.7.6.6.7 2.8-3.3 2.7-3.3 3-2.9 3.1-2.8-1.4-1-1.4-.8 1.6-3.3 1.6-3.4-1-1-1 1.8-1 1.7h-2.8l-.6-2-.7-2.1 1.6-2.4 1.6-2.5h2.7l3.6 4-.7 4-.6 4h2.2l9.6-8 .7 1 .6 1-1.5 2.2-1.6 2.2v2.6l9 4.4 1.2 3.8-2.2 2.2v1.5l9 .6-.2 1-.3 1-18 .4-7 1-7 1.2h-5l-18.1-1-1.1 3-1.1 2.9h-2.2v-4.9l-2.8.1h-2.7l-2.2-.6-2.2-.7-.9 1.7-.9 1.6-9.1 1-1.2-2.1-1.2-2.2 1.6-4.2 1.6-4.1 7.9-8v-.8l.1-.7h-4.5l-2.8 3.4-2.7 3.6v3.6l-2.3 2.7-2.2 2.7-3.8 3-3.7 2.9 2.6 1 4.2-.8 4.2-.7 1 1.6-2.2 1.5-2.2 1.6h-4l-4.1-.2zm28.2-7.2 1.6-.6v-2.9h-2l-2 4h.8zm40.4-1.7 2-2.2.7-2.8.7-2.7h-1.6l-7.6 7.4v2.6h3.7zm11.9-1.5.4-1.8 5.7.8.7-1.3.8-1.2-5.8-4.6-2.2-2.2-2.3-2.2-4 3.6v5.6l-1 2.5-1 2.6h8.1zm-10.7-20.5v-.8h-3v1.7h3zm378 31.9v-1.7l2.2-1.4-.4-4.7-.5-4.7 1.8-1.2 1.9-1.1h2.9l5.6 4.8-2 2.1-1.8 2.1h-4.7v3.2l4 1v1.8h-5.8l-3.2 1.2zm8-9.7v-2h-3v4h3zm20.3 10.1-4.2-.6 1-1.5.9-1.5v-7.1l-2.2-2.2 2.1-1.2 2.2-1.1 7.4.6.3 2.4.4 2.3-2.3 2.3-1.2-4.6-3 .6-.5 1.3-.4 1.2 3.2-1.2v6.4l-1.5-.6-1.5-.5v2.9h3.8l1-4h2l.4 1.8.5 1.9-1.2 1.6-1.2 1.7-1-.2-.8-.1zm45.7-.4v-1.5l3-2.4v-6l-3.3-2.5.7-1.1.7-1.2h5.4l2.4 1.6-1 1.4-.9 1.5v7.4l2 .6 2.1.7-.4 1.1-.4 1.2-10.3.6zm22 .4v-1l2-1.2v-8.5l-2.2-2.2.6-1.1.7-1.1h8.5l3.6 2.6-.8 6.5-.9 6.4-11.5.6zm-287.3-.8-.7-.6v-3l1.6-1.2 1.7-1.2-1.8-3.6-1.7-3.6.7-1 .6-1.1h3.8l1 1.7 1 1.8v-1.3l.1-1.2h4.7l.6.7.7.6-1.4 1.6-1.3 1.6-2.6 8-1 1.3-1 1.2h-4.4zm50.1-.3-1.6-1-2.4-7.1 1.7-2.5 1.6-2.5 1 .7 1 .6-.4 5.3.1 2.3.2 2.2h2.9l1.2-4-1.2-5.8 1-.7 1.1-.6 2 5.2v4.9l-4 4h-2.5zm23.8-1.2-1.6-2.2v-6.1l3.2-4.6 7.3.6v5.8l-1.3.5-1.2.4v-3.2l-1-.6-1-.7-3 2.4 1.2 5.3 1 3 4.5-5.7.8 1.1.7 1.2-1.6 2.4-1.6 2.5h-5zm21.4 1.2v-1l1.2-1.9 1.1-1.9-1.6-3.5-1.7-3.5.6-1.6.6-1.5 5 .3 5 .4.9 1.3.9 1.4v4.5h-1.6l-3.8 2.8 3.4 3.4-.5.9-.6.9h-8.9zm9-10v-1h-2v3.1l2-1.2zm16.6 8.5-1.6-2.4v-5.7l1.6-2.2 1.5-2.2h4.7l1.2 1.5 1.2 1.4.5 4 .5 3.8-1.1 2.2-1.2 2.1h-5.7zm4.9-4.7v-4.1l-1.3-.4-1.2-.5v7.9l.7.6.6.7h1.2zm17.5 5.8v-1.6l1-.6 1.2-.7-1.4-9.7 4.9-1.2 7.8.6-.3 6-.2 6-1.7 1.3-1.7 1.2h-9.6zm7.4-2.4.5-.9-.6-3.6-.6-3.7h-1.7v9h1.9zm20.1 2.9-.5-1 .8-.5.9-.5.2-7.1h-1.9v2h-2l-.7-1.7-.6-1.6 2.2-1.9 2.3-1.8h3.3l2.2 1.8 2.3 1.7.6 4.8.7 4.9-2.8 1.8h-6.4l-.6-1zm5.6-5.4-1.1-1.1v3.1l.7.7.8.7.3-1.1.4-1.2zm62.9 5.4v-1l2-1.2v-7.5l-2-2 1.4-1.3 1.5-1.3h7.2l.7.6.6.7v7l.1 7-4-.6.6-5.5h-3l-.7 1-.6 1.2 2.2 2.2v1.6h-6zm8-9.6v-1.5h-3v3h3zm6 2.3v-1.3l1-1.5.9-1.4.6.6.7.6-.7 2.1-.6 2.1h-1.9v-1.3zm26.7-1.4-.7-.7v-3.1l2.2 2.2-.4 1.2-.3 1.1zm-448.7-22.7v-1.7l3.4-5.4 2.4-2.7 2.4-2.6-.7-2-.6-2.1 2-3.6-1.4-1.8-1.3-1.8-.7 1-.6 1.1h-3.9l1.2-7.5 1-1.1 1.2-1.2 3.2.5 3.1.5.6 4.1.7 4.2v2l.1 2-.7 2.4-.8 2.3 2.4-.8 2.4-.9h11.8l.4 1.3.5 1.2h-8.7l-4.5 1.4-4.4 1.3-10.6 11.8v-1.8zm7.5-27.7.6-1h-2.1v2h.9zm-16.9 10.2-.4-.7.7-4 .8-4.2-.9-2.2-.8-2.2 9.5.6v8l-4.4 2-.4 1.7-.5 1.8h-3.2zm5.7-6.8.6-.6-1.2-3-.8 1.4-.9 1.3v1.5h1.7zm39.7 5.2v-1.4l1.8-.7 1.7-.7-2-.8-2-.9h-1.3l-1.2-.1v4l-1.5.7-1.6.5-.5-.5-.6-.5 3.7-11.3 1.7.5 1.8.4.5-.9.6-.8 6.4 1.2.6 1 .6.8-1 5.4-2 2.8-1.8 2.7h-3.9zm5-8.7v-2l-1.3.3-1.2.5-.3 1.6-.3 1.7h3.1zm5 9.3v-1l1.5-3.7 1.6-3.7-.6-4.3h4l.2 2 .3 2-4.6 8.9-2.4.8zm-151.5-1.8-1.4-1.5.5-1.4.6-1.5h.8l2 1.2 2 1.3 2-1.3 2-1.2.6 1.5.6 1.6-.5.5-.5.6-3.6.8-3.7.8zm14.7 0-3.4-1.4 1.4-10.5.5-.8.4-.7h4.9l1.6 2.6 1.7 2.5-2.3 2.3v4.5l2 1.2v1.9h-3.5l-3.3-1.5zm1.8-3.4v-1h-3.1l1.2 2h1.9zm0-7v-1h-2v2h2zm19.7 9.2-1.7-1.9v-7.2l1.6-1.5 1.4-1.6h.7l-.2 5.3-.1 5.2h4l.6-6.6-1.2-1.5-1.2-1.4 1-1 1.6.5 1.5.6.7 2.6.6 2.5-.7 2.1-.6 2.2-3.1 3.5h-3.4zm40.7.7-.6-1-2.3.5-2.4.6-1.4-2.2 2.6-1.6-1.2-3.2-1.7.7-1.6.6-2-2.8.5 4.3.5 4.2h-4.7l.6-3.4.5-3.5-2 .6-2.2.5v-3.1l2-1.2 18.8-.5.4 4.8.3 4.9-1.9 1.9h-1.5zm.1-7.9-.6-1h-1.9v2h3.1zm93.5 7.5-1.2-1.4.4-1.8.3-1.8 3.1-.6 3.9 1.7 3.9 1.6-2.5 1.9-2.4 1.9h-4.3zm-86-1.4-1-2v-3l3.4-3.5 3.3-3.6h2.8l-1.8 1-1.7 1.1v2.7l3 2.4v3.7l-1.6 1.5-1.5 1.6h-3.9l-1-2zm5.7-2.6.3-1-1-1.4-.8-1.5-3.1 2.5 1.2 3 3-.6zm-41.9-1-.3-4.4 1.7-.5 1.8-.4.6.9.5 1 2.5-.7 2.4-.6v3l-1.3.5-1.2.4 1.3 2.2 1.2 2v1h-4.4l-4.4-.2zm-45.8.5v-1h1.8l1.2-3.2-.7-1-.6-1.1-.9 2.2-.8 2.3-1.2-.4-1.3-.5-.6-4 1.5-1.2 1.5-1.3 2 .7 2 .6 1.5 1.4 1.4 1.5-1 3.8-2.4 1-2.5 1.2h-.9zm29.5-26-.5-.9 2.2-1.4 17.3-.5 13-1 2.3.5 2.2.5v1.8h-6.6l-2.4 2.4v-2.4h-3.6l-2.2 2.2-3.4-2-13.3.9-4.5.6zm41.9-1.5.6-1.8-1.5 1.3-1.6 1.3-2.3-2.3 2.2-2.2 2.8.4 2.7.3.8 2.4-2.2 1.1-2.2 1.2zm5.5-.2-1.4-1.6 3.2.6 3.3.6-.3-1.2-.2-1.2 3.5.1 3.5.2h6l13 .3h7l.4.5.4.4-.4.5-.5.4-27.6 1.8-.5-1.4-.5-1.3h-1.8l.5 1.5.6 1.5h-7l-1.3-1.7zm-96.7-23.1-3.3-.3.7-6.8.6-6.8-2.2-1.4.5-1 .6-.9h9.4l1.1.8 1.1.7 1.2 6 .7 2.8.6 2.8-3.3 3.7-2.2.3-2.2.4zm4.8-3.2v-1h3v-4l-2.6-.6-2.6-.7-2.6 2.8.9 2.3.8 2.2h3.1zm.5-10v-1.5l-4.5-.6v4.2l4.5-.6zm9.2 12.2-1.7-1.9v-4.3l1.6-2.4 1.6-2.5h6.4l1.7 2.9 1.7 3v2.6l-4.5 2.3-4.5 2.1h-.7zm6.8-5.7v-3l-4.3-.6-.6 2.7-.7 2.7 1.3.9 1.3.8 1.5-.3 1.5-.2zm7 3.1-1.7-2.6 2.4-6 4-1.2 1.8 1.7 1.9 1.7-.6 1.4-.5 1.4h-5.8v1.5l.9 1.3.8 1.3 5.3-2.4.7.7.7.6-2 2-3 .6-3.2.6zm4.5-6v-.5l-1-.6-.9-.5-1.2 2h3.1zm6.6 7.5-.5-.7.4-9.4h1.7l.5 2 .5 1.9 1.4.5 1.3.5.8-1.2.7-1.2v-1.2l.1-1.3h1.8l.4 6.5.4 1.4.4 1.5-3.6.8.6-3.6-1.8-.4-1.9-.4.6 2 .7 2-4.1 1zm12.4 0 1.4-1-.4-10.1h1.8l1 4h4.3l.9-2.3.9-2.2v3.2l.1 3.1 1.3.5 1.2.5-1.3 1-1.4 1 .4 1.6-2.2.8v-5.2h-4v3.6l-2.4 2.4h-3.1l1.5-1zm15.6-.9-.6-.5v-9.7h1.1l2.4 2 2.5 2 2.5 1.9-1 1.7-1.2 1.8-5.2 1.4zm5.2-4-.3-1.7h-3l-.6 3.5h4.2zm17.7 3.9-.6-1 .6-2.8.7-2.8-3.1 3.5-3 3.5v-4.2l-.1-4.2 2-1.2v3.2l6-4.2v10l-1 .6-.9.5zm44.9-2 .6-2.6.6-3.3.7-3.2h6.6l-1.2 6 3.6 4-.6.7-.7.6-10.2.6zm6.6-3.7v-3.4l-3.4.6-1.4 5.4.6.5.5.6h3.7zm-64.1 4.5v-5.4l.3-4 .4-.5.5-.4 1.8 2.8-.6 6.7-2.3 2.3-.1-1.4zm30.6 0-3-.8-1.3-3.4-1.2-3.3v-3.6l3-2.9 2.8-2.9h6.2l2.5 2.5 2.5 2.4v7l-4.5 4.9-4 1zm6.3-2.5 2.3-1.6 1-2.4.9-2.4-2.2-4.8-2.5-1.1-2.5-1.2-2.3 1.5-2.2 1.4-2.6 6.4 1 1.7 1 1.6 2.4 1.2 2.4 1.3h1.1zm51.2 1.5-1.2-2-2.6 3.6-.7-.7-.8-.7 1.6-3.3 1.5-3.3.4-2 .3-2h5l.6 7.9-.5 2.3-.6 2.3h-2zm1-7.2v-2.2l-2 3v1.5h2zm-40 5.1 1-3.3v-.7l-4 1v-3.8h9.2l-.5 1.3-.4 1.2h-2.8v7l-3.4.6 1-3.3zm25.8 2.5-1.8-.4v-15.9h2.2l-.4 7.5.1 1.8.1 1.7h4.9l1.2 2-1 2-1.2 2-2.4-.2zm3.7-2.3.6-1-3.2-1.2-1.1 1.1.7 1 .6 1.1h1.8zm18.4 1.8-.1-1.3v-1l.5-3.3.6-3.2h-4l1.2-2h5.9v2.9l2.7 1.3 2.8 1.3v6l-9.5.6zm6.6-2.9v-1.4l-1.8-.3-1.7-.3v2.8l.7.7.7.6 1-.3 1.1-.4zm-36.5 0v-1l2 1.2v.9h-2zm1-4.9v-1h2v2h-2zm-60-2.5-1.3-1.5.7-.7.6-.7 1.5 2 1.5 1.9 1.5-2 1.5-1.9 2.5 2.5-1.5 1-1.5.9h-4.3zm-48.6-20 1.8-10.4 1.4-1.1 1.3-1.2 2 .7 2.1.6v5.6l.6 5 .7 4.8-2-1.8-2-1.7h-4.3v3h-2.2zm6.1-5.8v-2.7l-1-.3-1-.2-.6 6.7 1.3-.4 1.3-.5zm6.2 5.7-.7-.7v-10.2l.8-1.2.8-1.3 3.2.3 3.2.2v2.4l-1.7.4-1.8.5h1.8l1.7.2v1.9l-5.5.6-.3 2.2-.3 2.3h6.3l-.4 1.2-.5 1.3-5.9.6zm14.3-.8v-1.6l1-2.7 1-2.6-1.1-1.4-1.2-1.4-1.2 1-1.3 1v7.1l-1.2 1.2-1.1-1.1 1.4-10.2h8l-.7 2.3-.6 2.2v7.5h-3zm6.1.5-1.4-.9.7-1 .7-1.2h3l-.6-2.3-.7-2.2-1-1-.8-.9v-2.7l2.6 2.6 1.2 2 1.1 2 1.1-3.3 1.2-3.2h1.7l-3 8.5-1.5 2.2-1.4 2.3h-1.5zm12.3-4.5.7-5.6-1.5-.6-1.6-.6.6-.9.5-.9h7.9v2h-4l.2 5.7.3 5.7-3.8.8zm28.3 4.7-.7-.6v-6.7l1.1-2.5 1.2-2.5 1.2-.5 1.3-.4 2 1.4 2.2 1.5v5.8l-1 2.5-1 2.6h-5.7zm6.1-7.2-.3-3.6-3.4-.6v4.6l.5 2.2.4 2.2 1.6-.6 1.5-.6zm-25.5.9 2-6h3.7v.8l.2.7.6 3 1.4 8-2-2-.4-2-.3-2-1.8-.3-1.7-.4-.6 3.1-.7 3.1h-2.4zm4.7-3v-1h-3.1l1.2 2h1.9zm7.6 8.2-.5-.8.8-8.6-2-.5-1.9-.5v-1.8h9.1l-1.2 2h-2.9l.5 5.5.4 5.5h-1.9zm32.3.1-1.6-.4 1-8.9-1.3-1.5-1.2-1.5h4.4l-1 4h4.8l4 4-.6 1.4-.6 1.5-3 1-3.1 1.1-.2-.2zm4-2.8 1.3-1.4-.7-1-.6-1.1h-2.9l-.6 1-.7 1.1.6 1.4.5 1.5h1.9zm-17.4-2.5-.7-5 .7-1 .6-1h4.8l.7 1.1.6 1.1.5 3.3.4 3.2-1.6 1.7-1.6 1.6h-3.7zm5.5 1.4v-1.6l-2.4.8-.8 2.4h3.2zm-1.1-3.7 1-1.4-.6-.6-.6-.7h-2.7v4h1.8zm-148.9-19.2v-5.5l2.4-1.2 2.5-1 1.5.5 1.6.6v4.8l-3.4 3.7-3.6 3.6h-1zm5-3.6v-2l-1.3.3-1.2.5-.3 1.6-.3 1.7h3.1zm8.6 8.2-.6-1-2.2.7-2.1.5.6-4.7.7-4.7 1-1.9 1-2 1.4.6 1.4.5 3.2 11.5v1.4h-3.9zm.4-3.1v-1h-2v2h2zm6.4 2.8-.7-1.1-.3-5.4-.2-5.3 1.5-.9 1.6-.8 1.8.4 1.9.5v1.8l-4.5.6.4 2 2.3.3 2.3.4 1.2 1 1.1 1 1.7-3.6 1.7-3.4 1.6-.7 1.7-.6 2.2 2.8 2.3 2.8.1 1.5.2 1.5 1.2-7.6 2 .4-.6 3.7h3.1v-5h3v8h1.8l1.2-3.2v-3.9h2v4h2l2-5.1 2 1.2v9.9h2l1.2-2.5 1-2.4-1.6-2.5-1.6-2.6v-1h2.8l1.2 3.2 2-2.3 2.1-2.4-1.2 7.7 1.6 2.5 1.7 2.5-1 1-2.2-1.2-2.3-1.2-.7 1.2-.9 1.4v2.2l-7.1-2.2.5-1.7.4-1.8-.7-.5-.8-.4-1.1 2.4-1.3 2.6h-4.8l-3.2-1.2v-3.8h-2v5h-3.8l-.5-1.3-.5-1.2-.2 3.5h-8.6l-2.2-2.2-4.6 3.2h-2.6zm4.6-4.3v-1.5h-3v1.7l.7.6.6.7h1.7zm11.5.5.6-1-.6-3-.7-3h-2.8l-.6 1.6-.6 1.5 1.1 2.5 1.1 2.4h1.9zm102.5 2.6v-1.4l1.5-2.8 1.5-2.9v-6.5h6v10.1l2-1.2 2.2-8.9h5.8l.2 4.5.3 3.8.4 3.7h-2.9v-5h-3v1.9l-3 3.3-3 3.2v-3.4h-4.8l-.6 1.5-.5 1.5h-2.1zm7-7.2v-3.6l-1.3.4-1.2.5-.6 6.3h3.1zm9.2-2.9v-1l-1.1-.3-1.1-.4v3.4l1-.4 1.2-.3zm44.8 10.5-1.5-1h-11.4l-3.1-3.1-2 1-1.9 1.1h-3.9l-2.6-2.5-2.6-2.4v-5.7l2.4-2.4h4.6v2.2l-1.5-.6-1.5-.5-2 3.8 2.7 2.6 2.8 2.5h1.5v-7.5l2-3 1 1.5.9 1.4 3.9-3.5 1.2 2-1.6.9-1.6 1 1.2 3.4 1.3 3.5 2 1.2 1.9 1.2-.4-7.6.1-2.8.1-2.7h2.2l-.4 3-.5 3 .9.6.8.5v-4.1h2v2.9l5.8 3 .5 1.6.6 1.5h2.1l-.2-1.8-.3-1.7 2-.3 2.2-.3 2.5 3.1h2.6l.4-1.1.4-1.2 4.4 1.4v1.9h-4.8l-2.2 2.8-4.5-.6-4.5-.5-.6 1.7-.6 1.6h-1.3zm-15.5-9-.8-1.2-1.6 2.6.6.9.5.9 2-2zm-108.5 8-1.4-.9 1.4-9-4.4-1.4 1.6-1 1.5-.8 3.2 1.2v2.9l2.8 1.3 2.7 1.3.6 4.4-3 1.5-3 1.6h-.6zm4.6-5.5-.6-1.5h-2l-.7 1.6-.6 1.6 1.4.9 1.4.8 1.8-1.8zm30.1 3.4-3-3 1.2-6.5 2.8-2.8 1.9.8 1.8.7-2.3.9-2.2.8v5.6l.8 1.1.7 1.1 4.6 2.4-.6 1-.6.9h-2zm9.4.8-1.2-1.2v-6.6l1-2 1-1.9h3.8l1.2 3.2v6.7l-1.6 1.5-1.3 1.6h-1.5zm4.2-3.3.5-1.5-.9-2.5-1-2.5h-.9l-2.2 4 1.2 4h2.7zm39.2 3-.6-1.8.6-3.5.7-3.5-1.8-1.4-1.9-1.3.5-.1.4-.1 8.5-.8v1.8l-2 .5-1.8.5v9.4l-2 2-.6-1.8zm-69.5-3.4v-4h2v2.5l1.5-2 1.5-1.9.3.5.4.4 1.2 7.5-1 .6-1.1.7-.8-1.3-.8-1.2-.6 1-.7 1.2h-1.9zm34.3 2.8.5-1.5 1.4-9.3h5.8l.3 1.7.3 1.6-.4 4.4-.3 4.3h-1.9v-10.2l-1.3.4-1.2.5-1 8.6-2.8 1zm74-9.3-.5-1.6.5-.5.5-.6 1.2 2.2 1 2.1h-2zm-172.9-16.7-.7-2.2-2.4 3.4h-5.3v-10h-2.3l2.6-2 2.5-2h2.3l1.4 3.3 1.4 3.2v-2.5l.1-2.6 2.4-2.4h4.6v2.2l-4 1v2.8h3.5l-3.5 2.7v3.3h4v2l-5.1 2h-.9zm-3.4-4.2v-2.4l-1.2-3.2-.9.6-.9.5v5.6l.7.6.6.7h1.7zm20.8 5.1-1.6-1.2.6-6.5.7-6.5 4.5-.6 1 2.3.8 2.3.7-1.8.7-1.7h3.8l1 2 1 1.8-.5 4.6-.7 4.5-1.8.6-1.9.6-2-1.2v-4.9h-4.8l-1.2 1.2 1 2.5 1 2.6-.4.3-.3.4zm10-9.5-.5-1.7-.8 1.8-.7 1.7.7 1.8.8 1.7.8-3.5zm-6.8-.1v-2l-2-1.2v5.1h2zm-10.5 8.1-1-.7.3-6.3.4-6.2h1.8l.5 2.3.5 2.2-.6 8.4-1 1zm22.7-5.9.3-6.8 2 1v11.8l-1.3.5-1.3.4zm57.8 5.7v-1h-5l1.2-5.5 2-6.8 1.9 3.4 1.8 3.4v1.8l.1 1.7h2.2l-1-6.5-.4-1.9-.3-1.8 3.4-2.2.8.7.7.8-2.8 1.8 1 3.4 1.1 3.4-1 2-1 1.8-3.2 2.4h-.7l-.8.1zm-.7-5.3-.5-.9-2 2 1.4 2.4.9-1.3.8-1.3zm11.7.4v-6l2-1.2v11.1l1-.6.9-.5-.4-10h1.4l1 2 1.1 1.9v6.8l-2.4 2.4h-4.6zm-62-1.5v-6.4l2.5-.6 2.6-.7 1 .6.9.6v7.4l-3 2.8-2.8 2.7h-1.2zm5-2.6v-1.9l-2-1.2-.6 1.5-.6 1.6.6 1.6.6 1.5 2-1.2zm3.3 6.2.4-2.7 1.1-2.8 1.2-2.9-1.2-2 1.8.4 1.8.3 2.6 10-.4 1.1-.5 1.2h-7.1zm11.8 1.9-1.4-.9 1.2-10.5 1.9-1.9 4 2.2.7 2 .6 2-3.6 7.4-2 .6zm3.9-4 1-2v-4l-1-.6-1.1-.7-.3.3-.3.4-.7 4.3-.6 4.2h2zm11.6-1.9.7-6.7.4-.5.4-.4.6 2.2.5 2.2h1.6l1-4h1.7l-.4 10.5v1.8l-.1 1.7h-2v-7.5l-1.5 2-1.5 1.9v3.6h-2zm54 4.7-1.3-2-2.5 3.1h-3.8l-.6-2.6-.7-2.7 1-3.6.8-3.6 5-.6-1.8 1.4-1.7 1.4v7l2.3-.4 2.4-.5 1.8-9.2 1.1-.3 1.2-.4 3.2 3.2v8.4l-.8 1-.7 1.1-1.7.7-1.7.6-1.4-2zm4.2-4.3.4-1.8-.6-2.4-.7-2.5-1 .6-.9.6v8l1.3-.3 1.2-.5zm5 5.3-1.8-1v-5.4l1-3.7 1-3.6 1.5-.6 1.5-.5 2 3.8v3.1h-1.9l-1.5 1.5-1.5 1.6.6 1.5.5 1.5 2-.6 1.8-.6v1.7l-2.4 2.4h-1.1l-1.7-1zm3.2-10.4v-1.5h-2v3h2zm6 6.5v-5l-3-1.2.6-.9.5-.9h6.1l-.6 1.7-.7 1.6 2 1.9 2.1 1.8v2.7l-1.2 3.2h-5.8zm4 .6v-1.6l-2-1.2v4.2h2zm-83.1 3-.4-.5 1-11.4 2.8-1-1.4 3.6 1.3.8 1.2.7-2.8 3.4 1.2 1.8 1.1 1.8-1.5.6-1.6.6h-.5zm-87.6-28.6-1.7-2-3.6 3.4-1-1-.8-.9 1.9-14.9 1-1.3 1.2-1.3-.4-.5-.5-.4-2.6 1.6-1.4 6.7-1.1.3-1.2.4-.6-3.5-.7-3.4 1-1.8 1-1.7 6.5-1.7 6.7-1.7.6.5.5.5-7 6.2-1.7 9.1 1 2.5 1.1 2.4.6-5.4.5-5.4 3.2-2 2 .8 1.8.8-3.3.8-.8 4.4 1.2 5 3.4.6.1-3.8.2-3.8v-2.4l.2-2.4 5-.4 1.3.5 1.2.4-.4 15-1.2.5-1.3.5-3-1.5-3.2-1.7-1 2-1 1.9h-2zm11.7-6 .4-5.3-1.3-.4-1.2-.5v9.2h2zm85.3 6.7-1-1.3.8-12.4h1.8v4.5l2 1.3 2 1.2v3.7l-1.9 2.1-1.8 2.2h-.8zm3-4.6.6-1-2-1.2v3.1h.9zm-65.9 4-.3-.6 1.1-14.5.8.6.9.5v3.9h2v-4h2.5v13.8l-6.6.8zm-17.8-.8-.7-.6v-9.8l1-2 1-1.9h3.1l2.2 4-.2 1.8-.1 1.7v1.1l.2 1.2 2.1.5 2.1.6-.4-5.4-.5-5.4 1.4-.5 1.2-.6 2.8 1 1.2 4.4v9.2l-.7.6-.6.7-1.3-1-1.2-1.1-.7 1-.5 1.2h-5v-2.4l-2.4 2.4h-3.3zm3.4-8.3v-4l-2 1.2v5.6l.7.6.6.7h.7zm9.7-2.1-.5-1.3v5l.5-1.3.5-1.2zm13.7 9 .6-2.3v-9.6h2v3h2v-3h2v14h-2l-.2-6.5-2 6.5h-3zm11.3-3.5.6-5.6-1.6.6-1.7.6v-4h6.9l.6 1 .7 1.1-2 .6-2.2.5.6 5.4.7 5.4h-3.3zm6.6 4.1-.6-1.5.7-4.7.6-4.6 2-2 1.5 1.4 1.5 1.2v8.6l-1.2 3.2h-3.9zm3.7-2.9v-1.6h-3v1.7l.7.6.6.7h1.7zm4.5 3.5-.6-1 2.9-4.1-.5-4-.6-3.9h2.3v10h2v-9h2l-.2 13h-1.4l-2.2-2.2-.6 1.1-.7 1.1h-1.9zm9.8 0-1.1-1.2 1-3 1-2.8-.6-1.5-.5-1.5.5-1.5.6-1.5h2l-.6 1.5-.5 1.5.5 1.5.6 1.5h1.6l.5-2.1.6-2.1 1 .7 1.1.6-.7 1.2-.8 1.2v8l-5 .6-1.2-1.2zm4.7-3.5v-1.6h-2v3h2zm20.3-2.4.2-7 1.3-.1h1.3l-.6 13.3-1.2.4-1.3.5zm5.2-.3.5-9.8h6.1l-.6 1-.5.9 2 1.2-1 2-1.1 2 .6 9.4-6.4.6zm22.9 1.5.3-5.8-.9-1.7-.8-1.7.6-1.6.7-1.7 2 .6 2.1.5 1.3-1 1.3-1.1 1.5.6 1.5.5v6.2l-1.4-.5-1.5-.6-.6 1.8-.6 1.9 2.6 5.7 2 1.4-2.4 2.4-1.5-.6-1.6-.6v-6.1h-2v7h-2.9zm4.5-6v-.8l-1.8-4 .2 2.8.1 2.7h1.6v-.8zm7.1 10.2-1.3-1.5.6-4.1.5-4.2 1.6-1.5 1.6-1.6 1.2 1.2 1.6 7.2h-1.6l-1.4-5.5-1 1.8-.9 1.7 2.2 4 2-1.2-.6 4.7-3.2.6zm7.4-5 .2-6.4 1.6-1.6 1.3 1.9 1.4 1.8 1-.7 1.1-.6v-3h2.5l-.2 14-1.4 1.4-1.6-2.6-2.1 1.1-2 1.1h-2zm3.6 1v-1.6l-2 1.2v1.8h2zm7.6 4-.6-1.6.7-6 .6-5.9h1.7v1.8l.1 1.7 2-4.8 1.8 1.8.5 14-6.1.6zm11.1 1-.4-.5 1-10-1.4.2-1.4.3v-4l3.3-.6 3.3-.7.6 1.6.6 1.5-3.6 2.6 1.2 8.9-1.3.5-1.4.6zm-85.3-6.6.5-6.1.5-.6.6-.5v6.2h2v-1.3l-.2-1.2v-1.8l.2-1.8.9.5.9.6v6l-.1 6h-5.8l.5-6.1zm92.8 5.4-1.2-.5v-10.5l1.4-2 1.5-1.9 1.2 1.3 1.3 1.2h5.6v2l-4 3.4 1.2 4.6-2.4 3h-1.8l-1.6-.2z"/>
</svg>
