<?xml version="1.0" encoding="utf-8"?>
<svg xmlns="http://www.w3.org/2000/svg" viewBox="0 0 867 804">
	<title>A form with questions about personal information and household items.</title>
	<path d="m474.7 795.9-1.7-1-3-5.8v-6.6l2.5-3.8 2.6-3.7h1.9v1.1l-2.8 4.4-.7 4.3-.7 4.2 2.2 3.6 2 3.7-.2.3-.3.2zm335 .5-.5-.6 2-3.4 2-3.5-1-9-3.2-3.6v-1.3h2.1l1.6 1.5 1.5 1.6 1.4 4.6 1.4 4.7-2.2 4.5-2.3 4.5-1 .3-1.1.3zm-329.4-7.2-.5-2.3 1.2-1.2 2.3 2.1 2.3 2.2h4.5l-.6-4.2-3.4-1.2-3.4-1.1-1-1.6-1-1.7 3.4-5.2 4 .2 3.9.3v4.9l-4-4.4h-1.5l-1.4 1-1.4.8 1.2 3.2h3.3l3 1.7 3 1.8 1-2.6 2.4-1 2.5-.9 2 1.3 1.9 1.2v2.5h-5.9l-.7 1.2-.7 1.1 1.7 1.3 1.8 1.3 1.4-.6 1.4-.5v2.2h-5.7l-3.6-4-1.3 1.9-1.4 2-10 .6zm20.2-6.2.6-1h-3.1v2h1.9zm48.3 7.8 1.2-1.2v-5.4l-3-1.2 1.7-2 1.8-1.9 1.3-1.6 1.4-1.6 1.6.3 1.7.3.3 1.8.3 1.7h-4.6l2 1.2 1.8 1-1.8 1.4-1.8 1.3.6 3.6.6 3.5h-6.3zm44.3.3-2.4-.6-1-1.7-1.1-1.7 2-5.6 3.6-.3 3.7-.3 1 2 1.1 2-2.7.7-2.8.6-1.4.4-1.5.5 1.6 1.5 1.6 1.6 2-1.1 2.2-1.2v2l-1.8 1-1.7.8zm77.2-.2-2.2-.8-1-1.8-.9-1.8 1.6-4 1.5-1.3 1.5-1.2 2.7 1 2.6 1-.3 1.8-.3 1.7-2.8.3-2.7.3v2.7l1.7.6 1.6.7 2.1-2.1h1.7l-1.2 2-3.4 1.8zm1.7-7.9v-1h-.9l-1.2 2h2.1zm18.6 6.7-2.6-2.7v-6.8l2.5-2.7 2.4-2.6h9.1v6h-1.1l-2.3-2.6-2.2-2.7-2.3 1.2-2.2 1.2.6 10.4 2.9 1 2.8 1 1.8-2.3 1.8-2.2h2.2v-2.9l1.6-1.5 1.5-1.6h4.9l1.6 2.4 1.6 2.5-1.4 2.8-1.3 2.8-3.3.3-3.2.3-.6-1.5-.6-1.6h-2.1l-1.7 1.5-1.6 1.5-3.1.6-3.2.6zm19.9-3.8v-3.4l-1.8-.3-1.7-.3v6.8l.7.7.7.6 1-.3 1.1-.4zm63.8 5.3-1.3-.8-.8-4.5-.8-4.4.6-2.4.6-2.5 2.4-.8v4l1.8.7 1.7.6-1.8 1-1.7 1v5.1l4 1v1.6l-3.2 1.2h-.3zm17.7-1.2-2-2-1.2 1.5-1.1 1.4h-5.7l-1.5-2.1-1.4-2.1 1-3 1-2.8 2.5-.6 2.4-.6 2.2 2 2.3 2.2 3.4-4h3.7l1.6 1.8 1.7 1.8-2.4 2.4h-4.5v1.8l2.6 2 1.4-.8 1.5-1h5.5v3h-2.9l-1.2-2-3 3h-3.9zm-3-3.2 1-1.9h-5l-.6 1-.7 1.1.6 1.4.5 1.5 3.2-1.2zm-282.6 2.8-.4-1.2.2-3.5.3-3.5 2.6-1 2.7-.8 1.5 1.3 1.6 1.2v5.4l2.4 2.4-1 .1-.9.1-8.6.8zm5-2.8-.6-.9h-1.8v4.2l3-2.4zm7.3-2.4.4-6.5-2.4-3h5l.4 8 .3 8h-4zm16 4-1.1-2.5 1.1-2.5 1.1-2.4 2.6-.7 2.6-.6 2 1.7 1.9 1.8v3.3l-1.6 2.2-1.5 2.2h-6zm6.8-1 .6-2.5-.6-1.5-.5-1.5h-3l-1.2 4 1 2 1.2 2h1.9zm28 2.8-.6-.6v-6.6l-1-.5-.8-.6 3-6 .9.5.9.6v2.8l3.2 1.8-3.2 1.2v5.2l1.5.5 1.5.6v1.8h-4.6zm7.9-7.3v-8l1.5.2 1.5.3.3 2.8.3 2.7h4.8l1.2 2 .8 8h-5.1l1-1.3 1-1.2-1-6.6-1.2.4-1.1.4v4.2l.2 4.1h-4.2zm33.5 7v-1h2v-12h-2v-2h8.3l-1.6 1.8-1.7 1.9v3.3h8v-5h-2v-2h8.2l-1 1.3-1 1.2-.4 4.7-.5 4.7 1.4 2 1.4 2.1h-8.5l2.4-2.4v-4.4l-4.8-1.2-3.2 1.2v2.9l1 2 1 1.9h-7zm22.2-.2-1.2-1.2v-6.5l2.5-1.2 2.5-1.1 2.5 1.1 2.5 1.2v5.7l-1.8 1.6-1.9 1.7h-3.9zm5.6-4-.3-3.3-3.2-.6-.7 1.7-.6 1.7.5 1.8.6 1.9h4zm6.8 4-.4-1.3-.5-4.3-.5-4.2h1.4l1.2.8 1.2.7.6 8 2-1v-4l.2-4h2.8l.6 8 1.1 1.2 1 1.3h-10.2l-.3-1.3zm12-3.5.7-4.8.4-.8.4-.7h5.9v4.4l-2.4-2.4h-2.5v1.8l2.6 1.1 2.5 1.2-.3 2.3-.3 2.2-7.6.6zm5.2 2.4-.5-1.2-1.6-.3-1.7-.3.6 1.5.6 1.6h3zm53.5-3-.3-5.3 15 .2.9 1 .9.9.4 4.3.4 4.2h-17.1zm6.7-.3v-3.6l-1.3.4-1.2.5-.3 2.2-.4 2.2 1.2 3 2-1.2zm6.8 1.2.4-2.8-2-2-1.2 2.1-1.1 2.2.6 2 .7 2 1.1-.4 1.2-.4zm5.8-.9.2-5.2 7.7.2 7.7.1.3.4.2.3.7 4.8.7 4.7h-17.6zm7 3.3.5-1-.6-3-.7-3.1-1.1.4-1.2.4-.3 2.2-.4 2.2.6 1.5.5 1.4h2zm6.2-2.8-.3-3.7h-2l-.3 3.8-.3 3.7h3.2zm7.1 2 .8-2.7-.8-2.2-.8-2.1 3-1.2.4 1.3.3 1.2.5 4.3.5 4.2h-4.6zm7.8 2.1-.7-.6v-4.8l-1-2-1-1.8 2-1.2v-3.8h2l1 2.4.9 2.4 2.6 1-1.8.1-1.7.1v7h3v2h-4.6zm-8.1-12.2-.6-.9 1.4-1.1 1.4-1.2.7 1 .6 1.1-1.2 2h-1.8zm-257.6-8 1.5-1.1-2.8-1.8.7-1.7.6-1.7 1.3.5 1.2.4v5.8l-4 .6zm317.2-2.4-1-1.3.8-1.3.8-1.4 1.7.7 1.6.6-.3 1.7-.3 1.6-2.2.8zm-400.1-.6v-1h3v-12h-3v-2.1l7.2.6 1.2 3.5 1.1 3.5 1-.2 1-.1 1.1-3.4 1.1-3.3 6.8-.6-1.3 1.2-1.2 1.3v11.2l2.4 2.4h-8.4v-2h2v-7.4l-1.4 2-1.3 1.9-.7 2.8-.6 2.7h-1.7l-1.2-4.2-1.3-4.2-1 1.8-1 1.7 1.6 2.5 1.6 2.4h-7zm23.6-.3-1.9-1.4v-5.7l2.2-1.7 2.2-1.8 3.4 1.2 1.3 1 1.2 1v5.4l-1.8 1.6-1.9 1.7h-2.9zm5.2-5 .3-3.7h-3l-2.2 4 .6 2 .7 2.1 1.6-.3 1.7-.3zm4.2 4.3v-2h1.1l1.6 1.5 1.5 1.5.8-.5 1-.6-.6-1.3-.5-1.4-2-.5-1.9-.5v-3.8l2.1-2.1 2.4.5 2.4.4-.6 1.4-.5 1.5-2.8-2.4-1.2 1.2.7 1 .6 1.1h2.8l1 1.8 1 1.7-1.4 1.8-1.2 1.7h-6.3zm10.6-.1-1.5-2.2 1.3-3 1.2-3.2 3-.3 3.1-.3 1.4 3.4-1.8 1.8-1.3-1.6-1.2-1.5h-1.8v5.8l1.4 1.1 1.4 1.2.7-1 .6-1.1h2.1l-2.4 3h-4.8zm11.1.7-1.7-1.3v-4.8l1.4-1.8 1.3-1.7h4.1l3.2 1.2v7.8l-2 1-1.9 1.1h-2.6l-1.8-1.4zm5.3-4.1v-3.4l-2.2-1.4-1.8 2.8v5.3l1.3.5 1.2.4.8-.4.7-.4zm31 4v-1.4l.9-.5.9-.6 1 1.4 1.2 1.3-.7.6-.6.7h-2.7zm11.5.5-.6-1 3.2-1.2 1.1 1.1-.7 1-.6 1.1h-1.9zm11.5-.4v-1.6l.9-.5.9-.6 1 1.4 1.2 1.3-.7.6-.6.7h-2.7zm11 0v-1.4l1.4-.5 1.4-.6 1.2 1.2v2.7h-4zm12-.1v-1.5h3v3h-3zm12.2 0 .3-1.6 2-.4.3 1.8.3 1.7h-3.1zm11.3.4-.7-1 1.1-1.1 3.2 1.2-1.2 2h-1.9l-.6-1zm11 .2-.5-1 2-1.2 2 1.2-.5 1-.6.9h-1.9l-.6-1zm11.5-.5v-1.6l1.6-1 1.3.9 1.4.8-.7 1-.7 1.2h-2.9zm11 0v-1.6h4.2l-.4 1.3-.5 1.2-1.6.3-1.7.3zm12.7.7-.7-.6v-1.7h3v3h-1.7zm11 0-.7-.6 1.1-1.4 1.1-1.3h1.8v4h-2.7zm11.3-.8v-1.5h3v3h-3zm11.6.6-.6-.9 1.4-1 1.3-1.2.6.7.7.6v2.7h-2.9zm11.4-.5v-1.6l1.6-1 1.3.9 1.4.8-.7 1-.7 1.2h-2.9zm12-.1v-1.5h3v3h-3zm11.5.5-.6-1 3.2-1.2 1.1 1.1-.7 1-.6 1.1h-1.9l-.6-1zm11.5-.4v-1.6l.9-.5.9-.6 1 1.4 1.2 1.3-.7.6-.6.7h-2.7zm11-.1v-1.5h4v3h-4zm12 0v-1.5h3v3h-3zm12 0v-1.5h3v3h-3zm9.8.3 1.2-1.2v-8.9l-1.7-1.9-1.6-1.8h7.6l-.6 3.3-.5 3.3.8 4.2.7 4.2h-7.1zm9.8-.4-.6-1.6v-.8h2.8l.8 2.4 1.2-.8 1.2-.7v-1.9l-2.3-.7-2.2-.7-.7-1-.8-1.2v-4.4l2.4-1.5 2.3-1.5 1.5.5 1.5.6 1.2 2.5 1.1 2.5v3.4l-2 3.3-2 3.2h-4.8zm5.7-6.6.4-1.3-.5-1.7-.4-1.8h-2.8v4.7l.7.6.6.7h1.5zm7.5 7 1.2-1.2v-8.9l-3-3.4 3.6-.1 3.7-.1-.7 6-.6 6.2 1.8 1.3 1.7 1.3h-4.4l-4.5.1zm-287.8-4.4-2-4.6v-.8h5l-.3 1.8-.2 1.7 2 .4-.3-1.9-.3-1.8h4.6l4.5.1v1.3l-4 8.4h-2v-2.9l-1-.6-1.1-.7-.6 2.1-.5 2.1h-1.9l-2-4.6zm10-1.9v-1.5h-2v3h2zm-423.9-12-2-2.6-.6-2.9-.6-2.8 1-4 1-3.9 2.1-1.8 2-1.8 1.3 1.3-1 1.2-1 1.3-1.3 4.1-1.2 4.1 2 4.8 2.2 4.8v.7h-1.9zm30.6 1.2-1.6-1.2.9-4 1-4-1-3 1-1.4.9-1.5 19-.6.4.7.5.8.7 4.8.7 4.7h-5.2v-2h2v-5.5l-1.8-2.8-2.4 1.6.5 4.3.5 4.4h-4.6l.6-4.5.5-4.5h-2l-3 3.4-3 3.5 2.3.5 2.4.6v4.9l-2 1-1.9 1.1h-3.8zm7.9-1.8.7-1.1-1.2-.8-1.2-.7-2.5.5-2.4.4v2.8h5.9zm-2.6-10v-1.9h-3v3.7l.6.6.7.6.8-.5.9-.5zm244.8 12.5-.7-.7 2.2-3 2.2-3.2v-4.1l-.2-4.2-2.2-3-2.1-3 1-.7.9-.6 2.5 3.8 2.6 3.8v9.5l-2.8 3-2.7 3.1zm-272.8-7.6v-3.1l2.4 2.2 2.4 2.3 2.3-.4 2.4-.3.6-3.4-4-1-4-1.2-1-1.7-.9-1.7.9-2.2.8-2.1 2-.7 2-.6 2.4.6 2.6.7.5 1.4.5 1.3-1 .6-.9.6v-2l-2-1.1-2.1-1.1-1.5 1.2-1.4 1.1v2.6l3.2.6 3.1.6 1.4 1.1 1.3 1.1v5.4l-2.4 2.4h-9.6zm93 1.2-2-2v-4.9l1.6-1.5 1.5-1.6h4.5l2.4 2.4v2.6h-5.7l-1.2 1.2.6 1.4.5 1.4h3.4l2.4-2.4v3.3l-2 1-1.9 1.1h-2.1zm-78.1-1.2.8-2.3-.8-3-.9-2.9.5-.4.4-.4 1.6.5 1.5.6v6.9l1.2 3.2h-5.1zm32.6.2-.6-2 .8-1.2.8-1.3-.6-3.4 2.5-.7 2.6-.6 1.5.6 1.5.5v7.1h2.2l-.4 1.3-.5 1.2-9.2.4zm5.3-1.8.4-1.2h-3.2v3.2l2.4-.8zm.2-4.1v-1l-.9-.5-.9-.6-.6 1.5-.5 1.5h2.9zm8 5.5v-2.6l-.9-2.3-.9-2.4 1-5.4h2.8v3.8l1.3.6 1.2.6-1.3.6-1.2.6v6.8h3.1l-1.2 2h-3.9zm8.6 1.2-.4-1.3-1-8.6 1.6.3 1.7.3.3 4.3.3 4.2h3.2l-.5-4.5-.6-4.5h3.8v7.8l1.2 3.2h-9.2zm13.1-3 .6-3.8-1.3-1.6-1.4-1.5 8.9.6v3l-1.9-.3-1.9-.4.5 4 .6 4h-4.6zm34.9 2.6-1.6-1.4v-6l2.5-1.6 2.6-1.7 2.5 1.3 2.5 1.4.5 2.3.6 2.3-3.2 5h-5zm5.4-4.4v-4h-3v8h3zm7 5v-.9l2-1.2v-4.5l-2.2-2.2 1-1.4 1.2-1.3 3.6-4.8 2.3 1.2 2.2 1.2-.8 2.4-2.2-.2-2.1-.3v2h3v2h-3v6.6l2.4 2.4h-7.4zm23 0v-1h2.2l-.4-7.5-.3-7.5h3.5v13.9l2 1.2v1.9h-7zm10.5.3-1-.8-1.3-1.6-1.3-1.7 2.4-5.2 1.9-.5 1.8-.6 4 1.2v3.9h-6.1l.3 1.8.4 1.7h5.4l-.3 1-.4 1-2.4.3-2.4.2zm3.5-7.7v-.5l-1-.6-.9-.5-1.2 2h3.1zm6.3 6.6-1.3-1.4.6-1 .7-1.1.2-5 1.8-1 1.7-1.2 1.8 1.1 1.7 1.1.3 3.5.3 3.6 2-.5 1.8-.5 1.7 1.7 1.7 1.6 2-2-.7-1-.7-1.1h-3.7l-.6-1.5-.5-1.5 1-2.8 1.7-.4 1.7-.5 1.3.4 1.2.5v3.2l-2.4-2.4h-1.6v2.8l2.6.6 2.5.7-.6 5.4h-16.8zm4.5-2 .4-1.2h-3.2v3.2l2.4-.8zm.2-4.7v-1.5h-2v3h2zm17.4 6.7-1.4-1.2v-6l4.2-3 2.2.8 2.1.8v3.8l-2.8.3-2.7.3v2.8l.9.5.9.6 3.2-.7 3.2-.6-.8-13.8 1.6.3 1.5.3.3 2.8.3 2.7h5l.3 1.2.4 1.3.6 4.3.6 4.2-18.2-.4zm16.6-3.6v-3.6l-1.2-.7-1.1-.7-1.2 1.6-1.2 1.7.5 2.5.4 2.5h3.8zm-12-3.6v-1h-1.9l-1.2 2h3.1zm18.2 7.8-1.2-1.2v-6.3l2-1.9 2.1-1.8 5.4 3 .6 5.6-3.4 3.8h-4.3zm5.8-3.5v-2.8l-1.8-2.8-1 .7-1.2.7v6.9h4v-2.8zm4.7 4-.6-.5 1.2-1.3 1.3-1.2-.6-6.4-.7-6.4.3-.4.3-.3 1.6.5 1.5.6v12.9l1.2 3.2h-4.9zm8.8-1-1.5-1.3v-5.5l2.4-2.4h4.5l.7-1.2.7-1.1-1.6-1.2-1.7-1.2v-1.4l2.8.3 2.7.3.1 6.5.2 6.5.3 1.5.4 1.5-4.2.2-4.3.2zm6-2.3.6-2-1-2-1.2-2h-2l-.5 1.5-.6 1.5 1.2 5h2.9zm7.2 2.2-1.7-1.9v-4l1.8-1.6 1.9-1.7h4.2l1 1.9 1 1.8-.6.7-.6.6h-4.7l-1 1.6.9 1.3.8 1.4 2.2-.6 2.1-.5-.4 1.1-.4 1.2-2.4.3-2.5.3zm4.3-7.2v-1h-.9l-1.2 2h2.1zm6.7 5.1.5-3.8-1-.7-1.2-.7v-2l4.2.3 4.3.3.3 1.8.4 1.9-2.3-.7-2.2-.7.6 4 .5 4.2h-4.6zm-246.2-9.1-.7-1.2 2-2 1.4 2.4-2 2zm-5.3-5-2.2-1 .5-6.2.6-6.3 1.6-1.6 19.2-1 1 4.6.5 3.3.5 3.2h-3.9v-9.1l-1.8.3-1.7.4.4 8.4h-4l.7-2.5.6-2.5-.7-2.7-.6-2.7-3.5 4-3.5 3.9 2.1 1 2.1.8-.6 5-2.6.6 1-.6 1.1-.5v-2.8h-7v2.7l2.3 1 2.2 1.2h-2l-2.3-1zm3.8-11.5v-2.5h-1.9l-.6 1-.7 1.1.6 1.4.5 1.5h2.1zm-23.5 6.5-4-.5-.3-2.3-.3-2.2h1.8l3.6 4h4.8l-.3-2.2-.3-2.1-6-2-1.3-1-1.2-1v-4.5l1.4-1.1 1.5-1.2 7.6.6.6 5-1.4-1.8-1.4-1.7h-5.4l.6 3.4 3.3.8 3.3.9 1 2.4 1.2 2.4-1.2 3-1.8.8-1.8.9zm11.2-4 .6-4-1.4-1.6-1.3-1.6 2.4.4 2.5.3-.3 3.3-.2 3.3 1 2 1 1.9h-4.8zm32.8 2.7-.4-1.2.2-3.4.3-3.4 1.7-1.1 1.7-1 1.7 1 1.8 1.1.3 3.2.3 3.1h2l-.3 1.2-.4 1.2-8.5.4zm4.5-2.3v-1.6l-2.4.8-.8 2.4h3.2zm0-4.5v-.9h-2v3.1l2-1.2zm8.5 6.1-.6-2-.1-4.8-.1-4.9.7-1.1.7-1.2 1 .5.9.6v3.9h3.5l-1.8 1.4-1.7 1.3v6.3h3.1l-1.2 2h-3.9l-.6-2zm9 .7-.3-1.2-.6-4.3-.6-4.2h1.8l2.4 3-.5 2.2-.6 2.3.7 1.2.8 1.2 1.3-.8 1.3-.9-.8-7.2h3.4l.4 5 .3 5h-8.6zm13.8.7-1.2-.5.6-3.5.6-3.4-1.3-1.5-1.2-1.5h8.2v3.5h-3.5l.2 7.5h-.6zm21.7-.9v-1.6l1.8.3 1.7.3-.4 2-1.5.3-1.6.3zm11.5.6-.6-1.1 1.2-2h3l-.3 1.7-.3 1.6-1.2.4-1.1.4zm11.5-1.1v-2.1l1.8.3 1.7.3v3l-1.8.3-1.7.3zm11.6 1.1-.6-.9 1.4-1 1.3-1.2.6.7.7.6v2.7h-2.9zm11.7-.7-.5-1.5.5-.6.6-.5 1.6.5 1.5.6v1.9l-1.5.6-1.6.6zm11.7-.3v-2.1h3.1l-.3 1.7-.3 1.6-1.3.5-1.2.4zm11.7 1.3-.7-.7v-1.7h4.2l-.8 2.4-2 .6zm10.7-.5-.6-1 1-1.2 1.2-1.1 2.2 2.2-.6 1.1-.7 1.1h-1.9zm12.1.1-.7-1.2 2-2 1.4 2.4-2 2zm11 0-.7-1.2 2.2-2.2 2.2 2.2-.6 1.1-.7 1.1h-1.9l-.7-1zm24 0-.7-1.2 2-2 1.4 2.4-2 2zm10.7-.7.3-1.8h3v3l-1.8.3-1.9.4zm12.3.7-.7-1.2 2-2 1.4 2.4-2 2zm11 0-.7-1.2 2.2-2.2 2.2 2.2-.6 1.1-.7 1.1h-1.9l-.7-1zm11.5-.4v-1.6l2.2-1.4.8 1.4.9 1.3-1 1.6h-2.9zm11.5.4-.7-1.2 2.2-2.2 2 2-1.4 1.3-1.4 1.2zm11.2-.5-.6-1.4 1-.6.9-.6 2 1.2v2.9h-2.8zm11.3-.6v-2l1.7.3 1.8.3.3 1.8.3 1.7h-4.1zm11.7.7-.6-1.4 1.2-1.2h2.7v4h-2.8zm11.5-.3.3-1.8h3v3l-1.8.3-1.9.4zm11.3.7-.6-1 1.2-2h2.9v4h-2.9zm11.5-.4v-1.6l2.2-1.4.8 1.4.9 1.3-1 1.6h-2.9zm12-.6v-2h3v4h-3zm10.7 1.3-.6-.9.9-1.3.8-1.4 1.7.7 1.7.6-.4 1.3-.5 1.2-1.5.3-1.6.3zm11.7-.4-.6-1 1-1.1 1-1 1.1.6 1.1.7v2.9h-2.9zm11.8-.6.3-1.8h3v3l-1.8.3-1.9.4zm-312.1-.7-1.2-1.5.6-5.6 5-2.4 4 2.6v2.8h-6v4h5.4l-.5.7-.5.8h-5.7zm4.9-6.6v-1h-1.9l-1.2 2h3.1zm123.2 6.8.5-1.3h2.3v1l.1 1-1.7.3-1.6.4zm-206-12 .5-1.3h2.6l.5 1.3.4 1.2h-4.4zm-49-13-.1-5.3.5-2.8.6-2.7h2.8l1.2 5h3.8l2 10h-4.2l.6-1.5.5-1.5-1.2-6-1 .3-1.2.4-1 8.8-1.6.3-1.7.3zm38.6 3.8-2.3-1.2-.3-2.1-.3-2.2 1-2 1.2-2.1h5.9l2 4h-4.5l-1.4 1-1.4.8.7 1.7.6 1.7 2.5-.4 2.5-.5v1.5l-2 .5-1.8.5zm3.2-7.6v-1h-2v2h2zm-29.3 6.5-.6-1.4 1-.7 1-.6-.5-2.4-.6-2.3 2-1.1 2-1 4 2v5.9l2 1.2-.5 1-.6.9h-8.7zm5.3-1.5v-2l-1.3.3-1.2.5-.3 1.6-.3 1.7h3.1zm0-4.4v-1.6h-2v3h2zm8.6 2.7-2.6-5.3h10l-1.3 2.7-1.2 2.7-.6-4.4h-3l.7 2.3.7 2.2 1 .6 1 .7-2 3.6zm33.9-.7v-5.6h8.1l2.4 2.4v8.6h-3.5l.3-4.5.4-4.5h-4.4l.4 4.5.3 4.5h-4zm13.3 3-1.2-2.7 1.5-2.6 1.5-2.7 2.5-.3 2.6-.3 1.2 1.4 1.2 1.5.4 2 .3 2-1.4 2-1.5 2.2h-6zm7-1.9.3-2.7-1.2-1.5-1.2-1.4-1.3 1.1-1.4 1.1v4.4l2.4 2.4 1-.3 1.1-.4zm6.9 3.7-.7-.6v-6.8l-.8-.5-.9-.5.5-3 .4-3 1.4-.5 1.3-.5 1.4 4.4 3.2 2.4h-1.6l-1.7.1-.5 2.1-.6 2 .6 1.5.5 1.4h2.8v2h-4.7l-.6-.7zm21-3.8.6-4.5h-2.3v-2l4.3.4 4.2.4.6 3.2h-4.3l.8 7h-4.4zm9.7 2-1.6-2.4 1.4-2.8 1.3-2.8 5.2-.6 1.2 1.5 1.3 1.5-.7 1-.6 1.1h-4.9v3.8l3.2 1.2 1-.7 1.1-.6-.7 1.1-.7 1.2h-4.9zm5-6.6-.5-1-1 .7-1 .5.7 1 .5 1 1-.7 1-.5zm7.3 8-1.7-1v-7l5.2-2.4 1.5 1 1.5.9v2l-1.1.3-1.1.4v-3.2h-1.6l-2.4 2.4v4.4l3 2.4 1.5-.6 1.5-.5v1.9h-4.5l-1.7-1zm10-.7-1.7-1.9v-4.2l1.6-1.5 1.5-1.6h3.5l2.4 2.4v2.6h-6v2.6l2.3 2.3 4-2-1 2.6-2.4.3-2.5.3zm4.3-7.2v-1l-3 1.2.6 1 .5.8 1-.5.9-.6zm5.5 3.5v-5.6l1.5.2 1.5.3.5 5.3.6 5.2h-4.1zm8.9.8-1.9-4.8-.3-.7-.4-.8h10.2v.6l-2 3.9-2 4v2.5h-1.7zm4.6-2.7v-1.7l-1-.6-.9-.5-1.2 2 1.2 2h1.9zm6 5.4-2-2v-2.6l1.6-2.2 1.5-2.2h3.8l1.5 1.6 1.6 1.6-.5.9-.6.9h-6.1l1.2 3.2v.8h5.5l-3 2h-2.5zm4.2-6.5v-1l-1.1-.3-1.1-.4v3.4l1-.4 1.2-.4zm6.4 6.3-1.6-2.2v-3.3l1.8-1.6 1.9-1.7h4.3v-3.8l-1.3-.5-1.2-.5 5.5-.2v14h2.1l-1.2 2h-8.9zm6.2-3.2.4-2.8-2.2-2.2-1.6 1.6-1.7 1.6.7 2.7.7 2.6 3.4-.6zm21.9 4.7-.7-.6v-7.5l-1.3-.6-1.2-.6 1.3-.6 1.2-.6v-3.9h3v4h3v2h-2.8l-.8 2.4.8 4.6h2.8v2h-4.7zm7.8-7.3v-8l3 .6-.2 2.2-.3 2.2h4.8l1 1.3 1 1.2.5 4.3.5 4.2h-4.3l.4-4.6.3-4.6-1.8.4-1.9.4v4.2l.2 4.2h-3.2zm12 2.5v-5.6h3.3l.4 5.5.3 5.5h-4v-5.5zm6.5 4.8v-.8l.9-1.3.8-1.4 1.2 3.2h3.1v-3l-2.6-.6-2.5-.6.3-2.7.3-2.6 3.3-.3 3.2-.3v3.1h-1.6l-2.4-2.4-2.2 2.2 3.1 1.7 3.2 1.6-.6 4.4-3.8.3-3.7.3zm24.2-.5-1.2-1.2v-5.4l1.8-1.6 1.9-1.7h4l.7 1.6.6 1.6v.8h-2.8l-.6-1.7-.7-1.6-2 2 .6 6.8h5.4l-.5.7-.5.8h-5.5l-1.2-1.2zm9.7 0-.1-1.3.2-1 .3-1-.1-2.2-.2-2.2 2-1.1 2-1 4 2v5.8l.6 1.5.5 1.4-4.5.1-4.6.1-.1-1.2zm5-2.2.3-1.8-1.4.4-1.3.5-.3 1.7-.4 1.8 1.4-.4 1.3-.5zm.1-4.1v-1.6h-2v3h2zm7.5 2v-5.4l3.5.4 3.5.3v2.7h-3v7.5h-4v-5.4zm10.7 4.3-1.2-1.2v-5.5l1.6-1.5 1.5-1.6h4.9v-2.9l-1.8-1-1.7-1.1 3 .2 3 .3-.3 5.7-.4 5.6 1.1 2.1 1.2 2.1h-9.7zm5.6-1 1.2-1.2v-4.4l-1.4-1.1-1.4-1.2-3.2 3.2v2l1 2 1 1.9h1.6zm21 1-1.6-1.3-.6-2-.6-2.1 4-4.4h3.6l2.4 2.4v2.6h-6.1l.3 2.3.3 2.2h2.2l2.2-.1-1 1.6h-3.5l-1.6-1.3zm4.2-6.8v-1h-2v2h2zm5 7v-1h2v-10.1l-1-1.9-1-1.8 1.5-.6 1.4-.5.8 1.2.7 1.2v7.2l.1 7.3h-4.5zm8-1.2v-2.3l1 1.8 1.1 1.7h2.9v-2.7l-2.5-1.1-2.5-1.2v-1.9l.6-1.5.6-1.6h5.8v3h-1.9l-1.2-2h-1.9v2.5l2.2 1 2.3 1v5l-3.3.3-3.2.3zm10.2 1-1.2-1.2v-5.4l4-3.6 2.5 1.1 2.5 1.2v3h-6v3.9l2 1.2 2.1-1.2 2.1-1-.4 1.3-.5 1.3-2.9.3-3 .3zm4.3-6.8.6-1h-3.1l1.2 2h.8zm8.5 4.8-1.2-3.3-.9-1.7-.9-1.8v-1h3.9l.6 4h1l1-.1-.2-2-.3-1.9h4v4.9l.9.5.9.6.6-1.5.5-1.5-.5-1.5-.6-1.5h3.4l-.4.8-.3.8-4 9.4h-1.3l-.7-2.7-.8-2.8-1 2.8-1 2.7h-1.5zm14.5-5.3v-8.6l3 .6.3 3.2.3 3 1.7-.3 1.7-.4 1.3.8 1.3.9.5 4.6.5 4.7h-3.8l.1-4.3.1-4.2h-3v4.3l.2 4.2h-4.2zm13.7 7.3-1.2-1.2v-5.5l1.6-1.5 1.5-1.6h2l2 1 1.9 1v3h-6.1l.3 2.3.3 2.2h2.2l2.2-.1-1 1.6h-4.5zm4.3-6.8.6-1h-3.1v2h1.9zm6 2.6v-5.7h3.8l3.7.1v3.8h-4.3l1.2 7h-4.4v-5.4zm10 3-1.8-2.7 1.1-2.5 1.2-2.5 1.5-.5 1.5-.6 5 1.2v4h-6v3.9l2 1.2 2.1-1.2 2.1-1-.4 1.3-.5 1.3-3 .3-3.2.3zm5-5.6.6-1h-3.1v2h1.9zm5 7-.7-1.2 2.2-2.2 2.2 2.2-.6 1.1-.7 1.1h-1.9zm-266.5-13.7v-1.4h3v3h-3zm78.5.4-.7-1 1.1-1.1 3.2 1.2-1.2 2h-1.9zm-50.2-4.7-1.1-.7.3-3.5.4-3.5.1-.5.2-.5-.4-4.8 1.4-.8 1.3-.9h8.5v1.6l-3 3.1-2.8 3.2 1.8.6 1.9.6.6 2 .7 2-1.9 1.4-1.8 1.4h-5zm6.8-1.3 2-1-.6-1-.6-.9h-5.9l-1.2 2 1.2 2h3zm-2.1-9.8v-2l-.9-.5-.9-.6-.5 2-.5 1.9.6.5.5.6h1.7zm300.5 10.8-.7-1 1.4-11.4 1-1.2.9-1.1h6.9l6.8-.1.4 5 .3 5.2-1.3.4-1.2.5-1.7-.6-1.6-.7 2.3-2.3v-5.2l-.7-.6-.6-.7-2.9 3.2-2.8 3.2v1.6h2.9l.7 2.2.6 2.1-1.8 1.4-1.8 1.3h-6.5zm7-.5 1.5-.6v-2.7h-6v4h2.8zm-1-9.3.5-1-.6-1.5-.6-1.6-.9.6-.9.5v3.9h1.9zm202.8 7.5 1.8-1.4-1-.7-1.1-.6v-2.8h4l1.2 2.8-1.2 2.1-1 2.1h-4.5l1.8-1.4zm-659.3-2.5v-1h2v-12l-3-1.2 1-1.6 3.2.4 3.3.3h.8l.8.1-1 2-1.1 1.9v10.1h2v2h-8zm23.7.3-.7-.6v-6.3l-2-2 3.2-6.4.9.5.9.6v3.9h2.4l-2.4 2.4v6.6h3.1l-1.2 2h-3.6zm7 .1-.6-.6.8-2.2.8-2.1-.6-8-.5-1.1-.5-1.2.6-.6.6-.5 3.8 2-.3 1.7-.3 1.6 4 .8 2.4 2-.1 2.7-.1 2.8.7 1.2.7 1.1h-4.8l.5-3 .4-3-1.2-3.2-1.6 1.3-1.5 1.2.6 7.2-1.6.3-1.5.3-.6-.7zm14-1.2-1.7-1.9v-3.1l.6-1.7.7-1.7 2.5-1 2.5-.9 1.8 1.7 1.9 1.7v2.7h-7.2l1.2 3.2v.8h4v-2h2v2.8l-3.2 1.2h-3.5zm23.5.6-1.2-1.2v-6.2l-2.4-2.4h5.4v9h2.8l1.4-6-2.6-3.2 2.4.4 2.5.3.2 5.2.2 5.3h-7.5zm11.7.7v-5.8l-.2-5.2 4.4.4 4.4.3.8.8 1.4 9h-2.7l-.7-.3-.7-.2.3-3.6.2-3.7-1.1-.7-1.2-.8-1 1.4-.9 1.4.5 3.7.4 3.8h-3.8v-.5zm13.3-2.3-1.5-2.4.9-2.6 1-2.7 6.4-2v-2.5h-3v-2h5.8l.4 8 .3 7.8-4.4.4-4.4.3zm6.3-3.2v-3.5l-1.8-.3-1.7-.3-.6 1.5-.6 1.6.6 2.6.7 2.5 3.4-.6zm7.5 4-1-1.9v-4.7l2.4-2.4h4.4l1.2 1.5 1.2 1.4-.7 1-.6 1.1h-5l.3 1.7.4 1.8h5.3l-1 1.2-1.1 1.3h-4.8zm5-7v-1h-3v2h3zm15 7v-2h1.1l1.6 1.6 1.6 1.5 2-2-.7-1-.7-1.1h-2.9l-1-1.8-1-1.7 1.4-1.9 1.3-1.8 1.9.4 1.8.3.2 2 .3 2-.6-1.3-.6-1.2h-2.7v1.8l5 3.2v2.9l-2 1-1.9 1.1h-4.1zm44.6.7-1.9-1.4v-5.7l2.2-1.7 2-1.7 4 1 .5 1.5.6 1.5-1 1.6-1.8-.5-1.8-.4-2.4 2.8 1.5 1.3 1.5 1.2 4-1v1.6l-3.2 1.2h-2.4zm4.4-7.1v-.5l-1-.6-.9-.5-1.2 2h3.1zm6.8 7.3-1.8-1v-6.8l2.1-1.5 2.1-1.4 2.8 1v-4.2h-2v-2h6.3l-1.2 13.7 2.3 2.3h-6.2l-1.4.5-1.3.4zm5.2-2.4 1.2-1.5-1.2-5h-2.8l-1.2 1.5-1.3 1.6 1.1 2.4 1.2 2.5h1.8zm19.2 2-2.2-1.6v-5.7l3-2.4h5v-2.1l-1.7-1.9-1.6-1.8h6.1l.4 8 .3 8h-4.3l-1.4.5-1.3.5zm5.3-4.5v-3.5l-3.4-.6-.7 2.5-.6 2.6.6 1.6.6 1.5 1.7-.3 1.8-.3zm7.5 4-2-2v-2.6l1.6-2.2 1.5-2.2h4.5l2.4 2.4v2.6h-7v1.1l1 2 1 1.8 2.7-1 2.6-1-1.3 1.6-1.2 1.5h-3.8zm4.5-6 .6-1h-3.1l1.2 2h.8zm6.4 6-2-2.1.7-2.2.6-2.2 1-1.3 1-1.2h5.6l.5 1.5.6 1.4-1 .7-1.2.7-1-1.7-.9-1.7-1.4 1.2-1.4 1.1v3.8l4 4h-3zm11-4.7.3-6.5-2.2-2.2v-1.7l2.3.3 2.2.3v11l.8 2.6.7 2.7h-4.6zm6 5.1-1.1-1.4 1-1.3 1.1-1.3-.5-2.2-.6-2.1 2.6-.7 2.6-.6 1.5.6 1.5.5v7.1h2.2l-.8 2.4-4.2.2-4.1.2zm5.1-1.9v-1.5h-3v3h3zm-.3-5-.6-.7-1 .7-1.1.6 1.2 2 1.1-1 1-1zm7.8 3v-5.4l3.5.3 3.5.2.6 3.4h-4.4l1.2 7h-4.4v-5.4zm9.8 2.9-1.7-2.6 1.5-2.7 1.5-2.6 2.3-.3 2.3-.4 1.9 1.8 1.9 1.7-.6.8-.5.9h-5.9v4.2l6-1.2v1.8l-3.2 1.2h-3.8zm5.4-6-.6-.6-2.6 1 2 .1 1.8.1zm19 8-.7-.7v-7.5l-1.1-.4-1.2-.4 2-5.8 1-.3 1.1-.4 3 6-2.8 1v6.2l2 .6 2.2.6-1.4.8-1.3.9h-2.2l-.6-.7zm7.2-.1v-7.5l.2-6.8h-2.1v-1.8l1.6-.6 1.7-.6 2.4 2-.5 2.5-.4 2.5h4.8l2.4 2.4v7.6h-3.4l.2-3.3.3-3.4-1.5-1.2-1.5-1.3-.7 2.6-.6 2.6 1.2 5h-4v-.7zm13.5-.8-1.5-1 .9-4 .8-4h6.9l.3 3 .4 3 1 .6 1 .7-1.2 2-3.6.4-3.5.4zm4.4-2.3.4-1.2h-3.2v3.2l2.4-.8zm.2-4.1v-1l-2-1.2v3.1h2zm8.7 7.3-.7-.7v-6.3l-2.2-2.2.8-1.4.8-1.3.2-1.3.2-1.4.6-.5.5-.5 2.2 1.4-.5 1.4-.6 1.5 1.5.5 1.5.6v1.8h-3.2l.6 2.3.6 2.2v2.7l3.2-1.2-.4 1.2-.5 1.3-2 .3-1.9.3zm20 0-.7-.7v-7.5l-1.3-.5-1.2-.5 1.1-.9 1.2-.8.3-2 .4-2 2 .4.3 2 .3 2.1h2.3l-2.4 2.4v6.6h3.1l-1.2 2h-3.6zm8-6.3.5-6.8-1-.7-1.2-.7v-2l2.3.3 2.2.3.3 2.6.3 2.7 3 .6 2.9.6v8.8l.1.7-1.6.3-1.7.4.2-1.9.2-1.8v-2.8l-.2-2.7h-3v9h-3.7l.5-6.9zm12.1 4.4-1.2-2.6 2-5.4 1.7-.3 1.9-.4 4.8 1.2v4h-7v1.5l1 1.4.8 1.4 2.6-.7 2.6-.6v1.8l-3.2 1.2h-4.8zm5.2-6.5v-1h-.9l-1.2 2h2.1zm18 7-2-2v-3.9l1.6-1.5 1.5-1.6h4.9v-4h-3.1l1.2-2h4.9v3.8l.1 3.7.3 4.3.2 4.2-.5.1-.6.1-3.3.4-3.2.4zm6.5-2 .6-2-1-2-1.2-2h-1.9l-1 1.8-.9 1.9.6 2.1.5 2.2h3.7zm6.5 2.5-1.2-1.5.7-1.7.8-1.8v-2l.2-2h7l.3 3.7.3 3.8h2.3l-1 .9-.9.9-7.2 1.2zm5-2v-1.7l-2.4.8-.8 2.4h3.2zm0-5v-1.6l-2 1.2v1.9h2zm8.6 7-.6-1.7v-5.4l-2.2-2.2 1.1-.6 1.1-.7v-3.9l1.3.4 1.2.5 1.2 2.5 1.1 2.5-.9.6-.9.5v6.9h3.5l-3 2h-2.3l-.6-1.6zm8.3.5-.8-.6.4-4 .4-3.9v-.8l.1-.8 3.7.3 3.8.3.3 3 .4 3 1.1.7 1.2.7-2.4 2.4-7.3.2zm4.6-2.8v-1.2h-1l-1-.1-.3 1.7-.4 1.6 1.4-.4 1.3-.5zm50.5 1.8-2-2v-3.7l2-1.7 1.8-1.7 2.9.3 2.8.3.3 2.3.4 2.3-1.4-.2-1.3-.1h-1.8l-1.7.2v3.1l1.5.5 1.5.6 3-2.4v1.8l-2.4 2.4h-3.6zm11 1.6-.5-.4.3-5.1.4-5.1h8.8l.4 2.3.5 2.2.8 5.4-1.4.5-1.5.6h-1.6l.6-4.6.5-4.6-2 .4-1.8.4v4.2l.2 4.2h-3.4l-.4-.4zm24.5-1.3-1.6-1.5 1-1.3 1.1-1.2-.5-1.5-.6-1.5 1.5-1.2 1.5-1.3 2.2.4 2.3.3 1.8 7 2 1.2-1.3.9-1.4.9-3.2.2-3.3.2zm4.5-1.8v-1.5h-2v3h2zm10.3 2.8-2.3-.4v-8.4l-1-3.7-.8-3.8h3.8l.1 1.3.1 1.2.2 1.5.1 1.5 2.8.3 2.7.3 2.2 4.2 1.7-2 1.6-2.2 1.5-.2 1.5-.3 2.2.7 2.1.8.7 2.6.6 2.6-2.4 2.5-2.5 2.5-2.5-.7-2.6-.6-.6-2.1-.7-2.1-2.4 2.6-2.5 2.6-.7-.1-.7-.2-2.3-.4zm4-3.7.7-2.4-1.2-3.2h-2.8l-1.2 5 .6 1.5.5 1.5h2.9zm11.5-1.4-.3-3.7h-3l-.3 2.3-.4 2.3.6 1.5.5 1.4h3.2zm17.8 4.2-1.6-1.4v-4.6l1.8-1.6 1.9-1.7h3.9l2.4 2.4v2.6h-5.9l-.5.9-.6.9 3.2 2.6 3.8-2.4v1.6l-2.4 2.4h-4.5zm20.4.7v-1l2-1.2v-5.5l-2.4-2.4h5.4v7.8l1.2 3.2h-6.2zm8.2-4.2.1-5 2-1 1.8-1 1.8.6 1.8.5v3h-1.7l-1.2-2h-1.8v2l5 2v3.6l-2.4 2.4h-5.5zm4.6 1.9-.5-1.3-1.6-.3-1.7-.3.6 1.5.6 1.6h3zm18.4 2-1.2-1.2v-6.4l-1.3-.5-1.2-.5 1.1-.9 1.2-.8.3-2 .4-1.8 2.4-.8.7 2.5.6 2.6h2.3l-1.8 1.4-1.7 1.3v5.5l4 1-.6 1-.5.8h-3.5zm8.5-2.8.6-4-1.3-1.5-1.3-1.6 14.7.6v4l.1 4h3v-4.3l-.2-4.3 3.2.6.2 5.3.3 5.3-4.3-.3-4.2-.3-.6-7-1.9-1.9-2.2 2.2-1.6-.5-1.5-.6.6 4.1.5 4.2h-4.6zm23.8 1.6-2.5-2.6.7-1.8.6-1.8.9-1.1.9-1.2 2-.5 2-.6 4 4-.7 1-.6 1-1.8-.4-1.8-.5-1.1.8-1.2.7 1.4 3.4 2.6-.5 2.6-.6-2 1.5-1.9 1.5h-1.6zm28.1 1-1.4-1.1.6-4 .7-4 3.8-.3 3.7-.3v8l1.3.4 1.2.4-.6.7-.7.7-3.6.4-3.5.3zm4.4-2.7v-.9h-2v3.1l2-1.2zm0-3.9v-1h-.9l-1.2 2h2.1zm7.4 5.7.6-2.4-1-3.1-.9-3.2h9.8l.4.8.5.7.3 4.5.4 4.5h-3.9v-3.5l-.1-3.5-2-1-.3 4.3-.3 4.2h-4.1zm14.4 1.2-1.8-1v-6.5l2.4-2.4h4.6v-4h-2v-2h5.8l.4 8 .3 8h-5.3l-1.4.5-1.3.4-1.8-1zm5.6-2.5.6-1.6-1.2-4.8h-2.9l-.8 2.3-.9 2.2 1 1.8.9 1.7h2.7zm20 2.6-.5-1-.1-3.3-.1-3.2-3.2-2.4h1.3l1.2-.1v-3.8l1.4-.5 1.4-.6 1.2 1.2v3.5l1.3.5 1.2.5-1.7 1.3-1.7 1.4.6 2.7.5 2.8h2.9l-1.2 2h-3.9zm7.5.3-.1-.8.2-1 .3-1-.4-10-.5-1.8-.5-1.7h3.8l.6 3 .7 3h3.8l1.1 1.4 1.2 1.5-.6 7.6h-3l.3-4.1.3-4.2-1-.6-.9-.6-1.2 1.5-1.2 1.4.4 3.3.3 3.3-1.8.3-1.7.3zm13.1-.3-1-.7.6-4.1.7-4.2 2.3-.6 2.4-.6 3 2.4v4.4l2.2 2.2-.6 1-.5 1h-8zm4.8-3 .4-1.3-1.3.5-1.3.4-.4 1.3-.5 1.4 1.4-.5 1.3-.4zm7.9 3.3-.5-.8-.2-4.5-.3-4.5.2-2.3.1-2.2h3v2.9l1.8 1.1 1.7 1.1-1.3.5-1.2.6v5.6l1.6.6 1.5.6-1.2 2h-4.9zm20.3-.3v-1h1.8l.7-5 .7-5.1-3.2-3.6v-1.3h8.9l.5.9.6.9-1.5.6-1.5.5v12.1h2v2h-9zm-665.2-1.2 1.2-1.2v-5.2l-2.5-2.5 8.8.6.5 1.2.4 1.3h-5.2v4.6l2.4 2.4h-6.8zm19.7-3.8v-5h3.3l.4 5 .3 5h-4zm20-.4v-5.6h3.7l3.8.1.8 1.2 1 1.1.5 4.2.5 4.3h-3.7l.5-3.3.5-3.2-1-1.4-.9-1.4-1.2.8-1.2.7.4 4 .4 3.8h-4.1v-5.4zm313.9.5-2.2-5 8.8-.6.8.3.9.3-2.5 5-2.5 4.9h-1.2l-2.1-5zm4.6-2.1v-2h-1.7l-1.2 1.2.6 1.4.5 1.4h1.8zm80 6v-1.1l-2-4-1.8-3.9h10.6l-2 3.7-1.8 3.7v2.6h-3zm3.2-7.2-1.2-1.2-.6.7-.6.6.6 1.7.7 1.7 2.3-2.3zm-421.2-5.8v-2.2l1.3.5 1.2.4v2.6l-1.3.5-1.2.4zm325.4.9-.7-1.1 1.4-.9 1.4-.8 1.7 1.7-.6 1.1-.7 1.1h-1.9zm123.6.2v-.9l1.3-1 1.4-1.2.6.7.7.6v2.7h-4zm-617.5-32-.5-1.1 1.2-2h417.4l201-.5 201-.6 4-.4.3 1.8.3 1.7-79.6-.2-742.4 1-2 1.2-.6-1zm255.1-21.1-.6-17.5-1-74-1.3-194-.2-29.5-.3-29.5-1.2-40.5-1.3-40.5v-6l1.6-36.5h1.5v34.3l-.1 34.2 2.2 80 .6 45.5.5 45.5 1.2 146.7 1 94.3-2 5zm191-2.8-.6-19.7-.5-60.5-.6-60.5-.8-167v-26.8l-2-45.2-.5-12.8-.4-12.8 1.2.4 1.1.4.6 17.9.7 17.9.5 17.5.6 17.5.6 35.5.5 35.5 1 114 .6 83.6.7 83.6-1 .6-1 .7zm-356.8 17.5-.8-1.7-.4-28.8-.5-28.7-.6-40 .7-.2.8-.3 1 36.5.8 20.5.7 20.5-1 24zm453.9-16.7-.7-17.5-1.1-268-1-36.5-.8-36.5-.7-22.8-.7-22.7h2l.6 24.3.5 24.2 1.2 30 1 49 1 129 .5 79.5.6 79.5-1 3-.8 3zm185.4-8.4-.2-24.3-.4-3-.3-2.8-1.2-363 2-3v1l.9 204 .7 73 .6 73v56.3l-.2 13.2h-1.7zm-729.1-28.6 1-3h83.4l1.3.9 1.3.8-5.3.6-5.3.7h-73.3l-3 3h-1l1-3zm97.2-.7-4.3-.4v-1.9l72.5-.2h43.4l43.5.2 2 2h-121.8l-31 .8zm-60.5-19.7-.3-7.4 3-.4 3-.3 3.2.6 1.3 2.4 1.3 2.5-1.3 2.4-1.3 2.5-5.2.6.2 2.3.3 2.2h-3.8zm8-1.6.2-2.5-2-3-1.6 1.7-1.7 1.6.7 2.7.7 2.6 3.4-.6zm-24.7 3.4v-1.4h1.7l2.2-7 2.3-7.1 1.1.4 1.2.4 2.7 7.4 2.8 7.4v.5h-5.7l.5-2.5.4-2.5h-5.4l.4 2.4.5 2.4-2.4.5-2.3.4zm31-2.6v-3.3l-.9-1.3-.8-1.3.5-2.5.4-2.4h2.8l1.2 4h2l-1.7 2.5-1.6 2.5 1.2 3.2 1.5-.6 1.5-.5v2.9h-6v-3.3zm8.2 2 .5-1.3h2.3v1l.1 1-1.7.3-1.6.4zm85.3-.8 1.8-2-.6-5.2-.6-5.1-1.3-.9-1.3-.8 1.3-.9 1.4-.8 4.6.5 4.7.5 1.8.9 1.7.9v3.7l-1.4 1.2-1.5 1.2 1.2 2.6 1.1 2.7.2.3.1.2 1.7-.6 1.6-.6v-3.5l1.8-1.6 1.9-1.7h3.3l4 4 4-4h3.5l1.8 1.4 1.7 1.3v5.2l-2.2 1.5-2.2 1.6h-3.6l-1.5-2-1.4-2.2-4.2 4.2h-2.6l-2.2-1.6-2.3-1.6-4 3.6-1.7-1-1.7-1.1-.3-3.2-.3-3.1h-3.8v4.9l2 1.2v1.9h-8.3zm24-1 .6-1-.7-2.5-.6-2.6-1.7.3-1.6.3-.3 1.8-.4 1.8.6 1.5.5 1.4h3zm11.5-2.4v-3.6l-.9-.5-.8-.5-3.2 2.4.6 2.8.5 2.7h3.8zm-26-7.5v-1.9l-3.2-1.2-.9.6-.9.5v4.6l.6.6.7.6 1.8-1 1.9-1zm30.5 7.4v-5.4l7.4.1 7.3.2.3 1 .3 1.1.6 4.3.6 4.2h-16.5zm6.7 0-.4-3-.7-.7-1 .7-1.1.6v6l1.8-.3 1.7-.4zm6.3 0v-3h-3l-.3 3.3-.3 3.4 1.8-.4 1.8-.3zm97.8-17.2-4.3-.4-1-4.4-.1-2.5-.2-2.5.1-2.2.2-2.3h3v4h3.5l-1.8 1-1.7 1.1v5.6l.7.6.6.7 1.4-1.1 1.3-1.1v2.6l2.2-2.2-.4-5.3-.4-5.4-.9-1.8-.8-1.9 2.4.4 2.4.3.6 6.6 2.4-.8 1.8.9 1.7.9v6.5l2.4 2.4h-6.9l-2 .4-2 .3zm9.2-5.1v-3.2l-1-.2-1-.3-.3 3.9-.3 3.8 1.3-.4 1.3-.5zm8.4 4.8-1.7-1-1.2-5 2-4h6l1 1.9 1 1.8-1.3 1.3h-4.7l-1 1.6.9 1.3.8 1.4 2.2-.6 2.1-.5-1.2 1.4-1.1 1.4h-2.3l-1.6-1zm24.1-.1v-.7l3-2.4v-9.8l-3-3v-1h9v2h-2v4h2.9l1-1.8.8-1.7-.4-1.3-.5-1.2h6l.6.8.5.8-3.5 1.9-3.4 1.8v2.9l2 2.9 2.1 2.9 2 1 1.8 1 1-2 1.1-1.9-1-2.5-1-2.6h5v9.2l1.3-.5 1.2-.4v-2.9l-.2-2.9-.8-3h10l1.2 7 .8 1.8.7 1.7h-14.7l-23.5.6zm11-2.2v-1.3l-2.4-2.4h-1.6v3.7l.7.6.6.7h2.7zm22-.6 1-2-.6-1.5-.6-1.6h-2.8v5.7l.7.6.6.7h.6zm10.4 3.1-3.1-.3-1.1-2.4-1.2-2.5 2-5 3-.7 3.1-.6-.7-1.6-.6-1.6-.2-1.5-.1-1.5h4l1 15 2-1v-5l.8-1.3.8-1.2h5.7l.5 4.3.4 4.2-1.2 1.3-1.2 1.4-5.4.1-5.4.2zm2.4-5.6.3-3.8-1.8.4-1.8.3-.3 2.3-.4 2.3.6 1.6.6 1.5 1.3-.4 1.2-.5zm10.7 2.4-.6-1h-3l1.2 2h3zm8 3-.7-1.2 2.2-2.2 2.2 2.2-.6 1.1-.7 1.1h-1.9zm12.1-.5-.6-1.6 1.6-.6 1.5-.5.6.5.5.6-.5 1.6-.6 1.5h-1.9zm11.8.4-.6-1 1-1.2 1.2-1.1 2.2 2.2-.6 1.1-.7 1.1h-1.9zm41-.3-.6-1.7.6-.6.6-.7 2.4 2.4-2.3 2.3zm10.8-.2.3-1.7 1.3-.5 1.4-.4-.4 1.8-.3 1.7-1.3.5-1.4.4zm23.4 1-.6-.7v-2.7h3v2.9l-.9.5-.8.5zm-226.5-3-2.1-2.7v-5.9l6-6 2.8.6 2.7.7 2.4 2.6 2.3 2.6-.6 3.6-.5 3.6-2.2 1.8-2.1 1.7h-6.8zm8.7.4 1.2-1.2v-6.5l-1-2.5-1-2.6h-4l-1 2-1 1.9v6.2l1 2 1 1.9h3.6zm38.8-3 .2-5.3h6.7v4h-3v6.5h-4zm115.4 3.7v-1.7l1 .4 1.1.3v2l-1 .3-1.1.4zm17.2.4.3-1h2l.3 1 .4 1.1h-3.4zm34.5.5-.6-.7.5-.8.5-.9h2.9v3h-2.7zm22.3-.9v-1.5h4v3h-4zm12 0v-1.5h3v3h-3zm12 0v-1.7l1 .4 1.2.3v2l-1.1.3-1.1.4zm-535.7-6.8-.5-.8.8-.8 240.9-1.1 6 .9 6 .8-1 .4-251.7 1.4zm358.4-5.3-.7-.7v-2.8l1.8.3 1.7.3v2.8l-1 .4-1.1.3zm242.6-9.1-2.3-.4v-13.7l-1.2-3.2h4.2v6.5l2.7.2 2.7.1 1.1 1.6 1.2 1.5 1.4-1.3 1.4-1.4 2.1-.6 2.2-.7 3.2 3.2v2l-6 1.2.2 1.6.4 1.6 2.2-.2 2.3-.3-1.2 2h-4.2l-1.9-1.7-1.8-1.6-2.3 2.1-2.3 2.2-1-.1-.9-.2zm4.7-5.8v-3.5h-4v7h4zm43 4.6v-2.1h3.1l-.3 1.7-.3 1.6-1.3.5-1.2.4zm12.4.8-.6-1 1-1.2 1.2-1.1 2.2 2.2-.6 1.1-.7 1.1h-1.9zm13.2.4-.6-.6v-2.7h3v2.9l-.9.5-.8.5zm22.7-.8-.5-1.6.5-.6.6-.5 1.5.5 1.6.6-.6 1.6-.6 1.5h-1.9zm100 .8-1.3-.5v-2.6l1.5-.5 1.4-.6.6 1 .6.9-.8 1.3-.8 1.4zm-241.5-1.5 1.2-1.2v-11.9l-1.8-1.3-1.7-1.3h5.8l5.8-.1 2 1 1.9 1v4.6l-2.1 2.1 1.2 2.7 1.3 2.7 2.6-1v1.7l-1.5 1.2-1.4 1.2-1.8-.4-1.8-.3-1-7-1.8-.3-1.7-.3v5.4l1.8 1.3 1.7 1.3h-5l-4.9.1zm9-9.6 1-1.7-.5-1.3-.5-1.2h-3.8v6h2.9zm9.7 9.6-.3-1.3-.5-2.5-.4-2.5-.8-3h4l.6 8.6 2.4-.8v-3.9l.1-3.9h2.9l.2 7.3 1.2 3.2h-9l-.4-1.3zm11.5-5.8v-7l-.6-1.5-.6-1.6h4.2v5.8l3 .7 3.1.7 1.1 2.4 1 2.3-1.6 2.6-1.6 2.5h-8zm7.6 2.3.7-2.5-2.1-2.1-1.6.5-1.6.6v6.1h4zm27.8-.9v-5.4h4.4l3.2 1.2v2.8h-4.3l1.2 7h-4.4zm8.6 3.5v-2l4 2.4.7-.8.8-.9-2.2-.8-2-1.4-1.8-1.4 2.2-3.6 5-.6.6 4.2.5 4.1-1 2.8h-6.8zm5-6v-1h-2v2h2zm51 6.5v-1.4h3v3h-3zm22.2.3.5-1.3 1.6-.3 1.7-.3v3.1h-4.2zm11.8-.3v-1.4h3v3h-3zm17.5.6-.5-1 2-1.2 2 1.2-.5 1-.6.9h-1.9zm11.5-.5v-1.5l1.6-1 1.3.9 1.4.8-.7 1-.7 1.2h-2.9zm11 0v-1.4l1.4-.5 1.4-.6 1.2 1.2v2.7h-4zm12.2-.3.3-1.8h3l.3 1.8.3 1.7h-4.1zm12 0 .3-1.8h3l.3 1.8.3 1.7h-4.1zm22.8.8v-.9l1.3-1 1.4-1.2.6.7.7.6v2.7h-4zm12.6-.6-.5-1.5h4.9v1.8l-3.2 1.2h-.6zm-683-.2-.6-.6v-2.6l5 1.2v-2.9l-2.4-4.6-2.3-4.7h4.6l.3 2.3.3 2.2 2-1-.2-1.8-.3-1.7h4.9l-2.4 4.3-2.5 4.2v3.2l-1.8 1.6-1.9 1.7h-2l-.6-.7zm-75.6-4.1v-1l1.2-.3 1.2-.4-.3-5.5-.2-5.4-1.4-1.1-1.5-1.1v-1.4l3.6.3 3.7.3 1.6 4.2 1.6 4.1 1.4 1.4 1.4-4.8 1.4-4.9 3.1-.3 3.2-.3v2.1h-2.2l.4 7.5.3 7.5h-3.5l-3.5-.2 1.2-.5 1.3-.5-.1-4.6-.1-4.7-2 4.7-2.2 4.8h-1.3l-1.8-4.3-1.9-4.2-.3 3.3-.4 3.3 1.2 1.5 1.1 1.4h-6.2zm23-1.6-1.3-2.5 1.1-2.6 1.2-2.5 6.4.6 3 5.4-1.8 2-2 2.1h-5.2zm6.6 0 .6-1.5-1.2-5h-3l-1.2 4 1.2 4h3l.5-1.5zm5-1 .7-3.5-1.2-1.3-1-1.4.6-.6.6-.7h7.5l1 1.2 1 1.3.5 4.2.5 4.3h-10.7zm6.2-.4.4-2.2-.7-1.7-.6-1.6-3.2 3.2.7 2.7.7 2.6 2.4-.8zm7.9 3.1-.5-.7-.2-4.5-.3-4.5.2-2.2.1-2.2 1.5.5 1.5.6v2.6l1.3.6 1.2.6-1.3.6-1.2.6v6.8h5l.1-1.3.1-1.2-.1-3.5-.2-3.5-.5-2.8-.6-2.7h4l.4 2.7.3 2.7 2.4.6 2.5.6 2.4 9.4-.7.1-.6.1-16.4.8zm13.8-4.7v-3h-3l-.3 3.3-.3 3.4 1.8-.4 1.8-.3zm45.3 4.2-1.7-1.2-.6-5-1.8-.3-1.7-.3v5l1.8 1 1.7 1h-10l1.3-.6 1.2-.5v-12l-1.8-1.4-1.7-1.3h6.3l6.3-.1 2 1 1.9 1v2.9l-1.5 1.4-1.5 1.5 1.4 3.3 1.4 3.2 2.6-4.1 2.6-4.2h4.8l1.2 1.5 1.2 1.4-.7 1-.6 1.1h-4.9v3.1l1.5.5 1.5.6 1.7-1.3 1.6-1.4h1.2v-7l6.4-.6 2 1 2 1.1v3.4l-.2 3.3.7 1.2.8 1.2-14.9-.4-1.2.7-1.2.8-2.4-1.6-2.5-1.6-4.6 3zm23.7-4.2v-2.8l-2.4-.8-.7 2.5-.6 2.5 1.4 2.2 1.1-.4 1.2-.4zm-12.4-3.8-1-1-.7.6-.6.6.7 1 .6 1.1 2-1.2zm-12.1-3.1v-1.4l-1.5-1.2-1.4-1.2-1 .7-1.1.6v4.6l.6.6.7.6 1.8-1 1.9-1zm33.3 11.6-1.2-.7-1-4.2-.9-4.1 1-5.2h2.8v2.9l1.8 1 1.7 1-1.8.6-1.7.7v6l4-1v1.7l-3.6 2zm-70.8-7v-6.7l-1-3h4l.5 8.3.5 8.2h-4zm521.1-9.9-.6-.6v-2.7h3v2.9l-.9.5-.8.5zm109.6 0-1.2-.5v-2.8h4v2.9l-.8.4-.7.4zm23-.7-1.2-1.3 1.3-1.1 1.3-1 1.3.8 1.4.8-1.2 3.2h-1.9zm12 .1-1.2-1 1.1-1.3 1-1.3 1.5.6 1.4.5v2.6l-2.8 1zm11.2-.2-.7-1.6 2.1-2.1 1.7.6 1.6.6-.3 1.7-.3 1.8-1.8.3-1.7.3zm12 0-.6-1.4.7-1 .6-1.1h2.7l1.2 3.2-.6.9-.5.9h-3zm-264.4-2.2v-2.7l2 2.3 2.2 2.2 2.1-.3 2.2-.3v-4l-7.2-1.6-1.2-2.5-1.1-2.5 1-1.8 1-1.9 1.5-.6 1.5-.5 6 1.2v3.7h-1.8l-2.4-3h-3.8l-.7 1-.6 1.2 2.3 2.3 7.4 2 .6 5.6-1.2 1.5-1.1 1.4h-8.7zm13.2-3-.1-5.8-.7-2.7-.6-2.8h4.2v7h6v6.8l1.2 3.2h-9.8zm6.3.6v-3.4h-3l-.3 2.3-.4 2.3.6 1.6.6 1.5 1.3-.5 1.2-.4zm7.3 4-1.8-1v-5.9l5-3.2 5 3.2v2.5l1.8-2.3 1.8-2.4 3 .4 2.9.3v4l-2.8.3-2.7.3v1.7l1.4 1 1.3 1.2 1.8-.7 1.8-.6-.7 1.1-.7 1.2h-4.9l-3-3h-1.9l-.6 1.5-.5 1.5h-4.6l-1.8-1zm5.8-5.4-.7-2.6-3.4.6-.3 2.9-.4 2.9 1.4.8 1.3.8 1.4-1.4 1.4-1.3zm9.4-1.5v-1h-2v2h2zm5 5.8v-2.1l3.8 3.4 1.4-2.2-.3-.2-.4-.2-4-2.2v-3.8l3.1-.3 3.2-.3.4 3.8.5 3.8-1 1.3-1 1.2h-5.7zm5-5.2v-.5l-2-1.2v2.1h2zm13 5.8v-1.6l2.4.8.8 2.4h-3.2zm10 0v-1.6l2.4.8.8 2.4h-3.2zm10 .1v-1.5h3v3h-3zm22 0v-1.6l1.8.3 1.7.3-.4 2-1.5.3-1.6.3zm12 0v-1.5h3v3h-3zm11.7.9-.6-.7.5-.8.5-.9h2.9v3h-2.7zm11.3-.9v-1.6l1.8.3 1.7.3-.4 2-1.5.3-1.6.3zm12 0v-1.5h3v3h-3zm11 0v-1.5h3.2l-.8 2.4-2.4.8zm17.5.5-.6-1 3.2-1.2 1.1 1.1-.7 1-.6 1.1h-1.9l-.6-1zm11.5-.5v-1.5h3v3h-3zm23.2-.3.3-1.7h3l.3 1.8.3 1.7h-4.1zm-212.2-21.4-2.5-1.2-.6-12-1-1.2-1.1-1.3h8.3l-3 3 .4 4.8.3 4.7.2 2.6 3.2-.3 3.3-.3.3-5.8.3-5.9-2.4-2.8 1-1 1.7.6 1.7.7-.5 1.4-.6 1.5v10.3l-.8 1.2-.7 1.1-5 1.2zm13.9 1-.1-.2-.4-3.5-.3-3.5-.3-2-.3-1.9 3.7-.2 3.8-.3 1.4 2 1.4 2.1-1 2.8 1.2 1.5 1.3 1.5-.4.4-.4.3-4.7.5-4.8.6zm5.6-5.8v-3.4h-3l-.3 2.3-.4 2.3.6 1.6.6 1.5 1.3-.5 1.2-.4zm55.7 4.5-2.2-1.5v-5l4.1-4.1 4.4 1.4.7 1 .8 1.2-.3 1-.4 1-3 .3-3.2.3.6 1.5.5 1.4h3.4l2-1.5 2.2-1.5-.5-1.8-.4-1.8 1.6-1.4 1.6-1.3 2.4 1.1 2.5 1.2v5h2.1l-.3 1.7-.3 1.8-7.6 1.2-1.5-1.4-1.4-1.4-2.2 1.5-2.2 1.6h-1.2zm13.3-2.4.6-1h-2.1v2h.9zm0-4 .5-.9-2-1.2v3.1h.9zm-9.5-1v-1h-2v2h2zm17.2 8.2-1.3-.9 1-2.4.8-2.4-1.6-4.4 1.4-.8 6 .4.6 3-2 .6-2.1.5v4l1.1.8 1.1.7-1.3.8-1.4.9h-1zm104.4 0-.6-.5v-2.8h4v2.8l-1.4.5-1.4.6zm11.7-.8-.6-1.5 1.8-1.8 1.4.8 1.4.9-1.2 3.2h-2.1zm11.7-.3v-2.2h4.1l-.3 1.7-.3 1.8-1.8.3-1.7.3zm12.1.6-1-1.4.6-.6.6-.7h3.7v1.8l-1.4 1-1.3 1.2zm11.2-.3-.6-1.6 1.4-.9 1.4-.8 1.4 1.3 1.3 1.4-.6 1.1-.7 1.1h-3zm12.4 1-.7-.7v-2.8h3.9l1.4 2.2-2.8 1.8h-1.2l-.6-.7zm-233.1-2-1.6-1.5v-4l4-4h2.9l1.2-2-1-2-1.2-2h4.1v12.5l.6 2.3.6 2.2h-8l-1.6-1.6zm5.4-.9 1.2-1.5-1.2-5h-4v6.6l.7.6.6.7h1.5zm7.2 1.3-1.2-1.2v-5.2l2.4-2.4h4.4l2.6 3.2-1.5.9-1.4.9h-4.5v1.8l3.2 2.6 3.8-2.4v1.8l-3.2 1.2h-3.4zm4.8-6.3v-1.6h-3v3h3zm4.5 2.5v-5h7.5v2l-5 2v2.9l2 1.2v1.9h-4.5zm10.8 0-2.1-5h14.6l-3.6 9.4-1 .4-1.2.4v-4.3h-1.8l-1 4h-1.8zm4.7-2.6v-1.5h-3v.8l1.2 3.2.9-.6.9-.5zm5 .6v-2h-3v1.6l2.4 2.4h.6zm45 5.4v-1.6l2.4.8.8 2.4h-3.2zm11.5.7-.5-1 2-1.2 2 1.2v1.9h-2.9zm11.5-.6v-1.6h3v3h-3zm11.3.3.4-1.3h2.6l.5 1.3.4 1.2h-4.4zm11.7-.3v-1.7l1 .4 1.2.3v2l-1.1.3-1.1.4zm17.2.3.4-1.2 2.4-.8v3.2h-3.2zm11.5.6-.6-.7.5-.8.5-.9h2.9v3h-2.7zm-747.5-6.8.3-1.4 109.5-.7 114.5-.8 13.5.2 13.5.3-4 .9-4 .8-235 1.2-4.3.4-4.3.5zm86.4-8.7-.6-3.1v-49.1l-84.1 1.4-1.5.6-1.4.5v-3.3l19.8-.2 43.4-.2 23.8-.1.1-6 .2-6-.3-12.6-.2-12.7.7-2 .6-2.2h1.8v49l-.1 49h-1.6l-.6-3.1zm468-6.6-.5-.9 1-1.4.9-1.5v-7l-1.4-2.7-1.5-2.8 1-.5.8-.5 5.5.8 5.6.9 4 3.6v6.6l-2.3 2.6-2.2 2.6-5.1.5-5.2.5-.5-.8zm9.8-2.6 1.7-1.3v-4.5l.1-4.4-1.8-1.3-1.9-1.4-3 .6-.6 10.8.5 1.3.5 1.4h2.7l1.8-1.3zm114.4 2.6-2.8-.4v-5h1.5l1.3 2 1.2 2h4.9l.7-1 .6-1.2-2.3-2.3-3.1-1-3.2-1.1-1-1.7-1-1.6 2-5.6 3.8.1 3.7.1 2.1 2.1-.6 1.8-.7 1.7-4.6-4.4-3.4 1.4.5 1.4.6 1.5v.8h5l3.8 3.8-.5 2.7-.6 2.6-2.4 1-2.4.9-.2-.1-.2-.2zm12.6-.8-1.2-1-.4-4.5-.3-4.5h3l.3 4.3.3 4.2h2.7l.6-1.5.5-1.5-.9-2.5-1-2.4 2-1.2 2 1.2v6.4l1.8 2.8 1.2-.8 1.1-.7-.3-4.2-.3-4.1h3l1.2 10-.3.4-.4.4-6.6.1-6.7.1zm20.3.4-1.7-1v-6.8l-1-.5-.8-.6 1.1-2.5 1.2-2.5h2.5v2.9l1.8 1 1.7 1h-1.8l-1.7.1v7h2v-2h3v-6l2.4-.6 2.5-.6 1.6 1v9.7h-9l-1 .7-1 .6-1.8-1zm10.3-3.4-1.2-1.5h-1.8v3h4.2zm1-4v-.4l-2-1.2v2.1h2zm24.5 7.6-.6-1.1 1.2-2h3l-.3 1.7-.3 1.6-1.2.4-1.1.4zm11.5-.6-1.2-1.5 1.7-.6 1.6-.7 2.1 2.1-.6 1.1-.7 1.1h-1.7zm12.3 0-.6-1.6 1.8-1.8 1.4.8 1.4.9-1.2 3.2h-2.1l-.7-1.6zm11.2.5-.6-1 1.2-2h2.9v4h-2.9zm12 0-.7-1 1.2-1.6 1.3-1.4 1.3 1.1 1.4 1.2-1.1 1.3-1.1 1.4h-1.8zm11.5-.9v-1.9l1.4-.5 1.5-.6 1.1 1.4 1.2 1.4-.7 1-.6 1.1h-3.9zm11.4.8-.6-1 1.6-1.7 1.7-1.7 2.8 3.8-.5.8-.5.9h-3.9zm-243.9-5v-5l6.8.6.4 1.2.4 1.1-2.3.4-2.3.3.3 3.3.3 3.2h-3.6zm9.7 3.9-1.2-1.2v-5.2l2.4-2.4h4.5l1 1.9 1 1.8-.6.7-.6.6h-5.7v1.8l3 2.4 1.5-.6 1.6-.6-1.2 2h-4.5zm3.9-6-.1-.8h-.7l-.7-.1-.5 1.2-.4 1.1 1.2-.3 1.3-.4zm4.9 5.7v-1.6h2v2h3v-1.4l-2.7-2.2-2.6-2 1.2-3.4h5.9l.5 3.8.4 3.7-1 1.3-1 1.2h-5.7zm5-6v-.4l-2-1.2v2.1h2zm4 6v-1.6l4 2.4 2.3-2.3-2.5-1-2.6-1-1.2-2 .6-1.5.6-1.6h6l-.4 2.5-.5 2.5h1.2l1-2.2 1-2.1 4.4-1.6 4.4 3.6-.7 1.1-.7 1.2h-5.9v1.8l1.4 1.1 1.5 1.2 5.2-3.4 1.4 2 1.4 1.8 2.4-2.4-2.7-1.2-2.7-1.3.3-2 .3-2.1 3.1-.3 3.2-.3.8 7.2-1 1.4-1.1 1.4-14-.6-1.7-.7-1.8-.8v2.2h-7zm5-6v-.4l-1-.6-.9-.5-1.2 2h3.1zm9-.5v-1h-2v2h2zm10 .6v-.5l-1-.6-.9-.5-1.2 2h3.1zm8.4 6-.6-1.5 1.6-2.6v-2l.1-2 6.4-.6 1.4 5.6 1 1.2.9 1.2-.7 1-.6 1.1h-9l-.5-1.5zm5.6-1.6v-1h-1.9l-1.2 2h3.1zm0-4v-1h-2v2h2zm6.5 1.7v-5.2l3-.1 3-.2 1.8.5 1.7.4v4.8l1 2.5 1 2.6h-11.5zm7 0-.2-2.2-1.6-.3-1.7-.3v5.8l.7.6.6.7 2.4-2zm6.5 3.2-1.1-2 .6-4.4 3.7-1.8 3.8-1.9-2.2-4 1.3-.9 1.4-.8 1.4 1.4.4 6.5.5 6.5.7 1.8.7 1.7h-10.1l-1.1-2zm6.3-4.2-.6-2.8-3.2.6-.3 2.9-.4 2.9 1.4.8 1.3.8 2.4-2.4zm70.9 5.2.3-1h2l.3 1 .4 1.1h-3.4zm-32.8-13.3-.6-1.7.6-.6.6-.7 2.4 2.4-2.3 2.3zm-414.6-8-1.7-1.2-.6-2.5-.6-2.4 1.3-1.6 1.3-1.7 2.2-.7 2.2-.6 4.1 4.1v4.9l-2.2 1.5-2.2 1.6h-2.1l-1.7-1.3zm5-4 .4-2.8-2.2-2.2-1.7 1.7-1.7 1.6 1.2 2.6 1.2 2.7 1.3-.4 1.2-.5zm5.1 5.1v-.2l-.3-5.8-.2-5.8 3.5.3 3.6.3.3 1.7.3 1.8h-4l-.4 1.2-.4 1.3.9 1.8.9 1.7-1.2 2h-2.9v-.3zm67-1-2.4-1.2-.3-2.8-.3-2.7h-5.2l1.2 7h-4.4v-11h6.1l2.4 2.4 2.4-2.4h4.9l1.7 1.5 1.7 1.6 1.3-1.6 1.2-1.5h4.8l1.5 1.6 1.6 1.5.1 2.2.2 2.2 1.2-7h7l.3 3 .4 3 1 .6 1 .7-.5 1.6-.6 1.6h-7.9l-1.2-1.5-1.3-1.6-1.8 1.7-1.7 1.6-2.4-.4-2.3-.3-1.5-3-1.6-3.1-2.4.8-1.2-3.2h-1.9l-.6 1.9-.5 1.8.6 1.7.7 1.7 2.3-.5 2.4-.6v1.5l-1.9 1.2-1.8 1.1-2.4-1.2zm15.1-5v-3.5l-1.4-.5-1.5-.6-1.1 1.4-1.2 1.5 1.2 5h4zm9 1.8v-1.6h-2v3h2zm-118 2.4v-1h2v-12.3l-1.8-1.3-1.7-1.3h7.3l7.2-.1v.8l.1.7.5 2.3.4 2.2h-1.6l-2.4-2.4v8.9l-1-1.8-1.1-1.7h-2.9v4.3l1.7 1.9 1.6 1.8h-8.3zm8.4-10.2 1.6-2.2v-1.7l-2.3.3-2.2.3-.3 2.7-.3 2.8h2zm36.6 8.2-2.9-3v-6.8l2.3-2 2.2-2.2 2.7-.6 2.8-.7 7.1 7.1 5.4.6.2 3 .1 1.2.2 1.3h2.2l-.5-3-.7-3h3.7l.5.5.5.6-2.6 5-2.6 4.9h-1.4l-2.1-4.5-2.2-4.6-1 .6-.9.6v2.6l-2.6 2.7-2.7 2.6h-4.9l-2.9-3zm7.5.3 1.6-1.5v-6.8l-2-5.2-1.7.3-1.8.3-1.3 2.8-1.4 2.9.6 3.4.7 3.3 3.4 2h.2l.2.1zm20 .2-1.6-2.5 1.4-2.8 1.3-2.8 2.1-.3 2.2-.3 3.2 3.2v1.8l-2.7.3-2.8.3-.3 1.9-.4 1.9 3.1-.5 3.2-.5-.8 2.2-3 .3-3.2.3zm5.6-5.6v-1h-3v2h3zm48.6 6.3-.6-1.5v-4.4l-2-2 1.2-2.7 1.3-2.7h1.6l.6 1.7.7 1.8 1 .8 1.1.9-1.2.5-1.3.5v6l3.2-1.2h1.6l.3-3.3.3-3.2h6v4l.2 4-.9 1.1-.9 1.2h-11.8l-.5-1.5zm10.8-2.3-1.9-.7-.5.4-.4.4 2.8 1.8 2-1.2zm1.3-4.6-.6-.6-2.6 1 2 .1 1.8.1zm14.3 7.2v-1.5h3.2l-.8 2.4-2.4.8zm29-.1v-1.4h2v3h-2zm11.7.8-.7-.6v-1.6h3v3h-1.8zm22.8-.3-.7-1.2 2-2 1.4 2.4-2 2zm11 0-.7-1.2 2.2-2.2 2.2 2.2-.6 1.1-.7 1.1h-2l-.7-1zm12.1.3-.6-.6v-1.6h3v1.9l-.9.5-.8.5zm12 0-.6-.6v-1.6h3v1.9l-.9.5-.8.5zm-108.7-1.6v-1.4l1.4-.5 1.4-.6 1.2 1.2v2.7h-4zm22 .4v-1h2v2h-2zm39.2-.2.4-1.2 2.4-.8v3.2h-3.2zm58.8.2v-1h2v2h-2zm-444-21.9v-1.1l13.3-.1h13.2l133.5-.9v2h-.3l-.2.1-159.5 1.2v-1.3zm465.3.1-2.3-.3v-1.9h2v-11.3l-1.7-2-1.7-1.8 13.9.6.6 6-1.6-2.3-1.6-2.2h-4.9v6h2.3l1.3-1.8 1.3-1.7v4l.1 3.9-2.4-2.4h-2.6v4.9l1.6.9 1.6 1-1.8.3-1.9.5-2.3-.4zm31.6 0-1.6-.3.7-4.2.8-4.1-.5-4.3-.4-4.3h2.9l.4 8.2.3 8.3-1 1.2zm61.8.1-.7-.6v-1.7h3v3h-1.7zm11.8-.3-.7-1.2 2-2 1.4 2.4-2 2zm22.7-.4.3-1.7h1l1 .1v2.3l-1.3.5-1.4.4zm11.5 0-.6-1.5 1-.7 1-.6 1.1 1 1 1-.6 1.1-.7 1.1h-1.7zm12.3.4-1.5-1 1.2-1.1 1.3-1.3 1.2 1.2-.4 1.6-.3 1.5zm40 0-1.5-1 1.3-1.2 1.2-1.2 2.4 2.4-2 2zm11.1-.4-1-1.3.6-.6.6-.7h2.7v2.9l-.9.5-.9.6zm12 0-1.3-1.6 1.7-.6 1.6-.7 2.1 2.1-.6 1.1-.7 1.1h-1.7zm11.4.4-.6-1 1.2-2h2.9v4h-2.9zm12 0-.6-1 1.2-2h3l-.3 1.7-.3 1.6-1.2.4-1.1.4-.7-1zm11.7-.7.3-1.8 1.8-.3 1.7-.3v4.1h-4.1zm11.8-.3v-2h4v4h-4zm-249.6-.5-.6-1.4 1.6-2.6v-2l.1-2 3.2-.3 3.3-.3v7.1h2.9l-.5 1.5-.6 1.5h-8.9zm5-.9.5-1.4-.6-.6-.6-.5-.8.5-.9.5v2.9h1.8zm-.3-4.9-.1-.7h-.7l-.7-.1-.5 1.2-.4 1.1 1.2-.3 1.3-.4zm7.4-1.2v-8.6l1.5.4 1.5.3-.6 8 1 4.2.9 4.2h-4.3zm22.5 7.5v-1h3.1l-1.2 2h-1.9zm12.2 0 .3-1.1h2l.3 1 .4 1.1h-3.4zm11.8 0v-1h2v2h-2zm11 0v-1h3v2h-3zm35 0v-1h3.1l-1.2 2h-1.9zm46-.6v-1.6l2.4.8.8 2.4h-3.2zm17.2.5.3-1h2l.3 1 .4 1.1h-3.4zm-602.5-15.3.5-4.5-.6-2.5-.6-2.6h-2.8l-2.6 3.2 1.6 2.9 1.7 2.9h-4.7l-.5-1.3-.5-1.2-.1 1.3-.1 1.2h-3.4l2.4-2.4v-4.4l-1.5-.6-1.5-.5v-2.1h20.6l2.4 2.4v4.2l-1.3 1.8-1.4 1.9h-2.3l-2.4.2.3 2.3.3 2.2h-3.9zm7.1-5 .4-2.9-2.6-1.6-1.3 1-1.3 1.1v4.5l1.4 1.4 1.6-.3 1.5-.3zm-136.4 4.5 1.8-2-.7-5.5-.7-5.6h-1.8v-2h8.4l-2.4 2.4v11.5l2 1.2-.5 1-.6.9h-7.2zm23.8.3-2.2-1.4v-5l1.6-1.5 1.4-1.5h2.7l3.2 1.2v3l-1.3-.5-1.2-.4.3-1.3.3-1.2-1.8.4-1.8.3v7h5.4l-1 1.2-1.1 1.3h-2.4l-2.2-1.6zm-14-2.1.1-2.8-.7-2.3-.7-2.2h9l1 2 1.1 1.9v6.1h-10zm6.6-2.2.3-3.3-1.8.4-1.8.3-.3 1.8-.4 1.8.6 1.5.6 1.6 1.3-.4 1.2-.5zm16.6 2.8-1.8-2 3-5.4 2.6-.3 2.5-.3 1.7 1.6 1.6 1.6v3.8l-1.6 1.5-1.4 1.6h-4.6zm6.4-2.6-.3-3.8-3.4-.6-.7 2.5-.6 2.6 2.4 3h2.9zm4.7 3.6.7-1 .5-3 .4-2.9h-2.1v-2l7.7.2 7.8.3.5 3.5.6 3.6.8 1.2.7 1.2h-18.1zm7.5-2.3v-2.4l-.6-1.6-.6-1.7-1.4 1.2-1.4 1.1v5.8h4zm6-1.6v-4h-1.6l-2.4 2.4v4.3l.7.6.6.7h2.7zm6.8 4-1.8-1.1v-4l1-2 1-1.9h5.8l.6 1.7.7 1.6-1.3.9-1.3.8h-3.6l.3 1.7.4 1.8 3-.2 2.9-.2-1.5 1-1.5.9h-3zm4.2-7v-1h-1.9l-1.2 2h3.1zm32 7.1v-1.1h2l-.1-6.5-.2-6.5h-1.7v-2l6.8.2 6.7.3.3 2.3.3 2.2h-1.1l-4-4h-3v6h2l.7-1.8.7-1.7 1.4 7-.4.4-.4.5-2.4-2.4h-1.6v6h5l1.2-2 1.3-2h1.2l-.5 2.5-.4 2.5h-.2l-.1.1-6.8.6-6.7.5zm42-1.1-2-2v-3.7l1.8-1.6 1.9-1.7h4.2l1 2 1.1 1.9v1.1h-5.9l-1 1.6.9 1.3.8 1.4 2.1-.6 2.1-.5v1.6l-3.2 1.2h-1.8zm4-6v-1h-2.1l1.2 2h.9zm5.4 2-.1-5 2.2-.2 6 .4.6.6.6.7.7 4.3.6 4.2h-10.5zm6.6.5v-3.5h-3v7h3zm7.3 3.3-1-1.3-.6-1.8-.7-1.8 2.5-2.4 2.4-2.5 1.7.7 1.7.6-1.2-7.4 3.4.6v7.1l.2 7.1.7 1.2.7 1.1h-8.9zm5.5-1 1-1.3-.5-2.8-.5-2.7h-3.6l-.5 2.2-.6 2.1 1 1.9 1 1.8h1.7zm6.7-2.8v-5h2.3l1.2 4.8-.6 1.7-.7 1.7 2.8 1.8h-5zm8 3.7-.5-1.2-.8-11.5h3.8v3.8l1.3.5 1.2.5-1.3.1-1.2.1v7.2l1.5-.6 1.5-.5v2.9h-5.1l-.4-1.2zm8.7 0-1-1.2-.8-7.4 2.4-1 1.2 1.2v7.8l1.8-.3 1.7-.3v-7.5h3.5l-.4 8 .6.6.7.6 1.1-.7 1.2-.8-.5-3.8-.5-3.9h7.8v3h-4.2l.8 7h-14.4l-1-1.2zm21.5-.5-1.7-1.9v-3.9l2.4-2.4h5.4l.4 1 .3 1.1 2.8-1.4 2.8-1.5 1.7.5 1.7.4.2 4.2v4.2l-1 .7-1.2.8h-5.7l.4-2.8.4-2.7-3.8.3-3.8.4v2.8l1.3.1 1.2.1 1.9-.2 1.8-.2-.6 1.1-.7 1.1h-4.6zm14.3-.2v-1l-4-2v2.7l.7.6.6.7h2.7zm-10-6v-1h-1.9l-1.2 2h3.1zm10 0v-1h-3v2h3zm63.7 3.4-.6-.6.5-2.8.6-2.8-1.1-2-1.1-2.2 4.8-1.2 1.9.4 1.8.3v4l-1.9-.3-1.9-.4.7 4.1.6 4.1h-3.7zm18.6-.1-3.3-.4v-5.9h1.2l2 2.6 2 2.5 2.2-.3 2.1-.3.6-4.4-5.6-1.2-1.4-.8-1.5-.7-2-3.2 1.8-2.6 1.7-2.6 3.7.3 3.7.4.3 2.2.3 2.1h-1.5l-4.6-4.4-3.5 3.5 2 1.5 1.9 1.4h3.5l1.5 1.6 1.6 1.5v4.8l-2.2 1.5-2.2 1.6-.6-.2-.5-.1zm32.4-.6-1.5-1.2-.3-4.5-.2-4.5.2-2.3.1-2.2h2l.7 1.8.7 1.7 2 1.4-1.2 1.3-1.2 1.2v4.6h2.8l1-1.3 1-1.2.4-2.5.3-2.5h6v10h-9l-2.2 1.4zm11.3-2.7v-1h-3v2h3zm0-4.4v-.5l-2-1.2v2.1h2zm457.7 7.7-.7-.6v-3.7h2.6l2.4 2.4-2.2 2.6h-1.5zm-545.6-3 1-2.8-.6-4.5-.7-4.5-1-1.3-1-1.2h14l.6 2.2.5 2.3-1.5 1.5-1.9-2-1.8-2h-3.7v4.9l1 .6.9.5 1.5-2.2 1.6-2.2v8.7l-1.8-1.6-1.9-1.7-.6.7-.7.6v4.6l1.8 1 1.7 1h-4.2l-4.3.1 1.1-2.8zm14.4.7-1.7-2 .6-2.5.7-2.6 2.4-1 2.4-1.2 2.6 1.7 2.5 1.6v4.1l-1 2-1 1.9h-5.8zm6-3v-3.5l-1.8-.3-1.7-.3v6.8l.7.7.7.6 1-.3 1.1-.4zm36.2 4.4-.7-.7v-6.7l-2-1.2.5-1 .6-.9h2.9v7.5l.9 1.3.8 1.3 1.3-1.6 1.3-1.5-.6-3.6-.6-3.5 1.7.3 1.6.3.2 3.5.1 3.5.8 3-8 .6-.8-.7zm10.3-.1v-.8l1-1.4.8-1.4-.8-2.8-.9-2.9.8-.4.7-.5 1 .7 1.1.7.5 4.8.6 4.7h-4.8v-.8zm28-.8v-1.5h2v3h-2zm10.3.3.4-1.3h2.6l.4 1.3.5 1.2h-4.4zm11.7-.3v-1.5h3v3h-3zm11.5.4-.7-1 1.1-1.1 3.2 1.2-1.2 2h-1.9zm11.5-.3v-1.6h3.2l-.8 2.4-2.4.8zm12-.1v-1.5h2v3h-2zm28.7.9-.6-.7.5-.8.5-.9h1.9v3h-1.7zm11.3-.8v-1.6h3.2l-.8 2.4-2.4.8zm11-.1v-1.5h3v3h-3zm11.6.6-.6-.9 1.4-1.1 1.4-1.2.7 1 .6 1.1-1.2 2h-1.9zm11.9-.1-.6-1 1.2-2 1 .5.9.6v2.9h-1.9zm12.1.3-.6-.6v-1.7h3v1.9l-.9.5-.8.5zm11 0-.6-.6v-1.7h3v3h-1.7zm33.1 0-2.7-.4v-5.3l1.6 2.2 1.5 2.2h5.7l1-2.8-2.2-2.2h-2.5l-2.6-1.2-2.5-1.1v-4.7l3.7-3.7 3.1.5 3.2.4v5.2l-1.6-2.2-1.5-2.2h-4.7l-.5 1.4-.6 1.5 2.4 2 2.7.6 2.7.7.9 1.1.9 1.2.6 1.7.6 1.8-2.1 2-2.2 2-1-.1-1.1-.2zm12.3-.7-1-1v-6.2l-2.4-2.4h4.3l.7 4.5.6 4.6 1.2-.4 1.1-.4v-4.2l-.2-4.1h3.7v9l.3.7.2.7-3.7.1-3.7.2-1-1zm11.3.7-1-.4 1-3 1.2-3-1.3-2-1.2-2 7.5.3 7.6.2.8 1 .9 1.1.4 3.8.4 3.7h-3.6l-3.5.1-4 .3-4.2.2zm6.5-4.2.4-2.2-.6-1.6-.6-1.5-3 2.4v4.5l.7.7.7.6 1-.3 1.1-.4zm6-1 .3-3.1h-2.9l-.6 1.6-.6 1.7.6 1.9.6 2 1.1-.5 1.2-.4zm27.1 4.6-2.4-1.2-.6-5.2 1.6-1.7 1.6-1.6h4.7l1.2 1.5 1.2 1.4-.7 1-.6 1.1h-4.9l-.5.9-.6.9 3 2.4 1.5-.6 1.5-.5v.8l-3.6 2zm3.1-6.7v-1h-2v2h2zm6 7.8-.2-.3-.2-5.3-.3-5.2 2.4-.1 2.3-.2 1.2-.1 1.3-.1.3 1.8.3 1.7h-4.3l.4 3.7.3 3.8-1.8.3-1.7.3zm18-1.2v-1.6h3.2l-.8 2.4-2.4.8zm12.5.3-.7-1 1.1-1.1 3.2 1.2-1.2 2h-1.9zm13-.3-.7-1.7.6-.6.6-.7 2.4 2.4-2.3 2.3zm23.5-.6v-2.2l1.3.4 1.2.5v2.6l-1.3.4-1.2.5zm12.2.6.3-1.7h1l1 .1v2.3l-1.3.5-1.4.4zm29-.2.3-1.5 2-.4.3 1.8.3 1.7h-3.1zm11.2.5-.6-1 .8-1 1-.8 1.3.8 1.4.9-.7 1-.7 1.2h-1.9zm11 0-.6-1 1-1.1 1-1 3.4 1.2-.4 1.3-.5 1.2-1.5.3-1.6.3zm12 0-.6-1 1-1.1 1-1 1.6.5 1.6.6-.6 1.6-.6 1.5h-2.8zm12.1.2-.6-1.1 1.2-2h3l-.3 1.7-.3 1.6-1.2.4-1.1.4zm12-.1-.6-1 1.2-2h2.9v4h-2.9zm12 0-.7-1.2 1.9-1.9 1.7.7 1.7.6-.4 1.2-.4 1.1-1.5.3-1.6.3zm-369.5-1v-1h2v2h-2zm97 0v-1h3v2h-3zm64.2-1 1.3-2-1.2-3-1.1-3h14.3l1.1.8 1.1.7.6 4.2.5 4.3h-17.8l1.3-2zm6.6-3 .3-3.2-1.8.4-1.8.3-.3 1.8-.4 1.8.6 1.5.6 1.6 1.3-.4 1.2-.5zm6 .2.3-3.2h-2.9l-.6 1.6-.6 1.7.6 1.9.6 2 1.1-.5 1.2-.4zm71.5 3.6.4-1.3h2.6l.5 1.3.4 1.2h-4.4zm36.7-.4v-1.6l2.4.8.8 2.4h-3.2zm-536.6-6.4-.6-1 1-1.1 1-1 1.1.6 1.1.7v1.6l-1.5.5-1.4.6zm158.7-5.3-1-1.3.6-.6.6-.7h2.7v2.9l-.9.5-.9.6zm-342.1-10.6 1-2.1h5l.6 1 .7 1.1-.3.3-.4.3-7.6 1.4zm558-4.8-2.2-6.8-1-1-.8-.9v-1.6h14.7l-.4 2.8-.4 2.7 1.4 2 1.5 2 2-7-1-1.3-1-1.2h4.2l-.7 1.2-.7 1.1-1.7 6.6-1.7 6.5-1 .3-1 .4-2.4-8-1.6-1-2.6 8.4-1.4 1.6zm5.5-5.4.6-2.6-3.4-1.4-1.4 1.6.9 3.4 1 3.4.8-1 .9-.8zm14.5 11.9v-.3l-.3-5.3-.2-5.3 3 .6.5 4.7.6 4.7-1.4.6-1.4.5h-.8v-.3zm28.3-1.3-2.3-1.5-1.2 2h-4.8l-.5-1.8-.6-1.8-.2-4-.1-4 1.4-2.4h1.9v4h2.4l-2.4 2.4v5.3l1.2 1.2 2-1.2 1.8-1.2v-4.1l2.4-2.4h4.5l1 2 1.1 1.9v1.1h-6v4.2l6.2-1.2-2.4 3h-3.4zm4.2-6.5.6-1h-3.1v2h1.9zm24.2 7.3-.7-.6v-1.7h3v3h-1.7zm12.3-.8v-1.5h3v3h-3zm12.5.6-.5-1 2-1.2 2 1.2-.5 1-.6.9h-1.9zm13-.2-.7-1 1.1-1.1 3.2 1.2-1.2 2h-1.9zm13.1.4-.6-.6v-1.7h3v1.9l-.9.5-.8.5zm10.9-.3-.6-1 .6-1 .7-1.1 1.4 1.2 1.4 1.1-.6 1-.5.8h-1.9zm12.2.3-.7-.6v-1.7h3v3h-1.7zm11.3-.7v-1.6h3.2l-.8 2.4-2.4.8zm17 0v-1.6h3.2l-.8 2.4-2.4.8zm11.4.3-.6-1 1-1.2 1.2-1.1 2.2 2.2-.6 1.1-.7 1.1h-1.9zm11.6-.3v-1.6l2.2-1.4.8 1.4.9 1.3-1 1.6h-2.9zm11.7.7-.6-.9.9-1.3.8-1.4 1.7.7 1.7.6-.4 1.3-.5 1.2-1.5.3-1.6.3zm12.3-1.3v-2h3.1l-.3 1.7-.3 1.6-1.3.5-1.2.4zm11.5.9-.6-1 1.2-2h2.9v4h-2.9zm11.5-.5v-1.4h4v3h-4zm11.7.8-.6-.9.9-1.3.8-1.4 1.7.7 1.7.6-.4 1.3-.5 1.2-1.5.3-1.6.3zm-810.3-1.4-.4-.7 1.5-.6 1.5-.5 40.7-.2 40.8-.1 71.5-.7 71.5-.6 8 .5 8 .6-25 1.4-99.5.6-99.5.7-18.7.2zm575.6-.8 1-1.8-.6-.8-.7-2.8-.6-2.7h9.1l.3 1.2.4 1.3.6 3.7.5 3.8h-11zm6.1-2.6v-3.4h-3v7h3zm25.5-.5v-5h7.5v3.8l-2.1-.5-2.2-.6.5 3.7.4 3.6h-4.1zm-38-9-.5-.9 2-1.2 2 1.2-.5 1-.6.9h-2zm-463.8-3.6-.7-.7v-2.6h2.8l.5 1.3.5 1.2.8-2 .8-1.9-5.2-9.6h4.7l.3 2.2.3 2.1 2.8 1-.5-2.7-.5-2.6h3.7v.8l-.1.7-3.2 6.5-3.3 6.5-3 .6-.7-.7zm80.9-1.3-.6-1 .4-5.6.4-5.7 1.3-.9 1.4-.9h5.4l.7 1.1.6 1-2.2 3.1-2.2 3 1.3.9 1.4.9 1 .4 1 .3-1.1 2-1.1 1.8-3.6.3-3.5.3zm6.9-1.1.6-1-1.5-.6-1.6-.6-1.6.6-1.5.6 1.2 2h3.8zm-1.5-9v-2.2l-1.3.4-1.2.5-.3 1.6-.3 1.7h3.1zm-162 7v-1h2v-12l-3-1.2v-1.7h6.8l1.8 4.8 1.8 4.7 1 .6.9.7-.7 2.6-.6 2.6h-1.8l-1.7-4.3-1.8-4.2-.8 2.3-1 2.2 1.2 3h1.8v2h-6zm13.4-.9 1.7-1.8-.3-3.3-.2-3.2-1.2-.5-1.2-.4 1.4-5.4 3.4-.3 3.4-.4-1.3 1.6-1.3 1.5v11.3l1.1.8 1.3.7-3.2.7-3.3.6h-2zm10.3 0-1.7-1.8v-4.2l2.4-1.5 2.3-1.6 2.6 1 2.5 1 .7 2 .7 2.2-1.6 2.4-1.7 2.5h-4.7l-1.6-1.8zm5.8-3.6v-3h-4l-.3 1.8-.4 1.8 1.2 3 1.7-.3 1.8-.3zm5 0-.1-5.5h7.4l1 1.3 1 1.2.4 4 .3 4-10 .6zm6.5 0v-3.4h-3v7h3zm8 2.8-1.1-2.8-.2-3.7-.1-3.8 2.3-2.3.7 1.9.8 1.9 1 .8 1.1.9-1.2.5-1.3.5v6.8h3.1l-1.2 2h-3zm7.8-3.7.4-6.3-1.1-2.2-1.2-2.1h5.1v5.9l2.3.3 2.2.3 1 4.5 1.2 4.5-7.2 1.4h-1.6l-1.6.1.4-6.4zm6.5 3.6.5-.7-.5-2.8-.5-2.7h-2.9v7h2.9zm187.7.8-2-2v-3.9l1.6-1.5 1.5-1.6h4.5l2.4 2.4v5.5l-2.2 1.5-2.2 1.6h-1.7zm4.8-3.8-.3-3.7h-3l-.3 3.8-.3 3.7h4.2zm5 5.2-.6-.6 1-3 1.1-3-1.2-2-1.1-1.8h8v3h-4v4.9l2 1.2-.5 1-.6.9h-3.6zm22.7-.1-2-.5-1.3-1.6-1.2-1.6v-10.2l-2.4-2.4h8.8l-2.4 2.4v9.4l1.2 3.2h4.4l2.4-2.4v2.3l-2 1-1.9 1.1-1.6-.2zm178.6-.7-1-1.3.6-.6.6-.7h2.7v2.9l-.9.5-.9.6zm-392.3-7.9-.4-8.2.1-.3.2-.2 1.7.6 1.7.7-.2 6.6-.3 6.6.7 1.3.8 1.2h-3.9zm27 7 1-1.2 4.4-14.6 1 .3 1 .4 3 8 2.7 7.9v.2l.1.3h-6.2l1.1-1.4 1.2-1.4-3.2-3.2-2 1-1.9 1v1.6l2.4 2.4h-5.6zm6.2-6.7v-1h-2v2h2zm12.6 3.1-2.7-5h4.9l-.4 1.3-.5 1.2 1.8 2.8 1.2-.8 1.2-.7-.5-2-.5-1.8h3.5l-2.3 4.7-2.4 4.6-.4.5-.5.4zm10.4 3-1-2v-3.9l1.4-1.1 1.5-1.2 5.6.6.3 1.8.4 1.7-6.2 1.2v2.9l2.3.9 2.2.9h-2.7l-2.7.1-1-2zm5-6.1v-1h-1.9l-1.2 2h3.1zm5.2 5.5 1.1-2.5-1-2.4-1.2-2.4 1.4-.6 1.4-.5 5.6 1.6 4.2-.5 4.2-.4.7 2.8.7 2.9 1.6 2-1.4 2.2h-4.6l-4.5-.2.3-3.2.2-3.3h-5l-.6 1.6-.6 1.7 1.2 1.8 1.1 1.9h-6zm12.8-.5v-1h-2v2h2zm19.4.5-1.6-2.5.6-2.4.6-2.5 4-1.2 1.8 1 2 1 .6 1.6.5 1.5h-5.8l-.7 1.1-.6 1 1.5 1.7 1.6 1.5 1.5-1.3 1.6-1.2v2l-3.2 1.2h-2.9zm4.6-5.5v-1h-2v2h2zm61.9 7 1.4-.8.8-11-3.2-3.2h14v5.4l-2.3-2.1-2.3-2.2h-3.4v6h1.6l2.4-2.4v6.8l-1.3-1.9-1.4-1.8-1.2.7-1.1.7.7 2.7.6 2.7 1.1.7 1.1.8h-9zm60.6-4.1.2-5.2 3.1-.2 3.1-.3 1.5 1.2 1.4 1.1.5 4.2.5 4.3h-10.5zm6.1 3 1-1-.8-6-1.2.4-1.1.4-.3 3.6-.3 3.7h1.6zm7.6.9-1.2-1.2v-5.5l3.2-3.2 2 .6 1.8.6v-5h-2v-2h5v13.8l1.2 3.2h-8.8zm5.8-4.3v-3.4h-3.8l-.6 1.6-.6 1.7.5 1.8.6 1.9h3.9zm6 3.3-1.2-2 .6-2.4.6-2.3 2-1.1 2.1-1.1 2.5 1.6 2.4 1.5v1.8l-3.2 1.2h-4l.5 1.3.4 1.2 3.2-.1 3.1-.2v1.2l.1 1.1 1-2.3.8-2.2-1-2.5-.9-2.6 1.4-.5 1.5-.6 2.3.4 2.3.3.3 1.7.3 1.8h-4.4l.6 3.4.5 3.4h-12.9l-1-2zm5-5.8v-1h-1.9l-1.2 2h3.1zm15.7 3-2.4-5 1.2-.8 6.9-.1 6.8-.1-.5 1.4-.6 1.4-2.4 8.2h-1.8l-1.2-4h-1.8v2.9l-1 .6-.9.6zm3.9-3.7-.6-.6-1.2 1.2.7 1.8.8 1.8.4-1.8.5-1.9zm6.4 1.3v-1.5l-1-.6-.9-.5-1.2 2 1.2 2h1.9zm5.7 5.6-1.7-1.9v-4l1.8-1.6 1.9-1.7h2.9l2.4 2.4v2.6h-6.1l.3 1.7.3 1.8 1.8.3 1.8.4 2.5-1.6 2.4-1.7-.6-2.3-.5-2.3 1.7-.7 1.7-.6 1.8.5 1.9.6v5.9h2.1l-.6 3.2-4 .4-3.9.3-1.3-1-1.4-1.2-2.3 2.3h-3.3zm14-2 .5-1.2h-3.3v3.2l2.4-.8zm-.2-3.2.6-1-1.4-2.2-.8 1.3-.9 1.4v1.5h1.9zm-9.5-1v-1h-2v2h2zm16.6 5.3.7-2.8v-2l-1.6-3.6 4 .3 3.8.3v3l-1.8-.3-1.9-.3.4 3.8.3 3.8-4.6.6zm9.9 1.7-.6-1 1.2-2h1.9v4h-1.9zm28 0-.6-1h2.1v2h-.9zm11.1.3-.6-.6v-1.6h3v1.9l-.9.5-.8.5zm11.4-.8v-1.4h2v3h-2zm11.5.5-.7-1.2 2-2 1.4 2.4-2 2zm23 0-.7-1.2 2.3-2.3.9 1.5.9 1.4-1 1.6h-2l-.7-1zm11.7-.4.3-1.7h1l1 .1v2.3l-1.3.5-1.4.4zm35.2 0-3.1-1.4-.7-1.7-.6-1.7v-6.7l2.5-2.4 2.4-2.5h2.3l3.4 1.6 3.3 1.6.7 3.4.6 3.4-1.2 5-3 1.5-2.9 1.5h-.6l-3.1-1.4zm6.5-3.2 1.2-2.6-.7-3.4-.6-3.3-1.4-1.1-1.3-1.2-2 .7-1.9.6-.4 4.2-.5 4.2.8 2.3.9 2.2h4.6zm30.6 3.6-.5-.9 2-1.2v-5.8l-2-1.2.5-1 .6-.9h7.4l1.4.9 1.3.9-.7 3-.7 3.2h3.2v-3.6l2-2.3 2.2-2.2 3.1.7 3.2.6.7.7-.6 1.8-.7 1.8-1-1.8-1-1.7h-4l-1.2 5 .6 1.5.5 1.5h3.7l1.3-1.3 1.4-1.2-.5 1.4-.4 1.5-1.7 1-1.7 1.1-3-1.6-2.8-1.7-2.2 2.2-10 .4-.5-.8zm6.8-1.6.6-.6-.6-1.4-.5-1.4-.9.6-.9.5v2.9h1.6zm.5-6.2.4-1.4-1.8.4-1.7.3-.5 1.3-.4 1.4 1.8-.4 1.7-.3zm29.6 7.7-.4-.7 3-2.4v-2.7l1.2-2.6 1.1-2.5h1.2l3.6 10h2.1l-.7.8-.8.7h-5l-5 .1-.4-.7zm5.6-1.9v-1h-2v2h2zm9.5 2-.5-.9 2-1.2v-5l-2 .6-2.2.7.4-2.4.3-2.3 8.6-.6 1.4 1 1.3 1.2.7-1 .6-1.1h6.6l.7 4.6.7 4.7-1.4 1.2-1.3 1.3-3.3-.5-3.2-.5v-5.2l-3.8-2.4-1.2 1.2v4.6l2 1.2v1.4l-6 .2-.5-.8zm16.3-2.3-.5-1.2-2.1-.3-2.2-.3v2l1.3.4 1.2.5 1.3.1 1.4.1-.4-1.2zm-1.9-5.6v-1h-3.1l1.2 2h1.9zm8 7v-2h3v4h-3zm-234 0v-1h2v2h-2zm99 0v-1h2v2h-2zm37.8-4-2.5-5 1.1-.3 1.1-.4 1.3.4 1.2.5v3.7l1.5.8 1.4.8-.6 2.3-.5 2.2h-1.5zm12 .5.5-4.5h-2.3v-2.1l5.2.3 5.3.3.3 2 .4 2-1.3-1.3-1.3-1.2h-3.5l-.6 1-.7 1.1 1.8-.3 1.9-.3.3 2.4.4 2.4-3.2-1.2v2.9h3.1l.5-1.5.6-1.5h1.8v4h-9.8zm36.4 3.3-1.2-1.2v-5.3l1.8-1.6 1.9-1.7h4.2l1.5 1.6 1.6 1.5v4.4l-1.4 1.8-1.3 1.7h-3.5l2.2-1.8 2.2-1.7-1.4-5.6-2.2.3-2.1.3v4.3l.2 4.2h-1.3zm-292.1-3.4v-1.9l.6 1.3.5 1.3-1.2 1.2v-1.9zm248.6-3.4-.5-2.1 1.4-.6 1.5-.5 1.1 1.1-1.5 2-1.4 2.2zm92.4 1-1.4-.8.7-1 .7-1.2h2.9v2.9l-1.6 1zm-342.8-6-1.3-2 1-.5 1-.6 1.5.8 1.5.9-1.2 1.7-1.3 1.7zm-329.8-30-.6-1 1.2-2h11.9v2.7l-4.2.1-4.2.2-1.7.5-1.7.6zm14-1.8-.4-1.2h39.7l39.7-.2 41-.8 122-1.2-1.1 1.2-1.2 1.2-239.2 2.3zm250-5.2-3-.7 3-1.2 180-1.2-2.3 2.3-85.8.4-85.9.5-1.5.2-1.5.3zm-152-.9-.5-.9.1-2.3.2-2.4-1.6-121.5h2.3v64.5l1.2 61 1 1.3 1 1.2h-3.1l-.5-.9zm664.8.2-42.3-.3v-2h22.5l69.5-1v4l-3.8-.2-3.7-.3-42.3-.2zm-318.9-1.3 7-.8h78l-4 .9-4 .8-84-.2zm91 0 .6-1h179v2h-180l.5-1zm44.6-18.6-3.1-2.6v-7.5l2.3-2.1 2.3-2.2h9.4v2.7l-.1 2.8-1.6-2.3-1.5-2.2h-4.2l-1.2.8-1.1.7-.7 3.8-.7 3.7 3.2 5h4.3l1.9-1.7 1.8-1.6v2.2l-2.2 1.5-2.2 1.6h-3.4l-3.1-2.6zm33.6 1.3-1.7-1.2-.4-10.5 2.3-2.3.7 1.9.8 1.9 1 .8 1.1.9-1.3.5-1.2.5v6.9l2.2-.7 2.3-.7-1.4 1.7-1.3 1.6h-1.4zm7.2 1.2v-.4l-.4-16.6 3 .6-.3 2.8-.3 2.7h4.9l1 1.2 1 1.3.4 3.7.4 3.8h-6.4l-3.2 1.2v-.3zm6.1-5.4v-3.5h-3l-.6 2.4-.6 2.5.7 1 .6 1.1h2.9zm6.6 3.3-1.6-2.2v-3.3l1.8-1.6 1.9-1.7h2.9l2.4 2.4v2.6h-4.9l-.7 1-.6 1.2 2.2 2.2 7-2.2.6.9.5.9h3.4l-2.8-2.4-2.9-2.3.4-2 .3-1.8 3.3-.3 3.2-.3v9.9l-1.5.6-1.5.5-2.6-1-2.5-.9-3.8 2h-3zm4.4-6.3v-1.5h-2v3h2zm10 .5v-1h-2.1l1.2 2h.9zm-54.5-1v-8h3.2l-.2 16h-3zm6.5 6-1-1.9v-3.1l2.5-1.6 2.4-1.6 3.8 1.2 1.2 2.6 1.1 2.5-1 2-1 1.9h-6.9zm6.8-2 .3-2.7-1.5-1.2-1.5-1.3-1 .7-1.1.6v5.6l1.4 1.4 1.6-.3 1.5-.3zm-304.7-5.7v-.5l3-3v-8.4l.6-2.3.6-2.2h7.8v5.2l-2-2.3-1.8-2.4-.6.5-.5.6-1.4 13.4h3.8l-3 2h-6.5zm15-1.4-2-2v-3.7l2-1.8 2-1.7 5 1.2v2l.2.8.2.7-3 .5-2.9.5v3h5.5v1.3l-3.2 1.2h-1.8zm4-6v-1h-2v2h2zm18.7 7.3-.7-.6v-7.6l-1-.5-.8-.6 1.1-2.5 1.2-2.5h1l1.1 2.4 1.1 2.5-1.9 1.9.4 2.8.3 2.9 2-.3 1.9-.4-2.6 3.2h-2.5zm7 .1-.5-.6 1-3 1.1-3-1.2-2-1.1-1.8h3.8l.4 4.8.4 4.7-1 .7-1.1.8h-1.2zm-19.4-2.2 1.7-1.9v-1.6l-2.2-2.3-2.1-2.3h10.3v1.3l-1.7 1.3-1.8 1.2 4.6 6.2h-10.4zm4.2-6.2.6-1h-2.1v2h.9zm22-.5v-8.6l2.6.6.4 16.5h-3zm7 7-1.5-1.6v-4.5l2.4-2.4h4.2l2.4 2.4v1.4l-3 .7-3.1.7.3 1.6.4 1.7h5.3l-.5.7-.5.8h-4.9l-1.5-1.6zm4.2-7-.6-.7-1 .7-1.1.6 1.2 2 1.1-1 1-1zm4.3 6.6v-2h1.3l1.3 1.8 1.3 1.7 2.4-2.4-5-2-.7-1.7-.6-1.7 1.1-1.3 1.1-1.4h4.8v.8l.2.7.1 4.5.2 4.5-3.7.3-3.8.3v-2zm6-6.1v-1h-3v2h3zm70 7.2v-.9l4-3.6 3.7-5.8 3.8-5.9h1.3l.4 8 .3 8h-5.9l2.4-2.4v-2.7l-2.8.3-2.7.3v5l-2.3.3-2.2.3zm9.8-8.1.4-1.3-2.6.8-.8 2.6 2.6-.8zm38.3 7.5-1.2-1.5 1-2 1.1-2v-1h-3.2l2.4-3h3.1l-.6 4-.5 3.9 1 .3 1 .4-1.5 1.2-1.4 1.2zm252.9 1v-.1l-.3-5.3-.2-5.2h3.5v2.2l.2 2.3.4 5.4-1.8.4-1.8.5v-.1zm7-1.6-2-2v-3.9l1.6-1.5 1.5-1.6h4.2l1.7 1.5 1.7 1.6 1.3-1.6 1.2-1.5h5.6l1.3 1.6 1.2 1.5 1-1.5.8-1.6h5.5l2.2 2.2 2.4-1.6 2.3-1.5 4.6 1.2-.6 9.2h-4.5l-4.5.1-2.2.8-2.2.7-2-1-2-1.2-.7-2.4-.6-2.5h-2l-3-3-.9.5-.9.6v4.4l1 1.4.8 1.4 2.1-.6 2.1-.5v1.6l-2.4.8-2.4-.4-2.3-.5-1.6-2.3-1.5-2.4h-4.8l-.7 1-.6 1.2 2.2 2.2 4-2.4v2l-2 1-1.9 1h-2zm28-1.7 2-1.7v-1.4l-2.3.5-2.2.6-1.2 1-1.3 1 .6.8.5.9h1.9zm-23.5-4.3.6-1h-3.1l1.2 2h.8zm-294 2.3.2-4.7h2.8l2.8-.1.4 1.2.4 1.1-2 .6-1.9.7-.6 3-.6 2.9h-1.8zm8 3.7-.6-1 1.2-2h1.9v3.4l2.4-2.4-3.6-2.6.4-2 .3-1.9 1.9-.3 1.8-.4 2.2 2.2-2.2 2.2 1 2.8-2.4 3h-3.8zm8.5.4v-.6l1.6-6 1.5-6-1-2.8h4l-.6 3-.7 3h4.5l-.6 3.4-.6 3.5 1.1.3 1.2.4-.8 1.2-.7 1.2h-4.1l.5-2.3.4-2.2.8-1.8.7-1.7h-2.4l-1.5 4-1.6 4h-1.7zm20.5-2.8.7-3.6h-2.4l1-1.3 1.2-1.4 8.5.2-.3 3.3-.2 3.2h2.5l1.1-.8 1.2-.7.3-2.5.4-2.5 1.9-.3 1.8-.4 2.1 2.1-1.1 1.4-1.1 1.3.5 2.2.6 2.1-2.6.7-2.6.6-3-2.4-3 2.4-1.3-.5-1.4-.5.5-3.4.5-3.3-3.2 2.6-.6 4.2-1.3.5-1.3.4zm16 1.5.5-1-2-1.2v3.1h.9zm214.3.7 1.2-1.2v-12.5h-2.1l.5-.8.4-.8 5.2.2 5.1.3 1.5 1.2 1.4 1.1v3.6l-1.3 1-1.2 1-2.5.4-2.5.3-.3 2.9-.4 2.9 1.4.8 1.3.9h-8.9l1.2-1.2zm9.2-10.2v-2.4l-3.2-1.2h-.8v6h4zm-131.5 3.5-.7-1.2 2.3-2.3.8 1.4.8 1.3 1.4-2.2-1.2-6-4-5h6.2l-1.2 2 1.2 4 2-1.2-.8-4.8h4.7v1.6l-1.3 1.2-1.2 1.3-5 10.4-1.7.3-1.6.3zm-310.1-2.6.6-1.6v-2.8h4l-1.8 3-1.7 3h-1.7zm258.2-1.2-.6-1 1.6-.6 1.7-.6-.6-5.7-.6-5.6-2.1-2.1v-1.6h10.6l2.2 1.6 2.2 1.5v3.8l-1.5.9-1.5.8 1.6 3.2 1.6 3.3 1.3-1.1 1.3-1 .6-2.5.6-2.4 4-1.2 2 1 2 1.2v2.8l-2.8.3-2.7.3v3l2.1.3 2.2.3 3.2-3.2v-4.9l1-.6 1.1-.7 2.5.6 2.4.6v6h2.1l-.3 1.8-.3 1.7h-3.5l-3.5.1-1.8-.9-1.8-.8-1.4 1.1-1.4 1.2-3.2-1.6-3.3-1.6-2 2h-4.6v-4.5l-1-1.4-.8-1.4-3.2 1.2v4l1.8 1 1.7 1h-2l-2 .1-2.1.6-2.2.6-.6-1zm32.4-2.7v-1.5h-2v3h2zm1-4.6v-.9h-3v1.7l.6.6.7.6.8-.5.9-.5zm-10.2 0-.4-1.3-2.4-.8v3.2h3.2zm-13.3-4.9v-2.5l-1.8-.3-1.7-.3-.6 1.5-.6 1.6.6 1.6.6 1.5 1.7-.3 1.8-.3zm63.5 12v-.9l2-1.2v-10.2l-1.6-1.9-1.7-1.8 1.5-.5 1.4-.6 4.8 1.8 1 3.8 1.1 3.8 2.4.8 1.2-4.5 1.1-4.5 1.8-.6 1.7-.5 1.7.6 1.8.7-2.4 1.4-.1 6.2-.2 6.2 1.5 1 1.5.9-10-.2 1.8-.5 1.7-.4v-5.2l-.2-5.2-3 7-2 5-1.3-3-1.4-3-1.2-4-1 1.5-.9 1.5v4.4l1.7 1 1.8 1-1.5.1-1.5.2-1.8.3-1.7.3zm22.1 0-1-.5.6-4.4.6-4.3 1.3-.5 1.4-.5 5 1.2v5.8l1.3.5 1.2.4-2.4 2.6-7 .4zm4.7-3 .5-1.3-1.4.5-1.3.4-.4 1.3-.5 1.3 1.4-.4 1.3-.4zm-.3-4 .6-1h-2.1v2h.9zm8.6 6-2.1-2v-3.5l.9-1.3.8-1.3 5.8-1.6-.1-1.4-.2-1.4-.7-1.8-.7-1.7h5.1v14.6l.3 1.4.3 1.5-7.4.6-2-2zm5.7-2.8.4-2.3-1.3-1.5-1.2-1.4-1.3 1.1-1.4 1.1v4.5l1.4 1.4 1.6-.3 1.5-.3zm6.8 3.2-1.6-1.4v-5.6l2.6-1.3 2.5-1.4 1.7 1 1.7 1.1.3 1.7.3 1.6h-6.1l.3 1.8.4 1.7 5.6-.4-1.2 1.5-1.2 1.4h-3.9zm4.1-7-.6-.6-2.6 1 2 .1 1.8.1zm-335.2 6.6-.6-1 3.2-1.2 1.1 1.1-.7 1-.6 1.1h-1.9zm250.7-.2-1.2-1.2v-4.5l1.6-1.5 1.5-1.6h4.1l-.5-3.5-.6-3.5h3.8l.6 17h-5.9l1.8-1.3 1.7-1.3-.6-2.7-.7-2.7-1-.7-1.1-.6-1.3 1.7-1.2 1.7.8 3 .9 2.9h-1.5zm-101.5-.5-.7-.6v-1.7h3v3h-1.7zm250-.7-.6-1.4 1.4-.5 1.3-.6 1.2 1.2v2.7h-2.8zm-761.7-27.3v-1.3h2.5l106-.8 4 1.6-2.5.5-2.5.6-107.5.8zm118.4-.4-.5-.9h.3l.3-.1 13.4-.8.6 1 .6.9-7.6.4-3.3.1-3.3.2zm142.6.2v-1.1l12.8-.2 12.7-.1 2.5-.2 2.5-.3 527-1.5 4.4-1.6.7 1 .6 1-1 1.2-1.2 1.1-440.5.3-120.5 1.6zm-126-1v-1.1h48.5l71-1-6 2-56.8.7-56.7.6v-1.1zm39.6-13-.6-.8.6-5.4.5-5.4.4-1.3.4-1.2h8.1v2.1l-2 3-2 2.8 2 1 2 1.2v2.8l-2 1-1.9 1.1h-5zm7.2-1.8.4-1.3h-6.2v1.7l1.4 1.4 4-.6zm-1.8-8.3v-2h-3v2.7l.7.6.6.7h1.7zm-152 5.3v-2.3h1l4 4h3.8l.4-1.3.5-1.2-.4-1.2-.5-1.3-4-1-3.9-1.1-.6-1.6-.6-1.5 1-2.7.9-2.6h8.4v4.8l-2.4-2.3-2.5-2.3-1.5.6-1.6.6v3.9l3.2 1.2h3.7l1.5 1.5 1.5 1.6 4.1-4.1h2.7l1.6 1.8 1.7 1.9v1.3h-6v4h3v2h-3l-4.2-4.2-1.4 2-1.5 2.2-4.4-.2-4.5-.2zm19-5.3v-1h-2v2h2zm5.3 6 1.7-1.1v-3.8l-3-3v-1.1h10.3l-1.7 2-1.8 1.9.7 2 .6 2.1h1.9v2h-5.1l1.2-2h-2.1v2h-4.5zm105.4.4-.7-.7 1.3-1.5 1.2-1.4 2-6 2-6.2 2-.6 6.2 16h-5.6l.4-1.2.5-1.3-.9-1.3-.8-1.4-2 .4-1.8.3v5l-1.6.3-1.5.3zm6.8-7.3.5-1-2-1.2v3.1h.9zm21.6 5-1.1-2v-2.8l1.8-1.6 1.9-1.7h4l.7 1.6.6 1.6v1.8h-4.9l-.7 1-.6 1.2 2.2 2.2 4.2-2.6-.4 1.4-.5 1.3-3 .3-3.2.3zm4.4-5.1.6-1h-2.1v2h.9zm251.1 3.5-.3-1 1.4-4 1.8 3.2 4 2 1.3-.4 1.2-.5v-4.4l-4.4-1.2-4.5-1.2-.6-2-.6-1.9 1.3-2 1.3-2.1h8.5v5.4l-2-2.3-2.2-2.2-1.6.3-1.7.3v3.9l2.8.7 2.8.8 1.5 1.2 1.4 1.1v5.8l-1.3.8-1.2.7h-4.2l-4.3.1-.4-1zm190.2.7-2.7-.3 1-2.4 1.2-2.4-.7-2.5-.6-2.6h-2.8l-1.2 3.2v6.8h-1l-3-3.2-2.8-3.3-.6.5-.5.6 2.8 5.4h-6.3l2.4-2.4v-6.2l-2.4-2.4h4.4l3 3.3 3 3.2v-4.5h-2v-2h15l3.2 5-1.2 4.8-2.7.9-2.8.9zm5-5.6.3-3.8-1.8.4-1.8.3-.3 2.3-.4 2.3.6 1.6.6 1.5 1.3-.4 1.2-.5zm-179.3 4.4-.7-1.1-1-6.4-1-1.2-1-1.3h22.7l1.3.9 1.4.8-.4 1.9-.3 1.8-5 1.2.2 2.2.3 2.2h-4.5v-9.5h-2.9l-1 4.5-1.2 4.5-6.2.6zm6.3-4.3.3-3.9-2.3.4-2.3.3-.3 2.3-.4 2.3 1.2 3 1.7-.3 1.8-.3zm12.2-2.2v-1.5h-3v3h3zm4.8 6.3 1.2-1.2v-5.5l-2-1.2v-1.9h8.8l1 1.4 1.2 1.3-.6 1.7-.6 1.6h-4l1.1-1.4 1.2-1.4-1.1-.7-1.2-.7-1.7 1.7.8 3.8.9 3.7h-6.2zm12-2.8.4-4-2.4-3h7.6l-2.4 2.4v6.5l1 .5.8.6 3.2-1.2v-1.8l.1-1.6 1 2.3.9 2.3 2-1.2v-6.5l-2.4-2.4h6.2l-.6 4.6-.5 4.6 2.8 1.8h-18l.3-4zm18.7 3 .7-1.1.6-5.4-1-1.8-.9-1.7h10.1l.7 1.5.5 1.6-.7.7-.8.7-.4-1.3-.5-1.2h-4.8v2.2l1.5-.6 1.5-.5v5.4l-.9-1.4-.8-1.3-.7 1-.7 1.2 1.2 2h2.7l2.4-3h3.6l2.4 3h2.8v-2.8l-3-.7-2.8-.6-.6-1.5-.5-1.4.5-1.5.6-1.5h6.4l1.1 4.2 1.1 4.1-.5 1.4-.5 1.3h-8.6l-.5-1.3-.5-1.2-.1 1.3-.1 1.2h-11.1zm17.3-7.2-.4-1.2-2.4-.8v3.2h3.2zm17.9 6.4-1.7-1.9v-4.2l1.6-1.6 1.7-1.6 3 .3 3.1.3 1.5 2.6 1.5 2.7-3.4 5.2h-5.7zm7.1-3.3.3-3.6-1.5-.6-1.6-.6-1.5.5-1.5.6v4.6l.6 1.7.7 1.6 2-.3 2.2-.3zm5 3.9 1.2-1.2v-6.2l-2.4-2.4h4.3l2.5 3.3 2.6 3.2v-4.1l-2.1-2.1 2.6-.5 2.5-.5 1.4 2-1.2.5-1.2.4v8.8h-1.5l-2.7-3.2-2.6-3.3-1.5 1.5 1.1 2.5 1.2 2.5h-5.4zm25.3.2 1.7-1-.3-6-.2-6-1.3-1.3v-1.7h17v2h-2l.2 6.8.3 6.7h4l1.6-4.5 1.6-4.4 1.2-.4 1.1-.4v3.3l1.6 3.2 1.7 3.2 1 .7 1.2.8h-6.3l-.5-2.1-.6-2.1-1 .6-1 .7.6 1.4.5 1.5h-13.2l1.5-1.6 1.6-1.5v-2.7l-1.3-1-1.3-1.1-2.2.6-2.2.5v4.8l1.8 1 1.7 1h-10l1.6-1zm11-8.5.6-.5-.4-2.5-.5-2.4-1.5-.6-1.6-.5-1.3 1.1-1.4 1.1v4.8h5.7zm-593.6-28.7-.6-1-1.4.6-1.4.5v-2.4h138l-.3 1-.4 1-57.4.2-57.4.3-9.3.3-9.3.4zm137.5-1.8v-1l32.8-.1 32.7-.2 5-.4 82-1.4 23.2-.8 470.3-2.5 38.5-.3 4-.8.6 4.6h-289.6l-227 1.3-37.5.6-37.5.7-97.5 1.6zm-23-6.4-.1-3.2-.7-7.8-.8-7.7h2.6l.1 2.3.2 2.2.3 8.8.2 8.7h-1.8zm488.7-.4-.6-.6v-115l-.6-.5-.6-.6h-92.2l-92.2.1-53 .7-53 .6-36.5.5-36.5.6-27.5 1-27.5.9h-20l-20 .2-.6-2 .9-.6 1-.5 38.3-.2 38.4-.3 29.5-.5 29.5-.8 52.5-.4 178.5-1.7 53 .4 82-.8h53.5l53.5-.1.3 1.9.4 1.8-1.1-.7-1.2-.7-56.7.3-56.7.2-32.6.2v58.2l.1 58.2-.8.5-1 .5-.5-.6zm-489.7-21.8v-.9l-.4-32.5-.6-32.5-.1-1.5-.2-1.5.1-9.3.2-9.2h1.9v37l.5.9.5.8.4 47.4-2.3 2.3zm-116-1.8v-1.6l1-1.8.8-1.7 2.3-5.9 2.2-5.9 2.6 3.6 1.6 5.3 1.5 5.4 2 1.2-.5 1-.6.9h-6.1l1.2-1.6 1.3-1.5-1.5-1.6-1.6-1.5-2.4 1.4 1.2 4.8h-1.9l-1.5.6-1.6.6zm17.7-1.4-1.7-1.9v-4l1.8-1.6 1.9-1.7h3.6l-.6-3-.7-3h4l.1 7 .2 7 .1 1.3.1 1.2-3.6.3-3.5.3zm5.3-.7 1.2-1.5-.6-2.6-.7-2.5-3.4.6-.3 2.3-.4 2.3.6 1.5.5 1.4h1.9zm8 .8-2.1-1.5.3-2.6.3-2.7 6.6-3-.5-2.8-.6-2.8 1.8.3 1.7.3.3 7.3.3 7.2h4.2l-.5-4.5-.6-4.5h5.6l2.4 3-.8.1-.9.1-1.8-.1-1.7-.2v5.7l2.1 2.1h-7l-7 .1-2-1.5zm4.8-1 .9-1.8-.7-2.5-.6-2.5h-2.8l-.6 2.5-.7 2.5.9 1.8.9 1.7h1.9zm15.6.2-1.6-2.4.4-1.8.3-1.7 5.4-3 2 1.8 2.1 2v1.6h-6.1l.3 2.3.3 2.2 2.5-.3 2.5-.2-3 2h-3.5zm5.6-5.5v-1h-3v2h3zm3.4 7-.6-1.2 2-2 .6 1.1.7 1.1h2.9v-1.7l-2.6-1.1-2.4-1.2.3-2.3.3-2.2h6l1 5.6 2.7 1.7 2.7 1.6.8-.8.8-.9-2.2-.8-1.8-1.3-1.7-1.3.6-2.1.7-2.2h5.9v10h-.8l-.7.2-2.3.2-2.4.3-.5-1.3-.5-1.4-4.2 3h-4.7l-.7-1zm5.6-7v-1h-2.1l1.2 2h.9zm17.7 7.3-.7-.6v-1.7h3v3h-1.7zm11.8-.4-.7-1 1.1-1.1 3.2 1.2-1.2 2h-1.9zm11.5-.9v-1h3v2h-3zm65.4 0-2.2-.9-1.6-2.3-1.6-2.2v-4.4l2.6-3.2 2.6-3 7.7.2 7.6.3-.6 5.4 5.6.6.5 3.5.6 3.6.8 1.2.7 1.2h-12.5l2.4-2.4v-8.7l-1-2-1.1-2-1 .7-1 .6 1 2.8h-1.4l-1.3-2-1.2-2h-4l-1.6 2.5-1.6 2.4 1.4 8.2 4.2 1.6 1.8-.5 1.8-.4v-1.8h2.5l-2.4 2-2.3 2h-1.8l-1.6-.1-2.1-.9zm18.6-5v-4.1l-3.2 1.2h-.8v7h4zm5.9 2.9.8-2.3-.8-2.7-.8-2.8h7.9v3h-4.2l.8 7h-4.5zm9.2.3 1.2-1.8-1.1-3.2-1.1-3.1h3.9v2.8l.1 2.7.5 2.3.4 2.2h-5zm5.9-.2v-2.2l2 1.8 2 1.9 2.2-2.2-2.9-1.4-2.8-1.3v-4l3.3-.3 3.2-.3v3.5l-2.4-2.4h-2.6v2l2.6.6 2.5.6-.3 2.7-.3 2.6-3.3.3-3.2.3zm11.3.9-1.1-1.3-.2-4-.3-4 .2-1.8.1-1.7h2.5l1.2 2.5 1.1 2.5h-1.8v7.2l2-.5 2.1-.5-.4 1.1-.4 1.2-4 .6zm7.2-4.8v-5l1.5.2 1.5.3.2 7.2.7 1.2.7 1.1h-4.6zm5.5 3v-1.9l1-.6 1.1-.7-1-1.3-1.1-1.2 1.4-1.2 1.5-1.3 2.3.4 2.3.3.3 2.5.4 2.5.9 1 .9.9v2.6h-10zm5.4-.5.5-1.5h-2.9v3h1.8zm.4-4.6-.4-1h-1.9l-.3 1-.4 1.1h3.4zm6.6 2.1v-5h8.7l.3 1.3.4 1.2.6 3.8.5 3.7h-10.4v-5zm6.4.3-.3-3.8h-2l-.3 3.8-.3 3.7h3.2zm14.4 3.6 1.8-1v-12l-1.5-.5-1.5-.6.6-.9.5-.9h3.1l5.4 5.7 5.5 5.7-.3 3-.3 3.1-8.8-11.6-1.2 1.2-.1 3.2-.2 3.2 1.5 1.8 1.6 1.7h-7.8l1.7-1zm18.4.3-.5-.8 1.2-8.4 2.3-.6 2.4-.6 3 2.4v5.8h2.2l-.4 1.3-.5 1.2-9.2.4zm5.2-3.1.4-1.3-2.6.8-.8 2.6 2.6-.8zm.2-4.2v-1h-2v3.1l2-1.2zm6.5 2.7v-5.7l7.5.3 7.5.2 1.2 9v.2l-.2.1-16 1.4zm7-.1v-3h-3l-.3 3.3-.3 3.4 1.8-.4 1.8-.3zm6 0v-3h-3l-.3 3.3-.3 3.4 1.8-.4 1.8-.3zm7.7 4-2.2-1.6v-5l1.6-1.5 1.4-1.5h3.5l2.4 2.4v2.6h-6v3.1l1.5.5 1.5.6 3-2.4v1.8l-2.4 2.4h-2.2zm3.8-6.6v-1h-3v2h3zm8 6.5v-1.5h3v3h-3zm11.4.4-.6-1 .8-1 1-.8 1.3.8 1.4.9-.7 1-.7 1.2h-1.9zm11.8-.3.3-1.7h1l1 .1v2.3l-1.3.5-1.4.4zm24 .2-1.2-1.2v-1.6h2.9l.7 1 .6 1.2-1.8 1.8zm-13-1 .5-1.3h2.6l.4 1.3.5 1.2h-4.4zm23 0 .5-1.3h2.6l.4 1.3.5 1.2h-4.4zm11.8-.3v-1.5h3v3h-3zm12 0v-1.7l1 .4 1.1.3v2l-1 .3-1.1.4zm8 .5v-1h2v-12.9l-1.8-1-1.7-1.1 6.9.3 6.9.2 1 1.8 1.2 1.7-1 1.8-1.2 1.7-3.1 1-3.2 1v5.5h2.1l-1.2 2h-6.9zm9.8-11.9-.3-2.6h-3l-.3 1.8-.4 1.8.6 1.4.5 1.5 1.6-.6 1.6-.7zm5.7 7.4v-5.5h6.4l.9 1.6.9 1.5 1.2-1.5 1.3-1.6h5.6l1 1.3.9 1.2 1.2 3.4-2 2.5-2 2.6h-3.6l-2.1-2.3-2.2-2.3v-2.4h-4.3l1.2 7h-4.4zm15.3 1.8 1-1.8-1-2.3-.8-2.4-1.2.4-1.3.5-.3 2.2-.4 2.2.6 1.5.5 1.4h2zm13.3 1-2.1-2.6v-1.3l1.6-2.2 1.4-2.2h4.5l2.3 2.3 3-2.4 5.6.6 1.2 7 .2-2.2.1-2.1 1.2-3.2h6.4v9.5h-9.4l-.7.8-.7.7h-5.3l-2.2-2.2-.6 1.1-.7 1.1h-3.9l-2-2.6zm7-.3 1.9-1v-2.7l-3 .5-3 .4-.6 1-.5.8 1.2 2h2zm6.9 0v-.9l-1-.6-1.1-.7-.6.5-.5.6.7 1 .6 1.1h1.9zm9-.5v-1.5h-1.9l-.5.9-.5.8.6.7.6.6h1.7zm1-4.9v-.4l-1.5-.6-1.5-.5v1.9h3zm4 8.2v-.3l-.3-5.3-.2-5.2h3.5l.2 4 .1 4 .1 1.2.1 1.3-1.7.3-1.8.3zm7.2-1.8-2.2-2v-3l2.4-2.8 2.5-2.8 2.8 1.5 2.8 1.6.6 5.6-3.4 3.8h-3.3zm5.3-4v-3.5h-3l-.3 2.3-.4 2.3.6 1.6.6 1.5 1.3-.5 1.2-.4zm5 0v-6h7l1.4.9 1.3.9.8 4.3.8 4.4-.1.2-.2.1-11 1.4zm6.5-.6v-3.6l-3 2.4v4.8h3zm10 4.6v-2.1l1.8.3 1.7.3v3l-1.8.3-1.7.3zm12.5 1-.6-1 1.2-2h1.9v2.9l-1 .6-.9.5zm155.5-1v-2.2l1.3.5 1.2.4v2.6l-1.3.5-1.2.4zm23 .5-1.2-1.5 1.5-.6 1.6-.6 1 .7 1.1.6v1.7l-1.4.5-1.5.6zm23.7.9-.7-.7v-2.7h4.1l-.3 1.7-.3 1.6-1 .4-1.1.3zm22.6-1-.6-1.5 2.3-2.3 2.3 2.3-.6 1.5-.6 1.6h-2.1zm-307.6-6.6.3-7.3 2.8-2.8 3.2 1.2v4.1h-1.9l.4 12h-5.1zm94.3 5.6v-1.6l2.4.8.8 2.4h-3.2zm11.7 1-.6-.7.5-.8.5-.9h1.9v3h-1.7zm71.3-.4v-1h2v-11.6l-2.4-2.4h4.9l3.5 4.5 3.5 4.4h.8l.7.1v-8h-2v-2h4.9l.5 1 .6.8-1.2.4-1.1.4.4 14.4h-2l-3.2-4.3-3.3-4.2-2-1.4-1.6 1v6.1l1.8 1.4 1.7 1.3h-3.3l-3.2.1zm19.7-.8-1.7-1.9v-2.8l1.3-1.6 1.2-1.5 1.8-.7 1.7-.6 4.8 1.8.7 2 .7 2.2-1.6 2.4-1.6 2.5h-5.7zm6.3-3.2v-3l-1.1-.7-1-.6-1.5 1.3-1.3 1.4.5 2.3.6 2.2h3.8zm5.4 3.8-.6-1 1-1.2 1.2-1.1 2.2 2.2-.6 1.1-.7 1.1h-1.9zm8.6-.4v-1.4h3v3h-3zm10 0v-1.4h3v3h-3zm22.7.8-.7-.6v-1.6h4v3h-2.7zm23 0-.6-.6.5-.8.5-.9h2.9v3h-2.7zm23.3-.8v-1.4h3v3h-3zm22.7.8-.7-.6 1-1.3 1.1-1.3 1.5.6 1.4.5v2.8h-3.7zm12.3-.8v-1.7l1 .4 1.2.3v2l-1.1.3-1.1.4zm12 0v-1.7l1 .4 1.2.3v2l-1.1.3-1.1.4zm11.7.9-.6-.7.5-.8.5-.9h1.9v3h-1.7zm10.8-.3-.5-1 2-1.2 2 1.2v1.9h-2.9zm-247.5-1.1v-1l2 1.2v.9h-2zm-293-8.4v-2.5h-2.1l1.2-2h3.9v1.9l-1 .7-1.2.6.5 2 .5 1.8h-1.8zm-76.8-1.2.3-1.8 1.8-.3 1.7-.3v4.1h-4.1zm25.3-.4-.7-1 1.1-1.1 3.2 1.2-1.2 2h-1.9zm262-1.9-.6-1 1.2-2h2.7l.5 1.4.6 1.4-1.2 1.2h-2.7zm-493.5-4v-.9l1-.7 1.2-.6-.2-6.8-.2-6.6v-.8l.2-.8 2 1 1.9 1.1 3.2 4.5 3.2 4.4.8-.5.9-.5v-6.8l-1.8-1-1.7-1h7l-1.3.6-1.2.5v14.9h-1.8l-3.2-4.5-3.4-4.4h-1.3l-1.3-.1v6.9l2.2 1.4-1.3.8-1.4.9h-3.5zm20.7-1.8-1.7-1.9v-4.3l2.4-1.5 2.3-1.6 2.7 1 2.6 1v7l-2 1-1.9 1.1h-2.8zm5.6-1.2.5-2-1-4h-3.8v6.7l.7.6.6.7h2.5zm5.2 2-.5-.9 2-1.2 2 1.2-.5 1-.6.9h-1.9zm9 0-.5-.9.8-.5 1-.5 1.2 1.2v1.7h-1.9zm10.5-.5v-1.5h2v3h-2zm10 0v-1.5h3v3h-3zm12 0v-1.5h3v3h-3zm11.5.6-.5-1 2-1.2 2 1.2-.5 1-.6.9h-1.9zm11.7-.7.3-1.5 2-.4.3 1.7.3 1.8h-3.1zm12 .7-1.3-.8 1.4-1.2 1.5-1.2.5 1.5.6 1.5-.7.5-.8.5zm117.8-22.1v-2h1.6l2.3 2.3.7-1.6.6-1.7-2.6-4.6-2.6-4.7v-.7h5.2l-.5 1.3-.4 1.2 2 3.8.8-1.4.9-1.4-.6-1.8-.5-1.7h4.1v.6l-2.5 5.5-2.5 5.4-1.6 2.8-2.2.4-2.2.3zm-220.3.3-.4-.8-3.6-11-1-1.2-.9-1.2.7-1 .5-1.1h13.6l-.4 2.8-.4 2.7 1 1.4.9 1.4 1-.7 1.2-.7v-5.7l-1.3-.5-1.2-.5 2.9-.1 2.8-.1-.7 1.8-.7 1.7-1.7 6-1.6 5.8-1 .4-1.2.4-1.2-4-1-4.1h-1.6l-2.4 8-1.8 1zm3.7-10.8.7-2.6-.6-1-.6-.9h-2.9v3.8l1.2 3.2h1.6zm13 9-.6-1.4.8-1.3.9-1.3-.3-1.8-.3-1.7 1.5-.6 1.6-.6 5 1.2v5.8l2.4.8-.8 1.2-.6 1.2h-9zm5.6-1.5v-1h-3v1.7l.6.6.7.6.8-.5.9-.5zm0-4.5v-1.5l-2 1.2.5 1 .6.9h.9zm6.5 2.6v-5h7.5v3h-4.2l.8 7h-4.1zm10 2.6-1.6-2.3 1-2.7 1-2.6 3-.6 3.1-.6v-3.9h-2v-2.1l2.3.3 2.2.3.3 8.3.2 8.2h-8zm6-2.7v-3.4h-4l-.3 2.3-.4 2.3 1.3 1.5 1.2 1.5 2.2-.8zm9.7 4 .5-1.4h2.3v1l.1 1-1.7.3-1.6.4.4-1.4zm12.3.2-.5-1 2-1.2 2 1.2-.5 1-.6.9h-1.9zm12.2.3-.6-.7.5-.8.5-.9h1.9v3h-1.7zm10.8-.4-.6-1 3.2-1.2 1.1 1.1-.7 1-.6 1.1h-1.9zm12 0-.7-1.1 1.1-1.1 3.2 1.2-1.2 2h-1.9l-.6-1zm60.5-1.1v-1h2v-12.3l-1.8-1.3-1.7-1.3h7.1l7.2-.1.4 2.5.5 2.5h-1.3l-1.7-2-1.8-2.1-3.4.6-.3 1.9-.4 1.8 2.3 2.3 1.5-2 1.4-1.9v8.8l-1.3-1.9-1.4-1.8-1.1.7-1.2.7v4l1.5.5 1.5.6v1.5h-8zm14.4-.4-.6-1.4.8-1.3.8-1.2v-2.7l.1-2.5 5.4-.6 1 2 1 1.9.6 6.4-8.6.8zm4.6-2v-1.6l-2 1.2v1.8h2zm.7-5-.6-.7-1 .7-1.1.6 1.2 2 1.1-1 1-1zm6.8 3.1v-5.5l7.3.1 7.3.2.8 1.2 1 8.4h-10.6l-3 .6-2.8.6zm7-.1v-3h-3l-.3 3.3-.3 3.4 1.8-.4 1.8-.3zm6.3.3-.3-3.3h-3l-.3 1.8-.4 1.8.6 1.5.5 1.4h3.2zm6-.8-.3-5h3.5v6.8l1.2 3.2h-4zm7-2 .4-7-2.6-3.2 2.4.4 2.4.3v8.3l.1 8.2h-3.1zm26.2 6v-.9l2-1.2v-12l-1.8-1-1.7-1h2.9l2.8-.1 4 4.6 4 4.5 2.8-1v8h-1.9l-7.6-10h-1.3l-.5 2.2-.6 2.2 1.4 3 1.5 3v.6h-6zm18.9-1.3-.1-1.2.4-2 .2-2.5.1-2.5h5.8l1.4 3 1.2 2.3 1.1 2.1-.6 1-.6.9h-8.8zm5.1-1.8v-1h-3v1.7l.6.6.7.6.8-.5.9-.5zm0-3.8v-1l-.9-.5-.9-.6-.6 1.5-.5 1.5h2.9zm7 5 1-1.8-1-3-.8-3.1 7-.4 7-.3.7.5.8.5.6 4.8.7 4.7h-17.1zm6.8-3.7-.3-2.7-2.4-.8-.7 2.5-.6 2.6 1.2 1.6 1.3 1.5 1.9-1.9zm6.2 1.1v-3.6h-3l-.6 2.4-.6 2.5.7 1 .6 1.1h2.9zm6.7 2.7-1.7-1.9v-4l1.4-1.2 1.5-1.2 5.6.6v4l-2.8.3-2.7.3v1.6l3 2.4 3-2.4v2l-3.2 1.2h-2.5zm4.3-6.3v-1h-1.9l-1.2 2h3.1zm8 6.5v-1.5h3v3h-3zm10.7.9-.6-.7.5-.8.5-.9h1.9v3h-1.7zm11.9-.3-.6-1 1-.5.9-.6.5 1 .6.9-1 .5-.9.6zm10.4-.5v-1.6h4.2l-.4 1.3-.5 1.2-1.6.3-1.7.3zm12 0v-1.6h3.2l-.8 2.4-2.4.8zm11.4.3-.6-1 1-1.2 1.2-1.1 2.2 2.2-.6 1.1-.7 1.1h-1.9zm12.1.1-.6-1 1.2-2h1.9v2.9l-1 .6-.9.5zm11 0-.7-1.2 2.2-2.2 2.2 2.2-.6 1.1-.7 1.1h-1.9zm11.5-1.5v-1.6l1.8.3 1.7.3-.4 2-1.5.3-1.6.3zm11.7.9-.6-.7.5-.8.5-.9h2.9v3h-2.7zm11.8-.5-.7-1 1.1-1.1 3.2 1.2-1.2 2h-1.9zm11.2.5-.7-.7v-1.7h4.2l-.8 2.4-2 .6zm11.3-.9v-1.5h3v3h-3zm11 .1v-1.4l1.4-.5 1.4-.6 1.2 1.2v2.7h-4zm12.2-.2.3-1.5 2-.4.3 1.8.3 1.7h-3.1zm11.2.5-.7-1.1 1.4-.9 1.4-.8 1.7 1.7-.6 1.1-.7 1.1h-1.9zm11.8-.6.3-1.8h3v3l-1.8.3-1.9.4zm11.2.6-.6-1 1-1.2 1.2-1.1 2.2 2.2-.6 1.1-.7 1.1h-1.9zm12.2.4-.6-.6v-1.7h3v1.9l-.9.5-.8.5zm11.4-.8v-1.5h3v1.8l-1.5.6-1.5.5zm11.5.5-.6-1 1.2-2 1 .5.9.6v2.9h-1.9zm116-1.5-2.5-2.4v-2.7l4-4.4h3.6l2.2 1.6 2.2 1.4v-3h4v9.1l1.8-.3 1.7-.4-.1-2.4v-2.5l-.9-1.8-.8-1.9 2.4.4 2.4.3.3 4 .3 3.9 1 1 1-1.4 1-1.5.6 1.3.5 1.2h2.8v-2h-2.9l-1-1.9-1-1.8 1.3-1.8 1.3-1.7 2.1.6 2.2.7v5.3l2.9-3.4 2.8-3.4 2.7 1.2 2.6 1.2v4h-6v3.2l6-1.2v2l-2.1 1-2.1 1.2-2.8-2-2.8-2.1-1.2 1.3-1 1.4h-15.5l-1.2-1-1.3-1v-4.3l-1.6 2.7-1.4 2.8-2 1-1.9 1.1h-1.1l-2.4-2.5zm5-4v-3h-3l-.3 3.3-.3 3.4 1.8-.4 1.8-.3zm22.5-2.5v-1h-2v2h2zm10 0v-1h-1.9l-1.2 2h3.1zm18.3 8.3-2.3-.4-4-5.2v-6.3l5.6-5.4h9.2l.4 1.8.5 1.7-.4 1.3-.5 1.2h-1.7l-1.2-4h-5.9l-1.1 4-1.1 4.2 3.2 4.8h5.1l3-3.2 2.9-3.2v-1.6l2.6-.6 2.5-.6 2.5 2.3 2.4 2.2v3.2l-1.4 1.8-1.3 1.7h-6.3l-1.7-2-1.6-1.8-1.7 1.8-1.6 1.8-2 .5-2 .4-2.2-.4zm17.5-5.5-.3-3.3h-3l-.3 1.8-.4 1.8.6 1.5.5 1.4h3.2zm44 5.6-.6-.5 1-7.6-1-.7-1.2-.7v-1.9h4.9l.7 4.5.6 4.5-.6 1.5-.5 1.5h-2.8zm16.4-.6-1.2-1.2v-5.1l-1-1.4-.9-1.5 3-5.6h1.7l1.8 2.8 1.8 2.7-.4 5 1.1-2.1 1.1-2.2 2.4-1.3 2.5-1.3 5.4 2 4.4-2.8 2.8 1.4 2.8 1.3v9l-2.7 1-2.7.9-4.8-2.6-2.3 1.2-2.2 1.1-3-1-3.1-1-1.8 1-1.9.9h-1.6zm14.8-2.8v-1h-4v2h4zm-2-5v-.9l-2-1.2v3.1h2zm-251 7v-1h3v2h-3zm12 0v-1h2v2h-2zm72 0v-1h2.2l-.4-5.8-.5-5.7-.7-1.5-.6-1.5 3.7-.3 3.7-.2-2.4 2.4v5.6h6v-5.6l-2.4-2.4h8.5l-2.8 4 .4 4.8.5 4.7 1 1 .8.9v1.6h-8v-2h2v-6.1l-2.8.3-2.7.3-.3 2.8-.3 2.7h2.1v2h-7zm98.6-4.2.2-5.2h6.8l6.8-.1 2.6 2.6v4.7l1.2 3.2h-17.7zm7.2-.4-.3-2.7-1.2-.4-1.1-.4-.7 2-.6 2 1.1 2.2 1.2 2.1 2-2zm6.2.5v-2.9h-2.8l-.4 2.4-.5 2.5 2 2 .9-.5.8-.5zm5.5.1v-5l6-.2h3.6l3.7-.1 3.2 1.2v9.1h-16.5zm7 0v-3.5h-3l-.3 2.3-.4 2.3.6 1.6.6 1.5 1.3-.5 1.2-.4zm6.8-1-.5-2h-2.8v5.7l1.4 1.4 2.4-3.2zm14.4 5.3-.7-.6v-6.7l-1-.5-.8-.6 1.1-2.5 1.2-2.5h2l2.6 4-1 1.7-.8 1.6.4 1.8.5 1.9h1.8v3h-4.7l-.6-.7zm-520.4-7.9.2-2-1.4-1.7-1.3-1.7h6.7l-1.1.8-1.1.7-2.2 6zm-46.3-2.4-1.5-1 3-2 1 1 .9 1-2 2zm558.5-3-.6-1 1.2-2h2.9v4h-2.9zm-769.5-21.8v-1l.6-1.6.6-1.5h123.8l10.4-1.2 1.5 1 1.4 1-.7.7-.6.7-38.8.4-38.8.3-55 .8-2.3.7-2.2.7zm762-8v-2l.8-.6.8-.5 9.4 2-.5 1-.6.9-3.2-.2-3.2-.1-1.8.7-1.7.8zm15.8.2-1.7-1.9h16.9l.5 1.3.4 1.2h-4.4l-10 1.2zm21.2-.1v-1.8l3.8-.2 3.7-.1 5.8-.7 5.7-.7v2.6l2.4-2.4h2.4l.6 1.7.7 1.6-1.3.8-1.2.8-3.8-2-1.6.6-1.7.6-7.8.5-7.7.4z"/>
</svg>
