<?xml version="1.0" encoding="utf-8"?>
<svg xmlns="http://www.w3.org/2000/svg" viewBox="0 0 1252 834">
	<path d="m988 802.2-3.4-.4-1.2-1.6-1.2-1.7 1-1.7.9-1.8h3.5l2.3 2.3 8.9-1.2 8.8-1.1h16.5l4-2 1.2.7 1.2.8 19-.6 1.6-.5 1.7-.5 7.2-10.4 6-8 7.3-11.5 7.2-11.4.7-1.8.7-1.7-4.6 2.5-4.6 2.4h-3.6l-.6 2-.7 2.2-3.2 3.1-3.2 3.2-5.4 4.9-5.3 4.9-3.2-2-.3-2.2-.4-2.3 2.7-8 2.6-8 4.6-8.6 4.6-8.7 1.7-2 1.8-2 1.8-3 1.9-3.2 7-7.6 6.9-7.7h2.6v3.2l-11 12-6.8 10.1-6.7 10.2-4.2 9.2-4.1 9.2-1.4 6.4 9.2-6.6 6-9.2-3-2.2v-3.1l1.2-3.2h4.8l1.2 5h4l16-11.2 2 2-.6 1.4-.6 1.3-1.7 2.4-1.8 2.4 3.5-.6 3.5-.7 5.4-4h1.9l.6 3.1.6 3.2-1.7 1.2-1.6 1.2.6 1.7.6 1.6h3l3-3h1.7l6.6-7 1.1-.1 1.2-.1 5 .4.9.8.8.8-1.8 2-1.9 1.8-4.2 1.4-4.3 1.3v2.8l2.3-.7 2.2-.7 13-6 1.3-1.4 1.3-1.3 4.5-3 4.5-3.2 1.5.6 1.4.5v2.4l1.8-1.5 1.7-1.5 10-5.8 1.6-2 1.7-2 3.8 1 3.9 1 .3 3.6.3 3.5-5.5 5.4-5.5 5.3-6.4 2.8-1.9-1.9 3.9-2.8 3.8-2.7 2.2-2.6 2.3-2.6v-1.5h-2.7l-3.4 1.7-3.4 1.6-4.2 4.5-4.3 4.5v1.7l5-1.2v2l-6 2.4v2.5l1.8 1.6 1.9 1.7h2.9l2 1.5 2.2 1.5 4.9.1 4.8.2 5.9 5.7h1.6v7.6l-2.2 4.4-2.3 4.5-9 4.4-6.5 1.2-6.5 1-10.5 1-10.5.8h-9.6l-9.6.1-4.6 4h-2.5l-.5-1.4-.5-1.3-24.7.6-8.5.6-8.5.7-2.2 2.6-2.3 2.7-1.8-2.3-1.7-2.2-32 1.2-1 1.2-1 1.1h-21l-3.4-.3zm93.7-9.8 14.2-.7 2.2-5.4 6.8-7 6.7-6.8 8.4-12 2.2-2.7 2.2-2.8-1.2-1.2-9 4-3 .7-3 .6-1-1.7-1-1.6-3.5 1.3-3.6 1.3-1.5-1.3-1.6-1.3v-6.8h-2l-1.8 1-1.7.9-5 1-5.8 10.6-4.3 6.2-4.4 6.2v2l-.8.3-.7.3-8 11-1.7 2-1.8 1.9v1.9l4.8-.6 4.7-.6zm39.8-2.5 10-1 18-1 5.3-1.6 5.4-1.6 2.4-3.8 2.4-3.9v-4l-4.4-4h-7.1l-6.3-3-6.2-3v-2h-2l-4 2.4-3.8 2.5-1.2-1.2v-4.7l3.3-1.3 3.2-1.4 1.7-5.3 1.7-5.4-.4-.5-.5-.4-6.5 6.9-6.5 6.8-2 4-2 4.1-2.7 2.5-2.6 2.5-1.4 3.2-1.3 3.3h-1.6l-2.3 4.5-2.2 4.5-1 .5-.9.6v1.9h5.5zm-386.6-6.1-2-3.3 1-12.4 3-7.2 6.3-7.7 6.3-7.6 8.7-8.6 8.8-8.5v-5.2l3-6 4-3.6 1.5 1.3 1.5 1.2-.6 2.5-.7 2.4 3.5-.6 3.4-.6 3.6 4-.6 3.4-.6 3.3-5.2 8-5.2 7.9-2 2.4-2.1 2.4-1.3 1.3-1.3 1.4.6 4.4.7 4.4 2.7-1 2.8-1.1 1.7.6 1.8.7 1 4h.9l3.5-2.6 3.4-2.6v-2.8l4.4-1.4 4.7-4.8 4.7-4.9h3.2v2.9l-2.6 1.6-2.5 4-2.4 4-1.8 3.9-1.7 3.8v3.8h1l4-2.4 3.8-2.5v-7.6l3.8-3.2 3.7-3.3 5.2-1.6 5.2-1.7 5.4 1.4 1 2.4.9 2.5h.9l4.5-3.1 4.4-3.2 1.9.7 1.8.7-6 4.4-3.2 2.9-3.3 2.8v2.8h2l12-6.3 12-6.2v-1.4l-4.3-1.9-4.2-1.9-3.3-2.8-3.3-2.7-1.5-3-1.6-3v-7.3l3.7-3 3.7-3.1 5.1.7 5.2.7 5 2 5.4 5.4 1.2 3.5 1.2 3.6-.7 5.8-.6 5.9h4v2h-6l-1 2.3-1.2 2.2-4.5 6.7-4.4 6.6-1.6.6-1.5.6-.9-.6-.9-.5v-3.4l3.4-5.3 3.5-5.2h-.8l-5.6 2.4-2.8 1.9-2.7 1.9-15.2 7.8-3.8-2v-5l-4.8 2.4-4.7 2.3-2.5.8-2.5.7-7.8 4-7.8 3.8h-2.9l-1-2.4-.9-2.5 1.8-6-.8-.6-.8-.5-10 11-1.2 2.8-2-.5-2.1-.5-.6-.9-.5-.9 2.4-8-.5-.5-.5-.6-4.8 2.2-3 5.7-3 5.6-3 4.3-2.9 4.3h-4.4l-1.1-2.8-1.2-2.8 1-2.5 1-2.6 5.3-4.7 5.3-4.8 1.2-2.2 1.2-2.1v-1.8l.1-1.7h-2.7l-3.6 4h-3.8l-2.7 3.2-2.7 3.1-2.4 6.6-1.9 2.8-2 2.8-1.6 2.8-1.6 2.7h-3zm7.7-9.3 2.8-5 5.9-10.5 6-10.5 1.8-3.5 2-3.5-1.3-.4-1.1-.4-5.9 6.1-5.8 6.2v2.8l-3.8 1-3.6 7.6-3.6 7.5v5.2l1 2 1.2 2.1.8-.8.8-.9zm17-.1-.6-.7-2.5 2.3-2.4 2.3.6 1 .5 1 2.6-2.7 2.6-2.5zm55.3-14.6 7-4.3v-1.4l.1-1.4-8.6 1-7.4 4.8v5.5h2zm-50.7-8 4.9-5.3.6-2.7.5-2.6 3.6-1 2.7-4.2 2.7-4.3 2-5.8-.7-.7-.6-.7-3.6 2-3.5 2.1-4.7 9-4.7 8.9-5.4 7.8v2.7h1.3zm96.5-5.6 1.1-.7.7-4.5.6-4.5-1.5-3.6-1.5-3.7-4.4-2.1-4.3-2.1h-8.4l-1.4 2.8-1.4 2.7.9 3.2.8 3.2 3 2.9 2.8 2.9 5.4 2 5.3 2 .5.2h.5l1.2-.7zm-314.7 23.8-1.5-1-4.4 1.2-10.2-2.2-1.7.9-1.7 1-2.7-.6-2.7-.5-.6-2-.6-1.8h-2l.3 2.3.3 2.2-3.2.3-3.3.3v-4.6l-4.4-2-1.4-4.4-1.4-4.3 1.3-1 1.4-.8 5.5.6 5.5.7 1.2 2 2.1-1.2 2-1.1h4l3 3 .7 3.9.6 3.9 2.1.5 2 .6 2.4-1.6 2.4-1.5v-4.4l-2.3-2.3.6-1.5.6-1.6h8l1.4.6 1.4.5-1 9 1.4 2.6 1.3 2.5-3.8 2.8h-1.1zm-19.6-5 2.6-1v-2h-6v4h.9zm20.1-4v-3.3l-2.8-1 .6 2.4.7 2.4v3.6l.8-.5.8-.4v-3.3zm-26 2 .7-1.1-.6-2.5-.7-2.5-1 .6-.9.6v5.9h1.9zm-7-3.6.5-1.7-.4-.5-.5-.4-1.6.5-1.5.6v3.1h2.8zm13-1.4.6-1h-2.1v2h.9zm59 12-.6-1h-8l.6-3 .7-3h-1.7l-1.4.9-1.3.9.6 2 .7 2-2.3.5-2.3.6-1.8-1.8 1.1-1.7 1-1.8-.5-5.2-.6-5.1 5.4-.5 5.4-.6 1.2.5 1.1.5-1 10.4 3.2 2.6 1.2-2.7 1.2-2.6-1.2-3.2-1.2-3.1 1.6-1.6 9.7-.4 9.7-.5 1.2 2-2.4 2.8.7 1 .6 1.1h1.7l1-3 1.1-3.1 4.6.6.3 1.8.4 1.8-2.1.6-2.1.5v2l2 3.8h3.1l-.3 1.8-.3 1.7-4.4.6-.7-2.5-.6-2.5-1.6-.6-1.5-.6-2 2 2.2 1 2.2 1.2-.6.9-.5.9h-17.3l-2.1 2.1h-2.5zm16.3-8.8.3-4.2-1.6-.6-1.6-.7-2 2 1.4 8.4 3.2-.6zm-11.1-3.4-.5-1.3-.1 2-.1 1.8 1.2-1.2zm-14.7-.8v-1h-.9l-1.2 2h2.1zm299 12.4-1.4-1.6 1-1.6 1.1-1.7 2.2-.3 2.1-.3v4.7l-2.4 2.4h-1.4zm-383.4-.1-.8-.8h-18.3l.3-2.5.4-2.5 1-12.3-2.2-1.2-2.1-1.1 1.2-1.5 1.1-1.4h14.4l-.8 18h2l.8-1.1.7-1.2v-2.7l-.2-2.9 2.2-1.5 2.1-1.5h3.5l2 2.6 2.1 2.7v6.5l2.2.6 2.3.5-1.5 1.5-1.5 1.4-5 .6-5.1.6-.8-.7zm-8.6-6.3v-2l-.6-1.5-.6-1.6h-2.8v5.8l.7.6.6.7h2.7zm13.8.1.4-1.2h-5.2l-.5.9-.5.8.6.7.7.7 4-.6zm-14.8-10.6v-2.5h-2.7l-.5.6-.6.5.5 2 .5 1.9h2.8zm72.5 16.5-.6-1 1.5-2.2 1.6-2.2v-5.4l-3.2-1.2.8-2.4 2.9-.7 2.8-.8 1.9 1 1.8 1v1.9h-4v1.8l7 2.4v1.6l.6 1.5.5 1.5-2.2 2.1-2.3 2.1h-8.5zm8.3-4.2-.4-1.2-2.4-.8v3.2h3.2zm56.5 3.6-.7-1.8 2.4-.8v-5.8h-2.9l-1.2-2 1-2 1.2-2h8.9v2.8l-1.3.5-1.2.5 3.3 2.7 3.2 2.6v3.7l-1.3 1-1.2 1-4.8.6-4.7.7zm7.7-4.8-1-1-.6.7-.6.6.6 1.8.7 1.7 1-1.4.8-1.5zm40 5v-1.5l2-1.2v-7.9h-1.8l-.6 2.3-.6 2.2-2-3-1 1.1-1 1 1 2.7 1 2.6-.9.5-.8.5-4.1.7-4.1.6-6.6-1.2v-20.5l16.5-.6v2.6l-1 3.8-.8 3.7h1.3l2-1.5 1.9-1.5h7.4l1.2 1.4 1.2 1.5-.4 2.2-.3 2.2-1.3.5-1.2.4v-4.2h-2.2l.4 4.3.4 4.2.5 1.5.4 1.5-3.3.3-3.2.3zm-13-9.6v-4.8l-1.2-3.2h-1.8l.5 6.8.4 6.7v.3l.1.3 2-1.2zm4.9-1 .2-6h-1.9l-.3 3.3-.4 3.2.3 2.8.3 2.7h1.6zm41.4 11.2-2.3-.3-.6-2.3-.5-2.2.3-6 .3-5.9 6-2 2.2-2.8 1.7.6 1.6.6v3.2l-1.5.5-1.5.6v3.7l2 1.2v8.7l-1.3 1-1.2.9-1.5.4-1.5.5zm4.2-7.3v-3.4h-4l-.3 2.3-.4 2.3 1.3 1.5 1.2 1.5 2.2-.8zm10.5 7.3-2.5-.4-1-.9-1-1-.1-5.5-.2-5.5 4.6-3 7.2 3v6.9l2 1.3 2.1 1.4-.6 1.7-.6 1.6-3.7.4-3.7.3zm4-7.4v-.8h-3.5l-2.8 1.8.7 1 .7 1.1 2.4-1.1 2.5-1.1zm-38.8 6.3-1.4-.8v-2.4l.1-2.4.1-3.4.1-3.5 1.7-1.3 1.7-1.2h2l2.2-.1 2.1 2.3 2.2 2.3v6.7l1.7 1.3 1.8 1.2-.7.7-.7.8-5.8.3-5.8.4zm6.5-4.6.5-1.6-.7-.7-.8-.7-.4 1.3-.5 1.2h-2.8v2h4zm203.5 4.3-1.2-1.2v-4.1l5.8-10 10-10 .7-3.3.7-3.2-2.4-18.4 1.6-1.1 1.5-1.2h22.2l22-.1 4-3.6.8 1.3.9 1.3 4-.7 4.2-.7v3.1l-2.3 1.3-2.2 1.2-51 .8-.9.8-.9.9 1.3 8 1.4 8.1h1.3l2.5-2.3 2.6-2.2 6.5-4.7 6.5-4.8 2.3-.2 2.2-.3.4 1 .4 1.2-5.4 2.4-10.2 8.5-10.3 8.5-1.6 5-1.6 4.8-3.1 4.8-3.2 4.8-3 2.7-3.2 2.7h-1l-1.1.1zm7.7-7.5 2.2-1.8 1.9-4.2 1.9-4.3-3 2.3-3.1 2.2-2 3.8-1.8 3.7h1.8zm14.5 6.5-.8-1.2.2-3.3.3-3.2 9.2-9 9.2-9.1h3.8l-.6 4.5-.7 4.5h2l4.2-1.7 4.3-1.7 6.8-4.4 6.7-4.4 3.2 1.2-2.6 3-2.6 3.2v3.7l.9.5.9.6 5-4h2.1l2.5-1.1 2.5-1.2.4-1.6.3-1.6.6 3.4.5 3.5-4.7 4.7v.9h1.8l3.1-4.8 3.1-4.9v-6.9l2.4-2.4 2.6 2.2v4.8l5 2 1.2 2.5 1.1 2.5h1.3l3.2-4.2 3.2-4.1 1.2-7.2.3-1.3.4-1.2h3l1.5 2.8 1.5 2.7 3 3.4 3.1 3.4v2.8l-1.5 2.9-1.5 2.8-2.7 2.2-2.8 2.2v4.3h-5l-.6-5.4 4.1-2.7 4.2-2.8 1-2.5 1-2.6-2.7-2.2-2.6-2.3h-1.5l-2.2 3.8-2 3.7-5.6 6-5.5 6v.7l-.1.7-2.1 1.2-2.1 1-1.1-1-1-1 3.2-4.7 3.2-4.6-.3-2.7-.3-2.6-4.2-.6-5.8 8.8-3.8 3.3-3.7 3.2-3.2-1.2.7-3.6.6-3.7-4.6 1.4-6.6 1.2-2 3.9-2 4-1.2-.5-1.2-.4-.3-1.9-.2-1.9 2.4-5 2.5-5-.4-.4-.4-.3-11.6 6-4.2 1.2-4.1 1.3-6.6 6.3-6.5 6.4h-2zm11.7-12.4 2.4-2.6-1.9.3-1.9.4-1.5 2.3-1.4 2.2h1.9zm-39.1 3v-1.6l2.4.8.8 2.4h-3.2zm131-6.7v-1.7l3.3-1.3 3.2-1.4 3.5.4 3.6.5 6.3-2.2 6.4-2.1 1.9 1.9-2.9 2-2.8 1.9-5.5 1.1-5.5 1.2-5.7.6-5.8.7zm36-21.6v-2l2-1.2v5.1h-2zm-22-16.2-3-3v-3.6l1.8-1.5 1.7-1.5 3.8-1.3 3.8-1.2 2.5.6 2.6.7 1.1-1 1.2-.8 6-.7 6-.6 11-.5 11-.4 45.4-.2 3.6.7 3.5.6v2.3l2 1.3 2 1.2v2h-9.9l-5.4-2-47.2-.8-31 2-5 1.2-4.9 1.2-.3 1.1-.4 1.1 2.2 2 2.1 2-.7 1.1-.6 1.1h-1.7l-3.1-3zm-200.7-5.4-.5-1.6 1.2-6.4 3.7-9.3 3.7-9.2-2.1-2.1-3.8 2.5-3.8 2.6h-2.2l-1.4-1-1.4-.8.6-6.6.6-6.5-1.4.6-1.5.5v1.4l-2.9 1.7-3 1.7h-5l-1-3.7-1-3.8-.8-4-1.1 2.8-1.2 2.7h-3v-4l-2.5-2.6-2.6-2.6-2.7 1.8-2.7 1.7-2.6 3.6-12 9.2-3.4.6-3.5.6v-4.8l2-2.2 1.8-2.3h2.2v1.6l-2.4 2.4.7.6.6.6 9.6-7 4-4.4 2.8-1.5 2.8-1.4 1-2.5.9-2.4 2.3-1 2.4-.8 2.4-3 2.4-2.8 2-2.8 2-2.7 3.1-3.5 3.2-3.4h2l.7 1 .6 1-4.5 8.1-4.6 8.1v3.5l14.3-1-1.2 4.8 7 .2 7 .1 2.6 2.2 11.8-1.2 1.5 3.4 1.5 3.3 5-.3 4.8-.3 3.7-1.9 3.6-1.9 1.3-1.5 1.3-1.6h1.8l1.2 2.5 1 2.4 5.8-.6 5.7-.6.7 1.8.6 1.8-3 3.4v2.4l2.3-.7 2.2-.7 5-3.4 1.8-.6 1.8-.7.6 1.6.6 1.5-2.3 2.4-2.3 2.5 1 1 15.8-8 2 .4 2 .5 3.7-2.5 3.7-2.6 1 .7 1.1.6v2.9h1.8l1.7-.6 1.7-.7.8-2.3 1-2.4 1.2.5 1.3.5 18-17h3.5v3.1l-6.7 7.7-6.6 7.7-2 2-2.1 2 1.7.3 1.7.4 4.5-1.7 4.4-1.7 1.6.5 1.5.6v1.8l-2.5 2.9-2.5 2.8 1.5 1.5 7-1.6 2.2 1 2.3 1 3.7-1.2 3.8-1.2 4.5-.2 4.4-.2.4 1.7.3 1.7-4 2-4 2.1h-10l-2.8-1-2.8-1.1-10.2 3.4-1.7-.6-1.6-.6v-4.9l-1.2-3.2h-2.6l-3.2 5-3 5.2.5 1.8.6 1.8-1 .6-.9.6-3-.6-3.1-.6-.7-4.3-.6-4.3 1.8-3 1.8-3.1-.6-.7-.6-.6-2.1 1.1-2 1.2-3 5.6-6.2 3.7-6.1 3.7-2-.7-2-.6.7-4.4.6-4.4h-2l-4 2.1-4.1 2.1-.6.9-.5.9h-3.9l-1.2-2-1.3-2h-2.1l-2.8 3-2.8 2.9-6 2.4-2-2 3.1-6 3.1-5.8v-2.5h-2.9l-5.2 6.8-7.8 5.4-2-.7-2.1-.6v-7.4l-4.2-1.9-4.3-1.8-1.4 1-1.5.8-4.6 13-4.6 12.9-3.6 7-2 2.2-2.1 2.3h-1.8zm8.7-43.3-1-.4-3 2.4v3.1l2.6-2.4 2.5-2.4zm-31-11.2 1-2v-3l-2 1.2-2 3-2.1 2.9h4zm-568.5 40.2-11-1.4-6-.5-6-.6-.5-.7-.5-.8-7.7-3.6-7.7-3.7-.6-1-.5-.8-4.8-2.3-4.7-2.3-1.4-1-1.3-1.1-7.2-7-7.1-7-7.6-10-2.6-4-2.5-4-.2-2.1-.1-2.2-.6.4-.6.3-1.9-4.4-1.8-4.5h-1.4l-1-7.5-1.2-7.6v-2.4l2 3 2-3-.4 4 5.6 12.4-.5 1.6-.6 1.5h2l1.6 3.5 1.6 3.4 1.4.5 1.3.5-.8-4.6-5.2-10.2v-3l-1-1.8-.8-1.7-1.1-4.3-1.2-4.2h-1.9v2.5l-1-1.4-.8-1.4-1.5.6-1.5.5-.6-3.6-.6-3.7v-14.4l2-1.2-.5-1-.6-.8 1.6-6.5 1.5-6.6.8-1.7 1-1.8 2.7-8.7 2.8-8.8 3.8-4 3.9-4 1.5-3 1.5-2.8 3-3.4 3.2-3.3 2.4-3 2.4-3.2 8-3.8v-2l4.3-3 4.2-3 2.6-1.1 2.6-1.2 4-2.6 4.2-2.6 4-.6 4.1-.7.6-.8.5-.9h4.8l.5-.9.6-.9 8.7-1.6 8.8-1.5 11 .5 11 .4 10.5 3.7 10.5 3.6 1.7.9 1.8.9v-2.1h2v2.5l8 6.6 5.8 2.4 3.2 2.5 3.3 2.5 9 9.1 8.9 9.2 9 17.4-.8 5.6 1.2-.5 1.2-.4.7 4.3.8 4.3 1.4 4 1.4 3.9.8 12.6.5.8.5.9-1 11.8-.9 11.8-1.8 2.2-.6 4.5-.7 4.5-3 6.5-3.1 6.5-1.5 2.5-1.4 2.5-.6 1.7-.5 1.7-2 .6-1.8.6 1.2 2-2.9 4.2-2.8 4.1-3.9 3.6-3.9 3.5-.8.1-.9.1-1 .2-.9.1-.5 1.8-.6 1.9-2.8 1.3-2.7 1.4-2 2.2-2 2-10 4.8-9.8 4.8-7.3 2.3-7.2 2.3-6.3.6-6.4.7-2.5.3-2.5.4-11-1.5zm19.8-4.3h5.7v-4.1l-3.8 1.2h-10.2l-10.4.1-4-.5-4-.4-1.5-.6-1.5-.7-8-.8-.3-1-.4-1.2-.8.5-1 .6 1.2 2.8 2.6-1 .7 1 .6 1.1h4.6l.7.7.6.7 2.3.3 2.2.4 6 .9 6 .8 7-.8zm17-3.5 1.8-1.3-1.2-.7-1.2-.8 1.8-1.4 1.9-1.3h4.1l-1.7 1-1.8 1.1v1.9h2.9l5.8-2.5 5.7-2.6 5.5-3.6 5.6-3.6 3.4-3.2 3.4-2.5 3.5-2.5 1.8-2.6 1.7-2.6 2.9-1.9 2.8-1.9v-1.6l1.9-2.4 1.8-2.3 1.6 1.4-.7-1.3-.8-1.3 3.6-5.4 1.8-3.5 1.7-3.5 4.4-13 .5-6.5.4-6.5 1-23-1.4-3-1.3-3-.6 14-2 2 .5-1.5.6-1.5-1-6.5-.9-6.5-.9-4-.8-4-2.8-7.1-2.7-7.2-2-1.7-1.9-1.8v-4.2l-3-2.5-3.1-2.5-2-3.5-2.1-3.5-6.1-5.1-6.2-5.1-4.9-2.9-4.8-2.9-5-2.7-5.1-2.7-7.1-2.1-7.1-2-3.3-1-3.2-1.1h-9.3l-9.2-.1-12.3 1.2-3.6 1.5-3.5 1.5h-4.4l-4.4 2.6-4.3 2.5-2-1.2v1.8l-2.7 1.4-2.8 1.4-15 11-2.2 2.5-2.1 2.5-.8-.8-.8-.7 2.4-2.4v-2.6h-1.9l-3.5 3.4-3.6 3.3v3.3h2.9l1.2-2.1 1-2.1 2 2-5.1 5.5v2.4l-1.8 1.6-1.9 1.7-1.4-1.4.6 1.5.6 1.6-2.4 3-2.4 2.8-2.7 8-2.8 8-1 6.5-1.1 6.5-.8-2-.7-2 .6 22 .7 1.8.7 1.7h-3.2v3l1.2-.3 1.2-.2.2 3 2.4 5.6v.8l4.6 10.6 1.8 4 1.8 4.2-.4 2.8v1.3l.2 1.3 1-.6.8-.5 3.2 3.2-.6.9-.5 1 2.2.7 2.2.9-1.7.6-1.7.7 1.1 2 1 2 4-2 2.7 3 2.8 3.2 1.9 1.6 1.9 1.7 3.4 3.2 1.4.6 1.4.7 4.6 3.3 4.7 3.4-1 1.7-1 1.8 2 2 2-1.2-.5-2-.5-1.9 2.4.6 2.3.7 6 3.4 8 2.3 8 2.2 23 .2 16-1.2-3.8 1-3.7.9v3l7.4-1.4zm-27.7-12-.6-1.7.5-.8.5-.9-2-1.2v5.5l-.8-1-.8-.9.8-10.5h2l-.7 2-.6 2h2.1v-3.1l2 1.2v5l1.1 2 1.1 2.2-1.3.8-1.4.9h-1.3l-.6-1.6zm6.3.3v-1.3l-.5-4.3-.5-4.2h3.7l2.4-2.4v3.9l-1.5 2-1.5 1.9v2.8l3.2-2.6-.4 2.4-.3 2.5-2.3.3-2.2.3v-1.3zm-19.2-.6-.5-.7.8-4.8.7-4.7.8-.8 2.8.5 2.9.6-.7 2-.7 2.2-.6 3-.7 3-2.2.2-2.2.3zm28.5-3.5-1-3.2v-2.8l-.2-2.7h2.5l2.4 1.6 1.6 3.8 1.6 3.9 2.3-2.3-2.4-6.6v-1.3h1.7l.7 4 .6 4 2.6-.6 2.7-.7-1 2.8-2.9.9-2.9.8-1.7 1-1.8.8h-3.8zm3.3-2-.7-3.2-1-1-.8-.9v5.4h2v3h1.2zm-41.3 2.5.4-1.7 1.2.2 1.2.3v-2.1l-1-2-1-1.9h-2.2l.5 2.5.4 2.6-.5-.6-.5-.5-1.4 1.1-1.3 1.1v-1.1l-2 1.1-2.2 1.2-.4-.5-.5-.5 1.8-3.6 1.7-3.7 1.5.3 1.6.3.3-.8.2-.7v-2l-1.8.7-1.7.7 2.6-3.2 2 .5 1.9.5v3.8h1.1l2-1 2-1.2.5.5.5.4-1.2 3-1.1 2.8v5.5h-4.8l.3-1.8zm-11.2-3.1v-1h2v2h-2zm65.7-.7-.7-.6v-1.7h3.2l-.8-6 2.4 2 .5 2.8.5 2.7-1.1.7-1.2.8h-2.2zm11.7-.7-1-1.1-5.4-9.4v-1.1l2.6.6 2.6.7-.7-2.2-.6-2.1h2.1v3h1.8l2.4 6h2.6l-1 4h-1.8l-2.7 2.7zm-85-1.7-.6-1 1.3-2.5 1.2-2.4h1.7v3h1.9l.5-.8.5-.9-2.2-3.1-2.2-3.2-1.3.5-1.2.4v-1.9l4-2 1 .5 1 .6v3.1l1.4-.5 1.4-.6 1.2 3 2-1.2v1l-2.2 4.6-2.2 4.5h-6.5zm67.6-1.8-1-2.1h2l.7 1.5.5 1.6-.5.5-.5.6zm3.2-3.8.3-1.8 1.8-.3 1.8-.4-2.6 4.2h-1.5zm-43.8-4.3-6-.8-4-2.2-3.9-2.1-4-2.4-1.3-1.3-1.4-1.2-2.7-1.5-2.7-1.4-9-10.6-2.7-5.4-2.7-5.5v-5.2l-1.9-1.9-1-7.8-1-7.7 1-7.8 1-7.7 1-.3.8-.3.6-3.3.6-3.2 2-1.2 1.9-1.2v7.5l-.9-1.4-.8-1.3-.7 1-.6 1 1 .7.9.6-1.5 4-1.4 4.2v21.4l1 3.4 1.2 3.4 1.1 2.5 1.2 2.5 2 2.8 1.9 2.7h2.6v3.5l5.4 6.4 5.5 6.3 2.3 1.4 2.3 1.3 2.5 1.2 2.5 1.1 5 1.5 5 1.4 8.4.4 8.5.4 3.8.6 3.8.7 5.8-1.8 5.7-1.8 8-4.2 2.4-1.5 2.5-1.4 4.8-4.4 4.8-4.5 2-4.4 2.1-4.5 2.8-2.8 1-4.2 1.1-4.2 1-3.5 1.1-3.5v-3l.2-3-1.6-13-3.4-9.4-3.3-9.4-4-6.2-10.8-10-2.8-2-2.9-2-15-6-25 .2-7.3 2.5-7.2 2.5-.6-.8-.5-.9h-2l-1 2.5-.9 2.6-3.2 1.2-1.6-2.6 1-2.6 6.8-4-1.2-5.6-1.5-4.5-1.4-4.5-2-2.4.6-1 .6-1.1h3.7l2.4 3-.6 1.6-.6 1.5 1 2 1.1 2 1-.6.9-.6v2.7l-2.2 2.2 1.4 6.4 1.6-.5 1.7-.5 4.5-1.5 4.5-1.6 12-2 4 .8 5.9.5 5.9.4.7 1.2.8 1.2.3-1.1.4-1.2 11 5.6 3.3 2.3 3.2 2.3v-1.4l2 2.7 2.1 2.6h2.5l1.4-2 1.5-2 2.6.5 2.7.6 3.3-2.9 3.4-3 1.5-.4 1.5-.5 3.4 4.2-4.1 3.8-4.1 3.7h-1.8l-3-3h-3.6l-3.4 3.8 6 5.6 1.8 4 1.7 4.1 2.6 1.6v3.5l1.9 1.9 2 8.4 2.1 8.4v5.5l-1.2.5-1.3.5 1.3 1.3 1.2 1.3v6.4l-1.5 1.2-1.5 1.3.5 1.7.6 1.8-1.8 4.3-1.7 4.4-2.8 4.1-2.8 4.2v2.8l-5.1 4.2-5.2 4.2h-2.5l-.4.9-.3.9-3.5 2-3.5 2.2-4 1.8-11.2 3.2-11.4-.1-11.4-.2zm-38.7-39.2-.5-1.3-.1 2-.1 1.8 1.2-1.2zm-6.4 38.5-1.3-.5v-3.7l-1.8-.4-1.7-.4 3.7-1.6 3.7-1.7 1.6-2.6 3.3-2.3 3.2-2.2 1.2 3-.7 1-.6 1.1h2.1v3l-3.7 3.5-3.8 3.5-1.1-.4-1.2-.4-.8.8-.9.8zm114.4-1.9-1.9-2.5.6-2.4.6-2.3 2.3-.6 2.3-.5 2.9.7 2.9.8.4 1.5.5 1.4-3.4-2.8-2.4 2.4 2 1.5 1.9 1.4-.8.7-.7.7-2-1.2-1.9-1.2h-1.2l.4 2.5.5 2.5h-1.2zm21.3-7.3v-1l2-1.2-.6 1.5-.6 1.6h-.8zm-140.8-2.7-2.3-1.6 1.2-1.5 1.3-1.4 3.7-2 3.8-1.9h4l1.2 2-1 1.7-1 1.8-2.9 1.7-3 1.7-1.3-1.3-.8 1.2-.7 1.2zm61.4-1.5-2.8-3 .7-1.6.6-1.6 2.3 2.3h2.6v-2.9l-1.6-1.5-1.5-1.6h3.1v1.9l1.5 1.5 1.6 1.5-1.3 2.1-1.3 2 5 4h-6.2l-2.7-3zm-25.2-.2-1-1.2-4.8-4-4.7-4.2 1.5-1.2 1.4-1.2 4.6-.4 4-3.7 4.1-3.8 1.8-.6 1.7-.5v-3.5l2.4-2.4h2.1l1.4 1 1.4.8-2.8 2.6-2.8 2.7 2.2 2.2 1.6-1.3 1.5-1.2v1.7l3-4 1.6 1.6 1.5 1.6-3 1.3-3.2 1.3-1 1.9-1 2-1.3-1.2-1.4-1-.5 2-.6 2.2 1.2 1.9 1.1 1.8-1 1-3 .5-3.2.6-1-4h-3.2l-1.2 2.5-1.1 2.5 4.6 5h-1.8l-1-1.3zm8.6-14.4v-1.3h-2.9l-.5.8-.5.9 1.2 4.6 1.4-1.8 1.3-1.9zm98.5 14.7.6-1h.9v2h-2.1zm-73.1-2.1-1.9-2.2 2.2 1.2 2.2 1.1 1.2 2h-1.8zm76-2.6.5-1.8 2-6 2.2-6 1-9 .9-9 .9-3.2 1-3.1-.7-.6-.5-.6h2.5l-.7 6.3-.8 6.2-3.4 19-1.7 3-1.6 3v3.5h-2.2l.5-1.8zm-69.7-1.4.6-2 2 2-.7 1-.7 1.1h-1.7zm-81.3 0-.9-1.4-1.2-2.4-1.3-2.3v-.6l6-2-.6-1.6-.6-1.5-5 2-.8-.6-1-.6.6-1.3.5-1.4-1.2-.8-1.2-.7 4.4-1.3 4.4-1.4h2.4l-1 3.2-.9 3.3v1.5l3.7-.4 3.7-.5 3.6 4.2v2.4l-5.2 2.3-5.3 2.2-1.1.5-1.2.4-.8-1.3zm128.6.1-1.4-.9.7-.7.7-.8 2.4 2.4-.5.4-.5.5zm5.7-2.8-4.7-2.5.8-.8 3 1.5 3.1 1.6h1.1v-2.9l-1.8-1-1.7-1h.8l.8-.1 3 1.5 2.9 1.6v1.5l-1.3 1.5-1.2 1.5zm-48.8-2-.1-.7.1-1.8.2-1.7h-2.1v-3.1l1.8.3 1.7.4-.6 3.2 1 .7 1 .6-.6 1.4-.5 1.5h-1.8zm6.2-7-1.3-2.5-2.7-2.3-2.6-2.3 6.9-7.1h1.4l1 2.6h-2.1l-2.1-.1-.4 1.9-.4 1.8 3.9 3.5 3.8 3.5-1.7-.5-1.7-.6-.6 4.4zm45.4.3-3-1.4h1.2l1.3-.1v-3.1l2 .5 4 1.2 2.1.6-.3 1.6-.3 1.7-4 .4zm-4.5-2.8v-1.7h3.5l-1 .8-1 .7-.8 1-.7.8zm-35.4-3.6-.8-1.2 1.2-1.2 1.2 1.2-.4 1.2-.4 1.3zm46.9-1.2-3-.7h-3.8l-3.7-.2v-1.6l2.3-2.3-1.1-2.6-1.2-2.5h3l3.7 2 3.8 2h4l1 .8 1 .7.3 2.7.2 2.7-1.8-.2-1.7-.1zm-152.7-2.1-.5-1.3.4-1.3.5-1.2h1.5l1.1 2.5 1.2 2.5h-3.8zm110.9-1.2-.6-1.4 1.9-1.7 1.8-1.6.7 1 .6 1.1-1.2 4h-2.7zm-105.7-.6-1.5-1 4-.2 3.3-.4 3.2-.4v2h-4.8l-1.4.5-1.3.5zm74.2-2 1.3-2h1.5l-1.2 2-1.3 2h-1.5zm-12.5.4-.6-.6.6-1.4.5-1.4h1.8v2.9l-.9.5-.8.5zm39-2.5-1.8-2 .5-1.5.5-1.4h2.9l1 1.3 1.1 1.3-.6 2.2-.5 2.2h-1.4zm3.3-1.9v-1h-3.1l1.2 2h1.9zm-109.5-1.4-2-1.6 2-1.5 1.9-1.5h9.4l1.2 1.5 1.3 1.6-2 2-4.9.5-4.9.6zm72-1.1 1.7-2.5h1.8v.7l-1.9 2.1-1.8 2.2h-1.3zm45 1-2-1.4h1.1l1.2-.1 2.4 3h-.8l-2-1.5zm-66.5-.2-1.5-.6-6.7-6.7-1.5-.9-1.5-.8 1.8-2.2 1.8-2.1h2.7l5.4 5 2.5 1.9 2.4 1.9-2.4 5.2h-.7l-.8-.2zm3-3.2v-1.9l-2.2-.5-2.2-.6-.4.3-.3.4 1.8 2.1 1.7 2.1h1.6zm-7.2-5.2-.4-1h-1.9l-.3 1-.4 1.1h3.4zm40.5 5.8.4-1.2 1.6-.3 1.7-.3v2.7l-2 .1-2.1.2zm36.7-2.2-1.2-1.5-6-3-1 .6-.8.5v-2.9l1.5-.5 1.4-.6.7 1 .6 1 2.3-.3 2.3-.5 2.2 1.7 2.3 1.7-1.5 2.2-1.5 2.1zm25-3.6v-2.1l-1.9.5-2 .5-.3-3.4-.4-3.3 1.6-.3 1.5-.3h11v3l-8.6 4 .5 1.7.4 1.8h-1.8zm-94.8-2-4.2-3v-2.9l1.3-.1 1.2-.1 2-.2 2-.1-.3-2.1-.3-2 2.6-2 1.7-.7 1.8-.6-.1 5.3-.2 5.3-3.8-.3-3.9-.3v2l1.4 1.5 1.5 1.4h1.1v-3h1.8l1.2 3.2-.6.9-.5.9h-1.6zm-53.7-3.8.3-5.6.1-.9.1-.8 1.4.5 1.4.6 1.9-1.4 1.8-1.4h2.6l2.7-.1 1.2 1.5 1.2 1.4-.4 1.8-.3 1.8h-12l-.3 2.2-.3 2.1 1.8.5 1.8.6 3.3.6 3.2.7v1.3h-6l-6 .1zm94.2 4.2-.4-.8 1.3-2.5 1.4-2.5v5.4l-1 .6-.9.5zm-13.2-6.3-.6-1h3.1v2h-1.9zm7.5-1.4v-1.6h2v1.9l-2 1.2zm9-1.4-3.5-3 5.4 1-.6 1.4-.5 1.4h2.2v-1.8l4-1-.7-1.9-.6-1.8-1.4-.8-1.3-.8v-3l-1.3.7-1.2.7 3.5-3.5 3.5-3.6 1.3 1.9 1.3 1.8 3.4-1.2 2.6-3.2 1 1.5.9 1.5v-1.6l-1-2-1.1-2-3 2.4-2.2-2.2 1.2-1.4 1.1-1.4-.2-2.3-.3-2.3 1.3-.4 1.2-.5v3.3l.8-.5.9-.5 3.9 4 3.9 4.2-1.8-.6-1.7-.6v3.9h-1.5l-2 3.5-1.8 3.5h-4.9l.5 1.4.6 1.4-3.6 3.2h-1.5l-1.7 2.1-1.7 2.2zm46.7 1.1-.7-.6v-6.3l-1.5-2-1.4-1.9v-2l-.1-2 2.3-1.4 2.2-1.5 8-1.2v2.4l-.2 2.4-2.9 2.3-2.9 2.4 4 .4 4.4-.4-.2 2.7-.2 2.6-8 3.2-.3.8-.4.8h-1.5zm-77.2-1.4-.8-1.1 2.8-1.8h2.6l-.3 1.7-.3 1.8-1.7.3-1.6.3zm-1.9-4.7-.6-1.7-.6-1.3-.6-1.4 2 1.1 2.2 1.2v2.8l-.9.5-.9.6zm6.4-3.8-2.1-4.5-1.5 1.1-1.4 1.2v-1.5l1.6-1.9 1.7-1.8 1.3 1.8 1.3 1.7v-1.6l.1-1.5-2.4-2.4 3.6-4 2.6 1.4 2.5 1.3 4.6-5.2 2.6 2.6-2.3 1.9-2.2 1.8v3.1l2 1.2v2.7l-1.6.6-1.5.6-2-1-1.8-1-1.2 2 1 1.8 1 1.9-2.3 2.3h-1.6zm-59-3-2.5-1.3-3.7-1.5-3.8-1.5v-3.2l2.2 1.5 2.2 1.6h2.5l7.2 4.8-.8.5-.9.5zm16.7-2-.7-.7v-4.2l1.4-1.8 1.3-1.7h2.1l.7-1 .7-1.1-1.6-3.4-1.7-3.4-1-.6-.9-.6-1-2-1.1-2 2 1.3 2.1 1.3v2.4l2 1.2 3.4-2 3.3-2.1h2.2l-.6 3.2-.6 3.3-2.6 2.6-1.8 3-1.7 2.9h-1.6v2.7l-1.8 1.6-1.9 1.7-.6-.7zm-15-2.1-2.7-.4-2.5-2.3-2.5-2.4 4-1v-4.2l1.8-1 1.7-1h-1.3l-1.2-.1v-1.6l2.5.4 2.4.5 1.2 1.4 1.1 1.4h2.6l1.2 1.5 1.3 1.6-2.2 2.2-2.1 2.3v3.4l-1.3-.1-1.2-.2zm2.8-4.3-.6-1h-1.9v2h3.1zm119.5 2.5-1.2-1.4.4-1.8.3-1.8 5-2.7 5-2.8h4.3l2.6 3.2-1 1.6-1.1 1.7-1.8.4-1.8.3.6-1.6.7-1.7-1.5-.5-1.5-.6-1.5 1.2-1.5 1.3.2 2.5.3 2.5-2.7.8-2.7.7zm-113-12-1-1.3-3.5-1.6-3.4-1.7.5-1.3.6-1.4 1.4-.6 1.4-.5v2.8l3.6 3 3.6 2.9-2 1.2zm98.6-8.3-.6-1.9-4.2.2-1-1.6-1.1-1.6 3.6-4.8 3.7-4.8v-1.5l1.8-.4 1.9-.5 3.8 2.8-1.8 1-1.7 1v2.6l-4 4.6v2.7h4l-2 4h-2l-.5-1.8zm-98.3-.5-1-1.2 2.4-5.6 1.2 1.5 1.3 1.6-1 1.3-1.2 1.3 2.4 2.4h-3.2zm9-2.5-1.9-2.7-1.1-2.7-1.2-2.6 2.6-2.2 2 .6 1.8.7 1.8 2 1.8 2.2-.6-5.3-.7-5.2h4.9l-.5 2.5-.4 2.5 1.6 3.5 1.7 3.5-1.2 2h-2.9v2.8l-3.2 1.2h-2.7zm77.4-3.5-1.6-1.2-.8-8h-3.8l-1.3 2.8-1.3 2.7h-3.1l.7-3.3.6-3.2 2.6-5.8 2.7-5.7h2.6l4 4v6.2l4.8-1.2 1.2 1.5 1.3 1.6-1.9 3.4-1.9 3.5h-1.3l-.5-.7-.4-.8.4 1.3.3 1.2 1.2 3h-2.8zm-44.8-7.4-1.6-1.8v-2.5l-.2-2.5-1.2-6.4 4.2-4.2 1.7.3 1.6.3.7 3.3.6 3.2h-1.7v3h2.5l1-.8 1-.7.3-2.5.4-2.5.8-.8.8-.9 2 1 2 1.1 3.4-.5 3.4-.6 1.1 1.4 1.1 1.3.4 3 .3 3 2.5.5 2.5.6v4.9l-6-.4-6-.3-1.2-1-1.1-.9-.7 1-.6 1.1h-2.9l-3.2-3.2-.2.3-.2.4-2.2 4-4 .6zm-10.3-1.2-.6-.9 1.4-.5 1.4-.6 1.2 1.2v1.7h-2.9zm-53.1 120.9.6-1h-2.1v2h.9zm.5-2.8v-.9l-.6-.6-.7-.6-.9.5-.8.5.5 1 .6.9h1.9zm-3.2-5.9-.3-1.6-1.3-.5-1.2-.4v4.2h3.1zm-14.1-47.5-.5-1.3-.1 2-.1 1.8 1.2-1.2zm2-7-.4-1.3-2.1-.3-2.2-.3v1.8l.7.6.6.7h3.9zm1.9-10.5-.6-.6-1.2 1.2.8 1.2.8 1.3.4-1.3.4-1.2zm178.4-8.7-1-1v3.5l.1 3.4 2-4.8-1-1zm-3.3-8.8-2-4.2-.5 1.3-.4 1.3 2.2 2.2v4.3l.7.6.7.7.6-1 .7-1.1zm-2.7-7.2v-1.4l-1.5-.5-1.4-.6-.6 1-.6.9 1.2 2h2.9zm-157.5-8.6.6-1h-2.1v2h.9zm153.5.2v-.8l-2.4-2.4h-2.6v4h5zm-136.6-16.3 1-.9-2.4-2.4-2 1.9-2 1.8v1.8l2.3-.6 2.2-.7zm14.6-12.4v-1.5h-2v3h2zm7.4-1 .5-1.5h-1.4l-1.7 1.4-1.8 1.3 1.2 1.2 1.3-.5 1.3-.6.6-1.4zm-.4-6.5v-1h-2v2h2zm16-2.5v-1.5h-3v1.7l.7.6.6.7h1.7zm12.8-.3.4-1.2h-3.2v3.2l2.4-.8zm41 .7-.3-1h-2l-.3 1-.4 1.1h3.4zm-46-2.4v-2.5h-1.5l-1.2 1.2 1.2 2 1.2 1.8h.3zm158.8 182-1.6-1.6v-2.6l2.3-2.1 2.3-2.2h3.4v4h1.8l3.1-3.5 3.1-3.6v-4.9h-1.9l-1.2 2h-2.9v-2.9l4.8-3.6 4.4-3 4.4-5.7 4.4-5.6v-3.2h-3v2.9l-1.6 1-1.7.8-1.8-.4-1.9-.5v-2l1-1.8 1-2 4-1.1 4-1.2 1.5 1.3 1.5 1.2v6.5l-5.5 6.2-5.6 6.2.7 3.4.6 3.4-5.6 10.2-3.3 3-3.4 2.9h-5.8zm255-7.4-1.8-2 .5-1.6.6-1.5h2l-1-2.8 1-.7 1.1-.6v-4.2l-2-3.3-2.2-3.4 2.7-1 2.6-1h2.4l-1.4-1-1.4-.8 1.2-3.2h2.9l1.1 1.4 1.2 1.4-1.4 1.4-1.5 1.3 6.2 1 6.1 1-.2 1.3-.3 1.2-.3 1.1-.2 1.1 1.3.5 1.2.5v-4l1.3-1 1.4-1.2 10.1-.4 10.2-.5v12.5l2.2 2.2-.4 2.3-.3 2.2-1.2.5-1.3.4-.7-1.9-.7-1.8-.8-.6-.8-.5-5.3.1-5.2.2-4.4 1.4-2-1-2.1-1.2v-3.9h-3l2.4 4-.4.4-.5.4-2.5.4-2.5.3.2-4 .3-1 .2-1v-3.3l-.2-3.2h-2.8l-1 3-1.1 3.1 2.4 4-3.2 2.4-2.8 6-2 .3-2.1.3zm26-10.6.6-1.5-1.2-5h-2v8h2zm9.4-3v-4.5h-2v5.8l-1.2 3.2h3.2zm4.5.3-.7-4.3-.8-.8-1.2 1.2.7 4 .7 4.1h2zm-274.2 11.6-.6-1.6 1.6-3.1 1.5-3.2 3.7-4.3 3.7-4.2h4.6l1 1.3 1 1.2.6 2.6.6 2.7-3 2.4v4l1.7 1.4 1.8 1.2-2.8.7-2.7.7-1.5-1.2-1.6-1.3-2.5 1.2-2.5 1.1h-4zm10.2-7.1 2.5-2.8v-3.5l-2 1-1.9 1.1-2 2.9-2.1 3v1.1h2.9zm208 7.5-.4-1.3-.6-4h-3.6l-3.5.2-1.4.8-1.3.8-1.1-1.5-1.1-1.6.1-4.8.2-4.9-1.2-.7-1.1-.7 1.2-2 1.3-2v-3.1h1.9l.6 5.5.7 5.5h1.8v-6h4l1.4 3.2 1.4 3.3.6 2.8.7 2.8 1-.6.9-.6v-6.5l-2.2-2.2.6-1.1.7-1.1h9.7l.5 1.5.6 1.4-1 .6-.9.6v7.5l1 1 .8.9.7 3.7.7 3.8h-3.2l-1-2.3-.8-2.4h-3.2l-3.2-.2.2 1.2.1 1.2v1.2l-.2 1.3h-2zm7.5-8.9v-.9h-2v3.1l2-1.2zm-.4-6.7-.6-.5-.6.6-.6.5.8 2.4.8 2.3.4-2.3.4-2.4zm101 13.3-.5-1.5.5-1.5.6-1.5-.6-1.5-.5-1.5-2.7 1-2.6 1-3.6 3-3.7 3h-3.5v-2h-2.9l-3.2-3.2-2.4 3.2-2.2-.6-2.3-.6 1.2-4.8h-2l-3.2 1.2v3.8h-3.8l-3 .6-3.2.6v-3.5l1.4-1 1.4-1.2 1.2-6.6-2.5-1-2.5-.9v-2.2l4-1v-4.8h3.1l.6 1.6.6 1.5-2.1 2.1 1 2.8h2.7l.7-2.3.6-2.2 3.6-3.3 3.6-3.4 1.7-.8 1.6-.9 4 2.8 2.6 8-1.7 2-1.8 2 .4 1 .3 1.1 2.3-1.5 2.2-1.6v-3.7l4.4-2.6 4.5-2.6h3.1v3.8l-2.3 2.9-2.3 2.8-3.4 5.4v1.1h2.5l2.5-2.3 2.6-2.2 3.1-2.3 3.2-2.2h4.1v-2.7l2-1.9 2.2-1.9 1.3 1.8 1.2 1.7h3.4l2 1 1.9 1v7.2l-1.7 3.5-1.6 3.5-2.8 1-.4-.4-.5-.4 2-4 2-3.8v-4.6h-1l-4.1 4.5-4.2 4.5-2.6 4-2.5 4h-3.4zm-16-6.6.6-2-.5-.6-.6-.5-1 .7-1.1.6v3.9h1.9zm-12.2-8.1-.5-1.8h2.1v2h3l3.2-5-.6-1.5-.5-1.5h-2.1v3.7l-2.3-.4-2.3-.5-2.7 4.1-2.7 4v2l6-3.4zm-141.9 13 .7-2.6-1.1-.6-1.1-.7v-6.7l5.2-6.2h3.6l2 1.8 2 1.7 1.4 9.4-5.1 5.1h-4.9l-1.7.6-1.6.7zm8.3-7.5-.3-3.8-1.9-.3-1.8-.4-2 2 1.4 6.2h4.9zm170.2 8.7v-1l1.5-.7 1.6-.5.7.6.6.7-1.4 1-1.5.9h-1.5zm-277-2.4-3-2.1v-1.5l3.1.7 3.1.6 1.8-2.8v-6.4l-2-1.2v-1.7l3.2-.5 3.3-.4 2.2.8 2.3.8-.2 1.8-.1 1.8.1 1.7.2 1.8h3v-6.7l2.6-1.2 2.5-1.1 3 1.7 2.9 1.7v4.8l2 2.5 2 2.6v2.7l-9.5.4-2-.3-2-.2-2.5-.1h-2.5l-5.2 1-5.3.9zm11-6.9v-1.7h-1.8l-.5 2.2-.6 2.1.6 1 .5 1 1-1.4.8-1.4zm102.2 8.4-.8-.6.8-14.7 2.8-1 3 2.4v6l1-.7 1-.6-.6-2.4-.6-2.3 4.4-2.4 1.3.6 1.4.5-.8 11.6 2.4-10 .8-1.3.8-1.2h6.8l1.5 2.2 1.6 2.2v5.9l1.7 1.3 1.8 1.3-1 1-1 .9-10 1.2-1.5-1-1.4-.9-1 .8-1.1.9-6.2.4-6.3.4zm21.7-5.5 1.2-1.4-1.3-.5-1.3-.4-1.3.5-1.2.4v2.8h2.8zm-150.6 3.8-.6-1.5 2.3-2.3v-13.6h-2v-3.9l2.8-1.3 2.8-1.4 3 1.2 3 1.3 1.2 1.3 1.1 1.4.3 3 .3 2.9-2 1-1.3-2.7-1.3-2.8h-2.9v13.6l2.3 2.3-.6 1.5-.6 1.6h-7.2zm50.7 1.6v-.4l-.3-7.8-.2-7.7h9.5l1.1 2 1.2 2.2-.6 1.4-.5 1.4 1.1 2.5 1.2 2.6-1.6 1.5-1.6 1.6-4.6.5-4.6.6zm7.8-5.5-.6-.6-2.6 1 2 .1 1.8.1zm7.8 4.9-1-.8v-14.6h4.4l.6 1 .7 1-2.4 3 1.5.6 1.6.6 1-.7 1.1-.6-.6-2.5-.6-2.4h4.6l.1 7.5v7.5h-3.1l-3.5.5-3.5.6-1-.8zm6.5-3.7v-1.7l-1-.6-1.1-.7-1.1 1.1.5 1.6.6 1.5h2.1zm10 2.2-2-2.2v-7.4l2.3-2.7 2.3-2.6 3.2.6 3.3.7 1.4 2.8 1.5 2.8v4.2l-1.1 2.2-1.2 2.2-1.1.7-1.1.8h-5.4l-2-2.2zm7.8-5.7.3-3.4-1.8-1.8-1.6.7-1.6.6-.6 1.9-.6 1.8 2.2 4.2 3.4-.6zm5.8 7.1-.5-1 1.4-1.8 1.4-1.9v-4l-1.3-2.7-1.4-2.7.6-.5.5-.6h5.6v2.9l-2 1.2v1.9h3l.6-2.5.6-2.4 2-.7 2-.6 1 1.3.8 1.4v1.4l-2 1.1-2.1 1.1.6 4.4 2.3 1 2.2 1-.3 1-.4 1-2 .3-2.2.3-1-2-1.2-2.1h-2.6l.1 2.3.1 2.2-2.7.3-2.6.3-.6-.9zm389-21.9-.6-.6v-2.8h3v4h-1.8zm-548.8-97-1-1.3 2.4-3-.4-3.7-.5-3.8-.8-3 7.8-.3 7.7-.3v2.4l-1.6 1.2-1.7 1.2 1.3 5.2 1.2 5.2-.7.7-12.6.8zm8.6-4.9.6-1.6v-4.9h-4v8h2.8zm191.5 5-1.4-1.7v-3.1l-2.4-.6-2.4-.5-1.3-3.7-1.2-3.6.5-.6.6-.6h4.6v2h-2v3h2l2-5h4.8l1 1.3 1.1 1.3.7 4.2.7 4.3-2.3 2.4-2.3 2.5h-1.5l-1.3-1.6zm4-7.2.2-3.2h-3.2l-.6 2.4-.6 2.5 1.4 2.2 1.1-.4 1.2-.4zm-185 6.2-1.2-1.5h-2.8l.6-4.3.7-4.2 2-2.8 1.8-2.7h4l3.6 2 1.3 3 1.2 3-.6 3.5-.7 3.5-3.8 2h-4.9zm6-6.3v-2.9l-.6-.5-.5-.6-2 .5-1.9.5v3.4l2.4 2.4h2.6zm24.4 6.6-.7-1.1.2-7.1.2-7 .4-.4.3-.4 2.1.7 2.1.6v5.9h4l-.2-2.8-.3-2.7h2.9l.6 10 .5 1.4.5 1.3 1.3-1 1.3-1.1 2 .5 2.1.6 3.3-3.3v-2l-6 .6-2-3v-3.3l3-1.2 2.8-1.2 5.2 3.4v8.6l4 1v2l-12.2 1.2-3.2-1.8-1.7 1-1.6 1.1-1.7-.6-1.6-.6v-5.1h-3.2l.5 2.2.6 2.2-1 1.3-1.1 1.3h-2.8l-.7-1.2zm21.1-10.8.6-1h-4.1l1.2 2h1.8zm11.2 10.2-1.7-1.9v-2.3h2v-3.6l-2-2 .6-1.7.6-1.6 7-1.4 2.6 2.8.7 5.7.6 5.7-2 1-2 1.1h-4.8zm6.6-3.7.2-1-1.8-.3-1.7-.3v3.2l1.6-.3 1.5-.3zm-1.3-5.5v-1h-3v2h3zm10.6 9.8-1.8-1 .6-2.4.6-2.3-.9-4-.9-4.1 1-.6.9-.6h9.4l2 .2-.1 7.3-.1 7.2h-4.8l.4-2 .6-1.7.7-1.8h-4.4l.7 2.9.6 2.8-1.4.6-1.3.5zm7.1-11-.4-1.3h-2.6l-.4 1.3-.5 1.2h4.4zm7.4 10-2.1-2.2v-1.3l1.2-1.2 2.4 1.6 2.4 1.5 3-2.4v-3l-6.8 1.2-.6-2.6-.7-2.6 1.2-1.4 1.1-1.4h4.9l2 1 1.9 1v8l2 .8 2 .7-1 1.3-.7 1.4-3 .2-2.8.2-2.2.8-2.1.7zm22.6 1.5-.7-.6v-3.7h-3.8l-1-2.8-1.1-2.7-1.2-5.2 2.6-1 9.6.4 2 2-1 .7-1.1.7v6.5l1.5 2.1 1.5 2.2-2 1-1.9 1.1h-2.8zm1.3-11v-1.3h-4v3.7l.7.6.6.7 1.4-1.1 1.3-1.1zm24.7 10.5-1.2-.7 1-1.8 1.1-1.8-.4-10.5h4.8l-1.2 4.8 1 .5.8.6 1.4-1 1.5-.9-2.8-1.8.7-1 .7-1.2h4.8l-.2 15h-.6l-.6.2-9.6.4zm8.1-4.1.3-1.7-1.6-.6-1.6-.7-2.2 2.2 2.6 3.2 2.2-.8zm9.5 3.6-.6-1.6 3-2.2.7-3.3.8-3.2-5.2-2v-2.2l2-.5 2.1-.6-1-2.6 3-3 1.3.5 1.4.5-.5 8.3-.6 8.3 2.2.6 2.1.5v3.2l-.8.1-.7.2-4.3.2-4.3.3zm33 .3-.5-1.6.6-1.6.6-1.5 1.7.3 1.8.3v5l-1.8.3-1.7.3zm-63.9-.4-1.1-.7-1.2-2.4-1.3-2.3.7-3.4.6-3.4 2.3-1.5 2.3-1.6 5.2 2 1 1.8.9 1.8v7.5l-4.2 3h-4.1zm6.6-4.2 1-2h-5.9l-1.4 2.2 2.8 1.8h2.4zm-.6-4.9.6-.9-1.4-1.1-1.3-1.1-1.7.6-1.6.6v1.8l1.8.4 1.7.5h.7l.7.2zm40.1 8.9-.6-1h3.1v2h-1.9zm-174.3-40.7-2.2-.4v-2.9l2-1.2v-12.4l-.9-1.4-.9-1.3-4.4 4.4.4 4.6.3 4.7-6.5.2-6.5.1-1.2-2 2-6.8-1.2-2.6-1.2-2.7 1.8-1.8 26.5-.8 5 5 1.5-2 1.4-2.1h6.5l1.7 1.3 1.6 1.2.7 2.8.6 2.7h-2l.5 3.4.5 3.3-2.3.6-2.4.7h-4.1l-2.3-2.1-2.2-2.1-3.6 3.2h-5.3v1.8l1.5 1.2 1.5 1.3-1.1 1.3-1.1 1.4-1.2-.1-3.3-.6zm-11.2-13.3v-4h-3v8h3zm19 2.6 1.1-1.5-.6-5.6h-3.8l-1 1.7-1 1.6 1 2.6 1.3 2.6h1.8zm14.6 0 1.9-1.5h-3.3l-3.2-.1v3h2.6l2-1.5zm6.7 7.8-.6-1.6 2.3-4.8 2.3-4.9-1.3-3-1.3-3.2.6-.6.7-.6 4.8-.5 5-.4 1.4 2.4-2.2 2.2v8.1l2 3 .7-1 .8-1.1 1.7-.7 1.8-.6v-6.7l-2.5-2.5 4-3 4 .7 4 .6.8.8.9.8-1.1.6-1.1.7v7.8l.9.5.9.6.7-2.8.8-2.7-.2-2.2-.2-2.3 2.5-1.1 2.5-1.2 2.4.7 2.5.6.6 2.2.6 2.3v5.4l1.7 1 1.8 1-.6.6-.7.6-5.2.4-5.3.5-1.4-1.1-1.3-1.1-1.5 1.2-1.5 1.3-7-1.2-.5 1-.6.9h-4.9v3h-4v-4h-3.5l-1 .8-1.1.7-.7 1.7-.6 1.8h-3.2zm8.7-9.4v-3h-2v6h2zm15.4-.2.6-3.1-1-1-.4.4-.3.4-.6 3.3-.6 3.2h1.7zm13 1 1-1.7-1-1-2.2.6-2.2.5v4l1.6-.4 1.7-.3zm296 8.6-.7-1.7 2.6-6.2.4-3.3.5-3.3-3.2-2.4.9-1.3.8-1.3 10.8.6-.8 3 .4 8 1.5 3.3 1.5 3.2-1.2 2h-3.1l-1-4h-4.8l-.3 2.2-.3 2.3-1.8.3-1.7.3zm8-9.3.6-1.8-1-2.4-.9-2.4v2l-.1 2-.6 2.3-.6 2.2h2l.7-1.9zm275 9.3-.7-1.6 1-.7 1-.6.4-5 .2-5-.1-2.3-.2-2.3-2.3.3-2.2.3-.1 4-.2 4 1.5 1.7 1.4 1.6-.9.6-.9.5-5.4.5-5.4.6-1.3-.9-1.4-.8 2.6-4.2-2.4-9.2.5-1 .6-.9 19.6.2 4-1.2 2.1 2 2.3 2.2.6 2.8.5 2.9 1.5-.6 1.4-.6-1.2-5.4 1.5-1.2 1.5-1.3 3 .7 3.1.7 1 1.8 1 1.9v6.9l2.4.4 2.5.5 2.1-2.1v-5.5l-2-1.2v-2.9l8-2.4 3.8 3.4.6 6 .7 6.2-1.8 1.8-12.7.1-12.8.2-1.8-2.4-1.8-2.3-2.7 2.2-2.8 2.1-1.9-.5-1.8-.6v1.9l1.5 1.2 1.5 1.3-1.1 1.3-1.1 1.4h-5.9zm-6.4-11.9v-4.5h-4v5.8l1.2 3.2h2.8zm28.8 3.3 1.2-1.2v-2.6h-2.5l-1.4 1-1.4.8 1.2 3.2h1.7zm-12-1 1.2-1.2v-4.4l-1.3-.5-1.2-.4-2.3.8-2.2.8v2.2l1 2 1 1.9h2.6zm31.2.3v-1l-2-1.2-2 1.2.5 1 .6.9h2.9zm-1.6-7.2-.5-1-1 .7-1 .5.7 1 .5 1 1-.7 1-.5zm-556.9 13.1-.6-1 1-2 1.1-1.9v-6.1h-2v3h-3v-1.9l2-5.2 5.2.3 5.3.3.3 2.8.3 2.9-1 2.8-3-1.2-.4-1.6-.5-1.7v4.1l-.2 4.2 1.7.6 1.7.7-1.4 1-1.5.9h-4.4zm15.9 0-2.2-.9-1.2-3.5-1.1-3.6 1.2-4 3-3h6.6l1.6 1.8 1.7 1.9v2.3h-3.8l-2.4-3-2 1-1.8 1v4.8l1.4 1.1 1.5 1.2 2-1 2.1-1.2v-1.9h3v4.3l-2.2 1.8-2.1 1.9h-1.7l-1.6-.1-2.1-.9zm11.1 0-.6-1 1.6-2.4 1.7-2.5-.7-3-.6-3 5-3.2 6.6.6-.3 5.3-.4 5.3 1 1.2 1 1.3-.7 1.3-.9 1.3-6.4-1.4 2.2-2.2v-2.6h-2.8l-1.2 6h-3.9zm8.5-10.5v-1.5h-3v3h3zm24.7 10.8-.7-.6.6-5.4.7-5.3h-4.3v-2.9l4.6-.7 4.5-.6 3.6.5 3.5.6.5.4.4.4-1 2.7-1 2.6 1 2.6 1 2.7-1.7 1.8-1.7 1.9h-9.4zm18.1-1-1.7-1.8-1.8-5 .6-2.2.6-2.3 1.7-2 1.8-2h5.8l1 1.3.9 1.2.6 1.8.7 1.8-1.7.6-1.6.6-2.8-3.8-3.4 2.2v5.8l5.2.6 1.3-1.5 1.2-1.6h1.8v4.8l-1.3 1-1.4 1.2-3 .6-2.8.6zm11.6.3-.6-1.5 1.7-1.7 1.6-1.7-1.2-7.4 1.3-1 1.3-1.1 3.6-.7 3.5-.7 1.3 1.5 1.2 1.5-1 .7-1.1.6v5.4l2.8 5.4-1.3 1-1.3 1.2-2.6-.7-2.6-.6v-1.8l2-1.2v-2.8h-2.9l-.9 3.2-.8 3.3-3.4.6zm8.6-10v-.5l-1-.6-.9-.5-1.2 2h3.1zm15 10.5-1.4-1 1.3-1.5 1.3-1.6h-6.2l-.5-2.8-.6-2.7-2-3.6.6-.9.5-.9h12.8l-.5 6-.6 6.1 2.8 1.8-3 2h-3zm1-9v-1l-.6-1.5-.6-1.7-1.4 1.2-1.4 1.1v2.8h4zm11.3 8.7-2.2-1-1.1-2.9-1.2-2.9.6-2.5.7-2.6 3.9-3.9h4.7l2.1 2.3 2.2 2.3v8.3l-2.6 2-2.7 2.1h-1l-1.2-.1-2.2-1zm17.2 0-2-1.1-.7-1.1-.8-1.1v-9.3l2.5-1.6 2.4-1.6h3.8l1.6 1.8 1.7 1.9v3.3h-2.9l-1.8-3.2-1.9.4-1.9.3v7l1.9.3 1.9.4 2.3-1.3 2.4-1.2.6.6.6.5-.6 2-.6 1.9-2.6 1.1-2.5 1.2h-1.4zm12.4.5-1.6-.4.5-5.4.4-5.5-1.2-1.5-1.3-1.6 2.2-2.2 2.5.7 2.6.6-1.2 5h3l1.2-5h5v3.8l-2.3 1.5-2.2 1.5 3 3 2.1.6 2.2.7.6-3.6.7-3.7-1.1-1.3-1.2-1.4 1.2-2h12l.3.7.4.7-1.2 15-11-.4-6.6-.8-4.7-4.5-1.2 2 2.4.8-.7 1.7-.6 1.7-2.6-.2zm48.9-1.4-2.8-2v-9l2.5-2.4 2.4-2.5h3.7l2.2 1.6 2.2 1.5v2.4l-1 1.5-.9 1.4-2.5-2.3-2.5-2.4-1.6 1.3-1.6 1.4.6 2.5.6 2.6 1.7 1.7 4.6-3.2h2.6v4.6l-2.9 1.7-3 1.7h-1.6zm15.3-.7-2.1-3v-5.4l1.7-2.8 1.6-2.9 2.1-.5 2.1-.6 2.4 1.8 2.5 1.8.8 3 .8 2.9-.6 2.7-.5 2.7-1.2 1-1.2.9-3.1.6-3.2.7zm8-4.3 1-2-3.2-5-2.4.8-.3 2.7-.3 2.8 1 2.8h3zm73.6 6.4-1.7-.4v-1.7l1.4-1.1 1.4-1.2-.2-6.9h-1.4l-1 4h-2.2v-7.8l3.2-1.2h8.8v9h-3v-4h-1.6l.1 3.6.2 3.6 2.6 1.6-1.2 3.2-3.6-.2zm78 0-1.7-.4v-2.7l1.5-.6 1.5-.5v-5.6l-2-3v4.5h-3v-6.8l3.2-1.2h8.7l.6 2 .6 1.8-.7 2.8-.7 2.7-1.9-2.2-1.8-2.3v6.9l2.5 1.1 2.5 1.2v2.6h-3.8l-3.7.1zm43.8-5.1-.7-6 1.3-2.4 1.2-2.3 1.1-.7 1.1-.8h4.6l4.8 4.8-.6 3.9-.6 3.8-1 1.2-1 1.3-3 .9-3.2.9-1.6.7-1.7.6-.7-6zm9-1.3.7-1-.5-.6-.5-.5-2.1.7-2.1.6.5 1 .6.9h2.8zm-482.7.5.5-5.6-2.6-1.6.7-1 .7-1.2h9.8l1.5 1.6 1.6 1.5v2.8l-2.4 1.4-1.4-2.1-1.4-2.2h-3.9l.6 3.8.6 3.7.5 2.3.4 2.2h-5.7zm14.8 3.7-1.7-1.8 1.1-2.8 1-2.8-.5-1.8-.6-1.8 2-1 2-1.1h4.8l1.6 1.8 1.7 1.9v7.1l1.7.6 1.6.7-2.3 2.3-5.3.3-5.4.3zm6.5-2.1h.9v-3h-5v4.2l3.2-1.2zm11.4 1.5-2.5-2.4v-3.2l2.8-6.6 2.6-.7 2.6-.6 4 2 1 1.9 1 1.8-.7 4-.6 3.8-1 1.3-1 1.2h-5.7zm8-2.5.6-1h-6.1v2h4.9zm-1.6-4.9 1.3-.9-1.1-.7-1.2-.7-1.4.6-1.5.5v2.1h2.5zm265.6 9.2-3-.5-1-.8-.8-1 1.6-.6 1.7-.6v-8l-1.5 1.2-1.5 1.3-.6-.6-.6-.5 1.4-11.2h8l-.7 2.9-.6 2.8 1.5.6 1.6.6v4.8l4 3.6v3.4l-1.8 1.6-1.9 1.7-1.4-.1-1.4-.2zm5.5-4.8v-1.5h-4v3h4zm26.3 4.5-2.1-.9-.8-2.3-.7-2.3v-2.9l.2-2.8 4.4-4.8h3.5l2.3 1.8 2.2 1.9-.6 1.6-.6 1.7h-2.2l-.6-2-.5-2h-2.6l-1.1 1.4-1.2 1.5.6 5.4 3.6 2.2 1.3-1.8 1.3-1.7h3.3v3l-4 4h-1.7l-1.8-.1zm27.5-.1-1.2-.7 1.4-1.6 1.3-1.6-.7-5.5-.6-5.5h8.8l1 1.3 1 1.2.6 5.7.7 5.7-4.6 1-3.2.4-3.3.3zm8.2-4.4v-1.5h-3v1.7l.7.6.6.7h1.7zm0-6.5v-1h-3v2h3zm10.3 9.8-2-2.3-1.4-4.4 1.6-3 1.5-3 2-1 1.9-1.1h2.2l2.4 2.5 2.5 2.4v6.8l-2 2.7-2.1 2.6h-4.6zm6.5-6 .3-3.5-1.5-.6-1.6-.6-1.5.5-1.5.6v4.8l3.2 3.2 1.2-.4 1.1-.4zm22.5 6.7-2.3-1.6-2 1-1.9 1.1h-10.1v-1.9l1.1-.7 1.2-.7-.6-5.8-.5-5.9h8.6l2.4 3-1 4 2.6 2 .6-1.5.5-1.5-.5-1.5-.6-1.5 2.4-3h6.8l1.5 1.6 1.6 1.5v6.8l4 1.2v1.7l-1.3 1-1.3 1.1h-2l-1.9-.2-5 1.4zm-7.9-3.1 1.6-.6v-1.8h-5v3h1.8zm14.3-2 .5-1.5-.5-.6-.6-.5-2.6.6-2.5.6v3h5.1zm-14.7-4.9 1.2-1.5h-4.2v3h1.8zm39.4 10-.6-1.4 1.6-2.3 1.6-2.2v-4.7l-1.5-.5-1.5-.6v-2.8l5-1.2 3.2 1.2-1.2 5h3.7l1.7 2 1.8 1.8-.4 2.3-.3 2.3-5 2.6h-7.6zm8.6-4v-1.5h-3v1.7l.7.6.6.7h1.7zm37.2 4.3-1.2-1.2v-2.4l1.5-.6 1.6-.6-.3-3.4-.2-3.5 1.9-2 1.8-2.1h8.9l-.7 2.3-.8 2.2.1 3.5.2 3.5.2 2 .3 2-6.8.6.7-3.1.6-3.2-1.3.5-1.2.4-.4 1.9-.3 1.9-1 1.3-1 1.2h-1.4zm7.8-10.8v-1h-2v2h2zm26.6 10-2.6-2.1v-8l2.5-2.4 2.4-2.5h5.8l1.6 1.8 1.7 1.9v9.3l-4 4h-4.7zm7.2-8.5-.3-2h-4l-.3 2.3-.4 2.3 1.3 1.5 1.3 1.6 1.3-1.9 1.4-1.8zm10.6 9.4-.6-1 1-1.2 1.2-1.1v-8l-2.4 2.4h-1.7l.3-2.8.3-2.7 5.7-.3 5.8-.3v8.1h-2.8l-.7-2.3-.8-2.2-.8 8 1 .3 1.1.4v2.6l-3.2 1.2h-2.7zm74 0-.7-1.2 2.6-2.2 2.7-2v-6.1l-2.2-2.2.6-1.1.7-1.1h10.9v2.9l-2 1.2 1.2 5.4 1.4 2.1 1.3 2.1-2.3 2.3h-5.2l-2-2-1.4 1.5-1.2 1.5h-3.7l-.7-1.2zm9.6-9.7-1-1.7v4l.1 4 1-2.3.9-2.4zm24 10.5-.1-.2-.3-8.3-.2-8.2h12.6v6.8l-1.2 3.2h-6.8v3h2v2.8l-3.2 1.2h-2.8zm7.8-12-.5-1.2-1.6-.3-1.7-.3v3.1h4.2zm21.7 8.5.7-3.7.4-1.7.5-1.7 3.2-.3 3.1-.3 1.2-5 2.4-.3 2.4-.4-1.3 1.5-1.2 1.6 3.1 1.6 3.2 1.6-.6 1.5-.6 1.6v.8h-3v-3h-3v6h1.9l1.2-2h1.9v5l-5 1.2-1.6-1.2-1.5-1.3-2.3 2.3h-5.7zm6.5-1.7v-1.5h-2v3h2zm-367.5 2.3.7-2.3.5-3.3.5-3.2-1.2-1.5-1.2-1.4.9-1.3.8-1.3v-4l8.8-.6 1 1.1 1.2 1.1-1.7 1.3-1.8 1.3v1.1l3.8-1 .6 1.1.7 1.1h-1.9l-.5 3.7-.5 3.8 1.4 2.2 1.3 2.1-2.4 2-5.9.1-5.9.2zm8.5-4.6v-2.7l-2 3v2.5h2zm-2-5v-1.4l-1.3.4-1.2.5-.3 2.9-.2 2.9 1.5-2 1.5-1.9zm310 9.7-2.2-2.2.5-4.3.5-4.4 2.4-3h6.5l1.6 1.8 1.7 1.9v2.9l-2.4 2.4h-6.8l2.4 3h4.8v-2h2v4l-2 1-1.9 1h-4.7zm8-8.8v-.9l-1.6-.6-1.7-.6-.9.9.7 1 .6 1.1h2.9zm17 8.9v-2h1.8l.5 1.4.6 1.4-1.2 1.2h-1.7zm6.6.5-.5-1.5 2-1.2 1.9-1.3v-6.4l-4-1.2v-2.9l2.8-1.6.3-2 .4-2 2.3-.3 2.2-.3.7 1.6.6 1.7-1.3.8-1.2.7 2.4 4.6-1 6.4 4 3.4-.4 1.1-.4 1.2-10.2.6zm13-11-.6-1.7.6-.9.5-.9h3.6l.6.6.6.7-1 1.8-1 1.9h-2.7zm-476-3.2-.6-.6v-1.7h3v1.9l-.9.5-.8.5zm-252.5-25.7-1.1-1.3 1.5-1.3 1.5-1.2v-12.8h-4.3l.7 3.8.6 3.7.6 2.3.6 2.2h-13.8v-14.5l1-.7 1-.6 21.1.8 4.6 2.4.5 2.2.6 2.3-1.2 3.5-1.1 3.4-8 1.4 1.6 1.8 1.7 1.9-.7 1-.6 1.1h-5.7zm-5.6-12.2v-3.9l-1.8-.3-1.7-.3v7.8l.7.7.7.6 1-.3 1.1-.4zm16.1 1 .7-2.7-2-3.2h-2.6l-2 3.2.7 2.6.6 2.7h4zm262.6 10.8-3.2-.3v-2.9l2-1.2v-12.6l-.6-.5-.5-.6-1.9.5-1.8.5-.4 3.9-.4 4 1.6 1.4 1.5 1.6-1.5 1-1.5.9h-11.1l-2.4-2.4v-1.5h2.8l.4-1.2.4-1.1-.4-2.9-.4-2.8h-1.5l-2.4 5.2-2-.5-1.9-.5v3.6l1.5 1.2 1.5 1.3-1.1 1.3-1.1 1.4h-3.6l-3.2-1.2v-2.6l1.3-.5 1.4-.5.2-7.2h-1.9v3.8l-1.2 3.2h-1.5l-1.2-2.7-1.3-2.7 2.2-.8v-3.7l1.1-.7 1.2-.7 4-.3 3.9-.4 2 1 2 1.1 1.1-1 1.2-.9 11.7-.5 11.8-.4 5 5v2.7h2v-5.9l2-.6 2.1-.7 2.5.6 2.5.7 1 2.5.9 2.5v4.4l2.4 1.1 2.5 1.1 2.1-2.1v-7.2l-2.3-2.3 2.6-1 2.7-1 6 1.2.6 2 .5 2.2.2 4.4.2 4.5-2.2 1.1-2.3 1.2-4.7-.7-4.8-.8-11 1.6-1.7-1-1.8-.9-1.4-2.7-1.5-2.7v1.6l-.1 1.6-1.8 1.6-1.9 1.7h-4.3v1.3l1.6 1.1 1.6 1.2-1.4 1-1.3 1-3.2-.4zm-9.2-10.1v-2l-2-5.2-2 1.2v7.9h4zm29.8-.4 1.3-1-1.2-.7-1.1-.8-2 .5-1.8.5v2.5l.6.6.7.6 1-.6 1.2-.6zm-13-2.4-.3-3.8h-5l-.3 2.9-.4 2.9 1.4.8 1.3.9h3.6l-.3-3.8zm30.2 3.3v-.5l-2-1.2v2.1h2zm-191.3 7.4-.5-2h-4.9l-1.2-1.2 3-4.6-.6-4.6-.5-4.6 2.2-.5 2.3-.5 6 1.6.9 5.7.8 5.7-2.8 3.4-2.9 3.5h-.6l-.7.1zm2.8-7-.6-1h-2.9v2h4.1zm-.8-6.6-.6-.6-2.6 1 2 .1 1.8.1zm452.5 14.3-1-1.3.8-1.3.8-1.4-.6-1.5-.5-1.5 1.8-1.3 1.9-1.4h1.4l2.4 6-3.2 5h-2.8zm-480.2-1.7v-2l-7.8 1.2-4.2-4.2v-6l1.2-2.5 1.1-2.5 2.4-.7 2.4-.6 2.5 1.2 2.4 1v4.1h-3.1l-.5-1.5-.6-1.5h-3.6l-.4 2.3-.4 2.2.4 1.7.3 1.6 3.2 1.2 3.4-3h2.3v10h-1zm12.6 1-.7-1h-5.9l-.6-1-.7-1.1 1.8-2 1.7-1.9-1-2.2-1.2-2.3v1.2l-.1 1.3h-3.1l.3-3.8.3-3.7h12l.6 7.8-2.5-.7-2.6-.6v5h2l1 2.1 1.2 2.1-2 2zm32.8-1-.9-.9-6.8-.6-.5-1.2-.4-1.3 5.2-2v-4.5l-.8-1-.7-1.1-1.7-.7-1.8-.6v-2.2l2-.6 2-.5-.5-1.8-.5-1.7 2.6-2.2 4.6 1.2-.8 2-.7 2.2-.4 5.7-.5 5.8 3.2 1.2v5.8h-1.6zm-184.4-1-1.4-.9 1.2-4.8 1.3-4.8-1-.3-1.1-.4v-3.8l2.3-.5 2.4-.6 8.8.6.7 7.5.6 7.5-.1.1-.2.1-12 1.2zm101-1v-2h2v-3.1l-3.4.6-1.2 5-2.3.3-2.4.4.8-1.9.8-1.8.3-4 .2-4 .7-1.8.7-1.7h8.3v13.5l-.8 1.2-.8 1.3h-2.9zm1.8-10.2-.4-1.2-1-.3-1.2-.4-.5 1.6-.6 1.5h4zm10.8 11.3-.6-.9 1.6-3 1.5-3.2-.7-2.2-.7-2.3-1 2.3-1 2.2h-1.5l-.6-1.5-.5-1.5.9-2.4.8-2.3 4.9-.6 4.8-.6 2.6 3.4-.6 4.8-1.3.5-1.2.4-1-2.4-.9-2.3v4.1l-.1 4.2 1.7.7 1.8.6-2 1.5-1.9 1.4h-4.5zm125.4-.1-1.5-1 1.8-1.3 1.7-1.3v-2.4l-1.8-1.8-1.9-1.8-1.2-3.4 1.2-1 1.2-.9 4.1-.7 4.2-.6.8 1.2.7 1.2-3.2 2.4 2.3 2.3h2.4l2.4 3-1.2 5-2.3.4-2.2.5-6 1zm8-5v-.9h-3v1.6l.6.6.7.6.8-.5.9-.5zm292.2 5-1.2-1.3v-2.4l1.3-1 1.4-1.2-.5-3-.4-2.9-1.4.6-1.4.5v-2.3h-3.1l.7 4.8.6 4.7.2 1 .1 1-23 .2-1.7.7-1.6.8-2.1-1.2-2.1-1 1-2 1-1.9v-5l-1.2-2.6-1.1-2.5.6-.7.7-.6 12.3.4 1 .5.9.6-2.2 2.2v5.5l2 5.2 1.1-.7 1.2-.7-.6-5.8-.5-5.8 2.8-1 2.8 1 .6 3.2.6 3 1-.9.8-.9.4-2 .3-2 4-.6 2.3-.5 2.2-.4v-5h2.5l2.4-.7 2.4-.6-.5 2.6-.5 2.7 1.3 1.1 1.4 1.1v5.6l1.5.6 1.5.5v6l-1.2.7-1.2.8-3-.2-2.8-.3-1.2 1.6-1.1 1.6-1.3-1.3zm7.8-6.4v-1.6h-3v3h3zm25.4 6-1.9-1.4 1.3-1.2 1.2-1.3v-3.7h-4v-7.8l3.2-1.2h6.6l3.2 1.2v7.8l-1 .6-.9.5-1.2-2h-1.9v4l3 1.2v2.8l-2.6 1-2.5 1h-.5zm-507.6-2-1.8-2.4v-6.8l4-4.4h4.9l4 4.2-.4 4.6-.3 4.6-3.6 2.6h-5.1l-1.7-2.5zm7.2-3.5v-1h-4v2h4zm-1.8-5.7-1.2-.5-1.3.5-1.2.5h5zm7.8 10.2v-1.4l1-.7 1.2-.6-.4-5.7-.3-5.6 5-.3 5-.2 1.5 1 1.5 1.2-1.3.5-1.2.5v7.1l3.2 3.6-1.2 2h-14zm8.8-6.3.3-4.2h-4.1v7.6l.7.7.7.6 1-.3 1.1-.4zm104.7 6.8-.7-1.2 2.2-2.2v-7.5l-1.2-.7-1.1-.7 2.8-2.2v-5h10v3l.2 3 .8 14-12.3.6zm6.5-9 1-2-1.2-2.2-1 1.3-.8 1.4v3.5h.9zm22.7 9.4-.6-.7 1-2 1.1-2-.6-5.4-.6-5.3h4.7l.7.8.8.7h7.3l.3 1.8.3 1.7h-2.9l-.5 1.3-.4 1.2.4 1.6.5 1.7 2.4 1 2.5 1.2-.6 1-.7 1.1-3.3-.3-3.4-.2-1.4 1.4h-6.4zm49.4-2-2.1-2.7v-5.4l2.5-2.7 2.4-2.6h4.6l1.1.8 1.1.7 1.2 2.2 1.1 2.2v5.6l-1.6 2.2-1.5 2.2h-6.9l-2-2.6zm7.4-5.4v-3.5h-4l-.4 5 .5 1.3.4 1.3 1.7-.3 1.8-.3zm85.5 6v-2.2l2.1-.5 2.1-.6-.5-5.3-.6-5.4h10.9l-.2 4.3-.2 4.2.9 3.4.8 3.4-5-.6-5.1-.6-.6 1-.6.9h-4zm10-6.6v-3.5l-2 1.2v5.9h2zm53.4 7.5-.6-1 1-1.2 1.2-1.1v-5.8l-1.1-2-1.1-2.2 1.3-.7 1.2-.8 5.9.2 5.8.3 1.5 1.9 1.4 1.9v3.5l.1 3.6-1.6 2.2-1.6 2.3-2.1-.3-2.2-.3-1.3-2.8-1.3-2.7h-1.9v3h2.5l-2 1.5-1.9 1.5h-2.5zm13-4.5.6-1.6-1.2-4.8h-2.8v6.6l.7.6.6.7h1.5zm23.4 4.9-3.8-.4.6-5.8.7-5.8-1.2-.7-1.1-.7v-3h15.1l-.6 5.4-.7 5.3 1.1.6 1.1.7v2.5l-6.6 2.4-.5-.2-.4-.1-3.7-.4zm203.3-.6-1-1.4 1.9-1.8 2-1.8v-2.8l-2.4.6-2.3.6-.6-2.9-.5-2.8 1-1.7.9-1.8h11.9v9.2l-2-.5-2.1-.5-.6 1.4-.5 1.3 1.6 1.6 1.5 1.6-.5 1.4-.6 1.5h-6.6zm-284.6-2.3-2.5-2.5.6-2.7.7-2.7 1.6-4.4 5.4-1.4 5.2 3.2.6 9.3-1.7 2-1.7 1.8h-5.7zm15-5.3.2-7.6h11.5l.4 15.2h-12.2zm8.3 2.6.3-1.7h-4l-1.2 2 .6 1 .7 1.1 1.6-.3 1.7-.3zm-.8-5.7v-1h-4v2h4zm10.3 9.4-.6-1.6 1.6-1 1.7-.9v-7h-2.8l-.6-1.5-.5-1.5 3.8-2 .3-2.2.3-2.3h4l-.4 8.1-.3 8.1 2.1.6 2.1.5v4.2h-10zm63.4-.7-2.9-2.3.6-4.8.5-5 1.4-1.4 1.5-1.4 3.8 1.2 3.9 1.3 1.3 1 1.2 1v4.6h-1.7l.4 2.3.5 2.3-1.4 1.1-1.3 1.1-5 1.2zm6.3-3.2v-1.6h-5v1.7l.7.6.6.7h3.7zm-1-6v-1.6l-1.7.3-1.6.3-.5 1.3-.4 1.2h4.2zm72.6 9.4-2.6-2v-8.4l.8-1.2.7-1.2 2.8-1 2.7-1 2.5 1 2.6.9.8 2.2.9 2.3-1.2 2 .4 5.4-2.2 1.5-2.2 1.6h-3.3l-2.7-2zm6.9-3.9.6-1h-6.1v2h4.9zm24.6 3.4-2.1-2.7v-5.9l1.1-2.1 1.2-2.2 1.1-.7 1.1-.8h4.2l2.2 2.4 2.3 2.5-.7 1-.6 1.1h-2.2l-3.8-3.4-3.2 3.2.7 2.7.7 2.6 1.5.6 1.5.5 3.6-3.2h2l.7 1.5.5 1.5-2.1 2-2.2 2h-5.5zm12.3 1.1-.6-1.3 1.6-2.5 1.6-2.4-1.2-6 1.4-1 1.3-1.1 4.5-.3 4.5-.4-.3 5.8-.4 5.8 1.2 1.5 1.3 1.4-.6.7-.7.6-6.5.3-6.6.3zm8.4-4.4.5-1.4-1.4.5-1.3.4-.4 1.3-.5 1.4 1.4-.5 1.3-.4zm.2-5.1v-1h-3v2h3zm25.6 9.7-1.7-1.3.6-11.9 2.4-1.2 2.5-1.2 5.6 3v6.9l4.2 4.2-.9.8-.8.8-5 .6-5.1.6zm4.8-3.3 1.6-.6v-2.9h-3.9l-1.2 2 1.2 2h.7zm42.3 2.8-1.6-1.7v-10.6l2-1 2-1.1 2.6.3 2.7.3 3.4 6-.5 2.1-.4 2.1 4.6 1.2-1.5 1.4-1.5 1.5-5.1.5-5.2.6-1.5-1.7zm6.7-4.8.6-1.5-2.7.3-2.6.3-.5 1.2-.4 1.3h5zm42.7 4.6-2.4-2-1.7 1.5-1.6 1.5-18.6-.4-1-2.2-1-2.3-1.4-.5-1.3-.5-.7 1-.6 1 1.2 1.4 1.2 1.5-1.5.6-1.6.6-3.6-.8.4-1.5.4-1.4.5-3.6.4-3.7-1.1-.6-1.1-.7v-3l14.5.8 2.8-.5 2.7-.5v-2.2l.2-2.1.5 1.5.6 1.5 1.1.7 1.1.8h6.4l1.2 2-1.6 2.3-1.5 2.4 1.8 2.3 1.9 2.3 1.2-8.8 2.1-1.7 2.2-1.8h4.4l2.8 2.9 2.7 2.9-1 4-1.1 4-1.3 1-1.2 1-5 1.2-2.4-2zm-17.9-5.5.5-2.5-1.3-1-1.3-1.2-1 .7-1.1.6v5.9h3.8zm23.6 1.6 1.4-.8-5.2-1-.5.7-.4.7.6.7.6.6h2.2zm-32.8-6.2v-1h-1.9l-1.2 2h3.1zm32.3-.7-1.3-.5-1.3.5-1.2.5h5zm-29-7.5.4-1.3 1.7-.3 1.8-.4-.4 1.4-.5 1.3-1.7.3-1.8.4zm-642.8-21.4-1.6-1.6 1.2-1.4 1-1.3v-12.9l-.6-2.4 8-.6 2.3 1.4 2.2 1.4v10l-2 1-1.9 1h-5.1v1.8l3.2 2.6-3.6 2.6h-1.5zm9.5-11 1-2.5-1-2-1.1-2-3.4.6-.9 2.6-.9 2.7 1.2 3.2h4.1zm181.3 11.9-2.3-.4v-1.5l2-2 .2-13.6-2-2-1.6.5-1.6.6v7.7l2.2 2.2-1.2 2h-7l-7 .1v-2.8l2-1.2v-12.5l-2.3-2.3.6-1.5.6-1.6h11.6l1.1.8 1.2.7.3 2.5.4 2.5 12 1 4 8 .6-6 1.7-1.2 1.6-1.3h4.6l1.4 2.3 1.4 2.2-.3 3.4-.2 3.4 1.8.4 1.8.5-.5 1.2-.4 1.2-6.5.2-6.5.1-.8-3.1-.8-3.2-2.6 6.4h-7.8v2.3l1.7 1.2 1.6 1.2-.7 1.1-.7 1.2-.7-.1-.7-.2zm-8.7-10 1-.8v-6.5l-.1-6.5-2.8-.3-2.7-.3v12l.6 1.5.6 1.6h2.3l1.1-.8zm16.7-2 .5-2.8-1-1.7-.9-1.8h-2.9l-1 2.6-1 2.7.5 1.8.6 1.9h4.7zm11 1.3 1.7-1.3v-1.4l-2.2.3-2.3.3-.3 1.8-.3 1.7h1.6zm-115.7 9.5-.6-.9 1.3-1 1.4-1.2v-6.2l.1-6.3-1.5-1.7-1.6-1.8 2.8-.8 3.7-.5 3.7-.6 2 1.7 2.1 1.7 1 3.1.8 3.2-1.2 2.3-1.1 2.4-3.8 1-3.7.9v2.6h3v1.8l-2.3.6-2.2.6h-3.4zm11-10.6.6-2.5-1.2-3-1.6-.7-1.6-.6-1.5 1.6-1.6 1.6 1.3 3 1.2 3.1h3.8zm351.9 9.5-.6-1 1.5-2.2 1.6-2.2v-11.2l-2.5-2.5 3.8-2.8 1.8 1 1.8.9h4l3.4 5-1.2 7.2-1.2 1.5-1.3 1.5-2.8-.4-2.8-.5v3.7h2v3h-6.9zm10.5-9.5 1.2-1.5-.6-2.5-.7-2.6-1.5-.6-1.6-.6-1.4 1.5-1.4 1.4 1.6 3.2 1.5 3.2h1.7zm23.7 8.8-.7-.6v-4.8l1.6-2.5 1.7-2.5-.6-4.4-.7-4.5h9.9l.6 1 .5.9-2 1.2v8.8l2 1.2v7.1l-1.3-.4-1.2-.5-.3-2.2-.4-2.2-3.1.3-3.2.3-.3 2.2-.3 2.3h-1.6zm7.3-13v-3.3h-1.8l-.5 3.8-.4 3.7.5.9.5.8.8-1.3.9-1.4v-3.3zm102 12.4v-1.3l2.2-2.2-1-3.4-1-3.3.6-9 4.5-.3 4.6-.3 4.1 4.1v6.5l-.6 2.2-.6 2.3-6.8 2.4.6 1.8.5 1.8h-7.1zm9.5-11.7v-3.5l-4.2-.6-.5 1.8-.5 1.9.8 2.3.9 2.2 1.7-.3 1.8-.3zm83.5 11.7v-1.4l.8-.7.7-.8.2-6.6.1-6.7-2-2.4 1.2-2 4.3.4 4.2.3.8.1.7.1 4 4v7l-4 4h-5v1.9l2 1.2v2.9h-8zm11-10.8 1.3-3-1.6-1.6-1.5-1.6-3 1.2-.8 4.6 1 1.7 1 1.8h2.4zm-769.5 8.2-.6-1 1.1-2.2 1.2-2.1-.7-3.5-.6-3.5 1.1-1.3 1.1-1.4 1.5.6 1.6.6 1.8 4.8 2-1.2v-2.9l2-1 1.9-1.1h4l.4-1.3.4-1.2 3.4 2.8 4.9-.2 4.9-.1 1.2 2-1.2 2.1-1.1 2.2 2.4 8-2.4 1.4-29.6.4zm17.5-7.2v-3.9h-3v5.8l1.2 3.2.9-.6.9-.5zm9-3.4v-1.4l-1-.5-.8-.6-1.7.6-1.6.6 3.4 3.8.8-.6.9-.5zm21.5 10.5-.6-1 1.2-1.8 1.2-2-1-4.3-1.2-4.3 1-1.6h12.9l.6 1 .7 1-1.2 1.6-1.3 1.4.7 5.5.6 5.5h-12.9zm8.3-6.8.3-4.2h-2.9l-1 3.8.5 2.6.5 2.7 1.2-.4 1.1-.4zm27.3 6-2.2-1.7-.2-4.2-.1-4.2 1.8-2 2-2.1h5.2l1.6 1.8 1.7 1.9v8.3l-4 4h-3.8zm6.7-5.7.4-2.9-1.8-1.3-1.7-1.3-1.4 1.1-1.3 1.1v4.4l2.5 2.5 3-.6zm10 6-2.6-1.4-1.2-6.8.6-2 .7-1.8 1.5-1.8 1.5-1.7h4.7l4 4v2l-1.6.7-1.6.6-1-1.6-.9-1.7h-3.8l-.6 2.1-.7 2.1 1.3 2.4 1.2 2.4h2.5l2.4-3h2.8v3.8l-1.3 1-1.2 1-2 .5-2 .6zm11.4-6.3.3-7.7h4l2.8 5.8 1.3-3.1 1.3-3.2h5.3l-.7 2.3-.7 2.2v5.1l.1 5.1-4.6.7-4.6.6h-4.7l.3-7.8zm19.4 5.7-2.6-2v-7.6l2.5-2.7 2.4-2.6h1.6l2.2.6 2.1.6 1 2.6 1 2.7 1.2 5.2-2.5 2.7-2.4 2.6h-3.8l-2.7-2zm6.2-3.1 1.2-1.2v-4.5l-2-1.1-2-1-1 .5-1 .6v4.7l1.2 3.2h2.4zm10.9 4.6-.6-.7 1.4-2 1.5-2.1v-6.6h-2v4.2l-1.3-.4-1.2-.5v-6.8l3.6-.3 3.5-.3 2.7 1 2.6 1-.3 2.8-.4 2.8v.7l-.2.7-1.4-.5-1.5-.6-.4-2.1-.3-2.2-.9 3-.8 2.9 1.6 2.7 1.5 2.7-.6.6-.5.6h-5.4zm30.2-.5-1.4-1 1.7-1.3 1.8-1.3v-6.3l-5 1.2v-5.4l4-1v-1.4l-2.2-2.2.6-1.1.7-1.1h6.7l.5 1.3.4 1.2-.8 1.7-.9 1.6 1.5.6 1.5.5v6.1h2l1 2 1 1.8-1.8 2.1-1.7 2.1-8.2.8zm7.9-4.1-.5-1.3-1.6-.3-1.7-.3.6 1.5.6 1.6h3zm7.5 4.4-1.1-.7 1.6-9-2.8-3.2v-2.3h12.7l.5.5.5.6-.9 4.4-1 4.4 2.2 4-.7.4-.8.4-4.5.7-4.5.6zm6.7-4.2v-1h-3v2h3zm0-7v-1h-3v2h3zm8 10.6v-1.4l1.5-1.2 1.6-1.3-.6-4.2-1.2.2-1.2.3-1.1-2-1.2-2.2.6-1.4.5-1.4h10.1v3h-2v2.9l4.4.6 2.4 4.8-.5 1.4-.6 1.5-4.8 1.8h-7.9zm8.1-4.9-1-1-.7.6-.6.6.7 1 .6 1.1 2-1.2zm85.4 5.3-.7-1.2 2.2-2.2v-6.6l-1.3-2-1.2-2 1.4-1 1.4-.8 5.5.2 5.4.1.2 7.8.1 7.7-8-.4-2.2.7-2.1.8zm9.5-5.6v-1.4h-1.8l-1.2 3.2v2l3-2.4zm-2-5.9v-1h-2.3l-.5 1.3-.4 1.4 1.6-.4 1.7-.3v-1zm11.3 10.8-.7-1.7 2.4-.8v-8.1l-.8.7-.7.8v2.1l-1.2.4-1.1.4-.7-2-.6-2 2.2-4.2 10.4.6.6 7.8-2.5-.7-2.6-.6v5.9l1.2.3 1.2.4-.8 1.2-.7 1.2h-5zm28.4 1-.7-.6v-2.5l5-1.2v-7.6l-2-2 1.3-1.3 1.4-1.1 3.8.8 3.8.7v7l.2 7-2.8.3-2.7.3v-2.3l-2.5 1.6-2.4 1.6h-1.8zm10.1-8.7-.3-4.1h-2l-.3 4.7-.3 4.8 1.6-.6 1.6-.7zm42 8.7-1.8-.4v-1.9l2-1.2v-3.2l-.2-3.2-.5 1.3-.5 1.2h-2.6l-.4-2.3-.4-2.2.4-1.8.3-1.7h12l.5 1.5.6 1.5-1.2 5h-2.8l-.5-1.3-.5-1.2-.1 2.5-.1 2.6 2.3 2.3-.6 1.5-.6 1.6-3.6-.2-1.7-.5zm-114.3-7.6.1-7.2 9-.6 2.4 5.2v6l-1 2-1 1.9h-9.5zm8.5 3v-1.5l-3.2-1.2h-1.8v4h5zm-2.5-6.7-.6-1h-1.9v2h3.1zm43.9 9.8-2.2-1-1-2.5-1.2-2.4.6-2.7.7-2.7 1.5-1.8 1.5-1.7h5.6l2 2.7 2.2 2.7-.6 3-4.3.9-4.3.8.3 1.1.4 1.1 1.7.3 1.6.2 1.2-1.4 1.1-1.4h1.8v4l-2 1-1.9 1h-1.3l-1.3-.1-2.1-1zm5.1-9.8-.6-1h-3.9v2h5.1zm23.5 10.1v-.9l3-2.4v-6.8l-4.4-2.4 2-1.3 1.8-1.4h4.4l1.1 1.4 1.2 1.4-3.4 2 .7 1 .7 1.2h3.6l3.6 4-2.6 5h-11.7zm9-3.6v-1.5h-3v3h3zm9 1.8-2.2-2.8.6-3.4.5-3.3 1.7-2 1.7-1.8h5.3l2.4 2.4v3.6h-2.3l-1.2-1.7-1.3-1.7-3.2 2.6v5.9l1.6.6 1.5.6 2.5-1.3 2.4-1.4 2.1 2.1-2.2 2.2-2.3 2.1h-5.5zm30 1.3v-1.6l2-1.2v-6.4l-1-1.4-.8-1.4.5-1.4.5-1.3h5.8l5.4 2-.6 3.4-.5 3.4 2 2-1.1 2-1.2 2.2h-1.2l-1.2.1-4.2.5-4.3.4v-1.4zm9-4.1v-1.5h-4v3h4zm10.4 4.7-1.1-.7-1.2-2.2-1.1-2.2v-4.1l1.5-2.8 1.4-2.8 2.2-.6 2-.6 1.5.6 1.5.5 1.4 2.9 1.5 2.8v5.6l-1.6 2.2-1.5 2.2h-5.4zm6.4-6.2.3-2.5-1.3-1.8-1.4-1.8-3.2 1.2-.7 2.7-.6 2.6 1.8 1.3 1.8 1.4 3-.6zm5.7-.5.4-7 4-.6.6 3.3.7 3.3 1.2 2 1.2-4 1-4 3.5-.3 3.4-.3 5-.2 4.8-.2.8 2.2-2 .6-2.1.5v2.2h5l1.6 2.5 1.7 2.6-1.8 2-1.8 1.9h-9.7v-1.9l2-1.2v-6.9l-1.5.6-1.6.6-2.6-3.6-.5.9-.6.9 1.6 10-.3.4-.4.3-13.9.4zm25.5 2v-1.5h-3v3h3zm38.5 4.1-2-1.4-6.2 1-.7-1-.6-1 1-.7 1-.6v-7l-2.3.3-2.2.3.2 9-1 .7-1.2.8h-3.5v-3.6l2.2-2.2-.5-5.3-.5-5.4-.7-2.8-.7-2.7h6.2l-.6 3.9-.6 3.8 2 .5 2 .6.6-.6.6-.5v-4.7l-2-1.2v-2l2.7.3 2.8.3-.4 8.3-.3 8.2h3.2l.2-1.7.1-1.8-.2-1.9-.1-1.9 1.1-1.3 1.1-1.4h6.8l1 2.6 1 2.5v5.9h3.1l-.3 1.8-.3 1.7-3 .1-3 .2-2 .6-2 .7zm5.3-4.8 1.2-1.2v-1.7l-2 1.1-2 1v2h1.6zm26.7 3.6-2.5-2.7v-2.7l1.5-3.4 1.4-3.5 2.7-1 2.8-1.1 2.5 1.9 2.6 1.9.6 8.6-2.7 2.4-2.7 2.3h-3.8zm7.5-3 1.3-1.5-.9-2.7-1-2.7h-3.7l-1 1.5-.9 1.5 1.1 2.8 1 2.7h2.9zm52.7 5-.7-.7-6.2.1-6.3.1-1.4-.8-1.3-.8 1.1-2.1 1.1-2v-5l-3.2-2.6-1 1.5-.9 1.4.5 3.5.4 3.5.3 1.5.4 1.5-12.3.4.2-3.7.1-3.7-1.4-8h10.4l10.5-.1v2.2l-2.3 2.3 1.4.5 1.4.4 4.6 1-.7-3.5-.7-3.6 4 .6 3.8.7h12.5v2.8l-4 1v5.1l1.6 1.5 1.5 1.6h1.9v2.9l-1.8.4-1.7.5h-5.6l-5.6.1-.6-.6zm-22.3-3 1.6-.6v-3.8h-2.5l-1.4 1-1.4.8 1.2 3.2h.9zm25-2 1.6-1.5v-2.9l-2.2-2-2.2-2.1h-1.6v8.7l.7.6.6.7h1.6zm-10.9-1.4v-1.5h-3l-.3 1.8-.4 1.9 1.9-.4 1.8-.3zm-13.8-5.3-.4-1.2h-2.6l-.5 1.3-.4 1.2h4.4zm40.3 11.3-1.5-1 1.8-1.3 1.7-1.3v-6.4l-3.4.6-.8-3.6 1.2-1.4 1.2-1.5h7.8l.5.9.6.9-3 2.4v1.8h3.7l1.6 1.8 1.7 1.9v4l-1.3 1-1.2 1-9 1.2zm8-4.4v-1.6h-2v3h2zm106.9 4.3-2.6-.9-2.6-4.8.6-3.6.6-3.7 1.2-1.4 1.2-1.5 7 .6 2 3.2-.7 2-.7 1.8-1.9-2.2-1.8-2.3h-2l-1 2.8-1 2.9 1 1.6.9 1.7h3.7l.6-1.5.5-1.5h4l.6-1 .7-1-1.2-1.5-1.1-1.3 2.2-2.1 2.3-2.1h4.3l1.7 1.9 1.7 1.8v3.7l.2 3.6h3.7v1.5l-.9 1.3-.8 1.4-2-.3-1.8-.3-2.9.7-2.8.8-2.5-1.7-2.6-1.6-.6 1-.6.9-4 2zm17-5.2 1.2-1.4-1-.6-1-.7-2.6.7-2.5.6v1.5l.7.6.6.7h3.5zm27.1 3.4-3-3v-5.9l2.5-2.7 2.4-2.6h4.8l3.2 3.6.6 4 .6 3.9-1.8 2.1-1.8 2.2-2.2.7-2.3.6zm6.9-3.2.8-2.2-.5-1.8-.4-1.7-1.5-1.3-1.5-1.2-3.6 4.8 1.4 2.8 1.5 2.8h3zm26.1 5.3v-1l2-1.2v-2.1l-3.2 1.2-1-4h-4.8v4.9l-2 1-1.9 1.1h-9.1v-.9l1-5 1.1-5-1-2-1.1-2 2.6-1.4 2.7-1.4 3.8 1.9 3.9 1.8v1.3l.1 1.2 1-2.3.8-2.2h9.3l-.5 3-.6 3 .8.5 1 .5-.4 3.9-.2 3.9-.7 1-.7 1.2h-2.9v-1zm-11.6-3.7.6-1.6-.7-1.1-.7-1.2v-2.7l-.1-2.8h-2v3.5l-1.6 2.4.7 2.6.6 2.5h2.6zm12.4-8.2.4-1.2h-4.2v1.6l.7.7.7.6 2-.6zm-131.8 10.7v-1l2-1.2-.8-12 2.1.3 2.2.3 1.1 3.5 1.2 3.5 1.5-3.8 1.6-3.7 2.3-.1 2.3-.2 14.3-.6-.5 5.8-.6 5.8 1.2.7 1.1.7v2.8h-13.4l-.8-.6-.9-.5 1-1.1.8-1.2.7-2.9.7-2.8-1.7-2.6-1.6-2.5-1 1.7-1 1.8.7 5.4.6 5.4h-15.1zm23.5-10 .5-1-2-1.2v3.1h.9zm11.7 8.6-2.2-2.3v-8l4.6-4.4h2.5l3 1.5 2.9 1.6v3l-1.6.6-1.7.6-2.6-3.6-1.6.6-1.5.6v7.1h2v-1.6l7-.2v4.8l-2 1-1.9 1.1h-4.8l-2.1-2.3zm-66.2 0v-1.3l2.2-2.2-.5-5.8-.4-5.9-.8-2.3-.7-2.2h6l.7 1 .6 1-1.5 2.2-1.6 2.2v2.6h2.9l.7-1.1.7-1.2v-2.6l-.2-2.8 2-.6 2-.7 1.4 1.2 1.5 1.2v2.8h-3l-1 2.3-.8 2.3 1.1 3.7 1.2 3.7h2.5v2.8l-1.6.6-1.7.6-1.3-1.1-1.4-1.1v-5.6l-1.5-.6-1.6-.6-.6 1.5-.5 1.6.6 3 .5 2.9h-5.9v-1.3zm135-28.7v-1h2.1l-1.2 2h-.9zm-1144.6-7.6-.7-2.6 1.8-1.4 1.9-1.3h7.2l4.3-3.6 4.2-3.6 4-8 2.7.4 2.7.3.3 2.5.4 2.5.8.8.7.8 4.6-7.6 2.5-3.8 2.5-3.7h1.7v4.3l-3.8 6.5-3.7 6.4-1.2 2.2-1.3 2.1v6.1l-1.4 1.9-1.3 1.8-1.6-.6-1.5-.6-.7-5.5-.7-5.6h-2.3l-7 6-6.9 6h-7.6zm663.4-2.4-1.8-1v-3.9l5-1.2v-2.8l-4.4-9.2-1.6.4-1.5.3.3 5.7.2 5.7h-.7l-.8.1-12 .4 1-3-.2-12.5h4.6l.6 1 .7 1.1 1.2-1 1.3-1.1 10.2.2 10.1.1v2.5l-3 2.4v4.9l-2 1.2v6.9l-4 4h-1.5zm-8.4-9.4.6-1.6-1.6-.6-1.5-.5-.5.4-.4.5.6 1.7.6 1.6h1.6zm15-8-.6-1.5-.9.5-.8.6.5 1.4.6 1.5.9-.5.8-.6zm-15.9.5-.6-1h-1.9v2h3.1zm495.2 17.3-.7-.6v-3.4l4-3.6v-10.3l-1.5-2-1.4-1.9v-.8l-.1-.7h12l1.2 2 1.3 2h2.5v-2l2.1-1 2.1-1.2 2.2 2.2.3 3.5.2 3.4-2 .6-1.9.6v1.7l1.5.6 1.5.5v3l-2 1.2-3-1.5-3.1-1.5-2.5 1.1-2.4 1.1v3.3l-2.4 2.4h-3.6v2h-3.7zm12.6-13.4.6-2-.6-1.5-.5-1.5-2-1-2-1.1-.8 1.3-.8 1.2.2 2.2.2 2 .8 1.3.7 1.2h3.7zm-1107.8 1 .1-12 1.4-.9 1.3-.8 1.5.5 1.4.6-.2 6.6-.3 6.6.2 1.8.1 1.7h2.9l.7 1 .6 1.2-2 2-.6-1.1-.7-1.1h-2.9v3.6l-2.4 2.4h-1.2l.1-12zm431.5 10.7v-1.6l2-1.2v-13.8h-2.8l-1.2 3.2v5.7l2 1.2v2.9h-14.2l.7-2.3.7-2.2v-1.5l.1-1.5-.7-4.3-.8-4.2h21l.4-1.2.4-1.1 5.2 3.4 1.6 3.4 1.6 3.3v2l-2 2.6-2.1 2.6h-4.9l-1.2 2 1.5.6 1.6.6v2.8h-9v-1.4zm-5.6-8.2.6-1.6v-5.8h-4v5.8l1.2 3.2h1.6zm16.4-.6 1.2-1.2v-3.5l-2-1.1-2.2-1.2-1.4.6-1.4.5v3.2l1 2 1 1.9h2.6zm101.9 8.6-.7-.7v-4.8l5-5v-10.8l-1.7-1-1.6-.9 1.2-3.2h12.3l-.7 1.8-.7 1.7-.8 13.2 1.6 1.4 1.6 1.3.9-1.5.9-1.4v-2.4l-1.6-1.5-1.5-1.6.5-.9.5-.8 8.6-1.2 7.2 1.6 1.8-1.3 1.9-1.4h4.5l4 5.2-.6 2.9-.5 2.9h3.3l-.3 1.8-.3 1.7h-2l-2 .1-2.8.7-2.7.7-2-1-2.1-1.1-1.2.9-1.2 1-9.6-.6-2.8 2.4-2.8 2.3-2.3-2.3v-2.6l-2-.1-2-.2-2.4-.2-1.2 5-3 .6zm38.1-8.6 1.2-1.2v-1.6h-3.5l-2.8 1.8.7 1 .7 1.2h2.5zm-28-7-.3-7.3-2 1-.4 2.8-.1 4.6-.2 4.6.1.8.1.7h3.1l-.3-7.3zm20.6 5 .6-2.3v-1.5h-3.1l-.5 1.5-.6 1.5.6 1.5.5 1.5h1.9zm257.3 10.4-.4-.7.2-3.4.3-3.3 2-2 1.8.4 1.9.3.3 2.3.4 2.3-1.6 2.5-1.6 2.4h-3zm-818-1.3-1.7-1v-3.2l.1-3.2 1.6-4-2.4-7 .3-3.5.3-3.6 2-5.2 2.2-.7 2.1-.7 2.7 2 2.6 1.9.3 3 .3 3.2-1.7 3.3-1.8 3.3-.4 11-1 2.8-1.2 2.7h-2.5l-1.7-1zm4.5-22.1-1.2-1.2v4.8l2.4-2.4zm294.6 21.1-1-.7.5-1.6.6-1.6h-1.8l-1.2 2h-2.9v-8.4l-4.4-4.6 2-2h7.9l4 .3 4 .2.3 1.7.3 1.8h-2.1v9h2v3.8l-7 .8zm1.6-10.4.5-1.5h-2.9v3h1.8zm12.6 9.7-1.5-.4-1.7-2.2-1.8-2.1v-5.4l1-2.4.8-2.4 2.6-1.6 2.5-1.7 3.7 3.5 3.6 3.5-.7 3.7-.7 3.8-1.4 1.7-1.5 1.6-1.7.4-1.7.5zm3-4.6v-.5l-1-.6-.9-.5-1.2 2h3.1zm11.8 4.3-1.7-1-2-7.4v-.7l-.1-.6 5.2-6.2h4.4l2.2 1.6 2.2 1.5v3l-1.5.6-1.6.6-2.6-3.6-1.7.6-1.6.6v5.9l1.5 1.2 1.5 1.3 1.8-1.7 1.9-1.6h2.3v4l-3 1.5-2.9 1.5h-2.6l-1.7-1zm11.7 0-.6-.9 1-2 1.1-1.9v-4.7l-1.6-2.2-1.5-2.2 4.6-1.8 1.8 1 1.7.9v1.5l-2.4 2.4h3.2l1-4 1.7-.6 1.7-.7 1.6 1.7 1.7 1.7-2.4 1.8-2.3 1.8.7 2.1.6 2.2h4l-1.1 2-1 2h-3l-3.2-5h-2.8v2h2.1l-.3 1.7-.3 1.8-2.7.2-2.8.2zm18.8-.4-2.1-1.5-.7-4-.7-4.1 1.8-2 1.9-2 3.6-2 2.4 1.5 2.4 1.6 1.2 2.1 1.1 2.2-1 3.7-1.2 3.7-2.5 1.1-2.6 1.2h-1.5zm6.6-3.9 1.1-1.3-.6-2-.7-1.8-1-1.2-1-1.3-1.8 1-1.9 1v3.8l1.2 3.2h3.6zm74.1 3.4-2.4-1-1.6-2.4v-5.6l1.1-2.2 1.2-2.2 1.1-.7 1.1-.8h6l1.8 2.5 1.7 2.4-.6 4.1-.7 4-2 1.5-2.1 1.5h-1l-1.1-.1zm5.8-4.7.4-1.2h-5.2v3.1l2.2-.3 2.1-.3zm9.9 4.4-1.9-1.4-.5-3.9-.5-3.8 2.2-2.8 2.1-2.7h3.8l2.6 1.2 2.5 1.1v3.6l-2 1.2-1.2-2-1.3-2.1h-3.3l-1 1.3-1.1 1.3.8 3 .7 2.9 4 .6 1.4-1.6 1.2-1.5h1.8v3.8l-1.3 1-1.4 1.2-5.8 1zm15.7.6-1.1-.7-1-2-1.2-2.1.4-2 .3-1.9.1-1.3.1-1.2 4-4h6.3l1.3 1.8 1.3 1.7v1.3l.1 1.2h-3.3l-1.2-1.7-1.2-1.6-1.5.6-1.5.5-1.4 5.4 1.2 1.4 1.1 1.4h3.6l2.4-3h1.8v3.2l1.2-.5 1.3-.4v-3.9l-.1-3.9-.5-1.5-.4-1.4 6.4-.8 6.4-.7 1.6 1-.5 5.5-.6 5.5 1.3 1.5 1.2 1.4-1.1 1.1-12.9.4-1.7-1.4-1.6-1.4-1.8 1.7-1.9 1.6h-5.8zm20.6-11.3v-1h-3v2h3zm233.6 11.1-1.8-.7 1.6-1.6 1.6-1.7v-5.1h-4v-4.9l2-1 1.9-1.1h5l.7 1 .6 1.2-2.2 2.2v1.3l3 .6 2.8.6.7 2 .6 2.1-1.2 4-2.5.5-2.4.5-2.3.4-2.2.4zm8.4-4.6v-1.5h-3v3h3zm21 4v-1.4l2-1.2v-3.7l-1.9.5-1.8.5-1.4-5.4 1.4-2.2 1.5-2.2 4.5-.2 4.5-.1 1.2 1.4 1.1 1.4-.6 5.6h-4l-.3 1.9-.4 1.9 1.2.7 1.3.8-1.2 3.2h-7.1v-1.4zm16.7-.3-1.7-1.9v-10.2l2.6-2 2.7-2.1h2.3l2.6 2.8 2.5 2.7 1.8 6 .6-9.5h3.8l1.2 4h1.4l1-2.2 1-2.1 8.2-.3 8.3-.2v2.1l-1.7 1.9-1.6 1.8h4.3l3.9 3.9-.6 2-.5 2.2-2 1-2.1 1.1-15.2-1.2-3.9 1-3.8.8-1.4-.5-1.3-.5-.6-3-2.7 2.1-2.6 2.1h-4.9zm32.1-6.6.3-4-1.6 1.4-1.6 1.3-2.3-2.3h-1.3l.4 2.8.5 2.7.8 2.6 2.2-.3 2.3-.3zm-25 .6.4-2.3-1.2-1.5-1.2-1.4h-2.8v6.7l1.4 1.4 1.6-.3 1.5-.3zm30.6.7-.5-1-1 .7-1 .5.7 1 .5 1 1-.7 1-.5zm41 6-.6-1 1-1.2 1.2-1.1v-4.7l-2 .6-1.8.6-.7-2-.6-2 2.6-5.6 7 .6 3.2 1 .6 3.6.6 3.7-2.4 1.6-1.2-1.7-1.2-1.6-.7 1.7-.6 1.6 3.4 5.2-.4.3-.4.4-3.1.6-3.2.5zm15.9-.4-2.1-1.5-1.4-6 .7-2.8.6-2.7 2.5-1.8 2.5-1.9 2.3.6 2.2.5 1.4 2.7 1.5 2.6v8l-2.5 1.8-2.5 1.9h-3.1l-2.1-1.5zm6.2-7.5v-3.5l-2-.3-1.9-.4-1.2 1.7-1.3 1.7 1.1 2.4 1.2 2.5 2-.3 2.1-.3zm24.6 7.7-1.1-1.4 1.5-1.3 1.5-1.2v-3.6l-4 1-.6-2.8-.7-2.7 2-3.2 4.9-.3 4.8-.3 1.3 1.7 1.3 1.8v5.6h-3.1l-.9-2.3-.9-2.2v2.7l-.1 2.7 2 5.4-.5.5-3 .6-3.2.7zm64 0-1.1-1.4 1.5-1.3 1.5-1.2v-2.8h-5v-6.8l2.6-2h8.2l1.1.8 1.2.7-.6 7.8-2.2-.3-2.3-.3v2.4l3.2 3.6-.7 1-.6 1.1h-5.7l-1-1.4zm15 .5-1.1-.4v-2.8h2v-3.6l-4-3.4v-3.8l1.3-1 1.2-.9 8.3-.4.6 1 .6.9-3 2.4v1.6l3.8 1 1.8 2.6 1.7 2.7-3.2 3.2-4.3.7-4.4.6zm6.9-5.2v-1h-.9l-1.2 2h2.1zm26 5-1.5-1 1.3-2 1.2-2v-2h-3.9l-.6-2-.7-2.1.6-2.5.6-2.4h10.6l2.4 2.4v5.7l-3.2 1.2-1.8-2.8v6.5h2v4h-5.5zm-994.7-1.6-.6-1.5.7-7.2.6-7.3 4-16.8 1.2-1.3 1-1.3h4l-.6 3.2-.6 3.3-4 7.6v6.6l3-.5 3-.4.6 1.6.7 1.7-1 5.1-.8 5.1-6 3.6h-2.3l-2.3.1zm7.1-4.6 1.6-2.2v-3.6h-2.9l-1.5 3.1-1.6 3.1.6 1 .5.8h1.8zm351.6 4.9v-1.7l2-1.2v-5l-1-2-1.2-2 1.6-3.4v-2l.1-2h10.8l.4 1.2.4 1.1-1.4 1.3-1.4 1.4.7 2.6.8 2.6-.7 1-.6 1-2.3.8-2.3.7.7-3.9.7-3.8-1.6 1.3-1.6 1.4.6 3.1.6 3.2 2.8 3 .9-1.5.9-1.4.5.5.6.5-1.3 1.7-1.2 1.6-4.3.7-4.2.7v-1.6zm252.1.5-1.1-.4v-2l1.5-1.4 1.5-1.5v-8.1l-1.7-3.5-1.6-3.5 1.4-1 1.4-.9 4.9.5 4.8.5 2.4 2 1.4-1 1.5-.9h5.6l-.6 3.4-.7 3.4 1.1.6 1.1.7v-4.8l.2-.8 1-1.2 1-1.3h4.4l-.4 8.5-.5 8.6 2 1.4 1.8 1.3-.6.6-.5.6-7.6.5-7.6.6-1.4-2.2 3.2-3.6v-8.2l-2-5.2-2 1.2.6 2.4.6 2.3-4.2 4.2h-5v5h2v2.8l-6.8.8zm25.9-5.8v-1.4h-3v2.7l.6.6.7.6.8-.5.9-.5zm-16.5-6.8 1.8-1.3-.6-1.7-.6-1.6h-5.1v4.7l.7.6.6.7h1.3zm25.5 12v-1.6l2.8-1.6.4-10-.1-1.8-.1-1.7h-2v2.8l-1.4 1.1-1.4 1.2-.5-1.5-.6-1.4.8-2.9.7-2.8 11.7-.6 1.9 1.9 2.6-1.4 2.7-1.4h5.3l1.1 1.4 1.2 1.5-4.2 2.2.6 4.4 2.2.3 2.3.3 4 5.2v3.6l-2.6 2-2.7 2.1h-7.5l-3.2-1.2v-2l1.4-1.2 1.5-1.1.1-3 .2-3v-2.7l-.2-2.8h-2l-4 4h-1l-1.3-2.8-1.2-2.7-.3 6.9-.3 6.8 1.7 1.3 1.7 1.2-.7 1.1-.7 1.2h-8.9zm24.5-6.1v-2l-1.8-.3-1.7-.3v5.2l1.8-.3 1.7-.3zm21 6.6-.5-1 1-.6 1.2-.7-.4-6.2-.3-6.1 7-.6 1.8 1.4 1.9 1.3 1 5 .9 4.9-2.2 1.7-2.1 1.8h-8.8zm9.5-4.1v-1h-4v2h4zm123 3.5v-1.5h-3.1l-1.5-3.8-1.5-3.7-.8-1.6-1-1.6 1.4-2 6.3-.6 6.2-.7.1 1.3.1 1.2-.4 11.3 1.1.7 1.1.6-.5 1-.6.9h-6.9zm1.5-7.5.7-1.1-.6-1.6-.6-1.5-3 2.4v2.8h2.9zm76.5 8.2-1.5-.5-1.8-1.5-1.7-1.5v-8.7l1.6-1.5 1.5-1.6h5.4l1.1.8 1.1.7 1 2 1.2 2.1-.2 6.4-1.6 1.3-1.6 1.4-3 1-1.5-.5zm2.5-4.2.6-1h-3.2l1.2 2h.8zm7.2 3.8-.4-1.3 1-1.9.9-1.8-.4-3.2-.5-3.1-.8-3 2.4-.3 2.3-.4 2.2 2.2-2.4 2.4v1.6h3v-2l4-4 3 1.2v3.8h-3.1l-.6 1.7-.6 1.6 2.8 2.2 2.8 2.3-.7 1-.7 1.2h-3.7l-3.2-5h-2.1l.6 3 .7 3h-6zm18.7-1.3-2.5-2.5.7-3.7.7-3.8.9-1.7.9-1.8 5-1.2 2.5 2.3 2.4 2.2v2.8l-4.5-.7-4.5-.6v6.2l1.5.6 1.6.5 1.9-1.7 2-1.7 1.5.5 1.5.6v1.6l-.8 1.1-.7 1.1-2.2 1.2-2.2 1.1h-3.2l-2.5-2.5zm79 .1-2.9-2.4.1-4.3.2-4.2 2.3-1.9 2.4-1.8 2.4.2 2.4.3 2 2.6 1.9 2.6-1.4 7.2-1.2 1.4-1.1 1.5-2.2.6-2.1.7zm6.4-3.4.4-1.2h-6.2v1.8l1.3.5 1.2.6 2.8-.4zm6.2 4v-2.2h2l2-3.8-2.2-6.4 2-2 3.8-.4 3.9-.4 3 2-1.1 1-1.1 1.1 1 5 .8 5.2-1.8 1.8h-3.8l-1.5-.1h-1.5l-2.8.6-2.7.6zm9.8-7-.3-2.7-2 .4-.3 1.6-.4 1.7.7 2.6.7 2.7 2-3.6zm23 8.2-.7-.7 1.2-8.8-1.3-2.4-1.3-2.5.8-.8 3-.3 3-.2 2.7.1 2.6.2 2 6-2 1.2-1.4-2-1.5-2.2h-3.1l.3 6.3.4 6.2-4 .6zm-1029.4-1.4-.7-1-.5-7.3-.6-7.3 7-7.4h4.4l.8 2.1.8 2.2-2 9.2-3.4 4.4-3.3 4.4v1.7h-1.9zm6.3-14.8-.3-1.7h-3l-.3 2.8-.3 2.9.6 1.6.7 1.7 1.4-2.8 1.5-2.8zm1008.3 13.2-2.1-2.7v-5.4l2.5-2.7 2.4-2.6h2.8l2.7 2 2.6 2.1v4.9l-2 .2-2 .6h-1l-1 .2v3h1.8l2.4-3h1.8v2.7l-1.8 1.6-1.9 1.7h-5.2zm-522.3-37.5-1.8-1v-4l1.7-.6 1.7-.7.8 2.4h2l-.6-4.3-.7-4.2-1.2-1-1.3-1-.7-1.8-.7-1.9-2.4.8-1 1.6-.9 1.5 1.7 3.3 1.6 3.3-.4.5-.5.4-14 1-.7-1.7-.7-1.6 2.3-2.3v-3.6l-2.4-4 1-.9.9-1 5.5-.4 5.5-.5 5 .7 5 .6v5h2v-4.4l.6-.5.4-.4 15.7-.6 2 2.3 1.8 2.3v6.5l-1.8 1.6-1.9 1.7h-5.2v3.1l1.5.5 1.5.6v1.8h-7.9l-1.2-2 1.5-.6 1.6-.6v-14.9l-4.4.6-2.5 8.5-2.6 8.5-.8 1.3-.8 1.2h-2.4l-1.8-1zm23.8-11.4.6-2.5-1.2-5h-3.6l-2.3 2.3 1.2 6.2 1.1.7 1.1.8h2.5zm-30.6.5v-1h-2v2h2zm-152.8 9.8-1.2-1.2v-6.5l4-1.2v-12l-1.2-1.9-1.2-2 1.9-1.9 4.8-.2 4.7-.3 2.2 2.2-1 3.7-1.1 3.8 1.2 9.2 1.4 2.8 1.4 2.9-1 2.8h-3.2l-.6-1.8-.7-1.7-1-.7-1.1-.8h-2.4l-3.2 6h-1.5zm9.7-14.7v-1.6l-1.8-4v3l-.1 3-.6 2.5-.5 2.5 1.5-2 1.6-1.9v-1.5zm431.5 13.8-.6-1 1.7-2 1.7-1.8-1.4-12.6-1-.6-1-.7.6-1 .7-1.2h11l1.6 1.7 1.7 1.7 1-1.7.9-1.7h5.8l1.2 2-1 2-1.2 2h2.6l1-2.3 1-2.2 2.3-.3 2.2-.3.7 1.7.6 1.7-2.2 1.6-2.2 1.7.7 1.7.6 1.7h2.7l1.2 2-.6 2-.6 1.8-1.9-.5-2-.5-3-4.8h-2l1.2 5h-6.4l.7-3 .7-3.2-3 1.6-3 1.5-.5 1.6-.6 1.5h-6.4l3.6 4-1.4 1.4-3.4.3-3.5.2zm11.1-12.9v-3.5l-2.3-.3-2.2-.3-.6 1.5-.6 1.6.6 2.6.7 2.5 4.4-.6zm7.5-1v-2h-3v2.7l.7.6.6.7h1.8zm136.3 12-.6-2.2-3.3.7-3.4.6-2-1.1-2.2-1.2.6-2.9.5-2.9h-1.5l-2.4 6h-.4l-3.3 1-3.2.9-5-5.4v-6l3.8-6.2 2.6-.5 2.7-.5 1.9 2.4 2 2.5.5 1.9.6 1.9h2l-.7-3.9-.6-3.8 3.8-.6 3.9-.6 5 1.2 1.3 1 1.2 1-1.1 1.3-1.1 1.4.6 4.7.6 4.8.3 2.9.2 3-2.6.8-.6-2.2zm-3.5-7.2-.4-1.2-2.4-.8v3.2h3.2zm-13.2-1.3.6-1.5-1.6-2.5-1.7-2.6-1 .6-.9.6v5.6l.7.6.6.7h2.8zm-562 5.9-1.5-1.5.2-5.7.3-5.7 2.7-1 2.8-1 2.7 1.6 2.7 1.5.3 4 .3 3.9 1.6 1.3 1.7 1.2-2 2-10.5.8zm5.2-3.6 1.2-1.2v-1.6h-4.6l-1.2 1.2.6 1.4.5 1.4h2.4zm17.7 4.2-.6-1 1.3-2 1.2-2-2-2-3.4 1.2v2.7l2 1.2v1.9h-5.6v-5.8l.1-5.7-1-3h12l.1 5.7.2 5.6.6 1 .7 1.1-2 1-2 1.1h-1zm1.3-10.3.3-1.7h-3.8l-.6.7-.7.6 1.2 1.4 1.1 1.4 2.2-.8zm8.7 8.8-2.5-2.4v-2.2l1.5-3.6 1.6-3.7 2.4-1.6h4.4l2 2.2 2.1 2.2v7.6l-4 4h-5.1zm7.2-3.8 1-2.2-1-2.3-1-2.2h-2.6l-1 2-1.1 1.9 1 2.5 1 2.6h2.7zm26.2 4.6-2.7-1.6-.5-3.4-.6-3.4 1.8-4.8 2-1 2-1.1h3.8l2.2 2.4 2.3 2.5-.7 1-.6 1.1h-2.2l-1.9-1.7-1.8-1.7-1.1 1.1-1.1 1.2v5.2l1 1.1 1.1 1.1 2.5-1.7 2.5-1.6h2.1v2.6l-1.3 1.7-1.2 1.6-2.5.5-2.5.6zm30.6-.8-2.5-2.4v-7.2l2.5-2.4 2.4-2.5h4l2.5 3 2.6 3.2-.6 2.6-.6 2.7-.8 3.2-2.6 1.1-2.5 1.2h-2zm6.5-3.5v-1h-1.5l-3 2h4.5zm101.5 5-.6-1-6.6.5-6.7.4-1.3-1-1.3-1.1v-10.4l2.4-2.4h5.5l1.5 1.6 1.6 1.5v7.7l4.8 1.2 1.7-.6 1.7-.7-.4-5.5-.3-5.5h6l1.8.2 1.9.1-.2 3.8-.2 3.7.1 2.3.1 2.2h5v-7.6l-2.3-2.3.6-1.4.6-1.5 6.5.3 6.6.2.7.7.7.6-2 1.4-1.8 1.4 1.1 4.8 1.1 4.9-1 1h-23.7l-.6.8-.7.7h-1.7zm-9-5.2 1.6-2.3-2.8-.6-2.7 1-2.8 1.1 2.4 3h2.7zm17.8-1.5.6-3.8-1.9-1.9-.4.5-.4.4-.4 7 .1.7.1.8h1.8zm14.4 1.5-.5-1.3-.1 2-.1 1.8 1.2-1.2zm-2-6-.5-1.3-.1 2-.1 1.8 1.2-1.2zm27.7 11.1-.6-1 1-1.2 1.2-1.1v-6.6h-2v3h-3.1l.3-3.8.3-3.7 12.3-.6.5 1.4.5 1.3-1 5.2-2.4 1-2.4 1.2v2h3v2.8l-3.2 1.2h-3.7zm5.6-9.9v-1h-2.1l1.2 2h.9zm11 10.2-1.5-.4-1.3-1.6-1.2-1.6v-8.2l1.6-2.2 1.5-2.2h5.2l1.8 2.2 1.9 2.1v6.5l1.5.6 1.5.5v3.1h-6.1l-1.7.9-1.7.8zm2.4-4.8 1.6-.6v-2.8h-2.5l-2.8 1.8.7 1 .7 1.2h.7zm-191.4 3v-1.4l1.5-.5 1.5-.6v-6.9l-1.5-.5-1.5-.6v-2.6l1.5-.6 1.6-.6-.2-1.2-.1-1.3v-1.3l.2-1.3 3.4.6.6 14.8 3 3.4v2.3h-10zm91.4.5-.5-.9 1-2 1-1.9-.3-1.3-.4-1.3-.6-3.2-.5-3.2h12.5v14.6h-11.5l-.6-.8zm9.4-3.6.4-1.3h-5.1v1.7l1.4 1.4 1.5-.3 1.4-.3zm-1.2-5.4.7-1.1-1.4-.9-1.4-.8-1.7 1.7.6 1.1.7 1.1h1.8zm56.8 7.5-2.6-2.5 1.2-4.4v-3.1l1.8-2 1.8-1.9.7-1.9.7-1.8 3.5 3.3 3.5 3.4v2.3l-3 2.4v2.8h3v2.7l-1.8 1.6-1.9 1.7h-4.2l-2.5-2.6zm6.4-1.6 1-1.3-2.8-3.4-2.9-3.4-.7 2.7-.6 2.7 1.7 2 1.8 1.9h1.5zm39.7-2.8.1-7 .7-.6.7-.7 4 3.6v2.7h1.8l1.7-2 1.8-1.9-.7-1-.6-1.1h3l1.2 2 2.4-1.6 2.3-1.5 3.8.3 3.7.3.4 1.2.4 1.1-2 .7-2.1.6.5 1 .6.9h3.8l1.5 2.2 1.6 2.2v2.5l-1.6 1.5-1.5 1.6h-10.9l-.6-1-.6-.9 2-1 2.1-1.2v-4.9h-4v-3h-3l-.2 7.5v.8l.2.7.3 1.3.2 1.2-13.1.4zm25.5 1.5-1.2-1.5h-1.7v3h4.2zm21.4 4.2-.6-1.5 1.6-2.4 1.6-2.5-.5-.5-.6-.5-.6-10.8-.8-3h15l-.5 1.5-.4 1.5-.4 7-.3 7.1 2.8 2.4 1.7-.6 1.6-.6v-7.8h-2v-3.8l4.8-1.2 3.2 1.2v2.8h-2v1.8l3 1 3 1.1.7 3.1.6 3.1 1.6-1.6.2-6-.6-2.7-.7-2.6h14.3l1.2 3 1.3 3 6.3-.6 6.2-.7.7 1.7.6 1.6-1.4 1-1.4.8-4-.2h-3.8l-3.7.2v2.8l-3.2 2.6-13.4.3-13.4.2-.4-.8-.5-.7-4.8.2-4.8.1-3.3.7-3.2.8zm38.7-2.7v-1h-2.1l1.2 2h.9zm-13-1.6v-1.6l-2.4.8-.8 2.4h3.2zm-15.8-1.9.5-2.5-1-1h-3.7v4.7l.7.6.6.7h2.5zm34.8.5v-2h-2.9l-1.2 2 1.2 2h2.9zm-34.6-9.2 1-1.7-1.1-1.2-1.2-1.2-1.5.6-1.6.6v5.2l1.6-.3 1.7-.3zm71.9 14.7-2.2-1.6-.6-3.3-.7-3.4 1.6-3 1.5-3 1.6-.6 1.7-.6h4.5l3.6 4v8l-4.6 5h-4.2zm6.7-6.9v-3.4l-1.3-.4-1.2-.5-1.3.4-1.2.5v6.8h5zm42 7.7-1.5-.5-1.3-1.6-1.2-1.6v-8.3l2-2.7 2.1-2.6h4.6l2.3 2.4 2.3 2.5-.6 1.5-.6 1.6h-2.9l-2.4-3h-2.6l-1 4 2.6 3.4 2.6-1.2 2.7-1.2h1.9v4.6l-2.9 1.7-3 1.7h-.8l-.8-.2zm30.1-1.9-2.1-2.7v-6.5l.6-1.7.6-1.6 5.4-2.8 4.8 2.4 2.8 7.4-1.8 3.8-1.9 3.8-3.1.3-3.2.3zm6.7-6.1-.3-3.8-1.7-.3-1.6-.3-.7 2-.6 2.1 1.2 4h4zm40.5 6.1-2.5-2.6 1-9.2 4.4-3.6h3.4l2.2 1.6 2.2 1.5v4.9h-4l-1.2-3h-2.6l-.5 2.1-.6 2 .5 1.4.5 1.3 4-.5 3.9-.6.6 1.8.7 1.8-2.2 1.9-2.3 1.8h-4.9zm48.8 1.8-1.1-.4v-2.8l1.5-.5 1.5-.6v-7.9h-3.8l-.6-1.5-.5-1.5.8-2.3.9-2.2 2.5-1.4 2.6-1.4 1.4.6 1.4.5-1 17.2h3.1l.5 1.5.6 1.4-1.1.7-1.2.8h-3.2l-3.2.2zm20.6-.2-7.8-.5-1-1.5-.9-1.5 1.2-10 2.4-2.6 2.9-.2 2.8-.2 1.8 3.2 1.7 3.1.4 2.9.3 2.8 3.2.3 3.3.3v-8.1h-2v-4h8.8l3 1.2-.5 3.3-.5 3.4.6 2.5.6 2.6h4v-7.6l-2.3-2.3.7-1.6.6-1.6 12.5.6-.3 2-.2 2-.3 3.4-.2 3.4 1.4 1.5 1.5 1.4-2 1.5-1.9 1.5-11-1.4h-1.5l-7.5.5-6 .3zm31.3-4.6v-1.4l-2 1.2.5 1 .6.9h.9zm-33.3-1 .5-1.5-1.2-1.2-1.5 1.3-1.5 1.2v1.8h3.1zm31.3-4.9v-1.5h-.8l-.6 1.5-.5 1.5h1.9zm27.4 10.4-.6-1 1-1.2 1.2-1.1v-3.6h-3.8l-.5-2.2-.6-2.3 1.5-2.2 1.4-2.3h7.8l3.2 1.2v6.3l-1 1.4-.8 1.5-3.2-2.6v4.8l2.2 2.2-.6 1.1-.7 1.1h-5.8l-.7-1zm46.2-.4-.5-1.5 2-1 2-1.2.6.5.5.5-.7 2.1-.6 2.1h-2.7zm-315.1-1-2-1.5 2.3-2 2.2-1.8v-11.2h-1.8l-.6-1.5-.5-1.5.6-1.5.6-1.6 9.2.6.3 1.9.4 2-1.6.8-1.6.9v11.1l2.3 1.8 2.2 1.9-2.3 2.3-3.8.5-3.9.5zm77-.8.7-2.2v-4l-.7-3.1-.5-3.2 1.6-.6 1.7-.6 5 .6 4.9.7.5 1.3.5 1.4-2.3 2-2.4 2 5.8 4.8-1.2 3.2h-3.1l-1.2-2.5-1.1-2.5h-3.7v1.9l2 1.2v1.9h-7.2zm32 1.4-.6-1.1 1.2-3.5 1.3-3.5-1.1-3-1.2-3 .6-3.6.6-3.5 1.7-.9 1.7-1 3.8 1.1 3.7 1-.5 2.5-.4 2.4h1.8l-.7 4.9-.6 4.8 1.2 2.3 1.2 2.2-.9.8-.8.8-5.7.6-5.6.7zm6.2-14.4-.5-1.2v5l.5-1.3.5-1.2zm136.9 12.4-1.5-2.8.3-5 .4-5.2.7-1 .6-1.1 2.7.6 2.7.7 2.7 1.4 2.8 1.4v2.7l-3 2.4-1.2-3.2h-3.7l-1 1.6-.8 1.7.4 1.7.5 1.8 1.8.5 1.9.5 2-1.4 1.9-1.4 1.2 1.5 1.3 1.5-3.6 4h-7.6zm30-1.6.7-4.4-1.3-3.2-1.3-3 1-.7 1.1-.7 6.7.3 6.7.4-.7 2.1-.8 2.2v6l.7 2.7.8 2.8h-14.2l.7-4.5zm16.8-1.9-.6-1.5.7-1 .6-1.1h10l-.3 2.3-.3 2.2-9.5.6zm-1077.7-10.7-1.7-1v-2.7l1.5-.6 1.5-.5v-12l-2-1.2v-2.6l4.7-.6 4.7-.5 1.1.5 1.2.4 1.3 2.3 1.2 2.4.3 3.3.3 3.4-1.6 1.8-1.5 1.7h-6.7v2h2.9l.7 1 .6 1.2-.8.8-.9.7-5 1.2zm10.7-11.4.5-1.5-.9-2.5-1-2.5h-3.9l-1.2 4 1.2 4h4.7zm-46.7 8-.6-1.3-4 1-3-1.8-3.1-1.8v-8.8l3-2.9 2.8-2.9h2l2.8 2.4 2.8 2.3.2 4.4.1 4.4.4 1 1.4-2 1.5-1.9v-7.1l.8-1 .7-1.1 4.6-.3 4.7-.2.7 1 .7 1.2-2.4 2.8.4 5.3.3 5.3h-5l.3-2.8.3-2.7h-2l-.7 2.5-.6 2.4-3.5 2-3.3 2.1h-1.8zm-1.7-7 1.2-1.5-.6-2.6-.7-2.5-1.6.3-1.7.3-.6 2.5-.7 2.5 1 1.3 1 1.2h1.5zm14-5.5v-1h-3v2h3zm170.6 12.4-1.6-1.4v-5l1-.6 1-.7 10 1.4v5.5l-2.5 1.1-2.6 1.2h-3.8zm-238.7-1.7 1.1-1.1v-3.6h-4v-1.6l1.3-1.5 1.2-1.5 7.6-5.6-.4-1-.3-1.2-1.1-.3-1.1-.4-1.4 4.2-2.6-.3-2.7-.3-.3-2.1-.3-2.2 3.2-3.2 2.6-.6 2.5-.7 2.5 2 2.6 1.9.8 2.2.9 2.3-4.2 4.5-4 4.4.5.7.6.6 3-1.3 3-1.2 1 .7 1.1.6v3.7l-1.4 1.1-1.5 1.2-5.6.4-5.7.3zm31.5.6-2.1-.4v-8l.2-7.9 1-.4 1.2-.4 5.2.6 5.2.7.8 14.6-1.2.4-1.2.3-7 .8zm7.6-6.3v-1h-1.9l-1.2 2h3.1zm-1-5.4v-.5l-1-.6-.9-.5-1.2 2h3.1zm42.8 11.2-2.8-1v-13.6l1.5-1.2 1.4-1.2 3.8-1.9 3.7-1.9h1.6v3.8l-1.5 1.2-1.5 1.3.8 1 1 1.2.5 3.1.6 3.1-1.2 4.4-5.2 2.6zm5.2-6.7v-2.9l-3.2-1.2h-1.8v5.7l.7.6.6.7h3.7zm21.5 5.9-1.9-2 2.3-1.7 2.3-1.6-.6-2.8-.6-3 2-2 2-1.9h7.9l.6 1 .7 1-1.2 1.5-1.2 1.4.4 5.3.3 5.3-2.3.3-2.3.4-2.6-2.2-1.3 1.5-1.2 1.5h-1.5zm8.2-4.6-.6-.6-1 .7-1.1.6 1.2 2 1.1-1 1-1zm1.1-5.5-.4-1h-1.9l-.3 1-.4 1.1h3.4zm8 4.3.5-7.7.4-.6 2.7 1 2.6 1-.6 2.5-.6 2.4 2 1.2.7-3 .6-2.9 1.4-1.1 1.4-1.2 2.2 1.4-.6 3-.7 3 2 1.8 2 1.9 3.2-3.6v-10l-1.5-1.3-1.5-1.2v-2.6l3.2-1.2h5.4l1.9 1.4 1.9 1.3-4.4 2.8v10.4l2.5 2.3 2.4 2.3-.8 1.4-1 1.4-9.6.6-2.4-1.6-2.3-1.5.6 1 .7 1.1-4.6 1-5.2.5-5.1.5zm93.7 6.9-.6-1 1-2 1.1-2-1-4.7-1-4.6 1-1.4 1.2-1.4h4.4l1.8 1.3 1.9 1.4-1.4 6.8-1.4 8-3.2.3-3.1.3zm-60.3-.8-1.2-.5v-3.8l2.8.3 2.8.2 1.2-.8 1.2-.7-.5-1-.6-.9h-3.6l-2.7-2-2.6-2.1v-7l2.6-2 2.7-2.1h3.4l2.7 2 2.6 2.1v8.9l-3.2 8-1.9 1-1.8 1h-1.3l-1.3-.2-1.3-.5zm7-14.3-.3-2.5-1.7-1.7-2.1.7-2.1.6v4.6l1.4 1.4 2.6-.3 2.5-.3zm27.5 14.4-.7-.7v-6.5l2-4.5 1.9-4.5-1.2-1.2h-3.5l-.5 2-.6 2.2-1.8-.4-1.8-.3v-5h-5l-.6 12 4.4 3.2-.6 1.7-.6 1.6h-11l-1.4-2.4 2.1-1.4 2.2-1.4v-11.6l-2.3-1.5-2.2-1.5 1-1 1-1.1h3l3-.1h19.2l1.8 1.4 1.9 1.3-2.8 5.4-2.8 5.3-.7 4.5-.6 4.4-1 .4-1.1.3zm35.8-7.4-.6-1h3.1v2h-1.9zm-9.8-82.7-.7-.6v-3.8l1.5-2.3 1.6-2.4-.6-10.4 2-.7 2-.8 4.3 1 4.2.8v4.8l-1.1 2.4-1.1 2.5 1.6 2.5 1.7 2.5-.7 2.6-.6 2.6h-2.8l-1.2-2-1.3-2h-3l-1.3 2-1.2 2h-2.7zm8.3-9.9v-1.4l-2 1.2.5 1 .6.9h.9zm294.3 9-1.3-.6v-5.8l5-5v-8l-3-5.8 3.2-3.2 9.3.6-.3 7.1-.4 7.1 1.5 3 1.5 2.8.4 5v1.2l-.2 1.3h-2.6l-2.3-2.3 1-2 1.1-2-3.2.7-3.3.6h-1.7v3.6l-2.4 2.4h-.6l-.5-.2-1.3-.5zm9.7-14.4v-5l-2-1.2v4.8l-.6 3.2-.6 3.1h3.2zm-374.9 11.1-1-1.8 1-1.5.9-1.4v-7.1l-2.2-2.2 1.2-2 6.3.1 6.2.2 1.2 14-.4.7-.4.8h-9.9v2h-2zm8.9-5.8v-1.3l-2 1.2v1.9h2zm-132 5.3-1.7-1.2-1.1-2.2-1.2-2.2v-4.8l2-2.7 2.1-2.6h6.7l3.2 8v3.8l-3 2.6-3.2 2.6h-2.3zm5.5-8.2v-4h-3l-1.3 2.8-1.4 2.8 1.3 1.5 1.2 1.5 3.2-.6zm104.5 7.6-1-2 2-4h3.6l2.4 2.4v3.5l-2 1-1.9 1.1h-2zm64 .5-1.2-1.4.7-2 .6-2.1h4.7l1.1 1.4 1.2 1.5-1 2-1.2 2.1h-3.7zm31.5-.1-1.6-1.7.5-1.4.6-1.5v-.8h3.8l3.2 1.2v3.4l-2.4 2.4h-2.5zm-223-1.4-1.8-2-.5-5-.4-4.9 1.2-5 1.6-1.5 1.4-1.6h7.8l2.4 3-1.2 5h-3l-2-5h-1.9l-1.3 1.3-1.3 1.4v5.2l.2 5.3 1.4.8 1.3.9 1.3-1 1.3-1.1v-2.6l3.2-1.2.9.6.9.5v4.8l-2.9 2-3 2.1h-3.8zm48.3 1.3-2.8-.4v-1.7l3-2.4v-6l-2 .7-2 .6v-6.1h3v-1.6l-2.2-2.2 1.2-2h6.5l1.7.5 1.8.4v1.7l-2.3.6-2.2.7 2.3 1.1 2.3 1.2-.3 2.6-.2 2.5 1.5 2.3 1.6 2.2-.4 2.4-.5 2.4-6 1.2-.7-.1-.6-.2zm5.6-4 1.6-.5v-1.8h-4v3h.8zm-1.4-6.3v-1h-2.1l1.2 2h.9zm9.6 10.1-.6-.9 3-2.4v-4l-1.9.7-1.9.6-.4-1.3-.5-1.3.4-3.1.5-3.1 7.1-.6 7.2-.5.4.4.5.4-2.4 2.4v5.6h-2.7l-.6-.2-1 1.7-.9 1.6 2.4 2.8-.7 1-.6 1.1h-6.9zm16.5 0-.8-.6-1-2-1.1-1.9 1-2.4.8-2.4-.5-.9-.6-.9 1-2 1.2-2h6.8l1.5 2.2 1.6 2.2v5.7l1-.6.9-.5 1 1.6.8 1.7-.8 3.2h-12l-.8-.5zm5.4-5.2.7-1-.8-.8-2.2.6-2.2.5v1.8h3.9zm90.8 4.6-2.1-1.5-2.4-7.2.5-4 .5-3.9 1.6-2.4 1.6-2.5h7.1l2 1 1.9 1v6l-1.6.7-1.7.6-3.4-4.6-1.6.6-1.5.6-1.4 6.2 1.2 3 1.2 2.9h3l2.2-6 1.2-.4 1.2-.5 1.6 1.2 1.7 1.2-2.2 6.4-2.4 1.5-2.4 1.6h-3.7zm428.2.2-1.5-.8v-3l2.8-1 .7-5 .7-4.8-.7-1-.6-1.1-1.8 2.1-1.8 2.2-1.1-.7-1.2-.7v-5.9l4-4h7.1l2 1 2 1.1 2 5.2-.6 1.8-.6 1.9h-3.1l-1-4-2 1.2.8 5.6.7 5.7 1.5 1 1.5 1.2-.6 1-.7 1-3.5.5-3.5.4zm58 .5-.5-.5v-3.2l2-1.3 2.2-1.3-.6-5.7-.5-5.7-.7-4.3-.6-4.4 2.1-2.1 2 5 4 .7 4 .6 1.5 2.1 1.4 2.1-1 3-1.1 3 1.2 2 1.1 1.8v4.1l1.5 1.6 1.5 1.5-.5.8-.6 1-2.2-1-2.3-.8-2.5.4-2.4.3-4.2.4-4.2.5zm11.3-7.4-.3-2.3-2.3-.3-2.2-.3v3.8l.7.6.6.7h3.8zm-.4-8.4.6-1.6v-2l-2.3.4-2.2.3-.3 2.2-.3 2.3h3.9zm216.2 15-1.6-1.4v-3.5l2.4-2.4h4.5l1 2 1.1 1.9v2l-1.6 1.5-1.5 1.6h-2.9zm-859.6-.2v-.8l1.9-1.9.4-8-.4-1.4-.4-1.5 3-.5 2.9-.6-.2-.8-.2-.7.5-.3.4-.2 2.5 3.3 2.5 3.4-.5 1.2-.5 1.3 1 2.7 1.1 2.8-2.2 2.8h-11.8zm9.8-3.5-.5-1.2h-3.6l-.5 1.3-.4 1.2h5.4zm68.2 2.4v-1.9l1.5-.6 1.5-.5v-10.7l-1.6-2.2-1.5-2.2 1.2-2h10.6l2.1 2.3 2.2 2.3v5.1l-1.8 1.6-1.9 1.7h-5.3v4.9l2 1.2v2.9h-9zm11.5-13.1v-2.5l-2.2-.3-2.1-.3-.7 2-.6 2 .6 1.1.7 1.1 2.1-.3 2.2-.3zm356.7 13.8-2.3-1.1.6-5.2 2.3-.3 2.2-.3v-1.9l-1.7-4.2-1.7-4.3-2.6-1.6v-3l1.8-.5 1.7-.6 2.3-1 2.2-1.2 2.4 2.4h4.4l1.2 1.5 1.3 1.5-1.7 1.8-1.6 1.9v3.1l-1.6 6.4-1.6 6.3-.3.3-2.5.6-2.5.5zm65.4-.7-1.7-1.8-1-3.4-.9-3.4v-4.9l2-4.3 2.2-4.3h4.5l4.6 5 .5 5.4.4 5.5-1.2 5-1.6 1.5-1.5 1.6h-4.6zm6-5.3.7-2.3v-2.9l-.2-2.9-1.4-1.5-1.5-1.4-1.1.6-1.1.7v8.7l1.2 3.2h2.7zm24.4 5.2-2.5-2.1-.3-5.7-.4-5.7 2.6-5 2.3-1 2.3-1.2 3.2.6 3.1.7 1 3.2 1 3.3-2.6 2.4-2.8-3.4-3-3.4-1.5 1.3-1.6 1.3.4 10.2.9 1.1.9 1.2 1.9-.5 1.8-.5 1.3-3 1.2-2.9 1 .4 1.2.4.8 3.7 1 3.8-1 .9-.9.9-4.4.5-4.5.6zm62-1.1-1.9-3.1-.6-4.2-.7-4.2 1.3-3.9 1.3-3.8 4-2.6 4.1 1.8 4.1 1.9 1.4 10.4-1.2 3.6-1.2 3.7-1.5 1.8-1.5 1.7h-5.6zm7.4-5.2.7-2.2-.4-2-.2-2.3-.3-2.2-.6-.7-.7-.6-2.4 2.2-2.3 2.2 1 4 1.1 3.9h3.4zm54.9 6.5-1.4-1.4.5-.9.6-.9h2.9v-10l-1.6.7-1.6.6-1.8-2.8v-2.7l5.6-5.6 2.5.5 2.4.4 4.6 8-2.6.8-4 .8 6.6 1.6 2 2.5 1.9 2.5v1.2l-2.1 2.5-2 2.4-5.6.6-5.5.6zm11.1-5.7v-2l-2.3-.3-2.2-.3v3.8l1.4 1.4 1.6-.3 1.5-.3zm19 5.4-.7-1 3.2-3.6v-12l-3-2.6 1.1-1.3 1.1-1.4h9.4l2.2 1.6 2.2 1.5v7.8l-1.6 1.5-1.5 1.6h-5l-.6 1.5-.5 1.6 3.4 3.8-.7 1-.6 1.1h-7.8zm11.5-14.5v-2.3l-1-.6-.8-.5-1.6 1.6-1.6 1.5v2.6l.6.5.5.6 2-.5 1.9-.5zm22.3 13.9-.6-1.4 2.3-2.3v-11.7l-1.5-1.6-1.6-1.5.4-1.2.4-1.1 5.3-.3 5.4-.3 2.2.5 2.2.6.8 4.6-.8 2.4h-2.7l-.6 2.4-.6 2.5.7 1 .6 1.1h2.9v6.9l-1.8.5-1.7.6-5.3-.1-5.4-.2zm8.7-2.7v-.4l-1.5-2.8-1.5-2.9v6.5h3zm22.6 3.5-.6-1 1-2.8 1.2-2.8.4-3.8.5-3.8-1.6-3.1-1.5-3.1 2.2-2.6 6.2.6 6.1.6.6.6.7.6-1.6 13 1.4 3.4 1.4 3.5-1.2.8-1.3.8h-13.4l-.5-1zm9.7-3.8.7-.6-1.7-1.9-1.6-1.8h-1.6v2.6l2.4 2.4h1.3zm.5-11.6.3-1.7h-4v2.7l.7.7.7.6 1-.3 1.1-.4zm24.3 15-1.2-1.6 4.4-6-1.2-4.3-1.3-4.3-1.8-3.4.6-1.6.6-1.5h9.9l.6 1.6.6 1.7-1.5 1-1.5 1.2-1 10.8 3.9 3.9-.4 1.6-.3 1.7-9.2.6zm27.3-.1-.6-1.7 1.4-1.7 1.5-1.7-.5-6.2-.4-6.3h-2l.4-2.2.3-2.3 6.3-.3 6.4-.3 1.4 1.2 1.4 1.1v5.5l-4 4.6v1.6l2 1.1 2 1v4.5l-1.6 2.4-13.4 1.4zm30.6-.6v-1h1.9l1.2 2h-3zm-649.8-7.7-1.2-.5v-2.8l3.2.3 3.3.3.3 1.7.3 1.8h-2.3l-2.3-.2-1.3-.5zm-168.7-36.8-.6-1.5 1.2-1.4 1-1.6-.8-6.6-.8 2.3-.7 2.2h-3.7v-2.9l2-5.2 5.7.3 5.8.3.3 3.8.3 3.7h-2.4l-1.3-1.8-1.3-1.7v3.8l-.1 3.7h3v4h-7.1zm32 0-.6-1.5 1-1.3 1-1.2.4-3 .3-3-2-1-.3 2.3-.3 2.2h-2.9v-5.5l.9-1.3.8-1.3 10.8.6.3 3.8.3 3.7h-3.1v-3h-2v5.6l1.5 2 1.4 2.1-.6.7-.6.6h-5.8zm33.5 0-1.3-1.7 1-1.6 1.1-1.7h3.8l.3 1.8.4 1.8-1.2 1.4-1.2 1.5h-1.6l-1.3-1.6zm-50.8-2.4-2.1-3v-3.6l2-3.3 2-3.2h5l4 4v8.7l-1.8 1.6-1.9 1.7h-5.2zm6.9-8.7v-1.6l-3.2 1.2h-.9l1.2 2h2.9zm24 10.1-1.2-1.5.8-5.7.9-5.8 7.4-.6 1.7 2.5 1.6 2.6-1 5.2 2 .5 1.8.5v2.8h-.8l-.7.2-11.2.8zm6.5-4.5v-1.5h-4l-.3 1.8-.4 1.9 2.4-.4 2.3-.3zm-107.5-15v-1h-12v-2.3l1.5-1.7 1.6-1.7-1-4.4-1-4.3.4-.5.5-.4 5.7-.3 5.8-.2 1.6 1-1.2 1.4-1.1 1.4h-7.1l-1.2 1.6-1.2 1.7 1.1 2.3 1.1 2.4h2.8l1.1-1.6 1.2-1.5 5.2 4.8 1.1 2.1 1.2 2.2h-6.1zm26-2.3-2.4-1.2-1.4-3.8-1.5-3.7 5.6-8 1 1 1.1 1h3.4l1.1 3.1 1.1 3.2v5.7l-4 4h-1.5zm5-5.2 1.2-1.5-1.2-4.8-1.6-.6-1.7-.6-1.3 1.1-1.4 1.1v3.6l1.2 3.2h3.6zm72.6 4.3-2.6-2.3-.4-8.4 1.9-2 1.8-2.1h4.8l2.4 2.5 2.5 2.4v7.2l-2.6 2.4-2.7 2.5h-2.6zm5.2-3 1.2-1.2v-4.2l-1.4-2-1.4-1.8-3.2 2.6v2.7l1 2.5 1 2.6h1.6zm42.4 2.9-2.2-2.3-.6-3.1-.6-3.2 2-3 2.2-2.9 2.1-.5 2.2-.6 6 6-1.2 8.4-2.1 1.7-2.2 1.8h-3.5zm6.7-5 .9-2.2-1-1.8-.9-1.7h-3.7l-1.2 3.2 1.2 4.8h3.9zm6.1 6.5-1-.4v-2.8h2.2l-.4-5.5-.5-5.6 1-.5.8-.6 1.3 1.1 1.4 1.1.6 3.2.6 3.1 1.4-1.4 1-3.2 1.1-3.2 6-.6 6.5-.5 6.5-.4.1 7.4v7.4l-15.1 1.4-6.3.1-6.2.2zm17.5-6.2.6-1.7-1-2.7-1-2.6h-3.1v9.7l.7.6.6.7 1.3-1.1 1.3-1zm7.5 1v-2.1l-2 1.2v2.9h2zm-181 3.5v-1.4l2-1.1 2-1v-7.2l-2-.5-2-.6.3-1 .4-1.2 1.7-.3 1.8-.4 1.3 1.9 1.4 1.8v4.3l.1 4.2h2.9l1.4 2.2-2.8 1.8h-8.5zm47.4.7-.9-.7v-13.5h4.4l1.2 2h-3.1l.3 1.8.4 1.7 1.4-.1 1.5-.1 2-.6 2-.7.4 10h-3l1.2-6h-5l-.5 1.3-.4 1.2.8 1.7.9 1.6-1.4.5-1.3.5zm25.7-.2-3.4-.8-6.2 1-2-2.1-1.8-2.1.7-.7.6-.7 3.3 3.3 2.9-1.5 2.8-1.5v-2.4h-7.5l-.3-3.3-.3-3.2h6.7l2.4 2.4v7.5l.8.4.7.4 2.6.7 2.7.6.5-3.8.4-3.7-1.3-1.6-1.4-1.6v-1.3l11.5.6.6 6-4-5-3.6 2.2.6 6.8.4 4-2.5.2-2.5.1zm-4.7-9.9.6-.9-1.4-1.1-1.3-1.1-2.4 2.8 2.6 1 1.4.2zm-38 7.7.6-2.3v-9.2h5.5l5.5-.1v1.7l-1 .6-1 .7.6 3.6.6 3.7.5 1.8.4 1.7h-12.3zm6.6-2.3v-1.5h-4v1.7l.7.6.6.7h2.7zm1-5.5v-1h-3.7l-.8-.2-.3 1.1-.4 1.1h5.2zm85.7 9.4-.6-.7 1.4-2 1.5-2.1v-12.6l-2-1.2v-1.8h5.7l1.2 1.2-1.6 2.4-1.5 2.4.6 1.5.5 1.5h4.1v-8l1.6-.7 1.6-.6 1.6 1.6 1.6 1.7-2 2.2-2.1 2.3-1.4 2.4 1.7 2.8 1.8 2.8 1.5 1.3 1.5 1.2-3.2 3.2-2-.7-2.2-.6v-7.9h-4v5.9l2 1.2-.5 1-.6.9h-5.6zm65.8-5.4-.6-1 1.2-2 3.4-.6 3.5-.6 1.5 1.2 1.5 1.3-1.1 1.3-1.1 1.4h-7.8zm-135.5-7v-1h1.9l1.2 2h-3.1zm-50.5-5-.5-.9.8-.5 1-.5 1.2 1.2v1.7h-1.9zm140.7-4.7-1.2-.5-1.5-2.8-1.5-3v-6l3-2.5 3.2-2.6h3.5l1.5 1.8 1.5 1.7.7 3.6.7 3.7-1.2 2.5-1.1 2.5-2.5 1-2.4 1.2h-.7l-.7-.2-1.3-.5zm5.2-6.6 1-1.7-1-1.8-1.1-1.7h-3.8l-.3 2.3-.4 2.3 1.3 1.5 1.2 1.5 1-.4 1-.3zm30.7 5.6-2.3-1.5-2.2 2.2h-4.3l.2-12.4-1.6-.4-1.7-.3-.6 2.6-.6 2.5 1.5 3 1.6 3-5.2 2h-1.7l-.4-1-.4-1.2-2.6 1.3-2.7 1.2-1.5-.6-1.6-.6.6-1.6.6-1.5h3.8v-6.9l-2-1.2v-4l18.5.4 1.8 1.1 1.9 1.1 1.5-2.3 1.5-2.2h1.3l2.4 4.3 2.3 4.3 11-2 .9 1.5.9 1.4-.3 1-.4 1-12.4.6-1.8 4.8-3.8 2zm-15.2-5-.1-1.8-1.6-5-.2 8.5h2l-.1-1.8zm18.7-.9.7-2.5-2.3-2.3-2.3 2.3.7 2.5.6 2.6h2zm-183.2 4-2.6-2.4 1-1.3 1.2-1.2-2.1-2.1 1-.7 1.1-.7v-3.7l3.2-1.2h3.5l1.5 1.8 1.6 1.7.6 4 .7 4-2.6 2.3-2.5 2.1h-3.1zm7-3 .6-1.6-1.3-2.6-1.2-2.7-4.2-.6-1 4.8.8 2.1.8 2.2h4.9zm23.1 4.7-.5-1-.1-5-.2-5.1-1.6-1-1.6-.8.6-.6.5-.6 2-.1 1.9-.2 4.8.1 4.7.2v2.8l-1.6.6-1.7.6-1.3-1-1.4-1.2-1.5.6-1.5.5v2.9l1.3.5 1.2.5-1.3 1-1.3.9.7 1.6.6 1.7h1.8l-.5 1.5-.6 1.5h-2.9zm32.7-.7-2.2-1.4v-7.1l2-2.9 2.1-2.9h5.7l1.5 3.9 1.6 3.8-1.2 4.8-1.5 1.8-1.5 1.7h-4.3zm6.2-3.6 1.6-2.2v-3.4l-1.4-1.1-1.4-1.2-2.4.6-2.3.6v2.7l.2 2.7.7 1.8.8 1.7h2.7zm55 4.2-.6-1 1.2-1.5 1.2-1.4-.4-5.3-.3-5.3 3.6-.3 3.7-.3 1.6 1.7 1.7 1.7-.5 2.3-.6 2.4 1.2 2 1.3 2.1-2.4 2-2.3 1.9h-7.8zm8.6-4.6v-1.4l-1.7.3-1.6.3-.5 1.3-.4 1.2h4.2zm-149.3 4-.7-.7v-3.7h1.9l-.5-5-.4-5h2.3l1.2 1.7 1.2 1.6 1.1-.7 1.2-.7v-6.9h2.9l.6 2.1.7 2.1-1.3 2.4-1.2 2.4 1.6 1.8 1.7 1.9v4l-1.5 1.3-1.5 1.2-4.3.5-4.2.5zm8.8-4.4.6-2-1.2-2h-4.9l-1.2 2 1.2 4h5zm25.2 3.7-3.7-.9-.6-2.3-.6-2.4 1.2-3.5 1.1-3.4 2.8-1 2.9-1 2.7 2.9 2.8 2.8-1.3 1.6-1.2 1.5h-8l.4 1.8.4 1.7 7.4-.2v1.5l-1.3 1-1.2.9zm2.5-10-1-1-1.1.8-1.1.6.5 1 .6.8 3-1.2zm15.7 10.5v-.7l-.3-2.8-.2-2.8 1.3-1 1.3-1.1 1 2.7 1 2.6v3.9h-4v-.8zm10.6-6.4v-7.2h5.2l5.3-.1.2 1 .3 1-8.8 1-.5 1.3-.4 1.2h6l1.3 1.6 1.4 1.7-3.3-.5-3.2-.5v6.7h-3.5zm6.7 6 .5-1.3h2.3v1l.1 1-1.7.3-1.6.4zm56.9-1.4-2.1-2.7v-3.9l1.1-2.1 1.2-2.2 1.1-.7 1.1-.8h5.2l1.6 1.8 1.6 1.7v4.3l-.1 4.3-1.5 1.4-1.4 1.5h-5.9l-2-2.6zm7.9-2.4 1.5-1h-5.5v2h2.5zm-2.3-5.6-.6-.6-2.6 1 2 .1 1.8.1zm-24.7 8.4v-1.6l1.4-1.1 1.4-1.2-.5-5.7-.6-5.7-1.4-1.7-1.4-1.6 1.2-.8 1.2-.7h5l4.9.2 1.3 1 1.3 1.2.6 2.5.7 2.6-1.6 2.4-1.5 2.4h-7v4.9l1.7 1 1.8 1-.6.6-.7.6-7.2 1.2zm9.4-10.4 1.6-.6v-4.8h-6v6h2.8zm-23 7-.6-1.5.3-.3.4-.3 3.7-.6 3.6-.5 1.9 1.3 1.8 1.4-2.8 1-2.8 1.1h-5zm-35.8-42.4 2.1-.9 1-3.6-.3-6-.2-6-.8-3 7.8-.2 7.7-.1v2.8l-1.8-.5-1.9-.6-3.6 4h-2.6v-5.4l-1.4 2-1.4 1.9.7 6.5.6 6.5h2l1.2-9 .3 1 .2 1 .4 2.9.3 2.9 2.2 2.2 1-1.5.9-1.5 2 3-.8.6-.7.6-17 1.2zm22 .3-.7-.6v-2l1.5.6 1.4.6.6-.9.6-1 1.4.7 1.5.5v2.8h-5.6zm11.9-.2-.6-.9 2.8-2.2.6-3 .5-3h3.1v1.9l-1 .7-1.2.6.8 4.4-1.2 1.2-1.3 1.2h-2zm33.4-.6v-1.5h3l.2-7.5-.4-7-1-.7-1.1-.6-1.4.5-1.3.5 1.2-3.2h.2l.1-.1 4.7-.5 4.6-.5.7 1.1.7 1.2-2 1.4-2.2 1.5v3.9h4.9l1.5 2.2 1.6 2.2v4.2l-4 4.4h-10zm9.4-3 1.6-1.6v-2.9h-6l1.5 4.5.4 1.5h1zm-34.8 2.7-.4-.7 1.4-2 1.4-1.9v2.4l4 1.2v1.8h-5.9zm11.1-7.4.3-7.7-2-1.2v-2.9h11l.6 2.5.6 2.6-1.4 1.4-1.2-1.8-1.3-1.7h-2.2l-1.6 2.6-1.7 2.5.9.9.9.8 3 .4 2.8.3.8 2.4-3-1-3.2-1.1-.7.7-.7.6-.1 3-.2 2.9h6.4l2.4-2.4v3.4l-5 .2-2.8.2-2.7.1zm-28.6-.8-.1-4.4 1.9 1.9-.9 3.5-.8 3.5zm17.7-.7-.3-3.6-1.3-.5-1.2-.4v2.4l-.2 2.3-.4-1-.4-1.1.8-4 .8-3.9 1 .3.9.2.1 1.3v1.2l.7 1.5.5 1.5.7 3.8.6 3.7h-2zm-27.7 1.1v-1.9l.6 1.3.5 1.3-1.2 1.2v-1.9zm15.4-4.4-.7-1 1.2-1.5 1.1-1.4-2-1-2-1.1-1.2 4h-2.7l-1.2-3.2.6-.9.5-.9h6.4l3.6 2.8-.7 2.6-.6 2.6h-1.7zm-11.9-1.5-.5-1.5.5-1.5.6-1.5h2.8v2.8l-1.2 3.2h-1.6z"/>
</svg>
