<?xml version="1.0" encoding="utf-8"?>
<svg xmlns="http://www.w3.org/2000/svg" viewBox="0 0 1065 606">
	<path d="m199 596.3-2.5-.4-5.5-2.1-5.5-2.2-9.7-10.1-1.5-2.3-1.6-2.3 2.2-2.2 8.1 3.6.5-.5.5-.4-1-3-.8-3.1 2.4-2.7 2.5-2.6h1.9v-9.2l-1.3 1-1.3 1.1-2.2-.6-2.2-.5-.5-2.2-.4-2.1-2.3-22-.5-1.5-.6-1.5-.6-6-1.2-10-2.2-7-1.3-3-1.2-3-2-7-2.2-7-1-7-1.1-7-1.2-.7-1.2-.8h2.5l-.6-5.7-.5-5.6-.8-1.4-1.2-6.8-.7-4-.8-4 .2-14 1.6-9 1.6-3 1.5-3 1.8-2.7 2-2.6 2.7.7 2.7.8-.2 2.1-.3 2.2h2v-2h3.6l3.9-2.7 3-.7 3-.8 23.2-1 .5 1.4.6 1.4-8.6.1-8.6.2-8.1 1.2-6.5 2v1.9h-3.1l-3 3 1.2 2h-1.6l-1-.8-1-.7-.2-3.9-.3-4-.5-.5-.6-.5-1.6 1-1.7 1-2 4-2 3.8-.4 2-.3 2.1-1 18.2 9.1.2v-3l1.2.7 1.1.7-.6-1-.7-1-2.8-.6-3-.6-.5-2-.5-2.1h3.7l1.2-2 3.8 2.4 7.2-3.4-.7-1.2-.7-1.1 1 .7 1.1.6 3.9-2.2 3.8-2.2 1.1-1.5 1.1-1.4 1.7.6 1.7.7 3.6-1.5 3.5-1.5 1 .6.9.6 1.5-1.3 1.5-1.2 2.4 2.6-1.7-.6-1.8-.6v1.7l-6 1.4-3 1.5-3 1.4v3.4l.8-1.2.8-1.3 21.4-3 .8.2.7.2 4-1.2 4-1.1 48.3-1.1.6 1.5.5 1.5h-2.5l-2.3-2.3-2.6 1.1-2.5 1.2v-1.7l-5.5.6-6.8 1.2-.7-1.2-.8-1.2-1.3.9-1.3.8-5.1.6-13 1-5.7.4-5.8.3-1.6 1.3-1.6 1.4-.6-1-.7-1.1-2.5.3-2.5.2-8 2-1.7.7-1.8.7v-2.2l-2.2 1.5-2.2 1.6h-3.7l1.2-2h-1.1l-4 4h-3v2h2.8l2.7.2 9-.2-1.9 1.4-1.9 1.5-.9-.5-.9-.6-1.4 1.2-1.3 1.1-.7-1-.6-1.1h-4.4l-1.5 1-1.4.9 3.5 3.9h7.1l2.2 2.2 1.3-1.2 1.3-1 2 1.7 2 1.8 2-.6 2-.5v1.4l8.3 1.3 8.2 1.2 22 2 11.8 2 1.2-1.6 3.5-1.3 3.5-1.4 4.3-1.4 4.3-1.3 1.4-1.5 1.5-1.4 2.6-2 2.6-2.1-.7-1-.6-1.1h-7.4l1.5-1 1.4-.9-1.4-1.4-1.3 1.2-1.4 1-13.3-.4v-2.1l7 .8v-1.8h12v1.3l4.8-.2 4.7-.1-.8 3-.3 2.5-.2 2.5-1.5 3.8 1.1-.7 1.2-.7v2.1h3.1l-1.2-2 1.5-2.2 1.6-2.2v-4.7l-1.2-2.2-1.1-2.2-2.5-2.4-2.6-2.4-3-1.3-3.1-1.3 3.5-.2 3.5-.1-2.7-1.1-2.8-1v-2.5l-3.7 1-.6-2.1-.5-2.1h3.4l4.2 3.5 4 3.5.7-1 .6-1h2.1l-2.6 3.2 4.4 3.6v2.9l3 6 .6 3.2.7 3.3-1.8-.4-1.8-.3-.4 1.3-.5 1.2h3l2.4 3h-2l-.4 2.4-.5 2.4 1 1.8 1 1.9-.2 4.4-.3 4.4-9 17.2-1.7 2-1.8 2-1.3 3.2-1.2 3.3-2-1.2.6-3.4.7-3.3 2.8-5.4 2.7-2.4 2.7-2.3h2.2l-1.4-1-1.4-.8 2.2-1.8 2.1-1.8v-3.6h1.5v-12.5h-3.8l-1 2.8 1.7-.6 1.6-.6v1.9l-3.5.2h-.7l-.8-.2v4l-3.3 3.2-3.2 3.3-2.4 5-.6 2.1-.6 2.2-1.8-.5-1.7-.4-4.1 8.3-4 8.3-1.4 4.5h-3.4l1.4.9 1.3.8-1 .7-1.2.7v2.8l-6.1 13.6-1.7 3.5-1.8 3.5-7.4 11.5v2.8l-3 2.4v1.8l-8 16.7v2.2l-2.3-2.2-2.2-2.2 1.3-.8 1.2-.8 4-8.2 3.8-8.2 1.2-4 1.3-4 1.4-2 2.8-7 2.7-7 4-9 12.5-26 2.8-8 .8-.6 1-.6-1.2-2.2-1.2-2.1-2.7.2-2.7.3-14.5-1.8-.6-.9-.6-1 5.8.7 5.9.6 3.4 1 2-1 2-1.2 5.2 3.4.2-.4.3-.4 2.4-5.6v-1.4h-4.8l-4.7.1-2 1.1-1.9 1.1-2.5-1-2.6-1-.3 1-.3 1.1-4.7-1.8-2.8 2.6-2.9 2.6-9.5-.4v2.1h-4.5l-1.5-1-1.4-.9-2.4 2-4.9-2-1.2.8-1.3.8-9-2-2.5 1.4-2.4 1.3-1.7-1-1.6-1-.4-1.5-.4-1.4 1 1.4 1 1.3 4-2.2 3.3-.4 3.3-.3.4-1.2.4-1.1-2.7 1-2.6 1h-5.9v-2h-6v2.9l1.3.8 1.2.8v5.8l3.5 1.2 3.5 1.1 17-1.4 18 2.8 4 .8 4.5 1.4v2.8h-3.6l-2.3-2.3.6 2.2.5 2.1h2.1l-.6.7-.7.6-2.3-2-2.2-2-3.8-.2-3.7-.1h-1.8l-1.7-.2-5.5-2-1.7.7-1.8.7-12.6.6-2.6-2.6-1.2.8-1.3.8-1.8-.5-1.7-.5-1.7-3.6-1.8-3.7-2.6 3.6-.6-2.7-.7-2.7 1.2-.7 1.2-.8-1.6-2.4 1.4-.8 1.3-.9-2.5-2-2.4-2-1.2 1.6-1.3 1.7v-2.6l-3.8 1-1-2.4-1.2-2.4h-2v2.5l-1-1.8-1.1-1.7h-3.9v-2.2l1.8.7 1.7.8 2.8.5 2.7.4v-1.8l-8-2.4h-4.9l-1.2-2h-1.7l-1.2 6.7 1.5 6 1.6 5.8v12.5h1.9l-1.2 5.7 3.6 12.8 1.9 4.3 1.9 4.4.3-.4.3-.3-1-5.5h-1.3l.2-21h-2.7v-1.6l2.4-2.4-1.7-1.3-1.8-1.2-.3-2.6-.2-2.5-.7-1-.6-1.1 5.7.2 2.5 20.5h1.2l-.5 14.5.9 1.4 1 1.5 1.5-1.3 1.6-1.3-1.5 3.7-1.6 3.7 2.2 6.8-.5.9-.6.9 1.5 3.6 1.5 3.5v5.1h2v5.5l4.1 14 1 7 1 2.9.9 2.9v4.6l8.5-.8.3-1 .4-1.1h2.9l-1-8.5-1.2-11 .3-.5.3-.6-1.8-2.8-1.8-2.7 1.2-10.4-1.1-8.5-1.2-8.5-.3-4.3-.4-4.2h1.5l2.3 14.5 1.1 13 1.2 13 2.9 18 .4 1.5.3 1.5.2 3.5h11v2.3l1.2-1.2-1.2-3.7-1.3-3.8 1.2-.4 1.1-.4-.6-.9-.5-.9h2.1l2.7-5.8 2.7-5.7.6-.5.5-.5 1.4-4 1.3-4 6.6-11 1.4-5 1-1.2 1-1.3-1-4h1.5l3-7.6-.9-2.3-.8-2.4 1.3 1.2 1.4 1 3.6-11.4 1-2.1 1-2.2.4-6.4 1.7-1.9 1.6-1.9h1.9l-.2 3.9-.1 3.9-2.6-1v2.2h1.8l-1.5 3.3-1.6 3.2-1.2 1-.1 2.5-.2 2.5-1.6 6-1.7 6-1.6 4-4.6 11-1.6 4-1.2 6.4-2.9 2.3v2.6l-3 2.4.5.8.5.9-3.2 8-1.4.5-1.5.6 1.2 2h-1.7l-1.7 2.9-1.7 3v4.2l1.4-.5 1.4-.6.6.7.6.6 9.5-.4 1.4 1 1.5.9 1.3-2.2 1.2-2.2 4.6-9 1.2-1.3 1.3-1.3v-4.8h2.8l1.2-3.2-.6-.9-.5-.9h2.1v-2.1l4-8.8 1.3-.8 1.2-.8 2.8-5.7 2.7-5.7 2.2-10.6 1.6-4 1-3.5 1.1-3.5-.5 3.3-.6 3.3 2-1.2 2.1-1.3.7.6.6.7-.5 1.6-.6 1.5h-4.1v8h-2v6.3l-1.3 1.6-1.4 1.6-1.8 8-1.9 8-1 1-.8 1 .6-3.8.7-3.7h-1.2l-13.1 29.5-3 2.4 1.4 2.2 1.6-.6 1.5-.6 2.4 2.2 2.3 2.2v5.2l-7.9 6.5h-3.1l-.6 2.4-.6 2.5.7 1.1.7 1.2-4.7-.6-7.5 2.8-1.2 3.7-3.3-2.9-4 1.3-3.9 1.4-.8-.5-.7-.5-3.2 1.7-3.2 1.6 2.8 1.8h-5.1l-2.2-2.2-.6 1.1-.7 1.1-1.2-.1zm-5.5-8.3.6-1-6-3h-5.3l1.2 1.5 1.3 1.5 3 1 3.2.8 1.4.2zm28-1h1.5v-2.7l4 .2 1.8-3 1.7-3 .8-.3.7-.4v-2.7l1.3-.8 1.4-.8.6-1.8.6-1.7-2.7-.2-2.7-.1-1.5.1-1.5.2-18.5-2.4-1.3 1.3-1.2 1.3 1.2.5 1.2.4 2.1 3.5 2.2 3.4 1.8-1 1.9-1 1.5.6 1.6.6v-2.2h2.7l1.1 2.5 1.2 2.6v.6l-3.3-.2-3.3-.3-3.4 2.6 2 5.4 3.2-1.2zm-9.8-2.9-.1-1.8-3.4 1-3.4.8-.1-.3-.2-.3-2.2-4-2.2-.3-2.1-.3v-1.9h-3.2l.6 2.3.6 2.2v2.3l4 1v-2.3l1 1.8 1.1 1.7h9.8zm-19.4-7.7-.8-3.7-2.8-1 1 5.2-2-.4-.5 1.8-.3 1.7 4.6 1.8.9-.8.8-.8zm18.7.8v-1.8l-2.9-1.7-3-1.7h-3.1v5.1l2.3.9 2.2.9h2.3l2.2.1zm32.3-2.7 3.7-3.5v-2l-2.8.3-2.7.4h-.8l-.7.2v3.1l-3 3v1.9h2.5l3.8-3.5zm-44.5.3 1.2-1.2v-4.7l-1.5-.5-1.5-.6-3 2.4v4.5l.7.6.6.7h2.3zm-10.8-19.8v-1h-2v2h2zm-.3-3.7.4-1.2-2-1-2.1-1.2v3.8l.7.7.7.6 2-.6zm-2.2-8.6-.7-4.2-2-7-.5-1.4-.3-1.4-.6.5-.5.5 2.2 14.8.4 1.3.4 1.2h2.2zm67.2-29.9-.5-1.3-.2 3.8 1.2-1.2zm-75.7-7.2v-.5l-2-1.2v2.1h2zm80.8-5.4.4-1.2h-2l-1.2 3.2 2.4-.8zm5.2-9.2v-1h-2v2h2zm2.9-8.4-.5-.5-2.6 4.4 1.8-1.7 1.8-1.8zm3.1-4.6v-1h-.9l-1.2 2h2.1zm-30-3.8v-.9h-2.9l.5.9.5.8h1.9zm37-6.4v-.8h-2.6l-2.4 2.4v5.1l5-6v-.8zm1-3.8v-2h-1.8l-1.1 1.4-1.2 1.4 2.6 1 .8.1.7.1zm-46-1v-1h-2v2h2zm-13-1.8v-.9l-.6-.6-.7-.6-.9.5-.8.5.5 1 .6.9h1.9zm5-.7v-1.5h-2l1.2 3h.8zm-9-.5v-1h-.9l-1.2 2h2.1zm22 0v-1h-3.1l1.2 2h1.9zm3 .6v-.5l-2-1.2v2.1h2zm47.5-6.4 3.8-4.3-.6-.5-.6-.6-3.5 2.1-3.4 2.2-1 2.8-1 3 .6.5.6.6 1.3-1.5zm-64.8 1.4 5.1-.1.8-.7.7-.8-2.4-.1-2.4-.2-5 .1h-5l-1.4.2.6 1.6.6 1.5 3.2-1.4zm11.5-1.8-1.2-1.2-.7.8-.7.7 2.8 1.8.5-.5.5-.4zm10.8 1.2v-1h-2v2h2zm-33-1v-.9l-4.5-.6-3.3.4-3.2.3v1.8h11zm60.4-2.6.6-1.6 6 1.4-.2-1.3-.3-1.2 6.5-1.8v-1.9h-2.2l2.4-3h-1.2l-9.5 6.8-2.3.6-2.2.7v2.9h1.8zm-84.9-.4-.6-1h-2l1.2 2h2zm18.8-1.7-1.3-.5-1.3.5-1.2.5h5zm87.7-2.1v-.9l-.6-.6-.7-.6-.9.5-.8.5.5 1 .6.9h1.9zm-111.5-1.9 1.7-1.7-2.3-.8-2.3-.9-1.3.5-1.2.5-.6-1-.6-.9h-1.7l-.6 1.6-.6 1.5 3.3 1.4 3.2 1.4h.7l.7.1zm5.2.1-.6-.6-2.6 1 3.8.2zm6.3-.4v-1h-2v2h2zm-9.4-11.9-.7-1-1.5.6-1.5.5 1.2 1.5 1.2 1.4 2-2zm-2 132.4.6-1.6 2 .6v2l-3.2.6zm72.7-7-1.3-1.5v-1l1.5-1.4 1.4-1.5 2-7.3 2-7.4v1.3l.1 1.3-2.2 14.4-1.2 2.2-1.1 2.1-1.2-1.4zm-47.5-15.3-.1-11.7.1-8 .2-8-3.2-16.7.5-.4.4-.5 2.4 9.3 1.4-.6 1.5-.5v3l-1-.6-.9-.5-.6 1-.7 1.1.6 2.5.6 2.4h2v-3.1l.9.5.8.5-.4 5.3-.5 5.3-.8 3.6-.7 3.6 1.3 1.7 1.3 1.8-1 2.3-.8 2.3-.4 12.7-.5 1.8-.4 1.7h-1.8zm1.2-41.7v-1.5h2v3h-2zm0-4 .2-2 1 2.6-1.2 1.2v-1.9zm67-1.9v-1.4l3-2.4v2l-1.2 3.2h-1.8zm-73-3.6-1.1-4.2.8-.8 1.2 4 1.2 4.2-1 1zm-5.4 1.2-.6-1-.4-3.6-.5-3.6h1.7l.4 4.3.5 4.2-.3.3-.2.3zm10.6-2.2v-3.5l.5 1.8.4 1.7-.4 1.8-.5 1.7zm64.8-4v-1.9l.9-.5.8-.5-.5 2.4-.4 2.5h-.8zm-72-2.6.2-1.9 1 2.6-1.2 1.2zm5.4 0-.6-1.4.5-2 .5-1.9-1.2-.4-1.1-.4.8-.9.8-.8 1 1.4.9 1.5v6.5h-1.1l-.5-1.5zm-11.4-2.8v-1.6h2v1.9l-2 1.2zm-16-2.5 1-2v-6l2.8 1-.2 2.7-.1 2.7-1.5 1.8-1.4 1.7h-1.7zm19.7-1-.6-2.4 2.1 2.1-.8 2.6zm-5-2.8-.7-.6v-3.7h2v5h-.7zm-12.7-7.3-1.5-1 1.8-2.9 1.7-3v-1.8l.2-1.8 1 3 1 2.8-1.3 1.1-1.5 1.1.4 1.8.3 1.7h-.6zm8-6.5-1.3-1.5 1-1 2.6 3-1 1zm-19-2.4v-1l-.6-1.5-.6-1.6h2l1 4-.9.6-.9.5zm3.6 0-.8-1.2 1.2-1.2 1.2 1.2-.4 1.2-.4 1.3zm-4.4-7.1v-2.5l.5 1.3.5 1.2-.5 1.3-.5 1.2zm129.3-2 .6-1h.9v2h-2.1zm-95.8-14.1 2-2 1.7.7 1.7.6-.4 1.2-.4 1.1-3.3.2-3.3.1zm8.3 1.1-1.3-.8 1.6-2.4.8 1.3.9 1.4v-2.3l8.6.2 8.7.3 2.8-1.4 2.7-1.4 2.9.7 2.8.6 3.2-.1 3.3-.2v2.1h3.2l-.6-1.5-.5-1.5h2.8l1.5 1.6 1.6 1.5v1.1l-1.4-.5-1.4-.6-.6.7-.7.6-16 .6.7-1 .7-1.2-4 1.2-4.9.6-4.9.5-5.6.3-5.6.4zm-39.5-9.3-.6-1.3 2.8-5.4 1.2 2.6 1.1 2.5-2-1.2v3l-2 1.2zm40.5-7.7v-1h2v2h-2zm2.6-1.6-.5-1.3 1.5.6 1.4.5 3-2.4 1.6.6 1.7.6-.6.6-.5.6-7.1 1.6zm55.1-2.3-.4-1.8-3.4-.5-3.4-.6-1.7.9-1.6.9 1-4 3.7.6 3.6.7 1.8.9 1.7.9 1-.5.8-.6.5 2 .5 1.9-1.5.5-1.5.6h-.6zm-35.2-1.3 2.7-2.1 1.6 2.6 1.3-.8 1.4-.8-2 2-7.6 1.2zm6-2.5-5-1.4h-3.8l-3.7-.1v-1.8h8.5l6.9-.3 6.9-.1 1.3 1.8 1.4 1.9v1.1l-3.8.1-3.7.1-5-1.4zm16 .8-.5-1 2-1.2v3.1h-.9zm-35.5-3.8-2.5-.5-2-2 3.4.6 3.3.6h2.8v2l-1.3-.1-1.2-.2zm-106.4-3.6-4-1.2-.3-1.1-.4-1.2 11.1 3.3v1.5h-1.2l-1.3-.2-4-1.1zm56.6-2.9-1-3.3-.3-2-.1-2 .4-2 2.6 12-.6.6zm-40.6.5-.6-.6v-5.2l1 1.5.9 1.4.6-2 .7-1.9.8-2.8 1.1 1.1-1 4-1.2 4.1-1.6 1zm-28.6-10.2-1-2.1h2l.7 1.5.5 1.6-.5.5-.5.6zm-21.5-2-.6-2 3.6-5.6 9.2-12 .7-2.2.7-2.3-1.3-1.5-1.3-1.6-3.5-3.9v-1.1l4 1.2v-2.6l2.6 5h2.8l2.6-10-1-10.7-2-3-2.1-2.8h-5.9v1.8l-3.8-1-9.6 5.4-12.6 11-4 6.5v7.7l-2.3-2.3 2.6-10.9 17.7-17.4 1.4.5 1.6.6 6-3.4-.8-3.5.7-.4.6-.4-2.4-29.4-.3-.3-.3-.2-7 1.2-7 1.3v.3l-3.4.5-3.3.4-12.8 3-7.9.5-7.8.6-3 .8-3 .9-2.7-.5-2.7-.6-.7 1.2-.8 1.2-2.7-1-2.7-1.1h-5l-2-3.6.9-1.3.8-1.4 2.6.7 2.6.6 4-2v3.2l4.5-1.2h3.6v-2.2l-1.5.6-1.5.5v-1.9h2.3l2 1.8 2 1.7.4-1.3.5-1.2h2.8v2h10.5l4-1 4-.7 2-.8 1.8-.8-.8 1.2-.7 1.3 2-1 2-1.2 5.8-.5 5.7-.6.9-.5.8-.5-5.2-6.8 2.4-11.6.3-1 .2-1 .7-2 .8-2 2.2-5 3.3-3.8 3.3-3.7-.5-2.3-.4-2.2-4.1-24.8.2-5.2 2.6 8 .2 8 3 15.7v.7l2.2.3 2.3.3.2 3 .1 3-.5-2.3-.4-2.2h-2l-8.7 8.2-.5 2.2-.5 2.1-4.2 11.5v7.7l1.9 1.7 1.8 1.7 3-1 2.8-1.1-3.5 2.7v1.3h3.9l1.2-2 1.4.7 1.5.5v-6.2h-1.6l-1.4 1.3-1.4 1.2 2-2.3 1.9-2.4v-12.7l.9-.8.8-.8-.4 3v3.9l.2 3.8 1.5-.6 1.5-.5v1.7l-1.2.5-1.3.4.1 3.9.1 3.8 2.4.8 9.4-1.4-3.5-2.5 12.7-18.8.6-2.2.5-2.2-1.4-1.2-1.4-1.1-1.5.6-1.6.6 1.2-2h5l.5 1.5.6 1.5-.5 2.3-.6 2.2-11 16.8.5.8.5.9h4.9v-4h2l-.6 2.5-.6 2.6 2.3-.5 2.4-.6 13-2h1.7l-.5-2.3-.6-2.2 3 4 12.4-.7.9-.5.8-.6 15.3-.8 5-.6 2.3-.1 2.2-.2v-11.2l-3.2-6.8h-2.4l-2.4 2 3.9-4.3 1.5 1.2 1.5 1.3 2 6.3.6 11 6.4.6.5-3.3.4-3.3v-2l.1-2 2.1-32.6.4-1.4-1.7-28v-3.5l-.2-3.5-.8-1.2-.7-1.2 2-1.2-.5-.8-.4-.8-3.6 1-3.5 1.2v1.4l2.2.7 2.1.6-2.3 1.3-2.4 1.3-1.4-.5-1.3-.6-4 4.2-3.8 4.2-2.2-4.2 2.6-3.4 1.3-.8 1.2-.8v-1.4l-6.2-2.8-1.6 2.6-1.1-2.2-1.2-2.1h-7.6l-.6-.6-.6-.7 9-10-.4-1.9-.5-1.8.9-.6.9-.5v-4l-1.6-.6-1.5-.6-4 3.9-4 3.8 2.6-5.4h2l2-2.7 2.3-2.7 3.2 2.6v7.3l-4 8-1.7 2.4-1.8 2.4 5-.6 5-.7 6-1-1.3.6-1.2.6v1.8h4.5l-2 1.5-1.9 1.5.7.7.7.6 5.4-2.4-1.5-1-1.4-1 1.3-.6 1.3-.5-3.4-3.8h3.8l1.8-4 1.9-4h1.7l.6 4.5-6 6 2.3.3 2.4.4 2.4-2.3 2.4-2.2v-2.7h-2.2l1.2-3.2-.7-1.1-.8-1.2-2-12.3 1.2.5 1.3.5v-15.2h-1.6l-2.9 4.3-6.9 8.5-7 8.4-1.2-2.3-1.3-2.4v-1.8l-.1-1.7h1.8l.6 1.3.5 1.2 1.3-1.9 1.3-1.8 5.5-5.6v-1.2l4.5-4.7 5.3-6.1.5-2 .6-1.8 2.2-41 .8-5.4-4.6-2-4.6-2.1h-3.5l-.6-1.5-.5-1.5h-2l-2.7 4.5-2.6 4.6-1-1 6.5-14.2 1.9 5.8 1 1.2 1 1.3h8.7l4-4h3.5l-3.5 2.7v3.3h4l10-5.2v-2.9l1-1.8.9-1.7.5-1.8.6-1.8 1 .6 1.1.7-2.4 2.8-.6 5.3-1.5 1-1.6.8v3l-.9-.5-.8-.5-10.3 3.6-.5.5-.5.4-1.5 23.4-.5 5.5-1.2 16.5h1.9l12.3-13.6 9.5-11.9 4-4.8 8-9.2 4.3-4.3.3-.8.4-1 3-2.2 3-2.3 17-16.6 2.3-1.3 2.4-1.2-1-3.8h3.9l2.4-1.6 2.5-1.6v-3l-2.5.4-2.5.5-.6-.8-.5-1-1.8 1-1.7 1-2.6-1.6 1-.7 1.1-.7 5 .7 4.8.6 2.2-1.1 2.1-1.2v3.1h1.2l4-5h2.8v1.5l-.8 1-.7 1-3 1.9-3 1.8-5 4.8-7.2 5.7-7.3 5.6v1.7h-2.7l-4.8 7h-1.4l-4.9 5.2-22.7 24.4-4.5 6-4.5 5.9-14.3 16.2-1 2-1.2 2.2v14.6l.7 4.2.5 4.3 2.7-.7 2.6-.6 2-2.4 2-2.3 1.3 1.2 1.2 1.2v1.7l-4-1.2v3.2l-2.8 1-1.2 3-1.3 3 .7.6.6.7 6.6-6.4h1.5l23.6-20 4-3 3.8-2.9 4-3.6 18-14 2.2-2 4.8-4 12.5-9.8v-1.2l2.2-1 2.3-1 1-2 1-2.2 1 .4 1.1.3 6.9-6.6 5.8-4.3 5.7-4.4-.2-1.6-.3-1.6 1.9.3 1.9.4-.5-1.4-.5-1.3 3.6-3.4.8 2.4 10.8-9 2.7-2.4 2.8-2.4v-2.9l3 .4 3 .5-.6-2.1-.7-2.1-2-1.5-2.1-1.5-2.8-1.7-2.7-1.8v2h-2.2l.5-1.3.4-1.2-1.5-1.8-1.5-1.7h2.5l3 2.3 3 2.2 3.6 3.1 3.7 3.1 1.3-.4 1.2-.5v3l1.8.5 1.7.6 2.8 1.8 2.9 1.8 5-6-.7 2.3-.6 2.2h4l.5.9.6.9h-1.3l-1.2-.1-2.3.1-2.2.2v1.6l5.7 3.4 5.6 3.5.5-1.3.4-1.2h2.5l1.8-2 1.7-2-.5-1.5-.6-1.5h2.8l5.1-6.7 1-3.1 1.2-3.2h1.8v2l-3 4.8-3 5v1.4l-5 4-1.5 2.8-1.5 3v1h7.5l-3 1.4-3 1.2 9.4 6.4h3.8l1-2.3 1.1-2.2 1.2-3.3 1.3-3.2 1-.6.9-.6-1.6 3-1.6 3.2v1h4l1.2-3h2.8v2.6l-2.4 2.4h2.8l-2.2 1.6-2.2 1.5-7.5.6.6 2.8 3.4 2.6 3.4 2.7 3.5 2.7 19.3 16.7 3.3 3 1.1-.8 1.2-.7-.6 1-.7 1.1 29.4 29.2h.8l8-6.6 7.8-6.6 3.2 2.6-1.9 1.3-1.8 1.4-12.5 10.3v1.6l3.6 3.5 3.7 3.4h2.7v2.8l7 7.2v1.4l-3.7-3.5-3.8-3.4-1.2-1.6-6.7.4-6.6.5-4 5-2.2.5-2.3.6 2.8-2.2 2.7-2.3v-1.3l-1.2.8-1.3.8h-4l.2 1.2.3 1.2-2 .6-1.8.6-.6 1.4-.5 1.5h2.7l-1.1 2.5-1.2 2.5h-6l1.3-.9 1.3-.8-.6-2.6-.7-2.6 4.2-2.6v-3.8l-1.7.8-1.8.8-7-.4-1.6-.5-1.6-.4-1.3 1.5-1.2 1.5-2-1.1-2-1-1.6.7-1.7.7-.9-.2-.8-.2.5 1.6.6 1.5h-4.8l-1-1.8-1-1.7-1 1.4-1 1.5-1.6-1.4-1.6-1.3-3 2.2-2.9 2.2v-2l1.3-.4 1.2-.5-4.5-.2v1.8l-11.1-.8.7 2.3.7 2.2.8.3.9.4v2.4l3 1 2.8 1.2 2.2-2.2 2 2-1.5 1.4-1.5 1.2v4.9l2.8 6.4 2 2 2 2.2 3.3 6.3h-1.6l-8.8-14-2.2-.2-2 .4-4.2.3-4.1.2-2.2-4.8v-1.1l1.3 1 1.4 1.2.7-.8.8-.7-.4 1.5-.3 1.5 2.3.3 2.4.4 1.8-1.7 1.9-1.7-.6-1.4-.5-1.4 1.7.6 1.7.7-.4-1.9-.3-1.9-2.2.3-2 .3-2.7-4.6-2.7-4.5h-1.9v2.7l-3.2 1-3.1.8-.8 2.4 6.6-1 3 2-2.5 2.5-1.9-1.1-1.9-1.2-2 1.5-2.2 1.5v3.8l-2 1.2 1 1.7.8 1.8-1 1.7-.9 1.7h1.3l-2 2.6-1.2 7-1 6.9-1.4 6-1.5 6-2.3 11.7-1.9-1.9 1-2.7 1.1-2.7v-6.6l2-5.9 1.9-5.9 1.4-11 2.6-7.4-1-.7-1.1-.7-.7 1-.6 1-4.2 2.2-1.7-1.2-1.7-1.3 2-5.4h1.2l-.6 5.5 4-.6 4.7-4.7.2-2.8.1-2.9.7-1 .6-1 1.4-7.5h-1.9l-1.5 1.8-1.5 1.7-2.6 4.8 1.7 1.2 1.6 1.2-6.5 1.6-1-.2-1.1-.1-3.9 4-4 4h-2.3l-1.1 1.4-1.2 1.4 3.5 3.6 3.4 3.6.5 2.3.6 2.2-5.4-7-6-6.5-5-7-1.3.5-1.2.4v-3l-8.5.6-.6 4.5 5.6.2-6 1.6-4.3 1.6-4.2 1.6-3.7-1.5-3.7-1.6-1.3.5-1.3.6-4.1-3.5-1-2.3-.9-2.2h-2.8l-1 1.3-1 1.2-1.6 8-.8-5-2.2-1.4 1.7-.7 1.7-.6v-2.9h-11.5l-3 .1h-2.9l-.4.5-.4.4 1.8 4.5 1.9 4.6h1.6l3-1.5 2.8-1.5-.5 1.5-.6 1.4-2.1.7-2.2.7-.7 1-.8 1.2v6.6l-1.7 2.7-1.8 2.7-3 2h-5l-.7 4.5-.6 4.5-3.4 24-1 16.2 1.1.7 1.2.8 1-3.1 1-3 9.4-6.4 4.2-.5 4.2-.4.5 2.6.6 2.6 1 4.8-1.8 1.3-1.7 1.4 1.1-1.5 1.2-1.5-1-2.3-.8-2.4-1.2.5-1.3.4-1-1.4-1-1.3-3.1 2-3.2 1.8-5.6 7.4 1 1.6 1.1 1.7 2.7.3 2.8.4-.6 2.1-.6 2.2v1.5h-3.1l-.5 1.5-.6 1.5 1.3 1.7 1.4 1.7-3-1.8-2.6-3.6h-1.9v2.7l2.3 2 2.2 2 2.4.8 2.4.7-.7-1.7-.6-1.8 1.3 1.2 1.4 1.1 3.2-1.1 3.1-1.1v-2.3l-3-2-2.8-2v-1.6l.2-1.5 7.6-7.7-2 5.2 2.8-.6 2.7-.5-3.8 3-1.6-1-2 1.3-2.1 1.3v1.6l2-.6 2-.7 13-.7 1 1.8-2.1.6-2.1.7h-5.5l-5.4-.1.3 1.1.4 1.2 3.2 1.5 3.2 1.6v1.2h-6.3l-2.4 3.2-2-.5-2-.6-1.8 1.8-1.7 1.8-8.2-2.2-.8.4-.8.5v14.9l1.8.5 1.8.6 5.9 5.5 8 5.9 25.3 25.8 1.1-.6 1.1-.7v3.1h3.1l-1.3 1.3-1.2 1.4-25.1-24.8-1.5-1.3-1.5-1.2-9-6.8-1-1.2-3.2-2.2-3.1-2.2h-1.5l1.1 22.5-1-4-.9-4-.6-16-.8-1.7-.7-1.8h-3.6l-8.4-8h-1.8v-2h1.5l5 4.6 6.6 4.6 1.4-.6 1.5-.5v-12.2l-3.2-3.2.7-3.5.6-3.5-2.3.7-2.3.6h-10.5v2.9l-1.9-.2-1.9-.1.4-1 .4-1.2h-4v2l-1.6 1.8-1.7 1.8 1.8.7 1.8.6 3-1.6 3-1.7-1.4 5.2 1 1.2 1.1 1.3-8.2.6-8.2.7-2-2h-3.1l.3-4.5.4-4.5h-2.7l-5 15.3-4.8 15.2-1 1.2-1 1.3-2.7 5.9-2.8 5.9-2 1.2 9.5-20.5 5.3-15.5v-2.8l1.5-2.8 1.4-2.9-1.7-1.7-2 1.4-2.2 1.3-.5 1.6-.6 1.6-4 3.6-.6-.6-.6-.7 3.4-3.8-1.3-.6-1.3-.5 3.8.4.4-1.3.5-1.2h-5.8l-1.8 1.3-1.7 1.3-1 4-.9 3.9v2.5h2.9l1.2-4h1.9l-.3 1.3-.2 1.2-3.2 2.4-3.5 7.3 1.2 4.8-1 1.9-1 1.8-1.2 14.6 7.7 6.9 16.8 12.8h-3.3v-2h-3.1l-2.1-2-2.2-2h-2.6v-2.8l-3-1-3-1.1v-2.9l-1.7-.6-1.7-.7-1 1.8-1.1 1.8-.6 2-.5 2 .4 17.6-1.3-1.8-1.3-2 1.4-20.8-2-2.7-2.1-2.7h-1.3l-1.2-.1.3-1.2.2-1.2-2.8-1.3-2.7-1.4v-2.4l-2.1-1.3-2.1-1.4-2.2 2.2h-2.6v-2.6l-2.6-3.2-2.7-3.2h-3.7l.6-4.5-1.7.1-1.6.2 1-2.8h-1.8l-3.5-5.5-3.4-5.6-2 .3-2.1.3-.3-2.3-.4-2.3-2 .7-2 .6-10.3 1.6-2.5.6-2.5.7h-3l-3 .2-1.2 1-1.2.9-.9-.6-.8-.5-3.3 2-3.2 2 .5 2.7.6 2.7v8l.2 8 1 9.3 6.6 1.2 2.8 4.3 2.9 4.2v17.4h1l3.2-3.8 3.2-3.7 3-3.6 3.1-3.7v-3.2h1.8l.6 1.5.5 1.5-4 12.4.2 1.6.2 1.5-1.2 3-1.2 2.8 1.8 1.8 11.6.6 2.3-.5 2.3-.4 4.2-7.2-.8-3.2 1.4-1.2 1.3-1.3v2.1h2.1l-.6-1-.7-1 2.6-2.1 2.6-2 3.2-6.1.9 1.3.9 1.4v6l-1.5 3-1.3 3-.2-5.5h-1.1l-1.3 1.3-1.3 1.2-1.1 2.2-1.2 2.2v1.2l1.3-.7 1.2-.8-1.3 1.6-1.2 1.6-6 1.2v2l3 1.2v2l-3.2-1.2-7.6 8h-2l-2.5 6.2-4.8 1.8h-.8l-1.5-1.6-1.6-1.5v-1.9l3.5.5 3.5.4v-1.8l3-1.7 3-1.8 1.8-5.2h-6.3l-.8 1-.7 1.1-.9-1.4-.8-1.3-1.6 2.4-1.6-2.6-.6.5-.6.6-.8 4.4-.9 4.4v-4l-.2-4-3.6-2.2-3.2-.8-3.3-.7-1.4 1.2-1.5 1.2v3.8h-1.7l-3.9 5.8-3.9 5.7-2.6 5-2.7 2.7zm27.6-24.1 1.9-1v-5.6l.9-1 .9-.9.6-4.5.7-4.5-4 5-2.2 2.4-2.2 2.3 2.8 1.8h-3.2l-3.4 3.8 2.3 1.6 2.2 1.6h.7zm35.9-15v-1h-2v2h2zm23.8-27.3.3-5.2 1-3.4.8-3.5-.4-.5-.5-.5-2.9 3.9v-.7l-.1-.7 4-6.8 1.2-13.5-2.4.7-2.3.7h-2.8l-1.9-.2.7-3 .7-3.1-12.3 1.1-2 1.3-2 1.2-2.8-1.7-3-1.6-.6 2.1-.6 2.2-.6-1.3-.5-1.2h-2.8v1.6l-1.4 2-1.4 1.9.5-2.7.5-2.6-2.6-1.6-.8 2.4h-2.8v3.6l3.1 3.9.6-1.4.5-1.3.8 1.2.8 1.3 5.4-5.8-3.2 5-1 2-1.1 2 4.9 5 5 5 18.3 15.6 2-.6 1.9-.6v3.1h1.5zm-3.6-1.7v-2.5l.5 1.3.5 1.2-.5 1.3-.5 1.2zm.4-3.8-.5-.8 1-1.4.9-1.5v4.5h-.9zm-16.6.8v-1h-2v2h2zm57-26h1.4l-2.5-2.5-.9 1.5-.9 1.4-3.8-3.4h-2.3v2.5l.8 1.1.7 1.2 2 .4 2 .5 1.1-1.4 1.1-1.3h1.4zm-35-1.8 2.3-1.9-.7-1.1-.7-1.2h-5.9l-1.2 4 1.2 2h2.7zm66-1v-.7l-1.2-4.5h-2l-1.5 1.5-1.5 1.6.3.2.4.2 4 2.4h.7l.8.1zm-32-2v-.4l-1.5.6-1.6.6.3-1.7.3-1.6-1.3-.4-1.2-.5v2.8l2.2 2.2 2.8-1zm1-2.2v-1h-2v2h2zm-27.5-2.2 2.5-1.1v-1.7h-6v4h.9zm8.3-2 .3-1.8h-2l-2.3 4.2 1.9-.4 1.8-.3zm10.5 1.5.7-.6 5.8.1 5.7.2 1.3-.8 1.3-.9-2-8.8 2.9 3.9v-1.5l2.8 2.6-1 1.1-.8 1.1 1.3 1.1 1.4 1.2 7.6-.3 7.7-.2v-2.7l-4-1v-2l2.2.4 2.3.3.3-2.6.3-2.5-3.2-2.5-3.2-2.4-1.3-1.3-1.3-1.2h-2.9l-1-4h1l10 8h2.5l1.4-21.9 1-3.3.9-3.3v-7.4l1.8-4.6 1.2-15.6 1.8-3.4.7-7.3.7-7.2h-1.3l-5 5-3.7 1.8-3.7 1.7h-3.8l-1-2-1.2-2-1-.7-1-.8h-6.6l-.5-1.5-.6-1.5h-2.8v-2h-2.3l-1.9 1.6-1.8 1.7 1.8 1.4 1.7 1.4-2.3-.6-2.2-.6-.5 1.4-.6 1.4 2 5 3.6 1 6-1.6 5.8-5.4-.5 1.4-.4 1.4-9.7 6.5-4.2-1.2-1.3-1-1.2-1v-3.9l-1.5-.5-1.6-.6 2.2-2.6-1.6-1-7 .6-1.3-1-1.2-1v4l-2.8-.6-2.7-.5-.8-1.3-.7-1.3-8.2 8.9.6.7.6.6v-2.3l3.4 2.2 3.4 2.3-1 1.6-2.4-1.5-2.3-1.6h-2.2l1.8 32.5-2.2 41 3.5-.2 2.4-.2 2.5-.1 6.5-6.5-1.7 2-1.7 2.2v2.3h5.9l4.2-6h3.2l-4.6 5h8.6l-1.4 1.4-2.7.2-2.7.1-1.3.2-1.2.1v4h1.7zm9-5 1.7-.5 1.3.5 1.2.5h-6zm14.7-.3-1.5-1h4.6l-1.2 2h-.4zm-19.9-8.3 1-2.4 3-1.7 3-1.8 1.2 1 1.1 1.2h-3.4v1.6l1.3 1.3 1.2 1.3-2.4-1.2-2.5-1.3-1.4 2.2-1.4 2.1h-1.8zm-5.2-4.5 4.1-4.8v-2.4h3v.8l-3 5.7v3.6l-1.2.3-1.3.4-2.8.7-2.9.6zm20.8-7.6-.6-1.5 1.5.6 1.4.5v1.8h-1.8zm-4.9-5.6-3.1-3 .5-.5.4-.5 6.8 7h-1.4zm-6.8-8-3-3v-1.4l-2.2-2.3-2.1-2.3h.9l.9.1 4.8 6 4.8 5.9h-1zm-9.3-11.7-.7-.6v-2.1l2.4 2.4-.6.5-.5.5zm-11-18-.7-.6v-2.1l2.4 2.4-.6.5-.5.5zm2.1-8 1.3-.5 1.2 1.2h-1.9l-1.9-.2zm5.7-2.3.6-1h3.4l-3 2h-1.6zm16.5-7v-1h3.1l-1.2 2h-1.9zm-17 85-1.5-1h-2.6l.5.8.4.8 2.4.1 2.3.2-1.5-1zm50.3-3.5.2-1-1.8-.3-1.7-.3v3.2l3.1-.6zm-6.3-4v-1.6l-2 1.2.5 1 .6.9h.9zm20.5-12.5.6-1h-3.1l1.2 2h.8zm-11-42.6 1.6-.6 2.9-5.8.8-6.1-3.6-9.3-1-.3-.8-.3-1.2 5-1.2 5.2v3.8h1.8l.5-1.3.5-1.2.2 2.5-4 3.4v4.2l.7.7.6.7h.5zm73.8-18 1.8-.7-.5-1.3-.5-1.4h4l1.5-1.4 1.4-1.5v-1.3l-7.4 1.4-2.1 2.7-1.8-3.7-1.7-3.7 1.4 1.9 1.5 1.9 3.6-1.6h4l4-.2 1.8-1 1.7-1 1.9-3.8 1.9-3.7-.7-.4-.6-.4-5.5 1v3.8h-1.8l-1-4h-7.2l-1.2 2-2.4-.6-2.3-.6-.7 3.4-.8 3.3-1.3 2-1.4 2v1.4l3.1 3.6 3.2 3.6 1-.6 1.2-.5zm-23.8-3.9v-3h-5.2l-5.2-.1-1.4-1.4h4l2.4-2.8 3 1.1 3 1.2 2-3-.6-4-3.5-.5-3.5-.6 6.6-1.6-1.2-3.2 2.1 2 2.2 1.8 2-2.4 2-2.5-.7 2.4-.7 2.3 8.7-1.4.4-1 .3-1 .8 1.1.7 1.2 27.2-2 2.4-1.4-5.3-2.8v-6l14.6-14.4 2.5-1.1 2.4-1.2 2.8-1 2.8-1.2-.5-.9-.5-.8 4.9-4.3h1.8l3.3-3.8 3.4-3.8 8.4-3.4 2.3.9 2.2.8-3 1.6-2.9 1.6-3.3 1.6-3.2 1.5v2h-4.7l-2.1 1.9-2.2 1.8v1.3l-9.2 8.5-6.4 4-6.4 6.6v5.9h2.9l.6 4.5 8.5-.1 8.5-.2h5.3l5.2-.1v-1.7l-2.4-2.4h1.9l2 1.5 1.8 1.5 27.2-1.1 4-1.2.8-1 .9-1.2.5 1.2.5 1.3h1.5v-5l7.1-6.5-29.8-29.5h-2l-1.5-1.4-1.4-1.5v-1.9l-2.8-1.7-2.7-1.7-5-4.8-7-5.7-7-5.8-2.5-2.2-2.5-2.3h-2.3l-3.2 1.2.6 1 .5.8-2.9 1.7-3 1.7-4.5 6.7-1.3-.5-1.2-.5-2.7 2.5-2.6 2.4h-2v2h-3v1.5l-5 4-5.2 4-2.1 1.8-2.2 1.8-3.3 3-3.2 3.2v1.5l-4.5 1.9-4.5 1.8-.5 1.7-.6 1.6-2.7 1.8-2.7 1.7-4 4.4-1.9.7-1.8.6.4 2.5.5 2.5-1-.9-1.2-.9-2.2.9-2.3.8.6 1.6.6 1.5-3.2-1.2v2.2h-3v2h-3v2l-8.5 8h-1.5l.4-5.5 4-3.9 4.1-3.8 11.5-10-.6-1-.5-.8 2.6 1 5.4-5 3.7-2.5 3.6-2.5 10-9 1 .6 1.1.7-.7-1-.6-1.1 3.2-2.4 3.3-2.3 6-4.8 6-4.9 1.7-.6 1.6-.7 11.4-10 12.5-8.2 1.8-1.3-4.4-3.2-5.2-4.8h-3.6l-4.3 10.3-.6-.5-.5-.6 2.4-8.2h1.7v-2.1l-1.3-1.2-1.2-1.2-4.4-3.8-4.5-3.7h-1.4l-1.2 3-1.3 3-.4-.4-.5-.4 1.2-2.2 1.2-2.3-2.4-1.4.4-.7.3-.8-3.2-1.3-3.1-1.3-3.3 1.6-3.2 1.7-.8 2.3-.9 2.3 2 .7 2 .8-3.3 1.2-3.4 1.2-1.2 2.3-1.1 2.2.6-2.2.5-2.3h-2.4l-7.2 6.8-7.8 7.2h-2l-1.8 2.2-1.9 2.1v1.7h-3.1l-3.1 2.5-3 2.8-3 2.7h-1.8v2l-3.4 4h-2.8l.5 1.9.4 1.8-3.2-.8-9.5 7.4v1.7h-4.2l-1 3.7-2.9 2.2-2.9 2.1-2.5 1-2.6 1 1.2 2h-4.1v2.3l-3.3 3.7h-4.9l.6 1.5.5 1.5h-2.4l-1.3 2-1.2 2h-3v3.1l-1.8-.3-1.7-.3.6 2.8-2.1-.6-2.2-.6 1.2 3-4-.6-1.3 2.5-1.2 2.5-2.3 1-2.2 1v1.4l-5.3 3.6-5.2 3.5.1.8.1.7-3 1.8-2.8 1.8.6 4.4 3-.5 3-.4h6.5v-1.6h6.1l3.7-8.2 1.4 2.4-2.2 2.2v2.7l9.7-1.2 8.8-1.4 2-6.4.9-.8.8-.8-.4 4-.3 4 2.5-.2 2.5-.1 6-.6 6-.5 2.6-3.6 1.4-5 1.5-4.9v-2.6h2.2l-1-2.6 1.2-4.5 1.3-4.4 1-2.5 1.2-2.5v3l.1 3.1-2 2-.2 4.2-.1 4.2h-1.7v2.5l3 5.8-.5.6-.6.5-.9-1.3-.8-1.4-1.5 2.9-1.4 2.9-.7 2-.6 2 5.5-.3 5.5-.4v-4.3l1.5 2.5 1.4 2.5v-1l.1-1 5.2-.2 5.3-.1 2.7-.5 2.8-.4.7-.6.6-.7 1.4 1.2 1.4 1.1 4-.1 3.9-.2v2l-5.5.2-.9-.1-.8-.2-2 .6-2 .7 1 1.1 1 1.2 1 4.5-.9.6-.9.5v4.8l3.1.9 3.2.8 4.6-.6 4.6-.5zm-87.5-15.3v-.7l1.5-2 1.5-1.9 2 2-1.2 3.4h-3.8zm99.5-4.3-3-.7.5-.2.5-.1 2.2-.5 2.2-.4.6 1 .7 1.1-.3.3-.4.2zm-15-2.4-1.5-2.5h1.7l1.1 2.5 1.2 2.5h-.8zm76.5-2.3v-1l1-.7 1.1-.7.9.9-1.5 1.3-1.5 1.2zm-79.7-2.5-1-1.2-1.6-2.8 1.1.7 1.2.7 1 2 1 1.9h-.8zm-10.7-17-1.4-2.2-2.7-4.4-2.7-4.3 2 1.2 7.1 12h-.9zm-22-6.2.6-5 1.5-3.8 1.6-3.8.4.5.5.5-2.2 6.6-3 10zm40.4-34.4v-2l1.2-.7 1.1-.7-.5 2-.6 2.2 1.7.4 1.6.5h-2.3l-2.2.2zm2-5v-1l2-1.2v2l-2 1.2zm2-3.6v-1l1.5-2.5 1.4-2.5v2l-2.8 5zm20.7-4 .6-5 1.6-5-1.2 11-.8 2-.9 2zm-87.2 98.1 1.5-1.4 1-.4 1.1-.3-2-5v1.7l-.1 1.7-2 1.2-1-.6-1.1-.7 1.7-1.3 1.8-1.3-1.1-2.3-1.2-2.4v1.9l-.1 1.8-3.2-1.2 1.4 6h-6.2v2.6l1.2 1.3 1.3 1.2 2.8-.5 2.8-.6zm43.3-1.8-.4-1.2-2.4-.8v3.2h3.2zm-55.1-5 .3-2.3-1.8 2.8-7.2-1.4-2.2 1.4 1.3.8 1.4.9h5.5v2.4l2.4-2.4zm52.3 0 1.8-2.3-.5-.7-.4-.8-2 1-1.9 1v4h1.2zm-31 .2v-.8l-1.3-1-1.2-1-5.5-1.2v1l1.1 1.8 1.2 1.9h5.7zm23 .1 1.5-.1-5-4h-3l-1.4 1-1.4.8 1.2 3 3.3-.2 3.3-.3zm37-.4v-1.4l-3.7-3.3-.6.7-.7.6v4.7h5zm-48-1.1v-1.6l-1-.6-1.1-.7-3.5.6-3.4.7v2.9h9zm54-1.1v-2.5h2.2l-2.4-3h-6.5l-1.2 1.2 1.6 3.4 1.7 3.4h4.6zm-39-1v-1.5h-3v3h3zm75.4-4 .6-1.7v-.8h-2.9l-1.2 2 1.2 2h1.7zm-170-1 .5-1.5h-2.9v3h1.8zm171-4.3.5-.8-.9-1.3-.8-1.4-1 .7-1.2.7v2.9h2.9zm75.6-5 1.5-.5 3.3.2 3.2.3v-1.6l-5.4-5.6h-1.6l-1.5 1.4-1.4 1.4-2.6 2-2.6 2.1 1.2 2 2.3-.6 2.2-.5zm-79.2-2.7.3-3-4.8 5 .4.8.5.8 1.6-.3 1.7-.3zm-168.3-73.5-.5-1-1 .6-1.1.6 1.3.9 1.3.8.8-.8zm191.3.3-.3-.9-1.3-.1-1.2-.2v1.6l1.3.5 1.2.4.3-.3.4-.2zm-58.8-9.8 1.2-1.5h-2l-2.4 3h2zm-112.3 301.8 1.3-.5 1.3.5 1.2.5h-5zm-95.5-5-1-2.8-.8-2.5-.6-2.5 1 1 1.6 4.5 1.5 4.4-.3.3-.3.4zm92.3 1.7.6-1 1.4.7 1.5.5v.8h-4.1zm-24-6.3-.7-6.7h-1.3l-5.4 2.8-.3-.6-.3-.7-3.8-1.8-3.8-1.7h-2.9v-2h2.1l-.6-1-.6-.9-3.9.2-4 .1-4 9.1 1.2-8.8-2 .6-2.2.5v-1.8h3.9l.7-1.2.7-1.1.6-3 .7-3 4.2-.3 4.2-.2v1.8h-3.8l-4.4 3.6 3 3 7.4-.8 1-2.8h3.7l.6-1 .5-.9 3.2 1 3.1.9 1.4-1.1 1.3-1.1 3 1 3.2 1.2 1.8-1 1.9-1 .4.7.5.8 16-1 .9-.8.8-.9-.4-9.8h1.5l6.8-14.5 11.2-11.5h2.4v4h-2.5l-5 4.6-3.8 4.6-3.7 4.6v1.7l-4 8v1.8l1.8 1.3 1.7 1.3 5.4-6.4v3l-1.3 2.6-1.4 2.7.8 1.2.8 1.3 8.7-.4 24-2.5-.3-3-.2-2.9 1.5 2.8 1.6 2.8.7-.5.7-.4 20-1.2 8-1 8-1.1h2.8l2.7.1v-1.6l-2.2-2.2 1-.6 1.1-.7 1 2 1 1.8h5.6l1.8-1.5 1.7-1.5.7.6.6.7h-2.3v2h4v-1.8l2.5-.4 2.5-.5v2.3l14.5-1.4 19 .3 19 .2 3.7.2 3.7.1-.5 1.5-.6 1.5h2.2l1.1-2.7 1.1-2.8.4 1 .5 1.2 28.1-.6.5-.4.4-.5-3.2-3.2h1.9l1.5 2.4 1.6 2.3 2.4-.4 2.5-.5.5-2 .6-2 2 1.2 1.2-2h2.9l1 2.3.8 2.4 21.7 1.4 1.8 1.8-.6 1.6-.7 1.6-2.4-1.7-2.5-1.6-4 .7-3.9.6-.6-.9-.6-1-2.6.6-2.7.5-.4 1.8-.5 1.8-1.8-1.1-1.8-1.2.4-1.1.5-1.2h-1.8l-1.8-.1-4.4 2-.7 3.1-.6 3-2.7 2.7h-2.5l1.7-1.3 1.7-1.2 1.8-6.2-.7-1.2-.8-1.2-2.4.9-2.4.8-12.6-.4-.6 1.4-.5 1.4h-4.8v-2h-10v-2.3l-1.5 1.5-.2 1.8-.2 1.2-.1 1.2-2.4-2.4h-4.8l.6-1.5.5-1.5h-1.2l-1 1.4-1.2 1.4-26 1 2.3-.5 2.2-.4v-1.9h-4l-4 .1v2l1.5-.6 1.5-.5v2.9h-4.5l-1 .8-1 .7-2 3-2.1 3-1 2-.8 2-.4-3.2-.3-3.2-5.2.5-5.2.4 2-1 2-.9h4.1l4.2-.1.6-1.5.6-1.6-1.7-.6-1.6-.6-4.1 1.2-4.1 1.3-11 .3-1.2.8-1.2.7-1.2-2h-2l1.2 2h-1.7l-2.4-2.4v3.5l-2.2-.7-2.3-.7-3-.2-1.1-1-1.2-1 2-.8 2.1-.8-2.1-2.1-13.7 2.3-22.6 1.6-2.3 2.3h12.4v1.8l-10.8-.6-2 4.6 1 4.2-3-1.2.5-3.4.6-3.4h-1.3l-2.5 1-2.5.9-.3-1-.4-1-3.6.6-3.6.7-1.3 3-1.3 3.1-.6-1.9-.7-1.9.5-1.4.5-1.3-4.4 1.4-2.4-1.6-2.5-1.6v2.1l-2.3-.1-2.2-.2-2 .4-5.6-.4-2.8 2.4-1.2-.8-1.2-.7.6 1 .7 1-1.5.7-1.5.6-1 2.2-.9 2.3v-1.7l-.1-1.7 2-1.2-.8-1.4h-3l-2.9.2-1.2.7-1.2.8-1.5-1.3-1.5-1.2-1.2 1.3-1.2 1.2 1.2.5 1.3.5v1.8h-1.9l-.6-2-.6-1.8-2.4.4-1.2.7-1.1.7-.4-.8-.3-.9-2.8-.7-2.7-.6v2.1l1-.6.9-.5 1.2 2h-4.2l.5 5.2.5 5.3 1.4 3.4-1 1.7-1 1.8-.7-6.7zm-7.1-8.4.7-.7h2.2l2.2-.1.3-2.9.4-3-1.8 1.8-1.7 1.8-5.6-.8-.5 1.2-.4 1.2 2.2 2.2h1.3zm73.6-10.3v-1h-2.9l-1.2 2h4.1zm6 0 1.4-.9-.6-.7-.7-.6-2.6.6-2.6.7.6 1 .6.9h2.4zm-36-.9v-.9l-3.2-1.2h-.8v3h4zm-5.5-2.1.6-1h-2.1v2h.9zm100-1.4 8-.5 1-.4h6.4l6.4-.2.5-1.4.4-1.3-15.8.7-15.9.8h-2.2l-2.1.2-1.6 1.6 1.4 1 1.5.8 2-.4 2-.5zm46.5-3.7v-.9h-4.9l-.5.9-.5.8.5.5.4.5 2.5-.5 2.5-.4zm4.2-.1-1.2-1.2-2.4 2.4h4.8zm60.8-3.8v-1h-1.9l-1.2 2h3.1zm-185.3 35.6-1.7-1.3v-2.8l1 1.8 1.1 1.7h2.9v2h-1.5zm7-2.3-.7-.6v-2.1l2.4 2.4-.6.5-.5.5zm-39.6-2.9v-1.9l.6 1.3.5 1.3-1.2 1.2v-1.9zm-60.1.2v-.4l1.6-.6 1.5-.6-1.2 2h-1.9zm112-.3v-1l1.3-1 1.2-1 4.5-1.4v2.1h-3.3l-3.7 3.3zm80-.2v-1l2-1.2v2l-2 1.2zm-256.5-1.1-.6-1h2.1v2h-.9zm159 0-.7-1.2-3.6 1-.5-2.4-.4-2.4.4-.4.5-.4 1.6 1.7 1.7 1.7 1.4 1.7 1.3 1.7h-1.1zm-163.3-1.7-1.2-.5.5-.8.6-1 1.4.7 1.5.5v1.8h-.8l-.7-.2zm139.3-.3.6-1h.9v2h-2.1zm54-3.5.2-4 2-4.5 2.2-4.5v1.8l.1 1.8-1.2 2.2-1.1 2.2-2.6 9 .3-4zm15 1.5-.6-1h2.1v2h-.9zm23-2.4-3.5-3.6v-1.1l2 1 1.9 1.1 1.2 2h5l-.6 3.3-1.3.5-1.2.4zm20.5.7v-2.6l.7.7.7.6.1 2 .2 2h-1.7zm-30.2-.6-.6-2.9 2 2-.4 1.8-.4 1.9zm45.2.5v-2l3-2.4v-3.5l-2.3-1-2.2-1.2h2.8l2.7-.1v4.1l1 2 1.2 2-4.2-1.2v4l-2 1.2zm-270.3.2-.7-.7v-4.1l3.4 3.4-2 2zm318.3-.2v-.9l4-3.6v1.4l-1 2-1 1.9h-2zm55.2-2.2v-2.5l.5 1.3.5 1.2-.5 1.3-.5 1.2zm-33-1.2-1.2-1.2v-4l2.4 2.4h4.1l2-1.5 1.9-1.5h2.1l-1.8 1-1.7 1.1v2.4l-2.7 1.2-2.7 1.3h-1.2zm-131.7-.9-.7-1 1-1 .5 1.6.6 1.5h-.8zm-56.5-.3v-.4l1.3-.5 1.4-.5 2.8 1.8h-5.5zm160.4-1.1 2-1.5h1.8l-2.4 3h-3.3l2-1.5zm9.7-1v-2l.6 1.3.5 1.3-1.2 1.2v-1.9zm41-.8-.1-2.7h2v2.5l-2 3v-2.8zm30.9-2-1.4-3.7h-3.4l-2 2.8-2.1 2.7v-2l7.2-8-1.7-.3-1.6-.3v-1.7l1.6-.6 1.5-.6 2.7 1.5 2.7 1.4h-2.2l-2.3.1v3.7l1.6 3.2 1.6 3.1-.5 1.3-.4 1.2zm-108 1.3v-1h3.9l1.2 2h-5.1zm-4.2-.7 1.3-.5 1.2 1.2h-1.9l-1.9-.2zm-73.6-1.9-1.2-1.3v-1.1h3.8l3.7.2-3 1-1 1.3-1 1.2zm106.8.7v-1l2-1.2v2l-2 1.2zm-253-2v-.9l1.4-.5 1.4-.6 2.9 1 2.8.9-3.3-.3-3.2-.4v1.7h-2zm153.6 0-.8-1.2 1.2-1.2 1.2 1.2-.4 1.2-.4 1.3zm106-.8-.6-.6v-2.1l2.4 2.4-.5.5-.6.5zm100.2-.4-.4-1.3h-4.5l-4.4-.1-1.3-.8-1.2-.8v-2.6l4.4.2 3.5-7.3 1-.6.8-.5-.5 2.4-.4 2.5h-2.2l2.3 2.3 2.4-1.6 2.3-1.5 1.1 1.7 1 1.7-.8 1.6-.9 1.6 1.5 1.2 1.4 1.2 3.3-.4 3.3-.3 1 2-12.3.6zm1.2-2.8v-1l-.6-1.5-.6-1.6-2.7.6-2.6.7-1 .8-.8.8 4.8 2h1.8l1.7.1v-1zm-326.8.9-1.2-2h-3.6l-2.4 2.4v-2l1.9-1.8 1.8-1.6 1.6.6 1.7.6 2.8 5.8h-1.3zm310.8-2v-1h2.1l-1.2 2h-.9zm-376-1-.2-1.5-.6-4-1.2-3.5-1.1-3.5v-5l.9 1.5.8 1.5 2.6 14.5-.6.7-.7.6zm352.6-.5-2-1.5h3.2l.6 1.5.5 1.5h-.4l-2-1.5zm-220.1-.5.6-1h5.9v2h-7.1zm213.5-1-1.4-.9 1.6-.6 1.7-.7 1 .7 1.1.6v1.9h-2.5zm53-.2v-.8h.3l.2-.1 7.5-1 7.5-.8 28-4h1.8l1.7-.1v3h-13v1.5l-15.4.6-1.3 1-1.3 1.1-4.9-1.2-.5.9-.6.8h-5l-5-.1zm-184.2-3 1-1 2.6.8-2.3.7-2.4.6zm60.6-3.3.7-3 1.1-1 1-1-.6 3-.7 3-1.1 1-1 1zm15.6 1v-.5l1.2-1.9 1.1-1.9-3.9-3.3-3.9-3.4-14.8-14-4.2-2.4h1.5l1.5-.1 10 8.2 10.6 10.9 3.4 1.5 3.5 1.4v1.6l-5 4.4h-1zm159.7-1.2-.7-.6v-1.7h4.9l1.2-2-3.3-.8-3.3-.9-2.7.8-2.6.7-22.4 2.5-1.6-1.7-1.6-1.6 2.7-2.5-1.6 2.8 15.8-1.6 2.5.2 2.5.1 2.5-1 2.5-.8 2.5-.6 2.5-.5v-6.8l.1-6.8 1.9-6.3 1.8-6.3.4.5.4.4-3.2 13 .6 11.7 5.6.6 1.2-1 1.2-.9 7.4-1.1 7.3-1.2 2 .6 1.8.6v-1.6l4.5-.3 4.5-.2 12.5-3 14.6-.7-.4 1-.4 1.2-6.4.7-6.4.6-5.5 1.2-5.5 1.1-4.3.4-4.4.5-3.1.4-3.2.5-4.3 1-4.2 1.1-3.6.5-3.7.4-.5.6-.5.5h6.4l-1.2 2h-4.9l-1.3 1.3-1.4 1.2-2.2 1.3-2.2 1.2h-.7l-.6-.7zm-329.9-1.8-.6-.6 4-8 .4.3.4.5-1.1 3.4-1.2 3.4-.7.8-.6.7zm23.3-2v-2l.6 1.3.5 1.3-1.2 1.2v-1.9zm196 0v-2l.6 1.3.5 1.3-1.2 1.2v-1.9zm13.7-.4-1.7-.6-3.6-3.3-3.5-3.4v-3.1l4 3.6.6 1.9.6 2 1.3-.6 1.3-.5 1.7 1.3 1.8 1.3-.8 2zm8.2-.1v-1h1.9l1.2 2h-3.1zm594-.5v-1.6l3.2-1.2.8 1.4.9 1.3-1 1.6h-3.9zm-587-.5v-1h2v2h-2zm573 0-1.3-.8.7-1.7.6-1.7 2.3.7 2.2.8 3 .2 3 .3h1.3l1.4.2-.4 1.3-.5 1.2-5.5.1-5.5.2zm-798.8-3.5v-3l.5 1.8.5 1.7-.5 1.3-.5 1.2zm248.8 1.8v-.8l7.4-8-1.6 2.5-2.9 4.8-1.4 2.2h-1.5v-.8zm540.3 0-1.3-.5v-2l2.8.4 2.7.3-.4 2-2.6.4zm-11.3-1.2-1.5-.8-20-2.8-2-.2-.8-.2-.7-.1v-1.9l7.3.5 7.2.6 18.6 3.3.4 2-3.5.2-3.5.3zm-581.6-13.8v-9.1l.8.4.8.5v4.2l-.1 4.2-1.6 9v-9.2zm77 7-1.7-1.8 4.1-1 11.2-14.6 10.8-22.4 4.5-12.9-1.3-.4-1.3-.5 4.8-2.6-3.6-1.4 4.6-2.2 1.2-4.5 1.1-4.5.2 9.3 10-.4.3-.5.4-.4 5.8-8 1-1 3.5-5.5h2.5l1.8-3 1.7-3.2v-2.8h2.5l2.8-4.5 2.7-4.6v-1l3-3.2 2.9-3-.5-.9-.5-.7-10.4 1.2h-2l-1.7-.8-1.8-.7v2.2h2.6l2 1.4 1.9 1.4-1.1 1.1-4.9-2.4-4.8-2.5h-3.5l-1.2-1.4-1.2-1.5h25.8l2.5-1 2.6-1 1.6-3.3 1.7-3.3 1.4-1.7 1.3-1.8h1.3v10.3l10.5-1.4 3.2-2 3.3-2v-3.3l2.5 2.5v3.3l11-.6 2-1.2 3.2.2 3.3.3 8.6-1.1 8.7-1 2.9-1.6 2.9-1.5 1.2-3 1.1 2.3 1.2 2.3 13.9-.6 3.3-.9 3.2-.8-.5.9-.6.9h2.1l3.8-2.3 3.7-2.4 5.3-1.7 5.3-1.8 6.4.4 6.5.3 2.6-5 3-5 2.8-5 .6-.5.5-.5 6.5-10-1.8-1.4-1.7-1.4 3.4 1.2 1.6-1.5 1.5-1.6 1-2 1.1-1.9-4.8 1.2-.6-1.5-.6-1.6h7.8l7.5-8h1.7l-.8 9.5-6 4-6.1 4-16.3 24.6.6 3.4 5.5.6v-2.1l27.7-26.1 4-2.7 4.1-2.6 7-7 1.3-1 1.4-1 2.7-1.7 2.6-1.7.7-2 .6-2 8.7-5.1 8.6-8h1.6v-2.1l1.4-1.5 1.5-1.4h2.1v-2.7l-4.2-2.8-4.3-2.8-3-2.6-5.2-4.6-2-1.3-1.8-1.2-2.5-1.2-2.5-1.3-1-1-3.7-2.8-3.7-2.7h-1.9l-.6-1.5-.5-1.5h-3.7l-12.8 13h-2.2l-1.2 2.5-1.2 2.6v.9h3.6l1.3-1.2 1.2-1.3-.6 1.8-.7 1.7h1.7l2.8-1.8-.7-1-.7-1.2h3.1v2.7l-3.7 3.3h-4.9l-2.5 2.5-.9-1.5-.9-1.4-5.1 5.5-2.4-.7-2.4-.6-2.2 4 1.8 1.2-10 10h-2.8v1.9l-4 1.2v2.9h-2.5l-2.8 2.5-2.7 2.6v2.9h-2v2.8l-1.5.6-1.5.5v1.9l10.5-1 3.8.1 3.7.2 2.1-1.2 2-1 1.4 1.7 1.2 1.8-1 1.1-1.2 1.2-2.4-3.2-2.4 2.4-1.7-1-1.8-.8-13.5 1.2-3.7 3.7v1.9l3.2 3.2 3.8-1.2-.6 1.5-.6 1.6 1.7 2.6 1.7 2.7-1.3.8-1.4.9h-1.3l-2.4-3h3.5l-2.9-3-2.9-2.8-1.2 1-1.3 1v-6l-1.3-1-1.4-1.2-4.1 1.8-4.2 1.7v2.3l-3 2.4v-6.3h-5.5l3-2 1.6.6 1.7.5.5-1.5.6-1.5-1.2-.4-1.2-.5 2.3-2.3 2.3-2.4.9 1.5.9 1.4.8-.7.7-.8-2-1.4-.7-1.7-.6-1.8h-5.2l.6-2 .7-2.1-15.7-15.4-14-11.3-3.4-3-3.5-3.2h-2.4l-.6-1.5-.5-1.5h-2.8l-8.6-8 .8-.8 6 4.3 6 4.4 13.4 8.6v1l.1 1 8 5.9 9.1 9.3 9.2 9.3 2.4-.6 2.5-.7-1.2 2.3-1.2 2.2 2.1 2.1 3.1-2.5v-2.8h-2.5l3.5-2.7v-1.5l-1.6.6-1.5.6.6-1 .7-1 1.9.5 1.9.6v-2.5l2.5 2.5-1.7 1-1.8 1v3.1l-2 2.9-2.1 2.9 1.2 2h2.9v-3.3l3.6-3.3 3.5-3.4h3.9v-2.9l2-1.1 2-1 1.2.6 1.1.7-.5-1.4-.6-1.5 1.7-2 1.6-2 1.8-.7 1.7-.6v-3.8l6-1.2v-2.6l10.9-7 .6-2.2.5-2.2 2-.6 1.9-.6.6-2 .6-1.9h3.7l2.4-3h2.8v-2.5l5-4 5-3.8-1.2-1.4-1-1.4-4.5-3-4.4-2.9h-2.4l-4.8-4.4-4.7-4.4v-2.2h2v1.6l3 1.7 3 1.8 2-1.2v2.7l6.3 4.2 6.4 4.2h3.3v-2l5-1.2-.6-1-.5-.8h4.3l-.6-1.5-.5-1.5 3.4-.2 1-.3 1-.2 1.3-.1 1.4-.2-1.4-6 2.4-3h1.5l1 2 .8 2 2.3-2 2.2-2v-4h5.1l-.5-.8-.5-.9 6.9-2.7v-1.8l1 .7 1 .6.7-1.8.6-1.8 2.3-2.7 2.2-2.7 1.2 1.2v1.7l-3.8 3.8-3.7 3.8-1.8.7-1.7.6v2.1h-3v2.1l-5.5 5.1-4.5 3.8-4.5 3.6-2.7 2.8-2.8 2.8v1.9l-7 3.2v1.2l.8 1 .7 1 10 5 3 2.3 3 2.2 2.4 2h1.3l5.2 4.2 5.1 4.3.5.5.5.6 2.5 1.7 2.4 1.7h4.5l2-3.8 2.7-.6 2.6-.7-.5-.5-.5-.6 3.9-3.9 6.7-4 6.7-4.2 16.8-14 4.8-4.2 2.4-.8.7-1.1.8-1.1v3.7l-6 2.2-.6 1.8-.5 1.8h-1.9l-3.2 3.2-12.4 9-4.3 4.3-2.6 2-2.7 2-4.4 4.2-1.6 1-1.6.8-3.8 3.3-3.7 3.3 1.2 1.4 1.2 1.5h2l5.8-6.4v5.2l-3 2.4v1.9l7.5 7.4 7.4 7.5h1.5l3-3.4 3.2-3.4 5.2 1 1.2-2.4 1.2-2.3 6-5.6 5.8-5.6v-3.1l1.7-.8 1.8-.7 1.2.2 1.3.2v-4.1h4.9l1.2-4h3.1l-2.7 3.2-2.7 3.1-3.6 3-3.7 2.9-.9 1.6-.9 1.7-8.6 8-9 8 .5.7.5.8h-2v3l-5 2v2l3.7 4 3.8 3.8 5.5-1v-1.9l8-10.5-.6-2.4-.6-2.5 1 1.5 1 1.4 2.1-1.9 2.1-1.8.7.6.7.7 2.3-2.2 2.3-2.1v5.3h-2.9l.5 1.5.6 1.4-1.6 2.6-.4 2-.3 2-.4 7 6.6.6 6.6-4 12.7-13.6v-1l.1-1 1.6.3 1.6.2 1.3-1.5 1.2-1.5h2.8v1.5l-.8 1-.7 1.1-1.7.7-1.8.6v4.4l3-3.2 3-3.1h2v.9l-4.5 5.1-4.5 5v3l-2.3-.5-2.3-.6-2.4 2.5-2.3 2.6h-3.5l-1.1 1.4-1.2 1.4 1 .7 1.1.6-1.2 2-6.8-1.2-1.2 3-1.1-.4-1.2-.4-4.8 4 .7.6.6.6-8 4.8-.9-.5-.9-.6-.6-3.4-.7-3.4-1.5-1.3-1.6-1.3-1.8-4.6h-4.2l1 4-.9-.6-.9-.5-2.2 1.5-2.2 1.6h-4.6v2h-5.5l-1.3-2-1.2-2h.9l2.4 1.1 2.5 1.1 3.3-1.5 3.4-1.5 1.8-.6 1.7-.5v-2.2l-3.1-1-3-1.2 1.2-.8 1.4-.8-4.1-5.5-2.6-.8.7 2.3.8 2.4-3.4-2.8 1.2-5.4-15.3-13.7-2.1 3-2.2 2.9-6.2 7.8-6.3 7.7-1.2 4.8 2.5 1.7 2.5 1.6 9.5-1.6 1-2.8-1.1.7-1 .6-.7-1-.6-1h13.3l2.7-2 2.7-1.8 1.6 2.9 1.7 2.9h-2.6l-3.6 4h-2.7l-.2 3-.2 1-.1 1-1 .8-1.1.7-.7 1.8-.6 1.7h-2.9l-.6 1.5-.5 1.5h-3.1v2.1l-2-1.2v-2.9h3.7l1.8-3.4 1.9-3.4 2.3-1.1 2.3-1v-2.6l4-2.6-.5-1-.6-.9-6 3.2-10.4 2-7.5 1-2-2.6-2.1-2.6h-2.9l-1.3 1.8-1.3 1.9-7.8 8.8 1.4-5.7 2.1-2.9 2.2-2.9-.6-.6-.6-.5-8.7-.6-4.4-1.4-2.2 1.2-2.3 1.2-2 1.8-2 1.9h1.9l-4.3 2-4.2 2-.6 1.4-.5 1.4-2.5.6-2.4.6v1.7l-5.6 5.8-9.9 7.8-7.5 8v.8l1.3-.3 1.2-.2 2.3 1.2 2.2 1.3h7.8l7.7-.2 69 .4 4 2 26-.4 4.6-5.4.9-2 .8-2v3.4l-.1 3.4-1.9.5-1.8.4v2.8h3v-2.2l1.7 1.3 1.7 1.4-.7-1.1-.7-1.2 1.4-1.1 1.4-1.2 2.7 2.6 2.8 2.5h4.2l32 2.9 25 3.1 18 3 7.4.8 2 .7 2 .6 19.6 2.8 7.8 1.6-3.5 2.9-3.1-1.3-3.2-1.3-13-2-4-.3-4-.4-3.6-1.2-3.6-1.1-2 1-2.2 1.2h-1l.5-1 .6-.8-2.7-.6-2.8-.6-4.7.3-4.8.4v-2.7h-4v1.7l-2-.2-2-.1-.6-.7-.7-.7h2.4l-.6-1-.5-.9-3.2 1-3.1.9-1.1-1-1.1-.8-36.1-3.1v-.2l-13.5-.4.3 1 .4 1 6 .6 1.4 2.5 1.3 2.6 3 2.4 2.9 2.5-.6.6-.6.5-3-2.3-3-2.4-1-2.4-1.2-2.4-2.1 2.1-2.8-1v-2.8h-3.9l-1.2 2 2.3 4.2-2-.6-2-.7-2 3.6-1.2-1.2.6-1.7.6-1.6h2.8v-2h-2l.7-3 .6-3h-4.4l-2.2 1.1-2.2 1.2-4.3 4.3-4.3 4.4.6 1 .6.9-2 1-2.1 1.2v5.7l-1.4.5-1.3.5-1.4 12.1-2.2 1.4 1.4-4.8 1.2-10.6.8-.5.9-.5v-4l1.6-.6 1.5-.6-.5-1.4-.6-1.5 10.4-9.7-.6-.7-.7-.6-30.6-.9-9-1-20.5-.4v1.5h-3.8l-.4-1.1-.4-1.2-4.4 2.4v-2h-15l-15-.2v2l2.3 1.2 2.2 1.1 5.3 4 5.4 4-.6.5-.5.6-3.8-2.9-3.8-2.8-.5-.8-.6-.7-5.6-2.9-5.7-2.8-7.1.8v2l-3-2.2-3-2.1v-3l-2.2.3-2.1.3-.5 1.3-.4 1.2h3.3l-.5.9-.6.9-3.7.7-3.8.7-4.7 5.3.6-1.7.6-1.8.7-1.7.6-1.6-15.1 1.4-.7-1.1-.7-1.2 2.8.3 2.9.2 5.2-.1 5.2-.2 3.2-3.2-.4-1.2-.4-1.1-2 .3-1.8.3-4 .4-1.3.8-1.2.8-2-1.2-4 1-4 1.2.2 1.7.1 1.7-.1 2.4-.2 2.5-1.3-1.9-1.4-1.8-1.1.7-1.2.7.7-1.7.6-1.6-4.8 1.4-4.6 4.8h-2.2l-2.2-.1 2.2-1.1 2.3-1.1v-1.7l-16.4.9-2 2h-7.7l-.5 1.4-.6 1.4-3 1.2.6-1.7.7-1.6-1-.7-1.2-.7-12.1 2.6-1.4-.6-1.4-.5v2l-4.3-.9-4.2-.7-2.2 2.6-2.2 2.7.6 2.3.5 2.2-1.4-.5-1.5-.6.2-4.2-2.8-.8-2.9-.8-5.1 2-1.9-1.9-3.1 1-4.7 1.6-1.5.5-3.5-.4v2.3l-4-1 .5 1.9.6 1.9h-1.9l-.6 2.2-.6 2.3-1-1.5-1.2-1.5 1.2 3.8-1.1 1.3-1.1 1.4-1-.6-.8-.5v.8l.2.8v1.9l-.2 1.8-1.4-.5-1.5-.6.6 1.5.5 1.5-3.4 3.8-1.6-.6-1.5-.6.6 2.2.5 2.2-2.4 1.6-2.5 1.6 3.6 4-1.9-.7-1.9-.6-2.8 3.2-2.9 3.2v1.1l1 1.4.8 1.4 14.4-.4-1.2 2h-13.2l-2 .6-1.9.7 2.5 2 2.5 1.9-1.2 3.4-5.2 7.5h-2.3l-2.9 4.5-1.2 4-5 13v-1.4l-.1-1.6 3.3-10.9v-6.5l.2-6.5.8-2 .7-2-12.2-.6-.5 2-.5 2.1h-2l.7 1.9.6 1.9-3.6 3.6v.5l-.2.6-1.6 4-4 9.4-4 9.3-2.2 2.7-2.2 2.6-8.3 12.4-1 .5-.8.6-1.8-1.7zm45.6-45.3 1-2v-5h-1.7l-2 9h1.6zm6.7-2.8 2.3-2.6v-2.6h-1.5l-1.3.9-1.3.8-2.9 5.5v.8h2.4l2.3-2.7zm-2.3-9.4-.5-.9h-1.9v4.2l3-2.4zm-8 1.5 1.6-.6v-1.2l-5 .3-5 .4v1.8h6.8zm9.4-6.3.4-2.3-1.4.4-1.3.5-.3 2.2-.4 2.3 1.4-.4 1.3-.5zm3.2-6.8v-1.5l-3 2.4v3l3-2.4zm292-42.2v-1h-3v2h3zm-140.4-6.7-.5-.5-1 .7-1.1.6v2.1l1.5-1.2 1.5-1.3zm135.4-25v-.9l10-7.6v-1.8h-5.8l-2.6 3.2-2.4 1-2.4.8 1.2 3.2v2.8h2zm-5.2-11.3-.1-3-.9.6-.8.5v4.9h1.9zm-155.8-.6v-1.4h-2v.8l-1.2 3.2 3.2-1.2zm5.8.3-.3-2.2 4-3.4-2-2-4.7 3.9h1.7l-1.4.9-1.3.9.7 2 .6 2.2h3zm44.8-.2 1.9-1.4h-1.6l-1.7-.1-2.4 3h1.9zm114.3-1.1 1.3-.4-.5-2.2-.6-2.2 1-1.3 1.1-1.3h-2.2l1-2 1.1-1.9v-1.1h-2.8l-7.2 10.5v3.5l6.5-1.2zm-74-1.2 2 1.2 3.9-3.5.4 1.2.4 1.3 1.2-.8 1.2-.7v-3.1l-1.3.5-1.4.5 5.1-9.8 5.1-10 .4 1.1.3 1-3.7 7.5-3.6 7.5.6 3.4 4.2-5.5 4.3-5.5 3.2-4.4 5.1-6.8-4.7-5.3h-3.6l-14.5 13.8-3 2.4-3 2.3-1.8 1.7-1.9 1.6-2.9 2.8-2.9 2.7v1.3l2.8 1 2.7 1 1.7-.8 1.8-.8zm-37-2.7.3-1.9-1.6 1.6-1.6 1.7v1.3l1.3-.4 1.2-.5zm140.4-4.7 1.8-2.1-1.9-1.9-4.2 4.2h-2v3.1l2.3-.6 2.2-.7zm-107.3-72.8v-1h-2v2h2zm197 237.8-2.5-1-13-.6-19-3.1-16-2.3-5.5-.4-5.5-.3-15-2h-9.6l-9.6-.1-.7-.7-.6-.7-4.3-.2-16.2-.9-12-.7-16-.8-101 .5-16 .6-3.5.4-3.5.3-22 1.3-14.5 1.4-23.5 2.5-9 1-8 .6-1.4.8-1.4 1-7.4.4-7.3.5v-1.3l2.8-1.1 2.7-1.1 12-2 6-.3 6-.5 4-.5 4-.6h3.5v-1.6l9.8-.7 9.7-.8 10.5-.6 6.6-1.2 29.9-1 8-.6 8-.7h1.7l1.7.2-.6-1.5-.6-1.6-2 .8-2.2.7h-4l-4-.2h-8l-4.2-2-4.2-2.1h-2.9l-1-1.3-1.2-1.3 2.2-2.2-4.4-7.3.5-.5.5-.6 1.3 2.4 1.2 2.3 6 7.4 6.7 3.2 2.7-.8 2.8-.8 6-3.2 6-3.1 3.1-2.9 3.1-2.8 2.2-1.8 2.1-1.7h2.2l-2.4 3-2.3 2.9h-1.8l-1.9.1.4 1.2.4 1.1-2 2.2-2.1 2.2-7.3 1.4-2.4 2.8 2.4.6 2.3.6 4.4-1.6 4.4-1.5 3 .1 3.2.2-4.4.8-1.1 1.4-1.2 1.4 1.4 2.2 8.3-1.4 71.6.2 1.6 1 33.4.4 1.2-1.2 11.7-1.4v-1.6l3.9-1 3.8-1.1 4-3 6.5-5.2 2.7-2.3v-1.1l.1-1.2 1.5-1.2 1.5-1.3-.6 2-.7 1.8-3.6 4.4-3.5 4.4-10 6.2 2.3.3 2.3.4 5.9-2.4 2.9-3.5 3-3.4v1.6l-2 2.9-1.8 2.9-2.9 2.4-2.8 2.5-13-2.3-1.5 1-1.4 1 .9.9 40 3.2 42 5 27 4h7.2l3.4 3.8h-7.6l-2.5-1zm-498-3.3v-1.5h2v3h-2zm19-1 2.3-2.5h1.7v3.8l-2.3.6-2.2.6h-1.8zm70 .6v-.9l1.4-.5 1.5-.6-.6 1.5-.5 1.4h-1.8zm-104.4-3.6-.5-1.5h1.7l.6 1.5.5 1.5h-1.7zm109.9-.1 2-1.6 9-4.4 5.5-3.2 5.6-3.2 4-3.5 3.9-3.5h2.5v-2l7.4-11.5 5-10 .2-2.3.3-2.2h-2.2l3.3-3.7v-1.3h-20.6l-3.9 2.9h-1.2l-1.3.1-1.2-5h-.9l-2.5 2.7-2.5 2.6 1.8 1.8 2.4-1 2.5-.9 4 2 3.9 2-3.2-.6-3.2-.5-1.2 2-.9-.6-.9-.5-3.8 1.7-3.8 1.8-1.4 1.3-1.4 1.4 1.4 1 1.4.9 2.8 1.5 2.7 1.5v3.1l-.8-.4-.7-.4-4.8-2.2-4.7-2.1v-4.7l2.5-2.5-3-2-1.8.5-1.9.5-1.4-.6-1.4-.5v-2l1.3 1 1.3 1.1 2.5-.5 2.4-.6 6.7-2-.7-2.5-.6-2.5 1 .7 1 .6 2.7-2.8 2.5-2.8 1.8 2.3 1.7 2.3 1.4-1.4v-1.7h-3v-3.8l1.5-.6 1.5-.5v-2.9l4-1 .5.7.4.8-2.4 1.1-2.3 1 .6 2.4.6 2.3 1.7 1.8 1.7 1.9 4.4-.8 4.3-.7 11.9-.3.8-2.4h2.4l5.4-10.5v-2.5h2l2.2-4.8 1.5.5 1.5.6 1.8-2.8v3.5h-2l-1.1 4.3-1.2 4.2-.4-1.8-.4-1.7h-1.7l-2.4 3h1.5l-1.5 1.8-1.4 1.7-2.4 5.6v1.1l7-.8v1.6l2.2-1.1 2.3-1 2.7-3.6 2.8-3.6v3.1l-1.5.6-1.5.5v4.2l5.5-.4 3 .1 2.9.2-2.3 2.3-12.9-.4-.5 2.2-.6 2.2.5.9.5.8h3.2l-.7.8-.8.7h-4.3l-.3 2-.4 1.9 1.6 1.2 1.7 1.2 3.4-1 3.5-1.1 3.3-3.7h-3.8l1.5-1 1.5-.8 3.4-.7 3.3-.7 1 1.3.8 1.4v1.4l-7.4 1.4-6.8 4-3.9.7-4 .7-.5-3.8-.7-3.9h-1.9l-6.8 3.2v2.9l-8 7.6v3.3h-1.8l-2.2 5.5-8.5 9.2-4.1 3.2-4.2 3.1h-1.4l-5 4-11.8 3.4v1.6h-3.5zm13.5-46.4v-1h-2v2h2zm37.5 0 .5-.9-2-1.2v3.1h.9zm6-2.6 1.5-1.5v3.2l2-1.2-.4-2.2-.3-2.2-7.1-.6-.7 2-.6 2 .6 1 .6 1.1h2.8zm-7.5-2.4v-1h-2v2h2zm-291.4 49.5-.6-1.7v-1.3l1.1 1.8 1 1.9-.9.9zm77.4-.7v-1.7l2-1.2v1.6l-2 3zm49-3.8-3.2-4h2l2.7 3.6 2.7 3.5-1 1zm-127.5-4.5-.7-5.6 1-1 1.4 11.3-1 1zm28 3.2-3-2-13.3-11.7h-1.5l-7-7.2-1.8.5-2 .5-.5-2.3-.6-2.4-1.6-.4-1.7-.5h1.6l1.7-.2.8-5.5-.4-1.7-.3-1.7-10.8.2-.5 2-.5 2.1 1 .7 1.1.6h-5.1l-.5-1.3-.5-1.4h2.9v-3.1l-4.5.6.6 2.8-2.6-2-3-.1-3-.2-1.8 2.9-1.7 2.9-2.9 3-2.9 3.2h-2.8l-2.2 2.2-8.2-1.4-1.1-2-1.1-2.1 1.2-8.7h-3l-.6 2.9-1.4-.8-1.3-.8 1.1-2.2 1.2-2.1h6.9v-2l-4.5-.2-1 .1-.8.2 1.2-1.5 1.3-1.5 5 2 .9-.7.9-.5v-3.2l-1.5-1.7-1.5-1.6 3.4-.1h3.3l-1 5.2-3 4.6.6.5.6.6 7.1 1v-3.2h-3v-3.1l2 1 1.8 1 1 2.6.2-2.5h4v3h5.2l-.6-1.5-.5-1.5h1.8l1-2.8 1-2.7-.4 3-.5 3 1 1.5 1.2 1.5.5-1.3.5-1.2h2.6l.5 1.2.5 1.3.9-1 .8-1 4-.6h2l6.8 1.4 1.2-1.7 1.3-1.7.6 1.6.5 1.5h10l1-1.8 1-1.7v1.7l.1 1.8h1.2l1.3.1 16.6.4.4-.4.5-.4 33 .4v-2.1l2.7.6 2.8.7 1.1.9 1.2.9 2.6-1.2 2.5-1.2-.6-1-.5-1 2.6 1.8 2.7 1.8 4.7-.8 4.7-.7 6.4-.4-.5.7-.4.8 1 .6.9.5 3.2-2 3.3-2 1.1 1 1.2 1 1.8-1.4 1.8-1.3 3.5 3.5 8.7-.6v-.5l3.5-.2 3.5-.3 2-.4h6l5.9.2-1 .9-.9.9-3.5 1-3.6 1.2-52.9 1.5v4.5l-5 3.4-6.8 7.6h-2.6v2.3l-.7-.7-.8-.7 6.3-5.7 6.4-5.7-1.2-3-3-1.4-3-1.3h-32.5l-.8.3-.7.1-1 .2-1 .1-2 3v-3.4h-11.6l-11.7-.1-1.3 1.1-1.4 1.1v-2.2l-4.4.2-4.5.1-.6 3.8-.7 3.8 1.2 3.6 10.4 7 7 5.8 7.1 5.7 3.5 3 3.5 2.8-1 1-3-2zm-65.8-24.3 3.4-1.7 2.6-3.3 2.5-3.4-.5-1.3-.5-1.4-12.7 1.5-2.4-2-1.4 1.4-1.4 1.3-1.1 2.2-1.2 2.2v3.7l2.4 2.4h6.8zm120.3-9.4v-1h-2v2h2zm245.7 35.4-.6-.6.6-1.4.5-1.4h-9.2l1.2-2 4.4.7 4.4.6 11-7.3 3.4-4.3 3.5-4.2 3-5 3.2-5 2-4.5 2.1-4.5-.8-4.4 3.2-1.4h2l2-.1.2 4.2-.8 1.4-.9 1.3-2-3v3.3l-1.5.6-1.5.5v4.2l-7.2 15.4-7.3 7.7-10.7 7.1-.5 1.4-.5 1.3h-2.5l-.6-.6zm-26.2-3.4-5-2.8-.6-2 12.9 6.3-.5.8-.4.7h-.7l-.7-.1zm-221.5 1.6v-.3l8-16.8-.5 2-.6 2-5.2 13.5h-1.7zm517.4-5-4.6-5.3-1.6-2.1-1.3-2.4-1.2-2.3 10.8 11.8.8 1.4.9 1.5-.5.4-.4.5zm-476.8.8-.6-1.6v-.7l1.5.5 1.5.6v2.8h-1.8zm192.9-.4-.6-1h1.6l3 2h-3.4zm146.2-2-3.7-2h-4.5l1.4-1 1.4-.8-2.7-1.7-2.6-1.7v-2.8h-4.6l-2.1-2.1-6.8 4v2.6l-2.8-.3-2.8-.4-2.4 2-7 1.4-1.4 1.2-1.4 1.1 1.2-2.2 1.2-2.3h4.9l1.2-2 1.3-2h4.1l3.9-2.9h1.7l1.7-.1 2-2.2 2-2.1-1-8-1.2-2 1.1.7 1.2.7.8 3.2.9 3.2 2.2-.2 2.2-.3-1 2-1.1 1.9v.8l8 2.6 1.5-1.3 1.5-1.2 1.3.5 1.4.5 18.8-4.8 2.6-2 2.7-2 5.2-1.2.8-1.3.7-1.2 3-1.6 3-1.5 2.2-2.4 2.2-2.3-5.7-5.6-.7 1-.6 1.1h-1.7l1.5-4 1.6-3.9 4.1-.6.7-2.5.6-2.5.8 6 7.3.6 1.4-1.8 1.3-1.8 2-.3 2-.4-1.3 1.3-1.2 1.3v1.8l9.3-1.4-.7 1.7-.6 1.7v1.6l-2.3.7-2.2.7-1.4.3-1.4.4-1.8-1.2-1.8-1.1-5.1 4.7v2.2l4.2 4.2 4.3 4 4 1.6 4.4 1.7 4.5 1.6.8 2.4h-3.7l-10.7-5-4.9-5-4.9-5.2-.6 1.5-.5 1.5 2 3.6 2 3.7 9 10 2.3 1 2.3.9 1.5.9 1.5.8 7 3.6 1 1.4 3.5 2.2 3.5 2-1.2.1h-1.3l-17.3-8.4-12.2-11.4-2-3.9-2-3.8-2-1.4-1.6 1.5-1.6 1.4h-1.3l-6.9 5.2v-1.5l-2.7 2.8-2.8 2.7-7.4 3 .5 1.1.4 1.2-4.8 2.2-1.5-.8-1.5-.9-14.9 2.2-2.2-1.1-2.1-1.2v3.1h1.5l12 8.9 5 .8-2.5.2-2.5.1-3.8-2zm12.8-13-.6-1h-1.9v2h3.1zm31-23.3-.7-2.2-1.4-1.5-1.4-1.4v3.5l1 2 1 1.9h2.1zm3-4.5-1.7-.4-.5.6-.5.5.6 1.8.7 1.8 3-4zm108 38.8-.6-1h2.1v2h-.9zm-323.1-3.5-2.7-3.6 2-2 .8 2.8.7 2.8 1.5 1.8 1.6 1.7h-1.2zm16.2 2-.6-1.7 2.4.8.8 2.4h-2zm-194-1.2-.7-1.8 2.5 2.5-.6.5-.6.6zm37.5.1v-1.9l.6 1.3.5 1.3-1.2 1.2v-1.9zm457.5-.2-.5-.9-12.2-8.3h-1.8l-.6-1.6-7.6-4.4h-2.4l-8-7h-2.1l-3-3-2.8-3-1.7.5-1.7.6-.4-2.3-.3-2.3-1.2.2-1.2.3.4-1.3.5-1.2-.9-3-.8-3-1.2.2-1.1.3v-3.2l1.4.5 1.3.5-.2-6.9-2-1.4-9-13.6-1.7.5-1.8.4 1.2-4.6-1.7-1-1.8-1 1.1-.6 1-.6 1.4 1.8 1.3 1.9 2.2 1.2 2.3 1.2v1.8l6.1 9.1h1.7l3.4-5.2.5.6.6.5-3.3 6.9v3.9l3.7 3.3h2.3v1.5l-.9 1.3-.8 1.4h-1l-.8-.1.3 2.1.4 2.1 2.8 2.8v2.9h3v-2.9l1.5.5 1.5.6 2.2 3.6 2.2 3.7 2 1.5 2.1 1.5 2.1 2.2 2.1 2.3h3.1l19.3 13.2 1.3-.5 1.4-.6.5 2 .5 1.8-.6.5-.5.6h-2.7l-.5-.8zm-240.6-1.7 1.3-1.6 1.2 1.6 1 .8.8.7h-5.5zm-62.8-1.2-1-1.8-.6-2.8-.7-2.9 1 .7 1.1.6v4.5l2.4 2.4-1.2 1.2zm-362.9-.5-1-1.3-.7-1.2-.7-1.3 1.5.6 1.4.6.6 1.5.6 1.6-.3.4-.4.3zm118.7.2v-1h4.5l-3 2h-1.5zm48.5 0 .6-1 1 .5.9.6v.9h-3.1zm-4.5-2v-1.1l2 1.2v.9h-2zm511 .6.5-.3 5-2.4-2 1.5-1.9 1.6h-2zm-690-2v-1.4l-3.2-1.2h-4.1l1.2-1.2 12.1 1.4v3.3l-6 .4zm438.1.6.1-.7-.2-.5-.3-.5-.4-5-1.4-4 5 9v1.3l.1 1.2h-3zm-264.1-1.8-1.3-1.6-2.6-1.1-2.5-1-1-.2h-1.2l-3.4-3-3.4-2.8 2.5.8 2.5.9h3.5v2.4l2.8.7 2.7.6 1.8 2.5 1.9 2.5-.9.9zm189.1-1.3v-2.1h.8l.5 1.5.6 1.4-1 .6-.9.6zm247.1 0-2.2-2-2.2-1.4-2.2-1.5h8l.3-1.1.4-1.1 3 2.6 3.2 2.6 1.2-1.6 1.1-1.6h2.3l2.2-1.3 2.3-1.2 2.4-3-1.2 4.6-3.6 2.5-3.6 2.4h-5.9l-1.6 1.5-1.7 1.5-2.2-2zm50.4.9-.6-1h2.1v2h-.9zm-602-2-.7-1.1.8-.8 1.3.8 1.3.9-2 1.2zm51 0-.6-1h1.6l3 2h-3.4zm590.6-2.4 1.3-2.8.8 2.4-1.7 1.6-1.6 1.7zm-691.5-.1-.5-1.5h2.9v1.9l-.9.5-.9.6zm231.4.2v-1.4l2.4.4 2.4.5 2.4-7.2h1.6l.6-1.6.6-1.7-.5-.6-.6-.5-1 1.4-.9 1.5 1.2-6.3-8.3.5-17.9.9v-2.6h6.8l.5-1.3.5-1.2 1 1.3.8 1.2 12.9-.6 2.4-1.3 2.3-1.3 2.3.5 2.4.4 1.3-.8 1.2-.8 2.4 2 4.3-1.1 4.3-1.2 2.5.5 2.6.5 3.8-5-1-.7-1-.6 1.7-2.7 1.7-2.8.6.6.5.6-.5 5.4-.6 5.4 1.6-.5 1.5-.6.7 1 .6 1.1h-5.9l-1.2 4.5v4.5h-1.8l-.8 2.8-.7 2.7-.8-3.4 1.5-3 1.6-3v-1.1h-4v2l-.8-.2-.7-.1-7.8 1.6-3.5-1.3-3.5-1.2-1.8 2.3-1.9 2.4v2.5l-1.8 1.8-1.7 1.9-1 1.5-1 1.6-2.3.7-2.2.6zm17-15.7v-1h-2v2h2zm9.7-.6 2.3-.6-.6-1-.5-.8h-5l-.5.9-.5.8.6.7.6.6h1.2l2.2-.6zm5.3-1.5v-.9h-2v3.1l2-1.2zm172.6 16.9-.6-2.3v-1.5h1.6v3l.2 3h-.7l-.6-2.3zm-217.6-.1v-1.5l1.6-.6 1.5-.6-.6 3.3-1.3.5-1.2.4zm114.5.2-.7-1 .9-.9 1.3 1.5 1.2 1.5h-2zm34.6-.5v-1.9l.6 1.3.5 1.3-1.2 1.2v-1.9zm-310.2-.4v-1h2v2h-2zm570 .8v-.3l4-11-.5 4-.6 4-.5 1.8-.5 1.7h-1.9v-.3zm-552.8-4.3v-3l.5 1.8.5 1.7-.5 1.3-.5 1.2zm264 1 1.8-1.9.4.5.5.5-4.4 2.6zm61.5.8-.7-.6v-5.2l3.6 4.6 1.9-2 1.8-2.1-1.2-1.2-2.5-.2-2.6-.1.5-1.6.6-1.7-4.6-1.2h-4.5v-2l5.3-.1 17.2-.7 2.9.5 2.8.6-1.4.8-1.3.9h-7.3l-4.5 10.8-4.2 1.2h-1.2zm5.4-9.6-1-1-.7.6-.6.6.7 1 .6 1.1 2-1.2zm204.9 9.3v-1h2.1l-1.2 2h-.9zm-511-1v-.9l2-1.2v3.1h-2zm8.5 0-.7-1.1.5-.6.6-.5 1 .7 1.1.6v1.9h-1.9zm61.2-.5-1.7-1.3 4-1 .4.7.5.7-1.4 2.2zm50.3-1v-1.5h2l-1.2 3h-.8zm207 .5v-1h2v2h-2zm90.2.3.4-.8 3.5-7.7-.3-3.2-.3-3.1h-9l-1.8 1-1.7 1-.1 3.5-.2 3.5-.4-2.8-.4-2.7h-3.9l-1.2 2-1.3 2h-1.7l1.4-6h-5.2v1.9l-2.6-1.4-2.6-1.3-2.8 1v1.8h-2.8l-1.6 2.3-1.6 2.2 1.2-5.3-3.7-.8-13 1.6-17 .8-2-.8-2-.7-3.3 1.4-3.2 1.3v1.8l-.2 1.7-.8-3-1-2.8 1.7-1.2 1.6-1.2-1.2-3.2 2.6-1.6 2-3.8v3.2l-.2 3-1.3.6-1.2.4v2.2l16.2-.6 16.3-.5 5-.8 7.5-.2v-2l1-1.3 1-1.2 2-2.5 1.8-2.5.8.7.7.8-3.3 3.7v2.3h-2v3h2l2-3.8 3-.4 3-.5.5.7.4.7h3l3.1.2 5-7.4v3.4l-2 1.2v2l2-1.2v2.1h3.8l2.4-3h1.8l-.3 1.2-.2 1.3 4.5.6v-5.1h-2l1.2-3h2.2l4.8-4.1 5-4.1.4.5.5.5-2.5 3.6-2.4 3.6-.5-1.2-.4-1.3-1.9 1-1.8 1.1-1 1.6-1 1.5.8 1.8.6 1.7 3.1-2.5-.3 1.3-.3 1.4 1.8.4 1.9.4 3.5-.7 3.5-.6 1.6-3.8 1.7-3.8 1.3.5 1.2.4-.6 1-.7 1 2.6 1.6 4-.4 4.2-.3-3 .8-3 .9h-3.2l-3.2.2-.7 1-.6 1.2 2.1 2.1 2.6-2 5.7-.7 5.8-.6v2h-2.1l.5 1 .6.8-2-.5-2-.6-1.3 1.7-1.2 1.7h-9l-9 .2-1-.3-1-.2h-1.8l-1.7.2v2h3.5l-2.1 1.8-2.2 1.7-4 9.5h-1.4l.4-.8zm-12.2-13.3v-1h-1.9l-1.2 2h3.1zm41.5-3 .6-1h-2.6l-3 2h4.4zm148.5 16.5v-1l1-1.5.9-1.4.5.5.6.5-2.9 3.9v-1zm-207-1.5v-1h2.1l-1.2 2h-.9zm273-2-1-1.9v-4.9l1.5-1.2 1.4-1.2 1 .7 1.1.6v2.7l2.1-.5 2.2-.6-.5 1.4-.4 1.4-4.4 2v3.5h-2zm-878.8.3-1.3-.5 4.1-4.5 2-5.8 2.1-5.8-.6-7-2.2-.8-4.8 4.8-4.7 4.8-1.6 2.3-1.5 2.4 1.2.8 1.3.7-1.2.8-1.2.7-1.8-1.8 5.7-8.6 8.6-8.8h2.5l1 3 1 2.8-1 4.3-.9 4.2.6 1.4.5 1.4-5 6.6v2.2l-.8.4-.7.4zm455.8-1.3 1-2h2v2.1l-2-1.2v3.1h-2zm275.6 1.1-.6-.9 1.5-.6 1.5-.5v1.8l-1 .6-.9.5zm47.4-3.4v-.7h-3v-1.8l1.4-.5 1.4-.6.6 1.5.5 1.4h2.2l8.8-4 1.2-2h3.3l-2.2 1.6-2.3 1.6-.8 2.2-.8 2.1h-10.3zm24 .3v-1h2v2h-2zm13-1.8v-2.3l2.2-8.9-2.6-2.5-2.6-2.4-2.6.2-2.7.2-1-2.8 3.5.7 3.5.6 1.7-1.8 1.7-2-2-5.2-11.6-11.7-3-1 .7-.8.8-.8 3.6 1.9 3.7 1.9.5 1.8.4 1.7h2.7l.6 2.1.7 2.1 3.8 3.8v5.8l1.5 1.2 1.4 1.2 8.7-4.2h4.1l5.3 6.1 5.4 6.2-2.1-1.2-2.1-1-.4-.8-.3-.8-3.7-2.8-3.7-2.7h-6l-.3.8-.3.7-3 1.5-3 1.6-.6 5-.7 4.9-2 6-.1-2.3zm1-16.7v-1.5h-1.9l-.5.9-.5.8.6.7.6.6h1.7zm-361.6 15.4-.4-.7 9.8-1.4 2.1 1.2 2.1 1v.6h-13.1zm311.6.1v-1h2.9l1.2 2h-4.1zm-645-1v-1.1l2 1.2v.9h-2zm725.6-1.6-.6-1.7 1-1 1.5 1.3 1.5 1.2v1.8h-2.8zm-603.1-3.4-2.9-3h1.6l6 6h-1.8zm428.8-.5 1-3.5h1.7l-2 5.3 1.2.9 1.3.8h-4.3l1-3.5zm-732.3 1.3v-1.8h-1.7l1-6.3.9 1.7 1 1.6 1-.6 1-.7-1.4 4.8-.9 1.5-.8 1.5v-1.8zm314.5.2-.6-1h2l1.2 2h-2zm268.2-.3-.5-1.3 6-6.9-.6 2.1-.7 2.2 3.8.4 3.8.5.3-.7.3-.8 2 .5 1.9.5v2l-4.2-.5-4.2-.6-5.6 1.2v2.7h-1.8zm213.8.3.6-1h.9v2h-2.1zm-539-2.3.6-2.2.4-3.2.3-3.3-.9-.6-.9-.5v-2l4 1.2v-3.1h2v4.8l-2.6 5.6-2.5 5.6h-1.1zm12.6.7v-1.9l.6 1.3.5 1.3-1.2 1.2v-1.9zm514.9-.4v-2h1.8l-1 4h-.8zm-572.4-.5-.5-1.5h1.9v3h-.8zm150 .5.5-1 1 .5.9.6v.9h-3.1zm23.6-1.2 1.4-2.3 4.5-2.2 4.4-2.3 4.3 1.2.6 2.1.5 2.1-.5.5-.4.5-4-4.4h-1l-8 3.2-.5 1.9-.6 1.9h-2.1zm14.3 1.2.6-1h2.9v2h-4.1zm201 0-.5-.9 2.8-1.6 1-4v2.3l.2 2.2h1.8l1-3 1.1-3h.8l-.4 2.4-.5 2.4 5.5 2.9-7.6 1.4-.7-1.1-.7-1.2-.7 1-.7 1.2h-1.9l-.6-1zm-586.5-.3v-.4l1.8-1.3 1.7-1.4-2.7 3.5h-.8zm205-1.2.2-1.9 1 2.6-1.2 1.2zm207.4-1.7 1.5-3.8 2.2-3 2.1-3 .8.8-3.4 5.8-3.5 5.8-.7.6-.6.6zm138.6 2 1-1.1h4.8l4.7-.1.3 1 .2 1h-6l-6 .1 1-1zm57.5.3-2-.9h3.3l3.3-.1-1.2 2h-.7l-.7-.1zm6 0-.5-.8 12.5-.8 1 .5 1 .6-3 .6-3 .7h-3.7l-3.7.2zm16.8.4-1.2-.5 1.2-1.4 1.2-1.3 2.4 1 2.4.9 1.4-.5 1.3-.5v1.9h-3.5l-2 .5-2 .4zm164.7-.5v-1l2 1.2v.9h-2zm-567.9-4.6-.1-5.2-1.8-.3-1.7-.4 4.7-2.6.3.4.3.3-1.5 13zm62.6 3-2.7-1.8v-1.6l1.8 1 1.9 1 1.3 1.5 1.2 1.6h-.7l-2.8-1.8zm-17.7-.4v-1l1-.6 1.1-.7.4.3.3.4-2.8 2.6zm58-.1v-1.5l2-3v1l-.1 1-1.8 4v-1.4zm-125.7-4.5v-4l.4 2.3.4 2.2-.4 1.8-.5 1.7v-4zm103.3-2.6-5-6.1-4.4-2 .5-1.5.6-1.5-2.8-1.8h2.3l2.4 3 2.3 3 3.7 4.6 3.8 4.5 1 2 1 1.9h-.5l-5-6.1zm450.3 4.5-1.1-1.4h6.9l6-1.2.6 2.1.5 2.1h-.9l-2-1-2-1.1-1.2.9-1.2.8-2.2.2h-2.2zm71.1 1.2v-.4l1.8-1.3 1.7-1.4-2.7 3.5h-.8zm-547.8-2.5-1.2-2h2.9l1 1.6-.8 1.2-.7 1.1zm440.1.2 1.7-1.9v-2.3h-3v-2h3.1l.5-1.5.6-1.5 2 1.2 1.9-1.8 1.9-1.7v-9.7l1.5.5 1.5.6-1 1.8-1 1.9v6.6l-.8 1-.7 1.1-3.2 1.2-.6 3.1-.7 3.1h-3v2h-2.3zm54.5.2 2.2-1.5v-1.9h-4v3h-2l-3-2.7-3-2.6v-1.7l.1-1.6.9 2.2.9 2.1 1.8.6 1.8.5 3.9-.9 3.8-.8 1 3.8h3.3l-3.4 1.5-3.3 1.5h-3.2l2.2-1.6zm-528.8-.4v-1l2 1.2v.9h-2zm564.3-.6.7-.6-1.3-1.5-1.2-1.5 4.3 1.4.7-1 .6-1.1h3.4l-5.6 5h-2.2zm-95.6-1.4 1.3-1.3.5.6.6.6-1.8.6-1.8.7zm84 .4-.7-.6v-1.8h7.9l1.2 2-3-.6-3.1-.6v2.2h-1.7zm-524.2-2.2-.5-1 2-1.2 1.6 1.5 1.5 1.6h-4zm243.7-1.1v-2.5l.5 1.3.5 1.2-.5 1.3-.5 1.2zm225 .4 1.8-1.8 1.2 1.2-2.4 1.2-2.3 1.2zm-179.7-.4.6-1.5 4.6-3.4 4.5-3.3.9 1.3.9 1.4v2.5l-.2 2.5-2-5.4-2.6 1.6-2.7 1.7-4.6 4zm173.7.1-1.4-.8 2.1-.6 2.1-.5v2.8h-1.5zm-97.4-.8 1.3-.5 1.2 1.2h-1.9l-1.9-.2zm-265.4-2-.7-1.8-1.5-1.8-1.5-1.7h2.2l1.6 3 1.6 3.2-1.1 1.1zm259.1.8-.5-.9 4-1v1.6l-1.5.5-1.4.6zm26-1.1 1.8-2h2l-3.6 4h-2zm162.2-.4 1.8-2.4.4.4-.6 2.2-.5 2.2h-2.9zm-587.8-1.3-2.4-2.7 2 1.4 2 1.5 1.3 1.3 1.3 1.2h-1.8zm468.1.1v-1.5l2 1.2v1.9h-2zm-537.5-.5-6-.7-1.6-.6-1.6-.7-1.2-2.2-1.2-2.3 2-5.2 7.3-1.7 7.3-1.6 20-.4 6.8 4 1.8 2.5 1.7 2.5 1.4 5-3-4.6-3-4.7-3.6-1.2-3.6-1.1h-7.2l-7.3-.1-14 2-2.3.7-2.2.7v5.7l4.8 1.5 4.8 1.4 10.9-.8 1.7.6 1.8.5v1.5h-4.3l-4.2-.1zm62.5-2v-3l-2.3-1.1-2.2-1.2-2.2-2.1-2.1-2.1-2.8-2-2.7-2-10.2-9-16.6-17-3-3.6-2.9-3.7v-1.5l15.3 16.6 4.5 4.7h1.3l10.4 9.8 5 4.5 4.9 4.6 7.5 3.6.9 2 .8 2-1.8 1.8-1.8 1.7zm163 1.6v-1.6h2v1.9l-2 1.2zm349-1v-2.6l2-1.2v6.1h-2zm100 1.7v-.8l6.4-4.4 1 1-3 2.4-2.9 2.4h-.7l-.8.1zm-168-2.1v-1.2h-3.1l1.8-2.5 1.8-2.4h1.2l1.2-.1 1.2-4h1.7l-2.6 5.3-2.5 5.2-.4.4-.3.4zm148-.8.2-1.9 1 2.6-1.2 1.2zm-482-7.1.8-3.8 1.4-12.6.5.5.6.5-2.6 19.1h-1.5zm154.5 1.7-1.8-2h2.3v2h3v2h-1.7zm273 1-.6-1h5.2l-1.2 2h-2.9zm-474-5-4.9-5 .6-.6.7-.6 3.6 4.4 3 2.9 3 2.8-.6.5-.5.6zm37 3.5-1-3-.4-1.5h1.2l1.3 1.8 1.3 1.7v1.3l.1 1.2h-2zm430.8.4-3.2-1-.7-1-.6-1.1 4.4 2.4 1.8-.5 1.9-.5 1 2.8h-.7l-.7-.2-3.2-1zm-224-2.5 2.7-2.9.5-1.5.5-1.6 2.9-1.7 2.8-1.6 4-3.6 3.8-3.5h2.6l3-3h2.2l2.2.2-1.5.5-1.5.6-4.4 4-1-.7-1-.6-2.3 2.9-2.5 2.8-7.1 3.4-.8 2.7-.7 2.7.4 2.5h-2.6l-2.4.7-2.5.6zm73 2-1.3-.6.6-.9.5-.9h1.7l.6 1.5.5 1.5h-.7l-.7-.2-1.3-.5zm45.8-.2-.1-1.4-3.2.6-3.3.5 3.3-1 3.2-1.2 1.2 1.2-1 2.6zm116.9-.2v-1h1.9l1.2 2h-3.1zm21.6-.5.6-1.5h1.8l-.5 1.5-.6 1.5h-1.9zm126.2.8 1.3-.5 1.2 1.2h-1.9l-1.9-.2zm-610.7-1.7-1.2-1.4 2.1-.7 2.2-.7 2.3 2.3-1.5 1-1.5.9h-1.3zm135-.6v-2.5l.6 1.3.5 1.2-.5 1.3-.5 1.2zm173.9 1v-.8l1.2-3.2 1.6 1-1 4h-1.8zm214.1-.4-1.2-1.4 1.1-.7 1.2-.7 1.8 1.8-.9 1.2-.8 1.3zm-515.1-.6v-1l2 1.2v.9h-2zm80.8.1-.4-1.3 4.8-4.8 1 .4 1.1.3-6 6.8zm58.1.7v-.2l-.6-4.8 1.4 1.8 1.3 1.9v1.6h-2v-.3zm89.7-.6-.6-.9 3.2-1.2 1 .6.8.5-.5 1-.6.9h-2.9zm117.5-.4-.1-1.9-2-2.5-2-2.6v-3.2l1.2 2 1.1 2 1.1.7 1.1.8 1.2-.5 1.3-.4v1.5l-.9 1-1 .9-.4 2-.5 2v-1.8zm246.9.2-3.5-1-1.5-.6-1.5-.7-1.5-.3-1.5-.4-11-1-2-1-2.1-1-1 .2-.9.1h-1.4l-1.3-.2 2.4-3 1.1.7 1 .7 3.1.1 3.1.2 13.8 2.4 4.2 2.3 5.6-.6 1.5 1.2 1.4 1.2v1.8h-2.3l-2.2-.2-3.5-1zm-587.5-3-.5-1 2-1.2v3.1h-.9zm416.5 0v-.9l1.4-.5 1.5-.6-.6 1.5-.5 1.4h-1.8zm-728-.8v-.8l2.2-9 .4-3 2.5-6.2.8-2.3-.5-1.5-.6-1.5h3.4l-.5-1.4-.6-1.4 1.2-1.2 1.3 1.1 1.4 1.1-1 1.7-.8 1.6-3 9-3.2 9-.3 2.4-.4 2.5-1.1.4-1.2.4zm508.5-.3.6-1h.9v2h-2.1zm94.5-1.5 2.3-2.5h1.6l-5 5h-1.2zm65 1.7v-.9l2.1-1.9 2.2-1.9-1.2 2.2-1.1 2.2-2 1.2zm-24.5-1.2-.6-1h2.1v2h-.9zm81.9-.6.6-1.6v-2.2l2.3 2.3-.6 1.5-.6 1.6h-2.3zm56.8.6.4-1.3 4.5-2.3 4.4-2.3 4.7-2 4.8-2.1h.8l.4 1.8.5 1.9-1.7 1-1.8 1.2-1.9-.5-2-.5-2.5 3.1h-2.6l-.5-.8-.4-.7.3 1 .2 1.2-1.8 2.8v-3.4h-1.6l-2.3 1.7-2.4 1.6zm-438-12.7-8.1-12.4 1.2.3 1.2.4 2 3.3 2 3.2 3.3 4 3.2 4v2.7l1.5.6 1.5.5v4.1h2v2h-.8l-.7-.2-8.2-12.5zm484.8 12v-.8l-6-3.4v-3.2l3 1.8 3.2 1.8.9 1.7 1 1.7-1.1.6-1 .6zm-398-1.6-.1-.2-.8-6-3-2.6-3.2-2.6.7-1.6.6-1.7h-3.2v-2h3.2l-2.5-3.1-1.6.2-1.6.1-1.5-.1-1.5-.2 1.9-1.4 1.8-1.4-.7-1-.6-1.1h2l2.4 3.3 2.4 3.2 5.1 9 .7 4.8.7 4.7h-1.2zm10.6-1.4-.7-1.8 2.5 2.5-.6.5-.6.6zm151.5-1.9v-3.9l1 2.8 1.1 2.9-2.2 2.2v-4zm-199.5 1.8-.5-.9 4-4.4 1 .3 1 .4v1.9l-4.6 1.2.2 1.1.3 1.2h-.9zm247.4-.1v-1h-4.8l-2.4-3h2.6l6.6 2.4v2.6h-2zm-116.7-1.5v-1.5l1.4 1.1 1.3 1.1v.8h-2.7zm84.8 1-.1-1.2 5.2-4.8.4.3.4.2h1.2l-1.2-1.5-1.3-1.5 1.4-1.4.9 1.4.8 1.4 3.3-2.7 2.3 2.3-2.4 1.8-2.5 1.7-4.7 2.5h-2.6l-.5 1.3-.5 1.2zm-398.3-1.2 1.3-.5 1.2 1.2h-1.9l-1.9-.2zm62-1-1.4-1.8-9.7-13.8 1.2.7 1.1.7 8.4 11.4.5.5.6.5 2.7 3.5h-1.9zm402.4-1.9 3.3-3.5 4-2-2.3 2-2.2 2v1.1l-3.4 4h-2.8zm-18.5.9.6-1.8 4.8-6.5h2l-3 3-3.1 3.2v2.7l-2 1.2zm-255.7-1.9v-1.4l2 1.2-.5 1-.6.9h-.9zm37.7-.4-.5-2h.7l1.1 2 1 2h-1.8zm267.3-1.1v-.7l-6.2-1.4-2.2 2.2h-1.4l.5-2.1.6-2.2 6.6.6 6.7.5 2.7 1.3 2.7 1.2v1.2h-10zm-305.5-4 .7-3.4.5-.8.4-.7h2.8l1.1-1.8 1.1-1.7-1.2 6-1 .3-.9.4v2.7l-2.1 1.2-2.1 1zm-69.4.5v-1.9l.6 1.3.5 1.3-1.2 1.2v-1.9zm105-1.2-1.3-2.4.5-.4.4-.4 1.3 1.4 1.2 1.5-.4 1.3-.5 1.3zm247.2.6-.4-.8h3.6l1.4 1 1.4.8-2.7-.1-2.8-.2-.5-.8zm-127.5-.5 1.3-.5 1.2 1.2h-1.9l-1.9-.2zm-589.8-2.6v-2.2l-.5-4.5-.4-4.5.9 1.5.8 1.5 1.2 10.5h-2zm466.5-4.2-.6-1.6.4-.5.5-.4 2.4 2.8-1 .7-1.1.6zm-507.2-1.5-1.3-1.3v-2.4l1.5-.5 1.4-.6.8 1.4-1.2 4.6zm481.4-.5-.6-.7 2.9-4.1v-3.7h2.1l-1.4 4.5-.4 3.9-2 .6zm-472-1.5-1.7-1v-3.1l3 2.4 8-.8v.5l-3 1.6-2.9 1.5h-1.6zm578-3.4-1.7-3.6v-2.4l4 8.8-.3.3-.3.4zm-179.7.4v-2h-1.5l-3.4-6h1.1l2 2.3 1.8 2.2 1.5 2.8 1.6 2.7h-3.1zm-325.4.2-.7-1.1 2.1-6.1 2-6.2 5.4-10.6 5.3-10.7 2-3.3 2-3.2 1.2-3.8 1.3-3.8-6.2-9.8v-3.3l-2.4-1.2-2.4-1.3-1.1.6-1.1.7v2.8l-2 1.2 1.1-3 1-3 2.9-2.3 1.6 1.3 1.7 1.4 3.8 9 2 1.6 2.1 1.6.2 3.9v4l-4 7.9-14.4 27.5v3.7l-1.4 3.2-1.3 3.3zm269.9-.2.6-1h2l-1.2 2h-2zm139-.6-.5-1.7 1.5 1.3 1.5 1.2v.8h-1.8zm-222-1.3-.5-1-4 1.2-4-3.6.6-.9.6-1 1.2 1.8 1.3 1.7h11.6l-4.8 2.6h-.7l-.7.1-.5-1zm78.5-1.7-1-2.5v-4.2l.9.9 1 4.2.9 4.2h-.8zm11 0 1.3-1.4.9.9-.7 1-.6 1.1h-2.1zm-318.7-5.4v-4.5l.4 2.3.4 2.2-.4 2.3-.4 2.2zm444.8 2.4v-1.9l.6 1.3.5 1.3-1.2 1.2v-1.9zm-425.4 0-.7-.7v-1.8l1 .6 1 .7 1.6-1.3 1.4-1.2.7.6.6.7-1.3 1.5-1.2 1.5h-2.5zm304.3-2.1v-1.5l3.2 1.2h1.8v1.5l-2.5.1-2.5.2zm6.5-.3.6-1h1.9v2h-3.1zm129 0-.6-1h2.1v2h-.9zm-469.8-1.1 1.3-1.3.5.6.6.6-1.8.6-1.8.7zm370.4-1.2-1.3-2.2 1.8 1.7 1.8 1.8-.5.4-.5.5zm182.4.3-.6-2h-5.7l-2.8-1.4-2.8-1.5-.6.4-.7.5-2-9.7 1.6-3.8v4l.2 4 2.8-5.3 2.6-.4 2.6-.5-.5 1.4-.6 1.5v1.8l-2.2-.3-2.3-.2-.3 2.4-.4 2.3 2 2 6.2.8-1.5-3-1.6-3h1.8l1.3 2.6 1.4 2.6 4.5-.7 4.4-.7 1.8-1.1 1.9-1.2v-4.5l1.9-5 1.9-4.9-1.7-.4-1.6-.5h2.2l2.1-.2 6.5-7.9 6-4.4 1.4 1.8 1.3 1.9v3.1l-1-1.7-1.1-1.8h-3l-6.7 7.3.5 1.4.5 1.3-.6 1.7-.7 1.7-1.6-2.6-2.1 3-2 2.8-1.4 5.4 1.3.1 1.4.1 1.5-.1 1.5-.2 3.8-4.2 3.9-4.2-1.9 3-1.8 3-7.9 7.3.7 1.4.5 1.5 2.9.6 2.8.5 4-1.3 4-1.4.4.4.4.5-7.8 3.2h-4.7l-3-2.1-2.9-2.2-4.4 1.2-2.8 1.1-2.8 1 .6 2 .6 1.8h-1zm-166.4-4.8-4.1-4.7-2 3-.1-.5-.2-.5-.1-2.7-.2-2.8 4.2 4h1.5l3 3h2l-1.2-4h2.7l5.9-7.5h2.8l1-2.8-1.3.8-1.2.7 2.2-4v-1.4l-1 .6-.9.5-1.2-2h6.1v2h-1.8l-.5 1.4-.6 1.4 2.2-.5 2.2-.6-4 4-5.9 6.2-5.8 6 1.2 5.1h-.8zm446.9 3.4v-1.5l2-1.2v3l-2 1.2zm-480.3-1.6-.6-2.2-3 1.2.6-1.6.6-1.5-1.4-1-1.4-.9 2.5.3 2.5.2 1.3-.7 1.2-.8v2.1h-2l1.2 7h-1zm101 1.4-.4-.8.8-2.5.7-2.5.2 6.5h-.9l-.4-.8zm13.3-.4v-1l2 1.2v.9h-2zm-439-1.5.2-1.9 1 2.6-1.2 1.2zm10 .6v-1h2.1l-1.2 2h-.9zm-27.8-2v-2.5l.5 1.3.5 1.2-.5 1.3-.5 1.2zm355.8 1-1.5-1h3.4l1.2 2h-1.6zm320 0v-1h4.5l-3 2h-1.5zm-367-1.3v-1.8l2-1.1 2-1v-2.6l4-3.4 4.5.2-5 1.4-.6 3.2 2 .7 2.2.7 1.3-1.1 1.4-1.2.6 1.7.6 1.6v1l-5.4-.4-5.4-.3-2 2-2.2 1.8v-1.6zm122.7-.5-1.7-1.9v-1.4h1.5l3.6 5h-1.8l-1.6-1.8zm-140.2-1.3.6-1h2l-1.2 2h-2zm6 0-.6-1h2.1v2h-.9zm2.5 0v-1h7.5l-3 2h-4.5zm104.3-.1-1.3-1.3v-3l2.4 2.4h6.7l4.5-1.1 4.6-1.2 1.1-1.8 1.2-1.9h2.5l3.5-2.3 3.5-2.2v-2.5h3.2l-1-4h1.3l2.4-.7 2.3-.6-.7 2.3-.8 2.4-1.8 1.5-1.9 1.6-2.4 5-2.5 5v-2.2l-.1-2.2 2-1.2v-1.9h-1.7l-15.1 10-10.7 1.2-1.3-1.3zm48-.4-2.3-1v-2.3l-1.4-1.1-1.4-1.2-1.1 1.8-1 1.8 1.2-7 .3-.4.4-.4 4 4.3 4 4.4-.2 1-.3 1.1zm34.2.5-.6-1h-7.9l-1.2-2h6.1v-2.5l-12.8-13.5h-2l-.6-2.3-.6-2.4-22.2-21.3-1 .6-.8.5v-3.1l-13.5-13.5-13.4-13.5v-1h1.2l26.8 27h3.8l5.4-5h1.6l.6 1 .7 1.1-.4.4-.4.5-4.5.6-1.4 2.8-1.4 2.7 10.5 10.5 10.6 10.4h.5l5.3-4.9v-2.1h3.8l3.2-5h2.5l-1.1.8-1.2.7-.3 3-.4 3-1 .7-1 .8h-5.4l.5 1.4.6 1.4-4.4 2.4 1.6 1.6 1.6 1.7 5.6 6.7 5.5 6.7 1.5-.6 1.4-.5v2.6l6-5.8v2.7l-5.1 6.7h-1.8l-.6-1zm-128-1-.6-1h3.1v2h-1.9zm248.5 0v-1h3.5l2.5-.6 2.5-.7-2 2-3.3.8-3.2.7zm23 .5v-.6l9.3-4 .4.5.5.5-4.3 2-4.3 2.1h-1.6zm135.4-.9-1-1.2-.7-3.4-.6-3.5 4 7.6-.3.9-.3.8zm-768.9-2.6-1.5-3 .4-3.7.5-3.7 8.4-12.1 1.9-7 2-7 2.1-3.5 2.2-3.5 1.7-3.5 1.8-3.5 4-6 1.8-4 2.8-3.7 2.9-3.6 1.7-2.9 1.7-2.8 10-14-.5-1.7-.5-1.8 1.3.5 1.3.4 3-2.4 6.5-9.3v-3.2h2v2.7l-3 4.6-3.2 4.7-.9.5-.8.6 1.8 4.7-1.6.6-1.5.6 1.3 1.7 1.4 1.6-4.9-2.6-1.8 2.4-2 2.4-1.4 1.8-1.4 1.7v1.5l-6 9-2 2.3-1.9 2.2-1.2 3.5-1.3 3.5h-1.6l-2.8 6.8-1.1.6-1.1.7v3.5l-3 4-3 3.9v1.9l-4.4 9 .2 3.3.3 3.3-1.6 3-1.5 3v.2l.1.3-.5 1.5-.4 1.5-.5 2.5-.4 2.5-1.6 3.6 2.2.6 2.1.5v1.8h-6.9zm4.4-4.7 1-3.8v-3.2l.1-3.3h-1.8l-1 1.4-1.2 1.3-.9 4.6-.8 4.6 2.1 2.1h1.5l1-3.8zm18.6 5.7.5-2.5.6-2.7.7-2.8h-2l-5.2 3.5-5 3.5.4-1.3.5-1.2 10-5.6v-1.9h3l.6-2.5.6-2.4 1.5-1.3 1.5-1.2 1.8-4.7 2 1.2-3 5.4-2 3-2 5-2.1 5-3 6zm330 1-.5-.9 1-.6 1.2-.7 3.2 3.2h-4.3zm112.8.3 1.7-.5 1.3.5 1.2.5h-6zm119.8-1.6-.9-2.3 1-5.4 1-.6.8-.5v-3.6l-12.5.4-4 2-2-1.8-1.8-1.9h4.9l2.4-2.4v2h12.3l12.2-.2 1.2.4 1.3.4-.6 1-.6.9-2-.7-2-.6-6.4 1.2-1.7 3-1.7 2.8v6l2.8 1 2.7 1-5.5.2-1-2.3zm37.9 1.2v-1l2 1.2v.9h-2zm294.5-1.6-1.7-1.8-10-5-2-3.4-1.7-3.4 1.2-2 .9 1.7.9 1.6h1.9l4.7 3.4 4.8 3.4 2.2 3 2.3 3-1 .7-.8.5zm-323.6-1.4 2-2 1.8.3 1.8.4-6.4 3.4h-1.2zm251.6 1.1-.6-1h3.1v2h-1.9zm17.5-4.2v-5.1l.4.4.3.4.7 4.8.7 4.7h-2.1zm-826.3.7 1.7-3.5.4.5.5.4-1.3 3-1.2 3.1h-1.8zm721 2.2 2.3-1 2 1 2.1.8-8.6.2zm48.3-.5v-1.9h4.4l4.4-.1 2.1-1.2 2.1-1 1 .5 1 .6v1.6l-3.9 1.3-3.8 1.2-2-.6-2.1-.7-.7 1-.6 1.1h-1.9zm-494-.7-1.2-1.5h2l.6 1.5.5 1.5h-.7zm177 0v-.6l2.2-9.4 4.1-8.3 4.2-8.2h1.6l-1.1 2-1.1 2.1 1.1 3.5 1.2 3.5.2 1.2.3 1.2 1.1 2.7 1.2 2.8h3v2.1l2.3-.2 2.2-.3 1.4.9 1.5.9.4-1.2.3-1 1.5.5 1.6.6-1.4.8-1.3.9h-5l-5-1.7-4.8-1.8-.4 1.3-.5 1.2h-1.6l-1.7-.2 1.3-.5 1.2-.5v-3.8h-1.1l-2.7 1.7-2.7 1.8-.7 1-.8 1v4.5h-2v-.6zm9.7-13 .6-1.6-2-4.4-1.6 3.2-1.7 3.2v1.1h4zm146.3 12.5-2.5-.7-.2-3.4-.3-3.5 1 2.3 1 2.2h2.8l.5 1.3.5 1.2.2-2.5h5v2h-3.6l-1 .8-.9.9zm68-2.1v-1h2v2h-2zm110.3-.2-1-1.3 1.7-1.8 1.8-1.8.4.8.5.8-2.4 4.6zm-279.6-2 .5-2.8-2.4-3h4l.6-1.8.6-1.7 4.4-2.8-3.6 5.6 1.3.8 1.4.9h-3.5v2.8l1.3.5 1.2.5-3.8.2-2.5 3.5.5-2.8zm259.2.6-1.3-1.6 1.8.3 2 .4.4 1.3.4 1.2h-2zm-396.6-2.3-1.1-3-4.2-1.6 8.3-6.9 6.2-3.7-3 2.4-3 2.3-3 2.7-3 2.6.7.7.6.7 2-1.1 2-1 4.6.5 4.6.7v1.8l-3.5-.7-3.5-.6-1.2 3.2 1.3 1.8 1.4 1.7-1.7-1.3-1.6-1.3-.9 1.5-.9 1.6zm441.9.5 1.1-2.5h2.4l1.2 1.2-1.2 2-1.2 1.8h-3.5zm-488.6.2.6-1.8.6.6.6.5-2.5 2.5zm161.1-2 .6-2.2 1.5-1.7 1.5-1.8 1.5 1.3 1.5 1.2-.6-2.7-.7-2.7 4-2.2 1.8.5 1.8.6.1-2.1.2-2.1.6-.4 15-8.9 2.7-.6 2.8-.6v1.2l-4.5 3.8-4.5 3.9v2l8-1.2v2.8l-1.4 1.1-1.4 1.2-.4-1.3-.4-1.2-3.5 1.6-3.4 1.7-5 5.4 1.3.4 1.2.5-.5.8-.6 1-1.5-.7-1.5-.6-4.4 2.2-8 2h-2.2l-2.1.1.5-2.2zm10.3-2v-1.2l2-1.3 2-1.2v-3h-2.6l-5.4 6.2.6.9.5.9h2.9zm10.7-6 4.2-3.4.5-.3-2.4-2.4-3 1.7-2.8 1.7h-1.3l1.2-2h-2.1l1.2 4-1 2-1.2 2h3zm-502 6.8.6-3 2-3 1.9-3-.7 3-.6 3-4 6zm826.9.9-.6-1.7 1.2 1 1.3 1 1.5.6 1.5.5-2.1.1-2.2.1zm14.4-.3v-1l-2.8-.6 2.4-3 2.3-3 2.2 2.2-2 1.5-2.1 1.5.6 1.7.6 1.6h-1.2zm-512.5-1.1-.6-1h4l1.2 2h-4zm8.5.2v-1l4.3-.5 4.2-.6 1.9 1.9h-2.5l-2.4.2-2.8.4-2.7.5v-1zm56-.3v-1.1l-1.5.5-1.4.6-1.2-2-1.2.8-1.2.7-7.5.4v-2.5h18.5l-1.3.4-1.2.5v2.8h-2zm120.2.1.3-1.2.8.1.7.1v.7l.2.7-2.4.8zm123.3 0-1.9-.7 4-1 3.8 1.4-4 1zm51 0-.6-1h2l1.2 2h-2zm-214.5-1v-1h4.1l-1.2 2h-2.9zm-63-1v-1l3.5-.2 2 .4h6.5v1.8h-12zm409.7-.6-.6-.6.6-1.4.5-1.4h2.6l-1 4h-1.5zm-446.2-2.9 2-1.5 1.8-2.1 1.7-2.1v2.8l-1.3 1.6-1.2 1.6-2.5.7-2.5.6zm492.5-2.5 2.2-3 .5.5.5.4-3.4 5.2h-2zm-506.9.6 1.7-2 2.7-5.3 2.6-5.4 1 1-2.4 4.9-2.5 4.8-2.3 2-2.4 2zm456.7-5-2.2-4.5h-2.6v-4l-12-16h-3.8l1-4 9.3-8 5.3-4.8 8.9-7.9 11-8.3h1.8l3.7-4 3.7-4.2 1 .7 1.1.6v-2.2l1.7-.6 1.6-.6 1.9-1.9 1.8-1.9v-3h3.7l2.7-2.1 2.7-2.2 1.2 1.3 1.2 1.2-11.8 10.8-4 1.2-2.9 2.3-4.2 3.8-4.1 3.8-3.5 2.1-3.5 2.2h-.5l-.5.1-2.8 2.1-2.7 2.2v2.2l-2.8 1.8-2.9 1.7-14.6 13.4 2.9 4.3 2.8 4.3 4.6 6 2.5 2.9 1.8 3.6 2 3.5 3.9 6.5h-2.2l-2.2-4.5zm10.2 3.7v-1.1l3-1.6 3.1-1.6 7.9-7.1v1.6l-8.4 8.6h-3.2l-2.4 2.4zm-864-3.1 1-2.1h2v2l-2 1-2.2 1.2zm422.6-.7-.6-1.5 2.8-2.4 2.7-2.4h-3l-5.6 2.8 1.2-2 5.6-2.8 2 .5 2.1.6 5.3-3.5.7.7.7.8-2 1.4-1.9 1.4h-3.9l.6 1.4.6 1.5-1.3-.5-1.4-.5-1.3 3-1.4 3.1h-1.3zm-379.3-1.7.2-2.7h1.5l1.5-3.7 1.5-3.6.6.5.5.6-3 5.7-3 5.8zm370.7 1.2v-1l2.3-1.1 2.2-1.2-1.9 2.2-2 2.1h-.6zm71-1.5v-1.5h2l-1.2 3h-.8zm409-4.5 2.3-2h1.7v1.6l-2.4 2.4h-4zm-393.3-2.2 1.8-3.3 4.3-4.1 4.2-4.2v-3l3.2-1.2-.6-1.5-.5-1.5h1.9v2h2.1l-.6-1-.5-.9 2.2-.6 2.3-.7 8.3-3.9 3-.9 3.2-.9.5.8.4.8-8 2.4-12.4 7.9-8 7.8-2.3 2.7-2.2 2.7v1.3l-2 1.3-2 1.2zm17.3 1.2v-.9l1.6-.6 1.7-.6-1.3 1.5-1.2 1.5h-.8zm103-.3v-1.3l3.5-2.3 3.5-2.2h3.9l-.6 2-.5 2-6.8 1.2v1.8h-3v-1.3zm-134-1.9v-1l2 1.2v.9h-2zm67.3-1.4-1.3-1.4 2-1.2.9.5.8.5 4.7-4.4 4.6-4.5h1.5l3 2-2 1.4-2 1.5-4.5 2.2-4.5 2.3-1 1.2-1 1.3zm262.7.7v-1l4-1v-4l2-.7 1.8-.6.6-1.4.5-1.4 3-1.6 3.1-1.6v2.2l-8 7.6.5 1.5.6 1.6h-2.3l-2.3-.1-1.8.7-1.7.8zm-380.5-1.1-2-.9h2.3l2.2-.1v2h-.3l-.2-.1zm56-1 .6-1h4l-1.2 2h-4zm-123.7-1.9-1.8-.6 6.9-5.5h1.1l4-4h3.2l-1.4 2.3-1.5 2.2-2.2.3-2.1.3v2.9h-2.9l-.8 1.4-.8 1.3zm159.1-1.5 2.4-2.6h.7v1.8l-2.8 1.7-2.7 1.8zm128.4-2.3 1.7-1.7.6.6.6.7-.7 1-.6 1.1h-3.3zm-151.6-2.3-.5-2h5.8v.8l-2.4 1.5-2.4 1.6zm-440.6-3.5v-4l.6 1.3.5 1.2h1.4l3.6-10.1.5.4.4.4-4.3 11.8-1.4 1.5-1.4 1.4v-4zm471.4.5 1.8-2h1l-3.6 4h-1zm-75.7-.8-1.8-.3 1-2 1.2-2-.5-1.3-.5-1.2 1.4-3 1.3-2.9-.5 4.6-.6 4.5 2.1 1 2.1.9-1.7 1-1.8 1.1zm-76.3-3.2.6-1h2l-1.2 2h-2zm484.5 0v-1.1l5-4.6v-1.3l2-3.2 2-3.3v4.3l-5 6v.9l.2.8v1.2l-.2 1.3h-4zm-803-2.2v-1.7l2-5.4.5.4.4.5-2.8 7.9zm401-.3-1.3-1.5 1.3-1.3v2.3h3l.2-1.3.1-1.2.2-3 4.2.6 1.3-3.1 1.3-3.2 2.6-2.7 2.6-2.8 1.6-2.4 1.7-2.4 1 1-1 5.5-1-.6-.8-.5-.2 1.3-.1 1.3-.4 2-.8 1.7-.7 1.8-1.6-1-3.2 1.2v2.3l-8.8 7.5zm357.4-8.8-8-8.2-9.4-8.4v-2.2l2.8 2 2.7 2 16 15.9 2.8 3.2 2.7 3.2v.8h-.8l-.7-.1-8-8.2zm-501.7 5.8-1.5-1.4-1.2 1.2v-2.3h2.8l3.2-2.7 3.2-2.6.8 1.4 1 1.4-2.6 1.3-2.6 1.4 1 3.8h-2.7zm76.9-.4-.6-1 1.8-4.6 2 5-.5.8-.4.7h-1.9zm138.4-.1v-1h2.1l-1.2 2h-.9zm47-.3v-1.5l3.2-2.6-.4 2.4-.3 2.3-1.3.5-1.2.4zm96 .2v-1l2 1.2v.9h-2zm3.5-2.9.6-1h.9v2h-2.1zm-612-2.2.5-2.6 1.2-3.2h-2.2l2.3-3.8 2.4-3.7 1.7-2.8 1.8-2.9.4.5.5.5-5 10-2.6 1 1.1.9 1.1.8-1.9 4-1.8 4zm-20 .2.6-1h.9v2h-2.1zm551-2.6 3-2.6 7.5-6.8h2v1.4l-3.6 3.3-3.7 3.3h-2.4l-4.6 4h-1.2zm-271.3 0 .3-1.9h2l5.6-4 3.2-2.7 3.2-2.8h2.6l2.6-2.4 2.6-2.5-4.8-1.2-3.2-4.4 1.6-4v1.6l.1 1.5 5.6 5.4h5.4v-2h2.5l5-4.6 1.8-.7 1.7-.6v1.8l-4.6 4.3-4.5 4.3-4.4 2-2.5 1.7-2.4 1.8h-2.8l-3 3.1-3.2 3.1-4.5 2.1-6.3 2.9zm75.6 1-.6-.5.5-2 .5-1.9h1.8v.8l-.1.7-.8 1.8-.7 1.8-.6-.6zm-337.2-1.7.6-1.8.6.6.6.5-2.5 2.5zm395.4-2.6v-.8l8.3-10.2.4.3.4.4-3.8 5.5-3.8 5.6h-.8l-.7.1zm77-.8 1.7-2.2.3-.4v3.1l-1.6.6-1.7.6zm-132 .3v-.4l1.5-.6 1.5-.5v1.9h-3zm138.7-1-1.7-1.6h-1.2l-8.5-7h-1.4l-5.4-5-2-.6-1.9-.6-2.5-2.4-2.6-2.4h-2.5v-2h2.8l2.4 3h2l2.6 2 2.7 2 15.3 10h1.1l-.5-1.5-.6-1.5 1.6.6 1.7.6-1.2 1.4-1.1 1.4 4.5 3.7-1 .6-1.1.7zm-137.3-4-1.6-2.6-5-3.5-5-3.6-4.4-4-4.4-4.2v-1.9l1 .4.8.3 11.6 10 9.3 8.5h1.6l1.1-1.6 1.2-1.5 1.7.7 1.8.6-.4 1.2-.4 1.1-4.3.6v1.9h-3zm77.6 1.4-1.5-1h2.4l1.2 2h-.6zm-313.4-6-3.8-5h-1.9l-2.6 1.7-2.5 1.7-2.8-3.8.6-.5.7-.6.4 1.3.5 1.2h3.7l3.3-4.5.4 1.1.5 1.2 4 5.3 3.9 5.3v.6h-.6zm14.4 4v-1h2.1l-1.2 2h-.9zm416.5-4 1.8-2 1 1-1.3 1.5-1.2 1.5h-2.1zm12.2.9-1.7-1 .5-1 .6-.9h5.9v2l-1.8.9-1.8 1zm-198.7-1v-1l2.6-1 2.5-.9h2.1l-1.1 1.4-1.2 1.4-2.4.5-2.5.4zm67-.5v-1.2l2-2.3 1.8-2.4.7.6.6.7-2.5 2.8-2.5 2.9zm11.5-.4-.6-1 .5-.9.6-.9 4-1 1.2 2-1.8 1.3-1.9 1.4h-.7l-.7.1zm-22.7-2.6 1-2 1.6-1.4 1.6-1.2v1.9l-2.6 2.4-2.7 2.4zm340.2.8v-.7l1-1.5.9-1.4.6.5.5.6-.6 1.7-.6 1.6h-1.8zm-388-2.1-1-2v-1.9l5.5-3.5-1.5 1.7-1.4 1.8 1.7 1.3 1.7 1.2-.6 1.7-.6 1.6h-2.8zm-410.5-1.1-.6-2 .7-2.3.7-2.2 7.4-11 1.4-6 6-14.7 12.9-26.4v-2.4h1.7l3.3-6.3 3.4-6.2 2.7-4.4 2.8-4.4-2-3.6 1.1-.6 1.1-.7 1.4.6 1.5.5v-2.3l2.2 2.2 1.5-.5 1.5-.6-.4 1.9-.3 1.9h-6l-.7 1-.6.8.5 1.4.6 1.5 1.6-2.6.6.5.6.6-8.8 10.8-5.3 8.5-3.2 5.7-3.1 5.8-9.8 19.6-2 5.2-1.9 5.2v1.9l2.1-2 2.2-1.9-5.6 9-1.2 1.5-1.3 1.5-5 14-.7 1.7-.7 1.8h-1.8zm4-7 .8-2.5-1.7 1.4-1.6 1.3v5.3l1-1.5.8-1.5zm30 8 .6-1h2.4l4.7-3.3 4.8-3.2v-1.9l2-2 2-2.2 1.4-4 1.5-3.9v3l-4.7 10.2-10 8.6-5.2.6.5-1zm256.2.4-.5-.6.4-2.6.5-2.7.5-.4.4-.4v5.4l2.2-.7 2.3-.7-2.7 3.3h-2.5zm315.3-.9 1.2-1.5h3.8v2.1l-1-.6-.9-.5-1.2 2h-3.1zm174-2.7-3.5-3-7.5-6.7-2-.6-1.8-.6-1.2-3.2 1-1 3.8 2.5 3.8 2.6 3 2.8 3 2.9 7.4 5.6v1.9h-2.5zm-593.5.2-.6-1h4.2l-1.2 2h-1.9zm-63.5-1.9v-1l2-1.2v2l-2 1.2zm491-.1v-1h2v2h-2zm-194.5-1-.6-1h2l1.2 2h-2zm57.5.1v-1l2-1.2v2l-2 1.2zm287.5-.1.6-1h.9v2h-2.1zm-410.5-1-1.5-1 1.2-1.1 1.3-1.3 1.2 1.2-.4 1.6-.3 1.5zm-61-2.3 1.3-2.2 2.3-3.2 2.4-3.2v-1.9l-9.5.8 2-1.5 1.9-1.5 6.6 1.2 1.5-1.2 1.5-1.3 1 1-2.6 2.8-2.6 2.9-6 9.6h-.9zm-166-1 2.3-2.7h.7v1.5l-2.8 2-2.7 1.8 2.4-2.6zm41 1.5v-.9l3 .5 3 .4v.8h-6zm11.7-1.2 4.1-1.8.5-1.4.4-1.3-.4 2.5-.5 2.5-.1.1-.2.1-4 .6-4 .5zm125.9.7.6-1.8.6.6.6.5-2.5 2.5zm23.5-1.2-.1-3-4.9.3-4.9.4-1.8-2.7-1.9-2.7-1.8-1.9-1.7-1.9h3v-3h1.7v3l.2 3 .6 2 .6 1.9 4.4.6 3.6-.3 3.6-.4 4.6-10.3 7.9-9.6-.6-2.5-.7-2.4 2 1.2 1.9 1.2 1.7-1.7 1.5-1.7h1.9v1.2l-5 4v2.8l-1-.5-.8-.6-4.1 4.7-4 4.8v1.2l-.1 1.2-4.4 7.4-1.4 7.2zm81.9.6v-2l3.8-1.2 5.2-7.9v-1.2l3.2-3.1 3.1-3.2 16.6-22 4.5-6 4.6-5.8v-2l-2.8.7-2.7.6-4 .7-4 .6-1.7 1.4-1.6 1.4-.7-1-.6-1.1-1 .5-.9.6-8.5 1 1-1 1-.9 3.5-1 3.5-1.1 11-1.2 2.5-1.2 2.5-1.1 3-2.4 2.3-.6 2.2-.7v3.1l1.8-.5 1.7-.5 5.5-.6 5.5-.5 11-2 15.6-1.2 2.5 1.6 2.4 1.7v5.8l-1.2 3.2h-1.6l.2-3.2.1-3.2-5-2.6-15 1.2-6.5 1.3-6.5 1.2-10.7-.4-2.3 3.6-2.2 3.6-1.7 1.4-1.7 1.5-4 7.6h-1.9l-1.4 2.8-1.5 2.7-3 3.3-3.2 3.4-3.4 5.4-3.5 5.4v.6l-10.2 10.9-1.4 2.8-1.5 2.7h-1.9zm204.5.9.6-1h3l-1.2 2h-3zm-468.5-1.5-1.2-1.5h3.2v3h-.8zm224.6.8-.6-.6v-1.7h3v1.9l-.9.5-.8.5zm67.4-1.8v-2.5l1.6-2.5 1.7-2.5-.7-.6-.6-.6 1.1-1.4 1.1-1.3h-9.4l-1.8 2.3-1.8 2.2-1.6-1.6 1.3-.8 1.4-.9-.7-1-.7-1.2 7.4-.2.7.2v-2l2.7-2.5 2.8-2.5h3.4l1.6-3 1.6-3.2-1-2.8h1.8l2.8 2.5 2.8 2.4h-1.1l-1.2.1-.6-1.7-.7-1.7-1.5 1.6-1.5 1.5-.3 1.6-.2 1.5-1.6 3.4-1.7 3.3-2.5 5.4-2.6 5.5v4.5l-2 1.2zm5-15.1v-.4h-3v2l3-1.2zm1-2.4v-1h-2v2h2zm47.6 16-5.7-4h-2.9v-1.8l-3.6-2.1-3.4-2.1h-3v-2.5l7.6-.1 7.5-.2 2-2 2-2.2h2l-2.3 3-2.2 3h-3.2l-2.4 2.4v1.6h2.2l2.7 3 2.8 2.8 7.3 1.4v-2.7l1.2 2 1 2 .8.8 1.3-1 1.3-.8-2 1.8-1.8 1.7h-3.5zm-10-10.7-.6-.6-1.2 1.2.8 1.2.8 1.3.4-1.3.4-1.2zm152.8 11.6-1.9-2.1-6-3.2-1.3.2-1.2.3v-2l-4-1.2v-4.1l-1.3.5-1.4.5-1.2-.8-1.3-.8 1-.5.9-.6 3.6 2 3.7 1.9h1.9l2.5-2.3 2.5-2.2 3-2.4 3.1-2.3v-2l-2.4.4-2.5.5-.5-1.3-.5-1.4 4.4-.2 1.3.1 1.2.2v-2.1h3.5l5-8 4 .2 3.8.3.5 1.3.4 1.3-2.5-.6-2.6-.7-2 .7-2.1.6v2l-3.4 3.4 5.4.6v1.6l-3-.5-2.9-.4-3.5 3.5-3.6 3.7 1.2 3.6-1.2-1.6-1-1.5-7 7.2 2.7 2.5 2.7 2.4 5.5 2.7v2.7h-1.6zm214.6 1.1v-1h2v2h-2zm-761-1v-1h2.1l-1.2 2h-.9zm173.7-.1 1.3-1.3.5.6.6.6-1.8.6-1.8.7zm18.5.2.4-1.5 3.8-2.3 3.7-2.4-1 2-1.2 2.1h-2.2l-2 1.8-2 1.7zm376.8.2v-.8l2-3v3.4l-2 1.2zm-233.3-2-.6-.9 1.6-2.6.8 1.2.7 1.2-2 2zm82.3-1.3v-.9l1.7-1.3 1.6-1.4-1.2 2.3-1.1 2.3h-.9zm20.3.2 1.7-.5 1.3.5 1.2.5h-6zm-324.7-1.6.6-1.8.6.6.6.5-2.5 2.5zm72.2-.3 1.1-2.1-.5-.5-.4-.5 4.6-4.7 4.7-4.6.5.5.6.5-1.5 1.3-1.6 1.2-3.3 4.6-3.4 4.5-.9 1-1 1zm90.2.6-1.4-.9.7-.7.7-.8 2.4 2.4-.5.4-.5.5zm322-.4v-1.5l2-1.2v4.2h-2zm145.8.7 1.3-.5 1.2 1.2h-1.9l-1.9-.2zm-761.8-1.5v-.8l1.6-3 1.5-3-.6-.6-6-1.2-5.9-1.1-.7-1.2-.8-1.2.4-.4.3-.4 2.5 1.7 2.5 1.6 1.4-6 .6-.5.7-.4 33.9-1.3 1-.6.9-.6-1 2.8h-11.8l-5.2.3-5.2.2-1.6 1.7-1.7 1.6-.6-1-.7-.8h-7l-1.3.8-1.2.8v2.6l3 .7 3.2.6 3.8-2v2.2l3.3-.6 3.2-.7 2 .2 2 .1 21 .5 1.2-1 1.1-.8.7 1 .6 1.1 3.7-.5 3.7-.4 15-1.2-2 2-6 .5-6 .6-30 1-6.6.6-.4-.6-.4-.7h-3.7l-3.7.2-1 2-1.2 2-1.3 2-1.2 2zm15-8.7v-1h-2v2h2zm463.5 6.4-2.5-2.7v-3.7h-8.5l1.8-1.1 1.9-1 .6.5.6.6 3-2.7 2.9-2.8-.7 4.3-.6 4.3 1 1.8 1 2 5.1.6 5.2.7-2.8 1.8h-5.6zm60-.4-1.6-3 1.2-2h1.7v1.3l-.1 1.2.1 1.8.2 1.8 2.3.9 2.2.9h-2.2l-2.2.1zm8 2-.6-1h2.1v2h-.9zm203.5 0v-1h3v2h-3zm-461.3-1.7-2.7-1.4v-2.7l-1.3-.5-1.2-.5 2.5-.2 3.2 3 3.3 2.8-1 .8zm300.8.7-.6-1 1-1.7 1-1.8v1.8l.1 1.7h1.5l8-5.2-3.7 3.6-3.8 3.6h-2.9zm221.9-.4-.6-1.5 4.5-6.3 1 1.6.8 1.6-1.2 4-4 2zm-612.2-.7-2.2-.8-1.8.5-1.7.6 3-2 7 1.4-2 1.2zm293.7-.3 1.2-1.4 2-.5 1.9-.5v1.6l-3.1 1-3.1 1.2zm297.9.2-2.8-1v-1.7l2-.6 2.1-.7 2 1.7 1.9 1.8-.6.8-.5.9h-.7l-.7-.2zm29.7.2.6-1h.9v2h-2.1zm-549-1.1-.6-1 1.6-.5 1.6-.7 2 2-2 .6-2.1.5zm30 .2-.5-.9 1.3-1 1.2-.9 1.7-.6 1.6-.6.6 1.4.5 1.4-2.6-1-.6 1.5-.6 1.6h-2zm215.5-.6-1.2-1.4.4-1.1.4-1.2 1.7 2 1.8 2-1 .6-.9.6zm49.2-.5-1.2-2 2 1.2 2 1.3v1.5h-1.5zm118.5 1.2-1.7-.3v-3.1l-4-1v-2l-1.5.6-1.5.5v-2.9h-2v-2.2l1.5.6 1.4.5 1.6-2.8 4.8-.6.8 2.4-2.5.7-2.6.6v1.8l2.6 1 2.7 1 1.8-.5 1.9-.6v2.1h-2v1.9l4 1.2v1.5h-3.5zm-550.5-2.7.3-3 4.5-.6v1.8l-5.2 4.8zm43.8 1.4v-1l2 1.2v.9h-2zm151.3.4-2.3-.4v-2.4l2.8-3.6.5.8.4.8.7 2.8.6 2.7-.2-.1-.3-.2-2.3-.4zm244.4-.3.8-.8 4.8-1.4-.7 1-.6 1-5.2 1zm34.3-.3v-1.2l7.2-.4-.3.3-.4.3-6.5 2.2zm127 .5v-.7l.9-1.4.8-1.3.7 1 .7 1.2-1.2 2h-1.9zm-751.3-4.2.6-4.5.3-.4.4-.4v2.9l-.1 2.9-1 2-.8 2zm9.1 3.3 1.3-.5 1.2 1.2h-1.9l-1.9-.2zm324.9-.4 1.1-1.1 1.9 1 1.8 1.1h-3l-2.9.1zm27.8.1-.6-1h3.2l-1.2 2h-.8zm349.7-2.6-3.2-3.6v-1.6l3.8-.4 3.7-.5.5.4.5.5-1.9 1.3-1.9 1.4.6 1.6.6 1.5h6.1v1.8l-3.2 1.2h-2.4zm-316.4 2 1.3-.6 1.2 1.2h-1.9l-1.9-.2 1.3-.5zm9-.6 3.5-1 1 1.1 1.1 1.1h-4.5l-4.4-.2 3.4-1zm114.9-1.4 2.6-2.6-1.4-.8-1.4-.9 2.5-1 2.5-.9.9.8.8.8 1.7-.4 1.6-.5-6 3.4-1.8 2.3-1.8 2.4h-2.9zm209 1.1-.7-1.5h-3v-3h2.9l.6 1 .7 1.1 2.1-.2 2.2-.1 3 .2-6 4h-1.3zm9.3.6v-1l2-1.2v3.1h-2zm3.9-.3-.1-1.3v-1l1.4-4.7-2 .6-2 .7-1.2-2 .6-1.5.6-1.7 2 .7 1.9.6 7.6-5.6 1.3-.7v2.7l-4 4.2-4 4.1v3l4 1.2-.5 1-.6.9h-4.9zm-496.3-1.5 1.6-1.2 1.4.6 1.4.5v-2.2h3l2-5h2.1l-.6 2.3-.7 2.2-5 3.8-6.8.2zm195.4-.1v-1.3l7.2 1.4 1.8-2.8v2.5h4.9l1.2-2 1.7 1.6 1.6 1.7.4-1.2.4-1.1h3l-.5 1.3-.4 1.2h-21.3zm32.6.9-.5-.8-4.2.2-4.2.3 1.5-.9 1.5-.8 5.6-.6 5.7-.5v1.7l-2.5 1.1-2.4 1.1zm135.3-.8 1-1.8 6.4-6-3.8 4.8-4 4.7h-.5zm34.1.1v-2l4-1 4-1.1v.8l-1.4 1.5-1.6 1.4h-2.7l-2.4 2.4zm-529-.3v-1.1h-5.5l3-2 11.5.2v1.6l-1.5.6-1.5.5-1.5-.5-1.5-.6-3 2.4zm303.5 0-.5-1 2-1.2v3.1h-.9l-.6-1zm140.5-.1-1.4-1 1.3-2.4 1.3-2.5 3-2.1 2.8-2.2v3.2h-2.7l-1.7 1.9-1.7 1.8 3.1 2.5-.6 1-.5.8h-1.4zm65 0v-.7l2.9-3.9v1.2l.1 1.1-1.2 3.2h-1.8zm-497.7-1.4.4-1.2 3.9-.3 3.9-.4 5.3.7 5.2.6-.5 1-.6.9h-9l-9-.2zm-42-.4 1.7-.4 1.8.4 1.7.5h-7zm180.3-1.8.6-1.5h.8v3h-2zm31-.2-.7-1.8 2.5 2.5-.6.5-.6.6zm115-1.4-4.6-3v-2l3.8 2.2 3.7 2.2 2.9 2.7-.5.5-.6.5zm52.4 2.2v-1h4.5l-3 2h-1.5zm42 0 1.5-1h1.6l-1.2 2h-3.4zm5-.1v-1.1l2.5.4 2.5.5.6-.8.5-.9h4.4l-5.7 3h-4.8zm157-1.4v-2.5h-2.8l.5-2.1.6-2.1-2.3 1.2-2.2 1.1 2 2.6-.6.6-.6.7h-1.8l1.2-2h-4.6l3-2-1.9-1.5-1.9-1.4-1-.4-1.2-.4.7-.7.6-.8 2 1 1.8 1 7.5-1.6 7.3 3.6 2.6-1v-2.8h1l1.8.8 1.7.9 3.3 1.6 3.4 1.7h2.9l-.7 1-.6 1.2-7.3-1.4-4.3-.3-4.2-.4v2.9h-2l1.2-3h-2l-1.8-.7-1.7-.6.6 1.7.7 1.8 1.2 4.8h-2.1zm-703 1.1v-.4l1.8-1.3 1.7-1.4-2.7 3.5h-.8zm192.5-.6.6-1h.9v2h-2.1zm-170.6-1.5 1-2 8.1-10.9v2.4l-3.2 3.2.6 1.4.5 1.5h-2.3l-2.8 3.3-2.9 3.2zm188.1 0v-1.5h2.9l4.2-6h1.9v5.8l-1.4-.2-1.5-.1v1.8l-1.3.8-1.3.9h-3.5zm167.5-.5-.7-2 2.5-3.4 2.5-3.2 11.1-6.9-.4-6 2.8-1.3 2.8-1.4 6.2 2.2 2.4-2 1.2 1.2-.6 1.4-.5 1.4h-3.5l-6.8 4.6-4.7 2.2-4.6 2.3-9.4 8.7.7 2.1.6 2.1h-1zm21.9-19.2 1-1.7-1.4-1.4-2.5 1.1-2.5 1.2v3l4.3-.6zm170.6 19.6v-1.4l2 1.2v1.8h-2zm18.3.4-3.3-1v-3.8l2.3 1.2 2.4 1.3 3.4 3.4-1.6-.2zm89.7.5v-1l4-4.8v3.2l-4 3.6zm-571-1.6v-1.7l-3.5.3-3.5.4 1-1.2 1-1.3 2.7-.7 2.6-.6 1.8 1.8-2 4.8v-1.8zm371-.2v-1.5h.8l.6 1.5.5 1.5h-1.9zm39.6.6-.7-1 2.2-1.1 2-1.2-.6 3.5-1.2.4-1.1.4zm58.4-.1v-1h1.9l1.2 2h-3.1zm-397.5-1-.6-1h3.1v2h-1.9zm484.5 0v-1h1.9l1.2 2h-3.1zm165 .3-3.5-.5-.7-1.1-.8-1.2v-1.3l2.8.1 2.7.2.6.9.7.8 10.7.6 1 .2-3 2-3.5-.2-3.5-.1zm-823.4-2.5 1.9-2.6.9.9-2.3 2.2-2.4 2.2zm527.5.7v-2l.9-1.5.9-1.4.5.4.4.5-2.6 6zm-442.3-.2 1.3-.5 1.2 1.2h-1.9l-1.9-.2zm406.8-.7.6-1.6h2l-.8 2.4-2.4.8zm-461-1.1-2-1.5h2.2l2.4 3h-.7l-2-1.5zm127.4-.3v-1.2h5v2.8l-2.5-.2-2.5-.1zm486.6.3 1.9-1.4h1.8l1.7-.1v1.9l-1 .5-.8.6-.6-1.2-.6-1.3-.6 1.3-.6 1.2h-3.2zm16.4 0v-1.4l2-1.2-.5-1-.6-.9-7.4-.2 5-1.4 1.8.4 1.9.5 1 2.4 1.2 2.4-1.5 1-1.4.9h-1.5zm-602.6-.8.6-1.9v-5.8h2l-.7 3.3-.6 3.2-1 1.5-.9 1.5zm93.4.6 1.3-.5 1.2 1.2h-1.9l-1.9-.2zm-126-1 1.3-.5 1.2 1.2h-1.9l-1.9-.2zm546 0-1.8-.3v-2l2.8-2.4 2.7-2.4h.8l.7-.1-3.2 5h2l.6 1.5.5 1.5-3.4-.2-1.8-.5zm27.2 0v-1l8.1-5.3-.6 3.5-2 .3-2 .4-1.8 1.6-1.7 1.5zm69.7.1-.6-.6.6-1.4.5-1.4h8.7l5.2 2-1.2 2-2-1.2-10.1-1 .6 1.1.7 1.1h-1.8zm139.3-.3v-.9l1.3-1 1.4-1.2 1.2 1.2-.6 1.4-.5 1.4h-2.8zm-322-2v-1l4-1.2v-1.9h4.4l-1.4 1.3-1.5 1.3-2.8 1.2-2.7 1.2zm164.1-.5-1-1.3.6-.6.6-.7h2.7v2.9l-.9.5-.9.6zm51.6-.3-.7-.6v-2.9l3 2.4v1.8h-1.7zm-65-1-.7-.6v-2.2l.8 1.2.8 1.3 6.3-2.4 1.4 1.4-.4.4-.4.3-3.6.7-3.5.6zm-207.7-1.2v-1l2-1.2v3.1h-2zm136-1v-1.1h2v-2h-10.9l-1.2-2h4.1v-1.9l-2-1.2v-2.4l2.4 2.6 2.3 2.6 7.3 1.4 1.7-2 1.7-2.1h1.4l-1.1 2.3-1.1 2.4-3.3 2.2-3.3 2.1zm152.8-1 3.2-2.1h2v3h-3.5l-5 1.2zm-111.8.1-2.5-.3-4.8-1 2-2 2.1 1 2 1.1 1.9-.2 1.8-.1 7.8.1 7.8.2-1.2 2-7.2-.3-7.2-.2zm-579-.8v-1l1.9-1.8 1.9-1.7 7.5-14.9-1.1-2.5-1.2-2.5h-6l-10.5 9.5-5 4 3-4 6.5-6.2 6.5-6.3h5.5l3.2 5v4.8l-4.9 10.7-7.2 8v-1.1zm564-.9v-1.5h1.8l3.2 1.2-.6.9-.5.9h-3.9zm-10-.7v-.8h6.9l.6 1 .6.9-4-.2-4.1-.1zm-202-.8v-1h2v2h-2zm163.9-1.3 1-1.4 3 .5 3.1.4v1.8h-8.2zm-138.9-.7v-1h2v2h-2zm82.5 0-.6-1h3.1v2h-1.9zm51.3.3 1.3-.5 1.2 1.2h-1.9l-1.9-.2zm-526.8-2.3v-1h2.1l-1.2 2h-.9zm654-4.8v-1.7l5.1-3.6 7.8-.4-.4 2-4.5-.6v2.1h-2.7l-3.6 4h-1.7zm23 .3-1.2-1.5h-2.8v-2l3.8.4 3.7.3 2.8 1.1 2.8 1.2-1.2 2h-6.7zm-108-2.1 2.5-2.6 2.6-1.3 2.6-1.4 8-6.6 2.3-1.5 2.2-1.5 3.9.6v-2.1h2v2.9l-3 1.6-3.2 1.6-2.6-1-.6 1.4-.5 1.4-6.6 3.4-5.2 3.9-5.4 3.8h-1.4zm-179.4-7.4-.6-1h2.1v2h-.9z"/>
</svg>
