<?xml version="1.0" encoding="utf-8"?>
<svg xmlns="http://www.w3.org/2000/svg" version="1.1" viewBox="0 0 200 78">
	<path d="m 66.34855,77.73502 c -0.43506,-0.70586 -0.24923,-3.2614 0.28446,-3.91163 0.50589,-0.61639 1.07033,-10.83043 0.71178,-12.88056 -0.33349,-1.90691 -0.19101,-1.977 3.69807,-1.81911 l 2.97727,0.12086 -0.10354,7.04329 c -0.0614,4.17903 0.0588,7.24103 0.29563,7.52958 0.21955,0.26747 0.46104,1.21657 0.53663,2.10911 0.10712,1.26484 -0.0128,1.65182 -0.54363,1.75433 -0.37459,0.0723 -0.88248,-0.24584 -1.12864,-0.70704 -0.36347,-0.68099 -0.84249,-0.83857 -2.54907,-0.83857 -1.79012,0 -2.22934,0.16077 -2.9644,1.08512 -0.68762,0.86468 -0.93435,0.96922 -1.21456,0.51462 z m 4.68538,-9.53634 c 0,-2.84903 -0.15882,-4.68054 -0.40591,-4.68054 -0.22325,0 -0.40591,0.98047 -0.40591,2.17882 0,1.19834 -0.11735,3.3046 -0.26078,4.68054 -0.22463,2.155 -0.16837,2.50174 0.40591,2.50174 0.57966,0 0.66669,-0.61097 0.66669,-4.68056 z m -48.30307,8.09165 c -0.84699,-0.24507 -2.39211,-2.60906 -2.89214,-4.42492 -0.52645,-1.91176 -0.65912,-6.8525 -0.2375,-8.84405 1.11203,-5.25273 6.74459,-5.33448 6.84939,-0.0994 0.0315,1.57621 -0.14167,2.11488 -0.87038,2.70654 -1.11757,0.9074 -1.77703,0.93335 -2.46914,0.0972 -0.43951,-0.531 -0.43261,-0.70248 0.04,-0.99537 0.31406,-0.19462 0.42937,-0.49587 0.25626,-0.66945 -1.24579,-1.24917 -1.33355,5.5138 -0.0961,7.40747 0.57705,0.88308 0.89022,1.01294 1.90421,0.78963 l 1.21357,-0.26727 -0.12398,2.17407 -0.12398,2.17407 -1.42067,0.0639 c -0.78138,0.0351 -1.69468,-0.0154 -2.02955,-0.11231 z m 6.81666,-0.37856 C 28.11123,75.13005 27.8477,73.71221 27.82375,66.63812 l -0.0189,-5.63063 1.13888,-0.9832 c 1.5482,-1.33658 2.82471,-1.25285 4.10184,0.26904 1.12239,1.33748 1.29226,2.88662 1.11236,10.14389 -0.0897,3.61871 -0.57065,5.02212 -1.93463,5.64526 -1.2465,0.56948 -1.3249,0.56447 -2.67564,-0.17071 z m 2.02733,-7.64928 c -0.14434,-4.85532 -0.8816,-5.2598 -1.04855,-0.57526 -0.13385,3.75583 0.14382,5.5342 0.76659,4.90974 0.22355,-0.22414 0.3475,-2.12983 0.28196,-4.33448 z m 13.08024,7.87601 c -0.69877,-0.43303 -0.36619,-5.53144 0.35088,-5.37878 0.46096,0.0982 0.5278,-0.92195 0.381,-5.81453 l -0.17803,-5.93356 3.47513,0.11648 c 3.22097,0.10796 3.46482,0.17601 3.33423,0.93049 -0.16555,0.9564 -0.14393,13.86907 0.0252,15.05917 0.10064,0.70817 -0.11636,0.81401 -1.66907,0.81401 l -1.78475,0 0.0115,-6.30858 c 0.009,-4.90156 -0.0577,-5.71853 -0.29882,-3.66304 -0.17069,1.45504 -0.3317,3.86989 -0.3578,5.36632 -0.0261,1.49643 -0.21649,3.16663 -0.42311,3.71155 -0.38193,1.00726 -2.00887,1.63188 -2.8664,1.10047 z m 14.3861,-0.59523 c -0.97467,-0.97731 -1.06504,-1.45257 -1.10203,-5.79657 -0.004,-0.49171 -0.2812,-0.99929 -0.61557,-1.12794 -0.52215,-0.20091 -0.57943,0.3131 -0.40581,3.6413 l 0.20215,3.87522 -1.68492,0 -1.68491,0 0.0163,-7.22434 c 0.009,-3.97338 -0.075,-7.77378 -0.18657,-8.44534 -0.19382,-1.166 -0.13198,-1.22685 1.37268,-1.35054 0.8666,-0.0712 1.71332,0.0204 1.88161,0.20351 0.16827,0.18316 0.17733,1.29169 0.0201,2.46341 -0.31157,2.32194 0.0826,3.6131 0.77847,2.55016 0.21983,-0.33578 0.40249,-1.21219 0.40591,-1.94759 0.0187,-4.04293 5.08794,-5.07933 6.37636,-1.30367 0.71726,2.10192 0.67553,11.47597 -0.0588,13.23853 -0.96099,2.30617 -3.62396,2.91937 -5.3149,1.22386 z m 2.97622,-7.13881 c 0.0725,-2.61973 -0.0486,-4.37066 -0.32134,-4.6441 -0.78278,-0.78491 -1.20329,0.62303 -1.20399,4.03132 -8.1e-4,3.68374 0.28824,5.1904 0.95321,4.9694 0.2874,-0.0956 0.4987,-1.70461 0.57212,-4.35662 z M 35.62489,75.90432 C 35.49821,75.7773 35.58159,74.9989 35.81022,74.17455 36.23085,72.65781 35.98409,62.3643 35.47386,60.14306 l -0.26108,-1.13654 3.39936,0.11903 3.39936,0.11903 0.12576,1.98332 c 0.0692,1.09081 0.0196,2.26045 -0.10995,2.59918 -0.20719,0.54138 -0.32445,0.53533 -0.96953,-0.05 -1.11452,-1.01134 -2.0906,-0.84719 -2.0906,0.35161 0,0.80143 0.20596,1.01751 0.96981,1.01751 1.77451,0 2.67288,1.18903 2.92136,3.86655 0.2803,3.02024 -0.0896,5.69462 -0.89999,6.50721 -0.42666,0.42781 -1.45025,0.61537 -3.35843,0.61537 -1.50959,0 -2.84835,-0.10393 -2.97504,-0.23096 z m 4.48078,-4.95835 c -0.086,-1.34446 -0.29999,-1.93327 -0.70248,-1.93327 -0.37633,0 -0.5727,0.42708 -0.56142,1.22101 0.0329,2.3147 0.1275,2.64553 0.75652,2.64553 0.49965,0 0.60533,-0.40267 0.50738,-1.93327 z m 35.95305,3.66304 c 0.14306,-0.83945 0.53782,-4.4567 0.87725,-8.03834 0.33944,-3.58164 0.6972,-6.74101 0.79504,-7.02084 0.11335,-0.32418 0.99241,-0.50875 2.42312,-0.50875 1.23487,0 2.25267,0.0458 2.26175,0.10176 0.009,0.0559 0.37461,3.30691 0.81226,7.22433 0.43765,3.91741 0.90761,7.71782 1.04433,8.44534 l 0.24857,1.32277 -1.88802,0 c -1.81738,0 -1.88365,-0.0419 -1.77118,-1.11927 0.0926,-0.88697 -0.0516,-1.11925 -0.69497,-1.11925 -0.64334,0 -0.78757,0.23228 -0.69498,1.11925 0.11252,1.07792 0.0468,1.11927 -1.77822,1.11927 l -1.89505,0 0.2601,-1.52627 z m 4.43744,-7.35753 c -0.1528,-1.82753 -0.37897,-2.76638 -0.58713,-2.43722 -0.40679,0.64323 -0.46719,5.37082 -0.0737,5.7654 0.6529,0.65466 0.89278,-0.55352 0.66079,-3.32818 z m 5.35343,0.35536 0,-8.56548 0.94228,-1.4e-4 c 0.85663,-1.3e-4 0.88429,-0.0583 0.30443,-0.63972 -1.37373,-1.37744 -0.81195,-1.80244 2.3825,-1.80244 3.35097,0 4.14814,0.50349 2.68197,1.69393 l -0.92136,0.74809 1.16121,9e-5 1.16121,9e-5 -0.0435,8.44526 -0.0435,8.44526 -1.60463,0.12138 -1.60464,0.12138 0.13837,-3.78442 0.13838,-3.78443 -0.85809,1.57345 c -0.63618,1.16658 -0.82309,2.11378 -0.72276,3.66305 l 0.13531,2.08959 -1.62363,0.12027 -1.62362,0.12029 0,-8.5655 z m 4.45822,-7.37561 c -0.53201,-2.42876 -1.41301,-0.8619 -1.39044,2.47289 l 0.0124,1.83153 0.81936,-1.55714 c 0.56151,-1.06709 0.73732,-1.93168 0.55867,-2.74728 z m 0.007,-2.81816 c -0.13796,-0.22385 -0.42273,-0.40701 -0.63281,-0.40701 -0.21008,0 -0.38195,0.18316 -0.38195,0.40701 0,0.22384 0.28477,0.40699 0.63282,0.40699 0.34805,0 0.51992,-0.18315 0.38194,-0.40699 z m 12.76635,18.36157 c -0.0109,-0.13743 -0.0564,-3.95863 -0.10147,-8.49155 l -0.0817,-8.2417 3.1458,-1.5e-4 c 2.21924,-1.2e-4 3.16061,0.14969 3.19614,0.50859 0.10626,1.0734 -0.14105,4.99552 -0.32716,5.18868 -0.10751,0.11157 -0.42902,-0.11737 -0.71442,-0.50876 -0.72274,-0.99106 -2.25605,-0.93737 -2.25605,0.079 0,0.63916 0.33046,0.81458 1.72511,0.91576 1.4129,0.10251 1.72511,0.27248 1.72511,0.93916 0,0.64443 -0.33826,0.85641 -1.62362,1.01751 l -1.62365,0.20351 -0.12001,2.74728 c -0.11195,2.56228 -0.0623,2.74728 0.73701,2.74728 0.47138,0 1.226,-0.19799 1.67695,-0.43998 1.03619,-0.55605 1.25428,-0.32714 1.28809,1.352 0.0437,2.17211 -0.28368,2.38073 -3.61501,2.30328 -1.65624,-0.0385 -3.02023,-0.18246 -3.0311,-0.3199 z m 19.71369,-0.0344 c -0.13394,-0.21727 0.0379,-0.94078 0.38194,-1.6078 0.344,-0.66701 0.62545,-2.04603 0.62545,-3.06448 l 0,-1.85173 -1.57392,0 c -0.86567,0 -1.76499,-0.23082 -1.99849,-0.51293 -0.23349,-0.28211 -0.51907,-2.15941 -0.63463,-4.17179 -0.11556,-2.01239 -0.26653,-4.02518 -0.33549,-4.47288 -0.10941,-0.71016 0.1034,-0.81402 1.66791,-0.81402 l 1.79333,0 -0.0954,2.95079 c -0.0825,2.55088 -9.9e-4,2.95078 0.59924,2.95078 0.61437,0 0.66806,-0.35297 0.46444,-3.05253 l -0.23024,-3.05254 1.69382,1.4e-4 1.6938,1.5e-4 0,8.54705 0,8.54705 -1.90411,-9e-5 c -1.04726,-5e-5 -2.01368,-0.17787 -2.14759,-0.39516 z m 5.67534,-8.17972 0,-8.51941 1.67091,0 1.67091,0 -0.16766,2.95078 -0.16765,2.95079 0.86962,-1.78908 c 0.5665,-1.16545 0.78886,-2.19401 0.63791,-2.95078 -0.22559,-1.13097 -0.18635,-1.16171 1.48325,-1.1616 l 1.71496,1.1e-4 0,8.54706 0,8.54707 -1.4982,-8e-5 c -0.824,-4e-5 -1.57451,-0.13743 -1.66777,-0.30533 -0.0932,-0.16789 -0.0574,-1.90783 0.0798,-3.86654 0.13714,-1.95871 0.13615,-3.56129 -0.002,-3.56129 -0.61225,0 -1.63732,3.79502 -1.51158,5.59615 l 0.13482,1.93344 -1.62363,0.0741 -1.62363,0.0741 0,-8.51941 z m 11.04545,7.60148 c -1.36736,-1.27064 -1.62097,-2.83005 -1.44732,-8.89898 0.11192,-3.91073 0.29997,-5.25934 0.85093,-6.10206 0.86146,-1.31766 3.04793,-1.83612 4.75441,-1.12737 1.06177,0.441 1.1444,0.60261 0.78829,1.5418 -0.21881,0.57704 -0.28825,1.54936 -0.15435,2.16072 0.29015,1.32459 -0.28712,1.80881 -1.3574,1.13862 -1.40957,-0.88268 -2.09598,-0.18494 -2.13915,2.17444 -0.0713,3.89707 0.0931,5.39828 0.65423,5.97715 0.47522,0.49017 0.70712,0.47105 1.62847,-0.13428 0.59089,-0.3882 1.12468,-0.6454 1.18622,-0.57155 0.0615,0.0739 0.20946,0.90141 0.32872,1.83904 0.16465,1.29438 0.0482,1.85775 -0.48348,2.34027 -1.07193,0.97269 -3.38147,0.80345 -4.60957,-0.3378 z m 8.19709,0.63196 c -0.021,-0.14804 -0.006,-2.87908 0.0337,-6.06897 0.0669,-5.40476 -0.18352,-6.73426 -1.01443,-5.38618 -0.56735,0.9205 -0.95994,-0.16753 -0.95994,-2.66047 l 0,-2.63723 3.42486,0 3.42484,0 0,2.68966 c 0,2.6365 -0.0193,2.68479 -0.97505,2.44427 -0.97496,-0.24537 -0.97503,-0.24513 -0.83572,2.90666 0.0766,1.73362 0.19573,4.4341 0.2647,6.00107 l 0.12539,2.84904 -1.72511,0.0657 c -0.9488,0.0361 -1.74225,-0.0555 -1.76319,-0.2035 z m 7.69384,-0.43523 c -0.86623,-0.70198 -0.97776,-1.18087 -1.16122,-4.9858 -0.31208,-6.47252 0.0829,-10.08528 1.20208,-10.99396 1.06094,-0.8614 3.15346,-0.95697 4.16025,-0.19 1.22147,0.93053 1.53811,2.62732 1.53811,8.24245 0,4.09914 -0.15517,5.78915 -0.61305,6.67702 -1.08587,2.10548 -3.38033,2.66512 -5.12617,1.25029 z m 2.89786,-7.16001 c 0,-3.77907 -0.35071,-5.27858 -1.06666,-4.56068 -0.28521,0.28598 -0.22151,8.39066 0.0697,8.86305 0.64601,1.04811 0.99699,-0.46646 0.99699,-4.30237 z m 6.29158,7.67049 c -0.25433,-0.0878 -0.35367,-2.35048 -0.26599,-6.05957 l 0.13989,-5.91932 -1.07285,0.27 -1.07286,0.26999 0.12113,-2.77393 0.12114,-2.77393 3.24726,-0.0225 3.24728,-0.0225 0.12001,2.74728 c 0.11235,2.57147 -0.25377,3.44039 -0.96404,2.28801 -0.68921,-1.11815 -0.89966,1.02137 -0.60652,6.16608 0.1719,3.0172 0.29461,5.51247 0.27268,5.54504 -0.10884,0.16168 -2.93491,0.40687 -3.28713,0.28519 z m 6.84398,-0.34517 c -0.16222,-0.42388 0.28578,-1.10166 1.32161,-1.99948 l 1.567,-1.35824 -1.28317,-1.2019 c -1.37026,-1.28348 -1.56557,-1.99485 -1.93253,-7.03925 -0.12214,-1.6789 -0.33543,-3.55621 -0.47396,-4.1718 -0.24258,-1.07787 -0.19131,-1.11926 1.38652,-1.11926 l 1.63842,0 0.2884,4.07881 c 0.399,5.64308 1.18431,5.90877 0.89903,0.30418 l -0.21827,-4.28831 1.59987,-0.0222 c 0.99242,-0.0137 1.68044,0.18833 1.81201,0.53217 0.60868,1.59044 -1.12365,15.45924 -2.04658,16.38466 -0.11956,0.11988 -1.13889,0.29084 -2.26515,0.3799 -1.59221,0.12591 -2.10237,0.0192 -2.2932,-0.47933 z m 8.0496,0.18284 c -0.80557,-0.32402 -0.91933,-0.61984 -0.81182,-2.11097 0.11663,-1.61748 0.205,-1.73415 1.31354,-1.73415 0.96325,0 1.24707,0.2195 1.49741,1.15805 0.31146,1.16772 -0.1653,3.13749 -0.7478,3.0897 -0.17298,-0.0142 -0.73606,-0.19537 -1.25133,-0.40263 z m -82.5392,-5.88015 c 0.10198,-3.95486 0.0113,-5.90156 -0.27491,-5.90156 -0.23488,0 -0.54181,0.18613 -0.68204,0.41364 -0.57699,0.93611 -1.01068,-0.21228 -1.01068,-2.67619 l 0,-2.62151 3.21121,0 3.21122,0 0.13752,2.44928 c 0.16747,2.98248 0.0484,3.44321 -0.72356,2.80077 -0.31857,-0.2651 -0.67955,-0.38137 -0.80219,-0.2584 -0.30015,0.30096 -0.23412,8.6646 0.0817,10.3528 l 0.25123,1.34274 -1.77586,0 -1.77587,0 0.1522,-5.90157 z M 0,51.53171 c 0,-1.19143 0.20956,-1.92889 0.61234,-2.1549 0.50181,-0.28159 0.6362,-1.64872 0.74458,-7.57453 l 0.13224,-7.23092 3.41598,-0.077 3.41598,-0.077 -0.1468,6.98891 c -0.12459,5.93155 -0.0478,7.13058 0.50739,7.92539 0.67806,0.97069 0.83359,2.25503 0.4078,3.36762 C 8.73879,53.61571 8.15344,53.49783 7.23383,52.32556 6.6217,51.54527 6.05965,51.30805 4.82299,51.30805 c -1.17892,0 -1.88554,0.27366 -2.6274,1.01751 C 0.63521,53.89017 0,53.66051 0,51.53178 Z m 5.17211,-7.43349 c 0.0275,-5.51939 -0.54005,-6.03152 -0.89514,-0.80777 -0.16116,2.3707 -0.17215,4.50642 -0.0244,4.74607 0.621,1.00751 0.90092,-0.19133 0.91958,-3.9383 z m 132.43077,6.83668 c 0,-1.17913 0.19731,-2.06706 0.48038,-2.16167 0.33958,-0.1135 0.51796,-2.30067 0.60857,-7.46175 l 0.1282,-7.30119 3.34902,0 c 2.76966,0 3.32437,0.10562 3.20649,0.61051 -0.36882,1.57977 -0.10696,13.54728 0.3055,13.96085 0.54763,0.54912 0.59316,3.80806 0.0579,4.1398 -0.21344,0.13227 -0.69109,-0.22322 -1.06145,-0.78999 -0.57953,-0.88687 -0.9715,-1.03049 -2.8125,-1.03049 -1.83382,0 -2.23402,0.14524 -2.80402,1.01752 -1.00503,1.538 -1.45801,1.23241 -1.45801,-0.98359 z m 4.84073,-7.76754 c -0.027,-2.46266 -0.18755,-4.5634 -0.35683,-4.6683 -0.30636,-0.18985 -0.83073,4.59438 -0.83073,7.57927 0,1.13185 0.17159,1.56661 0.61832,1.56661 0.5193,0 0.61045,-0.71689 0.56924,-4.47758 z m 54.86626,8.24238 c 0.0283,-0.6156 -0.077,-1.68453 -0.23395,-2.37541 -0.27957,-1.2307 0.47772,-2.61041 1.43281,-2.61041 0.81614,0 1.7032,2.04643 1.44602,3.33584 -0.49063,2.45974 -2.74669,3.86716 -2.64488,1.64998 z M 10.63479,51.22658 c -0.2679,-0.26862 -0.48709,-1.55069 -0.48709,-2.84903 0,-1.89945 0.12778,-2.36062 0.65403,-2.36062 0.5777,0 0.63692,-0.67692 0.50739,-5.79982 l -0.14665,-5.79982 3.15245,-0.052 c 1.73385,-0.0287 3.25405,0.11275 3.37822,0.31421 0.12418,0.20147 0.25818,4.02538 0.29778,8.49758 l 0.072,8.13127 -1.63974,-1.5e-4 -1.63974,-1.4e-4 0.0974,-6.10507 c 0.0535,-3.35778 -0.0496,-6.10506 -0.22929,-6.10506 -0.17965,0 -0.45077,2.51833 -0.60249,5.5963 -0.24511,4.97268 -0.36979,5.67569 -1.11877,6.30858 -0.98915,0.83582 -1.62343,0.89768 -2.29544,0.22385 z m 8.98099,-0.83436 c 1.31138,-5.29447 1.41745,-6.13566 0.84596,-6.70869 -0.40585,-0.40695 -0.57224,-1.61731 -0.57224,-4.16266 0,-4.87969 0.41097,-5.39387 4.17723,-5.22623 l 2.75589,0.12265 0.0851,8.44541 0.0851,8.44542 -1.68672,-7e-5 -1.68673,-7e-5 0.21913,-3.35778 c 0.26855,-4.1155 -0.11541,-3.9973 -0.74222,0.22847 l -0.46418,3.12931 -1.62161,0 c -1.47827,0 -1.60156,-0.0809 -1.39478,-0.91576 z m 4.12985,-10.68387 c 0,-1.30307 -0.77849,-1.81496 -1.17692,-0.77387 -0.35021,0.9151 0.11164,2.2831 0.70398,2.08512 0.26012,-0.0869 0.47294,-0.677 0.47294,-1.31125 z m 14.40225,11.49789 c -0.004,-0.0559 -0.0498,-3.9022 -0.10148,-8.54717 l -0.094,-8.44541 2.63841,0.013 c 3.6837,0.0181 4.19511,0.49155 4.39676,4.06972 0.098,1.73822 -0.0166,3.05912 -0.29449,3.39482 -0.3406,0.4115 -0.28949,0.94631 0.20352,2.12942 0.46612,1.11859 0.59111,2.23437 0.42808,3.82137 -0.30893,3.00726 -1.13116,3.66599 -4.57589,3.66599 -1.42639,0 -2.59681,-0.0458 -2.60092,-0.10174 z m 4.39148,-4.64146 c 0.077,-0.77071 -0.17998,-1.58466 -0.69684,-2.20717 l -0.81879,-0.98622 -0.0135,1.69648 c -0.007,0.93307 0.10033,1.99393 0.23946,2.35748 0.38839,1.01487 1.15333,0.50444 1.28967,-0.86057 z m -0.16473,-7.63546 c -0.13587,-0.35501 -0.41589,-0.64549 -0.62225,-0.64549 -0.65603,0 -0.86621,1.20755 -0.32417,1.86242 0.45718,0.55235 0.56416,0.55607 0.85787,0.0298 0.18457,-0.33069 0.22441,-0.89172 0.0885,-1.24674 z m 4.99506,12.04357 c -0.37964,-0.0724 -0.69024,-0.18475 -0.69024,-0.2497 0,-0.065 0.16623,-1.01308 0.3694,-2.10694 0.20318,-1.09385 0.49989,-4.0035 0.65936,-6.46587 0.15947,-2.46238 0.40563,-5.30124 0.54702,-6.30858 l 0.25708,-1.83151 1.82344,-0.10604 c 1.0029,-0.0583 2.06184,0.0503 2.3532,0.24139 0.32767,0.21488 0.69118,1.96313 0.95295,4.58308 0.40929,4.09642 1.25448,10.10618 1.59737,11.35825 0.12862,0.46964 -0.28081,0.63925 -1.77431,0.73511 -1.87954,0.12062 -1.93357,0.0928 -1.69223,-0.87136 0.14145,-0.56511 0.0518,-1.11836 -0.20728,-1.2789 -0.73424,-0.45502 -1.5419,0.51866 -1.33414,1.60838 0.17026,0.89309 0.0626,0.99241 -0.99016,0.91318 -0.64968,-0.0489 -1.49182,-0.14812 -1.87146,-0.22049 z m 4.17712,-6.07523 c -0.002,-0.6156 -0.12023,-2.09367 -0.26287,-3.28461 -0.34976,-2.92034 -0.93708,-1.8909 -0.94511,1.6566 -0.005,2.17345 0.12095,2.74728 0.60265,2.74728 0.39446,0 0.60762,-0.39414 0.60533,-1.11927 z m 5.11739,-2.44231 c 0.0289,-6.10158 0.16972,-8.43377 0.50739,-8.40436 0.25705,0.0224 0.97011,0.0682 1.58458,0.10174 l 1.1172,0.0611 -8.1e-4,6.81732 c -8.1e-4,5.78894 0.0909,6.81733 0.6079,6.81733 0.51115,0 0.60887,-0.88184 0.60887,-5.49456 0,-3.02201 -0.13243,-6.08981 -0.29428,-6.81733 l -0.29444,-1.32276 1.80663,0 1.80662,0 0.11129,6.7164 c 0.15087,9.1046 0.91547,9.01927 0.94565,-0.10553 l 0.0225,-6.81437 1.5186,0 1.5186,0 0.0825,8.44549 0.0825,8.4455 -5.88567,-4.1e-4 -5.88567,-4.1e-4 0.04,-8.44505 z m 12.4817,0.0849 -0.0614,-8.35928 3.10575,0.11815 3.10576,0.11815 0.0217,2.44203 c 0.0266,2.98926 -0.10259,3.28949 -1.04659,2.43286 -0.8675,-0.7872 -2.22239,-0.65415 -2.22239,0.21825 0,0.4005 0.54868,0.67369 1.62363,0.80843 1.28537,0.1611 1.62363,0.37309 1.62363,1.01751 0,0.64442 -0.33826,0.8564 -1.62363,1.01751 l -1.62363,0.20351 -0.12099,2.54904 c -0.13182,2.77738 0.46794,3.55951 1.99583,2.60275 1.27555,-0.79875 1.57538,-0.53986 1.57538,1.36028 l 0,1.83151 -3.1458,-8.1e-4 -3.14579,-8.1e-4 -0.0614,-8.35928 z m 8.17612,-0.0846 0.004,-8.44534 2.94284,-0.0503 c 1.91909,-0.0329 2.95487,0.10875 2.97744,0.407 0.0841,1.11104 -0.11845,4.95025 -0.2691,5.10149 -0.0915,0.0919 -0.50159,-0.13704 -0.91122,-0.50876 -1.58722,-1.44029 -1.74759,-0.96449 -1.58995,4.71696 0.0823,2.96605 0.29614,5.80491 0.47522,6.30858 0.30899,0.86909 0.22474,0.91575 -1.65331,0.91575 l -1.97889,0 0.004,-8.44534 z m 9.02933,7.93659 c -1.18569,-0.9028 -1.51666,-2.69215 -1.51056,-8.16659 0.007,-5.86475 0.32765,-7.06242 2.12515,-7.92664 0.91731,-0.44103 1.28682,-0.42461 2.30319,0.10239 1.66646,0.86409 2.05522,2.58131 2.05794,9.09026 0.002,5.20413 -0.0359,5.44956 -0.99405,6.41032 -1.09142,1.09437 -2.8964,1.31662 -3.98167,0.49026 z m 2.16861,-4.27355 c 0.0793,-3.78502 -0.1188,-6.84912 -0.46575,-7.20398 -0.2339,-0.23923 -0.37805,1.35138 -0.37805,4.1718 0,2.76763 0.15947,4.55845 0.40592,4.55845 0.22324,0 0.42029,-0.68682 0.43788,-1.52627 z m 9.90784,3.86655 c 0.62339,-1.95031 1.80047,-7.90042 1.81561,-9.17782 0.009,-0.73864 -0.26845,-1.89435 -0.616,-2.56826 -0.34754,-0.67389 -0.57588,-1.89125 -0.50739,-2.70522 l 0.12453,-1.47996 3.65317,0.0981 c 4.53545,0.12177 6.41117,0.0775 6.64483,-0.15679 0.33625,-0.33715 1.27038,0.71998 1.27038,1.43765 0,0.39184 -0.35346,1.51411 -0.78547,2.49394 -0.69274,1.5712 -0.73916,2.16589 -0.39318,5.03755 0.21574,1.79082 0.66053,4.19999 0.98842,5.3537 0.32787,1.15371 0.59615,2.21737 0.59615,2.36368 0,0.14631 -0.77631,0.20969 -1.72511,0.14086 l -1.72511,-0.12515 -0.31356,-2.64553 c -0.17245,-1.45504 -0.42879,-3.46972 -0.56964,-4.47705 l -0.25609,-1.83153 -0.31534,1.42452 c -0.29531,1.33388 -0.25233,2.39316 0.25274,6.22946 l 0.20393,1.54892 -1.93648,-0.1244 c -1.49381,-0.096 -1.89628,-0.26395 -1.76069,-0.7349 0.0967,-0.33578 0.25184,-2.21309 0.34481,-4.1718 0.19163,-4.03703 -0.47603,-4.95439 -0.88866,-1.22102 -0.14226,1.28716 -0.3631,3.21026 -0.49077,4.27356 l -0.23211,1.93326 -1.83584,0 c -1.71994,0 -1.81736,-0.0579 -1.54313,-0.91575 z m 4.72648,-14.8469 c -0.35767,-0.64084 -0.45203,-0.59022 -0.84841,0.45516 -0.3691,0.97338 -0.32153,1.31502 0.27588,1.98141 0.71037,0.79241 0.7239,0.78515 0.84843,-0.45515 0.0696,-0.69321 -0.0546,-1.58485 -0.2759,-1.98142 z m 4.40517,1.16715 c -0.0127,-0.53246 -0.77015,-1.44889 -1.00384,-1.21456 -0.13331,0.13366 -0.33906,0.95255 -0.45721,1.81973 l -0.21482,1.5767 0.84105,-0.96085 c 0.46258,-0.52847 0.83824,-1.07793 0.83482,-1.22102 z m 5.08007,6.25192 0,-8.3436 3.14579,0 3.14578,0 0,2.64553 c 0,2.7287 -0.33571,3.18106 -1.49677,2.01685 -0.78725,-0.78936 -1.54753,-0.56382 -1.54753,0.4591 0,0.60424 0.33525,0.80809 1.48733,0.90432 1.43364,0.11976 2.23968,0.92893 1.7373,1.74401 -0.12553,0.20366 -0.94808,0.37028 -1.82792,0.37028 l -1.59967,0 0,2.84903 c 0,2.45882 0.0988,2.84904 0.72151,2.84904 0.39681,0 1.10346,-0.26826 1.5703,-0.59614 1.10532,-0.77629 1.36137,-0.46004 1.36137,1.68148 l 0,1.76368 -3.34875,0 -3.34874,0 0,-8.34358 z m 18.82648,7.93385 c -0.94142,-0.55156 -1.71114,-2.6555 -1.41068,-3.85591 0.30746,-1.22833 1.04575,-1.34469 1.34132,-0.21141 0.13738,0.52678 0.55366,0.81402 1.17972,0.81402 0.89852,0 0.96743,-0.15482 0.96743,-2.1732 0,-1.92311 -0.11677,-2.22655 -1.01477,-2.6368 -1.22593,-0.56008 -1.2888,-1.11658 -0.20296,-1.79653 1.05352,-0.65971 1.06933,-1.94057 0.0239,-1.94057 -0.43331,0 -0.90075,0.18315 -1.03872,0.40701 -0.60053,0.97428 -1.01478,0.24697 -1.01478,-1.78169 0,-1.50603 0.20176,-2.35657 0.6468,-2.72693 0.98381,-0.81869 3.30302,-0.66589 4.24611,0.27974 1.09577,1.09873 1.44042,3.44749 0.71984,4.90567 -0.46906,0.9492 -0.47855,1.33584 -0.0534,2.17223 0.62619,1.23177 0.68959,5.22219 0.10737,6.75767 -0.74362,1.96117 -2.803,2.77932 -4.49728,1.7867 z m 17.29763,-0.40618 c -0.94969,-1.05223 -1.36462,-3.66707 -1.39477,-8.7897 -0.0277,-4.7121 0.40688,-6.36995 1.8417,-7.02547 1.46387,-0.66878 2.00951,-0.58253 3.2868,0.51955 l 1.13888,0.98266 0,6.78662 c 0,6.64134 -0.0205,6.80327 -0.95826,7.56444 -1.24294,1.00889 -2.98469,0.99193 -3.91435,-0.0381 z m 2.45885,-3.28931 c 0.37639,-0.61066 -0.21901,-8.10491 -0.64393,-8.10491 -0.44452,0 -0.63042,2.34028 -0.46069,5.79981 0.12691,2.58675 0.47864,3.32072 1.10462,2.3051 z m 4.23701,4.00348 c -0.002,-0.0559 -0.024,-3.85637 -0.0493,-8.44535 l -0.0459,-8.34359 2.07614,-0.12293 c 1.74991,-0.10361 2.23078,0.0321 3.0602,0.86378 3.10633,3.11472 2.02537,11.59586 -1.48608,11.65985 -0.96714,0.0177 -0.90489,1.2832 0.12784,2.59965 0.46102,0.58766 0.72422,1.25339 0.58491,1.47941 -0.20938,0.33971 -4.25717,0.63295 -4.2678,0.30918 z m 3.85947,-9.66636 c 0,-1.37477 -0.18603,-2.23288 -0.50739,-2.34028 -0.36934,-0.12345 -0.50737,0.51328 -0.50737,2.34028 0,1.827 0.13803,2.46372 0.50737,2.34027 0.32136,-0.1074 0.50739,-0.9655 0.50739,-2.34027 z m 6.18449,9.25935 c -0.3675,-0.27981 -0.85906,-1.02435 -1.09236,-1.65451 -0.53664,-1.44949 -0.55731,-11.67783 -0.0264,-13.07792 0.80389,-2.12009 3.83771,-2.38976 5.10294,-0.4536 0.50738,0.77647 0.65127,2.30465 0.69421,7.3732 l 0.0541,6.3937 -1.11763,0.96395 c -1.23364,1.064 -2.59088,1.2349 -3.6149,0.45518 z m 2.13663,-7.46175 c 0,-3.26451 -0.12286,-4.26666 -0.50738,-4.13895 -0.34241,0.11372 -0.54586,1.33845 -0.62568,3.7665 -0.12364,3.76039 0.0167,4.67992 0.71442,4.67992 0.26121,0 0.41864,-1.61978 0.41864,-4.30747 z m 4.26203,-0.57659 0,-8.5471 2.67697,0 c 3.6284,0 4.25219,0.66566 4.13857,4.41641 -0.12375,4.08582 -0.11675,4.50801 0.12727,7.67764 0.21173,2.74999 0.16073,3.00197 -0.80298,3.9683 -0.88355,0.88592 -1.39046,1.03184 -3.58445,1.03184 l -2.55538,0 0,-8.54709 z m 4.39721,4.71092 c 0.28997,-0.75771 -0.46634,-3.4899 -0.96607,-3.4899 -0.21275,0 -0.38683,0.91575 -0.38683,2.03502 0,1.46811 0.15752,2.03502 0.56544,2.03502 0.31099,0 0.66534,-0.26106 0.78746,-0.58014 z m -0.13517,-7.96695 c 0,-0.81402 -0.20296,-1.22102 -0.60887,-1.22102 -1.16445,0 -0.74024,2.01485 0.50739,2.4099 0.0557,0.0177 0.10148,-0.51732 0.10148,-1.18888 z m 4.30121,11.45968 c -0.11642,-0.1889 -0.0134,-1.05887 0.2289,-1.93327 0.38039,-1.37254 0.27776,-10.88819 -0.14881,-13.79997 -0.10414,-0.71079 0.11158,-0.814 1.70131,-0.814 l 1.82058,0 -0.12855,3.08866 -0.12855,3.08866 1.15847,-0.17048 c 0.82028,-0.12072 1.39011,0.0861 1.952,0.70873 0.66866,0.74085 0.79498,1.48818 0.80269,4.74869 0.008,3.58102 -0.0623,3.9275 -0.94913,4.64795 -0.71821,0.58346 -1.60194,0.77847 -3.52774,0.77847 -1.41321,0 -2.66473,-0.15454 -2.78117,-0.34344 z m 4.42582,-4.94761 c 0,-1.87617 -0.7643,-2.65353 -1.21354,-1.23427 -0.36173,1.14279 0.15828,3.35066 0.74313,3.15519 0.2601,-0.0869 0.47041,-0.94568 0.47041,-1.92092 z m 4.16033,5.05341 c -0.1516,-0.15201 -0.11072,-0.58537 0.0908,-0.96303 0.20158,-0.37765 0.62708,-1.81767 0.94559,-3.20003 0.48354,-2.09874 0.48982,-2.63131 0.038,-3.22814 -0.35124,-0.464 -0.54558,-1.9483 -0.55396,-4.23095 -0.0177,-4.80914 0.39955,-5.32046 4.20495,-5.15355 l 2.79652,0.12266 -0.0382,8.34359 -0.0382,8.3436 -1.63149,0.12461 -1.63147,0.12462 0.17775,-3.38065 c 0.18417,-3.50284 0.0917,-3.33244 -0.92657,1.7069 -0.25691,1.27146 -0.44203,1.43753 -1.72302,1.54563 -0.78936,0.0666 -1.55923,-0.003 -1.71083,-0.15526 z m 4.49094,-11.49507 c 0.0939,-0.95425 -0.0385,-1.29143 -0.50739,-1.29143 -0.45745,0 -0.63459,0.40711 -0.63459,1.45844 0,1.83896 0.9582,1.69883 1.14198,-0.16701 z M 92.54706,43.16791 c 0,-0.67156 0.137,-1.23256 0.30443,-1.24669 0.16744,-0.0141 1.21773,-0.06 2.33398,-0.10174 2.01111,-0.0754 2.03069,-0.0641 2.15673,1.24668 l 0.1272,1.32276 -2.46116,0 -2.46118,0 0,-1.22101 z m 39.779,-24.01327 0,-1.62803 -6.49453,0 -6.49452,0 0,-8.55987 c 0,-9.28688 0.0118,-9.33305 2.24269,-8.77162 0.92896,0.23378 1.01574,0.43453 0.94262,2.18067 -0.0443,1.05775 -0.0485,4.16679 -0.009,6.90898 l 0.0712,4.98581 1.31921,4.1e-4 1.31921,4e-4 -0.11957,-6.86909 c -0.13018,-7.47908 -0.0643,-7.69429 2.18135,-7.12914 l 0.98252,0.24727 0,6.87495 0,6.87496 1.4795,0 1.47948,0 -0.22805,-6.91908 -0.22808,-6.91908 1.58993,0 1.58993,0 0,6.87553 c 0,5.73613 0.1009,6.91436 0.60886,7.10981 0.46664,0.17955 0.60887,0.95032 0.60887,3.29958 l 0,3.06531 -1.42068,0 c -1.38686,0 -1.42068,-0.0388 -1.42068,-1.62802 z m 14.34777,1.00235 c -0.13169,-0.34412 0.10238,-1.01191 0.52014,-1.48398 0.54844,-0.61973 0.61853,-0.90777 0.25218,-1.03627 -0.2998,-0.10515 -0.50738,-0.89449 -0.50738,-1.92937 0,-1.61292 0.0911,-1.76482 1.15278,-1.92105 1.82912,-0.26919 2.09447,-8.2e-4 2.09447,2.1197 0,2.12865 -0.57094,4.06361 -1.34458,4.55686 -0.805,0.51324 -1.91401,0.35673 -2.16761,-0.30589 z M 54.97481,17.69884 C 54.68647,17.5723 54.58658,15.18118 54.67395,10.49718 l 0.13079,-7.01223 -1.93163,0 c -1.92633,0 -1.93197,-0.004 -2.05441,-1.47242 L 50.69593,0.54009 52.64528,0.37727 c 1.07215,-0.0895 3.5933,-0.068 5.60255,0.0479 l 3.65317,0.21074 0.12719,1.32276 c 0.11936,1.2413 0.0444,1.32674 -1.21772,1.38725 -0.73971,0.0355 -1.66037,0.0384 -2.04592,0.006 -0.6361,-0.0526 -0.71126,0.61024 -0.81182,7.15985 l -0.11082,7.21787 -1.21772,0.0791 c -0.66975,0.0435 -1.41197,-0.006 -1.64938,-0.11034 z m 9.89216,-0.47748 c -1.01854,-1.18912 -1.12431,-1.93762 -1.16263,-8.22766 -0.0484,-7.9495 0.45844,-8.96829 4.46187,-8.96829 2.01276,0 2.50874,0.15807 3.44645,1.0983 l 1.09534,1.09831 -0.1267,7.0786 c -0.12305,6.87532 -0.15421,7.10093 -1.08495,7.85581 -1.31425,1.06592 -5.73492,1.10921 -6.62938,0.065 z M 68.88851,14.758 c 0.33588,-0.214 0.52991,-2.03156 0.60886,-5.70313 0.12244,-5.69385 -0.0654,-6.32277 -1.75564,-5.87956 -0.81893,0.21473 -0.90483,1.13723 -0.76728,8.24037 0.0641,3.3123 0.5713,4.19791 1.91406,3.34232 z m 8.98142,2.87376 -3.10874,-0.13805 0.21765,-8.42889 c 0.11971,-4.63589 0.27721,-8.49669 0.35002,-8.57958 0.0728,-0.0828 1.40076,-0.15863 2.95105,-0.16836 3.63904,-0.0229 5.16975,0.59893 5.49555,2.2323 0.41631,2.08721 0.27338,4.1325 -0.37606,5.38123 -0.49498,0.95174 -0.51476,1.25426 -0.099,1.5139 0.3605,0.22513 0.49682,1.283 0.4452,3.45472 -0.0659,2.77292 -0.19131,3.23891 -1.09854,4.0824 -0.56326,0.52371 -1.16908,0.91533 -1.34626,0.87029 -0.17718,-0.045 -1.72108,-0.14404 -3.4309,-0.21996 z m 2.82766,-5.09095 c -0.11716,-1.6236 -0.20579,-1.7376 -1.44402,-1.85731 -1.31419,-0.12705 -1.3192,-0.12048 -1.3192,1.72977 0,1.85702 2.2e-4,1.85731 1.44403,1.85731 l 1.44402,0 -0.12483,-1.72977 z m -0.0989,-6.16543 c 0.48992,-1.95727 0.0785,-2.88033 -1.34511,-3.01796 l -1.3192,-0.12754 0,2.06081 c 0,2.01553 0.0266,2.06081 1.20999,2.06081 0.93845,0 1.26482,-0.21905 1.45432,-0.97612 z m 11.55196,10.99795 c -0.22846,-0.22909 -0.41539,-0.75779 -0.41539,-1.17492 0,-1.20765 -2.59338,-0.82124 -2.76811,0.41245 -0.10989,0.7758 -0.37847,0.91575 -1.75737,0.91575 -1.56131,0 -1.61818,-0.0456 -1.39543,-1.11925 0.45683,-2.20194 1.86182,-12.92524 1.86182,-14.21002 0,-0.72044 0.20995,-1.43997 0.46656,-1.599 0.67535,-0.41851 3.9999,-0.49282 4.24517,-0.0949 0.22452,0.36426 1.52567,8.76838 1.97393,12.74962 0.15123,1.34312 0.36682,2.83126 0.47911,3.30699 0.16835,0.71326 -0.0132,0.89696 -1.03536,1.04737 -0.68173,0.10033 -1.42646,-0.005 -1.65493,-0.2341 z M 91.30441,12.54081 C 91.29071,12.261 91.04683,10.74999 90.76247,9.18303 L 90.24548,6.33399 89.95425,8.77602 c -0.16017,1.34312 -0.37643,2.85412 -0.48056,3.35778 -0.15664,0.75758 -0.0127,0.91576 0.83317,0.91576 0.56237,0 1.01127,-0.22893 0.99755,-0.50875 z m 5.30174,-3.56129 0,-8.5471 0.9133,-0.0331 c 0.50232,-0.0181 1.46127,-0.0947 2.13103,-0.17019 2.02711,-0.22827 4.1198,0.21339 5.02714,1.06098 0.71419,0.66718 0.85852,1.2751 0.85852,3.61603 0,1.54772 -0.20281,3.26034 -0.45067,3.80582 -0.51306,1.12908 -1.80576,1.83843 -2.99954,1.64597 -1.9907,-0.32093 -2.23251,0.0838 -2.23251,3.73655 l 0,3.4321 -1.62363,0 -1.62364,0 0,-8.54709 z m 5.68272,-3.66304 c 0,-1.9898 -0.0271,-2.03502 -1.21773,-2.03502 -1.19066,0 -1.21772,0.0452 -1.21772,2.03502 0,1.9898 0.0271,2.03502 1.21772,2.03502 1.19067,0 1.21773,-0.0452 1.21773,-2.03502 z m 5.77605,3.58634 0.10962,-8.6739 1.42068,0 1.42067,0 -0.12637,4.0611 c -0.0695,2.23361 -0.0211,3.95548 0.1077,3.82638 0.12875,-0.1291 0.83617,-1.9566 1.57201,-4.0611 l 1.33792,-3.82638 1.39573,0 1.39573,0 0.10955,8.64885 0.10955,8.64884 -1.61648,0 -1.61646,0 -0.11672,-3.75998 -0.1167,-3.75999 -1.21773,3.65824 -1.21773,3.65823 -1.5303,0.12682 -1.5303,0.1268 0.10963,-8.67391 z m 29.22546,-0.0251 0.10955,-8.64885 1.42068,0 1.42067,0 0.20296,3.66304 0.20295,3.66305 1.21773,-3.66305 1.21772,-3.66304 1.62364,0 c 1.04994,0 1.60928,0.17977 1.58303,0.50876 -0.0223,0.27982 -0.068,4.1718 -0.10147,8.64884 l -0.0609,8.1401 -1.66662,0 -1.66662,0 0.16189,-3.66305 c 0.089,-2.01466 0.0505,-3.66303 -0.0856,-3.66303 -0.13612,0 -0.78113,1.64837 -1.43337,3.66303 l -1.18588,3.66305 -1.53495,0 -1.53495,0 0.10955,-8.64885 z"/>
</svg>
